<svg width="1252" height="1252" viewBox="0 0 1252 1252" fill="none" xmlns="http://www.w3.org/2000/svg">
<g clip-path="url(#clip0_113_2)">
<path d="M201.984 1085H119.597L245.13 721.364H344.207L469.562 1085H387.176L296.089 804.46H293.248L201.984 1085ZM196.835 942.067H391.437V1002.08H196.835V942.067ZM576.007 1085H493.621L619.154 721.364H718.23L843.585 1085H761.199L670.112 804.46H667.271L576.007 1085ZM570.858 942.067H765.46V1002.08H570.858V942.067ZM829.07 784.751V721.364H1127.72V784.751H1016.39V1085H940.398V784.751H829.07Z" fill="white"/>
<path d="M879.423 322.501C877.233 318.65 874.298 315.275 870.79 312.572C867.282 309.869 863.271 307.893 858.991 306.758C843.464 302.762 827.42 301.154 811.41 301.99C819.994 259.358 813.556 225.638 807.117 205.643C804.491 197.43 798.905 190.489 791.448 186.17C783.99 181.851 775.193 180.463 766.769 182.276C744.929 187.142 724.163 195.964 705.495 208.306C691.821 180.357 671.915 155.925 647.311 136.894C641.349 132.419 634.097 130 626.644 130C619.19 130 611.938 132.419 605.976 136.894C581.333 155.913 561.389 180.346 547.685 208.306C529.017 195.964 508.251 187.142 486.411 182.276C477.989 180.454 469.191 181.838 461.734 186.159C454.278 190.48 448.698 197.426 446.084 205.643C439.646 225.638 433.207 259.336 441.663 301.99C425.653 301.154 409.608 302.762 394.082 306.758C389.802 307.893 385.791 309.869 382.283 312.572C378.775 315.275 375.84 318.65 373.65 322.501C371.361 326.442 369.878 330.8 369.289 335.321C368.699 339.842 369.014 344.434 370.216 348.832C377.492 375.85 399.834 427.202 467.503 467.666C535.173 508.129 594.622 508 626.644 508C658.665 508 718.222 508 785.462 467.666C853.132 427.202 875.474 375.85 882.749 348.832C883.967 344.441 884.3 339.852 883.729 335.332C883.158 330.812 881.694 326.45 879.423 322.501ZM485.102 438.177C427.949 403.986 409.384 362.062 403.332 339.833C419.122 335.931 435.512 335.078 451.621 337.32C456.999 351.738 463.568 365.682 471.259 379.008C490.143 411.586 514.882 440.392 544.23 463.972C523.478 457.999 503.599 449.327 485.102 438.177ZM626.536 470.2C606.512 455.295 557.858 409.57 557.858 317.217C557.858 226.003 605.89 179.913 626.536 164.364C647.183 179.956 695.215 226.046 695.215 317.26C695.215 409.57 646.56 455.295 626.536 470.2ZM849.741 339.876C843.796 361.869 825.274 403.9 767.992 438.177C749.494 449.319 729.615 457.984 708.864 463.95C738.212 440.37 762.951 411.565 781.835 378.986C789.527 365.66 796.095 351.716 801.473 337.299C817.578 335.078 833.959 335.946 849.741 339.854V339.876Z" fill="#EC4899"/>
</g>
<defs>
<clipPath id="clip0_113_2">
<rect width="1252" height="1252" fill="white"/>
</clipPath>
</defs>
</svg>
