<svg width="825" height="825" viewBox="0 0 825 825" fill="none" xmlns="http://www.w3.org/2000/svg">
<mask id="mask0_137_4248" style="mask-type:alpha" maskUnits="userSpaceOnUse" x="0" y="0" width="825" height="825">
<circle cx="412.5" cy="412.5" r="412.5" fill="#D9D9D9"/>
</mask>
<g mask="url(#mask0_137_4248)">
<path d="M294.504 171.674C288.509 154.276 286.556 136.684 288.496 118.437C295.575 51.8666 358.85 20.2242 419.906 23.7141C443.493 25.0625 483.333 32.8878 488.089 60.8121C498.024 61.0086 505.596 63.3103 512.678 70.7661C535.614 94.9128 538.968 141.503 527.161 171.842C547.668 175.303 545.995 186.574 546.711 203.794C547.518 223.212 537.556 237.795 530.003 254.776C526.398 262.783 518.616 273.198 508.793 267.876C507.815 282.259 505.165 289.832 499.735 302.695C498.375 305.918 496.243 319.233 495.825 323.007C498.996 326.21 501.317 328.772 505.473 330.766C517.76 336.666 531.639 340.873 544.565 345.459L565.66 352.825C568.738 353.916 575.481 356.764 578.362 357.248C599.734 360.829 616.482 363.524 635.675 375.068C655.135 386.772 668.295 403.876 678.219 424.09C687.087 441.631 690.85 460.312 693.668 479.578C694.396 484.56 695.057 498.419 696.676 502.257C702.636 516.38 710.722 529.238 715.611 544.102C722.979 566.502 729.172 588.413 733.329 611.648C735.9 625.061 738.104 639.1 740.951 652.371C743.127 662.512 748.533 674.951 751.366 685.41C758.073 710.169 761.056 736.985 761.34 762.606C761.396 767.694 761.051 776.769 760.326 781.612L759.727 782.061C740.653 794.591 699.947 805.721 677.253 809.751L676.3 809.398C675.147 806.798 674.298 803.965 673.432 801.253C664.919 774.58 656.826 747.032 655.402 718.921C655.14 714.346 655.093 709.761 655.263 705.182C655.497 698.953 656.285 691.484 654.974 685.418C654.17 681.695 649.376 675.878 647.392 672.227C644.098 666.164 640.551 660.21 637.527 653.995C632.417 642.211 627.909 629.865 624.107 617.602C621.794 610.139 619.493 600.671 616.81 593.668C616.577 615.588 612.738 635.47 607.685 656.619C606.519 661.503 604.552 666.039 603.939 670.956C603.28 679.887 604.064 688.788 604.583 697.69C606.218 725.716 609.647 744.981 600.725 772.618C603.673 785.693 605.637 797.99 606.873 811.278C607.133 814.08 608.638 820.721 608.3 822.915L607.896 822.857C594.454 824.12 580.301 826.931 566.771 828.241C563.083 828.597 553.719 829.869 550.36 829.374L547.572 830.229C545.064 831.07 522.237 832.56 518.293 832.819C472.943 835.672 427.492 836.581 382.065 835.544C351.79 834.981 321.245 833.941 291.104 831.062C288.75 830.837 279.055 830.313 277.486 829.771L275.809 829.345C270.126 829.725 264.336 828.463 258.79 828.008C245.729 826.937 230.75 823.618 217.914 822.825L217.595 822.333C217.895 817.292 219.103 812.267 219.54 807.446C220.704 794.578 222.522 784.467 225.333 771.837C214.511 738.262 222.689 709.425 222.192 675.327C222.09 668.292 218.912 662.589 217.556 655.823C215.836 647.241 213.568 638.756 211.894 630.165C210.039 618.06 208.758 605.551 208.407 593.311C201.778 613.616 196.905 633.299 188.066 653.133C185.199 659.567 181.229 666.121 177.853 672.288C175.843 675.96 170.809 682.589 170.219 686.304C168.903 694.595 170.582 704.631 170.504 713.197C170.38 726.857 167.901 741.645 165.372 754.767C164.205 760.826 152.152 807.89 149.279 809.788C124.758 805.661 87.8895 794.635 66.1303 782.434C63.8976 780.129 64.531 767.961 64.398 764.323C62.9072 723.528 72.2483 687.847 85.3131 649.798C89.9495 636.295 90.4643 612.727 95.1852 598.372C99.3398 578.747 104.32 562.286 110.672 543.365C113.199 536.068 116.235 528.958 119.756 522.086C121.846 517.992 127.469 507.627 128.402 503.951C130.665 494.691 130.896 484.752 132.527 475.335C134.638 463.143 136.81 450.559 140.996 438.918C155.325 399.063 184.534 367.92 227.65 360.583C234.609 359.399 241.887 358.095 248.787 356.537C253.073 355.387 260.294 352.435 264.882 350.811L295.081 340.328C305.321 336.767 318.78 332.441 327.123 325.709C326.215 320.614 325.351 315.51 324.533 310.398C324.135 307.778 323.775 304.352 323.205 301.866C322.466 298.65 319.548 294.804 318.505 291.598C316.019 283.96 315.265 275.81 313.967 267.93C311.461 269.329 309.458 269.897 306.594 269.061C296.109 266 292.114 252.767 287.911 244.143C280.982 229.961 277.121 215.792 277.789 199.931C278.028 194.253 277.62 190.145 279.316 184.424C281.974 175.455 286.215 173.838 294.504 171.674Z" fill="#F9C9AA"/>
<path d="M294.504 171.674C288.509 154.276 286.556 136.684 288.496 118.437C295.575 51.8666 358.85 20.2242 419.906 23.7141C443.493 25.0625 483.333 32.8878 488.089 60.8121C498.024 61.0086 505.596 63.3103 512.678 70.7661C535.614 94.9128 538.968 141.503 527.161 171.842C547.668 175.303 545.995 186.574 546.711 203.794C547.518 223.212 537.556 237.795 530.003 254.776C526.398 262.783 518.616 273.198 508.793 267.876C507.815 282.259 505.165 289.832 499.735 302.695C498.375 305.918 496.243 319.233 495.825 323.007C498.996 326.21 501.317 328.772 505.473 330.766C517.76 336.666 531.639 340.873 544.565 345.459L565.66 352.825C568.738 353.916 575.481 356.764 578.362 357.248C599.734 360.829 616.482 363.524 635.675 375.068C655.135 386.772 668.295 403.876 678.219 424.09C687.087 441.631 690.85 460.312 693.668 479.578C694.396 484.56 695.057 498.419 696.676 502.257C702.636 516.38 710.722 529.238 715.611 544.102C722.979 566.502 729.172 588.413 733.329 611.648C735.9 625.061 738.104 639.1 740.951 652.371C743.127 662.512 748.533 674.951 751.366 685.41C758.073 710.169 761.056 736.985 761.34 762.606C761.396 767.694 761.051 776.769 760.326 781.612L759.727 782.061C759.178 781.052 759.649 769.589 759.587 767.625C759.004 749.071 757.98 730.329 755.147 711.995C753.578 701.582 751.171 691.312 747.949 681.285C743.928 668.918 739.609 658.463 737.391 645.523C729.451 599.219 719.942 548.38 696.322 507.156L696.242 515.305C695.022 510.499 694.794 500.869 693.957 495.35C691.02 475.986 688.993 455.429 681.738 437.096C668.068 402.553 646.089 376.917 609.639 365.755C598.739 361.986 586.217 361.635 575.317 358.303C560.959 353.915 546.793 347.769 532.495 343.068C520.275 339.05 504.976 334.719 496.002 325.078C495.578 330.247 495.083 335.41 494.516 340.566C493.814 339.545 493.854 338.082 493.729 336.779C494.087 331.209 494.215 326.054 494.311 320.469C494.954 315.685 495.899 310.946 497.143 306.281C486.021 323.65 472.262 332.421 456.887 345.514C444.044 356.451 424.256 363.832 407.347 361.687C394.719 360.891 386.029 355.046 375.378 349.502C365.15 344.179 360.891 339.091 352.171 332.154C342.153 324.184 336.625 319.821 328.66 309.894C327.783 308.485 326.703 306.629 325.707 305.355C326.916 313.938 330.935 331.199 331.117 338.86C331.08 340.22 331.305 343.094 330.637 343.871L330.349 343.905C329.92 338.55 328.633 332.289 327.491 327.018C317.234 335.613 298.704 341.137 285.934 345.408C273.577 349.341 261.08 355.179 248.599 358.472C235.919 361.817 223.671 362.47 211.163 367.167C188.945 375.51 174.874 385.999 161.013 405.215C144.581 427.994 138.723 449.255 134.244 476.427C132.54 486.276 131.221 496.188 130.289 506.141C130.216 506.978 130.153 507.818 130.1 508.658L128.792 508.877C127.372 510.892 123.612 519.117 122.223 521.948C107.826 551.299 99.4725 585.981 93.2656 617.904C90.7567 629.039 89.6638 641.041 87.0332 652.065C84.5016 662.677 79.828 673.715 76.5382 684.164C68.5975 709.38 66.9788 735.501 66.193 761.758C66.0914 765.155 66.7176 780.483 66.1303 782.434C63.8976 780.129 64.531 767.961 64.398 764.323C62.9072 723.528 72.2483 687.847 85.3131 649.798C89.9495 636.295 90.4643 612.727 95.1852 598.372C99.3398 578.747 104.32 562.286 110.672 543.365C113.199 536.068 116.235 528.958 119.756 522.086C121.846 517.992 127.469 507.627 128.402 503.951C130.665 494.691 130.896 484.752 132.527 475.335C134.638 463.143 136.81 450.559 140.996 438.918C155.325 399.063 184.534 367.92 227.65 360.583C234.609 359.399 241.887 358.095 248.787 356.537C253.073 355.387 260.294 352.435 264.882 350.811L295.081 340.328C305.321 336.767 318.78 332.441 327.123 325.709C326.215 320.614 325.351 315.51 324.533 310.398C324.135 307.778 323.775 304.352 323.205 301.866C322.466 298.65 319.548 294.804 318.505 291.598C316.019 283.96 315.265 275.81 313.967 267.93C311.461 269.329 309.458 269.897 306.594 269.061C296.109 266 292.114 252.767 287.911 244.143C280.982 229.961 277.121 215.792 277.789 199.931C278.028 194.253 277.62 190.145 279.316 184.424C281.974 175.455 286.215 173.838 294.504 171.674Z" fill="#030101"/>
<path d="M308.064 207.918C308.599 207.015 308.837 206.565 308.429 205.508C293.6 167.165 281.557 133.507 296.925 92.3521C315.563 42.4395 375.056 20.9869 424.858 25.9396C437.214 27.1794 449.344 30.0783 460.925 34.5583C473.629 39.3711 490.21 52.2675 484.326 67.6937C486.523 67.4244 486.295 67.1111 487.174 65.3293C487.561 63.4023 487.224 63.5762 488.354 62.3356C491.217 61.3509 499.24 63.5114 501.861 65.0519C527.395 80.0595 533.676 116.439 531.296 143.704C530.879 148.478 530.718 153.324 529.592 157.99C524.09 174.55 519.579 191.501 513.36 207.801C513.228 208.145 512.976 208.535 512.778 208.859L513.114 209.565C516.08 206.543 524.567 179.468 526.505 173.535C531.833 174.343 537.038 174.878 540.396 179.751C545.405 187.076 544.803 196.125 545.035 204.556C545.386 217.312 540.203 228.81 534.942 240.16C531.482 247.626 520.957 276.79 508.952 264.807C509.617 257.509 510.126 250.303 510.845 242.944C510.59 241.66 510.545 241.774 509.989 240.563C509.216 247.084 508.437 253.606 507.731 260.134C507.139 265.606 506.907 271.444 505.982 276.85C503.055 293.967 494.789 309.722 482.367 321.858C474.616 329.368 463.579 337.42 455.045 344.669C443.326 354.624 422.628 361.77 406.986 359.538C393.858 357.664 377.96 349.488 366.608 342.332C361.822 339.315 356.497 332.35 351.458 329.021C343.587 322.614 338.357 319.272 332.113 311.254C315.216 289.554 316.81 273.277 314.097 247.738L313.535 248.092L313.291 252.118C313.232 256.937 313.464 260.363 313.844 265.135C312.076 266.321 311.399 266.811 309.483 267.66C304.81 267.614 300.038 264.056 297.742 260.104C291.802 249.877 286.811 237.681 282.994 226.408C278.574 213.354 276.849 193.943 282.82 181.049C285.313 176.14 289.986 174.832 294.829 173.504C297.42 181.307 301.025 189.046 303.689 196.868C304.963 200.609 306.842 204.133 308.064 207.918Z" fill="#F9C9AA"/>
<path d="M308.064 207.918C308.599 207.015 308.837 206.565 308.429 205.508C293.6 167.165 281.557 133.507 296.925 92.3521C315.563 42.4395 375.056 20.9869 424.858 25.9396C437.214 27.1794 449.344 30.0783 460.925 34.5583C473.629 39.3711 490.21 52.2675 484.326 67.6937C486.523 67.4244 486.295 67.1111 487.174 65.3293C487.561 63.4023 487.224 63.5762 488.354 62.3356C491.217 61.3509 499.24 63.5114 501.861 65.0519C527.395 80.0595 533.676 116.439 531.296 143.704C530.879 148.478 530.718 153.324 529.592 157.99C524.09 174.55 519.579 191.501 513.36 207.801C513.228 208.145 512.976 208.535 512.778 208.859L512.492 206.733L512.509 200.79C511.333 187.065 509.338 172.015 508.962 158.299C508.311 155.03 508.516 149.358 508.522 145.854C507.441 141.681 506.764 134.145 505.956 129.404C504.342 121.954 503.177 118.935 503.094 111.347C499.735 99.4534 492.019 84.8545 482.657 76.8456C481.491 75.8191 480.595 75.0826 479.349 74.1561C472.726 71.5535 465.292 73.6473 457.68 73.1759C450.881 72.7549 447.13 72.2437 440.499 71.1057L439.918 71.6159C431.984 76.3259 413.829 74.1082 405.002 71.8777C403.447 71.9266 401.772 71.8864 400.206 71.88C390.838 71.2959 381.087 72.3944 372.729 71.3818C371.492 72.0791 371.028 72.4856 369.602 72.5129C361.523 73.4893 354.244 74.784 346.31 76.6485C344.022 77.1858 341.277 77.413 339.201 77.9707C327.888 90.6185 321.069 99.5295 317.924 117.289C317.233 121.197 317.254 129.638 315.68 133.242C317.18 136.356 316.466 141.155 315.092 144.211L315.089 145.32C314.855 147.189 314.679 149.065 314.562 150.945C314.529 158.1 313.804 165.229 313.449 172.367C312.92 183.035 310.577 193.528 310.301 204.218C310.339 206.503 310.038 208.558 308.922 210.582L308.086 210.055C308.075 209.599 308.012 208.294 308.064 207.918Z" fill="#AE7E52"/>
<path d="M312.175 113.93C313.453 112.86 316.719 110.132 317.6 108.85C322.014 102.427 323.857 94.8929 328.735 88.5085C331.452 84.9515 335.231 81.8334 337.464 78.3148C336.98 76.9591 336.11 78.4435 334.393 77.1456C335.835 76.5338 341.224 76.4893 343.3 76.0877C348.3 75.1203 366.021 70.4379 369.602 72.5129C361.523 73.4893 354.244 74.784 346.31 76.6485C344.022 77.1858 341.277 77.413 339.201 77.9707C327.888 90.6185 321.069 99.5295 317.924 117.289C317.233 121.197 317.254 129.638 315.68 133.242L314.021 135.848C313.885 135.195 315.342 130.639 315.567 129.19C316.751 121.576 316.825 115.62 319.142 108.222C317.569 110.114 315.258 112.384 313.5 114.16L312.175 113.93Z" fill="#21150D"/>
<path d="M405.002 71.8777C401.671 69.4956 393.4 63.2268 390.174 61.7223C381.706 57.7735 362.095 54.2785 352.798 53.8679L352.477 53.4873C352.746 53.431 362.266 54.3975 363.329 54.5004C371.111 55.2543 379.167 56.7685 386.73 58.7603C396.095 61.5112 401.093 70.6188 411.109 72.012C418.215 73.0004 423.881 73.386 431.075 72.5367C432.755 72.3383 438.75 71.5322 439.918 71.6159C431.984 76.3259 413.829 74.1082 405.002 71.8777Z" fill="#21150D"/>
<path d="M408.065 44.5392C421.477 51.3115 434.023 59.2403 444.235 70.3877C453.027 72.507 465.934 72.26 475.061 71.4278C476.536 72.2225 478.207 72.9699 479.349 74.1561C472.726 71.5535 465.292 73.6473 457.68 73.1759C450.881 72.7549 447.13 72.2437 440.499 71.1057C439.511 70.5552 439.262 70.3851 438.37 69.6876C439.311 69.3586 442.191 70.2844 443.434 70.5807C431.255 59.6474 422.167 52.9129 407.508 45.3941L408.065 44.5392Z" fill="#21150D"/>
<path d="M508.962 158.299C508.961 155.25 508.927 152.461 509.183 149.418C510.268 155.43 510.267 161.972 510.799 168.104C511.633 177.703 512.499 187.302 513.37 196.899C513.266 198.452 513.378 199.532 512.509 200.79C511.333 187.065 509.338 172.015 508.962 158.299Z" fill="#030101"/>
<path d="M314.562 150.945C314.529 158.1 313.804 165.229 313.449 172.367C312.92 183.035 310.577 193.528 310.301 204.218L309.967 204.402L309.636 203.997C309.481 195.941 310.293 186.464 311.717 178.504C312.652 173.283 312.653 154.498 314.562 150.945Z" fill="#030101"/>
<path d="M482.657 76.8456L483.319 76.448C490.032 82.5523 497.929 93.9671 501.416 102.369C502.874 105.884 503.912 110.422 505.46 113.711L504.826 114.136C503.635 112.924 503.707 112.963 503.094 111.347C499.735 99.4534 492.019 84.8545 482.657 76.8456Z" fill="#21150D"/>
<path d="M372.729 71.3818C369.265 70.6967 368.029 70.5336 364.888 69.0009L364.869 68.7413C370.131 69.9031 373.204 70.4402 378.574 70.6421C384.731 70.8737 394.515 69.5245 400.206 71.88C390.838 71.2959 381.087 72.3944 372.729 71.3818Z" fill="#21150D"/>
<path d="M505.956 129.404C507.641 130.347 507.754 132.957 507.798 134.814C508 143.39 512.442 149.159 516.142 156.638C513.484 153.463 510.686 147.735 508.522 145.854C507.441 141.681 506.764 134.145 505.956 129.404Z" fill="#452818"/>
<path d="M315.089 145.32C314.096 147.304 309.902 152.618 308.306 154.748C305.266 158.807 303.629 161.544 301.017 165.932L300.825 165.826C303.072 160.545 306.014 155.982 309.498 151.422C311.267 149.106 313.573 146.653 315.092 144.211L315.089 145.32Z" fill="#452818"/>
<path d="M505.46 113.711C506.569 115.485 512.56 124.846 512.403 126.054C509.797 122.695 506.606 117.997 504.826 114.136L505.46 113.711Z" fill="#7A5737"/>
<path d="M313.5 114.16C310.772 116.521 309.076 118.846 306.257 121.213L305.827 121.568L306.231 121.458L305.706 120.346L306.613 121.213L305.941 120.025L306.021 119.922L306.95 120.975L306.251 119.637C308.099 117.689 310.066 115.58 312.175 113.93L313.5 114.16Z" fill="#7A5737"/>
<path d="M484.326 67.6937C486.523 67.4244 486.295 67.1111 487.174 65.3293C487.096 67.3966 487.227 67.7183 486.035 69.2649L485.887 69.2509L485.945 68.8377C484.113 71.5799 483.654 72.5991 482.341 75.6556C482.954 72.5145 483.316 70.7115 484.326 67.6937Z" fill="#21150D"/>
<path d="M407.508 45.3941C406.321 44.9428 403.652 44.8259 401.948 44.4751L402.024 44.0683C404.337 43.2485 405.725 43.7182 408.065 44.5392L407.508 45.3941Z" fill="#7A5737"/>
<path d="M513.37 196.899C513.633 199.262 513.906 204.944 512.492 206.733L512.509 200.79C513.378 199.532 513.266 198.452 513.37 196.899Z" fill="#452818"/>
<path d="M339.712 68.366C348.894 65.7257 360.575 60.9686 369.472 66.3888C368.713 66.6183 363.396 65.6063 361.737 65.3003C357.946 64.601 344.236 67.3721 341.367 68.9664L339.712 68.366Z" fill="#21150D"/>
<path d="M491.436 74.6401L496.279 74.2885L496.647 74.4796L497.255 74.8051C504.646 78.6825 508.306 85.3153 512.587 92.3041L512.317 92.5569C508.023 86.7531 503.597 80.4855 497.726 76.174C494.521 73.8203 494.385 75.0942 491.205 75.0129L491.436 74.6401Z" fill="#21150D"/>
<path d="M335.16 79.0565L335.396 79.1766L335.438 79.5651C326.155 83.5819 323.693 85.0692 315.486 90.763L315.348 90.4486C321.678 84.1794 327.151 82.0807 335.16 79.0565Z" fill="#452818"/>
<path d="M508.085 131.417C511.954 134.249 517.638 142.28 520.307 146.361C518.254 145.221 508.896 133.825 508.085 131.417Z" fill="#21150D"/>
<path d="M453.545 46.423C456.452 47.4146 467.422 56.6089 469.832 59.2181C466.839 58.0324 455.864 49.1193 453.545 46.423Z" fill="#452818"/>
<path d="M313.895 121.588L314.325 121.708C314.302 121.849 304.587 133.719 303.471 135.341L303.028 135.204C303.39 132.175 311.355 124.091 313.895 121.588Z" fill="#7A5737"/>
<path d="M484.175 76.0757C487.355 76.3565 491.554 78.9376 494.081 80.8196C490.894 80.111 486.983 77.7824 484.175 76.0757Z" fill="#21150D"/>
<path d="M341.367 68.9664C339.318 69.6541 336.948 70.5404 334.802 70.6303L334.897 69.9891C336.505 69.4277 338.082 68.8702 339.712 68.366L341.367 68.9664Z" fill="#7A5737"/>
<path d="M522.633 215.002C525.497 218.636 528.805 223.223 529.204 227.855C528.002 231.579 525.212 234.982 522.882 238.146L519.372 241.347C519.093 240.76 518.612 239.257 518.371 238.574C517.2 237.92 517.151 238.273 515.407 238.662C515.817 237.856 516.473 236.925 516.979 236.149C517.064 232.64 517.889 231.518 519.522 228.47C519.279 225.636 519.017 222.82 519.576 220.028C521.39 218.4 521.884 217.26 522.633 215.002Z" fill="url(#paint0_linear_137_4248)"/>
<path d="M519.576 220.028C520.313 223.4 520.601 225.887 520.987 229.337C520.213 230.728 517.845 235.186 516.979 236.149C517.064 232.64 517.889 231.518 519.522 228.47C519.279 225.636 519.017 222.82 519.576 220.028Z" fill="#030101"/>
<path d="M533.266 193.9C535.137 192.167 536.779 188.916 538.46 187.831C543.235 188.595 538.693 207.731 539.383 211.782C539.612 213.384 539.471 213.633 539.071 215.155L538.504 215.376C537.799 214.283 537.996 214.449 537.912 212.996L537.555 212.983C536.975 214.226 537.556 214.527 536.966 216.126L536.721 216.458C536.788 212.91 534.163 204.172 530.912 202.465L529.902 201.701L530.128 201.206C530.943 198.404 531.348 196.095 533.266 193.9Z" fill="#EBAD87"/>
<path d="M530.128 201.206C536.07 201.553 537.185 211.465 536.966 216.126L536.721 216.458C536.788 212.91 534.163 204.172 530.912 202.465L529.902 201.701L530.128 201.206Z" fill="#76331A"/>
<path d="M305.16 234.834C305.731 239.55 308.405 239.837 311.525 243.052L312.565 242.683C312.795 245.028 312.94 250.383 313.291 252.118C313.232 256.937 313.464 260.363 313.844 265.135C312.076 266.321 311.399 266.811 309.483 267.66C308.903 265.307 306.221 258.382 306.278 256.98C306.442 252.902 307.226 248.758 307.055 244.328C305.888 242.958 304.348 241.809 304.75 240.021L306.043 239.363C305.057 237.726 304.876 237.32 304.278 235.503L305.16 234.834Z" fill="#EBAD87"/>
<path d="M305.16 234.834C305.731 239.55 308.405 239.837 311.525 243.052C311.721 245.307 311.96 250.862 310.056 252.391L310.618 252.24L310.088 252.796L310.242 252.968L309.949 252.777C309.688 250.226 310.383 247.561 310.862 244.994C309.308 243.345 307.568 241.128 306.043 239.363C305.057 237.726 304.876 237.32 304.278 235.503L305.16 234.834Z" fill="#AF5827"/>
<path d="M511.985 242.303C511.9 246.044 511.966 249.349 514.966 251.999L515.864 251.989C517.027 254.088 517.709 256.435 517.136 258.782C516.238 262.453 511.749 262.322 509.648 263.133L508.952 264.807C509.617 257.509 510.126 250.303 510.845 242.944L510.993 242.797L511.985 242.303Z" fill="#EBAD87"/>
<path d="M515.407 238.662C517.151 238.273 517.2 237.92 518.371 238.574C518.612 239.257 519.093 240.76 519.372 241.347L519.001 242.469C514.165 245.139 517.549 246.824 515.8 251.571L515.864 251.989L514.966 251.999C511.966 249.349 511.9 246.044 511.985 242.303L515.119 239.319L515.407 238.662Z" fill="#F1B590"/>
<path d="M515.119 239.319C515.277 241.875 514.808 242.1 513.153 244.287C513.755 247.46 513.784 249.048 515.8 251.571L515.864 251.989L514.966 251.999C511.966 249.349 511.9 246.044 511.985 242.303L515.119 239.319Z" fill="#944521"/>
<path d="M533.266 193.9C534.523 190.929 535.313 187.873 538.036 186.317C539.744 186.158 538.962 185.996 540.467 186.821C543.601 191.359 540.793 206.257 539.383 211.782C538.693 207.731 543.235 188.595 538.46 187.831C536.779 188.916 535.137 192.167 533.266 193.9Z" fill="#21150D"/>
<path d="M529.902 201.701L530.912 202.465C527.114 204.962 521.371 209.299 523.871 214.397L522.637 214.774C519.35 209.375 525.842 204.215 529.902 201.701Z" fill="#21150D"/>
<path d="M304.278 235.503C303.941 234.157 302.832 232.463 302.27 231.164C300.29 226.581 300.999 223.435 302.261 218.904C302.046 229.224 303.461 226.622 305.16 234.834L304.278 235.503Z" fill="#030101"/>
<path d="M523.871 214.397C525.654 216.997 529.742 222.87 530.229 225.733C529.837 226.461 529.446 227.073 529.204 227.855C528.805 223.223 525.497 218.636 522.633 215.002L522.637 214.774L523.871 214.397Z" fill="#76331A"/>
<path d="M312.633 232.406C313.106 235.577 314.184 244.551 314.097 247.738L313.535 248.092L313.291 252.118C312.94 250.383 312.795 245.028 312.565 242.683C312.507 239.121 312.496 235.962 312.633 232.406Z" fill="#21150D"/>
<path d="M530.229 225.733C530.488 232.114 526.878 233.644 523.539 238.35L522.882 238.146C525.212 234.982 528.002 231.579 529.204 227.855C529.446 227.073 529.837 226.461 530.229 225.733Z" fill="#452818"/>
<path d="M510.936 231.381C511.148 235.232 511.244 238.939 510.993 242.797L510.845 242.944C510.59 241.66 510.545 241.774 509.989 240.563C510.034 237.417 510.382 234.48 510.936 231.381Z" fill="#21150D"/>
<path d="M522.882 238.146L523.539 238.35C521.922 240.557 521.514 241.311 519.001 242.469L519.372 241.347L522.882 238.146Z" fill="#CA8457"/>
<path d="M428.774 251.856C436.868 247.188 441.924 238.918 434.642 230.942C433.903 230.132 432.356 228.78 432.007 227.875C437.197 230.838 440.056 234.734 439.567 240.809C447.917 251.238 425.818 261.068 416.641 260.739C415.497 260.358 412.148 260.219 411 260.417C410.679 260.46 409.656 260.607 409.293 260.553C399.98 259.144 388.242 260.025 381.327 252.271C377.557 248.042 376.066 242.955 380.91 239.09C382.481 232.889 383.638 231.383 389.21 228.03C387.477 231.005 381.128 234.037 382.932 241.442C383.873 245.307 387.447 248.912 390.817 250.827C391.176 251.029 391.538 251.225 391.902 251.414L392.134 248.933C392.411 247.672 392.101 248.223 393.292 247.353C396.883 246.694 400.253 248.645 403.299 250.412C405.571 249.081 416.837 249.196 419.539 249.685C421.871 248.741 426.35 246.494 428.39 248.281L428.399 249.261C428.371 250.415 428.227 250.862 428.774 251.856Z" fill="#EBAD87"/>
<path d="M428.774 251.856C436.868 247.188 441.924 238.918 434.642 230.942C433.903 230.132 432.356 228.78 432.007 227.875C437.197 230.838 440.056 234.734 439.567 240.809C437.32 249.561 431.26 252.703 423.174 254.836C425.031 253.823 426.898 252.829 428.774 251.856Z" fill="#944521"/>
<path d="M380.91 239.09C382.481 232.889 383.638 231.383 389.21 228.03C387.477 231.005 381.128 234.037 382.932 241.442C383.873 245.307 387.447 248.912 390.817 250.827C391.176 251.029 391.538 251.225 391.902 251.414C392.773 251.982 397.298 253.77 398.525 254.276C389.348 253.28 382.778 248.304 380.91 239.09Z" fill="#76331A"/>
<path d="M403.299 250.412C405.571 249.081 416.837 249.196 419.539 249.685L416.906 251.159C412.638 253.468 410.917 254.67 406.385 252.209L403.299 250.412Z" fill="#F1B590"/>
<path d="M392.134 248.933C392.411 247.672 392.101 248.223 393.292 247.353C396.883 246.694 400.253 248.645 403.299 250.412L406.385 252.209L406.569 253.389C401.414 251.623 396.681 247.934 392.134 248.933Z" fill="#030101"/>
<path d="M419.539 249.685C421.871 248.741 426.35 246.494 428.39 248.281L428.399 249.261C425.258 247.966 422.586 250.628 419.548 251.815L416.906 251.159L419.539 249.685Z" fill="#21150D"/>
<path d="M416.906 251.159L419.548 251.815C415.33 253.535 410.938 255.525 406.569 253.389L406.385 252.209C410.917 254.67 412.638 253.468 416.906 251.159Z" fill="#76331A"/>
<path d="M433.131 153.639C441.971 138.432 478.792 144.341 488.5 157.918C490.339 161.023 491.326 164.558 491.359 168.167C491.608 169.228 491.558 169.561 491.561 170.665C489.188 167.545 488.482 164.621 484.354 162.784C468.668 155.799 450.054 154.892 433.825 159.485C432.694 159.837 431.566 160.199 430.441 160.571C430.564 159.09 432.395 158.204 432.215 156.34C432.114 155.283 432.586 154.508 433.131 153.639Z" fill="#AE7E52"/>
<path d="M433.825 159.485C435.12 156.125 441.957 156.173 445.167 155.755C458.408 154.031 471.22 155.926 483.588 160.907C487.615 162.499 489.504 164.36 491.359 168.167C491.608 169.228 491.558 169.561 491.561 170.665C489.188 167.545 488.482 164.621 484.354 162.784C468.668 155.799 450.054 154.892 433.825 159.485Z" fill="#030101"/>
<path d="M433.131 153.639C441.971 138.432 478.792 144.341 488.5 157.918C486.317 157.466 481.393 152.694 478.975 151.487C467.222 145.624 452.504 144.402 440.033 148.627C437.446 149.503 435.461 152.7 433.131 153.639Z" fill="#030101"/>
<path d="M333.035 158.774C341.498 145.799 379.389 139.953 387.556 152.382C388.559 154.004 391.311 158.862 391.277 160.594C390.14 160.574 390.38 160.705 389.392 160.322C372.608 155.476 352.235 156.213 336.012 163.702C331.975 165.565 330.123 169.829 328.232 173.68L329.753 167.539C329.926 164.485 331.379 161.302 333.035 158.774Z" fill="#AE7E52"/>
<path d="M329.753 167.539C330.291 166.897 331.505 165.454 332.053 164.933C341.178 156.273 380.418 151.63 389.392 160.322C372.608 155.476 352.235 156.213 336.012 163.702C331.975 165.565 330.123 169.829 328.232 173.68L329.753 167.539Z" fill="#030101"/>
<path d="M333.035 158.774C341.498 145.799 379.389 139.953 387.556 152.382C384.742 151.551 382.192 149.154 379.425 148.455C368.783 145.765 353.762 146.806 343.935 151.702C340.137 153.569 336.649 156.011 333.592 158.939L333.035 158.774Z" fill="#030101"/>
<path d="M284.713 211.325C283.676 207.946 279.189 186.596 284.966 186.513C287.933 188.53 288.856 191.777 290.33 195.128C293.074 197.864 291.036 197.956 291.616 200.363L293.708 201.291L292.904 201.698C289.975 202.998 287.796 209.095 287.004 212.185L286.383 212.582L285.66 213.792C284.41 212.281 284.644 213.099 284.713 211.325Z" fill="#EBAD87"/>
<path d="M284.713 211.325C283.676 207.946 279.189 186.596 284.966 186.513C287.933 188.53 288.856 191.777 290.33 195.128C288.287 193.049 287.027 189.745 285.167 188.199C281.448 189.084 285.02 207.179 284.713 211.325Z" fill="#030101"/>
<path d="M291.616 200.363L293.708 201.291L292.904 201.698C289.975 202.998 287.796 209.095 287.004 212.185L286.383 212.582C286.452 207.98 288.331 203.589 291.616 200.363Z" fill="#452818"/>
<path d="M363.675 276.84C367.05 277.975 370.055 281.341 372.897 282.336C383.975 286.217 399.373 289.488 411.052 289.714C422.665 289.533 433.657 286.3 444.726 283.334C448.567 282.305 455.49 277.223 457.268 277.311L457.21 278.042C453.952 280.269 449.509 283.418 445.531 284.818C422.039 293.085 397.018 292.696 373.635 284.312C370.793 283.293 364.712 279.522 363.675 276.84Z" fill="#030101"/>
<path d="M411 260.417C412.148 260.219 415.497 260.358 416.641 260.739C407.939 260.613 411.684 269.245 414.159 273.791C412.335 278.847 411.633 276.668 408.306 281.862L408.225 282.474C404.367 280.708 405.468 274.072 406.809 270.922C406.502 267.738 409.492 263.41 411 260.417Z" fill="#F1B590"/>
<path d="M406.809 270.922L407.51 271.605C407.163 273.748 406.051 278.506 407.416 280.341C407.734 280.77 408.224 281.242 408.306 281.862L408.225 282.474C404.367 280.708 405.468 274.072 406.809 270.922Z" fill="#EBAD87"/>
<path d="M342.774 195.644C346.562 195.646 348.175 197.654 351.703 198.589C363.315 201.669 371.394 199.369 382.033 195.809L382.013 196.301C372.82 202.34 350.561 204.504 342.774 195.644Z" fill="#030101"/>
<path d="M475.736 195.777C475.927 195.961 475.962 196.401 476.046 196.746C475.115 198.45 470.505 200.026 468.494 200.412C459.876 202.062 449.005 201.335 441.143 197.336L440.52 196.523C442.115 196.266 446.043 197.886 447.952 198.31C458.662 200.686 466.039 200.061 475.736 195.777Z" fill="#030101"/>
<path d="M365.969 171.342C370.86 170.681 376.274 172.511 380.728 174.337C379.563 174.385 376.257 173.664 374.971 173.309C367.953 171.369 362.789 172.128 356.195 175.003C351.307 177.701 350.48 178.403 346.519 182.336C351.684 174.313 356.867 172.211 365.969 171.342Z" fill="#AF5827"/>
<path d="M421.615 199.57C421.329 187.098 416.995 175.497 430.311 168.045C420.297 176.575 421.905 183.549 422.479 195.45C422.474 197.001 422.713 198.568 422.034 199.789L421.615 199.57Z" fill="#030101"/>
<path d="M452.081 171.327C454.234 171.128 456.4 171.156 458.546 171.411C465.009 172.211 469.707 174.605 473.763 179.809C473.067 179.646 467.571 175.802 466.268 174.999C455.117 169.456 450.084 173.955 440.378 174.108C441.44 173.122 450.088 171.517 452.081 171.327Z" fill="#AF5827"/>
<path d="M394.657 304.292C398.174 304.525 403.752 306.46 408.681 306.765C412.05 306.953 415.429 306.719 418.741 306.072C420.721 305.667 422.58 304.981 424.554 304.839L424.452 305.182C413.904 310.291 405.001 308.903 394.657 304.292Z" fill="#030101"/>
<path d="M399.409 178.45L400.225 177.073C401.95 183.719 400.998 190.461 400.302 197.225L399.39 196.916C399.701 190.947 400.331 184.3 399.409 178.45Z" fill="#030101"/>
<path d="M293.708 201.291C297.416 203.711 302.803 209.974 300.458 214.71C299.817 213.867 299.884 213.287 299.757 212.21C298.068 208.088 296.193 204.713 292.904 201.698L293.708 201.291Z" fill="#030101"/>
<path d="M299.757 212.21C299.884 213.287 299.817 213.867 300.458 214.71C298.027 219.282 294.833 223.749 294.012 228.636L293.733 228.127C293.437 229.058 293.42 229.509 293.302 230.486C292.157 222.894 298.148 218.67 299.757 212.21Z" fill="#76331A"/>
<path d="M422.479 195.45C423.897 203.617 422.713 213.638 425.135 221.4L424.755 221.719C423.621 220.133 421.524 202.346 421.615 199.57L422.034 199.789C422.713 198.568 422.474 197.001 422.479 195.45Z" fill="#CA8457"/>
<path d="M358.576 266.266C359.105 267.028 356.248 269.106 355.326 270.77C353.026 274.921 352.353 278.475 352.036 283.032C350.238 276.826 353.023 269.62 358.576 266.266Z" fill="#030101"/>
<path d="M462.581 266.153C468.85 267.716 472.967 279.579 470.389 284.758C470.805 277.512 468.302 270.736 462.581 266.153Z" fill="#944521"/>
<path d="M399.116 206.261C398.624 210.189 397.805 216.254 396.847 220.122L396.52 220.189C396.471 218.461 397.668 208.672 398.138 206.643L399.116 206.261Z" fill="#CA8457"/>
<path d="M293.302 230.486C293.42 229.509 293.437 229.058 293.733 228.127L294.012 228.636C295.6 233.38 298.807 236.344 301.515 240.574C298.338 237.594 295.162 234.51 293.302 230.486Z" fill="#452818"/>
<path d="M326.962 215.665C328.622 210.677 331.693 206.276 335.802 202.996L336.144 203.614C332.762 206.968 329.643 211.685 326.962 215.665Z" fill="#944521"/>
<path d="M481.095 201.574C485.689 203.572 489.716 210.018 491.815 214.387C491.158 213.766 488.228 209.824 487.451 208.874C485.351 206.311 483.315 204.038 481.095 201.574Z" fill="#AF5827"/>
<path d="M399.409 178.45C397.98 173.815 396.412 171.847 392.87 168.857C396.58 169.251 398.972 174.03 400.225 177.073L399.409 178.45Z" fill="#76331A"/>
<path d="M398.138 206.643C398.622 203.44 398.919 200.15 399.39 196.916L400.302 197.225C400.012 200.098 399.313 203.738 399.116 206.261L398.138 206.643Z" fill="#76331A"/>
<path d="M287.004 212.185C286.594 215.08 287.836 217.516 287.567 219.517C286.602 217.189 286.276 216.307 285.66 213.792L286.383 212.582L287.004 212.185Z" fill="#CA8457"/>
<path d="M335.802 202.996C337.774 200.589 339.053 199.886 341.758 198.363C339.912 200.139 338.04 201.89 336.144 203.614L335.802 202.996Z" fill="#EBAD87"/>
<path d="M208.911 502.206C208.973 500.393 208.813 499.344 209.672 497.829C212.698 523.955 219.4 551.24 241.027 568.334C248.548 574.279 263.482 581.678 273.114 582.612C268.446 583.147 257.563 579.252 252.979 577.205C236.263 569.742 223.51 555.176 217.188 538.155C217.152 555.461 213.687 567.859 211.73 584.724C209.232 606.257 212.657 627.601 217.844 648.441C220.416 658.779 221.758 665.412 225.768 675.749L224.417 675.998L223.948 675.6C223.929 677.662 224.224 679.693 224.172 681.71C223.132 722.478 213.673 760.63 240.001 796.136L245.392 803.346C248.477 806.98 252.592 810.803 256.3 813.824L255.844 814.475C262.948 820.365 268.443 824.1 275.809 829.345C270.126 829.725 264.336 828.463 258.79 828.008C245.729 826.937 230.75 823.618 217.914 822.825L217.595 822.333C217.895 817.292 219.103 812.267 219.54 807.446C220.704 794.578 222.522 784.467 225.333 771.837C214.511 738.262 222.689 709.425 222.192 675.327C222.09 668.292 218.912 662.589 217.556 655.823C215.836 647.241 213.568 638.756 211.894 630.165C210.039 618.06 208.758 605.551 208.407 593.311C201.778 613.616 196.905 633.299 188.066 653.133C185.199 659.567 181.229 666.121 177.853 672.288C175.843 675.96 170.809 682.589 170.219 686.304C168.903 694.595 170.582 704.631 170.504 713.197C170.38 726.857 167.901 741.645 165.372 754.767C164.205 760.826 152.152 807.89 149.279 809.788C148.932 806.453 159.504 770.782 161.059 764.429C163.187 755.583 164.96 746.655 166.375 737.666C167.466 730.773 168.381 721.948 168.434 715.067C168.53 702.723 166.872 694.399 169.611 682.12C167.126 684.427 166.34 685.152 163.483 686.913C164.862 685.621 166.217 684.303 167.546 682.96C182.889 667.163 197.097 625.225 203.174 603.521C204.865 596.351 208.719 588.315 209.947 581.095C211.541 568.342 216.105 553.378 215.441 540.579C214.758 527.376 209.165 516.24 208.911 502.206Z" fill="#030101"/>
<path d="M217.914 822.825C220.409 818.838 223.171 792.547 223.911 787.048C224.44 783.112 225.595 778.033 226.492 773.952C228.557 782.33 234.333 789.714 239.172 796.824L240.001 796.136L245.392 803.346C248.477 806.98 252.592 810.803 256.3 813.824L255.844 814.475C262.948 820.365 268.443 824.1 275.809 829.345C270.126 829.725 264.336 828.463 258.79 828.008C245.729 826.937 230.75 823.618 217.914 822.825Z" fill="#F9C9AA"/>
<path d="M245.392 803.346C248.477 806.98 252.592 810.803 256.3 813.824L255.844 814.475C253.14 812.386 247.037 806.534 245.12 804.022L245.392 803.346Z" fill="#CA8457"/>
<path d="M240.001 796.136L245.392 803.346L245.12 804.022C242.966 801.622 241.172 799.36 239.172 796.824L240.001 796.136Z" fill="#944521"/>
<path d="M616.481 494.554C617.564 496.171 617.077 498.415 617.276 500.52C617.086 508.006 616.038 515.445 614.154 522.693C612.67 528.4 610.15 533.881 610.265 539.805C610.684 562.134 615.794 583.781 622.372 604.99C628.942 626.175 635.017 646.169 646.12 665.608C652.154 676.172 653.688 679.787 663.14 688.076C660.253 686.365 658.663 685.358 656.268 682.89C658.121 692.871 657.259 704.175 657.345 714.435C657.481 722.811 658.262 731.164 659.681 739.421C662.222 754.729 665.383 767.244 669.623 782.101C670.88 786.504 677 806.391 677.253 809.751L676.3 809.398C675.147 806.798 674.298 803.965 673.432 801.253C664.919 774.58 656.826 747.032 655.402 718.921C655.14 714.346 655.093 709.761 655.263 705.182C655.497 698.953 656.285 691.484 654.974 685.418C654.17 681.695 649.376 675.878 647.392 672.227C644.098 666.164 640.551 660.21 637.527 653.995C632.417 642.211 627.909 629.865 624.107 617.602C621.794 610.139 619.493 600.671 616.81 593.668C616.577 615.588 612.738 635.47 607.685 656.619C606.519 661.503 604.552 666.039 603.939 670.956C603.28 679.887 604.064 688.788 604.583 697.69C606.218 725.716 609.647 744.981 600.725 772.618C603.673 785.693 605.637 797.99 606.873 811.278C607.133 814.08 608.638 820.721 608.3 822.915L607.896 822.857C594.454 824.12 580.301 826.931 566.771 828.241C563.083 828.597 553.719 829.869 550.36 829.374C554.29 826.102 560.863 821.652 565.28 818.272C571.832 813.931 578.975 806.414 583.939 800.19C586.644 796.718 588.644 794.099 591.045 790.357L590.321 789.852C593.996 783.819 597.597 777.612 599.667 770.822C608.331 742.405 602.987 712.41 601.875 683.359C601.773 680.682 601.968 678.044 601.864 675.359L601.523 675.365L600.531 674.031C601.872 669.199 603.801 664.138 605.014 659.284C610.982 635.165 616.931 609.742 613.778 584.726C611.807 569.094 609.003 555.774 608.248 539.817C597.105 561.881 586.088 572.538 562.909 580.907L562.023 580.209C600.177 567.362 614.164 531.896 616.481 494.554Z" fill="#030101"/>
<path d="M599.604 774.667C600.703 780.488 601.873 786.333 602.686 792.161C603.616 798.821 605.295 817.296 607.896 822.857C594.454 824.12 580.301 826.931 566.771 828.241C563.083 828.597 553.719 829.869 550.36 829.374C554.29 826.102 560.863 821.652 565.28 818.272C571.832 813.931 578.975 806.414 583.939 800.19C586.644 796.718 588.644 794.099 591.045 790.357C594.896 784.765 597.466 781.225 599.604 774.667Z" fill="#F9C9AA"/>
<path d="M328.66 309.894C336.625 319.821 342.153 324.184 352.171 332.154C360.891 339.091 365.15 344.179 375.378 349.502C386.029 355.046 394.719 360.891 407.347 361.687C424.256 363.832 444.044 356.451 456.887 345.514C472.262 332.421 486.021 323.65 497.143 306.281C495.899 310.946 494.954 315.685 494.311 320.469C493.294 320.566 490.946 320.614 490.467 321.466C482.939 334.829 469.991 344.587 459.981 356.051C458.598 357.635 457.575 361.607 456.337 363.644C455.528 364.191 455.662 363.955 455.166 364.706C453.928 364.569 453.047 364.788 451.954 365.534C445.157 370.181 438.504 375.179 431.331 379.237C431.011 379.419 430.377 380.154 430.147 380.415C429.13 381.205 426.55 381.298 424.465 382.384C422.739 382.81 420.648 382.965 418.861 382.836C413.169 382.425 392.599 373.489 387.431 370.189C383.066 367.402 379.295 363.569 375.252 360.34C372.345 358.018 369.23 355.946 366.358 353.582C358.994 347.409 351.894 340.928 345.077 334.156C342.183 331.29 332.303 321.91 332.636 318.014L333.882 317.947C332.541 314.992 329.964 314.493 328.66 309.894Z" fill="#EBAD87"/>
<path d="M424.465 382.384C423.889 381.379 424.03 381.923 424.281 380.669C426.5 378.399 428.013 378.854 430.147 380.415C429.13 381.205 426.55 381.298 424.465 382.384Z" fill="#F1B590"/>
<path d="M256.3 813.824C261.858 818.637 272.973 825.381 277.486 829.771L275.809 829.345C268.443 824.1 262.948 820.365 255.844 814.475L256.3 813.824Z" fill="#76331A"/>
<path d="M565.02 817.419C566.307 815.844 571.1 812.972 572.861 811.263C576.218 808.004 579.455 803.503 582.637 800.311L583.059 799.894L583.939 800.19C578.975 806.414 571.832 813.931 565.28 818.272L565.02 817.419Z" fill="#EBAD87"/>
<path d="M455.166 364.706C455.662 363.955 455.528 364.191 456.337 363.644C453.545 371.508 450.927 377.838 446.792 385.234L446.36 384.399C447.767 382.59 453.901 367.735 455.166 364.706Z" fill="#AF5827"/>
<path d="M565.02 817.419L565.28 818.272C560.863 821.652 554.29 826.102 550.36 829.374L547.572 830.229C549.44 828.378 562.15 819.494 565.02 817.419Z" fill="#76331A"/>
<path d="M616.481 494.554C616.474 491.946 616.147 483.386 616.704 481.614C617.834 484.171 617.835 497.659 617.276 500.52C617.077 498.415 617.564 496.171 616.481 494.554Z" fill="#21150D"/>
<path d="M590.321 789.852L591.045 790.357C588.644 794.099 586.644 796.718 583.939 800.19L583.059 799.894C585.592 796.651 587.763 793.037 590.321 789.852Z" fill="#76331A"/>
<path d="M208.676 487.086L209.122 487.305C209.268 489.667 209.243 495.041 209.675 496.84L209.672 497.829C208.813 499.344 208.973 500.393 208.911 502.206C208.158 498.438 208.521 491.149 208.676 487.086Z" fill="#21150D"/>
<path d="M600.531 674.031L601.523 675.365C600.061 677.831 598.562 681.811 596.779 684.909C597.666 681.475 599.284 677.417 600.531 674.031Z" fill="#21150D"/>
<path d="M331.117 338.86C331.857 342.785 331.646 348.157 330.811 352.052C330.592 349.422 330.253 346.518 330.349 343.905L330.637 343.871C331.305 343.094 331.08 340.22 331.117 338.86Z" fill="#21150D"/>
<path d="M224.417 675.998L225.768 675.749C227.251 679.812 228.527 683.371 229.751 687.543C227.918 683.958 226.101 679.701 224.417 675.998Z" fill="#21150D"/>
<path d="M208.676 487.086C208.768 485.738 208.767 483.238 209.372 482.159C209.89 484.851 209.686 493.503 209.675 496.84C209.243 495.041 209.268 489.667 209.122 487.305L208.676 487.086Z" fill="#76331A"/>
<path d="M562.909 580.907C559.041 581.995 556.956 582.47 552.988 583.048C554.111 582.355 560.356 580.688 562.023 580.209L562.909 580.907Z" fill="#76331A"/>
<path d="M493.729 336.779C493.854 338.082 493.814 339.545 494.516 340.566C494.492 341.519 494.345 344.849 493.814 345.412C493.097 342.166 493.346 340.013 493.729 336.779Z" fill="#21150D"/>
<path d="M446.792 385.234C446.459 386.469 444.912 389.671 443.801 390.281L443.634 389.552C444.339 387.601 445.176 386.117 446.36 384.399L446.792 385.234Z" fill="#EBAD87"/>
<path d="M128.792 508.877L130.1 508.658C130.021 510.553 129.975 511.111 129.591 512.954C128.964 512.034 128.932 510.131 128.792 508.877Z" fill="#030101"/>
<path d="M547.647 543.57C550.206 541.958 552.262 541.231 555.377 541.971C557.604 542.495 559.506 543.932 560.617 545.932C562.218 548.767 561.923 551.205 561.079 554.141C556.46 561.515 547.801 559.374 544.184 552.073C543.579 549.268 545.075 545.071 547.647 543.57Z" fill="#F9C9AA"/>
<path d="M544.802 550.454C548.074 558.148 555.345 560.296 560.839 553.393L561.079 554.141C556.46 561.515 547.801 559.374 544.184 552.073L544.802 550.454Z" fill="#944521"/>
<path d="M547.647 543.57C550.206 541.958 552.262 541.231 555.377 541.971C557.604 542.495 559.506 543.932 560.617 545.932C562.218 548.767 561.923 551.205 561.079 554.141L560.839 553.393C562.849 545.24 555.339 540.532 548.289 543.9L547.647 543.57Z" fill="#CA8457"/>
<path d="M544.184 552.073C543.579 549.268 545.075 545.071 547.647 543.57L548.289 543.9C545.858 546.473 545.54 547.005 544.802 550.454L544.184 552.073Z" fill="#F1B590"/>
<path d="M405.729 764.128L403.722 765.734L403.296 765.621C405.236 761.298 412.922 757.471 417.315 760.042C419.733 761.457 423.881 763.746 424.532 766.687C423.27 766.248 423.307 766.143 422.31 765.204C418.639 767.281 416.959 768.416 413.753 771.107C411.251 767.501 409.379 766.332 405.729 764.128Z" fill="#EBAD87"/>
<path d="M405.729 764.128L403.722 765.734L403.296 765.621C405.236 761.298 412.922 757.471 417.315 760.042C419.733 761.457 423.881 763.746 424.532 766.687C423.27 766.248 423.307 766.143 422.31 765.204C419.529 762.376 417.488 761.317 413.889 760.091C410.14 761.087 408.704 761.68 405.729 764.128Z" fill="#76331A"/>
<path d="M353.123 396.607C366.159 398.413 373.862 398.196 383.589 407.377C386.007 409.66 389.582 411.94 392.311 414.728L392.154 415.077C385.549 411.021 378.206 403.417 370.587 401.5C364.931 400.078 358.757 399.424 352.862 397.981L353.123 396.607Z" fill="#AF5827"/>
<path d="M524.527 677.829C526.49 680.335 528.513 685.038 529.659 688.028C536.951 707.051 535.646 726.561 535.016 746.478L534.829 746.532C534.183 745.281 534.307 726.399 534.352 723.641C534.634 706.781 531.276 693.185 524.527 677.829Z" fill="#AF5827"/>
<path d="M303.676 673.206L303.78 673.399C296.275 686.773 292.118 702.824 291.525 718.073C291.254 725.055 291.451 732.023 291.143 739.069C290.044 736.234 290.481 715.115 290.852 711.367C291.317 706.643 292.126 701.959 293.274 697.353C294.337 693.148 300.685 674.976 303.676 673.206Z" fill="#AE7E52"/>
<path d="M438.647 408.843C446.758 398.713 459.817 398.408 471.501 396.428L471.673 397.888C453.925 401.844 453.862 398.903 438.586 410.068L438.647 408.843Z" fill="#944521"/>
<path d="M452.118 605.43C466.347 611.905 479.605 618.218 493.153 626.183C490.808 625.736 479.76 620.097 477.067 618.738C468.716 614.461 460.327 610.257 451.902 606.127L452.118 605.43Z" fill="#76331A"/>
<path d="M368.231 574.986L368.905 575.85C351.985 582.094 346.145 583.592 328.592 586.669L326.952 586.235C341.045 583.837 354.869 580.069 368.231 574.986Z" fill="#21150D"/>
<path d="M486.473 393.623C496.443 391.717 505.896 389.86 515.692 387.147C518.043 386.495 532.215 382.521 533.724 382.658C529.614 384.863 527.224 384.499 523.692 385.743C514.681 388.913 505.71 390.625 496.379 392.655C493.859 393.203 489.072 394.377 486.614 394.668L486.473 393.623Z" fill="#944521"/>
<path d="M220.689 581.199C222.298 583.319 221.934 583.903 222.828 586.021C227.497 597.074 236.647 607.724 245.079 615.77L244.734 616.037C233.558 606.967 223.978 595.462 220.689 581.199Z" fill="#944521"/>
<path d="M456.384 574.964C467.946 579.31 479.852 582.677 491.978 585.03L491.916 585.991C478.286 583.502 468.576 580.839 455.708 575.794L456.384 574.964Z" fill="#2F0E06"/>
<path d="M279.513 551.821L279.742 548.821L280.063 549.062C280.673 556.872 274.661 559.816 267.451 557.715C259.983 555.54 260.894 543.93 268.534 542.147C272.044 541.328 273.608 541.569 276.822 543.347L275.665 543.473C271.695 541.565 266.605 542.897 264.059 546.459C263.089 547.805 262.722 549.495 263.046 551.123C263.455 553.211 264.854 555.027 266.646 556.135C268.586 557.329 270.923 557.697 273.136 557.155C276.377 556.351 277.855 554.463 279.513 551.821Z" fill="#AF5827"/>
<path d="M336.992 394.661C330.052 393.805 298.528 386.173 292.975 383.689L293.216 383.53C296.049 383.729 298.306 384.755 301.012 385.52C312.928 388.894 325.043 390.94 337.061 393.642L336.992 394.661Z" fill="#944521"/>
<path d="M598.806 590.325L599.752 590.702C595.285 599.779 588.607 607.488 581.3 614.399C580.453 615.201 572.473 621.326 571.954 621.534L571.562 621.344C572.799 619.912 576.226 617.985 578.493 615.89C585.971 608.979 593.954 599.378 598.806 590.325Z" fill="#AE7E52"/>
<path d="M292.322 777.572C292.467 778.629 294.021 783.095 294.437 784.44C298.703 798.24 303.349 806.675 311.5 818.353C303.831 813.231 292.61 786.99 292.322 777.572Z" fill="#944521"/>
<path d="M121.92 671.124C122.702 671.996 125.74 676.28 126.414 677.298C132.726 686.817 137.431 689.065 148.213 690.933C136.446 693.608 125.565 680.996 121.92 671.124Z" fill="#AF5827"/>
<path d="M702.753 672.836L702.804 673.439C698.678 682.717 687.835 693.25 676.906 691.345L676.857 691.269C677.246 691.258 678.009 691.232 678.352 691.153C692.126 687.98 695.292 683.304 702.753 672.836Z" fill="#944521"/>
<path d="M337.272 623.1C347.657 617.143 358.284 611.62 369.125 606.542L369.548 607.296C359.222 612.496 348.104 617.958 337.971 623.428L337.272 623.1Z" fill="#452818"/>
<path d="M232.134 638.011C238.81 649.13 243.356 656.47 253.149 665.074C246.013 663.333 234.713 644.824 231.762 638.65L232.134 638.011Z" fill="#944521"/>
<path d="M248.052 428.034C249.334 426.364 250.84 424.699 252.291 423.167C258.711 416.397 264.466 407.891 270.825 401.164C267.976 407.241 253.485 424.561 248.052 428.034Z" fill="#AF5827"/>
<path d="M592.661 638.719L593.089 639.514C587.973 648.312 582.389 658.288 573.406 663.559C579.535 657.554 588.905 646.611 592.661 638.719Z" fill="#944521"/>
<path d="M530.174 787.049L531.216 787.123C527.065 799.091 525.088 805.465 517.195 815.848L516.488 815.702C522.902 806.819 526.948 797.476 530.174 787.049Z" fill="#944521"/>
<path d="M366.692 360.024C367.153 360.619 366.889 360.193 367.144 360.813C371.146 370.495 375.934 381.556 381.104 390.625C377.505 388.953 367.21 364.591 366.692 360.024Z" fill="#CA8457"/>
<path d="M555.877 402.595C560.247 408.739 565.987 413.996 570.27 419.943L569.388 420.239C564.296 414.19 560.396 410.393 555.546 403.64L555.877 402.595Z" fill="#944521"/>
<path d="M412.278 501.539L413.084 503.209C413.288 508.345 413.311 527.646 412.87 532.612C412.06 529.248 412.203 506.167 412.278 501.539Z" fill="#CA8457"/>
<path d="M337.061 393.642L353.123 396.607L352.862 397.981C349.411 396.944 341.128 395.581 336.992 394.661L337.061 393.642Z" fill="#2F0E06"/>
<path d="M412.267 480.073L413.134 480.052C413.106 486.823 412.759 496.699 413.084 503.209L412.278 501.539C412.605 495.859 412.237 486.199 412.267 480.073Z" fill="#21150D"/>
<path d="M373.832 572.812C379.419 570.026 385.218 567.578 390.78 564.768C390.395 566.324 376.312 572.863 374.317 573.605L373.832 572.812Z" fill="#CA8457"/>
<path d="M598.806 590.325C599.619 587.704 600.924 583.564 602.519 581.413L603.022 581.27C603.404 583.364 600.868 588.992 599.752 590.702L598.806 590.325Z" fill="#CA8457"/>
<path d="M451.902 606.127C449.799 605.334 441.184 601.18 439.58 599.917C443.324 601.604 448.78 603.348 452.118 605.43L451.902 606.127Z" fill="#EBAD87"/>
<path d="M448.486 572.75C446.224 571.942 440.05 568.472 438.037 567.117L438.214 566.933C441.217 567.845 445.824 570.474 448.774 571.976L448.486 572.75Z" fill="#CA8457"/>
<path d="M312.343 588.418C313.411 587.487 324.695 586.512 326.952 586.235L328.592 586.669C326.32 587.476 315.279 588.196 312.343 588.418Z" fill="#CA8457"/>
<path d="M570.27 419.943C571.541 421.162 577.21 427.117 577.894 428.331C574.97 425.978 571.801 423.107 569.388 420.239L570.27 419.943Z" fill="#CA8457"/>
<path d="M471.501 396.428C473.63 395.993 475.602 395.664 477.74 395.326L479.458 396.262C477.191 396.688 473.793 397.235 471.673 397.888L471.501 396.428Z" fill="#452818"/>
<path d="M500.753 586.56C504.588 586.735 509.054 587.365 513.097 587.636L512.932 588.07L513.423 587.987L513.463 587.68L513.685 587.846C510.48 588.09 503.408 588.215 500.454 587.156L500.753 586.56Z" fill="#EBAD87"/>
<path d="M486.473 393.623L486.614 394.668L479.458 396.262L477.74 395.326C480.517 394.706 483.654 394.171 486.473 393.623Z" fill="#21150D"/>
<path d="M592.661 638.719C594.254 635.954 596.972 630.487 598.747 628.394C597.643 630.927 594.763 637.776 593.089 639.514L592.661 638.719Z" fill="#EBAD87"/>
<path d="M337.971 623.428C336.272 624.661 331.965 626.801 329.898 627.207C331.942 625.745 334.859 623.851 337.272 623.1L337.971 623.428Z" fill="#EBAD87"/>
<path d="M530.174 787.049C530.675 785.363 532.26 779.4 533.08 778.364C533.168 781.026 531.985 784.479 531.216 787.123L530.174 787.049Z" fill="#CA8457"/>
<path d="M448.774 571.976C451.092 572.884 454.167 573.981 456.384 574.964L455.708 575.794C453.287 574.812 450.879 573.797 448.486 572.75L448.774 571.976Z" fill="#76331A"/>
<path d="M491.978 585.03C494.883 585.515 497.874 585.977 500.753 586.56L500.454 587.156L491.916 585.991L491.978 585.03Z" fill="#76331A"/>
<path d="M438.586 410.068C436.98 411.339 435.353 412.583 433.707 413.799L433.087 413.478L433.302 414.033L432.806 413.837L433.022 414.167L432.774 414.234L432.838 413.768C434.817 411.591 436.289 410.594 438.647 408.843L438.586 410.068Z" fill="#76331A"/>
<path d="M555.546 403.64C554.418 402.175 552.254 399.681 552.221 397.934C553.705 398.966 554.833 401.02 555.877 402.595L555.546 403.64Z" fill="#EBAD87"/>
<path d="M412.33 472.43L413.029 472.144L413.134 480.052L412.267 480.073C412.129 478.162 412.298 474.474 412.33 472.43Z" fill="#7A5737"/>
<path d="M369.125 606.542C371.056 605.539 372.886 604.54 374.902 603.713L375.242 604.094L375.988 603.53C374.005 605.147 371.827 606.133 369.548 607.296L369.125 606.542Z" fill="#944521"/>
<path d="M373.832 572.812L374.317 573.605L368.905 575.85L368.231 574.986L373.832 572.812Z" fill="#76331A"/>
<path d="M243.257 432.584C244.214 430.368 245.88 428.953 248.052 428.034L247.94 428.762C246.528 430.082 244.949 431.779 243.257 432.584Z" fill="#F1B590"/>
<path d="M231.762 638.65C230.801 637.165 229.236 634.749 229.19 633.014C230.694 634.459 231.195 636.072 232.134 638.011L231.762 638.65Z" fill="#CA8457"/>
<path d="M276.822 543.347C277.894 544.269 278.511 544.715 279.353 545.879L278.978 546.621L279.417 547.062C277.675 545.657 277.209 544.904 275.665 543.473L276.822 543.347Z" fill="#EBAD87"/>
<path d="M517.195 815.848C516.299 817.055 514.312 819.97 513.032 820.523L514.268 819.753L513.149 819.723C513.615 818.915 515.785 816.463 516.488 815.702L517.195 815.848Z" fill="#CA8457"/>
<path d="M412.33 472.43C412.218 470.396 411.994 469.023 412.546 467.062L412.898 467.326C413.145 469.344 413.131 470.104 413.029 472.144L412.33 472.43Z" fill="#EBAD87"/>
</g>
<defs>
<linearGradient id="paint0_linear_137_4248" x1="407.643" y1="79.4983" x2="411.618" y2="782.504" gradientUnits="userSpaceOnUse">
<stop stop-color="#E9A683"/>
<stop offset="1" stop-color="#FCCAA9"/>
</linearGradient>
</defs>
</svg>
