<svg width="542" height="905" viewBox="0 0 542 905" fill="none" xmlns="http://www.w3.org/2000/svg">
<path d="M47.1688 300.794C41.9868 282.315 38.2908 264.515 36.8038 245.333C32.3888 188.396 40.5938 125.382 79.0658 80.7081C107.832 47.3033 155.854 21.7828 197.908 9.94736C214.941 5.20046 232.407 2.17296 250.044 0.910361C297.196 -2.64164 373.247 10.5133 409.704 42.2355C419.497 50.7561 427.229 60.9411 428.139 74.2621C434.198 75.2981 440.163 76.2361 445.982 78.2911C465.732 85.2671 478.891 100.573 487.653 119.13C510.763 168.073 509.87 252.899 491.99 303.378C493.87 302.52 495.762 301.707 497.721 301.047C503.187 299.203 509.313 299.054 514.523 301.776C520.557 304.928 524.382 311.339 526.329 317.678C534.856 345.437 526.828 384.645 515.003 410.743C510.394 420.914 504.239 430.205 499.216 440.144C495.948 446.611 493.784 453.587 490.386 460.005C486.301 467.72 479.834 475.658 471.122 478.177C465.573 479.781 461.088 478.54 456.234 475.82C453.298 496.091 451.636 515.708 444.078 535.021C441.705 540.971 439.052 546.805 436.127 552.504C434.121 556.487 431.55 560.665 430.233 564.921C428.334 571.051 429.131 579.125 428.825 585.531C428.2 598.622 427.924 611.698 427.453 624.793C426.938 639.112 426.033 654.296 427.428 668.547C427.838 673.207 429.167 677.74 431.338 681.883C436.45 691.489 445.696 697.818 454.277 704.053C463.337 710.637 472.33 717.026 481.997 722.705C492.139 728.663 502.73 733.785 513.051 739.412C521.33 743.925 530.023 750.291 539.12 752.897C540.129 753.186 540.346 753.22 541.254 753.852L540.185 755.402C535.97 762.62 531.809 769.77 526.929 776.566C518.251 788.651 508.114 799.698 497.606 810.196C458.276 850.226 409.045 879.125 354.922 893.954C269.92 916.004 179.63 903.145 104.164 858.242C62.6308 833.745 27.1728 800.175 0.441803 760.044L0.216797 759.246C0.326797 758.972 0.3338 758.629 0.5448 758.422C1.3148 757.667 26.9128 745.841 30.7478 743.686C53.7698 730.751 91.5858 707.735 107.718 687.193C111.526 682.344 114.422 676.479 115.465 670.371C116.479 664.426 116.084 658.056 116.05 652.042C115.931 631.175 114.272 610.202 112.693 589.401C112.098 581.561 112.183 572.592 110.456 564.941C108.581 556.637 101.727 546.815 98.3908 538.283C89.9018 516.568 87.5328 496.521 84.7818 473.666C83.9678 474.146 83.1588 474.584 82.2988 474.977C76.9178 477.437 71.2368 477.733 65.7228 475.486C50.2548 469.183 46.5728 450.894 39.7628 437.558C34.8738 427.985 29.2938 418.875 25.1548 408.919C21.8778 401.036 18.6898 393.036 16.5338 384.766C11.9628 367.233 7.8568 333.182 15.0188 316.223C17.9788 309.215 23.2318 302.71 30.4938 299.911C36.2498 297.693 41.6568 298.34 47.1688 300.794Z" fill="#020000"/>
<path d="M114.125 570.378C137.245 602.78 174.017 649.813 210.101 668.023C218.572 672.299 228.064 675.002 237.397 676.585C273.204 682.66 315.721 680.665 346.078 658.996C377.614 636.485 404.739 602.172 426.619 570.53C425.631 586.593 425.21 602.64 424.74 618.721C423.648 656.03 422.689 702.066 435.66 737.352C437.01 741.024 438.257 745.099 440.278 748.456C440.42 746.454 434.49 729.138 433.665 725.775C430.122 711.337 428.92 696.216 427.919 681.42C433.547 692.856 443.231 699.447 453.231 706.792C472.442 720.903 489.965 730.423 510.938 741.501C519.731 746.146 527.949 751.421 537.423 754.661C538.328 754.965 539.25 755.213 540.185 755.402C535.97 762.62 531.809 769.77 526.929 776.566C518.251 788.651 508.114 799.698 497.606 810.196C458.276 850.226 409.045 879.125 354.922 893.954C269.92 916.004 179.63 903.145 104.164 858.242C62.6308 833.745 27.1728 800.175 0.441803 760.044C1.6178 759.969 2.7469 759.822 3.8929 759.535C9.4679 758.138 14.9949 754.81 20.1239 752.234C47.9749 738.248 82.3329 717.327 104.504 695.185C109.087 690.609 112.607 685.606 115.888 680.043C115.607 699.421 113.366 718.721 109.199 737.647L109.934 738.717C121.329 696.501 119.71 651.559 117.011 608.322C116.227 595.776 115.849 582.814 114.125 570.378Z" fill="#F9C4AA"/>
<path d="M109.199 737.647L109.934 738.717C109.44 740.522 109.048 742.739 108.098 744.357C107.974 744.568 107.841 744.775 107.712 744.984L108.12 744.439L107.639 744.03C107.975 741.908 108.677 739.739 109.199 737.647Z" fill="#683F33"/>
<path d="M72.625 808.942C77.785 809.431 86.404 813.842 91.588 815.701C98.515 818.186 105.424 820.139 112.658 821.505L167.033 831.778C184.714 835.068 202.587 836.628 219.098 844.358C227.657 848.365 233.208 855.257 240.163 861.346C244.972 865.556 250.176 869.127 255.547 872.562C244.592 870.141 234.481 856.447 225.593 849.869C221.763 847.035 217.338 844.789 212.84 843.238C200.581 839.015 187.569 837.801 174.848 835.65C164.16 833.842 153.518 831.527 142.873 829.461C118.733 824.777 94.635 820.501 72.625 808.942Z" fill="#020000"/>
<path d="M294.281 873.341C297.386 869.604 301.384 866.466 304.954 863.176C312.511 856.211 319.372 848.529 328.825 844.05C345.488 836.154 365.567 834.925 383.549 832.158C395.33 830.345 407.229 827.991 418.934 825.682C435.362 822.441 451.466 817.211 467.596 812.732L468.163 813.591C455.947 817.03 443.898 821.113 431.642 824.408C420.525 827.396 409.07 829.583 397.813 832.009C376.062 836.698 345.473 837.093 326.244 847.109C315.72 852.591 304.819 865.752 294.281 873.341Z" fill="#020000"/>
<path d="M191.243 695.882C193.018 702.34 196.258 708.454 198.649 714.7C203.71 727.92 208.749 741.089 214.226 754.147C216.851 760.406 219.88 766.494 222.478 772.761C226.128 781.561 228.31 790.934 231.782 799.786L230.896 800.127C218.489 765.19 202.844 731.553 190.218 696.652L191.243 695.882Z" fill="#020000"/>
<path d="M345.78 694.137L346.716 694.269C343.867 705.297 340.902 716.459 337.005 727.168C331.883 741.247 325.539 754.866 320.096 768.816C316.457 778.142 313.548 787.745 309.986 797.107L309.197 796.576C312.283 787.611 314.9 778.413 318.322 769.574C324.012 754.873 330.847 740.594 336.109 725.719C339.769 715.373 342.639 704.654 345.78 694.137Z" fill="#020000"/>
<path d="M179.216 777.75C181.317 781.16 181.876 787.218 183.091 791.206C186.299 801.726 189.972 812.066 193.033 822.651C190.082 819.686 180.036 783.373 179.216 777.75Z" fill="#A06557"/>
<path d="M257.208 743.537C261.794 743.525 266.198 745.921 270.792 746.095C275.01 746.254 278.563 743.738 282.466 743.636C282.68 743.63 282.894 743.634 283.108 743.633C281.88 744.354 280.63 744.994 279.307 745.529C271.656 748.623 264.418 746.486 257.208 743.537Z" fill="#1D130C"/>
<path d="M354.895 798.509C355.981 800.396 351.671 816.31 350.905 819.504L350.555 819.422C350.288 812.799 353.226 804.904 354.895 798.509Z" fill="#B2825E"/>
<path d="M190.218 696.652C189.281 691.293 187.767 685.49 185.726 680.444L185.437 679.741L185.684 679.471C186.565 680.566 187.206 681.463 187.609 682.842C188.877 687.184 190.354 691.435 191.243 695.882L190.218 696.652Z" fill="#683F33"/>
<path d="M361.518 780.277C361.616 780.509 361.747 780.729 361.813 780.972C362.549 783.675 358.034 796.971 356.67 800.161C356.308 795.791 360.251 784.898 361.518 780.277Z" fill="#E1977C"/>
<path d="M309.986 797.107C307.955 802.483 306.5 808.035 304.406 813.391L304.261 813.102C305.954 807.607 306.855 801.876 309.197 796.576L309.986 797.107Z" fill="#A06557"/>
<path d="M231.782 799.786C233.298 803.172 234.452 806.597 235.127 810.251C233.277 807.255 232.128 803.431 230.896 800.127L231.782 799.786Z" fill="#E1977C"/>
<path d="M348.5 683.871C348.9 681.175 349.104 678.394 350.319 675.926L350.494 675.892C350.964 678.734 349.933 682.079 349.217 684.838L348.5 683.871Z" fill="#E1977C"/>
<path d="M348.5 683.871L349.217 684.838L346.716 694.269L345.78 694.137C346.498 690.703 347.641 687.286 348.5 683.871Z" fill="#683F33"/>
<path d="M467.596 812.732C470.273 811.622 473.514 810.479 476.43 810.322C473.793 811.694 470.96 812.604 468.163 813.591L467.596 812.732Z" fill="#683F33"/>
<path d="M120.529 119.361C125.216 116.027 130.227 113.176 135.486 110.849C160.225 99.945 195.372 101.441 221.207 107.889C240.091 112.602 257.167 118.971 277 118.844C289.185 118.856 301.335 117.544 313.237 114.931C348.848 107.237 369.321 96.643 406.658 111.223C428.139 121.855 439.832 140.779 447.24 162.92C449.018 168.236 449.393 174.459 451.351 179.532C452.813 194.805 451.488 210.12 452.995 225.433C454.65 242.252 457.722 258.899 459.94 275.646C461.493 288.317 462.604 301.038 463.269 313.786C463.567 318.827 464.78 357.158 465.497 358.519L466.396 358.786C468.793 356.72 470.301 351.357 471.558 348.378C474.737 340.842 486.109 314.089 490.132 309.562C494.247 304.931 500.764 302.031 506.987 302.551C511.858 302.958 516.032 305.755 519.041 309.497C528.824 321.66 527.358 349.318 525.476 364.48C523.387 381.305 517.525 399.869 509.825 414.918C505.594 423.187 500.416 430.993 496.288 439.307C490.68 450.601 488.096 463.491 477.399 471.502C473.383 474.509 468.34 476.469 463.28 475.518C460.88 475.068 458.903 473.857 456.887 472.545L461.509 427.848C462.359 420.204 463.891 412.523 464.171 404.839C463.776 404.439 464.073 404.705 463.148 404.22C461.667 416.907 459.379 429.504 457.861 442.202C456.133 457.204 454.168 472.178 451.966 487.119C450.146 499.717 448.47 512.165 444.736 524.379C440.647 537.753 434.075 551.187 427.274 563.402C408.547 597.036 368.787 644.468 334.896 663.391C328.796 666.728 322.326 669.339 315.619 671.171C285.203 679.693 234.203 679.337 206.483 663.571C183.852 650.7 165.417 630.607 148.518 611.174C123.301 582.177 101.079 548.835 92.8919 510.684C90.6919 500.433 89.5979 489.899 88.1659 479.517C86.1859 464.974 84.0579 450.452 81.7799 435.952C79.3169 420.088 77.3499 403.297 73.0679 387.828L72.8979 387.235C73.0619 397.407 76.0139 407.443 77.4599 417.487C80.0079 435.184 81.9889 452.997 84.2079 470.74C81.6719 472.011 79.1879 473.23 76.3549 473.697C71.0259 474.575 66.0309 473.055 61.7489 469.831C51.6439 462.223 48.6729 449.173 43.4459 438.339C39.8379 430.86 35.4829 423.716 31.7009 416.313C24.0599 401.582 18.9059 385.689 16.4499 369.277C13.8769 351.789 10.5589 325.012 21.9019 310.264C25.3439 305.788 30.5069 302.076 36.2709 301.564C41.3859 301.158 46.3809 303.254 49.6749 307.188C55.9609 314.56 61.5559 335.744 65.0329 345.646C66.5449 349.95 67.6549 354.799 71.2119 357.858C71.3609 357.986 71.5119 358.11 71.6619 358.236C72.4189 350.685 74.2959 343.168 75.4589 335.657C77.8319 320.341 79.7899 304.627 80.9979 289.173C82.5419 269.441 83.4039 249.524 84.0439 229.739C84.3589 220.01 83.9999 210.057 84.8949 200.388C85.4339 194.56 92.1689 170.082 90.0149 166.689L89.2219 167.019C88.1679 168.223 87.8509 168.895 86.2819 169.326C95.4859 149.727 103.253 133.483 120.529 119.361Z" fill="#F9C4AA"/>
<path d="M463.216 395.452C462.189 393.331 466.289 377.395 467.163 374.601L467.713 374.417L467.672 373.542L467.761 373.622C467.117 381.191 466.454 389.43 464.977 396.871L463.216 395.452Z" fill="#EEA98D"/>
<path d="M463.216 395.452L464.977 396.871C464.701 399.137 464.898 402.777 464.171 404.839C463.776 404.439 464.073 404.705 463.148 404.22C463.381 401.23 463.497 398.443 463.216 395.452Z" fill="#3E1B14"/>
<path d="M349.67 287.45C365.554 279.564 386.955 270.34 404.801 276.52C415.871 280.354 425.033 291.092 430.465 301.105C430.281 302.372 430.248 304.877 429.367 305.709L428.704 304.294L427.418 303.965L426.269 303.427C421.213 300.298 415.094 300.025 409.315 300.061C409.152 300.109 408.989 300.159 408.825 300.206C402.085 302.103 394.899 302.132 388.14 304.154C371.653 309.084 355.85 316.713 339.818 322.936L340.215 324.342C337.086 328.815 330.036 329.635 326.704 335.501C326.183 336.418 326.043 336.817 325.053 337.057C323.258 337.493 323.273 337.872 322.093 339.182C321.858 339.442 321.536 339.644 321.247 339.841C324.198 339.833 329.477 338.916 332.039 339.983C326.015 341.3 321.797 340.948 315.956 339.087C312.189 339.934 309.937 342.466 306.503 343.767C302.707 345.205 297.979 344.976 294.428 346.913C293.185 346.473 293.149 345.298 291.786 344.627L291.467 345.979L290.878 345.857L289.993 344.236C286.957 342.887 283.466 342.388 280.218 341.712C279.874 341.01 279.697 340.677 279.035 340.214C278.873 340.1 278.699 340.005 278.532 339.901C278.401 339.844 278.269 339.791 278.14 339.732C275.315 338.441 272.641 335.016 269.822 334.5C266.404 335.876 264.369 339.074 260.945 340.226C260.198 341.161 260.213 341.22 259.052 341.465L259.228 341.042C259.084 340.928 258.947 340.804 258.796 340.7C253.986 337.403 243.869 340.359 238.449 341.261L238.846 340.079L238.512 340.022L238.271 339.071C241.377 336.393 244.513 334.202 246.508 330.529C254.756 328.498 268.63 327.04 276.873 329.251C279.981 329.605 283.081 330.047 286.214 330.002C288.722 329.967 291.493 330.489 294.011 330.747C292.106 329.592 290.018 328.659 288.341 327.179C290.677 326.028 293.651 326.985 296.13 326.162C297.587 325.678 298.233 324.583 298.978 323.356C296.371 321.528 293.81 319.519 291.544 317.278C283.215 309.038 278.036 297.404 278.032 285.625L278.449 285.989C278.14 287.594 280.57 295.508 281.032 297.532C283.809 309.702 293.963 317.796 303.965 324.058L303.861 323.498C302.077 313.513 298.07 304.367 296.758 294.205L297.813 291.593C298.768 296.874 299.886 301.978 301.376 307.14C304.166 306.093 306.971 304.863 309.906 304.306C322.902 299.819 336.989 290.678 349.67 287.45Z" fill="#020000"/>
<path d="M304.832 327.093C317.614 327.337 329.298 325.286 341.39 321.163C363.528 313.614 385.225 299.894 409.315 300.061C409.152 300.109 408.989 300.159 408.825 300.206C402.085 302.103 394.899 302.132 388.14 304.154C371.653 309.084 355.85 316.713 339.818 322.936L340.215 324.342C337.086 328.815 330.036 329.635 326.704 335.501C326.183 336.418 326.043 336.817 325.053 337.057C323.258 337.493 323.273 337.872 322.093 339.182C321.858 339.442 321.536 339.644 321.247 339.841C324.198 339.833 329.477 338.916 332.039 339.983C326.015 341.3 321.797 340.948 315.956 339.087C312.189 339.934 309.937 342.466 306.503 343.767C302.707 345.205 297.979 344.976 294.428 346.913C293.185 346.473 293.149 345.298 291.786 344.627L291.467 345.979L290.878 345.857L289.993 344.236C286.957 342.887 283.466 342.388 280.218 341.712C279.874 341.01 279.697 340.677 279.035 340.214C278.873 340.1 278.699 340.005 278.532 339.901C278.401 339.844 278.269 339.791 278.14 339.732C275.315 338.441 272.641 335.016 269.822 334.5C266.404 335.876 264.369 339.074 260.945 340.226C260.198 341.161 260.213 341.22 259.052 341.465L259.228 341.042C259.084 340.928 258.947 340.804 258.796 340.7C253.986 337.403 243.869 340.359 238.449 341.261L238.846 340.079L238.512 340.022L238.271 339.071C241.377 336.393 244.513 334.202 246.508 330.529C254.756 328.498 268.63 327.04 276.873 329.251C279.981 329.605 283.081 330.047 286.214 330.002C288.722 329.967 291.493 330.489 294.011 330.747C292.106 329.592 290.018 328.659 288.341 327.179C290.677 326.028 293.651 326.985 296.13 326.162C297.587 325.678 298.233 324.583 298.978 323.356C304.197 326.685 310.781 330.696 313.236 336.545L313.517 337.23L313.985 337.415C314.307 336.322 314.098 335.434 313.774 334.37C312.636 330.634 307.988 328.794 304.832 327.093Z" fill="#EEA98D"/>
<path d="M276.873 329.251C279.981 329.605 283.081 330.047 286.214 330.002C286.203 330.365 286.204 330.715 286.127 331.075C285.832 332.461 285.629 332.877 284.336 333.51C281.962 334.672 279.259 333.799 277.001 332.877C276.112 331.744 276.182 331.494 276.092 330.033L276.873 329.251Z" fill="#E1977C"/>
<path d="M238.846 340.079C243.755 338.96 253.696 335.891 258.189 338.574C259.2 339.178 259.345 339.407 259.716 340.458L259.228 341.042C259.084 340.928 258.947 340.804 258.796 340.7C253.986 337.403 243.869 340.359 238.449 341.261L238.846 340.079Z" fill="#020000"/>
<path d="M260.945 340.226C262.915 337.944 264.864 336.324 267.367 334.639C268.096 334.148 268.27 333.998 268.824 333.252L267.766 332.269L267.894 332.046C271.354 332.688 276.316 337.25 278.532 339.901C278.401 339.844 278.269 339.791 278.14 339.732C275.315 338.441 272.641 335.016 269.822 334.5C266.404 335.876 264.369 339.074 260.945 340.226Z" fill="#B2825E"/>
<path d="M283.855 338.078C290.891 337.928 298.615 339.124 305.259 341.42L305.062 341.806L303.874 341.794C298.752 341.303 291.649 338.854 286.713 339.874L282.712 340.665C282.197 340.429 281.506 340.203 281.072 339.846C281.912 338.768 282.616 338.612 283.855 338.078Z" fill="#020000"/>
<path d="M336.975 324.617L337.032 324.974C331.781 328.442 327.17 332.941 322.47 337.108L322.129 336.972C322.174 336.817 322.201 336.656 322.264 336.507C323.774 332.963 333.386 326.224 336.975 324.617Z" fill="#683F33"/>
<path d="M349.67 287.45C348.697 288.452 347.512 289.877 346.075 290.152L325.358 301.352C321.289 303.525 317.109 305.346 313.224 307.865L321.273 304.856C315.821 308.747 309.486 310.991 303.991 314.782C303.035 312.251 302.095 309.751 301.376 307.14C304.166 306.093 306.971 304.863 309.906 304.306C322.902 299.819 336.989 290.678 349.67 287.45Z" fill="#EEA98D"/>
<path d="M349.67 287.45C348.697 288.452 347.512 289.877 346.075 290.152C337.673 289.796 318.28 306.267 309.906 304.306C322.902 299.819 336.989 290.678 349.67 287.45Z" fill="#1D130C"/>
<path d="M387.041 277.166C391.536 276.815 396.106 276.831 400.502 277.896C413.676 281.087 423.031 292.129 429.779 303.128C428.319 302.179 426.847 301.197 425.297 300.403C402.902 288.929 366.119 310.211 344.597 317.518C332.536 321.859 319.078 324.76 306.262 324.881C305.859 322.045 305.013 319.272 304.282 316.505C308.193 313.863 312.423 312.028 316.432 309.589C337.546 296.747 362.314 280.731 387.041 277.166Z" fill="#9E6F4D"/>
<path d="M155.157 304.784C145.408 301.161 134.861 298.322 124.346 299.005C121.557 299.187 111.788 302.346 110.213 301.617C110.101 300.652 109.996 300.505 110.381 299.539C113.617 291.411 125.168 281.452 133.152 277.924C152.371 269.43 168.427 278.884 185.235 287.872C192.452 291.731 199.731 295.298 207.361 298.271C215.423 301.127 225.13 304.999 233.631 305.733L234.732 305.586C236.76 299.759 236.604 293.649 238.388 287.811L238.782 287.759C239.306 292.204 238.276 297.148 237.767 301.589C238.174 301.734 238.291 301.81 238.759 301.811C242.598 301.823 247.441 295.563 250.214 293.212C250.523 293.998 250.819 294.711 251.255 295.439C251.365 295.623 251.484 295.801 251.598 295.982C252.668 293.156 253.705 290.318 254.709 287.468C254.946 288.88 254.549 290.302 254.319 291.707L255.511 291.705L256.176 290.945C256.155 290.109 256.116 289.297 256.239 288.468C256.444 287.089 256.527 287.138 257.619 286.35C258.391 283.71 258.173 280.776 259.099 278.267L259.349 278.317C260.577 288.797 256.218 306.828 249.723 315.196C248.44 316.849 247.001 318.393 245.53 319.878L238.603 324.309C235.461 325.903 231.183 326.387 228.577 328.612C226.248 330.968 225.011 332.553 223.77 335.643C223.719 335.771 223.631 335.881 223.562 336L223.231 338.999C219.595 340.138 215.886 341.596 212.036 341.555C212.074 340.93 211.937 340.153 211.88 339.525C209.165 338.659 207.591 338.068 205.68 335.853L206.705 336.231C200.458 328.923 186.11 322.472 176.688 321.315C172.891 321.585 168.68 320.99 164.86 320.805L163.387 320.55C159.766 320.263 156.241 320.375 152.616 320.547C145.812 322.044 138.848 326.846 134.029 331.743C140.104 314.856 152.296 317.485 155.839 313.095C154.966 312.069 153.749 312.24 152.607 311.515C152.97 311.108 153.326 310.695 153.693 310.292C154.167 309.771 154.851 309.201 155.179 308.575C155.818 307.36 155.433 306.044 155.157 304.784Z" fill="url(#paint0_linear_144_236)"/>
<path d="M155.157 304.784C145.408 301.161 134.861 298.322 124.346 299.005C121.557 299.187 111.788 302.346 110.213 301.617C110.101 300.652 109.996 300.505 110.381 299.539C113.617 291.411 125.168 281.452 133.152 277.924C152.371 269.43 168.427 278.884 185.235 287.872C192.452 291.731 199.731 295.298 207.361 298.271C206.199 298.706 205.437 298.722 204.203 298.644L203.577 299.033C196.133 296.243 189.019 292.675 182.057 288.854C165.688 279.869 152.115 272.634 133.664 280.911C123.898 285.292 116.812 291.728 111.101 300.699C122.787 294.505 135.845 296.34 148.091 300.048C157.36 302.855 166.111 307.253 175.009 311.04C188.855 316.933 204.814 322.484 219.759 324.448C223.011 324.876 227.209 325.71 230.357 324.554C232.411 322.365 232.753 317.823 233.309 314.91C233.606 314.229 233.636 313.225 233.754 312.479C233.974 310.182 234.401 307.872 234.732 305.586C236.76 299.759 236.604 293.649 238.388 287.811L238.782 287.759C239.306 292.204 238.276 297.148 237.767 301.589C238.174 301.734 238.291 301.81 238.759 301.811C242.598 301.823 247.441 295.563 250.214 293.212C250.523 293.998 250.819 294.711 251.255 295.439C251.365 295.623 251.484 295.801 251.598 295.982C252.668 293.156 253.705 290.318 254.709 287.468C254.946 288.88 254.549 290.302 254.319 291.707L255.511 291.705L256.176 290.945C256.155 290.109 256.116 289.297 256.239 288.468C256.444 287.089 256.527 287.138 257.619 286.35C258.391 283.71 258.173 280.776 259.099 278.267L259.349 278.317C260.577 288.797 256.218 306.828 249.723 315.196C248.44 316.849 247.001 318.393 245.53 319.878L238.603 324.309C235.461 325.903 231.183 326.387 228.577 328.612C226.248 330.968 225.011 332.553 223.77 335.643C223.719 335.771 223.631 335.881 223.562 336L223.231 338.999C219.595 340.138 215.886 341.596 212.036 341.555C212.074 340.93 211.937 340.153 211.88 339.525C209.165 338.659 207.591 338.068 205.68 335.853L206.705 336.231C200.458 328.923 186.11 322.472 176.688 321.315C172.891 321.585 168.68 320.99 164.86 320.805L163.387 320.55C159.766 320.263 156.241 320.375 152.616 320.547C145.812 322.044 138.848 326.846 134.029 331.743C140.104 314.856 152.296 317.485 155.839 313.095C154.966 312.069 153.749 312.24 152.607 311.515C152.97 311.108 153.326 310.695 153.693 310.292C154.167 309.771 154.851 309.201 155.179 308.575C155.818 307.36 155.433 306.044 155.157 304.784Z" fill="#020000"/>
<path d="M155.157 304.784C161.488 307.312 167.496 310.505 173.762 313.167C184.154 317.583 196.024 321.612 206.935 324.503C210.415 325.425 226.362 326.803 227.461 327.561L228.577 328.612C226.248 330.968 225.011 332.553 223.77 335.643C223.719 335.771 223.631 335.881 223.562 336L223.231 338.999C219.595 340.138 215.886 341.596 212.036 341.555C212.074 340.93 211.937 340.153 211.88 339.525C209.165 338.659 207.591 338.068 205.68 335.853L206.705 336.231C200.458 328.923 186.11 322.472 176.688 321.315C172.891 321.585 168.68 320.99 164.86 320.805L163.387 320.55C159.766 320.263 156.241 320.375 152.616 320.547C145.812 322.044 138.848 326.846 134.029 331.743C140.104 314.856 152.296 317.485 155.839 313.095C154.966 312.069 153.749 312.24 152.607 311.515C152.97 311.108 153.326 310.695 153.693 310.292C154.167 309.771 154.851 309.201 155.179 308.575C155.818 307.36 155.433 306.044 155.157 304.784Z" fill="#EEA98D"/>
<path d="M176.688 321.315C178.607 320.839 180.046 320.84 182.008 321.024L182.067 320.636L180.958 319.753C183.831 319.887 199.948 329.334 202.774 331.309C206.074 333.615 209.092 336.275 212.071 338.975L211.88 339.525C209.165 338.659 207.591 338.068 205.68 335.853L206.705 336.231C200.458 328.923 186.11 322.472 176.688 321.315Z" fill="#B2825E"/>
<path d="M162.482 318.668C166.631 317.7 169.358 318.583 173.443 318.507C174.364 318.49 173.983 318.441 174.695 318.607C173.766 318.734 171.678 318.72 171.092 319.382L172.619 319.653C170.719 320.895 167.088 320.861 164.86 320.805L163.387 320.55L162.482 318.668Z" fill="#E1977C"/>
<path d="M152.616 320.547C152.82 320.433 153.027 320.325 153.228 320.205C154.493 319.447 155.524 318.753 156.98 318.365C158.72 317.902 160.878 317.727 162.482 318.668L163.387 320.55C159.766 320.263 156.241 320.375 152.616 320.547Z" fill="#E1977C"/>
<path d="M223.562 336C223.837 331.682 225.077 330.776 227.461 327.561L228.577 328.612C226.248 330.968 225.011 332.553 223.77 335.643C223.719 335.771 223.631 335.881 223.562 336Z" fill="#1D130C"/>
<path d="M237.767 301.589C238.174 301.734 238.291 301.81 238.759 301.811C242.598 301.823 247.441 295.563 250.214 293.212C250.523 293.998 250.819 294.711 251.255 295.439C251.365 295.623 251.484 295.801 251.598 295.982C250.268 299.717 249.177 303.698 247.339 307.217C245.182 311.347 239.694 315.955 239.627 320.493C237.457 322.09 235.146 323.467 232.855 324.881C235.337 317.197 236.034 309.406 237.767 301.589Z" fill="#EEA98D"/>
<path d="M251.598 295.982C252.668 293.156 253.705 290.318 254.709 287.468C254.946 288.88 254.549 290.302 254.319 291.707L255.511 291.705L256.176 290.945C256.155 290.109 256.116 289.297 256.239 288.468C256.444 287.089 256.527 287.138 257.619 286.35C256.076 298.353 252.534 310.604 242.589 318.34C241.623 319.091 240.655 319.828 239.627 320.493C239.694 315.955 245.182 311.347 247.339 307.217C249.177 303.698 250.268 299.717 251.598 295.982Z" fill="#E1977C"/>
<path d="M207.361 298.271C215.423 301.127 225.13 304.999 233.631 305.733L234.732 305.586C234.401 307.872 233.974 310.182 233.754 312.479C233.636 313.225 233.606 314.229 233.309 314.91L233.066 313.991C232.651 313.887 232.237 313.775 231.816 313.701C225.17 312.526 207.521 304.442 202.486 300.333L203.518 300.685L204.049 300.258L203.577 299.033L204.203 298.644C205.437 298.722 206.199 298.706 207.361 298.271Z" fill="#3E291F"/>
<path d="M233.754 312.479C233.328 312.406 232.905 312.322 232.484 312.229C230.338 311.744 208.546 301.151 207.972 300.268C209.598 299.683 226.529 306.492 233.11 305.794L233.631 305.733L234.732 305.586C234.401 307.872 233.974 310.182 233.754 312.479Z" fill="#B2825E"/>
<path d="M19.7722 338.494C19.2162 333.773 19.9322 328.253 22.9682 324.395C24.2352 322.785 25.9022 321.731 27.9772 321.607C31.4752 321.399 33.8772 323.518 36.2342 325.798C41.6832 331.069 49.7332 339.595 53.8142 345.782C57.7012 351.674 66.7882 376.343 66.6692 383.137C66.4852 393.661 51.9442 397.264 64.8342 411.441C68.3842 415.346 73.0682 419.46 72.9322 425.219C72.8832 427.225 71.9862 429.116 70.4632 430.423C69.0862 431.596 66.9632 432.257 65.2812 432.882L64.2862 432.504C64.9442 430.067 66.8512 428.398 67.8912 426.072C67.7122 420.093 52.4752 414.959 49.0312 406.418C46.3322 399.727 48.8952 375.759 46.6632 372.978C45.8112 373.154 45.4742 373.242 44.6072 373.041C44.4902 372.522 44.3602 372.091 44.4052 371.539C44.5932 369.227 46.7312 366.501 48.4302 365.087C50.5882 363.289 52.4442 362.645 55.2262 362.972C56.3002 363.098 57.1092 363.192 58.1902 362.999C57.9932 361.928 58.2202 362.232 57.6492 361.617C57.4602 361.412 57.2552 361.222 57.0692 361.013C55.6192 359.381 54.6992 355.941 54.8022 353.808C54.3672 346.939 43.4532 337.539 38.8152 332.443C37.7902 330.795 36.5842 329.266 35.2202 327.884C32.4462 325.064 29.9722 324.106 26.0502 324.024C21.4892 327.694 20.9152 333.124 19.7722 338.494Z" fill="#EEA98D"/>
<path d="M19.7722 338.494C19.2162 333.773 19.9322 328.253 22.9682 324.395C24.2352 322.785 25.9022 321.731 27.9772 321.607C31.4752 321.399 33.8772 323.518 36.2342 325.798C41.6832 331.069 49.7332 339.595 53.8142 345.782C57.7012 351.674 66.7882 376.343 66.6692 383.137C66.4852 393.661 51.9442 397.264 64.8342 411.441C68.3842 415.346 73.0682 419.46 72.9322 425.219C72.8832 427.225 71.9862 429.116 70.4632 430.423C69.0862 431.596 66.9632 432.257 65.2812 432.882L64.2862 432.504C65.4992 431.33 66.9602 430.081 67.7702 428.595C71.4962 421.763 62.1362 417.946 57.8372 414.896C55.5712 413.288 53.4382 411.264 51.7852 409.022C50.4352 407.19 49.8412 404.941 49.1862 402.792L50.2332 401.599C50.5132 402.794 50.8422 403.996 51.2402 405.157C53.5622 411.924 62.0992 415.744 68.0862 418.681C64.0542 415.488 60.4102 412.021 58.7792 406.961C55.9252 398.102 61.5782 392.072 65.1612 384.716C64.3902 377.436 62.4842 370.624 56.7402 365.707L55.8702 365.836C49.5692 366.784 47.9932 369.135 44.2882 374.149C45.0762 371.95 45.8882 369.966 47.3062 368.082C48.9302 365.925 51.0592 363.783 53.8872 363.493C55.5772 363.321 57.0002 363.695 58.2882 364.806C58.9232 365.353 59.1562 365.57 59.9432 365.967C59.5522 362.233 56.4922 357.238 54.8022 353.808C54.3672 346.939 43.4532 337.539 38.8152 332.443C37.7902 330.795 36.5842 329.266 35.2202 327.884C32.4462 325.064 29.9722 324.106 26.0502 324.024C21.4892 327.694 20.9152 333.124 19.7722 338.494Z" fill="#020000"/>
<path d="M49.1862 402.792C47.7082 394.505 47.5749 385.272 48.4809 376.918C49.5639 385.004 49.3512 393.436 50.2332 401.599L49.1862 402.792Z" fill="#845641"/>
<path d="M472.86 426.483C465.936 411.45 477.5 411.802 479.292 400.331C479.991 395.853 474.863 390.075 474.781 384.652C474.654 376.258 482.816 356.84 487.381 349.411C491.536 342.649 497.579 335.115 503.304 329.684C506.223 326.915 509.699 324.609 513.885 324.823C515.5 324.906 516.758 325.313 517.799 326.631C520.835 330.477 521.07 336.851 520.695 341.556C520.162 338.044 519.699 334.005 518.309 330.729C517.694 329.281 516.595 327.398 514.919 327.05C513.242 326.702 509.736 327.535 508.295 328.482C508.108 328.604 507.23 329.249 507.06 329.55C504.302 334.437 513.245 367.045 513.959 374.541C514.544 380.695 513.677 386.73 512.689 392.788L511.806 391.997C512.494 387.358 513.008 382.84 512.746 378.144C512.407 372.051 510.875 366.193 509.557 360.261C507.365 350.391 505.593 340.458 505.992 330.313C494.411 340.956 487.465 352.006 481.907 366.559C489.059 373.721 486.324 376.7 488.206 385.242C488.248 385.436 488.31 385.624 488.363 385.816C491.399 387.879 494.462 392.082 495.135 395.713C495.343 396.832 495.117 397.546 494.609 398.522C495.101 401.533 495.682 404.667 493.747 407.317C493.123 408.184 492.379 408.958 491.537 409.614C488.129 411.692 484.41 413.002 480.921 414.896C475.848 417.652 474.431 421.255 472.86 426.483Z" fill="#F9C4AA"/>
<path d="M472.86 426.483C465.936 411.45 477.5 411.802 479.292 400.331C479.991 395.853 474.863 390.075 474.781 384.652C474.654 376.258 482.816 356.84 487.381 349.411C491.536 342.649 497.579 335.115 503.304 329.684C506.223 326.915 509.699 324.609 513.885 324.823C515.5 324.906 516.758 325.313 517.799 326.631C520.835 330.477 521.07 336.851 520.695 341.556C520.162 338.044 519.699 334.005 518.309 330.729C517.694 329.281 516.595 327.398 514.919 327.05C513.242 326.702 509.736 327.535 508.295 328.482C508.108 328.604 507.23 329.249 507.06 329.55C504.302 334.437 513.245 367.045 513.959 374.541C514.544 380.695 513.677 386.73 512.689 392.788L511.806 391.997C512.494 387.358 513.008 382.84 512.746 378.144C512.407 372.051 510.875 366.193 509.557 360.261C507.365 350.391 505.593 340.458 505.992 330.313C494.411 340.956 487.465 352.006 481.907 366.559C489.059 373.721 486.324 376.7 488.206 385.242C488.248 385.436 488.31 385.624 488.363 385.816L487.602 388.113C484.571 382.962 490.017 377.662 481.088 367.596C478.137 375.202 475.063 384.192 478.574 392.1C480.373 396.149 482.044 398.578 480.372 403.128C478.306 408.746 474.549 413.686 472.334 419.384C477.158 412.858 483.958 410.962 491.225 408.039L491.537 409.614C488.129 411.692 484.41 413.002 480.921 414.896C475.848 417.652 474.431 421.255 472.86 426.483Z" fill="#020000"/>
<path d="M488.363 385.816C491.399 387.879 494.462 392.082 495.135 395.713C495.343 396.832 495.117 397.546 494.609 398.522C494.022 397.23 493.323 396.103 492.548 394.922C491.994 393.575 491.496 392.453 490.464 391.398C489.434 390.346 488.523 389.261 487.602 388.113L488.363 385.816Z" fill="#B2825E"/>
<path d="M492.548 394.922C493.323 396.103 494.022 397.23 494.609 398.522C495.101 401.533 495.682 404.667 493.747 407.317C493.123 408.184 492.379 408.958 491.537 409.614L491.225 408.039C491.952 407.391 492.535 406.682 493.012 405.831C494.893 402.476 493.426 398.361 492.548 394.922Z" fill="#683F33"/>
<path d="M328.525 402.805C331.13 406.91 333.683 411.013 336.687 414.843C336.613 415.05 336.535 415.256 336.467 415.465C335.777 417.595 336.37 421.15 336.432 423.415C336.706 433.422 332.988 442.249 325.459 449.027C325.512 446.297 329.814 446.085 327.254 442.875C325.059 442.768 323.23 445.585 320.571 445.877C315.596 450.781 304.727 451.501 298.611 456.065C293.703 459.728 291.689 467.992 286.32 470.311C286.063 470.149 285.791 470.007 285.549 469.824C285.284 469.624 285.052 469.385 284.803 469.166C283.678 469.969 282.567 470.599 281.304 471.162C281.123 471.242 280.939 471.319 280.757 471.398C282.185 471.528 283.578 471.697 284.995 471.922C281.564 474.271 276.571 471.798 272.781 472.91C270.156 473.68 267.137 473.581 264.419 473.348L263.425 473.258C256.862 472.7 246.476 457.976 240.467 453.601C233.391 448.448 224.781 447.974 217.211 444.057C215.675 443.262 214.058 442.386 212.924 441.053C212.137 440.128 209.239 435.585 208.465 435.379C206.931 434.973 206.748 435.557 205.058 434.574L204.855 434.834C207.51 438.851 210.526 442.603 213.217 446.595C213.026 446.512 212.813 446.467 212.643 446.347C209.016 443.775 204.399 436.699 203.641 432.41C203.177 429.783 203.485 426.865 203.622 424.218C203.717 422.376 204.364 419.925 204.024 418.172C203.991 418.003 203.925 417.842 203.876 417.676C204.794 416.685 205.671 415.722 206.745 414.891C206.048 423.068 205.767 430.963 211.3 437.74C220.184 448.622 237.781 445.804 247.621 458.482L248.501 457.716C250.428 459.964 252.406 462.543 254.982 464.079C258.552 464.292 261.49 467.016 265.038 467.632C269.305 468.373 273.869 467.532 278.184 467.946C283.206 467.491 286.218 465.58 289.802 462.224L290.602 462.665C301.84 450.997 305.674 452.082 319.385 445.781C324.037 443.481 328.079 440.619 330.561 435.925C336.083 425.48 331.844 413.171 328.525 402.805Z" fill="#E1977C"/>
<path d="M248.501 457.716C250.428 459.964 252.406 462.543 254.982 464.079C258.552 464.292 261.49 467.016 265.038 467.632C269.305 468.373 273.869 467.532 278.184 467.946C283.206 467.491 286.218 465.58 289.802 462.224L290.602 462.665C289.279 464.102 287.901 465.497 286.39 466.738C280.575 471.511 271.723 472.507 264.501 471.865L261.925 470.126C256.706 469.917 251.158 462.15 247.621 458.482L248.501 457.716Z" fill="#683F33"/>
<path d="M254.982 464.079C258.552 464.292 261.49 467.016 265.038 467.632C269.305 468.373 273.869 467.532 278.184 467.946C277.901 468.533 277.631 468.915 277.084 469.285C273.882 471.453 270.082 471.444 266.427 470.648C262.295 469.747 257.321 467.753 254.982 464.079Z" fill="#B2825E"/>
<path d="M332.039 339.983C336.491 339.796 354.612 336.55 357.612 333.664C352.738 333.961 348.027 336.071 343.181 336.064L342.955 335.562C343.611 335.054 344.234 334.579 344.944 334.146C359.207 325.589 376.676 324.279 392.055 330.613C397.066 332.726 401.831 336.475 407.085 337.789C417.772 340.46 431.078 327.528 439.823 322.411C433.087 329.568 423.286 336.17 414.003 339.461L413.994 340.955C411.365 341.333 408.667 341.849 406.022 342.036C404.119 341.768 402.641 340.673 401.041 339.679C383.76 329.762 372.406 332.169 353.75 337.236C343.722 339.96 331.616 344.594 321.162 342.805C318.881 342.415 316.646 341.525 314.431 340.863C307.863 345.391 302.422 347.35 294.428 346.913C297.979 344.976 302.707 345.205 306.503 343.767C309.937 342.466 312.189 339.934 315.956 339.087C321.797 340.948 326.015 341.3 332.039 339.983Z" fill="#020000"/>
<path d="M406.022 342.036L405.757 340.974C408.502 340.452 411.251 339.947 414.003 339.461L413.994 340.955C411.365 341.333 408.667 341.849 406.022 342.036Z" fill="#EEA98D"/>
<path d="M126.225 338.935C133.889 339.473 137.018 334.145 143.197 330.918C147.656 328.589 153.078 327.491 158.025 326.827C172.339 324.904 185.705 327.739 197.363 336.581C198.642 337.449 199.245 338.171 200.125 339.445C204.07 340.532 207.915 341.54 212.036 341.555C215.886 341.596 219.595 340.138 223.231 338.999L227.236 339.011C228.459 339.961 229.697 341.082 231.082 341.766C234.85 344.149 238.294 344.528 242.545 345.435C241.045 346.236 239.617 346.939 238.011 347.503C233.051 345.579 229.031 343.394 224.703 340.275C220.594 341.687 215.956 343.721 211.563 343.802C204.028 343.942 195.869 340.478 188.704 338.317C177.869 335.049 165.063 331.965 153.767 332.332C145.161 332.612 137.034 341.802 130.865 341.487C129.371 340.795 128.989 340.902 127.402 341.065L126.08 340.841L126.225 338.935Z" fill="#020000"/>
<path d="M200.125 339.445C195.231 338.4 191.104 336.071 186.376 334.69C184.127 334.033 181.567 333.996 179.238 333.726L179.28 333.466C188.055 331.745 189.028 335.059 196.454 336.428C196.756 336.484 197.06 336.53 197.363 336.581C198.642 337.449 199.245 338.171 200.125 339.445Z" fill="#B2825E"/>
<path d="M320.093 389.269L320.472 389.683C326.604 396.246 330.977 404.33 336.829 411.151C355.874 433.351 378.774 450.971 385.521 481.109C389.366 498.285 385.158 519.65 375.867 534.484C376.85 531.245 378.377 528.115 379.511 524.912C382.852 515.477 385.459 504.807 385.49 494.749C385.526 482.993 381.773 470.44 375.965 460.269C367.406 445.281 349.137 427.347 336.687 414.843C333.683 411.013 331.13 406.91 328.525 402.805C331.844 413.171 336.083 425.48 330.561 435.925C328.079 440.619 324.037 443.481 319.385 445.781C305.674 452.082 301.84 450.997 290.602 462.665L289.802 462.224C295.468 455.791 300.298 448.082 308.656 444.971C312.43 443.566 316.518 443.106 320.258 441.56C324.674 439.735 328.284 436.406 329.98 431.889C333.094 423.593 330.206 410.725 326.808 402.844C324.892 398.401 322.26 394.316 320.344 389.865L320.093 389.269Z" fill="#020000"/>
<path d="M213.29 501.696C218.998 500.904 225.391 502.253 231.043 503.091C242.134 504.735 253.733 507.28 264.922 507.862C275.149 508.395 286.502 505.135 296.652 503.761C302.652 502.948 308.712 502.587 314.751 502.185C328.454 501.272 342.525 500.677 353.904 509.694C354.773 510.383 355.255 510.561 355.372 511.674C352.584 512.509 350.629 509.177 348.054 508.121C341.001 505.228 332.324 505.892 324.875 505.967C312.988 505.981 300.488 506.244 288.647 507.248C282.241 507.791 275.737 509.372 269.316 509.371C260.957 509.368 252.473 507.845 244.164 506.941C231.959 505.612 217.623 505.054 205.423 506.743C200.936 507.364 195.744 508.625 191.702 510.667C190.064 511.495 185.481 516.07 184.095 515.962C184.322 515.236 184.594 514.673 185.072 514.076C191.384 506.189 203.664 502.585 213.29 501.696Z" fill="#020000"/>
<path d="M220.973 387.438C218.828 393.604 215.274 398.139 212.433 403.841C208.478 411.779 206.717 424.68 210.679 432.847C212.633 436.873 216.036 439.913 220.365 441.149C223.578 442.067 226.949 442.366 230.2 443.118C238.038 444.932 243.431 451.976 248.501 457.716L247.621 458.482C237.781 445.804 220.184 448.622 211.3 437.74C205.767 430.963 206.048 423.068 206.745 414.891C205.671 415.722 204.794 416.685 203.876 417.676C195.728 425.566 188.088 433.635 180.826 442.354C176.36 447.718 171.644 453.112 167.936 459.04C160.498 470.929 156.144 487.452 155.977 501.41C155.871 510.175 159.307 518.877 159.301 525.816C158.382 524.598 157.985 522.176 157.551 520.678C154.788 511.127 153.903 501.995 155.255 492.124C159.507 461.068 173.551 446.842 193.923 424.774C197.395 421.013 201.182 417.379 204.432 413.432C207.495 409.714 209.301 405.205 211.79 401.12C214.631 396.457 217.903 391.96 220.973 387.438Z" fill="#020000"/>
<path d="M202.248 369.648C201.886 367.804 202.072 366.777 203.08 365.171C204.939 362.209 208.345 360.683 211.678 360.077C214.595 359.546 217.781 359.619 220.278 361.382C223.468 363.633 225.901 367.443 228.447 370.391L231.037 371.921C229.349 372.248 227.135 371.599 225.441 371.32L224.849 371.042C219.934 368.685 215.645 368.291 210.333 369.02C208.156 369.932 205.822 369.716 203.579 370.413C202.616 371.766 201.247 372.954 200.084 374.143L202.248 369.648Z" fill="#EEA98D"/>
<path d="M210.333 369.02C212.108 367.41 214.363 366.671 216.758 366.819C220.797 367.07 224.507 369.544 228.447 370.391L231.037 371.921C229.349 372.248 227.135 371.599 225.441 371.32L224.849 371.042C219.934 368.685 215.645 368.291 210.333 369.02Z" fill="#B2825E"/>
<path d="M202.248 369.648C204.295 367.024 206.302 363.504 209.732 362.71C207.884 365.244 205.447 366.843 203.966 369.697C203.841 369.938 203.708 370.175 203.579 370.413C202.616 371.766 201.247 372.954 200.084 374.143L202.248 369.648Z" fill="#A06557"/>
<path d="M162.352 363.754C176.064 358.722 190.241 357.935 204.262 354.581C210.195 353.162 213.128 348.293 219.984 349.884C226.678 351.438 231.94 357.117 235.376 362.784C237.23 362.814 237.737 362.797 239.144 364.188C241.611 366.627 242.609 370.061 242.513 373.469C242.486 374.414 242.293 375.049 241.821 375.879L240.936 376.055C240.264 375.201 239.956 374.442 239.592 373.422C235.009 365.788 229.884 354.973 220.9 351.93C211.075 348.601 205.325 358.215 197.523 361.747C197.349 361.826 197.172 361.897 196.996 361.971C199.14 360.018 201.421 358.209 203.658 356.364C195.95 357.817 188.178 358.871 180.489 360.457C173.514 361.896 166.646 363.849 159.649 365.17C160.499 364.636 161.458 364.214 162.352 363.754Z" fill="#020000"/>
<path d="M235.376 362.784C237.23 362.814 237.737 362.797 239.144 364.188C241.611 366.627 242.609 370.061 242.513 373.469C242.486 374.414 242.293 375.049 241.821 375.879L240.936 376.055C240.264 375.201 239.956 374.442 239.592 373.422C238.908 369.918 236.793 366.08 235.376 362.784Z" fill="#EEA98D"/>
<path d="M294.583 563.242C298.037 564.801 300.74 566.881 303.743 569.171L304.69 568.785L303.663 567.866L304.06 567.24C306.669 567.087 308.56 568.608 310.436 570.3C318.407 577.486 321.674 585.065 325.41 594.909C324.704 595.784 324.025 595.486 323.119 596.353C320.206 592.946 318.054 588.82 315.522 585.117C309.766 576.746 302.695 569.359 294.583 563.242Z" fill="#EEA98D"/>
<path d="M294.583 563.242C298.037 564.801 300.74 566.881 303.743 569.171C311.339 576.713 319.758 586.009 323.119 596.353C320.206 592.946 318.054 588.82 315.522 585.117C309.766 576.746 302.695 569.359 294.583 563.242Z" fill="#020000"/>
<path d="M320.8 363.311C323.203 362.117 326.015 360.552 328.782 361.388C330.673 361.96 332.012 363.451 332.845 365.19C333.258 366.053 333.571 366.957 333.869 367.864L335.185 369.986C334.379 370.76 334.297 370.779 334.132 371.872C334.882 374.006 337.22 376.947 337.357 379.015L336.703 379.34C335.984 378.166 335.747 376.855 335.087 375.668C333.65 373.086 331.804 370.664 330.35 368.023C322.015 369.473 314.328 371.619 309.178 378.893C308.284 380.154 307.437 381.831 306.256 382.815C306.606 379.942 309.621 375.191 311.535 373.05C311.738 371.96 311.956 370.872 312.45 369.87C314.238 366.246 317.067 364.506 320.8 363.311Z" fill="#B2825E"/>
<path d="M320.8 363.311L320.877 365.095C319.413 366.214 318.995 366.781 318.331 368.499L318.371 368.931L319.717 369.074C316.877 370.246 314.104 371.34 311.535 373.05C311.738 371.96 311.956 370.872 312.45 369.87C314.238 366.246 317.067 364.506 320.8 363.311Z" fill="#EEA98D"/>
<path d="M320.8 363.311C323.203 362.117 326.015 360.552 328.782 361.388C330.673 361.96 332.012 363.451 332.845 365.19C333.258 366.053 333.571 366.957 333.869 367.864C333.09 367.065 332.31 366.248 331.463 365.52C330.084 364.333 328.409 363.953 326.638 364.22L320.877 365.095L320.8 363.311Z" fill="#EEA98D"/>
<path d="M242.011 565.908L242.493 567.017C237.138 572.038 231.377 576.96 226.856 582.773C223.092 587.614 220.939 593.662 216.285 597.759C216.041 598.095 215.506 598.864 215.212 599.129C213.852 600.352 213.939 598.676 213.001 598.575C212.588 598.53 210.918 599.276 210.166 599.281L211.06 598.28C211.47 597.815 211.863 597.334 212.295 596.888C219.572 589.378 219.586 577.335 230.263 572.663C231.312 573.143 232.104 573.426 232.85 574.34L242.011 565.908Z" fill="#EEA98D"/>
<path d="M242.011 565.908L242.493 567.017C237.138 572.038 231.377 576.96 226.856 582.773C223.092 587.614 220.939 593.662 216.285 597.759C219.902 589.109 225.974 580.655 232.85 574.34L242.011 565.908Z" fill="#020000"/>
<path d="M26.0502 324.024C29.9722 324.106 32.4462 325.064 35.2202 327.884C36.5842 329.266 37.7902 330.795 38.8152 332.443C36.1012 331.632 35.247 328.373 32.715 327.54C30.623 333.624 31.426 344.952 29.024 349.721C27.77 365.738 23.385 382.134 30.218 397.663L29.455 398.802C27.654 393.472 25.586 387.715 25.085 382.077C24.15 371.543 26.679 361.058 27.312 350.597C27.81 342.348 26.627 333.59 28.189 325.461L26.0502 324.024Z" fill="#020000"/>
<path d="M26.0502 324.024C29.9722 324.106 32.4462 325.064 35.2202 327.884C36.5842 329.266 37.7902 330.795 38.8152 332.443C36.1012 331.632 35.247 328.373 32.715 327.54C30.623 333.624 31.426 344.952 29.024 349.721C28.855 344.18 30.394 329.557 28.189 325.461L26.0502 324.024Z" fill="#E1977C"/>
<path d="M228.577 328.612C231.183 326.387 235.461 325.903 238.603 324.309C238.755 325.241 239.067 326.342 239.01 327.276C237.575 328.082 236.624 328.81 235.515 330.032C235.632 333.467 236.707 336.055 238.271 339.071L238.512 340.022L238.846 340.079L238.449 341.261C236.359 341.542 234.407 341.578 232.381 340.983L231.082 341.766C229.697 341.082 228.459 339.961 227.236 339.011L223.231 338.999L223.562 336C223.631 335.881 223.719 335.771 223.77 335.643C225.011 332.553 226.248 330.968 228.577 328.612Z" fill="#E1977C"/>
<path d="M228.577 328.612C231.183 326.387 235.461 325.903 238.603 324.309C238.755 325.241 239.067 326.342 239.01 327.276C237.575 328.082 236.624 328.81 235.515 330.032C233.136 330.552 230.688 330.981 228.353 331.671C227.964 334.11 227.509 336.557 227.236 339.011L223.231 338.999L223.562 336C223.631 335.881 223.719 335.771 223.77 335.643C225.011 332.553 226.248 330.968 228.577 328.612Z" fill="#B2825E"/>
<path d="M238.512 340.022L238.846 340.079L238.449 341.261C236.359 341.542 234.407 341.578 232.381 340.983C234.251 340.303 236.536 340.266 238.512 340.022Z" fill="#845641"/>
<path d="M209.745 195.439C234.703 196.826 258.313 207.515 283.397 205.77C296.791 204.838 308.632 199.776 321.58 197.114C329.663 195.453 338.115 195.345 346.308 196.086C347.868 196.228 350.758 195.898 351.936 196.719C345.282 196.69 338.276 195.597 331.649 196.426C312.932 198.767 296.085 206.952 276.899 207.132C253.492 207.35 230.16 197.031 206.005 195.878L209.745 195.439Z" fill="#3E291F"/>
<path d="M253.658 494.846C252.419 493.904 250.839 493.046 250.369 491.492L250.935 490.866C254.28 492.092 259.521 494.104 262.987 494.333C268.066 494.669 272.764 493.482 277.783 495.036C279.101 494.377 281.101 493.02 282.52 493.102C282.318 494.353 281.752 495.037 281.041 496.052C281.202 496.06 281.364 496.069 281.526 496.075C284.783 496.186 287.764 495 290.819 494.009L290.875 494.297C289.614 495.172 288.361 496.06 287.065 496.885C284.875 497.026 282.756 497.142 280.559 497.059C277.969 496.961 276.618 497.617 274.623 499.186L274.923 499.586C274.048 500.258 274.15 500.08 273.136 499.993C265.967 500.07 259.583 499.221 253.658 494.846Z" fill="#EEA98D"/>
<path d="M281.041 496.052C281.202 496.06 281.364 496.069 281.526 496.075C284.783 496.186 287.764 495 290.819 494.009L290.875 494.297C289.614 495.172 288.361 496.06 287.065 496.885C284.875 497.026 282.756 497.142 280.559 497.059C277.969 496.961 276.618 497.617 274.623 499.186L274.923 499.586C274.048 500.258 274.15 500.08 273.136 499.993C273.346 499.486 273.309 499.779 273.069 499.109L270.481 498.442C271.549 497.961 272.623 497.494 273.702 497.039C276.17 496.008 278.407 494.981 281.041 496.052Z" fill="#B2825E"/>
<path d="M253.658 494.846C259.75 495.964 263.862 499.163 270.481 498.442L273.069 499.109C273.309 499.779 273.346 499.486 273.136 499.993C265.967 500.07 259.583 499.221 253.658 494.846Z" fill="#3E1B14"/>
<path d="M98.5061 324.315L100.414 325.79L100.142 324.21C107.624 329.846 117.048 336.572 126.225 338.935L126.08 340.841L127.402 341.065C124.397 341.715 121.462 341.332 118.455 341.693C115.398 337.367 100.942 334.322 98.151 327.303C97.573 325.848 97.8521 325.65 98.5061 324.315Z" fill="#EEA98D"/>
<path d="M100.142 324.21C107.624 329.846 117.048 336.572 126.225 338.935L126.08 340.841C123.786 339.539 121.161 338.575 118.806 337.303C112.39 333.836 106.389 329.96 100.414 325.79L100.142 324.21Z" fill="#020000"/>
<path d="M348.342 252.578C349.571 251.463 350.745 250.721 352.205 249.936C350.482 252.84 346.724 255.898 344.086 258.047L343.395 258.741C340.696 262.898 333.212 273.409 329.772 276.791C328.359 276.707 327.255 277.255 325.94 277.724L325.543 276.739C326.462 271.415 332.637 265.166 336.146 261.041C339.266 257.373 343.313 253.007 348.342 252.578Z" fill="#EEA98D"/>
<path d="M329.772 276.791C330.942 272.458 339.476 261.205 343.395 258.741C340.696 262.898 333.212 273.409 329.772 276.791Z" fill="#B2825E"/>
<path d="M348.342 252.578C349.571 251.463 350.745 250.721 352.205 249.936C350.482 252.84 346.724 255.898 344.086 258.047C344.916 255.804 346.71 254.269 348.342 252.578Z" fill="#E1977C"/>
<path d="M153.903 572.482C151.175 568.35 147.63 564.645 144.753 560.58C140.257 554.228 129.52 536.228 128.369 528.898C131.033 531.03 142.874 553.308 146.835 558.748C148.486 561.014 152.957 564.307 153.598 566.736C155.776 570.05 157.618 573.372 160.113 576.477C157.832 575.455 155.422 574.577 153.903 572.482Z" fill="#B2825E"/>
<path d="M153.903 572.482C154.233 571.564 154.201 571.3 153.957 570.311C153.635 569.003 153.595 568.082 153.598 566.736C155.776 570.05 157.618 573.372 160.113 576.477C157.832 575.455 155.422 574.577 153.903 572.482Z" fill="#E1977C"/>
<path d="M238.449 341.261C243.869 340.359 253.986 337.403 258.796 340.7C258.947 340.804 259.084 340.928 259.228 341.042L259.052 341.465C254.777 343.837 247.487 342.697 244.399 346.689C247.053 347.939 249.609 350.001 250.715 352.797C251.286 354.24 251.083 355.209 250.654 356.631C248.951 354.082 247.128 350.457 244.123 349.457C243.726 348.369 243.691 348.213 242.772 347.528C241.188 347.804 240.064 347.849 238.474 347.585C238.32 347.56 238.166 347.531 238.011 347.503C239.617 346.939 241.045 346.236 242.545 345.435C238.294 344.528 234.85 344.149 231.082 341.766L232.381 340.983C234.407 341.578 236.359 341.542 238.449 341.261Z" fill="#E1977C"/>
<path d="M286.358 354.039L288 352.166L288.632 352.219C287.989 355.318 286.283 358.091 285.288 361.093L281.699 369.541C280.836 370.549 280.744 370.669 279.476 371.024L278.963 370.265C278.775 366.062 278.77 361.883 281.001 358.125C282.334 355.878 283.842 354.681 286.358 354.039Z" fill="#EEA98D"/>
<path d="M286.358 354.039L288 352.166L288.632 352.219C287.989 355.318 286.283 358.091 285.288 361.093L284.136 359.351L286.358 354.039Z" fill="#3E1B14"/>
<path d="M281.699 369.541C280.443 366.204 283.038 362.623 284.136 359.351L285.288 361.093L281.699 369.541Z" fill="#845641"/>
<path d="M404.161 541.036L405.098 541.645C403.403 544.817 401.779 548.206 399.789 551.201C397.211 557.347 387.115 569.743 381.171 572.236C380.477 572.527 380.493 572.497 379.869 572.612L379.761 572.04C383.225 569.449 386.456 567.09 389.082 563.593C390.901 561.172 392.442 556.632 394.718 554.884C397.194 550.016 400.892 545.409 404.161 541.036Z" fill="#E1977C"/>
<path d="M404.161 541.036L405.098 541.645C403.403 544.817 401.779 548.206 399.789 551.201C400.155 550.145 400.468 549.994 400.016 548.923C397.85 550.526 396.639 553.023 394.718 554.884C397.194 550.016 400.892 545.409 404.161 541.036Z" fill="#A06557"/>
<path d="M401.041 339.679C402.641 340.673 404.119 341.768 406.022 342.036C404.279 344.804 399.234 346.14 396.603 348.41L395.402 348.175C391.723 350.353 387.637 351.674 383.628 353.116L382.89 352.395C384.295 352.192 385.332 351.56 386.549 350.883C388.67 347.362 397.342 342.8 401.041 339.679Z" fill="#EEA98D"/>
<path d="M386.549 350.883C392.229 349.174 396.907 345.59 402.126 342.903C400.221 344.984 397.619 346.419 395.402 348.175C391.723 350.353 387.637 351.674 383.628 353.116L382.89 352.395C384.295 352.192 385.332 351.56 386.549 350.883Z" fill="#683F33"/>
<path d="M325.213 350.653C325.638 350.689 326.19 350.723 326.629 350.799C328.081 351.048 329.518 351.585 330.321 352.811C329.304 353.483 325.407 352.342 323.62 352.667C313.376 354.531 305.604 363.214 300.027 371.356L297.319 375.477L296.916 375.225C297.891 371.055 301.301 366.614 303.924 363.243C308.932 356.808 317.132 351.633 325.213 350.653Z" fill="#020000"/>
<path d="M327.014 353.252C327.18 353.288 327.348 353.315 327.512 353.358C332.876 354.766 338.296 355.416 343.751 356.387C352.652 357.938 361.521 359.671 370.352 361.583L370.018 362.777C363.066 360.117 342.943 357.611 334.148 356.146C336.183 357.887 339.245 360.021 340.393 362.399C335.891 360.626 331.067 356.127 327.014 353.252Z" fill="#020000"/>
<path d="M127.402 341.065C128.989 340.902 129.371 340.795 130.865 341.487C130.97 341.611 131.062 341.748 131.18 341.86C134.137 344.653 152.066 350.665 156.858 352.199L156.628 352.48C153.465 352.576 150.767 351.646 147.836 350.582C142.866 348.778 138.322 346.094 133.424 344.177C125.228 340.969 115.714 343.61 107.717 346.219L107.356 345.291C111.007 344.524 114.81 342.752 118.455 341.693C121.462 341.332 124.397 341.715 127.402 341.065Z" fill="#1D130C"/>
<path d="M426.269 303.427L427.418 303.965C426.683 305.129 426.577 305.907 426.398 307.279C425.709 312.552 422.85 316.692 418.786 319.953C418.033 320.557 418.343 320.39 417.51 320.609C414.517 322.987 411.531 325.158 408.279 327.168C410.485 324.018 413.852 321.211 416.39 318.226C418.836 315.349 420.765 311.859 423.504 309.297C423.857 310.396 423.698 309.988 424.131 311.008L424.43 311.7C425.084 308.951 425.697 306.194 426.269 303.427Z" fill="#E1977C"/>
<path d="M426.269 303.427L427.418 303.965C426.683 305.129 426.577 305.907 426.398 307.279C425.709 312.552 422.85 316.692 418.786 319.953C418.033 320.557 418.343 320.39 417.51 320.609C419.314 317.404 422.61 315.244 424.43 311.7C425.084 308.951 425.697 306.194 426.269 303.427Z" fill="#683F33"/>
<path d="M159.649 365.17C157.66 366.523 154.645 366.358 152.337 367.027C149.834 367.754 147.208 369.242 145.002 370.619C137.67 375.197 132.34 382.198 125.037 386.647C125.103 386.457 125.132 386.251 125.235 386.079C126.076 384.678 128.2 383.015 129.407 381.885C137.154 374.632 145.882 367.366 155.983 363.68C158.572 362.736 159.893 362.583 162.352 363.754C161.458 364.214 160.499 364.636 159.649 365.17Z" fill="#EEA98D"/>
<path d="M238.603 324.309L245.53 319.878C245.519 320.827 245.615 320.686 245.064 321.509C244.384 322.524 244.305 323.281 244.103 324.457L244.369 325.233L245.23 325.348C247.555 323.353 251.797 324.201 254.791 324.404L255.207 325.114C250.619 326.991 245.139 326.01 240.246 327.595L239.01 327.276C239.067 326.342 238.755 325.241 238.603 324.309Z" fill="#EEA98D"/>
<path d="M370.352 361.583C376.291 360.291 392.704 364.595 397.672 368.097C398.081 368.385 398.173 368.577 398.423 368.949L397.651 369.373L397.959 370.391L397.87 371.107C390.486 363.828 379.653 364.226 370.018 362.777L370.352 361.583Z" fill="#B2825E"/>
<path d="M413.994 340.955C419.372 341.123 423.962 341.97 429.075 343.662L426.876 344.206C419.494 341.772 411.473 342.155 404.357 345.281C401.751 346.398 399.418 347.856 396.603 348.41C399.234 346.14 404.279 344.804 406.022 342.036C408.667 341.849 411.365 341.333 413.994 340.955Z" fill="#020000"/>
<path d="M402.486 355.083C409.288 354.073 415.009 356.358 420.408 360.348C426.053 364.52 432.89 371.166 436.184 377.408C428.832 370.295 418.055 356.161 407.289 355.943C405.72 355.529 404.09 355.334 402.486 355.083Z" fill="#1D130C"/>
<path d="M376.915 318.72C377.505 318.607 377.548 318.582 378.249 318.548C387.001 318.121 394.47 323.383 400.483 329.086C396.91 326.906 393.53 324.162 389.738 322.404C381.998 318.013 370.396 320.502 361.739 320.513C366.72 319.138 371.788 318.984 376.915 318.72Z" fill="#E1977C"/>
<path d="M352.741 480.093C353.325 480.459 353.429 480.471 353.935 481.09C356.185 483.837 359.593 493.404 358.986 497.022C358.916 496.949 358.846 496.875 358.775 496.803C355.85 493.869 354.552 488.918 353.176 485.082C352.452 483.063 352.133 482.198 352.741 480.093Z" fill="#E1977C"/>
<path d="M251.85 534.845L252.513 534.072C255.599 532.577 264.349 532.359 267.722 533.374L266.39 534.109L266.768 534.596L267.402 534.525L267.657 535.127C263.263 535.859 258.595 535.707 254.145 535.833L254.721 535.332C254.077 534.726 252.738 534.899 251.85 534.845Z" fill="url(#paint1_linear_144_236)"/>
<path d="M334.998 474.269L335.034 474.266L334.894 474.977C337.698 477.446 343.656 476.014 347.003 478.717C345.318 480.035 338.357 476.361 335.924 476.32C335.74 476.316 335.555 476.328 335.371 476.33C333.364 476.351 332.118 477.14 330.461 478.174L329.836 478.572C327.432 480.513 323.413 482.601 320.403 483.146C323.048 479.57 331.022 476.519 334.998 474.269Z" fill="#E1977C"/>
<path d="M413.408 382.559C420.422 389.118 428.814 398.148 430.646 407.829C426.651 398.25 419.684 390.431 412.637 382.975L413.408 382.559Z" fill="#E1977C"/>
<path d="M267.402 534.525C276.121 533.034 292.631 534.491 301.057 536.834C298.596 537.074 295.571 536.341 293.057 536.13C284.812 535.439 275.925 534.331 267.657 535.127L267.402 534.525Z" fill="#B2825E"/>
<path d="M225.441 371.32C227.135 371.599 229.349 372.248 231.037 371.921C234.172 373.975 235.791 377.081 237.651 380.225C233.072 378.122 229.271 374.544 225.441 371.32Z" fill="#EEA98D"/>
<path d="M129.205 355.043L130.999 355.953C123.749 357.683 116.92 364.241 112.563 370.124L111.146 369.52C116.467 363.658 121.737 358.047 129.205 355.043Z" fill="#1D130C"/>
<path d="M244.123 349.457C247.128 350.457 248.951 354.082 250.654 356.631C252.259 360.164 253.822 363.715 255.342 367.286L254.209 367.422C252.483 361.263 247.353 354.974 244.123 349.457Z" fill="#1D130C"/>
<path d="M235.02 399.296C239.243 406.589 238.426 416.945 238.255 425.034L237.967 424.735C237.385 420.963 237.405 417.082 236.939 413.28C236.382 408.731 234.805 403.848 235.02 399.296Z" fill="#B2825E"/>
<path d="M254.791 324.404C261.379 322.854 268.651 322.366 275.015 325.082C275.749 325.395 276.48 325.705 277.209 326.029C269.89 324.698 262.606 324.004 255.207 325.114L254.791 324.404Z" fill="#3E1B14"/>
<path d="M406.064 241.357C406.242 241.293 406.41 241.188 406.597 241.165C413.144 240.347 424.15 247.054 429.895 250.053C425.137 249.76 420.027 245.516 415.457 243.979C413.03 243.162 407.718 242.939 406.064 241.357Z" fill="#B2825E"/>
<path d="M352.442 607.744C353.43 608.558 353.986 608.774 353.963 610.179C353.922 612.671 351.13 614.981 349.501 616.604C349.281 616.492 349.068 616.366 348.842 616.268C348.686 616.201 348.52 616.163 348.359 616.111C348.534 613.426 351.075 610.092 352.442 607.744Z" fill="#EEA98D"/>
<path d="M197.638 260.315C197.818 260.421 198.011 260.51 198.18 260.634C202.641 263.914 208.649 276.06 209.422 281.608C206.639 274.084 201.739 267.197 197.638 260.315Z" fill="#683F33"/>
<path d="M305.611 409.939C306.019 408.462 305.866 408.251 307.158 407.477C306.46 413.918 305.134 420.095 303.535 426.358C303.575 426.136 303.661 425.916 303.657 425.69C303.651 425.371 303.523 425.064 303.504 424.745C303.317 421.648 305.011 413.449 305.611 409.939Z" fill="#E1977C"/>
<path d="M397.959 370.391C403.6 373.539 409.316 377.492 413.408 382.559L412.637 382.975C408.523 378.368 402.93 374.587 397.87 371.107L397.959 370.391Z" fill="#1D130C"/>
<path d="M287.37 243.303C288.026 245.163 287.399 247.523 287.6 249.514C288.083 254.295 289.864 259.006 289.865 263.798C287.218 257.036 285.629 250.477 287.37 243.303Z" fill="#B2825E"/>
<path d="M249.253 233.125C249.517 239.225 246.383 251.253 244.052 256.997C244.007 248.798 248.494 241.152 249.253 233.125Z" fill="#B2825E"/>
<path d="M111.146 369.52L112.563 370.124C110.953 373.104 107.839 376.557 105.54 379.072C106.057 376.842 107.309 374.858 108.387 372.854L107.99 373.119C108.147 372.45 108.188 372.115 108.521 371.467C108.992 370.551 110.201 369.79 111.146 369.52Z" fill="#B2825E"/>
<path d="M115.264 305.125C114.994 309.738 120.314 319.383 122.629 323.577C121.655 322.969 120.951 322.041 120.282 321.122C117.397 317.156 114.619 309.963 115.264 305.125Z" fill="#683F33"/>
<path d="M404.161 541.036C406.339 536.451 408.36 530.429 411.44 526.49C411.812 530.825 406.742 537.518 405.098 541.645L404.161 541.036Z" fill="#3E291F"/>
<path d="M130.872 245.323C131.377 245.788 131.172 245.478 131.328 246.342C127.834 249.686 124.05 252.711 120.019 255.382L119.826 255.277C121.761 251.853 127.738 247.895 130.872 245.323Z" fill="#E1977C"/>
<path d="M287.352 397.873C287.515 398.095 287.786 398.269 287.841 398.538C288.078 399.707 284.975 409.997 284.728 412.571L284.391 412.247C283.126 408.298 285.972 401.612 287.352 397.873Z" fill="#E1977C"/>
<path d="M120.804 389.99L121.073 390.153C120.653 392.192 113.837 398.403 111.948 400.573L111.532 400.154C112.447 396.782 118.086 392.269 120.804 389.99Z" fill="#E1977C"/>
<path d="M251.85 534.845C252.738 534.899 254.077 534.726 254.721 535.332L254.145 535.833C248.443 535.942 242.903 537.187 237.181 536.625C242.056 535.938 246.934 535.158 251.85 534.845Z" fill="#B2825E"/>
<path d="M341.598 327.806L342.201 328.225C339.129 331.145 335.658 333.635 332.288 336.198L331.993 336.297L331.818 335.948C334.3 332.651 338.205 330.094 341.598 327.806Z" fill="#A06557"/>
<path d="M356.439 318.98L356.831 319.593C353.39 321.537 350.116 323.874 346.814 326.051L346.405 325.696C349.444 323.04 352.543 320.252 356.439 318.98Z" fill="#683F33"/>
<path d="M30.218 397.663C31.177 401.011 32.3201 404.406 32.7301 407.87L32.2371 408.171C30.7801 406.492 30.136 401.168 29.455 398.802L30.218 397.663Z" fill="#A06557"/>
<path d="M302.695 615.721C303.134 615.923 303.423 616.029 303.82 616.357C305.712 617.921 306.293 620.119 306.457 622.453L305.564 622.173C303.694 620.217 303.119 618.358 302.695 615.721Z" fill="#E1977C"/>
<path d="M309.003 509.666C312.481 510.082 316.279 510.247 319.5 511.686L319.652 512.433C315.992 511.824 312.375 511.255 308.817 510.183L309.003 509.666Z" fill="#B2825E"/>
<path d="M429.075 343.662C432.744 344.396 435.576 346.03 438.696 347.984C434.801 346.617 430.906 345.119 426.876 344.206L429.075 343.662Z" fill="#E1977C"/>
<path d="M512.689 392.788C511.931 395.603 510.773 398.077 509.522 400.696L508.634 400.854L509.3 401.056L508.78 401.352C508.914 398.53 510.792 395.338 511.64 392.554L511.806 391.997L512.689 392.788Z" fill="#B2825E"/>
<path d="M186.095 249.897C189.297 250.949 192.716 254.949 195.245 257.25C192.195 256.97 188.253 252.101 186.095 249.897Z" fill="#B2825E"/>
<path d="M242.011 565.908C244.604 563.85 247.373 562.086 250.529 561.038C247.937 563.14 244.964 564.802 242.493 567.017L242.011 565.908Z" fill="#683F33"/>
<path d="M196.652 195.81C201.102 195.218 205.277 194.707 209.745 195.439L206.005 195.878C202.864 196.142 199.793 195.974 196.652 195.81Z" fill="#B2825E"/>
<path d="M129.205 355.043C132.943 355.014 136.559 355.158 140.277 355.545C137.414 356.026 133.876 356.479 130.999 355.953L129.205 355.043Z" fill="#845641"/>
<path d="M228.311 627.339C229.729 624.384 231.556 621.712 233.609 619.162C232.62 621.714 230.959 624.372 230.172 626.901L228.311 627.339Z" fill="#EEA98D"/>
<path d="M396.975 356.063C398.96 355.364 400.372 354.887 402.486 355.083C404.09 355.334 405.72 355.529 407.289 355.943C403.866 356.094 400.403 356.028 396.975 356.063Z" fill="#B2825E"/>
<path d="M296.516 287.568L297.459 287.954L297.813 291.593L296.758 294.205C296.439 292.033 296.537 289.762 296.516 287.568Z" fill="#3E1B14"/>
<path d="M98.5061 324.315C97.0891 322.512 95.6119 320.759 94.4819 318.757L100.142 324.21L100.414 325.79L98.5061 324.315Z" fill="#683F33"/>
<path d="M107.717 346.219C106.401 346.876 104.656 348.042 103.184 347.892C104.321 346.598 105.834 346.021 107.356 345.291L107.717 346.219Z" fill="#B2825E"/>
<path d="M296.516 287.568C296.571 286.122 296.343 284.501 297.092 283.256C297.628 284.863 297.528 286.277 297.459 287.954L296.516 287.568Z" fill="#B2825E"/>
<path d="M383.628 353.116C382.053 353.629 380.914 354.032 379.224 353.774C380.189 352.79 381.568 352.728 382.89 352.395L383.628 353.116Z" fill="#E1977C"/>
<path d="M70.5689 355.007C66.4919 343.676 62.6029 332.265 58.4289 320.971C54.6709 310.8 50.5059 300.899 47.5309 290.447C36.2099 250.667 36.4759 202.251 44.5499 161.891C54.2489 113.413 78.2289 77.4331 119.497 49.9869C178.554 10.7103 249.979 -5.50344 319.858 8.54006C351.157 14.8303 400.902 29.7388 419.129 57.4731C423.886 64.7101 426.237 73.3801 424.324 81.9801C422.061 92.1551 413.914 102.675 405.148 108.124C404.981 108.228 404.812 108.327 404.644 108.428C383.218 101.78 366.818 100.721 344.891 104.834L340.81 105.872L339.154 106.124C312.067 112.453 292.681 117.991 264.285 115.489C249.841 114.216 236.498 109.006 222.598 105.406C201.234 99.8721 171.302 99.0281 149.829 104.1C142.677 105.79 136.198 108.071 129.745 111.572C126.683 113.233 123.485 115.506 120.235 116.696C120.058 118.024 119.757 118.195 120.529 119.361C103.253 133.483 95.4859 149.727 86.2819 169.326C87.8509 168.895 88.1679 168.223 89.2219 167.019C88.3099 178.319 85.5469 191.406 81.6589 202.039C79.8139 207.086 77.2939 211.885 75.6079 216.99C71.9969 227.922 69.2799 239.196 65.8669 250.206C62.4759 261.143 58.3639 272.365 58.4129 283.961L59.0219 283.779C60.3979 279.085 60.4569 273.957 61.7249 269.193C63.8729 261.118 66.6529 253.178 68.9719 245.146C71.7339 235.578 73.9799 225.783 77.1959 216.359C78.9769 211.141 81.4229 206.047 83.6169 200.984C82.6049 211.967 82.8639 223.244 82.3089 234.284C80.2789 274.682 78.6729 315.243 70.5689 355.007Z" fill="#B2825E"/>
<path d="M70.6558 134.116C86.1948 122.315 101.191 118.669 120.235 116.696C120.058 118.024 119.757 118.195 120.529 119.361C103.253 133.483 95.4859 149.727 86.2819 169.326C83.0949 173.295 81.0458 178.124 78.7798 182.653C73.8298 192.546 69.4218 202.62 64.6598 212.596L63.7798 212.268C67.6318 202.976 71.7438 193.338 76.2738 184.36C79.2868 178.39 82.7408 172.655 85.8238 166.724C88.5448 161.49 90.6048 155.931 93.0938 150.587C99.5258 136.776 108.815 126.082 120.933 116.983C116.163 118.814 110.737 118.922 105.708 119.687C93.6298 121.523 80.9228 126.677 71.4488 134.458L70.6558 134.116Z" fill="#1D130C"/>
<path d="M328.095 89.496C327.975 89.341 327.858 89.184 327.736 89.03C324.144 84.497 319.379 80.694 315.279 76.608C301.056 62.429 274.285 35.6776 253.957 33.6668C245.198 32.8005 237.342 33.9347 228.662 34.53C227.829 34.5871 227.452 34.6331 226.739 35.0232L226.217 34.9093C230.757 34.0732 235.357 32.7933 239.94 32.3385C255.709 30.7743 270.219 37.4634 282.914 46.1767C296.85 55.741 308.022 67.721 319.986 79.482C324.512 83.931 330.272 88.382 333.475 93.906C333.441 93.912 333.406 93.928 333.372 93.923C331.476 93.618 329.428 90.86 328.095 89.496Z" fill="#3E291F"/>
<path d="M328.095 89.496C329.428 90.86 331.476 93.618 333.372 93.923C333.406 93.928 333.441 93.912 333.475 93.906C337.666 95.092 341.127 99.5351 343.235 103.304C343.491 103.762 343.599 104.034 343.827 104.534L344.891 104.834L340.81 105.872L339.154 106.124L338.65 105.52C332.912 103.283 330.455 94.729 328.095 89.496Z" fill="#9E6F4D"/>
<path d="M338.65 105.52C336.119 102.832 333.901 100.084 332.442 96.6521C335.453 99.5781 337.663 103.015 340.81 105.872L339.154 106.124L338.65 105.52Z" fill="#1D130C"/>
<path d="M58.4129 283.961L59.0219 283.779C59.4439 287.777 60.0629 292.595 59.0269 296.517C58.4189 292.315 58.3129 288.201 58.4129 283.961Z" fill="#9E6F4D"/>
<path d="M71.4488 134.458C69.8508 136.377 67.6168 138.377 65.4368 139.602L65.1538 139.309C66.6298 137.152 68.6258 135.716 70.6558 134.116L71.4488 134.458Z" fill="#845641"/>
<path d="M64.6598 212.596C64.1698 213.834 63.9879 215.171 62.8169 215.852C62.6749 214.323 63.1598 213.651 63.7798 212.268L64.6598 212.596Z" fill="#845641"/>
<path d="M162.187 54.6021C189.528 61.3301 216.26 71.765 237.473 90.939C240.985 90.362 242.592 91.7441 245.298 93.6951C248.692 96.1401 251.963 98.7801 255.433 101.117C258.836 103.409 263.637 105.455 266.461 108.35C269.864 111.366 275.208 113.664 279.162 116.031C268.997 112.698 250.766 103.596 242.094 96.9311C235.985 92.2361 230.824 86.6901 224.398 82.2701C204.877 68.8421 183.983 61.0301 161.136 55.3491L162.187 54.6021Z" fill="#1D130C"/>
<path d="M237.473 90.939C240.985 90.362 242.592 91.7441 245.298 93.6951C248.692 96.1401 251.963 98.7801 255.433 101.117C258.836 103.409 263.637 105.455 266.461 108.35C266.012 108.399 265.619 108.476 265.17 108.413C260.976 107.818 245.894 98.5089 242.088 95.6309C240.356 94.3219 238.905 92.563 237.473 90.939Z" fill="#9E6F4D"/>
<path d="M388.486 97.035C388.501 98.348 388.386 99.518 388.199 100.811C386.691 98.785 382.161 74.21 380.036 68.753C377.339 61.826 371.983 54.919 367.515 49.0207C365.608 46.5034 352.953 33.9611 352.814 32.5764C359.341 34.9284 374.915 57.896 379.066 64.062L380.069 63.25C382.7 64.71 384.312 69.86 385.102 72.681C386.976 79.372 389.788 90.207 388.486 97.035Z" fill="#3E291F"/>
<path d="M379.066 64.062L380.069 63.25C382.7 64.71 384.312 69.86 385.102 72.681C386.976 79.372 389.788 90.207 388.486 97.035C386.755 88.301 383.1 71.403 379.066 64.062Z" fill="#9E6F4D"/>
<path d="M240.824 62.533C252.083 66.522 269.923 86.007 281.084 93.347C288.038 97.92 295.587 101.578 303.095 105.135C306.921 106.947 311.255 108.488 314.727 110.892C310.658 110.666 305.669 108.197 302.034 106.459C294.045 102.639 285.652 98.03 278.494 92.826C265.455 83.347 254.092 71.852 240.824 62.533Z" fill="#1D130C"/>
<path d="M128.291 75.6709C128.358 75.6619 128.425 75.6489 128.493 75.6439C135.812 75.0509 143.541 75.0139 150.813 76.1219C161.449 77.7419 181.559 84.7149 190.954 89.7979C194 91.4459 196.733 93.5139 199.419 95.6859C197.234 95.1539 194.951 93.2749 193.051 92.0629C192.866 91.9549 192.683 91.8459 192.497 91.7399C186.514 88.3459 179.682 86.2199 173.2 83.9719C152.832 76.9069 138.57 73.2639 116.924 79.0959C120.664 77.3209 124.2 76.2659 128.291 75.6709Z" fill="#1D130C"/>
<path d="M114.885 96.2011C126.145 94.6661 143.157 95.0411 152.929 101.216L152.823 101.469C140.77 96.5211 125.712 96.0471 112.931 97.6851L112.381 97.7591C107.33 98.2351 102.334 99.1741 97.4542 100.564C94.3142 101.45 80.0162 107.736 78.1792 107C89.3442 101.21 102.433 97.5091 114.885 96.2011Z" fill="#1D130C"/>
<path d="M88.8209 149.695L89.4919 149.76C89.1619 151.196 86.7889 152.873 85.6489 153.95C80.7429 158.587 74.8329 163.812 70.8709 169.264C69.6629 170.925 68.7059 172.795 67.5329 174.499L67.1929 174.198C69.5989 168.653 73.3229 163.414 77.0199 158.657C79.3369 155.678 84.4989 149.048 88.3299 148.582L88.8209 149.695Z" fill="#683F33"/>
<path d="M88.3299 148.582L88.8209 149.695C84.7409 153.211 81.2019 157.372 77.0459 160.753C77.5079 157.086 85.4789 151.108 88.3299 148.582Z" fill="#B8814D"/>
<path d="M337.908 56.397C338.781 56.676 339.242 56.902 339.94 57.536C346.918 63.871 366.059 91.683 366.83 100.273L366.141 100.326C362.519 93.281 359.324 85.727 355.202 78.975C350.332 70.996 343.887 63.575 337.908 56.397Z" fill="#1D130C"/>
<path d="M391.607 47.8125C395.466 50.3456 399.401 58.0771 401.352 62.1701C406.484 72.9321 405.637 87.8351 401.755 98.8751C401.466 94.1101 403.203 89.4581 403.648 84.7501C405.08 69.6031 399.153 60.2261 391.607 47.8125Z" fill="#3E291F"/>
<path d="M321.658 41.0808C324.342 42.4993 337.776 52.7691 338.707 55.3851C335.502 55.1591 326.055 44.156 321.822 42.2133L321.658 41.0808Z" fill="#1D130C"/>
<path d="M321.022 42.8211C315.16 39.7285 309.851 35.7347 303.591 33.3798L302.895 33.1218C307.438 33.2377 313.389 37.283 317.42 39.3427L318.113 38.9378L321.658 41.0808L321.822 42.2133L321.447 42.6343L321.549 43.511C321.363 43.2887 321.114 43.0954 321.022 42.8211Z" fill="#683F33"/>
<path d="M317.42 39.3427L318.113 38.9378L321.658 41.0808L321.822 42.2133L321.447 42.6343L321.549 43.511C321.363 43.2887 321.114 43.0954 321.022 42.8211C319.96 41.5697 318.622 40.4637 317.42 39.3427Z" fill="#B8814D"/>
<path d="M161.136 55.3491C159.421 55.2261 157.709 54.912 156.008 54.66L156.636 54.034L155.233 54.246L155.241 54.208C157.526 53.704 159.898 54.271 162.187 54.6021L161.136 55.3491Z" fill="#683F33"/>
<path d="M427.951 77.5891C447.378 80.5181 463.056 87.8401 474.987 103.966C503.668 142.733 505.56 217.875 498.38 264.283C495.123 285.336 488.833 305.14 480.074 324.535C475.926 333.722 471.249 342.666 467.091 351.857C466.648 325.814 465.995 299.907 462.674 274.037C460.498 257.081 456.382 240.565 454.495 223.557C452.908 209.255 454.684 194.729 452.715 180.592L452.1 179.496L451.351 179.532C449.393 174.459 449.018 168.236 447.24 162.92C439.832 140.779 428.139 121.855 406.658 111.223L407.01 109.529C417.177 99.6371 424.757 91.7861 427.951 77.5891Z" fill="#B2825E"/>
<path d="M407.01 109.529C429.023 120.481 440.966 139.839 448.619 162.512C450.34 167.612 451.602 172.828 452.658 178.101C456.099 182.069 459.023 186.382 462.388 190.387C465.624 194.239 469.294 197.716 472.395 201.687C480.5 212.068 488.212 227.762 487.342 241.199C487.24 242.595 487.103 243.989 486.931 245.379C486.735 241.155 486.641 236.869 485.843 232.707C483.776 221.924 477.578 209.578 470.664 201.063C467.632 197.33 464.016 194.123 460.904 190.467C458.434 187.567 456.611 183.814 454.099 181.102C453.723 180.697 453.583 180.635 453.173 180.371L452.715 180.592L452.1 179.496L451.351 179.532C449.393 174.459 449.018 168.236 447.24 162.92C439.832 140.779 428.139 121.855 406.658 111.223L407.01 109.529Z" fill="#1D130C"/>
<path d="M475.137 286.545C474.303 271.915 471.624 258.329 466.455 244.623C463.173 235.923 455.813 222.415 455.205 213.407C465.243 239.933 473.846 253.762 476.111 283.22L475.816 286.548L475.408 286.749L475.137 286.545Z" fill="#1D130C"/>
<path d="M416.13 111.408C426.065 113.344 437.485 117.663 445.978 123.089C460.068 132.092 472.229 144.375 475.912 161.097C468.563 142.154 455.901 128.034 436.962 119.811C430.064 116.815 422.875 114.842 416.13 111.408Z" fill="#1D130C"/>
<path d="M443.278 144.384C448.995 148.63 470.216 179.127 472.61 186.124C469.286 183.374 462.697 171.17 459.676 166.931C454.265 159.335 448.174 152.354 443.278 144.384Z" fill="#1D130C"/>
<path d="M456.701 104.328C454.199 103.093 451.815 101.744 449.417 100.323L449.71 99.9461L450.931 99.9491C450.261 98.8541 449.607 98.6471 448.4 98.3281C442.117 96.6681 435.045 97.7141 428.611 96.6661C432.678 94.9211 446.431 96.4391 450.766 98.1471C453.813 99.3481 456.812 101.485 458.82 104.089L456.701 104.328Z" fill="#845641"/>
<path d="M456.701 104.328L458.82 104.089C459.218 104.747 458.995 104.448 459.603 105.102C464.474 110.342 471.374 119.533 472.444 126.791C467.185 119.177 465.107 110.42 457.172 104.663L456.701 104.328Z" fill="#3E291F"/>
<path d="M476.111 283.22C477.156 288.887 476.795 295.73 475.57 301.333L475.254 301.536C474.99 298.112 474.844 289.904 475.137 286.545L475.408 286.749L475.816 286.548L476.111 283.22Z" fill="#683F33"/>
<defs>
<linearGradient id="paint0_linear_144_236" x1="224.087" y1="654.229" x2="265.714" y2="53.1956" gradientUnits="userSpaceOnUse">
<stop stop-color="#8F6243"/>
<stop offset="1" stop-color="#AD7C58"/>
</linearGradient>
<linearGradient id="paint1_linear_144_236" x1="340.289" y1="749.179" x2="101.053" y2="275.122" gradientUnits="userSpaceOnUse">
<stop stop-color="#C7937E"/>
<stop offset="1" stop-color="#F2BFA1"/>
</linearGradient>
</defs>
</svg>
