<svg width="528" height="900" viewBox="0 0 528 900" fill="none" xmlns="http://www.w3.org/2000/svg">
<path d="M113.149 46.4711C112.385 45.6201 111.638 44.8591 111.197 43.7836C110.837 42.9051 111.086 41.6981 111.509 40.863C113.922 36.1032 136.74 22.3874 142.446 19.4308C146.235 17.471 150.17 15.8081 154.216 14.4569C173.088 8.04922 193.369 5.76292 213.093 3.70952C226.591 2.30412 240.423 0.260923 253.985 0.0299232C293.218 -0.638377 332.161 9.93402 367.176 27.0879C388.179 37.3771 410.039 51.7991 417.966 74.9711L417.941 75.0031C423.551 75.6821 429.09 76.2001 434.479 78.0021C452.486 84.0231 466.696 101.96 474.92 118.33C483.838 136.083 488.568 156.045 491.49 175.578C499.778 230.981 493.772 257.745 476.385 310.183C476.924 309.762 477.466 309.347 478.013 308.937C481.915 306.016 485.822 304.742 490.719 305.535C495.73 306.347 499.239 309.012 502.056 313.174C504.978 317.489 506.705 322.577 507.671 327.667C510.502 342.594 509.488 374.989 506.6 389.758C503.687 404.653 495.934 418.299 489.494 431.836C484.524 442.283 480.063 453.086 473.398 462.61C470.642 466.547 467.74 469.839 463.711 472.496C456.55 477.219 449.552 478.48 441.146 476.765C439.11 494.745 437.307 513.741 431.918 531.078C429.199 539.825 423.187 548.458 421.608 557.198C420.14 565.322 420.491 574.41 419.94 582.712C418.395 604.073 417.493 625.476 417.236 646.891C417.182 656.795 417.645 666.759 417.82 676.668C439.061 697.458 463.031 714.409 488.783 729.127C496.234 733.386 503.743 737.827 511.392 741.719C515.705 743.914 520.278 745.67 524.493 748.049C525.546 748.643 526.29 749.075 527.019 750.066L526.697 751.527C526.507 751.807 526.312 752.083 526.127 752.366C524.524 754.809 523.65 757.854 522.406 760.502C519.994 765.575 517.101 770.406 513.767 774.926C503.445 789.207 491.965 801.39 479.281 813.553C472.298 820.249 465.345 827.13 457.8 833.196C422.319 861.72 378.386 880.963 334.234 891.213C257.112 909.115 169.652 896.128 102.319 853.96C85.088 843.169 70.438 830.267 55.372 816.734C35.722 799.084 11.25 777.363 0.0469971 753.166L0 752.898C1.929 749.719 26.151 737.266 31.158 734.378C59.477 718.046 85.672 700.225 109.652 677.858C111.107 645.799 109.348 614.106 107.434 582.125C106.941 573.882 107.472 563.641 105.781 555.661C104.258 548.478 97.59 538.331 95.132 530.031C90.197 513.372 88.947 494.055 86.524 476.798C85.317 477.044 84.102 477.248 82.881 477.408C74.764 478.517 67.236 475.814 60.891 470.838C57.219 467.958 54.322 464.415 51.785 460.518C45.774 451.282 41.608 440.925 36.836 431.024C32.649 422.337 27.92 414.095 24.64 404.989C21.81 397.133 19.754 389.38 18.763 381.061C17.816 373.108 17.703 365.125 17.542 357.128C17.246 342.42 15.88 323.026 25.886 310.912C28.546 307.692 31.703 306.107 35.848 305.796C41.675 305.359 46.426 307.229 50.709 311.046C47.254 300.75 44.473 290.1 41.605 279.622C38.25 267.362 34.533 254.655 32.982 242.013C29.072 210.152 34.29 173.595 42.535 142.734C54.178 99.1541 73.537 69.3631 113.149 46.4711Z" fill="#040101"/>
<path d="M109.411 559.77C124.782 585.033 144.137 607.126 165.822 627.106C174.455 635.06 183.429 642.927 193.54 648.972C202.695 654.393 212.613 658.407 222.962 660.88C258.776 669.658 304.38 667.532 336.269 647.954C346.636 641.589 355.852 633.254 364.7 624.967C385.242 605.727 404.233 584.689 418.341 560.146C415.682 605.619 412.268 650.6 417.006 696.078C418.279 708.302 419.538 720.321 423.782 731.956L424.364 730.118C419.45 719.736 419.726 693.863 418.207 681.343C443.779 705.341 472.32 724.003 503.073 740.698C510.195 744.564 518.723 749.946 526.697 751.527C526.507 751.807 526.312 752.083 526.127 752.366C524.524 754.809 523.65 757.854 522.406 760.502C519.994 765.575 517.101 770.406 513.767 774.926C503.445 789.207 491.965 801.39 479.281 813.553C472.298 820.249 465.345 827.13 457.8 833.196C422.319 861.72 378.386 880.963 334.234 891.213C257.112 909.115 169.652 896.128 102.319 853.96C85.088 843.169 70.438 830.267 55.372 816.734C35.722 799.084 11.25 777.363 0.0469971 753.166C11.606 752.769 71.3369 713.235 82.4669 704.833C88.2689 700.453 93.9279 695.768 99.4049 690.993C102.729 688.093 105.904 684.858 109.458 682.247L109.814 681.991C109.47 692.249 108.792 702.745 107.594 712.938L108.672 712.561C110.057 701.863 111.714 691.034 112.431 680.271C114.37 651.147 112.732 621.779 111.069 592.683C110.442 581.721 110.095 570.716 109.411 559.77Z" fill="#F5C1A7"/>
<path d="M108.672 712.561C107.97 717.564 107.124 722.453 106.052 727.393L105.37 726.787C106.564 722.328 106.847 717.502 107.594 712.938L108.672 712.561Z" fill="#452B22"/>
<path d="M424.364 730.118C425.153 732.459 427.169 736.766 427.013 739.111C425.731 736.752 424.574 734.541 423.782 731.956L424.364 730.118Z" fill="#9C6951"/>
<path d="M106.052 727.393C105.784 729.943 104.997 732.477 104.377 734.963L103.594 735.131L103.724 736.318L103.68 736.305L103.606 735.848L104.186 735.666L103.633 735.188C103.966 732.404 104.773 729.536 105.37 726.787L106.052 727.393Z" fill="#BB7F5E"/>
<path d="M83.0698 817C99.6458 819.709 116.121 823.039 132.688 825.829L163.72 831.004C179.403 833.548 194.464 835.702 209.072 842.474C220.114 847.595 224.378 852.79 233.471 859.922L232.659 860.163C227.227 856.535 222.978 851.143 217.213 848.058C198.289 837.928 178.707 835.441 157.952 831.895C141.251 829.211 124.59 826.287 107.974 823.123C99.8458 821.54 90.8918 820.461 83.1368 817.613L83.0698 817Z" fill="#040101"/>
<path d="M444.439 815.656L445.102 816.4C437.51 819.07 429.336 820.358 421.466 821.937C403.306 825.579 384.985 828.459 366.753 831.729C353.909 834.033 340.861 836.005 328.55 840.481C322.588 842.649 316.057 845.832 310.781 849.363C306.685 852.105 302.538 855.627 298.095 857.724C307.444 848.434 320.768 841.457 333.148 837.241C346.032 832.855 359.93 831.101 373.303 828.8C397.005 824.721 421.026 821.203 444.439 815.656Z" fill="#040101"/>
<path d="M247.532 732.368C247.716 732.332 247.9 732.3 248.083 732.26C250.681 731.687 282.86 728.345 284.276 728.983C285.284 729.437 285.328 729.728 285.659 730.693C285.357 731.451 285.06 731.776 284.401 732.294C282.823 733.533 279.491 734.771 277.532 734.624C271.28 736.757 264.606 737.351 258.076 736.354C254.253 735.569 250.901 734.336 247.532 732.368Z" fill="#E9AA8E"/>
<path d="M258.076 736.354C263.387 735.569 272.299 734.691 277.532 734.624C271.28 736.757 264.606 737.351 258.076 736.354Z" fill="#895D49"/>
<path d="M339.961 685.157C340.192 688.312 337.967 693.629 337.023 696.811C328.081 726.082 317.344 754.775 304.872 782.725C301.361 790.753 298.168 799.796 293.41 807.141C293.031 803.701 303.98 781.329 305.968 776.829C314.057 758.524 322.201 737.32 328.746 718.363C332.552 707.341 335.609 695.974 339.961 685.157Z" fill="#040101"/>
<path d="M185.956 682.328C192.604 701.674 199.411 720.789 206.771 739.877C209.764 747.638 213.092 757.548 216.961 764.694L216.246 765.047C208.944 747.922 201.512 730.988 195.203 713.443C191.714 703.741 189.158 693.703 185.696 683.991L185.956 682.328Z" fill="#040101"/>
<path d="M216.961 764.694C220.972 773.129 227.534 787.482 229.91 796.342L229.623 796.798C225.889 788.448 218.594 773.296 216.246 765.047L216.961 764.694Z" fill="#BB7F5E"/>
<path d="M175.403 776.64L175.749 776.577C178.052 779.727 179.876 786.909 181.393 790.816C183.732 796.826 186.207 802.782 188.816 808.68C187.619 807.929 186.717 806.872 186.059 805.626C182.819 799.484 177.641 783.787 175.403 776.64Z" fill="#BB7F5E"/>
<path d="M444.439 815.656C452.521 813.433 466.335 808.235 473.698 807.241C471.538 809.264 449.502 815.351 445.102 816.4L444.439 815.656Z" fill="#BB7F5E"/>
<path d="M83.1368 817.613C76.4138 816.183 69.1227 813.469 62.9917 810.349L63.4997 810.124C69.9917 812.559 76.7498 814.066 83.0698 817L83.1368 817.613Z" fill="#E9AA8E"/>
<path d="M233.471 859.922C237.533 862.199 241.396 864.884 245.585 866.925L246.07 867.156C241.232 866.126 236.542 863.131 232.659 860.163L233.471 859.922Z" fill="#BB7F5E"/>
<path d="M185.696 683.991C184.528 680.284 183.294 676.174 182.959 672.303C184.538 675.291 185.501 678.988 185.956 682.328L185.696 683.991Z" fill="#9C6951"/>
<path d="M113.609 42.7185C117.178 39.3158 121.432 36.543 125.481 33.7493C136.298 26.2877 146.228 20.0488 158.938 16.268C177.584 10.7217 196.847 8.43993 216.128 6.42343C228.297 5.15083 240.799 3.31913 253.025 3.09383C295.508 2.31093 338.064 14.399 375.137 34.7746C387.884 41.7803 409.493 57.0591 413.349 71.6791C414.872 77.4501 410.201 83.3291 407.364 87.9911L408.708 88.6551C411.375 85.1911 413.675 81.6061 415.873 77.8291C438.5 80.8531 448.137 85.5771 462.34 104.199C466.326 109.425 469.921 114.844 472.795 120.765C488.536 153.191 495.829 208.026 490.918 243.587C486.748 273.783 473.27 316.701 458.855 343.448C457.191 332.253 456.787 320.718 456.04 309.426C454.648 288.392 453.422 267.173 450.526 246.282L449.992 246.559C449.819 248.734 449.706 250.914 449.654 253.096C450.126 267.391 453.531 341.03 457.894 350.048L458.575 350.546C458.945 349.619 458.916 349.049 458.921 348.065C461.534 344.261 463.862 340.375 465.878 336.218C470.132 327.446 475.463 310.326 486.731 308.554C490.128 308.019 493.555 308.878 496.221 311.059C503.88 317.322 505.19 329.524 505.856 338.661C506.468 347.053 506.153 355.392 505.896 363.788C504.871 397.297 498.995 404.442 485.506 433.148C480.481 443.842 475.976 455.474 468.173 464.529C463.404 470.064 456.753 474.061 449.372 474.684C446.72 474.907 444.209 474.505 441.624 473.958C444.871 451.149 447.414 428.245 449.25 405.279C449.836 397.473 450.906 389.253 450.691 381.44L450.485 382.151C446.931 394.585 446.881 412.253 445.305 425.671C444.205 435.042 442.551 444.357 441.229 453.701C439.966 462.63 439.015 471.616 437.821 480.559C435.99 494.274 434.631 508.429 431.359 521.889C424.918 548.379 408.197 572.038 391.429 593.042C378.296 609.494 349.672 637.067 331.507 647.337C300.213 665.03 254.089 666.568 219.983 657.028C210.727 654.439 201.567 650.593 193.406 645.493C184.531 639.946 176.522 632.739 168.823 625.696C163.171 620.527 157.375 615.432 152.022 609.952C136.19 593.746 118.992 571.508 107.974 551.756C103.632 543.972 99.865 535.621 97.456 527.024C94.015 514.741 92.862 501.503 91.196 488.868L83.045 428.603C81.572 417.347 80.802 405.767 78.517 394.646C78.131 395.594 77.742 396.497 77.487 397.49C80.514 422.906 82.632 448.458 86.369 473.794C83.166 474.512 79.931 474.956 76.649 474.585C68.57 473.671 61.576 468.686 56.731 462.372C50.019 453.624 45.776 443.171 41.044 433.283C26.313 402.5 21.299 394.572 20.563 359.14C20.367 349.697 19.994 340.182 21.252 330.792C22.143 324.138 24.728 314.797 30.448 310.717C33.592 308.475 37.737 308.432 41.387 309.23C53.574 311.894 53.993 323.737 58.615 332.74C61.879 339.098 65.929 345.026 69.832 351.003C71.181 343.687 70.717 335.965 70.743 328.545C70.733 319.046 70.938 309.548 71.357 300.059C72.352 279.978 75.619 260.179 76.311 240.085L74.677 240.626C74.649 253.779 70.672 270.569 69.349 284.321C67.506 303.466 67.736 323.241 67.701 342.473C65.842 339.49 63.95 336.5 62.32 333.385C55.446 320.25 51.73 304.975 47.708 290.757C43.463 275.753 38.601 259.925 36.263 244.497C31.298 211.745 37.959 167.118 47.687 135.672C60.579 93.9931 80.347 67.4221 119.422 46.8291C117.2 45.6471 115.491 44.3591 113.609 42.7185Z" fill="#F5C1A7"/>
<path d="M113.609 42.7185C117.178 39.3158 121.432 36.543 125.481 33.7493C136.298 26.2877 146.228 20.0488 158.938 16.268C177.584 10.7217 196.847 8.43993 216.128 6.42343C228.297 5.15083 240.799 3.31913 253.025 3.09383C295.508 2.31093 338.064 14.399 375.137 34.7746C387.884 41.7803 409.493 57.0591 413.349 71.6791C414.872 77.4501 410.201 83.3291 407.364 87.9911L408.708 88.6551C411.375 85.1911 413.675 81.6061 415.873 77.8291C438.5 80.8531 448.137 85.5771 462.34 104.199C466.326 109.425 469.921 114.844 472.795 120.765C488.536 153.191 495.829 208.026 490.918 243.587C486.748 273.783 473.27 316.701 458.855 343.448C457.191 332.253 456.787 320.718 456.04 309.426C454.648 288.392 453.422 267.173 450.526 246.282L449.992 246.559C449.819 248.734 449.706 250.914 449.654 253.096C449.163 250.264 449.247 247.104 449.123 244.225C447.598 236.805 448.873 225.253 448.806 217.279L448.54 212.361C447.706 209.127 447.168 193.793 446.877 189.492L446.081 183.857C443.278 173.796 439.886 163.691 435.822 154.065C431.089 142.857 419.814 121.156 410.69 113.011C405.73 108.582 398.711 104.954 392.558 102.507C383.707 98.9861 372.314 96.4931 362.782 96.0361C352.823 95.5601 342.91 96.9691 333.039 98.0891C313.612 100.293 294.409 102.998 274.799 101.773C261.214 100.924 247.735 98.8651 234.355 96.4321C217.239 93.3201 200.618 89.7861 183.114 89.9011C167.047 90.0071 150.781 91.8101 135.922 98.2511C115.142 107.26 109.019 112.154 99.099 132.599C94.4409 142.197 90.3409 151.962 86.3949 161.87L85.4379 164.489C84.5389 166.878 82.2169 176.277 81.3179 177.364C79.5799 185.776 77.17 194.55 77.123 203.154C77.368 205.316 77.0799 207.11 76.702 209.23C76.8029 219.25 77.688 230.193 76.311 240.085L74.677 240.626C74.649 253.779 70.672 270.569 69.349 284.321C67.506 303.466 67.736 323.241 67.701 342.473C65.842 339.49 63.95 336.5 62.32 333.385C55.446 320.25 51.73 304.975 47.708 290.757C43.463 275.753 38.601 259.925 36.263 244.497C31.298 211.745 37.959 167.118 47.687 135.672C60.579 93.9931 80.347 67.4221 119.422 46.8291C117.2 45.6471 115.491 44.3591 113.609 42.7185Z" fill="#BB7F5E"/>
<path d="M197.218 87.0221C210.001 87.1671 222.763 91.2661 235.365 93.3221C237.761 93.7901 240.169 94.0751 242.592 94.3661C251.284 95.8541 260.069 97.5261 268.873 98.2011C269.483 98.3231 269.946 98.4421 270.57 98.3771L272.968 97.6891L273.514 96.4931C273.192 94.9821 272.985 93.5551 272.914 92.0091L272.896 91.5481C274.125 92.7101 275.432 94.0841 276.885 94.9571C282.925 98.5871 295.741 97.3491 302.866 98.0301C308.492 97.8761 314.158 97.0311 319.742 96.3571L322.393 96.0771C328.541 95.5691 334.92 95.2711 340.975 94.0791C363.95 91.5101 391.45 94.0161 410.307 108.874C427.617 122.513 440.239 158.938 448.472 179.402C448.693 181.412 448.953 183.37 449.38 185.347L448.806 185.764C447.905 185.156 447.023 184.374 446.081 183.857C443.278 173.796 439.886 163.691 435.822 154.065C431.089 142.857 419.814 121.156 410.69 113.011C405.73 108.582 398.711 104.954 392.558 102.507C383.707 98.9861 372.314 96.4931 362.782 96.0361C352.823 95.5601 342.91 96.9691 333.039 98.0891C313.612 100.293 294.409 102.998 274.799 101.773C261.214 100.924 247.735 98.8651 234.355 96.4321C217.239 93.3201 200.618 89.7861 183.114 89.9011C167.047 90.0071 150.781 91.8101 135.922 98.2511C115.142 107.26 109.019 112.154 99.099 132.599C94.4409 142.197 90.3409 151.962 86.3949 161.87C85.6879 160 85.7756 157.766 85.6406 155.771C89.9516 147.223 93.4266 137.907 97.4796 129.181C98.0926 128.393 98.3717 127.421 98.7346 126.495C101.995 119.112 106.715 113.151 112.686 107.832C114.987 106.11 117.418 104.555 119.806 102.958C142.635 90.9801 155.252 87.0431 181.527 86.9641C186.699 87.1811 192.049 87.2751 197.218 87.0221Z" fill="#040101"/>
<path d="M272.896 91.5481C274.125 92.7101 275.432 94.0841 276.885 94.9571C282.925 98.5871 295.741 97.3491 302.866 98.0301C293.253 99.8841 280.347 99.2171 270.57 98.3771L272.968 97.6891L273.514 96.4931C273.192 94.9821 272.985 93.5551 272.914 92.0091L272.896 91.5481Z" fill="#7F4A39"/>
<path d="M242.65 29.4252C266.626 36.6785 285.877 53.6571 303.277 70.9811C308.213 75.8961 313.335 80.7061 317.809 86.0531C319.992 89.0861 322.214 92.2001 322.393 96.0771L319.742 96.3571L320.031 95.9361L319.689 95.1981C317.999 94.7021 316.708 94.3881 315.449 93.0731C310.882 88.2961 307.414 81.9891 303.418 76.6811C298.764 70.4991 292.849 64.7121 287.175 59.4421C273.858 47.0711 258.387 38.2742 242.65 29.4252Z" fill="url(#paint0_linear_144_220)"/>
<path d="M233.037 59.8942C235.766 61.9572 238.601 63.9572 241.201 66.1782C251.662 72.7122 262.332 81.1852 271.085 89.8802L272.896 91.5481L272.914 92.0091C272.985 93.5551 273.192 94.9821 273.514 96.4931L272.968 97.6891L270.57 98.3771C269.946 98.4421 269.483 98.3231 268.873 98.2011L269.625 97.8902L269.702 97.3542C262.537 89.6732 254.251 82.6862 246.117 76.0372C241.325 72.1202 235.514 68.2082 231.518 63.4942C231.558 62.3172 231.445 61.8762 230.802 60.8882L233.037 59.8942Z" fill="#56382C"/>
<path d="M241.201 66.1782C251.662 72.7122 262.332 81.1852 271.085 89.8802C270.069 89.9582 269.183 90.0091 268.203 89.6731C264.297 88.3331 242.857 69.4432 241.201 66.1782Z" fill="#7F4A39"/>
<path d="M49.5288 179.597C55.7428 170.529 62.4328 161.981 69.2448 153.373C73.9938 147.37 78.6728 141.104 84.1778 135.769C86.5658 133.456 92.9258 127.361 96.1688 126.442C96.7688 126.272 98.0636 126.481 98.7346 126.495C98.3717 127.421 98.0926 128.393 97.4796 129.181L96.8558 128.862C88.8878 135.878 79.6608 147.137 72.1738 155.307C65.2778 162.832 55.2168 171.376 50.2758 180.127L49.5288 179.597Z" fill="#56382C"/>
<path d="M164.166 72.8112C165.694 73.3322 166.649 73.8152 167.937 74.7872C169.784 76.0492 171.593 77.3232 173.361 78.6962C171.746 78.4801 170.128 78.1172 168.525 77.8202C159.209 78.4892 150.057 78.8262 140.775 80.0242L140.631 79.4082C135.867 78.5062 131.204 81.4242 126.598 80.1342C135.098 76.3922 144.086 74.5902 153.322 73.8182C156.71 73.5352 161.026 73.9442 164.166 72.8112Z" fill="#56382C"/>
<path d="M167.937 74.7872C169.784 76.0492 171.593 77.3232 173.361 78.6962C171.746 78.4801 170.128 78.1172 168.525 77.8202C164.882 76.5212 160.921 76.5662 157.174 75.5822C160.877 75.2722 164.188 74.6932 167.937 74.7872Z" fill="#452B22"/>
<path d="M210.957 71.1222C216.875 74.5752 241.418 87.4852 242.907 92.5612C243.071 93.1172 242.735 93.8251 242.592 94.3661C240.169 94.0751 237.761 93.7901 235.365 93.3221L236.079 92.9722C235.58 90.9892 212.479 75.2922 208.86 73.0012L210.957 71.1222Z" fill="url(#paint1_linear_144_220)"/>
<path d="M108.237 105.129C108.927 106.205 109.132 106.765 109.186 108.043C102.751 111.523 95.8899 114.2 89.5689 117.857C79.3369 123.775 70.5579 131.871 61.8089 139.736L61.0239 139.332C76.5209 122.946 88.7009 115.332 108.237 105.129Z" fill="url(#paint2_linear_144_220)"/>
<path d="M62.5679 248.139C63.3559 243.517 70.1039 223.432 73.4289 221.129C76.9969 218.657 75.5679 213.389 76.5469 209.697C76.5889 209.538 76.6499 209.386 76.702 209.23C76.8029 219.25 77.688 230.193 76.311 240.085L74.677 240.626C75.246 236.218 77.0109 226.389 74.9879 222.527C73.8609 224.198 74.5019 227.264 73.9889 229.277C73.9379 229.475 73.8639 229.666 73.8019 229.86C69.0979 235.378 66.8709 242.471 62.5679 248.139Z" fill="#7F4A39"/>
<path d="M448.472 179.402C454.644 190.826 461.676 204.526 465.679 216.838L464.024 217.707C460.501 210.17 456.495 202.897 452.644 195.528C451.124 192.621 449.915 189.42 448.105 186.696L447.543 187.225C447.592 187.98 447.564 188.247 447.197 188.945C447.099 189.132 446.984 189.31 446.877 189.492L446.081 183.857C447.023 184.374 447.905 185.156 448.806 185.764L449.38 185.347C448.953 183.37 448.693 181.412 448.472 179.402Z" fill="url(#paint3_linear_144_220)"/>
<path d="M153.978 67.1721C161.664 69.2481 168.928 72.9371 176.618 74.6961C179.199 79.0171 189.131 81.6731 189.886 85.9051C189.017 86.0701 188.151 86.1931 187.275 86.3171C182.628 84.4441 177.843 81.0582 173.361 78.6962C171.593 77.3232 169.784 76.0492 167.937 74.7872C166.649 73.8152 165.694 73.3322 164.166 72.8112C160.676 71.0622 157.322 69.1861 153.978 67.1721Z" fill="#2E1813"/>
<path d="M77.4149 168.119C76.9209 169.376 76.4769 170.531 76.2559 171.874C77.4269 171.942 78.1769 171.474 79.2479 171.081C79.3439 171.046 79.4469 171.031 79.5459 171.006C75.5299 178.279 68.2009 184.287 63.0059 190.845C57.9849 197.183 54.0429 204.286 49.5109 210.984L49.0869 210.758C55.9659 195.473 67.0349 181.197 77.4149 168.119Z" fill="#040101"/>
<path d="M52.4888 231.342C56.9458 222.141 61.4828 212.491 66.9658 203.864C69.7658 199.459 73.5788 195.522 76.0258 190.922C78.2928 186.66 78.6169 181.361 81.3179 177.364C79.5799 185.776 77.17 194.55 77.123 203.154L76.5228 203.262C76.3048 199.911 76.5858 196.5 76.7408 193.147C68.1608 205.681 60.4198 218.206 53.2888 231.63L52.4888 231.342Z" fill="#040101"/>
<path d="M161.729 47.4982C174.188 50.6882 198.955 64.2712 210.957 71.1222L208.86 73.0012C193.895 63.1982 177.178 56.4012 161.729 47.4982Z" fill="#040101"/>
<path d="M183.782 33.5852C197.403 37.1013 209.511 46.7631 221.263 54.1941C224.288 56.6381 227.475 58.8752 230.802 60.8882C231.445 61.8762 231.558 62.3172 231.518 63.4942C221.512 56.4452 211.275 49.7281 200.824 43.3566C195.195 40.0012 189.297 37.1332 183.782 33.5852Z" fill="#2E1813"/>
<path d="M448.54 212.361L448.966 211.334C450.381 214.472 450.707 218.091 451.803 221.366C456.206 234.529 462.912 247.884 464.72 261.779L464.343 262.04C460.895 253.145 458.18 243.853 454.991 234.843C453.019 229.273 449.665 223.013 448.806 217.279L448.54 212.361Z" fill="#56382C"/>
<path d="M128.9 83.1381C120.794 85.3421 112.289 87.3731 104.551 90.6751C100.001 92.6171 95.7788 95.6161 91.0728 97.1221C98.0658 88.6161 108.604 86.4131 118.549 83.2321C120.675 84.4541 126.042 83.0191 128.9 83.1381Z" fill="#7F4A39"/>
<path d="M176.618 74.6961C183.73 75.8871 187.487 79.5082 192.854 83.9012C194.221 85.0202 195.589 86.3391 197.218 87.0221C192.049 87.2751 186.699 87.1811 181.527 86.9641L187.275 86.3171C188.151 86.1931 189.017 86.0701 189.886 85.9051C189.131 81.6731 179.199 79.0171 176.618 74.6961Z" fill="#452B22"/>
<path d="M77.4149 168.119C79.5069 163.992 83.1116 159.718 85.6406 155.771C85.7756 157.766 85.6879 160 86.3949 161.87L85.4379 164.489C85.0039 163.289 85.3558 162.395 84.6158 161.488C84.5378 161.67 84.4609 161.852 84.3799 162.033C82.9818 165.157 81.5069 168.194 79.5459 171.006C79.4469 171.031 79.3439 171.046 79.2479 171.081C78.1769 171.474 77.4269 171.942 76.2559 171.874C76.4769 170.531 76.9209 169.376 77.4149 168.119Z" fill="#2E1813"/>
<path d="M62.5679 248.139C66.8709 242.471 69.0979 235.378 73.8019 229.86C72.7089 233.333 70.6549 236.536 68.9529 239.745C65.6589 245.954 61.6109 253.546 59.9089 260.352L58.627 259.993C60.197 256.268 61.2479 251.999 62.5679 248.139Z" fill="#040101"/>
<path d="M126.598 80.1342C131.204 81.4242 135.867 78.5062 140.631 79.4082L140.775 80.0242C136.903 80.9912 132.603 81.6941 128.9 83.1381C126.042 83.0191 120.675 84.4541 118.549 83.2321C121.198 82.1131 123.882 81.0802 126.598 80.1342Z" fill="#452B22"/>
<path d="M317.809 86.0531L318.236 86.3101C320.074 87.4361 327.403 94.5961 327.596 94.6511C328.57 94.9301 330.95 94.2081 332.236 94.3001C335.33 94.5221 337.84 92.9561 340.975 94.0791C334.92 95.2711 328.541 95.5691 322.393 96.0771C322.214 92.2001 319.992 89.0861 317.809 86.0531Z" fill="#895D49"/>
<path d="M465.679 216.838C468.554 223.759 470.438 230.926 472.974 237.952L471.658 236.984C469.482 230.42 466.697 224.081 464.024 217.707L465.679 216.838Z" fill="#040101"/>
<path d="M221.263 54.1941C224.028 53.6001 226.746 55.6421 229.057 57.1301C230.407 58.0181 231.734 58.9392 233.037 59.8942L230.802 60.8882C227.475 58.8752 224.288 56.6381 221.263 54.1941Z" fill="#7F4A39"/>
<path d="M58.627 259.993L59.9089 260.352C58.1059 265.141 56.052 270.042 55.26 275.122C54.902 277.423 55.562 281.447 54.458 283.272C54.13 274.168 55.926 268.522 58.627 259.993Z" fill="#7F4A39"/>
<path d="M114.021 103.152C116.007 102.774 117.794 102.849 119.806 102.958C117.418 104.555 114.987 106.11 112.686 107.832L112.086 106.954C112.976 105.806 113.459 104.479 114.021 103.152Z" fill="#895D49"/>
<path d="M108.237 105.129C110.22 104.566 112.111 103.929 114.021 103.152C113.459 104.479 112.976 105.806 112.086 106.954C111.134 107.322 110.166 107.768 109.186 108.043C109.132 106.765 108.927 106.205 108.237 105.129Z" fill="#56382C"/>
<path d="M407.364 87.9911L408.708 88.6551C406.464 91.5581 403.497 95.2761 400.6 97.4791C402.394 94.0351 404.924 90.9941 407.364 87.9911Z" fill="#56382C"/>
<path d="M53.2888 231.63C51.7418 234.872 50.137 239.214 47.869 241.919L47.6479 241.41C49.145 238.043 50.4608 234.423 52.4888 231.342L53.2888 231.63Z" fill="#895D49"/>
<path d="M449.123 244.225C449.17 242.753 449.033 241.039 449.612 239.689C450.075 241.896 450.326 244.041 450.526 246.282L449.992 246.559C449.819 248.734 449.706 250.914 449.654 253.096C449.163 250.264 449.247 247.104 449.123 244.225Z" fill="#2E1813"/>
<path d="M471.658 236.984L472.974 237.952C473.637 239.988 474.79 242.562 474.727 244.701C473.204 242.422 472.518 239.572 471.658 236.984Z" fill="#7F4A39"/>
<path d="M61.0239 139.332L61.8089 139.736C60.2679 141.353 58.8429 143.042 56.8979 144.177C57.5729 142.321 59.6299 140.727 61.0239 139.332Z" fill="#452B22"/>
<path d="M49.5288 179.597L50.2758 180.127C49.5648 181.2 49.2606 182.115 48.0366 182.602C48.1416 181.225 48.7348 180.705 49.5288 179.597Z" fill="#9C6951"/>
<path d="M321.193 58.7792C328.993 65.2262 335.985 72.8212 341.235 81.4682C343.531 84.3212 346.027 86.7502 346.456 90.5232L345.912 91.5832C344.475 91.7852 343.403 91.3182 342.254 90.4232C340.263 88.8722 338.684 86.0722 337.382 83.9252C333.64 77.6902 328.086 72.2182 323.48 66.6032C322.869 63.3462 320.251 62.3982 318.78 59.6702L319.2 58.9092L321.193 58.7792Z" fill="#452B22"/>
<path d="M341.235 81.4682C343.531 84.3212 346.027 86.7502 346.456 90.5232L345.912 91.5832C344.475 91.7852 343.403 91.3182 342.254 90.4232C340.263 88.8722 338.684 86.0722 337.382 83.9252C338.979 84.4862 340.086 85.7161 341.306 86.8411C341.385 87.7311 341.282 87.7382 341.845 88.2841L342.062 87.7161L341.654 87.9661L341.988 88.2381C341.888 88.1051 341.772 87.9831 341.688 87.8391C340.674 86.1141 340.682 83.8102 341.12 81.9221C341.155 81.7701 341.196 81.6192 341.235 81.4682Z" fill="#7F4A39"/>
<path d="M352.846 54.5812C353.688 55.7442 354.543 56.8712 355.259 58.1182L357.299 57.8852C362.341 64.8712 365.823 73.4582 369.025 81.4282C370.241 83.2952 371.753 85.7742 372.181 87.9842C372.455 89.3992 372.204 89.9842 371.454 91.1562C369.614 91.7242 368.466 91.2392 366.601 90.8532C364.455 85.9192 363.157 80.4292 361.242 75.3622C358.859 69.0542 355.877 63.2562 353.201 57.1222C352.811 56.2292 352.809 55.5362 352.846 54.5812Z" fill="#895D49"/>
<path d="M357.299 57.8852C362.341 64.8712 365.823 73.4582 369.025 81.4282L368.665 85.1611L368.06 85.2491C365.622 81.6651 364.369 77.1481 362.664 73.1721C360.421 68.0461 357.951 63.0232 355.259 58.1182L357.299 57.8852Z" fill="#452B22"/>
<path d="M372.609 51.9031C377.455 59.8531 388.1 82.4341 385.538 91.4691C385.171 92.7601 384.46 93.7111 383.277 94.3611C382.229 93.9241 382.207 93.8871 381.76 92.8941C379.494 87.8671 380.168 78.1831 378.426 72.2511C376.424 65.4331 370.703 58.9971 370.081 52.0541C370.704 52.6461 370.98 52.8281 371.8 53.2061L372.609 51.9031Z" fill="url(#paint4_linear_144_220)"/>
<path d="M429.755 131.991C433.521 136.462 437.531 140.693 441.18 145.268C451.675 158.425 461.669 173.422 469.506 188.352L469.271 188.776L468.147 187.277C464.459 181.693 460.473 176.308 456.705 170.776C454.062 166.895 451.698 162.732 448.795 159.042C445.078 154.317 440.54 150.441 437.122 145.429L438.531 146.628C435.257 141.906 432.413 137.084 429.755 131.991Z" fill="#2E1813"/>
<path d="M415.052 96.7451C426.308 93.7561 434.175 96.3631 444.03 101.899C445.133 102.497 446.198 103.038 447.142 103.881C446.476 105.045 446.437 105.287 445.245 105.852C435.05 100.399 431.645 97.9141 419.658 99.6931C416.87 100.106 413.551 101.031 410.745 100.797C409.64 100.704 410.038 100.902 409.371 100.141C410.686 98.3711 412.987 97.3991 415.052 96.7451Z" fill="#9C6951"/>
<path d="M415.052 96.7451C426.308 93.7561 434.175 96.3631 444.03 101.899C442.236 102.615 438.663 100.072 436.98 99.2511C428.594 95.1611 423.811 97.9071 415.958 96.8791C415.655 96.8391 415.354 96.7901 415.052 96.7451Z" fill="#56382C"/>
<path d="M304.627 19.2406C327.814 24.3073 344.387 38.3061 357.299 57.8852L355.259 58.1182C354.543 56.8712 353.688 55.7442 352.846 54.5812C343.525 42.3589 333.289 32.0261 319.206 25.3616C314.437 23.1049 309.376 21.504 304.627 19.2406Z" fill="#2E1813"/>
<path d="M396.266 76.0171C395.941 70.6521 394.615 65.8281 392.471 60.8951C391.083 57.7021 382.657 44.6421 382.735 43.2323C383.662 43.1285 383.755 42.975 384.626 43.4693C389.48 46.2241 396.341 60.5231 397.599 65.8161L397.579 66.2501C397.507 68.0971 398.467 74.2321 397.265 75.4151C396.716 75.9561 396.967 75.7891 396.266 76.0171Z" fill="url(#paint5_linear_144_220)"/>
<path d="M449.106 139.015C450.812 140.042 452.502 141.169 454.25 142.117C459.964 145.616 464.234 153.737 468.163 159.093L467.668 160.004L466.547 160.32C466.099 161.354 466.374 160.926 465.794 161.645C461.874 158.04 451.047 143.692 449.106 139.015Z" fill="url(#paint6_linear_144_220)"/>
<path d="M293.957 43.2638C304.816 46.9901 312.452 51.3562 321.193 58.7792L319.2 58.9092L318.78 59.6702C320.251 62.3982 322.869 63.3462 323.48 66.6032C314.43 56.7522 305.333 50.1131 293.957 43.2638Z" fill="url(#paint7_linear_144_220)"/>
<path d="M422.344 111.075C433.585 118.812 445.992 131.187 454.25 142.117C452.502 141.169 450.812 140.042 449.106 139.015C446.912 137.031 444.968 134.342 442.919 132.148C436.362 125.126 429.737 118.275 421.717 112.903L422.344 111.075Z" fill="#452B22"/>
<path d="M397.599 65.8161C400.443 72.8411 400.337 79.8082 398.973 87.2062C397.232 88.7122 395.517 90.2151 393.652 91.5692C395.473 86.1392 396.239 81.7471 396.266 76.0171C396.967 75.7891 396.716 75.9561 397.265 75.4151C398.467 74.2321 397.507 68.0971 397.579 66.2501L397.599 65.8161Z" fill="#452B22"/>
<path d="M370.081 52.0541C367.792 46.4331 359.198 37.572 358.339 32.3313L359.097 32.2616C365.061 35.6825 369.732 45.9341 372.609 51.9031L371.8 53.2061C370.98 52.8281 370.704 52.6461 370.081 52.0541Z" fill="#040101"/>
<path d="M421.717 112.903C417.907 112.276 413.286 109.67 410.264 107.255C408.82 106.102 408.601 106.135 408.407 104.303C407.14 103.775 405.977 103.204 404.776 102.539L405.272 102.211C410.673 102.904 418.294 107.481 422.344 111.075L421.717 112.903Z" fill="url(#paint8_linear_144_220)"/>
<path d="M447.142 103.881C451.093 106.853 457.569 111.518 459.225 116.319L458.796 116.804C456.815 116.278 446.935 107.657 445.245 105.852C446.437 105.287 446.476 105.045 447.142 103.881Z" fill="url(#paint9_linear_144_220)"/>
<path d="M69.0326 269.424C68.9746 273.917 65.0876 283.227 63.7826 288.096C62.3516 293.435 61.3367 298.858 60.3527 304.293C59.7257 296.609 64.5946 275.696 69.0326 269.424Z" fill="#040101"/>
<path d="M457.936 287.282C460.832 292.183 464.071 310.851 464.815 317.223C462.58 315.199 458.749 291.812 457.936 287.282Z" fill="#7F4A39"/>
<path d="M76.946 386.898C77.501 389.456 78.188 392.05 78.517 394.646C78.131 395.594 77.742 396.497 77.487 397.49C77.078 394.569 76.846 391.603 76.541 388.667L76.946 386.898Z" fill="#040101"/>
<path d="M76.541 388.667C75.824 386.413 75.177 381.45 75.96 379.263C77.139 381.789 76.86 384.132 76.946 386.898L76.541 388.667Z" fill="#E9AA8E"/>
<path d="M133.555 318.933C134.989 314.595 136.818 310.859 139.513 307.154C146.385 297.706 157.464 291.327 168.973 289.589C178.708 288.12 188.468 291.422 196.248 297.231C202.26 301.719 215.343 314.843 216.439 322.402L215.551 322.934C213.336 324.76 210.351 326.694 208.493 328.828C206.15 333.492 193.963 339.709 189.057 341.349C179.386 344.583 165.441 344.564 156.288 339.716C152.346 337.628 148.686 333.907 146.674 329.908L146.446 329.772C141.105 326.247 140.107 319.778 138.536 314.03C136.985 315.94 135.472 317.401 133.555 318.933Z" fill="white"/>
<path d="M133.555 318.933C134.989 314.595 136.818 310.859 139.513 307.154C146.385 297.706 157.464 291.327 168.973 289.589C178.708 288.12 188.468 291.422 196.248 297.231C202.26 301.719 215.343 314.843 216.439 322.402L215.551 322.934C206.643 310.279 195.173 295.344 178.87 292.64C169.093 291.018 158.622 294.371 150.703 300.11C146.063 303.48 142.202 307.809 139.383 312.804C141.642 318.781 142.636 324.493 146.446 329.772C141.105 326.247 140.107 319.778 138.536 314.03C136.985 315.94 135.472 317.401 133.555 318.933Z" fill="#040101"/>
<path d="M208.493 328.828C206.15 333.492 193.963 339.709 189.057 341.349C179.386 344.583 165.441 344.564 156.288 339.716C152.346 337.628 148.686 333.907 146.674 329.908C153.073 334.878 152.594 337.323 161.683 339.624C166.182 340.763 170.906 341.065 175.531 341.128C190.401 341.332 196.483 336.104 208.493 328.828Z" fill="#040101"/>
<path d="M180.12 307.406L180.111 306.803C180.705 306.83 180.803 306.799 181.45 307.033C183.738 307.861 185.976 310.373 187.114 312.455C188.985 315.876 189.245 320.082 188.077 323.775C186.92 327.497 184.304 330.591 180.826 332.35C177.378 334.074 173.299 334.151 169.695 332.867C165.604 331.41 161.929 328.285 160.079 324.325C158.169 320.237 158.141 314.926 159.856 310.764C161.037 307.9 163.26 305.812 166.106 304.636C169.2 303.357 172.631 304.338 175.561 305.645L175.653 306.166L173.307 305.768C172.355 307.318 171.235 308.819 171.616 310.724L177.304 312.448L178.643 311.885C179.855 310.56 179.887 309.106 180.12 307.406Z" fill="#111111"/>
<path d="M177.304 312.448C177.728 312.496 177.997 312.502 178.417 312.68C179.662 313.207 180.5 314.239 180.957 315.484C181.579 317.177 181.569 318.941 180.772 320.579C179.881 322.412 177.673 324.371 175.727 324.988C174.084 325.509 172.486 325.329 170.971 324.522C168.956 323.448 167.575 321.49 167.035 319.291C166.535 317.258 166.831 315.29 167.929 313.504C168.878 311.962 169.834 311.155 171.616 310.724L177.304 312.448Z" fill="#040101"/>
<path d="M180.12 307.406L180.111 306.803C180.705 306.83 180.803 306.799 181.45 307.033C183.738 307.861 185.976 310.373 187.114 312.455C188.985 315.876 189.245 320.082 188.077 323.775C186.92 327.497 184.304 330.591 180.826 332.35C177.378 334.074 173.299 334.151 169.695 332.867C165.604 331.41 161.929 328.285 160.079 324.325C158.169 320.237 158.141 314.926 159.856 310.764C161.037 307.9 163.26 305.812 166.106 304.636C169.2 303.357 172.631 304.338 175.561 305.645L175.653 306.166L173.307 305.768C170.444 305.356 167.6 305.566 165.159 307.278C162.569 309.094 161.225 312.122 160.736 315.166C160.111 319.06 160.886 323.053 163.28 326.231C165.717 329.466 169.265 331.443 173.279 331.91C176.696 332.308 180.106 331.358 182.72 329.088C185.271 326.873 186.881 323.329 186.994 319.965C187.108 316.293 185.729 312.732 183.172 310.095C182.224 309.12 181.188 308.246 180.12 307.406Z" fill="#040101"/>
<path d="M313.336 322.439L312.495 322.815C311.952 319.878 315.653 314.964 317.294 312.558C324.643 301.788 335.537 291.934 348.746 289.557C359.021 287.708 369.993 291.201 378.395 297.102C383.767 300.874 392.096 308.89 393.276 315.684C393.362 316.177 393.297 316.333 393.208 316.765C392.149 316.765 392.102 316.608 391.371 315.891C390.425 314.964 389.679 313.786 388.917 312.707C388.718 316.858 388.449 323.783 385.893 327.205L385.578 326.919L385.956 323.862C383.569 325.6 378.303 333.187 375.372 336.209C375.282 336.302 375.214 336.415 375.135 336.517C373.662 338.791 369.76 340.268 367.296 341.092C356.802 344.604 343.81 343.865 333.946 338.873C330.857 337.309 322.519 333.01 321.438 329.683C318.559 327.523 315.428 325.403 313.336 322.439Z" fill="white"/>
<path d="M313.336 322.439L312.495 322.815C311.952 319.878 315.653 314.964 317.294 312.558C324.643 301.788 335.537 291.934 348.746 289.557C359.021 287.708 369.993 291.201 378.395 297.102C383.767 300.874 392.096 308.89 393.276 315.684C393.362 316.177 393.297 316.333 393.208 316.765C392.149 316.765 392.102 316.608 391.371 315.891C390.425 314.964 389.679 313.786 388.917 312.707C388.718 316.858 388.449 323.783 385.893 327.205L385.578 326.919L385.956 323.862C386.96 319.949 387.374 315.809 387.959 311.811C384.728 306.064 380.273 301.629 374.676 298.157C366.651 293.178 356.657 290.625 347.336 292.858C332.778 296.347 320.884 310.304 313.336 322.439Z" fill="#040101"/>
<path d="M321.438 329.683C332.345 336.35 339.392 341.299 352.635 341.268C356.943 341.259 361.24 340.998 365.437 339.97C368.798 339.148 371.968 337.891 375.135 336.517C373.662 338.791 369.76 340.268 367.296 341.092C356.802 344.604 343.81 343.865 333.946 338.873C330.857 337.309 322.519 333.01 321.438 329.683Z" fill="#040101"/>
<path d="M358.309 303.254C362.595 304.26 366.292 305.431 368.861 309.326C370.903 312.421 372.335 316.963 371.474 320.648C370.453 325.02 367.039 329.05 363.198 331.268C359.499 333.404 355.008 334.122 350.879 332.905C346.817 331.7 343.448 328.844 341.592 325.035C339.929 321.639 339.541 317.6 340.858 314.023C342.25 310.241 344.825 308.091 348.202 306.103L352.21 305.753C354.232 304.775 356.148 303.896 358.309 303.254Z" fill="#111111"/>
<path d="M356.028 310.974C358.538 310.738 359.703 310.97 361.657 312.588C362.004 312.879 362.348 313.175 362.686 313.477C361.762 317.463 360.778 321.177 359.18 324.958C355.786 325.32 353.522 325.313 350.747 323.021C349.469 321.966 348.635 320.538 348.576 318.859C348.491 316.455 349.759 314.82 351.277 313.112L356.028 310.974Z" fill="#040101"/>
<path d="M358.309 303.254C362.595 304.26 366.292 305.431 368.861 309.326C370.903 312.421 372.335 316.963 371.474 320.648C370.453 325.02 367.039 329.05 363.198 331.268C359.499 333.404 355.008 334.122 350.879 332.905C346.817 331.7 343.448 328.844 341.592 325.035C339.929 321.639 339.541 317.6 340.858 314.023C342.25 310.241 344.825 308.091 348.202 306.103L349.133 306.762L347.654 307.903C347.332 308.161 347.013 308.423 346.71 308.702C343.913 311.27 341.833 314.592 341.766 318.494C341.705 322.051 343.35 325.99 345.965 328.403C348.515 330.755 351.987 331.895 355.43 331.743C359.634 331.558 364.01 329.408 366.761 326.232C369.009 323.637 370.127 320.319 369.713 316.893C369.317 313.618 367.823 309.733 365.138 307.659C362.81 305.86 359.062 305.114 356.205 305.574C354.966 305.774 353.907 305.842 352.653 305.779C352.505 305.772 352.357 305.762 352.21 305.753C354.232 304.775 356.148 303.896 358.309 303.254Z" fill="#040101"/>
<path d="M349.133 306.762C350.676 306.516 351.539 306.485 353.052 306.867C354.579 308.034 355.177 309.275 356.028 310.974L351.277 313.112C351.084 313.02 350.886 312.938 350.698 312.837C348.609 311.714 348.327 310.017 347.654 307.903L349.133 306.762Z" fill="white"/>
<path d="M362.686 313.477C363.842 315.574 364.494 317.606 363.814 319.998C363.22 322.087 361.786 323.688 359.869 324.652C359.645 324.764 359.41 324.856 359.18 324.958C360.778 321.177 361.762 317.463 362.686 313.477Z" fill="#56382C"/>
<path d="M316.166 206.716C324.015 203.194 329.935 199.593 338.822 202.195C341.007 202.635 344.687 202.865 346.603 203.816L365.472 205.706C371.293 205.65 378.824 208.154 383.876 210.987C393.568 215.297 400.265 220.819 406.484 229.473C408.706 231.954 410.173 235.129 411.55 238.138C415.099 243.37 418.025 248.609 420.576 254.388C421.944 257.962 423.496 261.553 424.621 265.208L423.25 268.693C420.84 262.59 417.878 258.515 413.638 253.501C412.918 252.967 412.281 252.506 411.446 252.166C407.085 250.393 403.24 248.009 400.055 244.49C398.236 243.215 396.407 241.945 394.48 240.837C377.234 230.922 356.475 229.058 337.422 234.191C331.72 236.766 320.778 236.722 314.832 234.899C310.94 234.038 307.14 233.307 303.644 231.291C303.524 230.233 303.66 230.584 303.231 229.713C302.638 228.508 302.009 227.637 302.015 226.246C303.788 227.856 305.735 229.051 307.754 230.32C306.537 228.116 305.397 225.993 304.848 223.516C303.906 219.27 304.163 215.222 306.461 211.472C308.994 208.434 312.525 207.875 316.166 206.716Z" fill="#9C6951"/>
<path d="M397.284 237.128C396.17 236.172 395.136 235.411 394.547 234.02L394.784 233.24C398.914 232.082 403.516 233.572 407.135 235.59C408.613 236.413 410.035 237.393 411.55 238.138C415.099 243.37 418.025 248.609 420.576 254.388C421.944 257.962 423.496 261.553 424.621 265.208L423.25 268.693C420.84 262.59 417.878 258.515 413.638 253.501C412.013 246.8 402.522 240.885 397.284 237.128Z" fill="#56382C"/>
<path d="M398.118 235.429C406.557 241.237 411.368 244.072 417.049 252.969L417.857 254.312L420.576 254.388C421.944 257.962 423.496 261.553 424.621 265.208L423.25 268.693C420.84 262.59 417.878 258.515 413.638 253.501C412.013 246.8 402.522 240.885 397.284 237.128L398.118 235.429Z" fill="url(#paint10_linear_144_220)"/>
<path d="M398.118 235.429L397.695 234.805C402.997 234.929 408.386 239.629 411.89 243.354C413.963 245.557 417.216 249.299 417.291 252.357L417.049 252.969C411.368 244.072 406.557 241.237 398.118 235.429Z" fill="#9C6951"/>
<path d="M406.484 229.473C406.08 229.541 405.666 229.787 405.272 229.675C404.645 229.497 392.723 216.282 386.316 214.355C372.709 210.264 354.236 213.701 341.559 219.415C337.828 221.097 334.549 223.684 330.945 225.63C331.144 225.226 331.178 225.108 331.512 224.718C339.036 215.919 359.136 210.723 370.296 210.55C374.41 210.486 379.059 211.665 383.067 211.112C383.337 211.075 383.606 211.029 383.876 210.987C393.568 215.297 400.265 220.819 406.484 229.473Z" fill="#2E1813"/>
<path d="M340.425 232.266C350.489 228.751 359.568 228.42 370.071 229.898C374.207 230.48 378.426 231.384 382.609 230.907C382.428 231.441 382.27 231.95 382.136 232.5L382.701 232.825C388.875 235.35 394.996 238.073 399.615 243.034L400.055 244.49C398.236 243.215 396.407 241.945 394.48 240.837C377.234 230.922 356.475 229.058 337.422 234.191C338.175 232.895 339.064 232.824 340.425 232.266Z" fill="#2E1813"/>
<path d="M306.461 211.472L308.277 212.526C306.883 216.581 306.658 219.985 306.852 224.221C309.378 227.808 311.576 230.756 315.606 232.708L319.538 233.37C317.966 233.864 316.383 234.34 314.832 234.899C310.94 234.038 307.14 233.307 303.644 231.291C303.524 230.233 303.66 230.584 303.231 229.713C302.638 228.508 302.009 227.637 302.015 226.246C303.788 227.856 305.735 229.051 307.754 230.32C306.537 228.116 305.397 225.993 304.848 223.516C303.906 219.27 304.163 215.222 306.461 211.472Z" fill="url(#paint11_linear_144_220)"/>
<path d="M315.606 232.708C320.213 231.799 336.409 230.439 340.425 232.266C339.064 232.824 338.175 232.895 337.422 234.191C331.72 236.766 320.778 236.722 314.832 234.899C316.383 234.34 317.966 233.864 319.538 233.37L315.606 232.708Z" fill="url(#paint12_linear_144_220)"/>
<path d="M327.582 232.318C330.017 232.057 333.86 231.27 335.847 232.741C333.17 232.989 330.657 233.173 327.967 232.964L327.582 232.318Z" fill="#7F4A39"/>
<path d="M316.166 206.716C324.015 203.194 329.935 199.593 338.822 202.195C336.298 203.565 333.088 203.747 330.318 204.493C327.472 205.259 324.94 206.432 322.312 207.749C320.539 207.856 320.211 207.692 318.835 208.91C317.592 208.294 317.044 207.745 316.166 206.716Z" fill="#56382C"/>
<path d="M382.609 230.907C388.727 228.392 394.615 228.124 400.935 229.912C396.7 230.227 386.19 230.713 382.701 232.825L382.136 232.5C382.27 231.95 382.428 231.441 382.609 230.907Z" fill="#56382C"/>
<path d="M306.461 211.472C308.994 208.434 312.525 207.875 316.166 206.716C317.044 207.745 317.592 208.294 318.835 208.91L318.491 209.267C315.624 209.035 310.833 211.139 308.277 212.526L306.461 211.472Z" fill="#7F4A39"/>
<path d="M318.835 208.91C320.211 207.692 320.539 207.856 322.312 207.749C316.174 213.773 314.458 221.536 311.243 229.208C312.744 221.683 314.595 215.849 318.491 209.267L318.835 208.91Z" fill="#2E1813"/>
<path d="M346.603 203.816L365.472 205.706C365.295 205.767 365.122 205.841 364.941 205.888C360.822 206.947 349.78 206.345 346.066 204.357L346.603 203.816Z" fill="#452B22"/>
<path d="M167.081 205.058C174.943 203.925 184.409 201.286 192.287 201.953C194.565 202.145 196.961 203.113 199.125 203.837C205.864 204.19 214.529 207.085 219.637 211.577C221.444 212.944 222.765 214.463 224.21 216.189C224.402 217.614 224.405 220.382 225.452 221.349C226.162 221.043 226.36 220.931 226.915 220.344C226.671 217.365 226.399 214.388 226.099 211.414C227.662 214.61 228.615 217.403 229.14 220.949C230.043 223.238 229.312 225.517 228.366 227.682C227.306 230.108 225.435 233.127 222.694 233.86C220.519 234.442 216.96 232.715 214.686 232.378C210.79 233.78 206.293 234.167 202.184 234.451C193.566 235.045 185.929 233.741 177.455 232.683C160.369 230.549 145.758 233.694 130.813 241.932C127.889 244.774 123.261 246.893 119.673 248.844C116.207 251.921 112.677 254.914 108.853 257.543L108.767 254.349C108.753 254.097 108.685 253.841 108.726 253.592C109.485 248.886 116.031 242.787 119.372 239.7C118.561 239.042 117.918 238.836 116.949 238.482L117.694 237.293C119.631 234.488 121.125 231.353 122.894 228.435C125.734 222.055 130.411 218.174 136.369 214.856C139.488 213.168 142.767 211.924 146.062 210.629C150.397 208.368 162.165 204.821 167.081 205.058Z" fill="#9C6951"/>
<path d="M219.637 211.577C221.444 212.944 222.765 214.463 224.21 216.189C224.402 217.614 224.405 220.382 225.452 221.349C226.162 221.043 226.36 220.931 226.915 220.344C226.671 217.365 226.399 214.388 226.099 211.414C227.662 214.61 228.615 217.403 229.14 220.949C230.043 223.238 229.312 225.517 228.366 227.682C227.306 230.108 225.435 233.127 222.694 233.86C220.519 234.442 216.96 232.715 214.686 232.378C210.79 233.78 206.293 234.167 202.184 234.451C193.566 235.045 185.929 233.741 177.455 232.683C160.369 230.549 145.758 233.694 130.813 241.932C130.832 241.693 130.826 241.452 130.87 241.217C131.156 239.7 132.5 239.142 133.661 238.275C138.457 236.153 143.325 234.196 148.257 232.41C149.135 232.359 149.933 232.311 150.797 232.133C156.836 229.909 165.371 229.912 171.761 229.933C176.525 229.923 181.186 231.047 185.876 231.772C194.344 233.08 202.311 232.944 210.708 231.427C213.123 231.415 214.826 230.33 216.754 228.998C217.023 228.927 217.312 228.909 217.561 228.787C218.654 228.248 219.413 226.901 219.717 225.764C220.725 222.005 219.338 217.174 217.471 213.901L216.258 212.523C217.15 212.208 218.273 212.311 219.221 212.283L219.637 211.577Z" fill="#452B22"/>
<path d="M219.637 211.577C221.444 212.944 222.765 214.463 224.21 216.189C224.402 217.614 224.405 220.382 225.452 221.349C226.162 221.043 226.36 220.931 226.915 220.344C226.924 220.499 226.94 220.654 226.941 220.809C226.955 224.018 226.117 226.094 223.811 228.29C222.421 228.761 221.37 229.174 219.872 228.949C219.578 227.622 219.864 227.206 220.484 226.025C222.732 221.744 220.257 216.789 219.221 212.283L219.637 211.577Z" fill="#9C6951"/>
<path d="M214.686 232.378C218.389 231.629 223.049 231.881 226.074 229.218C227.328 228.114 226.853 226.754 227.137 225.288C227.424 223.81 227.917 221.903 229.14 220.949C230.043 223.238 229.312 225.517 228.366 227.682C227.306 230.108 225.435 233.127 222.694 233.86C220.519 234.442 216.96 232.715 214.686 232.378Z" fill="#E9AA8E"/>
<path d="M119.372 239.7C123.529 238.05 127.377 234.041 131.623 232.073C137.166 229.503 142.723 230.506 148.257 232.41C143.325 234.196 138.457 236.153 133.661 238.275C132.5 239.142 131.156 239.7 130.87 241.217C130.826 241.452 130.832 241.693 130.813 241.932C127.889 244.774 123.261 246.893 119.673 248.844C116.207 251.921 112.677 254.914 108.853 257.543L108.767 254.349C108.753 254.097 108.685 253.841 108.726 253.592C109.485 248.886 116.031 242.787 119.372 239.7Z" fill="#9C6951"/>
<path d="M126.238 238.153C128.855 238.061 131 238.819 133.661 238.275C132.5 239.142 131.156 239.7 130.87 241.217C130.826 241.452 130.832 241.693 130.813 241.932C127.889 244.774 123.261 246.893 119.673 248.844C116.207 251.921 112.677 254.914 108.853 257.543L108.767 254.349C114.709 250.452 120.707 240.216 126.238 238.153Z" fill="#452B22"/>
<path d="M126.238 238.153C128.855 238.061 131 238.819 133.661 238.275C132.5 239.142 131.156 239.7 130.87 241.217C130.826 241.452 130.832 241.693 130.813 241.932C127.889 244.774 123.261 246.893 119.673 248.844C120.536 245.52 123.338 241.753 125.935 239.548C126.067 239.437 126.201 239.33 126.334 239.221L126.238 238.153Z" fill="#895D49"/>
<path d="M199.125 203.837C205.864 204.19 214.529 207.085 219.637 211.577L219.221 212.283C218.273 212.311 217.15 212.208 216.258 212.523L217.471 213.901C219.338 217.174 220.725 222.005 219.717 225.764C219.413 226.901 218.654 228.248 217.561 228.787C217.312 228.909 217.023 228.927 216.754 228.998C215.425 228.506 214.115 228.123 212.741 227.775C211.737 226.537 211.983 225.941 211.976 224.38C211.003 222.138 209.942 219.983 208.811 217.818C206.706 214.649 205.058 211.196 202.891 208.008L199.125 203.837Z" fill="#9C6951"/>
<path d="M199.125 203.837C205.864 204.19 214.529 207.085 219.637 211.577L219.221 212.283C218.273 212.311 217.15 212.208 216.258 212.523C211.979 211.724 207.21 207.04 202.891 208.008L199.125 203.837Z" fill="#7F4A39"/>
<path d="M217.471 213.901C219.338 217.174 220.725 222.005 219.717 225.764C219.413 226.901 218.654 228.248 217.561 228.787C217.312 228.909 217.023 228.927 216.754 228.998C215.425 228.506 214.115 228.123 212.741 227.775C211.737 226.537 211.983 225.941 211.976 224.38C212.378 225.382 212.629 226.179 213.445 226.914L214.267 226.788C216.965 223.536 215.562 218.134 217.281 214.291C217.34 214.159 217.408 214.031 217.471 213.901Z" fill="#895D49"/>
<path d="M146.062 210.629C163.549 210.182 177.121 212.36 192.056 221.792L191.799 222.658C186.802 219.495 181.386 217.048 175.708 215.391C164.131 211.993 149.146 210.385 138.15 216.399L136.369 214.856C139.488 213.168 142.767 211.924 146.062 210.629Z" fill="#040101"/>
<path d="M167.081 205.058C174.943 203.925 184.409 201.286 192.287 201.953C194.565 202.145 196.961 203.113 199.125 203.837L202.891 208.008C205.058 211.196 206.706 214.649 208.811 217.818L208.141 218.747C205.873 214.873 203.718 210.593 200.2 207.676C190.411 199.559 173.039 209.394 167.081 205.058Z" fill="#452B22"/>
<path d="M117.694 237.293C117.822 237.247 117.951 237.202 118.077 237.153C118.289 237.072 118.497 236.983 118.709 236.904C123.159 235.248 126.301 231.401 130.652 229.514C136.111 227.147 142.341 227.8 147.745 230.018C148.751 230.74 149.768 231.445 150.797 232.133C149.933 232.311 149.135 232.359 148.257 232.41C142.723 230.506 137.166 229.503 131.623 232.073C127.377 234.041 123.529 238.05 119.372 239.7C118.561 239.042 117.918 238.836 116.949 238.482L117.694 237.293Z" fill="url(#paint13_linear_144_220)"/>
<path d="M122.894 228.435C125.734 222.055 130.411 218.174 136.369 214.856L138.15 216.399C134.432 218.799 131.214 221.358 127.941 224.326C126.821 225.342 125.235 227.498 124.075 228.168C123.725 228.37 123.287 228.346 122.894 228.435Z" fill="#452B22"/>
<path d="M147.745 230.018C155.146 228.365 164.301 228.479 171.761 229.933C165.371 229.912 156.836 229.909 150.797 232.133C149.768 231.445 148.751 230.74 147.745 230.018Z" fill="#7F4A39"/>
<path d="M208.811 217.818C209.942 219.983 211.003 222.138 211.976 224.38C211.983 225.941 211.737 226.537 212.741 227.775C214.115 228.123 215.425 228.506 216.754 228.998C214.826 230.33 213.123 231.415 210.708 231.427C210.791 231.257 210.896 231.095 210.957 230.916C212.208 227.275 209.556 222.069 208.141 218.747L208.811 217.818Z" fill="#7F4A39"/>
<path d="M192.056 221.792C194.716 223.3 196.675 224.674 198.488 227.158L198.296 227.639C195.814 226.551 194.001 224.239 191.799 222.658L192.056 221.792Z" fill="#7F4A39"/>
<path d="M184.037 224.456C188.025 225.952 191.719 227.723 195.234 230.136C191.176 229.102 187.078 227.39 184.037 224.456Z" fill="#56382C"/>
<path d="M35.7919 329.597C34.2809 329.052 32.3269 328.606 31.1909 327.483L31.6959 326.639C35.0439 326.803 37.2919 327.252 39.5739 329.839C44.6619 335.606 62.2879 369.198 64.5519 376.383C65.6859 379.98 65.8359 383.115 65.5529 386.845C65.1049 392.751 62.0879 396.929 60.6269 402.406C58.1519 411.686 67.5039 422.795 70.5269 431.379C71.6849 433.688 72.6449 436.423 72.9979 438.991C71.3139 439.024 69.6189 439.07 67.9349 438.994C65.2799 438.875 63.3029 438.685 61.4369 436.662C60.8949 434.918 61.1019 434.53 61.5509 432.817C58.5859 429.795 56.9489 426.852 55.3119 423.032C53.8329 421.169 52.0049 420.315 50.6909 418.072C50.2539 416.74 50.1779 415.299 50.0149 413.911C49.6329 413.474 49.7069 413.674 49.7609 412.82C50.2029 405.795 46.2259 398.844 47.8409 391.74C49.4679 384.974 54.0689 375.579 59.6159 371.15C56.3879 364.414 52.4559 357.993 48.8889 351.429C45.0199 344.307 41.4179 336.519 36.5639 330.015L35.7919 329.597Z" fill="#E9AA8E"/>
<path d="M35.7919 329.597C34.2809 329.052 32.3269 328.606 31.1909 327.483L31.6959 326.639C35.0439 326.803 37.2919 327.252 39.5739 329.839C44.6619 335.606 62.2879 369.198 64.5519 376.383C65.6859 379.98 65.8359 383.115 65.5529 386.845C65.1049 392.751 62.0879 396.929 60.6269 402.406C58.1519 411.686 67.5039 422.795 70.5269 431.379L69.2169 432.051C67.2169 429.192 66.4459 425.608 64.8939 422.493C63.1499 418.991 60.7049 415.778 59.2359 412.158C56.6449 405.777 58.2109 401.306 60.6199 395.344C63.9299 387.152 63.4369 380.004 60.0309 371.971L59.6159 371.15C56.3879 364.414 52.4559 357.993 48.8889 351.429C45.0199 344.307 41.4179 336.519 36.5639 330.015L35.7919 329.597Z" fill="#040101"/>
<path d="M55.3119 423.032C56.2819 421.77 56.452 421.296 57.996 420.774C59.337 421.183 60.011 421.847 60.702 423.037C62.475 426.09 63.841 431.277 67.394 432.599C67.927 432.798 68.691 432.815 69.24 432.862L69.2169 432.051L70.5269 431.379C71.6849 433.688 72.6449 436.423 72.9979 438.991C71.3139 439.024 69.6189 439.07 67.9349 438.994C65.2799 438.875 63.3029 438.685 61.4369 436.662C60.8949 434.918 61.1019 434.53 61.5509 432.817C58.5859 429.795 56.9489 426.852 55.3119 423.032Z" fill="#9C6951"/>
<path d="M61.5509 432.817C65.2669 435.072 69.3649 436.687 72.9979 438.991C71.3139 439.024 69.6189 439.07 67.9349 438.994C65.2799 438.875 63.3029 438.685 61.4369 436.662C60.8949 434.918 61.1019 434.53 61.5509 432.817Z" fill="#E9AA8E"/>
<path d="M59.6159 371.15L60.0309 371.971C55.1119 378.626 49.7998 385.945 49.5518 394.54C49.4738 397.24 50.0948 400.943 49.3388 403.461C48.4018 399.616 48.7789 395.536 47.8409 391.74C49.4679 384.974 54.0689 375.579 59.6159 371.15Z" fill="#66291E"/>
<path d="M50.0149 413.911C50.1079 413.806 50.2146 413.711 50.2936 413.595C51.3646 412.012 50.7036 409.528 51.8786 408.057C52.2686 411.414 51.7119 414.869 50.6909 418.072C50.2539 416.74 50.1779 415.299 50.0149 413.911Z" fill="#66291E"/>
<path d="M278.588 509.237C295.502 508.016 311.863 513.347 327.604 518.843C336.913 522.094 342.006 523.936 346.525 533.302C342.909 531.348 340.654 527.528 337.098 525.562C323.844 518.235 297.093 511.851 282.153 512.029C270.856 512.164 264.149 513.944 252.308 512.56C234.436 511.922 215.58 515.714 199.81 524.354C194.277 527.385 189.293 531.242 183.802 534.302L183.281 534.587C195.366 519.328 221.073 511.24 239.873 510.116C247.802 509.642 255.503 510.59 263.398 510.628C268.447 510.653 273.579 509.842 278.588 509.237Z" fill="#040101"/>
<path d="M343.565 275.06C354.238 273.537 366.277 278.584 375.694 282.985C385.528 287.581 394.556 293.738 398.394 304.355L398.103 304.703L397.191 304.411L397.47 305.526C396.026 305.73 392.023 299.557 390.921 298.106C383.89 288.838 367.918 282.335 356.803 279.879L356.112 279.731C350.797 278.61 346.168 278.375 340.873 279.768C330.77 282.426 316.441 291.905 311.121 300.875C308.829 304.738 307.701 309.212 305.394 313.1C305.307 313.246 305.217 313.39 305.128 313.535C306.342 307.769 307.629 302.805 310.67 297.713C319.358 283.164 327.492 279.149 343.565 275.06Z" fill="#7F4A39"/>
<path d="M219.992 304.73C219.842 304.328 219.69 303.927 219.524 303.532L219.298 303.006C217.371 298.403 207.07 287.811 202.766 285.217C197.739 282.187 192.093 279.664 186.282 278.657C173.606 276.459 155.67 280.896 145.813 289.301C141.127 293.296 136.659 302.307 130.908 303.687L130.319 303.284C130.426 302.678 130.591 302.177 130.907 301.645C137.039 291.339 152.704 280.265 164.151 277.005C177.117 273.312 190.249 273.467 202.228 280.181C210.9 285.041 218.312 293.897 221.078 303.494L219.992 304.73Z" fill="#7F4A39"/>
<path d="M193.097 144.229C203.328 143.636 214.667 143.412 224.816 144.572C235.462 145.788 245.858 148.276 256.63 148.444C270.86 148.668 284.917 146.135 298.993 144.582C318.469 142.434 341.925 143.353 360.829 148.297C365.03 149.396 369.895 149.964 373.825 151.712C379.489 154.232 385.765 154.616 391.336 157.176C390.853 157.47 390.45 158.007 389.887 158.057C388.464 158.184 383.527 155.718 381.97 155.151C375.116 152.657 367.969 150.972 360.889 149.258C340.268 145.03 317.742 143.369 296.766 146.175C285.141 147.731 274.425 150.714 262.527 150.779C249.555 150.85 237.291 147.401 224.533 145.911C203.019 143.397 180.78 146.225 159.6 149.853C170.452 145.951 181.667 144.84 193.097 144.229Z" fill="#66291E"/>
<path d="M465.433 401.162C461.068 393.965 458.631 387.26 459.778 378.762C460.141 376.069 460.998 373.506 462.156 371.055C465.249 364.513 469.66 358.513 473.129 352.145C476.52 345.922 479.055 339.259 482.706 333.169C483.672 331.558 484.845 329.601 486.441 328.555C488.249 327.371 491.037 326.717 493.14 327.193L492.976 327.686L490.727 328.542L489.474 329.381C482.692 335.83 479.337 346.44 474.878 354.567C472.218 359.416 468.855 364.149 466.579 369.175L465.609 370.507C462.36 376.676 460.68 382.58 462.903 389.526C463.814 392.374 465.293 395.03 466.473 397.77C469.348 404.446 466.092 410.707 463.206 416.707C461.198 420.884 458.882 425.052 457.335 429.419C456.692 430.922 456.128 432.666 455.123 433.947C457.582 422.64 464.368 412.67 465.433 401.162Z" fill="#040101"/>
<path d="M196.152 164.034C204.567 163.538 213.13 162.503 221.54 163.459C233.934 164.867 245.345 168.479 258.027 168.668C272.789 168.888 286.954 164.593 301.564 163.359C308.495 162.774 315.503 162.865 322.441 163.289C325.883 163.5 329.446 164.088 332.875 164.031L334.261 165.229C322.31 164.171 309.09 164.628 297.202 166.119C284.519 167.711 271.616 170.261 258.822 170.313C246.111 170.364 235.276 167.265 222.951 165.646C213.93 164.461 204.434 164.883 195.349 165.194L196.152 164.034Z" fill="#040101"/>
<path d="M184.58 181.737C192.015 180.265 231.778 183.371 237.015 186.656C235.444 186.866 215.716 184.087 211.214 183.83C195.807 182.949 181 184.92 165.838 187.29C156.264 188.635 145.054 190.921 136.137 194.675C133.036 195.98 126.381 201.179 123.797 201.443C123.873 201.292 123.915 201.119 124.024 200.99C125.098 199.727 127.704 198.381 129.168 197.466C145.231 187.431 165.975 183.719 184.58 181.737Z" fill="#7F4A39"/>
<path d="M293.809 185.28C320.044 180.299 345.929 179.355 371.832 186.667C380.259 189.046 388.976 192.276 396.26 197.225L396.339 197.688C390.921 195.64 385.974 192.575 380.418 190.834C370.901 187.853 360.485 185.754 350.565 184.672C336.514 183.138 307.265 183.056 293.608 186.272L293.809 185.28Z" fill="url(#paint14_linear_144_220)"/>
<path d="M219.529 568.611C228.887 561.72 236.677 556.766 248.459 555.229C254.279 554.47 260.27 554.416 266.137 554.442C283.239 554.518 289.188 557.45 302.451 567.621L301.714 568.038C297.179 565.44 292.498 562.335 287.611 560.477C274.025 555.314 253.062 555.862 239.219 559.659C232.845 561.408 225.477 564.915 220.35 569.127L219.529 568.611Z" fill="#040101"/>
<path d="M292.926 378.12C290.117 353.889 274.981 323.537 279.806 299.447C281.819 289.393 290.209 280.384 298.549 274.896C294.526 280.197 289.627 284.775 285.914 290.325C284.262 292.794 282.71 295.516 281.88 298.382C277.559 313.309 284.931 335.934 288.501 350.825C290.532 359.63 292.375 368.477 294.027 377.36L292.926 378.12Z" fill="#040101"/>
<path d="M229.026 435.534C243.181 436.042 247.972 450.915 260.938 452.005C262.147 452.107 263.091 452.237 264.249 452.599C263.521 453.242 260.177 453.084 259.06 453.151C252.652 451.512 246.926 447.841 241.564 444.083C239.649 444.453 237.617 444.93 235.664 444.963C232.863 445.011 227.388 443.768 225.502 441.474C225.148 441.042 224.729 440.263 224.861 439.672C225.269 437.834 227.486 436.381 229.026 435.534Z" fill="#040101"/>
<path d="M295.635 435.043C297.589 435.016 300.081 435.475 301.439 437.042C302.176 437.892 302.323 438.972 301.97 440.027C301.376 441.803 299.322 443.086 297.661 443.684C293.662 445.123 290.892 444.04 287.284 442.306C284.766 443.929 282.508 445.663 280.234 447.613C278.248 449.182 276.147 450.626 274.099 452.114C278.6 444.687 287.337 437.503 295.635 435.043Z" fill="#040101"/>
<path d="M265.511 539.753C275.918 539.643 286.829 541.07 296.824 543.957C286.493 544.317 276.335 542.145 266.02 542.06C255.676 541.953 245.099 543.618 234.862 544.973C244.349 540.794 255.271 540.297 265.511 539.753Z" fill="#040101"/>
<path d="M228.997 276.925C234.288 281.728 240.255 286.549 244.379 292.433C253.541 305.503 247.136 325.66 244.58 340.034L243.478 340.131C244.517 326.379 252.075 305.961 243.123 293.808C238.735 287.851 233.033 283.27 228.997 276.925Z" fill="#040101"/>
<path d="M221.09 405.453C221.688 412.522 208.007 423.686 211.004 438.283C212.138 443.806 215.98 447.691 220.971 450.05C222.609 450.825 224.394 451.173 225.929 452.166L225.101 452.437C221.767 451.919 218.838 450.882 216.022 448.985C211.8 446.143 209.403 441.742 208.446 436.814C206.274 425.622 214.986 414.098 221.09 405.453Z" fill="#040101"/>
<path d="M302.281 400.325C303.166 400.894 303.79 401.462 304.44 402.281C309.071 408.114 320.159 424.915 319.103 432.134C318.182 438.431 312.853 444.019 308.009 447.789C306.893 448.069 307.444 448.079 306.358 447.777C309.649 443.521 313.714 440.759 315.702 435.46C319.665 424.891 306.591 409.905 302.281 400.325Z" fill="#040101"/>
<path d="M195.349 165.194C192.237 166.386 187.659 165.551 184.317 165.95C167.538 167.955 155.349 169.98 140.448 178.439C137.571 180.072 134.608 181.579 131.831 183.38C129.636 184.802 127.13 187.018 124.791 188.067C123.958 188.44 123.066 188.244 122.212 188.079C127.188 185.699 131.315 182.012 136.17 179.441C137.605 178.681 139.186 178.248 140.641 177.527C144.416 175.656 147.968 173.288 151.871 171.682C165.695 165.994 181.357 164.839 196.152 164.034L195.349 165.194Z" fill="#9C6951"/>
<path d="M35.7919 329.597L36.5639 330.015C34.8159 332.737 33.246 335.532 32.275 338.629C29.335 348.001 27.648 369.831 27.934 379.962C28.062 384.487 29.183 389.12 28.978 393.611C28.217 391.585 27.615 389.673 27.315 387.517C25.799 376.638 27.559 349.421 30.799 339.001C31.901 335.456 33.5589 332.546 35.7919 329.597Z" fill="#2E1813"/>
<path d="M116.949 238.482C117.918 238.836 118.561 239.042 119.372 239.7C116.031 242.787 109.485 248.886 108.726 253.592C108.685 253.841 108.753 254.097 108.767 254.349L108.853 257.543C105.196 262.741 103.755 269.639 101.958 275.667C101.89 274.853 101.833 274.038 101.789 273.222C101.21 262.239 109.72 246.523 116.949 238.482Z" fill="#040101"/>
<path d="M494.05 335.581C497.877 346.41 501.024 372.184 500.108 383.588C499.831 387.051 499.004 390.647 498.051 393.987C497.123 390.412 498.849 384.535 498.882 380.651C498.984 368.744 496.984 348.115 493.036 337.303L494.05 335.581Z" fill="#2E1813"/>
<path d="M467.032 425.458L468.606 425.57C466.16 430.797 462.96 436.603 457.218 438.762C456.376 439.079 455.622 439.096 454.734 439.102C454.233 438.735 453.827 438.683 453.802 437.998C453.758 436.816 454.469 434.933 455.123 433.947C456.128 432.666 456.692 430.922 457.335 429.419C457.562 430.172 457.599 430.503 457.454 431.305C457.281 432.27 457.485 432.411 457.852 433.304C461.224 430.045 465.025 430.285 467.032 425.458Z" fill="#BB7F5E"/>
<path d="M332.875 164.031C352.798 165.365 367.724 167.538 385.564 177.155C387.907 178.418 391.786 179.963 393.468 182.022C393.79 182.417 393.867 182.583 394.155 183.052C392.508 182.07 391.083 180.795 389.411 179.837C377.12 172.794 364.052 168.616 350.039 166.704C345.098 166.03 338.909 166.596 334.261 165.229L332.875 164.031Z" fill="#7F4A39"/>
<path d="M241.083 205.864C243.019 207.285 244.417 209.704 245.482 211.831C249.15 219.159 249.571 229.723 247.064 237.429L246.661 237.972L246.293 237.918C245.822 234.485 246.402 230.877 246.418 227.41C246.457 219.083 243.886 213.459 241.083 205.864Z" fill="#040101"/>
<path d="M485.067 337.872C489.768 343.116 494.189 370.545 493.967 377.906L493.605 377.696C491.841 373.465 491.747 367.117 490.808 362.535C489.114 354.267 486.77 346.142 485.067 337.872Z" fill="#040101"/>
<path d="M40.9719 339.402C41.2279 344.179 38.7679 350.54 37.7359 355.284C35.8839 363.788 33.9539 372.891 33.4369 381.579C31.4679 373.486 37.0559 346.738 40.9719 339.402Z" fill="#040101"/>
<path d="M465.609 370.507L466.579 369.175C475.975 382.725 478.329 387.887 477.612 404.538C477.511 402.862 477.196 401.358 476.797 399.729C476.805 388.278 472.412 379.554 465.609 370.507Z" fill="#66291E"/>
<path d="M244.58 340.034C244.251 344.467 240.99 383.699 240.6 384.505C239.646 379.121 242.142 345.868 243.478 340.131L244.58 340.034Z" fill="#9C6951"/>
<path d="M284.481 207.913C284.573 210.608 281.653 232.156 280.852 234.195C280.561 233.643 280.277 233.116 280.102 232.514C278.3 226.315 281.226 213.334 284.481 207.913Z" fill="#040101"/>
<path d="M300.328 212.552C300.811 217.38 300.016 221.629 302.015 226.246C302.009 227.637 302.638 228.508 303.231 229.713C303.66 230.584 303.524 230.233 303.644 231.291C301.746 230.121 300.114 228.575 299.158 226.53C297.015 221.951 298.653 216.975 300.328 212.552Z" fill="#895D49"/>
<path d="M476.797 399.729C477.196 401.358 477.511 402.862 477.612 404.538C477.634 408.054 478.72 415.608 476.343 418.219C475.074 417.867 475.139 417.683 474.328 416.731C474.108 413.456 474.458 410.024 475.472 406.904L476.026 409.882L476.448 409.757C477.294 406.886 476.737 402.799 476.797 399.729Z" fill="#9C6951"/>
<path d="M339.865 463.866C345.531 468.483 357.445 487.167 360.559 494.213C358.103 492.267 342.638 468.389 339.865 463.866Z" fill="#040101"/>
<path d="M314.055 341.436C317.057 342.285 320.464 345.612 322.939 347.569C325.913 349.921 331.867 353.744 332.308 357.529C327.412 354.294 317.464 346.227 314.055 341.436Z" fill="#040101"/>
<path d="M191.997 462.084C191.356 464.923 187.273 469.019 185.455 471.436C180.462 478.073 176.221 484.785 172.425 492.162C172.377 491.895 172.281 491.632 172.282 491.361C172.295 484.98 187.539 467.273 191.997 462.084Z" fill="#895D49"/>
<path d="M211.164 342.967L211.581 343.387C210.552 345.7 196.223 358.072 193.529 359.689L193.023 359.257C198.229 353.355 204.829 347.615 211.164 342.967Z" fill="#040101"/>
<path d="M47.1309 433.448C49.7689 435.472 57.9328 442.939 58.8138 445.518C58.2018 445.359 57.7518 445.211 57.1878 444.933C52.7428 442.74 48.6609 438.113 47.1309 433.448Z" fill="#040101"/>
<path d="M391.456 337.39C391.83 339.344 391.013 341.06 390.112 342.773C387.787 347.193 383.941 350.485 379.218 352.02L379.296 351.471C385.216 347.79 388.514 343.562 391.456 337.39Z" fill="#66291E"/>
<path d="M137.151 337.908C138.174 339.074 138.943 340.646 139.82 341.945C142.645 346.133 145.951 348.872 150.156 351.598C148.256 351.562 146.61 350.85 145.03 349.843C140.776 347.135 138.326 342.69 137.151 337.908Z" fill="#66291E"/>
<path d="M476.466 436.081C476.431 436.861 476.493 436.717 476.288 437.372C474.845 441.981 470.294 443.895 466.348 445.994C466.812 442.913 474.202 438.736 476.466 436.081Z" fill="#040101"/>
<path d="M302.451 567.621C305.53 569.157 322.441 584.577 323.398 587.427C318.726 584.996 309.763 573.317 303.236 569.064C302.724 568.73 302.223 568.377 301.714 568.038L302.451 567.621Z" fill="#9C6951"/>
<path d="M220.35 569.127C215.687 573.035 211.345 577.549 207.014 581.824C209.206 576.892 215.586 572.278 219.529 568.611L220.35 569.127Z" fill="#895D49"/>
<path d="M489.474 329.381L490.727 328.542C492.238 330.793 493.349 332.949 494.05 335.581L493.036 337.303C492.09 334.548 490.766 331.985 489.474 329.381Z" fill="#66291E"/>
<path d="M424.621 265.208C425.629 269.15 426.258 272.859 426.444 276.933C425.317 274.236 424.005 271.52 423.25 268.693L424.621 265.208Z" fill="#040101"/>
<path d="M467.032 425.458C467.406 423.245 467.512 420.865 468.948 419.065L469.729 419.083C470.492 421.495 469.472 423.332 468.606 425.57L467.032 425.458Z" fill="#7F4A39"/>
<path d="M261.713 484.108C261.68 479.732 261.649 475.412 262.057 471.048L262.313 471.072C262.865 475.419 262.772 479.662 262.664 484.028L261.713 484.108Z" fill="#452B22"/>
<path d="M219.992 304.73L221.078 303.494C222.244 307.389 222.9 310.965 222.919 315.051C221.486 311.715 221.327 308.046 219.992 304.73Z" fill="#66291E"/>
<path d="M262.664 484.028C262.413 485.847 261.738 488.305 262.88 489.902C263.822 491.221 265.094 491.827 266.52 492.494L266.522 493.02C264.909 492.964 263.092 492.593 261.95 491.355C260.794 490.101 261.76 485.852 261.713 484.108L262.664 484.028Z" fill="#9C6951"/>
<path d="M333.145 455.87C336.467 457.236 338.453 460.875 340.299 463.809C337.521 463.002 334.786 458.19 333.145 455.87Z" fill="#E9AA8E"/>
<path d="M294.027 377.36C294.544 380.381 295.119 383.37 295.193 386.441L294.647 386.421C294.635 386.347 294.628 386.273 294.612 386.2C294.031 383.502 293.425 380.837 292.926 378.12L294.027 377.36Z" fill="#7F4A39"/>
<path d="M339.096 363.109L340.158 362.854C342.032 363.687 343.314 364.655 344.813 366.046C342.962 365.471 340.241 364.718 339.096 363.109Z" fill="#E9AA8E"/>
<path d="M293.608 186.272C291.71 186.609 289.789 187.11 287.862 186.81C289.563 185.728 291.847 185.603 293.809 185.28L293.608 186.272Z" fill="#BB7F5E"/>
<defs>
<linearGradient id="paint0_linear_144_220" x1="305.902" y1="377.093" x2="230.073" y2="425.354" gradientUnits="userSpaceOnUse">
<stop stop-color="#392620"/>
<stop offset="1" stop-color="#59392B"/>
</linearGradient>
<linearGradient id="paint1_linear_144_220" x1="83.4823" y1="-111.74" x2="789.473" y2="234.283" gradientUnits="userSpaceOnUse">
<stop stop-color="#170C0A"/>
<stop offset="1" stop-color="#63473A"/>
</linearGradient>
<linearGradient id="paint2_linear_144_220" x1="231.607" y1="374.826" x2="327.097" y2="422.168" gradientUnits="userSpaceOnUse">
<stop stop-color="#1F0E0A"/>
<stop offset="1" stop-color="#472E27"/>
</linearGradient>
<linearGradient id="paint3_linear_144_220" x1="220.692" y1="579.319" x2="354.577" y2="461.679" gradientUnits="userSpaceOnUse">
<stop stop-color="#1E130F"/>
<stop offset="1" stop-color="#4B3228"/>
</linearGradient>
<linearGradient id="paint4_linear_144_220" x1="356.089" y1="49.8074" x2="282.435" y2="859.865" gradientUnits="userSpaceOnUse">
<stop stop-color="#231411"/>
<stop offset="1" stop-color="#60463A"/>
</linearGradient>
<linearGradient id="paint5_linear_144_220" x1="447.183" y1="230.216" x2="193.037" y2="719.572" gradientUnits="userSpaceOnUse">
<stop/>
<stop offset="1" stop-color="#291713"/>
</linearGradient>
<linearGradient id="paint6_linear_144_220" x1="245.637" y1="520.924" x2="350.454" y2="474.624" gradientUnits="userSpaceOnUse">
<stop stop-color="#845842"/>
<stop offset="1" stop-color="#AC7456"/>
</linearGradient>
<linearGradient id="paint7_linear_144_220" x1="271.721" y1="278.141" x2="222.721" y2="311.498" gradientUnits="userSpaceOnUse">
<stop/>
<stop offset="1" stop-color="#20110E"/>
</linearGradient>
<linearGradient id="paint8_linear_144_220" x1="400.998" y1="330.53" x2="152.517" y2="395.314" gradientUnits="userSpaceOnUse">
<stop stop-color="#4B2F25"/>
<stop offset="1" stop-color="#664B3E"/>
</linearGradient>
<linearGradient id="paint9_linear_144_220" x1="329.566" y1="295.671" x2="126.988" y2="486.892" gradientUnits="userSpaceOnUse">
<stop stop-color="#94664F"/>
<stop offset="1" stop-color="#B2785A"/>
</linearGradient>
<linearGradient id="paint10_linear_144_220" x1="231.884" y1="465.091" x2="343.752" y2="388.011" gradientUnits="userSpaceOnUse">
<stop stop-color="#2C1A16"/>
<stop offset="1" stop-color="#593A2D"/>
</linearGradient>
<linearGradient id="paint11_linear_144_220" x1="418.764" y1="208.177" x2="66.9171" y2="730.836" gradientUnits="userSpaceOnUse">
<stop stop-color="#3C231B"/>
<stop offset="1" stop-color="#5C3B2E"/>
</linearGradient>
<linearGradient id="paint12_linear_144_220" x1="146.215" y1="-66.6931" x2="429.53" y2="-29.1438" gradientUnits="userSpaceOnUse">
<stop stop-color="#704B39"/>
<stop offset="1" stop-color="#8C5C4D"/>
</linearGradient>
<linearGradient id="paint13_linear_144_220" x1="264.047" y1="767.72" x2="48.2788" y2="149.382" gradientUnits="userSpaceOnUse">
<stop stop-color="#2F1F18"/>
<stop offset="1" stop-color="#614134"/>
</linearGradient>
<linearGradient id="paint14_linear_144_220" x1="256.428" y1="580.275" x2="514.37" y2="214.831" gradientUnits="userSpaceOnUse">
<stop stop-color="#672613"/>
<stop offset="1" stop-color="#884C3B"/>
</linearGradient>
</defs>
</svg>
