<svg width="409" height="888" viewBox="0 0 409 888" fill="none" xmlns="http://www.w3.org/2000/svg">
<path d="M49.5494 40.4501C48.1626 35.8273 48.5999 32.2163 50.8897 27.9399C53.7392 22.6188 60.8863 14.4829 66.8637 12.7792C69.5945 12.0009 72.5226 12.6517 75.2286 11.9515C79.463 10.8558 83.6442 8.98106 87.8187 7.62018C93.1293 5.88912 98.7158 4.76062 104.18 3.638C130.862 -1.84397 175.106 -2.61082 198.903 11.9176C205.673 16.143 210.475 22.8964 212.242 30.6774L212.53 31.9275C224.4 37.7311 232.203 48.0808 236.433 60.4649C242.895 79.3837 241.801 105.177 235.855 124.125C232.676 134.254 227.565 144.542 222.87 154.068C218.017 163.918 211.315 176.755 204.599 185.359C203.596 193.767 205.04 215.895 210.012 222.115C215.038 228.404 241.367 237.926 249.975 242.043C258.232 245.991 266.38 250.165 273.968 255.31C283.241 261.656 291.467 269.408 298.35 278.289C305.769 287.95 312.692 298.75 317.797 309.83C320.215 315.08 321.611 321.173 324.737 326.044C327.54 330.412 332.005 333.669 335.474 337.513C340.735 343.345 345.539 349.72 350.141 356.074C351.566 358.042 362.261 371.963 362.07 373.469C361.987 374.119 361.716 374.757 361.491 375.37C361.805 378.059 369.87 388.133 371.803 391.38C378.3 402.293 383.415 413.865 388.97 425.258C391.799 431.061 395.158 436.636 397.68 442.583C400.982 450.368 408.657 471.199 408.275 479.377C408.032 484.559 404.909 489.836 401.773 493.801C400.821 495.005 399.89 496.235 398.716 497.232C392.189 503.935 387.459 511.93 381.752 519.266C371.397 532.577 359.474 545.649 346.731 556.693C334.279 567.485 321.155 577.596 308.142 587.705C299.107 594.843 289.999 601.894 280.821 608.846C272.141 615.297 250.326 629.158 244.272 636.123C264.855 663.363 272.486 704.884 267.825 738.26C265.793 752.814 261.349 767.689 254.239 780.591C255.772 792.201 252.744 794.805 252.258 804.739C251.954 810.943 252.202 817.245 252.134 823.461C251.961 833.543 251.697 843.625 251.343 853.701C251.157 859.311 251.571 866.183 250.036 871.583L249.118 872.325C243.612 874.081 238.156 876.271 232.554 877.687C190.552 888.332 139.743 889.056 96.773 885.524L95.0603 885.382C79.5651 883.471 64.535 881.225 49.3731 877.36C44.2381 876.048 31.4984 870.358 27.9388 870.154C24.0582 862.874 24.2518 798.937 24.7082 787.043C25.1431 775.736 25.7282 764.337 26.5688 753.055C26.857 749.183 27.457 745.323 27.6938 741.458C27.9468 737.344 27.0153 733.182 27.366 729.069C27.872 723.149 31.1866 717.904 32.159 712.059C33.3008 705.2 33.0577 697.901 33.5129 690.949C34.3343 678.393 36.0315 666.227 35.3042 653.602C33.8463 653.621 32.3748 653.646 30.9194 653.553C27.1891 653.312 22.7624 652.304 20.232 649.322C18.2236 646.947 18.0832 644.739 18.3424 641.807C15.3091 639.698 12.1572 637.422 10.3034 634.138C8.29757 630.581 8.45961 627.328 9.48326 623.505C9.17153 623.326 8.85857 623.134 8.56477 622.93C4.43241 620.004 1.17896 616.021 0.261076 610.955C-0.51579 606.669 0.460876 603.836 2.92693 600.366C1.35217 596.253 -0.208369 591.701 0.415103 587.229C1.53834 579.176 10.5589 573.805 16.5177 569.212C11.7075 536.505 9.41029 501.752 13.6701 468.889C15.4106 455.463 19.4161 442.323 20.8381 428.875C21.3701 423.841 20.9278 418.737 20.9328 413.683C20.942 404.62 21.3131 395.622 22.4376 386.626C24.8282 372.117 31.2924 357.068 37.5976 343.885C40.154 338.54 47.2825 327.772 48.441 323.224C48.7874 321.864 48.6377 320.166 48.8028 318.734C49.9415 306.185 55.1062 293.273 62.5749 283.156C71.9214 270.494 84.6858 260.8 100.566 258.402L100.946 258.328L101.254 257.77C98.3008 251.459 94.2587 244.238 89.8177 238.887C81.1899 241.64 72.8102 242.975 63.7915 241.604C56.8009 240.541 50.4246 236.882 46.2997 231.078C40.7261 223.237 41.2828 215.498 42.7666 206.517C41.4956 203.745 40.1676 200.999 38.784 198.281C40.0674 192.142 41.6929 182.94 40.2573 176.775C38.2904 168.327 31.3623 171.461 26.0727 167.911C23.7458 166.348 22.8298 163.575 22.4228 160.923C21.1969 152.927 33.461 143.215 37.9465 136.895C44.2962 127.947 38.0226 126.21 36.7354 117.991C35.601 110.745 38.1803 102.382 39.9078 95.4245C44.548 76.742 45.6669 67.2644 57.3749 50.8809C57.1275 50.7417 56.8832 50.5976 56.6414 50.4498C52.9605 48.1829 50.5458 44.6295 49.5494 40.4501Z" fill="#F2DCC3"/>
<path d="M396.991 495.893C396.21 497.314 395.329 498.638 394.421 499.978C396.061 499.202 396.791 497.736 398.716 497.232C392.189 503.935 387.459 511.93 381.752 519.266C371.397 532.577 359.474 545.649 346.731 556.693C334.279 567.485 321.155 577.596 308.142 587.705C299.107 594.843 289.999 601.894 280.821 608.846C272.141 615.297 250.326 629.158 244.272 636.123C264.855 663.363 272.486 704.884 267.825 738.26C265.793 752.814 261.349 767.689 254.239 780.591C255.772 792.201 252.744 794.805 252.258 804.739C251.954 810.943 252.202 817.245 252.134 823.461C251.961 833.543 251.697 843.625 251.343 853.701C251.157 859.311 251.571 866.183 250.036 871.583L249.118 872.325C243.612 874.081 238.156 876.271 232.554 877.687C190.552 888.332 139.743 889.056 96.773 885.524L95.0603 885.382C79.5651 883.471 64.535 881.225 49.3731 877.36C44.2381 876.048 31.4984 870.358 27.9388 870.154C28.3891 869.467 28.6205 868.935 28.6539 868.113C28.9372 861.185 28.1294 853.973 27.8003 847.04C27.3742 836.599 27.0649 826.152 26.8725 815.699C26.4748 794.428 27.4874 773.306 28.8747 752.09C29.1221 748.305 29.7468 744.55 29.9695 740.777C30.1977 736.899 29.1815 733.034 29.6089 729.137C30.2485 723.317 33.419 717.923 34.3672 712.09C35.6902 703.944 35.5572 695.217 36.0756 686.96C36.5475 679.438 37.568 671.899 37.7864 664.371C37.9534 658.613 36.9514 652.873 36.3854 647.151C35.9117 642.364 35.7613 637.509 35.5919 632.703L43.0995 635.505L43.958 636.061C55.3296 639.03 67.2077 639.643 78.9349 639.686C87.5911 639.395 96.2925 639.618 104.953 639.68L106.841 639.302L107.79 639.463C111.509 637.713 115.611 639.482 119.618 639.618C125.486 639.816 131.796 639.018 137.54 637.874C135.534 641.61 135.196 645.512 136.436 649.601C137.253 652.298 138.914 654.747 141.416 656.139C142.952 656.998 144.818 657.351 146.567 657.332L147.315 658.007L147.314 658.483C147.33 662.077 148.884 665.961 151.493 668.478C155.347 672.195 162.036 673.804 167.243 673.624L168.497 673.587C168.615 673.581 168.733 673.575 168.852 673.569C172.879 670.099 184.051 669.678 189.519 668.627L188.942 666.493C205.369 662.726 217.455 655.594 228.374 642.667C229.849 641.016 238.999 636.272 241.639 634.478C251.412 627.835 260.963 620.629 270.549 613.702C287.351 601.56 303.75 588.639 319.949 575.702C332.34 565.804 345.087 556.023 356.216 544.691C364.796 535.954 373.217 526.671 380.737 517.001C384.588 512.049 388.022 506.763 391.838 501.768L387.077 504.761L386.425 504.568L386.546 505.002C386.684 504.83 386.645 504.48 386.66 504.261C389.925 501.288 393.522 498.626 396.991 495.893Z" fill="#6795B1"/>
<path d="M396.991 495.893C396.21 497.314 395.329 498.638 394.421 499.978C396.061 499.202 396.791 497.736 398.716 497.232C392.189 503.935 387.459 511.93 381.752 519.266C371.397 532.577 359.474 545.649 346.731 556.693C334.279 567.485 321.155 577.596 308.142 587.705C299.107 594.843 289.999 601.894 280.821 608.846C272.141 615.297 250.326 629.158 244.272 636.123C264.855 663.363 272.486 704.884 267.825 738.26C265.793 752.814 261.349 767.689 254.239 780.591C255.772 792.201 252.744 794.805 252.258 804.739C251.954 810.943 252.202 817.245 252.134 823.461C251.961 833.543 251.697 843.625 251.343 853.701C251.157 859.311 251.571 866.183 250.036 871.583L249.118 872.325C248.457 871.088 248.588 869.566 248.584 868.199C248.552 857.245 249.378 846.223 249.666 835.275C249.943 824.773 249.635 814.196 250.286 803.712C250.717 796.785 254.011 790.377 252.04 783.493L251.622 781.049C255.193 773.528 258.583 766.292 261.041 758.3C272.353 721.535 267.132 682.247 249.29 648.518C247.251 644.449 244.904 640.805 242.06 637.261C238.262 639.265 234.682 641.696 231.07 644.016C230.221 643.335 229.39 643.032 228.374 642.667C229.849 641.016 238.999 636.272 241.639 634.478C251.412 627.835 260.963 620.629 270.549 613.702C287.351 601.56 303.75 588.639 319.949 575.702C332.34 565.804 345.087 556.023 356.216 544.691C364.796 535.954 373.217 526.671 380.737 517.001C384.588 512.049 388.022 506.763 391.838 501.768L387.077 504.761L386.425 504.568L386.546 505.002C386.684 504.83 386.645 504.48 386.66 504.261C389.925 501.288 393.522 498.626 396.991 495.893Z" fill="#231307"/>
<path d="M231.07 644.016C234.682 641.696 238.262 639.265 242.06 637.261C244.904 640.805 247.251 644.449 249.29 648.518C248.717 649.186 248.314 649.656 247.481 650.015C246.823 649.663 246.835 649.638 246.545 648.945C243.691 651.889 241.248 655.204 238.34 658.118C230.625 665.855 219.934 673.012 209.908 677.335C206.924 678.616 198.012 679.914 196.269 681.739C195.438 677.873 194.641 672.869 192.697 669.424C192.883 672.634 193.801 675.585 194.323 678.739C192.004 676.587 192.744 672.202 191.082 669.48C187.41 668.429 173.658 672.604 169.627 674.001L168.852 673.569C172.879 670.099 184.051 669.678 189.519 668.627L188.942 666.493C205.369 662.726 217.455 655.594 228.374 642.667C229.39 643.032 230.221 643.335 231.07 644.016Z" fill="#4F7E9B"/>
<path d="M228.374 642.667C229.39 643.032 230.221 643.335 231.07 644.016C215.024 658.124 210.947 663.029 189.519 668.627L188.942 666.493C205.369 662.726 217.455 655.594 228.374 642.667Z" fill="url(#paint0_linear_147_20)"/>
<path d="M77.1802 776.336C73.7023 772.57 70.2107 768.747 66.1946 765.537C62.9183 762.921 48.2389 755.715 47.4095 752.369C50.5021 754.113 53.4444 756.649 56.6001 758.146C58.632 759.104 61.0974 758.993 63.0736 760.181C69.547 764.071 80.9978 775.959 86.0109 781.854C87.7422 798.028 88.832 814.172 90.8682 830.334L94.9777 863.332C95.8312 870.538 97.0545 878.281 96.773 885.524L95.0603 885.382C93.2456 875.461 92.8023 864.872 91.5813 854.821C89.3893 836.785 86.7377 818.811 85.2359 800.694C84.8159 795.628 83.8516 789.888 84.5116 784.885L84.4467 784.643C83.522 781.167 79.7904 778.644 77.1802 776.336Z" fill="#040505"/>
<path d="M106.841 639.302L107.79 639.463C107.033 647.554 107.563 654.759 109.36 662.682L109.396 664.26L108.989 665.156L108.784 665.002L108.632 664.445L99.9173 664.179C99.7317 659.348 98.2961 654.734 97.5056 649.984C96.9626 646.724 96.9149 643.391 96.837 640.094C99.5832 640.112 102.233 640.144 104.953 639.68L106.841 639.302Z" fill="#6795B1"/>
<path d="M106.841 639.302L107.79 639.463C107.033 647.554 107.563 654.759 109.36 662.682L109.396 664.26L108.989 665.156L108.784 665.002L108.632 664.445C108.424 662.076 107.727 659.683 107.287 657.338C106.122 651.122 105.963 645.556 106.841 639.302Z" fill="#040505"/>
<path d="M78.9349 639.686C87.5911 639.395 96.2925 639.618 104.953 639.68C102.233 640.144 99.5832 640.112 96.837 640.094C96.9149 643.391 96.9626 646.724 97.5056 649.984C98.2961 654.734 99.7317 659.348 99.9173 664.179L108.632 664.445L108.784 665.002C102.783 665.101 96.9625 664.105 90.987 663.821C80.4894 663.32 69.4549 663.697 59.0934 662.089C55.7794 661.569 52.4659 660.308 49.3078 659.194L48.9521 659.621C49.1989 662.398 50.259 665.404 51.2691 668.008C51.647 668.979 52.028 669.944 52.32 670.946C53.4011 674.67 53.51 678.901 53.959 682.754C55.1584 693.052 55.7961 703.227 56.3144 713.575C56.6942 721.152 56.8216 728.852 57.9522 736.361C58.2646 738.433 61.3467 750.117 60.842 751.045C59.6748 749.901 59.2344 746.944 58.8336 745.373C58.1223 742.571 57.1859 739.695 56.7022 736.856C54.5027 723.96 54.9605 706.784 54.1898 693.331C53.9622 689.36 53.4265 685.389 52.9187 681.443C52.5043 678.22 52.1159 675.016 51.3254 671.862C50.1799 667.278 48.5173 662.986 48.1505 658.242C47.1571 657.704 45.7902 657.011 45.1661 656.021C49.3857 657.914 53.8372 660.165 58.332 661.266C65.5694 663.042 74.0215 662.627 81.4419 662.794C87.2727 662.949 93.1005 663.202 98.9226 663.561C97.4561 655.595 95.8449 648.154 95.8356 640.002C90.3338 640.051 84.3594 640.546 78.9349 639.686Z" fill="#32454E"/>
<path d="M53.7493 774.041C59.3086 771.017 71.9117 778.421 77.1802 776.336C79.7904 778.644 83.522 781.167 84.4467 784.643L84.5116 784.885C83.7199 784.433 82.8435 784.123 82.0016 783.771L82.6233 783.393L82.5175 782.905C80.005 781.693 77.1839 781.192 74.5274 780.375L53.7493 774.041Z" fill="#4F7E9B"/>
<path d="M194.323 678.739C193.801 675.585 192.883 672.634 192.697 669.424C194.641 672.869 195.438 677.873 196.269 681.739C198.791 694.326 203.644 711.793 203.241 724.232L203.051 724.386C200.584 709.814 198.704 692.749 194.323 678.739Z" fill="#32454E"/>
<path d="M82.0016 783.771C73.1561 781.105 64.3404 778.346 55.5542 775.489C51.4553 774.159 47.0668 773.188 43.2332 771.19C46.5733 771.221 50.5677 772.959 53.7493 774.041L74.5274 780.375C77.1839 781.192 80.005 781.693 82.5175 782.905L82.6233 783.393L82.0016 783.771Z" fill="#32454E"/>
<path d="M109.36 662.682C113.778 663.01 118.022 662.818 122.403 662.243C126.836 661.668 137.552 658.705 141.406 659.602L141.825 660.128C139.334 661.594 121.208 663.276 117.664 663.462C116.085 663.542 111.472 663.029 110.306 663.505C110.094 663.592 109.54 664.068 109.396 664.26L109.36 662.682Z" fill="#486472"/>
<path d="M43.0995 635.505L43.958 636.061C41.8284 640.886 42.0574 649.329 43.6426 654.295C43.6754 654.4 43.7125 654.499 43.7472 654.598C43.3445 654.543 43.0544 654.203 42.7359 653.955C40.529 649.056 41.5903 640.441 43.0995 635.505Z" fill="#486472"/>
<path d="M252.04 783.493C249.852 787.117 248.352 791.341 246.698 795.244C246.507 791.917 250.334 784.352 251.622 781.049L252.04 783.493Z" fill="#486472"/>
<path d="M76.5504 763.378H77.4714L79.275 768.314C81.686 768.926 84.2443 769.786 86.7239 769.953C87.4668 769.508 88.3432 768.914 89.2537 769.081C90.9089 769.378 91.5725 770.504 93.4943 770.244L94.0101 769.792L94.0256 768.463C95.6536 766.941 98.3101 767.157 100.386 767.226C106.77 767.436 133.51 769.199 138.828 771.122C139.569 771.951 139.904 772.508 140.215 773.578L141.769 773.386L141.749 773.943C139.703 774.085 136.659 774.697 134.714 774.172C122.707 774.153 89.6242 773.838 80.1527 769.217C77.8599 768.098 77.3743 765.611 76.5504 763.378Z" fill="#4F7E9B"/>
<path d="M76.5504 763.378H77.4714L79.275 768.314C81.686 768.926 84.2443 769.786 86.7239 769.953C95.5416 771.809 105.038 772.025 114.021 772.477C119.517 772.749 129.959 772.05 134.714 774.172C122.707 774.153 89.6242 773.838 80.1527 769.217C77.8599 768.098 77.3743 765.611 76.5504 763.378Z" fill="#32454E"/>
<path d="M121.129 726.687C124.615 725.277 135.466 720.552 138.708 720.787C134.045 722.803 129.285 724.38 124.614 726.372C117.234 729.52 110.112 733.101 103.002 736.806C100.318 738.557 97.0546 740.443 94.0424 741.519C93.7436 742.249 91.8052 743.573 91.0599 743.907C89.8006 744.47 89.0392 744.105 87.8355 743.697L87.4223 742.818C88.1417 741.185 90.2818 740.381 91.8534 739.744C91.4965 738.903 91.384 738.452 91.4229 737.511C95.9592 735.192 116.876 725.988 121.129 726.687Z" fill="url(#paint1_linear_147_20)"/>
<path d="M121.129 726.687C124.615 725.277 135.466 720.552 138.708 720.787C134.045 722.803 129.285 724.38 124.614 726.372C117.234 729.52 110.112 733.101 103.002 736.806C103.982 734.103 117.826 728.475 121.129 726.687Z" fill="#32454E"/>
<path d="M91.8534 739.744L92.7404 739.899L92.9952 739.714C93.5643 739.299 93.9948 738.934 94.7122 738.841L95.2355 739.349C95.0475 740.301 94.4556 740.709 94.0424 741.519C93.7436 742.249 91.8052 743.573 91.0599 743.907C89.8006 744.47 89.0392 744.105 87.8355 743.697L87.4223 742.818C88.1417 741.185 90.2818 740.381 91.8534 739.744Z" fill="url(#paint2_linear_147_20)"/>
<path d="M205.092 749.431C208.148 767.164 206.767 785.862 206.999 803.811C207.282 821.575 207.275 839.339 206.98 857.097C206.896 865.664 207.34 874.546 206.546 883.057C206.018 881.962 205.904 881.046 205.863 879.846C205.356 865.008 206.128 850.065 206.204 835.22C206.305 815.588 205.855 795.95 205.831 776.324C205.827 772.854 204.785 750.482 205.092 749.431Z" fill="#32454E"/>
<path d="M186.131 732.607L188.246 732.675C163.116 737.345 138.293 743.029 114.138 751.49C108.51 753.463 102.734 755.313 97.3125 757.805C96.5597 758.071 96.535 758.251 95.7612 757.935C96.3952 757.323 96.8913 756.939 97.7547 756.711C101.317 755.758 104.879 754.063 108.32 752.734C114.546 750.247 120.87 748.014 127.275 746.035C138.329 742.738 149.587 739.299 160.879 736.986C169.136 735.285 177.61 734.431 185.822 732.675L186.131 732.607Z" fill="#32454E"/>
<path d="M72.5708 737.344L72.8714 736.515C73.1856 737.227 73.3879 737.95 73.6007 738.693C73.7751 746.801 74.7734 755.696 77.4714 763.378H76.5504C73.2339 755.511 73.0588 745.744 72.5708 737.344Z" fill="#32454E"/>
<path d="M72.5708 737.344C71.4309 734.437 71.9711 725.982 72.8055 722.951C73.2496 727.955 73.9149 733.72 73.6007 738.693C73.3879 737.95 73.1856 737.227 72.8714 736.515L72.5708 737.344Z" fill="#4F7E9B"/>
<path d="M204.775 736.639C205.714 740.338 204.727 746.573 203.432 750.191C202.2 747.655 204.192 739.515 204.775 736.639Z" fill="#32454E"/>
<path d="M49.5494 40.4501C48.1626 35.8273 48.5999 32.2163 50.8897 27.9399C53.7392 22.6188 60.8863 14.4829 66.8637 12.7792C69.5945 12.0009 72.5226 12.6517 75.2286 11.9515C79.463 10.8558 83.6442 8.98106 87.8187 7.62018C93.1293 5.88912 98.7158 4.76062 104.18 3.638C130.862 -1.84397 175.106 -2.61082 198.903 11.9176C205.673 16.143 210.475 22.8964 212.242 30.6774L212.53 31.9275C224.4 37.7311 232.203 48.0808 236.433 60.4649C242.895 79.3837 241.801 105.177 235.855 124.125C232.676 134.254 227.565 144.542 222.87 154.068C218.017 163.918 211.315 176.755 204.599 185.359C203.596 193.767 205.04 215.895 210.012 222.115C215.038 228.404 241.367 237.926 249.975 242.043C258.232 245.991 266.38 250.165 273.968 255.31C283.241 261.656 291.467 269.408 298.35 278.289C305.769 287.95 312.692 298.75 317.797 309.83C320.215 315.08 321.611 321.173 324.737 326.044C327.54 330.412 332.005 333.669 335.474 337.513C340.735 343.345 345.539 349.72 350.141 356.074C351.566 358.042 362.261 371.963 362.07 373.469C361.987 374.119 361.716 374.757 361.491 375.37C361.805 378.059 369.87 388.133 371.803 391.38C378.3 402.293 383.415 413.865 388.97 425.258C391.799 431.061 395.158 436.636 397.68 442.583C400.982 450.368 408.657 471.199 408.275 479.377C408.032 484.559 404.909 489.836 401.773 493.801C400.821 495.005 399.89 496.235 398.716 497.232C396.791 497.736 396.061 499.202 394.421 499.978C395.329 498.638 396.21 497.314 396.991 495.893C399.786 490.648 404.933 488.226 406.016 481.293C408.497 465.396 380.466 410.943 371.361 395.41C367.334 388.605 362.918 382.037 358.135 375.739C358.777 374.708 359.014 373.92 359.171 372.718C358.809 371.638 358.592 371.138 357.664 370.454C352.414 364.206 347.867 357.366 342.944 350.861C335.712 341.304 327.277 331.379 318.484 323.229L319.596 322.231L319.772 321.16C316.656 312.391 312.619 304.573 307.888 296.576C294.055 273.2 277.581 258.072 253.104 246.248C247.667 243.622 242.131 240.987 236.544 238.686C232.176 236.888 227.619 235.377 223.35 233.364C219.58 231.586 215.93 229.345 212.312 227.274C211.289 227.327 210.659 226.918 209.794 226.448C201.234 228.966 193.362 234.145 186.058 239.14C162.408 255.314 140.746 276.902 113.415 286.895C110.258 288.049 104.868 290.001 101.626 288.192C101.034 287.862 100.134 287.032 99.9833 286.351C98.9516 281.69 102.775 274.992 104.158 270.517C104.789 268.475 105.148 266.334 105.59 264.244C105.361 263.407 104.51 262.532 103.973 261.831L101.967 259.739L100.566 258.402L100.946 258.328L101.254 257.77C98.3008 251.459 94.2587 244.238 89.8177 238.887C81.1899 241.64 72.8102 242.975 63.7915 241.604C56.8009 240.541 50.4246 236.882 46.2997 231.078C40.7261 223.237 41.2828 215.498 42.7666 206.517C41.4956 203.745 40.1676 200.999 38.784 198.281C40.0674 192.142 41.6929 182.94 40.2573 176.775C38.2904 168.327 31.3623 171.461 26.0727 167.911C23.7458 166.348 22.8298 163.575 22.4228 160.923C21.1969 152.927 33.461 143.215 37.9465 136.895C44.2962 127.947 38.0226 126.21 36.7354 117.991C35.601 110.745 38.1803 102.382 39.9078 95.4245C44.548 76.742 45.6669 67.2644 57.3749 50.8809C57.1275 50.7417 56.8832 50.5976 56.6414 50.4498C52.9605 48.1829 50.5458 44.6295 49.5494 40.4501Z" fill="#F6C7A6"/>
<path d="M49.5494 40.4501C48.1626 35.8273 48.5999 32.2163 50.8897 27.9399C53.7392 22.6188 60.8863 14.4829 66.8637 12.7792C69.5945 12.0009 72.5226 12.6517 75.2286 11.9515C79.463 10.8558 83.6442 8.98106 87.8187 7.62018C93.1293 5.88912 98.7158 4.76062 104.18 3.638C130.862 -1.84397 175.106 -2.61082 198.903 11.9176C205.673 16.143 210.475 22.8964 212.242 30.6774L212.53 31.9275C224.4 37.7311 232.203 48.0808 236.433 60.4649C242.895 79.3837 241.801 105.177 235.855 124.125C232.676 134.254 227.565 144.542 222.87 154.068C218.017 163.918 211.315 176.755 204.599 185.359C203.596 193.767 205.04 215.895 210.012 222.115C215.038 228.404 241.367 237.926 249.975 242.043C258.232 245.991 266.38 250.165 273.968 255.31C283.241 261.656 291.467 269.408 298.35 278.289C305.769 287.95 312.692 298.75 317.797 309.83C320.215 315.08 321.611 321.173 324.737 326.044C327.54 330.412 332.005 333.669 335.474 337.513C340.735 343.345 345.539 349.72 350.141 356.074C351.566 358.042 362.261 371.963 362.07 373.469C361.987 374.119 361.716 374.757 361.491 375.37C361.805 378.059 369.87 388.133 371.803 391.38C378.3 402.293 383.415 413.865 388.97 425.258C391.799 431.061 395.158 436.636 397.68 442.583C400.982 450.368 408.657 471.199 408.275 479.377C408.032 484.559 404.909 489.836 401.773 493.801C400.821 495.005 399.89 496.235 398.716 497.232C396.791 497.736 396.061 499.202 394.421 499.978C395.329 498.638 396.21 497.314 396.991 495.893C399.786 490.648 404.933 488.226 406.016 481.293C408.497 465.396 380.466 410.943 371.361 395.41C367.334 388.605 362.918 382.037 358.135 375.739C358.777 374.708 359.014 373.92 359.171 372.718C358.809 371.638 358.592 371.138 357.664 370.454C352.414 364.206 347.867 357.366 342.944 350.861C335.712 341.304 327.277 331.379 318.484 323.229L319.596 322.231L319.772 321.16C316.656 312.391 312.619 304.573 307.888 296.576C294.055 273.2 277.581 258.072 253.104 246.248C247.667 243.622 242.131 240.987 236.544 238.686C232.176 236.888 227.619 235.377 223.35 233.364C219.58 231.586 215.93 229.345 212.312 227.274C211.289 227.327 210.659 226.918 209.794 226.448C203.175 219.328 201.933 202.213 201.906 192.77C201.899 190.644 202.971 187.241 202.068 185.394C201.847 185.33 201.627 185.26 201.409 185.186C200.021 184.713 199.084 184.179 198.45 182.863L198.898 182.388L201.021 183.525C202.53 183.421 203.718 181.994 204.808 181.029C201.36 178.819 197.186 178.116 193.616 176.016L191 171.08C189.191 169.812 188.238 167.912 187.189 166.033C187.336 165.649 187.782 165.193 188.036 164.853C194.554 159.005 200.031 147.428 201.797 138.867C203.293 131.612 202.895 122.697 198.614 116.388C196.085 112.604 192.12 110.015 187.638 109.221C180.474 107.942 174.049 111.021 168.304 115.002C167.083 115.83 165.305 116.664 165.086 118.264C165.072 118.37 165.076 118.478 165.071 118.584C164.634 118.083 164.306 117.489 163.952 116.927L158.887 121.585C158.415 123.459 158.071 125.375 156.931 126.975L151.376 129.148C148.968 129.396 146.522 129.326 144.103 129.325C143.596 128.913 143.1 128.491 142.658 128.008C138.699 123.692 141.715 113.748 139.983 108.26C137.844 101.482 133.024 97.337 128.933 91.8834C123.738 84.9591 123.013 71.6287 123.263 63.2675C124.359 61.7112 125.535 60.2008 126.673 58.6743C126.721 56.3369 126.441 53.3507 127.491 51.2384C129.188 50.0304 130.754 48.3017 132.291 46.8766C128.351 46.3471 124.528 45.3092 120.625 44.5856C116.43 43.8081 112.127 43.393 107.89 42.9087C106.851 42.4783 105.664 42.4028 104.554 42.2339L103.739 42.2964C102.298 42.1542 100.915 42.6966 99.517 43.004C90.6238 44.9585 77.4988 46.0496 69.6157 40.8243C65.6293 38.182 63.7589 34.2797 62.7791 29.7348C62.4086 34.036 64.4442 36.7687 67.0939 39.9077C67.7452 40.6796 68.3131 40.9418 68.2617 41.9667L67.6593 42.4016C64.4535 44.2194 62.3264 47.1685 59.2232 48.9029C57.9831 48.9493 57.4611 48.9431 56.4046 48.1563C53.1667 45.7434 51.2672 40.7093 50.5818 36.8788L49.6534 35.6992C49.2366 37.2876 49.6762 38.8364 49.5494 40.4501Z" fill="#AD8258"/>
<path d="M49.5494 40.4501C48.1626 35.8273 48.5999 32.2163 50.8897 27.9399C53.7392 22.6188 60.8863 14.4829 66.8637 12.7792C69.5945 12.0009 72.5226 12.6517 75.2286 11.9515C79.463 10.8558 83.6442 8.98106 87.8187 7.62018C93.1293 5.88912 98.7158 4.76062 104.18 3.638C130.862 -1.84397 175.106 -2.61082 198.903 11.9176C205.673 16.143 210.475 22.8964 212.242 30.6774L212.53 31.9275C224.4 37.7311 232.203 48.0808 236.433 60.4649C242.895 79.3837 241.801 105.177 235.855 124.125C232.676 134.254 227.565 144.542 222.87 154.068C218.017 163.918 211.315 176.755 204.599 185.359C203.596 193.767 205.04 215.895 210.012 222.115C215.038 228.404 241.367 237.926 249.975 242.043C258.232 245.991 266.38 250.165 273.968 255.31C283.241 261.656 291.467 269.408 298.35 278.289C305.769 287.95 312.692 298.75 317.797 309.83C320.215 315.08 321.611 321.173 324.737 326.044C327.54 330.412 332.005 333.669 335.474 337.513C340.735 343.345 345.539 349.72 350.141 356.074C351.566 358.042 362.261 371.963 362.07 373.469C361.987 374.119 361.716 374.757 361.491 375.37C361.805 378.059 369.87 388.133 371.803 391.38C378.3 402.293 383.415 413.865 388.97 425.258C391.799 431.061 395.158 436.636 397.68 442.583C400.982 450.368 408.657 471.199 408.275 479.377C408.032 484.559 404.909 489.836 401.773 493.801C400.821 495.005 399.89 496.235 398.716 497.232C396.791 497.736 396.061 499.202 394.421 499.978C395.329 498.638 396.21 497.314 396.991 495.893C399.786 490.648 404.933 488.226 406.016 481.293C408.497 465.396 380.466 410.943 371.361 395.41C367.334 388.605 362.918 382.037 358.135 375.739C358.777 374.708 359.014 373.92 359.171 372.718C358.809 371.638 358.592 371.138 357.664 370.454C352.414 364.206 347.867 357.366 342.944 350.861C335.712 341.304 327.277 331.379 318.484 323.229L319.596 322.231L319.772 321.16C316.656 312.391 312.619 304.573 307.888 296.576C294.055 273.2 277.581 258.072 253.104 246.248C247.667 243.622 242.131 240.987 236.544 238.686C232.176 236.888 227.619 235.377 223.35 233.364C219.58 231.586 215.93 229.345 212.312 227.274C211.289 227.327 210.659 226.918 209.794 226.448C203.175 219.328 201.933 202.213 201.906 192.77C201.899 190.644 202.971 187.241 202.068 185.394C201.847 185.33 201.627 185.26 201.409 185.186C200.021 184.713 199.084 184.179 198.45 182.863L198.898 182.388L201.021 183.525C202.53 183.421 203.718 181.994 204.808 181.029L205.387 179.985C211.751 170.277 217.708 159.745 222.703 149.281C226.682 140.947 231.019 132.214 233.797 123.394C239.712 104.607 240.683 78.9415 233.978 60.2039C229.719 48.3035 222.593 38.944 211.006 33.4589L211.089 33.8004C209.589 27.763 207.743 23.3749 203.596 18.6158C192.889 6.32697 166.894 3.31587 151.513 2.29018C131.517 0.956702 110.499 3.32608 91.1984 8.72808C86.7469 9.97391 82.5292 11.8756 78.1148 13.1659C69.9596 15.5497 69.4456 11.5417 61.5093 18.5609C55.8758 23.543 51.068 29.112 50.5818 36.8788L49.6534 35.6992C49.2366 37.2876 49.6762 38.8364 49.5494 40.4501Z" fill="url(#paint3_linear_147_20)"/>
<path d="M104.554 42.2339C96.5004 39.7431 87.5275 35.4518 83.3952 27.6919C83.0902 27.1179 82.8286 26.7047 82.854 26.0324C84.9724 28.4539 87.1249 31.7296 89.5748 33.7719C97.8105 40.6382 110.175 42.2463 120.523 42.9187C123.761 43.1283 139.25 42.255 140.079 42.4894C138.067 43.9046 127.105 43.4543 126.554 44.4452C128.315 45.4515 134.446 44.4266 134.968 46.3218C132.692 48.3901 130.679 50.0267 128.739 52.4736L128.781 53.0921C129.158 59.3757 125.447 64.5534 124.979 70.618L124.95 70.9706C124.741 73.7304 125.45 76.5793 126.023 79.2681C126.722 82.5524 127.392 85.8974 128.946 88.9022C133.17 97.0686 139.248 99.8723 142.673 110.383C143.312 112.342 143.924 114.374 143.936 116.451C143.955 119.604 141.817 124.086 143.732 126.878C143.819 127.004 143.912 127.124 144.01 127.241C144.789 128.172 145.74 128.582 146.955 128.572C149.918 128.548 154.468 125.822 156.931 126.975L151.376 129.148C148.968 129.396 146.522 129.326 144.103 129.325C143.596 128.913 143.1 128.491 142.658 128.008C138.699 123.692 141.715 113.748 139.983 108.26C137.844 101.482 133.024 97.337 128.933 91.8834C123.738 84.9591 123.013 71.6287 123.263 63.2675C124.359 61.7112 125.535 60.2008 126.673 58.6743C126.721 56.3369 126.441 53.3507 127.491 51.2384C129.188 50.0304 130.754 48.3017 132.291 46.8766C128.351 46.3471 124.528 45.3092 120.625 44.5856C116.43 43.8081 112.127 43.393 107.89 42.9087C106.851 42.4783 105.664 42.4028 104.554 42.2339Z" fill="#5F3B1C"/>
<path d="M67.6593 42.4016C67.7799 41.6538 67.6449 41.5859 67.3542 40.9191C66.3411 41.0255 65.4349 41.0193 64.4199 40.9358C63.1087 40.2437 62.3571 39.5577 61.6496 38.2415C59.9585 35.0982 59.4062 30.4104 60.3736 26.9893L60.8183 27.0815L61.6081 30.1821C62.1685 28.1262 62.0034 26.2434 63.0017 24.266L63.6604 24.1206C63.6462 26.0176 63.1595 27.8823 62.7791 29.7348C62.4086 34.036 64.4442 36.7687 67.0939 39.9077C67.7452 40.6796 68.3131 40.9418 68.2617 41.9667L67.6593 42.4016Z" fill="#8E633E"/>
<path d="M187.189 166.033C187.336 165.649 187.782 165.193 188.036 164.853C189.62 168.848 190.51 167.768 192.541 170.074C194.611 172.424 194.825 175.187 198.11 176.563C200.687 177.643 203.062 178.369 205.387 179.985L204.808 181.029C201.36 178.819 197.186 178.116 193.616 176.016L191 171.08C189.191 169.812 188.238 167.912 187.189 166.033Z" fill="#795333"/>
<path d="M158.887 121.585C157.921 122.334 157.813 122.489 156.541 122.567C156.638 122.171 156.64 122.047 156.894 121.658C158.646 118.98 165.805 113.508 168.752 112.644L168.722 113.241L168.31 113.359L168.182 113.777L168.304 115.002C167.083 115.83 165.305 116.664 165.086 118.264C165.072 118.37 165.076 118.478 165.071 118.584C164.634 118.083 164.306 117.489 163.952 116.927L158.887 121.585Z" fill="#5F3B1C"/>
<path d="M168.182 113.777L168.304 115.002C167.083 115.83 165.305 116.664 165.086 118.264C165.072 118.37 165.076 118.478 165.071 118.584C164.634 118.083 164.306 117.489 163.952 116.927C165.243 115.671 166.676 114.749 168.182 113.777Z" fill="#AD8258"/>
<path d="M179.203 36.7539C183.323 35.6987 192.116 36.569 195.797 38.4388C194.215 39.3981 186.55 37.8524 183.903 38.3404C184.054 38.8656 184.1 39.1359 184.11 39.6604L183.086 39.5948L182.376 38.2446C179.324 37.8085 174.227 37.4937 171.33 38.5211C168.225 36.5306 155.713 40.791 151.624 40.9283L151.496 40.5659C153.036 39.4736 155.048 39.5373 156.843 39.0975C158.627 38.6596 160.243 37.9514 162.082 37.6403C167.606 36.7075 173.177 37.2995 178.719 36.7997L179.203 36.7539Z" fill="#795333"/>
<path d="M107.593 23.4526C109.261 24.0568 111.664 26.9063 113.17 28.0871C121.467 34.5933 129.876 36.1718 140.083 36.9134C138.354 37.626 135.52 37.2753 133.703 36.9326C126.524 36.778 120.387 33.9711 113.866 31.3523L115.216 32.1978C114.193 31.8755 113.238 31.5001 112.299 30.9805C109.742 29.5678 106.251 27.2187 105.436 24.2349C105.412 24.1465 105.394 24.0574 105.373 23.9683L105.331 23.9541C106.08 23.8081 106.037 23.8873 106.691 24.17L107.593 23.4526Z" fill="#8E633E"/>
<path d="M153.129 6.86054C159.676 8.29081 165.479 12.6321 170.037 17.3655C171.869 19.2681 176.92 24.7087 176.862 27.3541L175.381 27.513C175.33 28.2819 175.524 28.7779 175.799 29.4762L175.91 29.7509L175.172 30.1418C174.191 26.8234 171.5 23.7932 169.82 20.7424C170.58 21.1272 171.221 21.7239 171.879 22.2592L172.088 21.8314C168.53 14.9614 159.548 10.5326 153.129 6.86054Z" fill="#8E633E"/>
<path d="M177.36 9.19329C179.34 9.3251 182.085 10.8795 183.801 11.8643C191.105 16.0557 197.95 23.3004 200.243 31.5573C198.099 30.3252 194.456 22.5155 192.363 20.0131C188.329 15.1909 182.472 13.0487 177.616 9.39116C177.53 9.32627 177.445 9.25922 177.36 9.19329Z" fill="#8E633E"/>
<path d="M195.519 47.6009C199.918 48.6166 204.444 52.9642 207.217 56.2955C210.88 60.6939 213.992 65.7855 213.482 71.6801C213.531 71.3436 213.562 71.2582 213.507 70.8735C213.356 69.8282 212.714 68.4972 212.375 67.4655C209.325 58.1956 202.648 53.9346 195.831 47.8818L195.519 47.6009Z" fill="#8E633E"/>
<path d="M193.844 41.281C197.984 41.4437 201.931 42.4315 205.616 44.3761C208.172 45.7251 210.608 47.4081 211.492 50.2781C207.958 47.5603 203.825 44.1268 199.334 43.3017C197.512 42.9665 195.543 43.1613 193.798 42.5453L193.844 41.281Z" fill="#795333"/>
<path d="M144.736 59.7214C147.243 62.3383 148.889 65.5342 151.25 68.2452C154.367 71.8215 158.382 74.6309 161.913 77.781C161.184 77.6394 160.558 77.4798 159.894 77.1359C153.869 74.0148 146.932 66.1274 144.736 59.7214Z" fill="#8E633E"/>
<path d="M204.853 144.889C205.907 146.849 206.9 160.59 206.518 162.912C204.406 157.576 203.987 150.481 204.853 144.889Z" fill="#8E633E"/>
<path d="M199.77 156.117C201.914 157.956 202.56 162.167 203.235 164.824C200.863 163.097 200.459 158.891 199.77 156.117Z" fill="#8E633E"/>
<path d="M187.189 166.033C188.238 167.912 189.191 169.812 191 171.08L193.616 176.016C197.186 178.116 201.36 178.819 204.808 181.029C203.718 181.994 202.53 183.421 201.021 183.525L198.898 182.388L198.45 182.863C199.084 184.179 200.021 184.713 201.409 185.186C201.627 185.26 201.847 185.33 202.068 185.394C202.971 187.241 201.899 190.644 201.906 192.77C201.933 202.213 203.175 219.328 209.794 226.448C201.234 228.966 193.362 234.145 186.058 239.14C162.408 255.314 140.746 276.902 113.415 286.895C110.258 288.049 104.868 290.001 101.626 288.192C101.034 287.862 100.134 287.032 99.9833 286.351C98.9516 281.69 102.775 274.992 104.158 270.517C104.789 268.475 105.148 266.334 105.59 264.244C107.096 266.746 109.617 272.336 111.892 273.845C111.676 270.647 109.557 267.384 108.06 264.599C111.989 261.356 113.158 255.77 116.301 251.822C117.199 250.695 118.506 250.022 119.396 248.873C124.091 242.804 128.176 236.193 132.923 230.088C136.733 225.189 141.043 220.526 144.38 215.291C146.185 212.46 147.845 210.58 147.089 207.135C154.383 198.631 157.456 186.454 158.92 175.638C159.865 176.319 160.824 177.02 161.867 177.546C165.418 179.338 168.505 178.972 172.151 177.723C177.414 174.919 183.255 170.527 187.189 166.033Z" fill="#F6C7A6"/>
<path d="M187.189 166.033C188.238 167.912 189.191 169.812 191 171.08C188.43 171.909 187.502 173.592 186.108 175.725C182.143 177.35 176.696 179.406 172.459 177.853C172.354 177.815 172.254 177.767 172.151 177.723C177.414 174.919 183.255 170.527 187.189 166.033Z" fill="#E7AE8A"/>
<path d="M155.993 218.776C155.404 224.094 147.315 238.343 144.1 243.58C144.055 243.284 143.849 242.568 143.906 242.307C144.144 241.213 154.747 220.748 155.993 218.776Z" fill="#AD8258"/>
<path d="M138.988 256.736C139.194 256.935 139.303 257.292 139.425 257.552C138.554 259.994 136.862 262.133 135.403 264.258L134.977 263.647C135.827 261.208 137.601 258.91 138.988 256.736Z" fill="#E7AE8A"/>
<path d="M147.089 207.135C147.845 210.58 146.185 212.46 144.38 215.291C141.043 220.526 136.733 225.189 132.923 230.088C128.176 236.193 124.091 242.804 119.396 248.873C118.506 250.022 117.199 250.695 116.301 251.822C113.158 255.77 111.989 261.356 108.06 264.599C102.869 255.789 98.0521 246.344 91.8094 238.241L106.738 233.814C102.51 234.366 98.3218 234.928 94.1492 235.822C94.4004 235.182 94.7344 233.976 95.2614 233.532C97.0773 232.003 110.694 228.579 114.105 227.171C117.636 225.713 120.42 222.724 124.375 222.333C126.362 221.254 128.288 220.024 130.231 218.865L131.287 219.419C137.151 216.028 142.274 211.877 147.089 207.135Z" fill="#E7AE8A"/>
<path d="M124.375 222.333C126.362 221.254 128.288 220.024 130.231 218.865L131.287 219.419C129.409 220.572 126.69 222.484 124.375 222.333Z" fill="#8E633E"/>
<path d="M62.7791 29.7348C63.7589 34.2797 65.6293 38.182 69.6157 40.8243C77.4988 46.0496 90.6238 44.9585 99.517 43.004C100.915 42.6966 102.298 42.1542 103.739 42.2964C94.6875 46.5791 83.5281 46.6826 73.8871 44.3291C72.5567 43.6945 71.2331 43.0599 69.8704 42.4958C66.4302 44.9223 63.2158 47.149 60.678 50.5762C48.7108 65.6311 46.0183 79.1514 41.7598 97.3848C40.6062 102.324 38.387 107.401 38.9981 112.561C39.5764 117.448 43.9753 121.097 44.4763 124.634L44.9025 125.708C43.8046 130.292 42.3826 133.945 39.736 137.872C37.5681 141.088 35.0346 144.039 32.5011 146.969C28.9143 151.116 21.646 157.544 25.3875 163.612C26.828 165.949 29.4209 167.255 31.8925 168.23C34.9164 169.077 39.0284 169.713 40.7411 172.642C41.1883 173.407 41.5043 174.307 41.8247 175.132C42.8335 180.5 42.2305 186.192 41.5155 191.574C49.3293 187.196 61.3806 188.507 69.8655 190.831C71.3493 191.237 72.5975 191.908 73.4022 193.268C73.5871 193.581 73.7319 193.907 73.8717 194.243L73.5952 195.134C72.1169 194.568 71.8268 193.315 70.137 192.726C64.206 190.658 50.361 189.1 44.6656 191.591C43.2133 192.226 41.8161 193.156 41.213 194.689C40.5772 196.305 40.8852 198.45 41.6367 199.972C41.8557 200.415 42.1136 200.837 42.3746 201.256C42.7927 201.952 43.2133 202.839 43.7211 203.46L43.8788 203.888C45.3268 207.904 43.9129 212.68 43.7589 216.858C43.4446 225.386 49.4895 233.679 56.9241 237.304C68.5913 242.992 82.388 239.164 94.1492 235.822C98.3218 234.928 102.51 234.366 106.738 233.814L91.8094 238.241C98.0521 246.344 102.869 255.789 108.06 264.599C109.557 267.384 111.676 270.647 111.892 273.845C109.617 272.336 107.096 266.746 105.59 264.244C105.361 263.407 104.51 262.532 103.973 261.831L101.967 259.739L100.566 258.402L100.946 258.328L101.254 257.77C98.3008 251.459 94.2587 244.238 89.8177 238.887C81.1899 241.64 72.8102 242.975 63.7915 241.604C56.8009 240.541 50.4246 236.882 46.2997 231.078C40.7261 223.237 41.2828 215.498 42.7666 206.517C41.4956 203.745 40.1676 200.999 38.784 198.281C40.0674 192.142 41.6929 182.94 40.2573 176.775C38.2904 168.327 31.3623 171.461 26.0727 167.911C23.7458 166.348 22.8298 163.575 22.4228 160.923C21.1969 152.927 33.461 143.215 37.9465 136.895C44.2962 127.947 38.0226 126.21 36.7354 117.991C35.601 110.745 38.1803 102.382 39.9078 95.4245C44.548 76.742 45.6669 67.2644 57.3749 50.8809C57.1275 50.7417 56.8832 50.5976 56.6414 50.4498C52.9605 48.1829 50.5458 44.6295 49.5494 40.4501C49.6762 38.8364 49.2366 37.2876 49.6534 35.6992L50.5818 36.8788C51.2672 40.7093 53.1667 45.7434 56.4046 48.1563C57.4611 48.9431 57.9831 48.9493 59.2232 48.9029C62.3264 47.1685 64.4535 44.2194 67.6593 42.4016L68.2617 41.9667C68.3131 40.9418 67.7452 40.6796 67.0939 39.9077C64.4442 36.7687 62.4086 34.036 62.7791 29.7348Z" fill="#231307"/>
<path d="M104.554 42.2339C105.664 42.4028 106.851 42.4783 107.89 42.9087C112.127 43.393 116.43 43.8081 120.625 44.5856C124.528 45.3092 128.351 46.3471 132.291 46.8766C130.754 48.3017 129.188 50.0304 127.491 51.2384L126.07 50.3127C119.197 51.4211 111.214 49.9546 104.199 49.9979C94.3905 50.0585 84.791 51.5461 74.9051 50.7253C72.8535 50.5546 71.2818 49.9329 69.4534 49.0194C66.4406 49.9583 63.8442 50.4376 60.678 50.5762C63.2158 47.149 66.4302 44.9223 69.8704 42.4958C71.2331 43.0599 72.5567 43.6945 73.8871 44.3291C83.5281 46.6826 94.6875 46.5791 103.739 42.2964L104.554 42.2339Z" fill="#E7AE8A"/>
<path d="M104.554 42.2339C105.664 42.4028 106.851 42.4783 107.89 42.9087C107.496 43.1815 107.375 43.3883 106.888 43.3704C104.157 43.2702 101.17 44.5926 98.5101 45.2049C95.6074 45.873 82.371 47.9914 79.9389 47.7601C78.2924 47.603 75.1601 45.4381 73.8871 44.3291C83.5281 46.6826 94.6875 46.5791 103.739 42.2964L104.554 42.2339Z" fill="#CB9C78"/>
<path d="M168.304 115.002C174.049 111.021 180.474 107.942 187.638 109.221C192.12 110.015 196.085 112.604 198.614 116.388C202.895 122.697 203.293 131.612 201.797 138.867C200.031 147.428 194.554 159.005 188.036 164.853C187.782 165.193 187.336 165.649 187.189 166.033C183.255 170.527 177.414 174.919 172.151 177.723C168.505 178.972 165.418 179.338 161.867 177.546C160.824 177.02 159.865 176.319 158.92 175.638C157.456 186.454 154.383 198.631 147.089 207.135C142.274 211.877 137.151 216.028 131.287 219.419L130.231 218.865C133.625 216.735 136.979 214.363 140.021 211.752C151.852 201.593 156.14 186.668 157.303 171.682C158.396 172.789 159.493 173.929 160.813 174.766C163.455 176.406 166.644 176.917 169.666 176.184C177.96 174.191 188.01 163.695 192.27 156.659C198.241 146.798 203.216 134.827 200.175 123.17C199.061 118.899 196.766 115.299 192.9 113.047C184.364 108.077 177.6 110.873 170.136 115.852C168.873 116.694 167.171 118.172 165.68 118.479C165.478 118.52 165.273 118.549 165.071 118.584C165.076 118.478 165.072 118.37 165.086 118.264C165.305 116.664 167.083 115.83 168.304 115.002Z" fill="#391C0A"/>
<path d="M51.2578 108.581C51.5702 112.094 51.4255 115.737 53.8736 118.529C54.9715 119.024 55.4731 119.282 56.7064 118.91C62.0301 117.306 65.2377 110.437 70.7215 108.312C73.456 107.253 76.6204 107.034 79.5145 106.697C82.8762 106.306 86.1117 105.913 89.307 107.312C92.1188 108.543 94.0609 111.007 95.9988 113.286C90.398 110.854 85.1956 109.562 79.2665 111.918C71.7143 114.92 66.9659 122.071 59.149 124.73C58.027 124.605 56.9452 124.126 55.8881 123.739C53.1147 121.166 51.1014 118.451 50.9381 114.513C50.8601 112.627 50.9888 110.448 51.2578 108.581Z" fill="#391C0A"/>
<path d="M80.474 108.178C84.2742 107.722 87.1546 107.719 90.6289 109.513C88.2432 109.719 85.8879 109.169 83.4534 109.384C75.7367 110.066 69.9745 116.407 64.1418 120.905C62.9067 121.673 61.5379 122.535 60.0961 122.817C58.5844 123.113 56.6144 123.337 55.279 122.481C54.9685 121.688 55.0291 121.531 55.1906 120.682C62.9512 118.261 66.2665 110.702 72.5061 108.985C74.9468 108.313 77.9399 108.363 80.474 108.178Z" fill="#AD8258"/>
<path d="M31.8925 168.23C33.6831 166.977 34.5114 164.466 37.0109 164.237C38.8034 164.073 41.0703 165.741 42.4657 166.733C47.1664 165.81 53.3028 165.244 57.4983 168.094C57.5781 168.147 57.6554 168.204 57.7333 168.259L58.8936 167.777L59.9921 168.092C59.2029 169.329 58.3605 170.291 57.3053 171.308C54.577 171.93 43.1744 173.528 41.8247 175.132C41.5043 174.307 41.1883 173.407 40.7411 172.642C39.0284 169.713 34.9164 169.077 31.8925 168.23Z" fill="#E7AE8A"/>
<path d="M42.4657 166.733C47.1664 165.81 53.3028 165.244 57.4983 168.094C57.5781 168.147 57.6554 168.204 57.7333 168.259C53.7673 168.039 49.8481 167.016 45.8456 167.334C44.0321 167.477 42.2576 168.064 40.4583 168.352L40.214 167.968L42.4657 166.733Z" fill="#231307"/>
<path d="M45.0051 201.083C47.8145 201.591 54.6114 202.115 56.313 204.439C57.276 205.754 57.7362 207.423 58.6157 208.8C59.7594 210.589 61.0942 211.961 62.0566 213.907L61.8766 214.46C59.4538 213.415 57.7845 208.753 56.5456 206.518C53.0719 202.396 48.1324 204.379 45.0051 201.083Z" fill="#CB9C78"/>
<path d="M59.9605 152.788C61.8785 153.561 63.5887 154.613 64.42 156.618C65.3039 158.751 64.6916 161.019 63.7774 163.024C62.8694 165.014 61.6053 166.627 59.9921 168.092L58.8936 167.777C60.8729 165.402 63.4285 162.095 63.4118 158.864C63.4013 156.86 62.3938 155.727 61.0491 154.4L59.9605 152.788Z" fill="#391C0A"/>
<path d="M42.3746 201.256L45.0051 201.083C48.1324 204.379 53.0719 202.396 56.5456 206.518C53.4109 206.013 46.4482 202.649 43.7211 203.46C43.2133 202.839 42.7927 201.952 42.3746 201.256Z" fill="#E7AE8A"/>
<path d="M44.4763 124.634C45.4511 124.817 46.3535 125.11 47.3054 124.71C47.3419 123.617 47.0129 123.036 46.4896 122.085L46.2886 121.728L46.5564 121.525L48.9575 123.628C51.0178 123.938 53.98 124.669 55.8881 123.739C56.9452 124.126 58.027 124.605 59.149 124.73C54.9102 126.215 49.4035 125.431 44.9025 125.708L44.4763 124.634Z" fill="#8E633E"/>
<path d="M144.103 129.325C146.522 129.326 148.968 129.396 151.376 129.148C151.001 129.84 150.629 130.597 150.169 131.236C149.486 132.184 148.946 132.206 147.887 132.372C146.289 131.755 145.272 130.528 144.103 129.325Z" fill="#E7AE8A"/>
<path d="M61.0491 154.4C57.6039 152.612 54.7054 153.816 51.3486 152.698C51.6103 152.57 51.7655 152.482 52.0309 152.394C54.367 151.622 57.7548 151.775 59.9605 152.788L61.0491 154.4Z" fill="#8E633E"/>
<path d="M183.194 118.192C183.896 118.18 184.597 118.173 185.298 118.213C187.798 118.357 190.805 119.724 192.389 121.697C194.049 123.765 194.444 126.121 194.113 128.685C193.316 128.214 192.396 125.056 191.925 124.056C190.92 121.929 189.446 120.568 187.166 119.847C185.196 119.223 183.123 119.687 181.359 120.674C176.848 123.198 172.302 129.931 170.92 134.827C172.783 134.421 174.713 134.289 176.607 134.085C177.92 134.894 179.16 135.724 180.142 136.937C182.454 139.79 182.949 144.052 182.654 147.595C182.398 150.663 181.459 152.919 179.077 154.975C177.711 155.196 176.222 155.366 174.923 155.85C172.337 156.815 167.878 160.314 165.265 159.497L164.55 157.954C166.881 147.724 168.242 149.18 165.349 138.27C166.127 139.568 166.948 140.894 167.522 142.297C169.909 148.136 168.028 153.108 165.795 158.596C170.656 156.424 175.922 154.602 180.366 151.66C181.197 148.16 181.84 143.345 180.523 139.892C177.928 133.084 172.528 137.804 168.811 136.254C168.725 135.619 168.727 135.173 168.939 134.555C171.209 127.921 176.847 121.091 183.194 118.192Z" fill="#391C0A"/>
<path d="M67.5615 125.264C74.0443 123.835 79.0419 123.62 85.4325 125.48C83.9914 125.541 81.9478 125.693 80.6223 126.273C80.4992 126.326 80.3786 126.385 80.2573 126.441C85.6218 126.507 91.0376 126.42 96.3928 126.71C89.7275 128.435 82.7153 129.585 75.9561 131.001C71.966 131.657 67.4706 131.788 63.4947 130.979L64.2481 130.005L64.1677 129.015C64.9111 127.528 66.3678 126.401 67.5615 125.264Z" fill="#391C0A"/>
<path d="M67.5615 125.264C74.0443 123.835 79.0419 123.62 85.4325 125.48C83.9914 125.541 81.9478 125.693 80.6223 126.273C80.4992 126.326 80.3786 126.385 80.2573 126.441C78.0529 126.611 75.7878 126.684 73.6007 126.987C70.038 127.321 67.3803 128.299 64.2481 130.005L64.1677 129.015C64.9111 127.528 66.3678 126.401 67.5615 125.264Z" fill="#AD8258"/>
<path d="M73.6007 126.987C74.1592 126.977 74.7265 126.993 75.2813 126.923L76.0631 127.71L76.4596 127.642L76.0136 127.123L76.7571 127.655L77.3663 127.436L76.7651 127.328L77.3769 127.649C76.3291 128.252 75.6691 128.441 75.0927 129.522C75.366 130.026 75.6178 130.538 75.9561 131.001C71.966 131.657 67.4706 131.788 63.4947 130.979L64.2481 130.005C67.3803 128.299 70.038 127.321 73.6007 126.987Z" fill="#231307"/>
<path d="M67.8876 77.3746C67.6426 80.2267 60.7226 89.113 58.8064 92.5353C57.142 95.5073 55.7515 98.4688 54.6524 101.699C54.4124 101.188 54.3351 101.119 54.3481 100.508C54.4502 95.6508 64.508 80.4314 67.8876 77.3746Z" fill="#E7AE8A"/>
<path d="M74.8124 171.872C74.9237 171.909 75.0394 171.936 75.147 171.983C80.0723 174.132 83.6579 184.432 85.373 189.323C81.5982 185.999 78.9682 176.593 74.8124 171.872Z" fill="#5F3B1C"/>
<path d="M65.2111 133.895C67.2138 134.79 68.9135 136.278 70.6361 137.617C74.359 137.452 80.0828 135.256 83.4556 136.96C78.6658 136.567 72.8436 140.156 68.3717 137.755C66.9145 136.973 65.7411 135.434 65.2111 133.895Z" fill="#8E633E"/>
<path d="M196.327 136.134C196.365 136.248 196.418 136.358 196.443 136.476C197.142 139.864 192.632 149.407 190.805 152.549C190.692 149.517 195.103 139.572 196.327 136.134Z" fill="#AD8258"/>
<path d="M267.079 434.083C267.059 433.008 267.045 431.922 267.145 430.85C268.496 416.321 284.324 399.128 295.294 390.352C308.807 379.541 326.975 369.633 344.703 369.217C349.119 369.113 353.303 369.965 357.664 370.454C358.592 371.138 358.809 371.638 359.171 372.718C359.014 373.92 358.777 374.708 358.135 375.739C362.918 382.037 367.334 388.605 371.361 395.41C380.466 410.943 408.497 465.396 406.016 481.293C404.933 488.226 399.786 490.648 396.991 495.893C393.522 498.626 389.925 501.288 386.66 504.261C386.645 504.48 386.684 504.83 386.546 505.002L386.425 504.568L387.077 504.761L391.838 501.768C388.022 506.763 384.588 512.049 380.737 517.001C373.217 526.671 364.796 535.954 356.216 544.691C345.087 556.023 332.34 565.804 319.949 575.702C303.75 588.639 287.351 601.56 270.549 613.702C260.963 620.629 251.412 627.835 241.639 634.478C238.999 636.272 229.849 641.016 228.374 642.667C217.455 655.594 205.369 662.726 188.942 666.493L189.519 668.627C184.051 669.678 172.879 670.099 168.852 673.569C168.733 673.575 168.615 673.581 168.497 673.587L167.243 673.624C162.036 673.804 155.347 672.195 151.493 668.478C148.884 665.961 147.33 662.077 147.314 658.483L147.315 658.007L146.567 657.332C147.793 657.308 149.009 657.53 150.221 657.481C152.111 657.233 153.82 656.695 155.279 655.433L154.999 654.926C152.453 654.079 149.854 656.002 147.068 655.545C144.148 655.068 141.643 653.689 139.923 651.234C138.19 648.784 137.494 645.753 137.987 642.791C139.196 635.907 142.795 639.321 146.293 636.581C146.958 636.061 146.79 635.956 146.874 635.183C145.297 634.465 140.43 635.987 138.709 636.34C136.046 635.214 133.913 633.89 131.902 631.781C129.603 629.369 127.668 626.115 127.878 622.664C128.062 619.652 129.779 617.518 132.001 615.687L131.154 614.104C129.561 612.013 127.328 610.256 126.05 607.931C124.617 605.327 124.312 601.882 125.125 599.036C128.429 587.476 141.176 586.907 150.606 584.26C155.044 583.017 159.18 581.211 163.182 578.924L161.73 578.199C155.368 580.957 149.852 582.72 143.013 583.802C146.956 579.664 150.66 571.698 156.825 571.518C160.069 571.424 186.911 576.162 190.235 577.395C197.424 580.064 201.56 588.992 210.378 587.501L210.369 587.272C210.992 587.025 211.207 586.864 211.584 586.313C215.571 583.388 219.775 580.703 223.87 577.933C222.715 574.421 221.38 570.667 221.501 566.926C221.78 558.258 227.596 557.228 222.892 547.077C222.174 545.528 221.275 543.658 221.799 541.926C222.958 538.093 229.777 528.236 232.254 523.789C235.7 517.596 238.603 511.153 241.844 504.859C246.618 495.588 251.976 486.245 255.53 476.434L255.731 475.872C257.148 473.88 258.09 470.877 259.049 468.611C262.056 461.513 268.48 442.582 272.398 437.476C271.629 436.724 271.055 436.078 270.004 435.768L268.332 436.872C268.379 435.829 268.512 434.826 268.134 433.83L267.079 434.083Z" fill="#F6C7A6"/>
<path d="M272.398 437.476L273.657 438.282L273.462 438.755C278.586 445.874 287.152 453.776 294.967 457.853C297.673 459.266 301.187 460.051 303.678 461.641C304.556 461.163 304.655 460.881 305.154 460.044C308.857 455.821 313.217 450.627 317.75 447.36C309.791 458.265 301.063 467.194 294.066 478.914C288.084 488.934 282.268 499.34 277.41 509.95C273.49 518.517 270.334 527.574 265.542 535.704C262.051 541.628 257.309 546.998 252.846 552.203C242.683 564.055 233.154 574.517 219.999 583.165C218.218 584.334 215.82 586.221 213.792 586.845C212.255 587.569 212.009 587.86 210.378 587.501L210.369 587.272C210.992 587.025 211.207 586.864 211.584 586.313C215.571 583.388 219.775 580.703 223.87 577.933C222.715 574.421 221.38 570.667 221.501 566.926C221.78 558.258 227.596 557.228 222.892 547.077C222.174 545.528 221.275 543.658 221.799 541.926C222.958 538.093 229.777 528.236 232.254 523.789C235.7 517.596 238.603 511.153 241.844 504.859C246.618 495.588 251.976 486.245 255.53 476.434L255.731 475.872C257.148 473.88 258.09 470.877 259.049 468.611C262.056 461.513 268.48 442.582 272.398 437.476Z" fill="white"/>
<path d="M272.398 437.476L273.657 438.282L273.462 438.755C271.183 442.624 270.023 447.689 268.42 451.916C266.064 458.132 263.343 464.243 260.82 470.398C255.179 484.155 248.683 497.079 241.855 510.266C236.042 521.492 230.2 532.903 222.828 543.212C225.459 547.063 227.596 550.526 226.726 555.384C224.819 566.041 222.264 565.01 225.466 576.937C237.527 567.645 257.338 545.906 264.808 532.637C268.66 525.794 271.338 518.057 274.584 510.888C279.851 499.252 294.579 469.759 303.678 461.641C304.556 461.163 304.655 460.881 305.154 460.044C308.857 455.821 313.217 450.627 317.75 447.36C309.791 458.265 301.063 467.194 294.066 478.914C288.084 488.934 282.268 499.34 277.41 509.95C273.49 518.517 270.334 527.574 265.542 535.704C262.051 541.628 257.309 546.998 252.846 552.203C242.683 564.055 233.154 574.517 219.999 583.165C218.218 584.334 215.82 586.221 213.792 586.845C212.255 587.569 212.009 587.86 210.378 587.501L210.369 587.272C210.992 587.025 211.207 586.864 211.584 586.313C215.571 583.388 219.775 580.703 223.87 577.933C222.715 574.421 221.38 570.667 221.501 566.926C221.78 558.258 227.596 557.228 222.892 547.077C222.174 545.528 221.275 543.658 221.799 541.926C222.958 538.093 229.777 528.236 232.254 523.789C235.7 517.596 238.603 511.153 241.844 504.859C246.618 495.588 251.976 486.245 255.53 476.434L255.731 475.872C257.148 473.88 258.09 470.877 259.049 468.611C262.056 461.513 268.48 442.582 272.398 437.476Z" fill="url(#paint4_linear_147_20)"/>
<path d="M267.079 434.083C267.059 433.008 267.045 431.922 267.145 430.85C268.496 416.321 284.324 399.128 295.294 390.352C308.807 379.541 326.975 369.633 344.703 369.217C349.119 369.113 353.303 369.965 357.664 370.454C358.592 371.138 358.809 371.638 359.171 372.718C359.014 373.92 358.777 374.708 358.135 375.739C357.189 374.612 356.291 373.492 355.462 372.273C340.312 368.482 323.116 374.6 310.103 382.375C291.876 393.265 274.954 409.55 268.772 430.391C282.259 444.128 285.926 452.238 305.154 460.044C304.655 460.881 304.556 461.163 303.678 461.641C301.187 460.051 297.673 459.266 294.967 457.853C287.152 453.776 278.586 445.874 273.462 438.755L273.657 438.282L272.398 437.476C271.629 436.724 271.055 436.078 270.004 435.768L268.332 436.872C268.379 435.829 268.512 434.826 268.134 433.83L267.079 434.083Z" fill="#391C0A"/>
<path d="M146.567 657.332C147.793 657.308 149.009 657.53 150.221 657.481C149.403 658.86 149.752 660.376 150.129 661.86C150.881 664.817 152.842 666.641 155.401 668.126C159.384 670.445 165.852 672.09 170.407 670.835C171.541 670.519 172.366 670.204 172.909 669.097C172.939 669.035 172.946 668.961 172.965 668.893C171.331 668.305 169.653 667.897 167.973 667.464C174.989 667.513 182.033 667.94 188.942 666.493L189.519 668.627C184.051 669.678 172.879 670.099 168.852 673.569C168.733 673.575 168.615 673.581 168.497 673.587L167.243 673.624C162.036 673.804 155.347 672.195 151.493 668.478C148.884 665.961 147.33 662.077 147.314 658.483L147.315 658.007L146.567 657.332Z" fill="url(#paint5_linear_147_20)"/>
<path d="M131.154 614.104C132.87 613.213 134.54 612.099 136.541 612.236L136.859 612.805C135.782 614.388 133.655 614.846 132.001 615.687L131.154 614.104Z" fill="#391C0A"/>
<path d="M210.378 587.501C212.009 587.86 212.255 587.569 213.792 586.845C212.229 588.509 210.578 590.662 208.556 591.744L208.291 591.107C208.861 589.796 209.589 588.682 210.378 587.501Z" fill="#391C0A"/>
<path d="M161.73 578.199C161.83 578.155 161.931 578.113 162.03 578.068C163.071 577.599 163.754 577.099 164.558 576.296C165.622 576.166 166.126 576.22 167.137 576.578L166.894 577.408L166.586 576.263L167.006 577.401C165.885 578.656 164.644 578.423 163.182 578.924L161.73 578.199Z" fill="#391C0A"/>
<path d="M345.831 474.486C345.232 477.242 325.017 496.906 321.648 500.375L321.639 500.012C325.26 493.164 339.626 480.141 345.831 474.486Z" fill="#8E633E"/>
<path d="M275.005 602.03C275.223 602.259 275.16 602.531 275.185 602.84C267.37 608.24 259.648 616.231 250.943 619.998L250.798 619.942C251.506 618.421 272.185 603.725 275.005 602.03Z" fill="#CB9C78"/>
<path d="M145.025 590.445L146.432 590.693C144.001 591.59 141.646 592.542 139.686 594.286C136.842 596.822 136.856 600.453 136.641 603.985L136.673 604.504L136.35 604.597C136.275 604.418 136.193 604.245 136.124 604.065C135.211 601.665 135.886 598.851 136.921 596.606C138.553 593.068 141.574 591.713 145.025 590.445Z" fill="#AD8258"/>
<path d="M389.767 468.795C391.967 472.014 391.018 478.739 390.63 482.401L390.482 482.384C389.522 480.92 389.858 471.268 389.767 468.795Z" fill="#8E633E"/>
<path d="M234.104 636.445L234.305 636.624C232.079 639.309 227.502 641.585 224.429 643.267L224.317 643.187C224.859 641.27 232.17 637.565 234.104 636.445Z" fill="#5F3B1C"/>
<path d="M155.554 649.397C157.81 649.7 160.073 651.017 162.267 651.648C163.63 652.038 165.169 652.131 166.575 652.378C166.16 652.483 165.743 652.576 165.325 652.662C161.327 653.491 158.717 651.481 155.554 649.397Z" fill="#8E633E"/>
<path d="M151.096 631.392C153.55 631.058 158.403 630.724 160.59 631.787C160.477 631.831 160.367 631.874 160.252 631.905C157.46 632.703 153.677 632.857 151.096 631.392Z" fill="#AD8258"/>
<path d="M142.871 618.1C143.321 619.664 143.057 625.429 142.873 627.217C142.651 626.79 142.434 626.369 142.246 625.93C141.021 623.054 141.75 620.809 142.871 618.1Z" fill="#8E633E"/>
<path d="M139.732 608.03C142.311 608.413 145.121 609.038 147.565 609.935C147.482 609.96 147.4 609.991 147.316 610.015C144.454 610.727 142.132 609.378 139.732 608.03Z" fill="#8E633E"/>
<path d="M22.4376 386.626C23.2664 388.409 23.713 389.647 23.8336 391.641C23.8788 392.38 23.9512 393.119 24.0044 393.857C23.8837 399.22 23.5213 404.583 23.4866 409.946C23.4421 416.984 23.8373 423.94 22.9362 430.944C21.0391 445.688 16.8338 460.028 15.3197 474.857C12.7522 500.008 13.9168 525.073 16.4101 550.168C17.3985 560.113 18.4079 570.285 20.3297 580.092C23.7099 597.342 28.6996 613.881 34.1815 630.556C34.3448 630.581 34.5087 630.6 34.672 630.624C39.9765 631.398 44.7206 634.583 50.0095 635.585C62.3176 637.923 95.5607 638.95 108.12 637.131C106.753 636.68 105.439 636.204 104.124 635.616L104.185 635.164C108.406 634.348 113.351 636.989 117.555 637.564C122.48 638.238 128.066 636.927 133.023 636.587C129.539 632.789 125.438 628.361 125.698 622.831C125.845 619.689 127.394 617.345 129.367 615.013C125.802 611.537 122.58 608.178 122.566 602.859C122.554 598.152 125.129 593.89 128.407 590.699C133.209 586.016 137.669 585.614 140.945 582.714C145.419 578.752 148.167 573.13 152.911 569.349L152.87 568.831L153.251 568.805C158.632 568.809 163.485 569.83 168.676 571.105C175.136 572.152 185.06 572.723 190.724 575.171C198.469 578.519 202.6 584.934 211.584 586.313C211.207 586.864 210.992 587.025 210.369 587.272L210.378 587.501C201.56 588.992 197.424 580.064 190.235 577.395C186.911 576.162 160.069 571.424 156.825 571.518C150.66 571.698 146.956 579.664 143.013 583.802C149.852 582.72 155.368 580.957 161.73 578.199L163.182 578.924C159.18 581.211 155.044 583.017 150.606 584.26C141.176 586.907 128.429 587.476 125.125 599.036C124.312 601.882 124.617 605.327 126.05 607.931C127.328 610.256 129.561 612.013 131.154 614.104L132.001 615.687C129.779 617.518 128.062 619.652 127.878 622.664C127.668 626.115 129.603 629.369 131.902 631.781C133.913 633.89 136.046 635.214 138.709 636.34C140.43 635.987 145.297 634.465 146.874 635.183C146.79 635.956 146.958 636.061 146.293 636.581C142.795 639.321 139.196 635.907 137.987 642.791C137.494 645.753 138.19 648.784 139.923 651.234C141.643 653.689 144.148 655.068 147.068 655.545C149.854 656.002 152.453 654.079 154.999 654.926L155.279 655.433C153.82 656.695 152.111 657.233 150.221 657.481C149.009 657.53 147.793 657.308 146.567 657.332C144.818 657.351 142.952 656.998 141.416 656.139C138.914 654.747 137.253 652.298 136.436 649.601C135.196 645.512 135.534 641.61 137.54 637.874C131.796 639.018 125.486 639.816 119.618 639.618C115.611 639.482 111.509 637.713 107.79 639.463L106.841 639.302L104.953 639.68C96.2925 639.618 87.5911 639.395 78.9349 639.686C67.2077 639.643 55.3296 639.03 43.958 636.061L43.0995 635.505L35.5919 632.703C35.7613 637.509 35.9117 642.364 36.3854 647.151C36.9514 652.873 37.9534 658.613 37.7864 664.371C37.568 671.899 36.5475 679.438 36.0756 686.96C35.5572 695.217 35.6902 703.944 34.3672 712.09C33.419 717.923 30.2485 723.317 29.6089 729.137C29.1815 733.034 30.1977 736.899 29.9695 740.777C29.7468 744.55 29.1221 748.305 28.8747 752.09C27.4874 773.306 26.4748 794.428 26.8725 815.699C27.0649 826.152 27.3742 836.599 27.8003 847.04C28.1294 853.973 28.9372 861.185 28.6539 868.113C28.6205 868.935 28.3891 869.467 27.9388 870.154C24.0582 862.874 24.2518 798.937 24.7082 787.043C25.1431 775.736 25.7282 764.337 26.5688 753.055C26.857 749.183 27.457 745.323 27.6938 741.458C27.9468 737.344 27.0153 733.182 27.366 729.069C27.872 723.149 31.1866 717.904 32.159 712.059C33.3008 705.2 33.0577 697.901 33.5129 690.949C34.3343 678.393 36.0315 666.227 35.3042 653.602C33.8463 653.621 32.3748 653.646 30.9194 653.553C27.1891 653.312 22.7624 652.304 20.232 649.322C18.2236 646.947 18.0832 644.739 18.3424 641.807C15.3091 639.698 12.1572 637.422 10.3034 634.138C8.29757 630.581 8.45961 627.328 9.48326 623.505C9.17153 623.326 8.85857 623.134 8.56477 622.93C4.43241 620.004 1.17896 616.021 0.261076 610.955C-0.51579 606.669 0.460876 603.836 2.92693 600.366C1.35217 596.253 -0.208369 591.701 0.415103 587.229C1.53834 579.176 10.5589 573.805 16.5177 569.212C11.7075 536.505 9.41029 501.752 13.6701 468.889C15.4106 455.463 19.4161 442.323 20.8381 428.875C21.3701 423.841 20.9278 418.737 20.9328 413.683C20.942 404.62 21.3131 395.622 22.4376 386.626Z" fill="url(#paint6_linear_147_20)"/>
<path d="M9.48326 623.505C10.4612 623.895 10.9803 623.988 11.6434 624.823C17.3524 629.227 24.9893 632.245 32.0435 633.575C33.1699 633.785 33.5311 633.792 33.7315 635.115C33.7581 635.288 33.7686 635.468 33.7878 635.641C35.5073 637.719 34.9673 646.304 34.6791 649.23C34.6593 649.434 34.629 649.632 34.6036 649.836L34.8912 651.58C35.1411 652.279 35.3907 652.848 35.3042 653.602C33.8463 653.621 32.3748 653.646 30.9194 653.553C27.1891 653.312 22.7624 652.304 20.232 649.322C18.2236 646.947 18.0832 644.739 18.3424 641.807C15.3091 639.698 12.1572 637.422 10.3034 634.138C8.29757 630.581 8.45961 627.328 9.48326 623.505Z" fill="url(#paint7_linear_147_20)"/>
<path d="M9.48326 623.505C10.4612 623.895 10.9803 623.988 11.6434 624.823C10.6105 627.507 10.7391 630.124 11.9434 632.728C13.8639 636.878 18.6451 639.773 22.7941 641.239C26.4515 642.531 30.308 643.082 34.1286 643.651C33.9511 641.004 33.6449 638.295 33.7878 635.641C35.5073 637.719 34.9673 646.304 34.6791 649.23C34.6593 649.434 34.629 649.632 34.6036 649.836L34.8912 651.58C35.1411 652.279 35.3907 652.848 35.3042 653.602C33.8463 653.621 32.3748 653.646 30.9194 653.553C27.1891 653.312 22.7624 652.304 20.232 649.322C18.2236 646.947 18.0832 644.739 18.3424 641.807C15.3091 639.698 12.1572 637.422 10.3034 634.138C8.29757 630.581 8.45961 627.328 9.48326 623.505Z" fill="#231307"/>
<path d="M34.8912 651.58C30.9958 651.84 25.8211 651.438 22.6697 648.865C21.0238 647.522 20.6923 646.05 20.5049 644.022L20.9063 643.576C22.864 643.935 32.79 645.172 33.8335 645.846C34.332 646.168 34.5015 649.113 34.6036 649.836L34.8912 651.58Z" fill="#F6C7A6"/>
<path d="M16.7071 571.721C17.9367 575.119 16.9217 578.134 17.5458 581.402C18.173 584.687 19.5071 587.959 20.3848 591.2C22.1841 597.861 23.6865 604.56 25.654 611.178C22.4847 610.139 19.5882 608.97 16.631 607.411C12.6712 605.24 8.32051 603.057 5.42891 599.482C2.96966 596.476 1.85942 592.585 2.35919 588.732C3.34512 581.044 11.1008 576.157 16.7071 571.721Z" fill="#F6C7A6"/>
<path d="M4.23889 602.711C10.9777 607.424 18.3561 611.76 26.4952 613.368C27.3506 617.03 32.2691 628.887 31.2467 631.621C25.7771 630.26 20.3607 627.767 15.5059 624.91C10.405 621.91 4.25931 617.45 2.76867 611.358C1.97943 608.129 2.52682 605.494 4.23889 602.711Z" fill="#F6C7A6"/>
<path d="M209.794 226.448C210.659 226.918 211.289 227.327 212.312 227.274C204.452 229.687 196.964 234.411 190.202 239.008C175.461 249.031 117.658 297.827 101.073 289.957C99.7279 289.31 98.6987 288.152 98.2162 286.74C96.1349 280.82 103.717 268.815 103.973 261.831C104.51 262.532 105.361 263.407 105.59 264.244C105.148 266.334 104.789 268.475 104.158 270.517C102.775 274.992 98.9516 281.69 99.9833 286.351C100.134 287.032 101.034 287.862 101.626 288.192C104.868 290.001 110.258 288.049 113.415 286.895C140.746 276.902 162.408 255.314 186.058 239.14C193.362 234.145 201.234 228.966 209.794 226.448Z" fill="#391C0A"/>
<path d="M198.311 387.981C203.711 388.842 223.671 392.869 227.787 395.046C233.316 397.972 237.957 405.097 242.051 409.829C245.588 413.918 249.558 417.608 253.127 421.667C256.621 425.643 259.745 430.229 263.604 433.843C264.984 435.135 266.419 436.508 268.332 436.872L270.004 435.768C271.055 436.078 271.629 436.724 272.398 437.476C268.48 442.582 262.056 461.513 259.049 468.611C258.09 470.877 257.148 473.88 255.731 475.872L255.532 475.664C254.834 472.239 268.879 444.98 270.245 437.474C268.606 437.209 265.914 437.071 264.536 436.132C260.408 433.316 256.589 427.208 253.284 423.346C249.863 419.35 245.991 415.788 242.514 411.85C238.21 406.973 234.225 401.508 229.393 397.146C228.666 396.49 227.878 395.875 226.88 395.732C223.371 395.227 219.075 400.263 216.221 402.103L215.843 402.344L217.435 403.879L217.363 404.327C216.331 404.137 215.143 402.967 214.286 402.33C217.701 400.016 220.931 397.538 223.966 394.737C217.487 397.667 212.357 402.993 205.969 406.102C206.803 403.331 210.679 401.822 213.086 400.484C210.523 398.098 207.847 395.767 204.785 394.047C202.631 392.836 200.166 392.06 198.257 390.472L198.311 387.981Z" fill="#F6C7A6"/>
<path d="M209.85 377.265L211.54 377.011C228.394 390.632 239.944 403.44 254.279 419.297C256.977 422.282 264.009 432.717 267.079 434.083L268.134 433.83C268.512 434.826 268.379 435.829 268.332 436.872C266.419 436.508 264.984 435.135 263.604 433.843C259.745 430.229 256.621 425.643 253.127 421.667C249.558 417.608 245.588 413.918 242.051 409.829C237.957 405.097 233.316 397.972 227.787 395.046C223.671 392.869 203.711 388.842 198.311 387.981L198.033 387.871L197.951 387.172C207.084 388.061 216.403 389.72 225.346 391.78C221.042 386.315 214.963 381.991 209.85 377.265Z" fill="#231307"/>
<path d="M48.8028 318.734C49.9415 306.185 55.1062 293.273 62.5749 283.156C71.9214 270.494 84.6858 260.8 100.566 258.402L101.967 259.739C84.3031 264.103 70.6022 273.848 61.1258 289.484C55.7589 298.34 51.7985 309.364 50.3301 319.598C49.7815 319.387 49.3007 319.044 48.8028 318.734Z" fill="url(#paint8_linear_147_20)"/>
<path d="M48.8028 318.734C49.3007 319.044 49.7815 319.387 50.3301 319.598L50.4013 319.979L49.8551 321.202C50.3221 321.941 50.867 322.128 51.6327 322.459C41.0436 341.659 30.439 361.825 25.575 383.38C24.7839 386.885 24.5926 390.353 24.0044 393.857C23.9512 393.119 23.8788 392.38 23.8336 391.641C23.713 389.647 23.2664 388.409 22.4376 386.626C24.8282 372.117 31.2924 357.068 37.5976 343.885C40.154 338.54 47.2825 327.772 48.441 323.224C48.7874 321.864 48.6377 320.166 48.8028 318.734Z" fill="#231307"/>
<path d="M205.969 406.102C212.357 402.993 217.487 397.667 223.966 394.737C220.931 397.538 217.701 400.016 214.286 402.33C207.071 406.996 191.661 417.249 183.855 419.17C188.434 416.632 203.131 409.223 205.969 406.102Z" fill="#AD8258"/>
<path d="M50.4013 319.979C51.8795 319.46 61.1377 304.607 63.5895 301.857C60.0194 308.91 56.182 315.985 51.6327 322.459C50.867 322.128 50.3221 321.941 49.8551 321.202L50.4013 319.979Z" fill="#391C0A"/>
<path d="M153.251 568.805C153.346 568.076 153.227 567.645 153.835 567.157C155.458 565.855 158.559 566.227 160.495 566.563C162.99 566.996 166.13 567.921 168.141 569.476L168.676 571.105C163.485 569.83 158.632 568.809 153.251 568.805Z" fill="#CB9C78"/>
<path d="M318.484 323.229C314.683 319.707 310.933 316.131 307.236 312.5C311.671 315.192 315.984 318.499 319.596 322.231L318.484 323.229Z" fill="#391C0A"/>
<path d="M209.85 377.265L205.161 372.507L205.388 371.943L204.953 372.261C204.65 371.88 204.749 372.113 204.746 371.53L204.485 371.46C204.488 371.467 205.088 372.41 205.094 372.42L205.663 372.141C207.639 373.741 209.64 375.32 211.54 377.011L209.85 377.265Z" fill="#8E633E"/>
<path d="M198.033 387.871C196.424 387.921 194.019 388.083 192.688 387.133C192.788 387.06 192.877 386.971 192.988 386.913C194.288 386.23 196.604 386.806 197.951 387.172L198.033 387.871Z" fill="#E7AE8A"/>
<path d="M262.936 258.927C259.912 257.854 255.914 257.721 252.741 257.745C238.878 257.852 226.317 264.674 216.786 274.38C203.668 287.953 195.654 305.648 194.106 324.459C193.47 331.856 193.805 339.35 193.874 346.766C192.473 335.261 192.349 324.109 194.886 312.739C199.041 294.113 210.112 275.289 226.482 264.919C238.349 257.402 251.103 255.306 264.809 258.343L262.936 258.927Z" fill="#795333"/>
<path d="M218.653 235.52L219.125 235.668C218.061 237.006 214.288 237.763 212.549 238.653C205.536 242.168 198.73 246.08 192.162 250.371C178.481 259.452 165.262 269.409 152.012 279.11C142.152 286.33 132.302 293.954 121.35 299.46C114.214 303.049 107.216 305.869 99.2336 303.244L98.3628 302.632C99.8169 301.906 104.825 303.452 106.98 303.168C113.809 302.268 120.017 299.152 125.931 295.779C157.384 277.842 184.542 248.222 218.653 235.52Z" fill="#AD8258"/>
<path d="M195.941 520.401C198.586 522.46 203.328 530.93 205.847 534.196C208.025 537.019 212.571 541.244 214.032 544.183C207.021 539.366 198.93 528.332 195.941 520.401Z" fill="#CB9C78"/>
<path d="M77.0131 587.668C85.409 593.878 93.0966 601.74 100.527 609.081L99.7037 609.428C95.3078 604.282 83.7779 593.989 78.2607 589.678L77.0131 587.668Z" fill="#8E633E"/>
<path d="M177.745 545.303C180.347 545.916 197.261 555.757 201.581 557.877C193.484 556.68 184.261 550.004 177.745 545.303Z" fill="#CB9C78"/>
<path d="M83.989 429.381C86.4322 429.733 100.588 437.136 103.208 438.768C97.5465 438.368 88.2321 433.051 83.989 429.381Z" fill="#E7AE8A"/>
<path d="M100.527 609.081C103.935 612.366 108.47 615.749 111 619.714C106.947 616.615 103.167 613.176 99.7037 609.428L100.527 609.081Z" fill="#E7AE8A"/>
<path d="M264.809 258.343C269.407 259.532 274.572 262.451 278.323 265.359C273.344 262.884 268.414 260.1 262.936 258.927L264.809 258.343Z" fill="#CB9C78"/>
<path d="M78.2607 589.678C75.7074 587.637 72.8919 585.633 70.8168 583.097L70.8861 582.534L70.6591 582.788L71.4007 583.988L72.5957 583.264C74.1704 584.644 75.8596 585.899 77.0131 587.668L78.2607 589.678Z" fill="#F6C7A6"/>
<defs>
<linearGradient id="paint0_linear_147_20" x1="164.705" y1="328.731" x2="294.351" y2="370.719" gradientUnits="userSpaceOnUse">
<stop stop-color="#000001"/>
<stop offset="1" stop-color="#2A190A"/>
</linearGradient>
<linearGradient id="paint1_linear_147_20" x1="135.84" y1="562.496" x2="74.3926" y2="537.577" gradientUnits="userSpaceOnUse">
<stop stop-color="#466F83"/>
<stop offset="1" stop-color="#5288AB"/>
</linearGradient>
<linearGradient id="paint2_linear_147_20" x1="255.209" y1="610.02" x2="65.8468" y2="523.193" gradientUnits="userSpaceOnUse">
<stop stop-color="#486E80"/>
<stop offset="1" stop-color="#5B8DAC"/>
</linearGradient>
<linearGradient id="paint3_linear_147_20" x1="160.89" y1="821.685" x2="376.122" y2="73.499" gradientUnits="userSpaceOnUse">
<stop/>
<stop offset="1" stop-color="#38230F"/>
</linearGradient>
<linearGradient id="paint4_linear_147_20" x1="259.292" y1="617.568" x2="-60.3547" y2="317.806" gradientUnits="userSpaceOnUse">
<stop stop-color="#050202"/>
<stop offset="1" stop-color="#211306"/>
</linearGradient>
<linearGradient id="paint5_linear_147_20" x1="214.583" y1="814.997" x2="-180.351" y2="133.913" gradientUnits="userSpaceOnUse">
<stop stop-color="#160D06"/>
<stop offset="1" stop-color="#301B0B"/>
</linearGradient>
<linearGradient id="paint6_linear_147_20" x1="-176.074" y1="285.769" x2="257.208" y2="625.007" gradientUnits="userSpaceOnUse">
<stop stop-color="#0E0602"/>
<stop offset="1" stop-color="#2A1507"/>
</linearGradient>
<linearGradient id="paint7_linear_147_20" x1="363.638" y1="301.366" x2="47.3276" y2="313.595" gradientUnits="userSpaceOnUse">
<stop stop-color="#E7AC88"/>
<stop offset="1" stop-color="#FACDAD"/>
</linearGradient>
<linearGradient id="paint8_linear_147_20" x1="227.05" y1="481.618" x2="72.8464" y2="392.553" gradientUnits="userSpaceOnUse">
<stop/>
<stop offset="1" stop-color="#261809"/>
</linearGradient>
</defs>
</svg>
