<svg width="903" height="903" viewBox="0 0 903 903" fill="none" xmlns="http://www.w3.org/2000/svg">
<mask id="mask0_137_4240" style="mask-type:alpha" maskUnits="userSpaceOnUse" x="0" y="0" width="903" height="903">
<circle cx="451.5" cy="451.5" r="451.5" fill="#D9D9D9"/>
</mask>
<g mask="url(#mask0_137_4240)">
<path d="M335.411 84.987C329.727 81.4142 321.273 71.9504 327.535 65.6922C344.32 48.918 372.49 41.4102 395.087 36.4037C418.15 32.1523 448.439 29.7344 468.637 42.5725C475.153 46.7139 478.994 54.4073 481.605 61.1473C496.203 71.0116 504.921 85.5409 508.279 102.843C514.395 133.258 500.19 160.542 489.932 188.143C488.895 191.617 483.528 197.724 483.047 200.964C481.544 211.556 482.813 231.854 491.289 239.32C515.058 260.254 547.15 276.93 565.9 303.094C589.995 336.719 586.016 381.546 589.074 420.588C589.265 423.014 589.441 426.343 588.381 428.528C586.802 429.631 586.334 429.834 584.543 430.563C583.933 453.196 582.61 475.803 580.578 498.352C579.642 509.647 579.223 522.809 578.01 533.741C576.72 545.357 572.672 562.28 569.827 573.849C566.547 587.19 562.812 600.415 558.628 613.501C557.031 618.461 550.909 634.757 550.7 638.633C549.896 653.499 551.817 666.737 549.078 682.079C547.637 689.941 545.782 697.721 543.521 705.387C541.475 712.291 537.947 722.381 537.305 729.117C534.685 756.623 533.006 784.358 530.631 811.88L525.7 863.757C524.316 878.129 522.029 888.713 525.973 902.68C526.477 904.465 524.446 912.032 524.884 914.376C525.946 922.982 530.545 931.287 532.326 939.755C543.468 992.71 536.458 1049.79 532.607 1103.13C532.12 1109.24 531.817 1115.36 531.703 1121.49C531.654 1126.14 531.815 1130.87 531.509 1135.49C531.42 1136.82 529.117 1138.45 528.126 1139.17C526.897 1153.07 537.321 1174.88 523.716 1186.06C513.191 1194.72 495.222 1191.71 484.062 1195.67C460.332 1204.12 439.277 1208.35 413.896 1206.62C407.391 1206.18 405.853 1204.5 398.471 1205.12L398.163 1204.93C389.802 1199.88 373.588 1202.2 369.428 1192.21C367.864 1186.5 370.993 1178.8 376.206 1176.06C379.836 1174.16 384.194 1174.12 387.591 1172.45C398.998 1166.85 411.284 1163.48 422.041 1156.69C425.564 1154.46 428.888 1152.18 432.267 1149.82C424.848 1150.31 413.685 1151.2 406.676 1153.51C390.211 1158.92 369.443 1172.5 352.03 1163.6C344.727 1165.87 334.583 1169.46 327.751 1165.22C303.442 1150.13 322.238 1138.06 339.136 1132.16C358.454 1125.43 381.406 1117.48 395.133 1102.55C393.58 1101.14 391.671 1099.5 390.296 1097.96C390.811 1089.03 392.248 1078.05 392.12 1069.35C391.669 1038.86 388.959 1007.83 386.287 977.437C384.287 954.695 381.91 931.238 377.612 908.828C375.375 899.022 370.791 890.035 368.314 880.27C365.739 870.115 366.365 859.409 364.447 849.222C362.918 841.103 360.006 832.846 358.324 824.711C354.706 807.192 350.822 789.42 348.622 771.666C339.765 767.644 335.382 760.235 332.02 751.327C327.546 739.339 325.565 726.564 326.198 713.784C327.223 694.995 336.098 683.446 338.672 666.262C341.521 647.25 341.655 626.825 345.123 607.645C346.294 601.175 344.861 596.237 347.119 589.427C334.026 576.591 339.662 563.708 339.941 547.355C340.188 518.91 340.776 490.468 341.704 462.037C342.205 445.333 339.759 427.274 340.288 413.167C341.249 387.554 356.471 340.542 369.577 317.548C375.407 307.322 391.19 290.415 398.926 280.815C395.315 271.048 393.692 265.346 384.659 259.713C371.863 262.38 344.252 269.019 340.204 250.595C339.323 246.582 340.439 241.292 339.319 237.218C337.296 230.379 331.702 229.077 333.696 221.177C332.765 219.459 332.373 219.085 331.064 217.595C330.848 212.687 331.255 209.034 327.326 205.561C322.004 200.859 312.949 203.765 312.078 195.106C310.492 179.353 333.831 166.285 327.07 149.872C320.878 146.077 321.81 140.02 322.888 133.474C323.643 122.48 330.776 94.9519 335.411 84.987Z" fill="#1E0E09"/>
<path d="M339.271 84.1658C342.622 84.3045 350.303 83.2623 354.043 83.1244C374.213 82.3774 394.898 77.5709 414.921 79.6368C413.858 80.9945 413.015 82.3344 411.561 83.2063C411.251 85.2235 408.86 89.9107 407.98 92.528C405.056 101.232 405.452 111.761 407.624 120.608C407.834 121.394 407.878 121.029 407.804 122.088C408.706 123.588 409.877 124.626 410.817 126.229C414.444 132.416 415.651 159.139 420.435 162.454C424.686 161.557 428.538 158.882 432.982 157.559C437.959 151.574 438.724 150.533 442.882 144.427L443.733 144.893C448.565 128.37 469.08 132.298 475.9 147.256C478.994 154.174 479.17 162.047 476.391 169.098C474.078 175.033 469.426 179.63 465.514 184.538C467.722 188.756 472.705 194.098 477.364 195.782C479.517 196.624 480.539 196.534 481.336 198.188C479.828 210.902 479.722 228.738 488.111 239.218C489.201 240.569 490.383 241.843 491.65 243.031C471.558 268.447 437.645 295.437 406.466 304.03C395.115 307.158 394.143 290.233 400.099 287.265L400.971 287.395L402.819 290.753C403.713 289.157 403.273 286.421 402.671 284.777C398.914 274.513 396.003 264.238 386.29 258.399L394.185 254.615L393.43 253.544C382.177 259.34 355.287 266.019 344.983 255.597C339.747 250.301 343.012 241.55 341.066 235.163C339.737 230.801 335.135 229.075 335.553 223.806C340.234 218.474 358.113 225.365 365.722 220.352L365.74 219.558C360.88 219.893 339.712 220.648 335.792 219.338C332.401 216.882 332.799 211.361 331.705 207.172C329.903 200.271 314.657 201.569 314.313 195.634C313.274 177.732 336.081 168.726 328.998 149.218L328.741 148.523C328.418 141.202 325.171 144.831 324.385 138.026C326.191 125.504 331.898 94.6052 338.517 84.4246L339.271 84.1658Z" fill="#F2CFB0"/>
<path d="M443.733 144.892C448.565 128.369 469.08 132.297 475.9 147.255C478.994 154.173 479.17 162.046 476.391 169.097C474.078 175.033 469.426 179.629 465.514 184.537C460.741 190.536 450.77 204.882 441.678 195.705C439.768 193.778 439.75 190.614 439.887 188.046L440.387 187.93C440.855 189.51 441.416 191.549 442.326 192.844C448.851 202.132 457.416 191.144 461.272 186.3C467.602 178.348 474.242 172.946 476.038 162.726C478.436 149.074 466.673 129.998 451.381 138.182C449.258 139.341 446.25 143.023 443.733 144.892Z" fill="#1E0E09"/>
<path d="M411.561 83.2061C411.25 85.2232 408.86 89.9104 407.98 92.5278C405.055 101.231 405.452 111.761 407.624 120.607C407.834 121.394 407.878 121.028 407.803 122.088C402.042 114.484 404.046 89.6622 411.561 83.2061Z" fill="#734E31"/>
<path d="M404.732 247.121C401.085 250.531 398.689 252.345 394.185 254.614L393.43 253.543C397.211 251.236 400.852 249.241 404.732 247.121Z" fill="#734E31"/>
<path d="M333.933 138.183C341.377 132.337 360.01 131.854 368.637 135.777C370.489 136.89 371.121 137.288 372.725 138.722L379.326 144.213C362.824 140.791 361.114 140.213 344.303 140.859C341.764 142.847 337.359 143.225 334.276 142.628C332.545 141.286 332.821 141.894 332.237 140.096C332.612 139.054 333.048 138.883 333.933 138.183Z" fill="url(#paint0_linear_137_4240)"/>
<path d="M344.303 140.859L344.073 140.282C345.097 139.621 360.298 139.114 362.538 138.919C365.105 138.695 368.899 141.148 372.342 140.763L372.725 138.723L379.327 144.214C362.824 140.791 361.115 140.213 344.303 140.859Z" fill="#583D26"/>
<path d="M333.933 138.183C341.377 132.337 360.01 131.854 368.637 135.777L368.274 135.774C361.598 135.664 353.645 134.208 346.89 134.735C343.364 135.01 337.642 138.378 333.933 138.183Z" fill="#583D26"/>
<path d="M451.487 151.996L451.273 152.369L450.95 152.191C451.983 147.947 453.488 143.088 458.035 141.322C462.066 139.756 465.719 143.139 466.89 146.846L465.906 146.362C464.229 148.061 464.507 147.34 463.942 149.448L464.386 150.053C464.886 150.741 465.088 151.082 465.488 151.852C462.671 153.671 463.446 152.653 462.413 155.87C456.742 153.32 457.618 149.884 451.487 151.996Z" fill="#EAB190"/>
<path d="M451.487 151.996L451.273 152.369L450.95 152.191C451.983 147.947 453.488 143.088 458.035 141.322C462.066 139.756 465.719 143.139 466.89 146.846L465.906 146.362C457.855 138.889 455.583 144.397 451.487 151.996Z" fill="#1E0E09"/>
<path d="M449.652 167.052C454.249 168.271 455.968 168.184 458.433 172.136C458.64 176.026 455.548 176.807 452.19 177.551C449.875 179.108 450.509 179.236 448.459 178.906C446.414 174.858 451.411 174.4 449.652 167.052Z" fill="#EAB190"/>
<path d="M449.652 167.052C454.249 168.271 455.968 168.184 458.433 172.136C458.64 176.026 455.548 176.807 452.19 177.551C454.656 176.036 457.393 174.969 456.982 171.803C455.569 170.139 454.603 170.037 452.52 169.34C451.641 172.518 448.309 174.947 449.857 177.486L452.19 177.551C449.875 179.108 450.509 179.236 448.459 178.906C446.414 174.858 451.411 174.4 449.652 167.052Z" fill="#1E0E09"/>
<path d="M449.864 162.78C449.436 160.323 449.358 159.969 450.042 157.588C454.426 154.5 460.026 163.277 461.914 166.307C459.998 165 458.821 163.46 457.325 161.714C455.202 163.046 454.283 163.548 452.475 165.383L451.582 165.384L449.864 162.78Z" fill="#EAB190"/>
<path d="M449.864 162.78C449.436 160.323 449.358 159.969 450.042 157.588C454.426 154.5 460.026 163.277 461.914 166.307C459.998 165 458.821 163.46 457.325 161.714C455.776 160.246 454.456 158.536 452.491 158.357C449.965 160.405 451.551 159.589 449.864 162.78Z" fill="#1E0E09"/>
<path d="M341.88 186.856C345.86 188.292 349.37 193.861 347.556 197.924C342.08 203.633 335.391 199.414 329.407 201.097L328.814 201.269L329.146 200.016C334.602 196.473 341.003 203.252 344.804 198.194C347.82 194.181 344.945 189.442 341.88 186.856Z" fill="#1E0E09"/>
<path d="M347.592 155.175C348.364 156.022 349.005 157.632 349.862 158.326C354.026 161.699 362.515 158.988 368.022 158.553L368.07 159.112C361.215 161.977 349.605 165.759 347.592 155.175Z" fill="#1E0E09"/>
<path d="M440.644 196.607C442.455 207.992 438.131 217.827 431.346 226.647C431.39 223.53 437.502 215.701 438.371 212.055C439.603 206.893 439.226 201.66 440.644 196.607Z" fill="#583D26"/>
<path d="M469.011 152.161C471.249 155.701 470.398 159.962 469.886 164.023C468.368 162.236 468.956 154.91 469.011 152.161Z" fill="#A97A4E"/>
<path d="M427.491 230.81L427.906 231.347C425.769 234.352 421.151 237.327 418.043 239.302L417.973 239.25L417.896 238.554L427.491 230.81Z" fill="#583D26"/>
<path d="M338.517 84.4238C336.196 80.8461 326.116 79.7114 328.054 70.4023C328.869 66.4872 331.586 64.3162 334.714 61.9482C365.981 41.7204 409.163 31.7031 446.101 36.5046C462.29 38.609 474.865 46.7159 479.577 62.5705C492.834 70.3512 501.197 84.1221 505.062 98.6866C511.658 123.538 503.933 148.314 494.092 171.104C492.042 175.85 486.604 194.487 482.127 196.11C480.406 195.927 479.093 195.822 477.364 195.782C472.705 194.097 467.722 188.755 465.514 184.537C469.426 179.629 474.077 175.033 476.391 169.097C479.17 162.046 478.993 154.173 475.9 147.255C469.08 132.297 448.565 128.369 443.733 144.892L442.882 144.427C438.724 150.532 437.959 151.573 432.982 157.558C428.538 158.881 424.686 161.557 420.435 162.454C415.651 159.138 414.444 132.415 410.816 126.228C409.876 124.626 408.706 123.587 407.803 122.087C407.878 121.028 407.834 121.394 407.624 120.607C405.452 111.76 405.055 101.231 407.98 92.5273C408.86 89.9099 411.25 85.2227 411.561 83.2055C413.015 82.3336 413.858 80.9937 414.921 79.636C394.897 77.5702 374.213 82.3766 354.043 83.1236C350.303 83.2615 342.622 84.3037 339.271 84.165L338.517 84.4238Z" fill="#A97A4E"/>
<path d="M339.271 84.1651C341.875 81.1439 373.789 80.8008 379.868 79.5306C384.642 78.533 412.211 76.1079 415.604 78.8639L414.921 79.6361C394.897 77.5703 374.213 82.3767 354.043 83.1237C350.303 83.2616 342.622 84.3038 339.271 84.1651Z" fill="#734E31"/>
<path d="M461.33 63.0005C463.058 62.884 464.213 63.0901 465.92 63.301L465.664 63.7733C455.865 64.2598 431.973 71.9667 422.881 75.9864C421.27 76.6393 421.304 76.6377 419.577 76.7926C421.906 72.3924 455.902 64.1621 461.33 63.0005Z" fill="#583D26"/>
<path d="M322.888 133.474C322.934 136.723 322.702 139.395 323.57 142.482C323.878 141.004 324.149 139.517 324.385 138.025C325.171 144.83 328.417 141.201 328.741 148.522L327.07 149.871C320.878 146.076 321.809 140.02 322.888 133.474Z" fill="#583D26"/>
<path d="M493.328 244.118C514.794 261.382 546.293 280.746 562.736 302.474C587.934 335.773 584.726 386.827 587.079 427.056C563.266 436.747 522.563 440.936 496.372 438.51C491.347 437.787 491.271 432.905 490.53 429.118C486.594 408.983 483.159 391.781 473.179 373.728C474.948 381.031 479.397 391.15 481.82 400.278C474.204 392.846 467.324 385.967 460.325 377.956C463.986 386.051 476.095 397.741 482.64 403.879C485.481 413.968 487.408 427.218 490.33 437.496C490.833 439.265 494.389 440.415 496.188 441.091C496.575 455.987 497.745 472.619 499.895 487.293C501.392 497.507 507.796 514.958 507.136 524.787C506.534 533.737 502.62 547.766 500.896 557.487C499.015 566.941 497.245 579.237 496.131 588.797C488.684 589.217 479.285 590.548 471.76 591.381C455.799 593.248 439.81 594.853 423.796 596.197C400.732 598.009 367.649 601.421 347.767 586.68C338.928 580.125 340.859 565.611 341.493 556.123C341.951 549.258 342.062 542.146 342.241 535.158L342.942 495.378C343.522 472.838 345.006 450.204 342.684 427.819C339.848 400.482 349.445 376.824 357.297 351.554C365.496 325.168 376.932 308.237 395.586 287.843C396.247 287.118 398.6 284.409 399.455 284.357C382.534 311.779 408.898 307.725 425.471 299.259C450.684 286.379 476.23 266.755 493.328 244.118Z" fill="#F2CFB0"/>
<path d="M530.52 286.425C533.431 285.774 543.673 286.058 545.869 288.265C544.657 288.497 542.312 287.433 540.73 287.184C529.888 285.821 514.51 290.043 505.728 296.497C485.502 311.363 477.515 331.197 473.168 354.779C472.604 359.322 472.573 365.726 472.301 370.404C470.247 366.484 472.476 351.01 473.507 346.151C479.593 317.474 500.143 289.86 530.52 286.425Z" fill="#716355"/>
<path d="M467.416 551.979L467.998 552.168L467.64 552.828C461.567 556.528 449.157 562.387 442.337 564.25L441.629 564.129L441.728 563.608C451.115 560.18 458.469 556.357 467.416 551.979Z" fill="#716355"/>
<path d="M392.691 435.947C392.906 436.02 398.455 443.039 399.482 444.176C403.821 448.989 407.317 452.012 412.811 455.493C406.527 454.525 394.249 442.043 392.691 435.947Z" fill="#716355"/>
<path d="M418.227 313.162L418.828 313.222C415.351 316.843 404.737 318.349 399.72 317.362L398.827 316.693L398.916 316.181C407.488 317.245 410.129 316.067 418.227 313.162Z" fill="#716355"/>
<path d="M347.606 606.065C348.291 601.71 347.029 594.327 349.197 591.126C352.419 592.233 355.641 593.548 358.814 594.799C379.541 602.97 404.479 599.072 426.03 598.263C448.925 595.455 472.551 593.445 495.655 590.775C495.042 595.673 493.415 611.558 492.249 615.413L492.18 616.559C492.05 621.658 488.732 652.076 486.809 655.352L486.775 656.109C487.01 660.107 482.778 681.612 481.177 685.467C475.98 697.982 464.684 706.851 459.167 719.871C457.547 723.718 456.276 727.701 455.366 731.775C453.938 738.12 446.606 780.385 450.128 783.366C451.663 784.664 453.408 785.486 455.446 785.205C459.066 784.705 461.088 782.289 463.077 779.492C462.342 788.771 461.49 798.07 461.174 807.395C461.045 811.191 461.19 816.706 466.321 817.079C470.963 817.412 470.294 822.051 474.227 822.854C479.728 824.038 480.22 818.645 483.954 818.02C485.827 818.531 486.127 818.718 487.854 819.65C492.128 819.691 495.428 814.865 497.894 811.783L499.44 810.453C500.233 808.174 502.057 804.508 504.058 803.129C509.113 802.539 510.127 801.982 513.655 797.308C527.101 778.339 530.393 751.379 531.363 728.68C531.735 719.978 530.167 703.297 532.128 695.856C536.336 679.882 542.726 660.82 548.185 645.339C549.768 671.354 546.559 688.406 539.208 713.383C538.302 716.457 533.612 727.159 533.541 728.66L535.066 728.049C535.533 729.981 533.193 751.852 532.852 756.025C530.927 781.571 528.81 807.103 526.5 832.62C524.782 850.982 522.96 869.483 521.351 887.862C521.074 891.025 523.28 897.912 523.654 901.48C524.109 905.82 522.413 912.47 523.048 916.38C524.242 923.744 528.003 931.685 529.823 938.985C533.468 953.608 534.887 968.646 535.576 983.651C537.923 1034.76 529.996 1084.43 529.383 1135.52C523.695 1138.47 513.134 1145.92 507.406 1145.22L506.552 1145.19C504.304 1145.98 498.126 1145.49 495.531 1145.36C477.757 1144.5 462.463 1140.26 447.038 1131.26C450.12 1121.84 448.849 1112.88 449.196 1103C450.987 1051.89 446.782 999.15 438.149 948.766C434.412 932.017 424.52 918.302 422.566 900.896C418.625 865.785 410.953 830.925 406.002 796.034L400.077 752.538C398.913 744.018 396.862 728.268 394.364 720.477L393.946 720.548C393.946 721.851 394.034 723.426 393.692 724.641C391.728 723.571 384.137 714.797 382.554 712.851C367.358 694.168 365.634 663.593 367.972 640.526C368.676 633.573 368.467 625.811 369.223 617.99C371.979 618.908 381.638 620.721 382.507 621.649C380.108 629.985 382.373 630.866 380.909 636.811C378.648 645.986 381.841 680.958 385.112 687.329C385.658 684.093 384.026 681.444 383.435 678.838C381.412 669.899 378.86 625.962 384.327 621.027C390.757 619.818 398.927 621.051 405.495 620.617C415.019 619.986 414.639 622.996 416.288 630.819C419.119 630.238 422.034 629.873 424.901 629.47C422.669 626.984 423.612 625.358 421.826 622.086C419.973 621.006 417.114 621.562 414.787 621.724L414.286 601.509C414.152 604.34 413.74 617.7 413.132 619.816C410.721 620.389 374.863 619.927 370.343 617.634C365.473 615.164 369.032 603.516 367.969 599.416C366.839 602.778 367.601 610.32 367.256 614.744L366.342 615.139C359.341 612.779 353.995 609.733 347.606 606.065Z" fill="#5A8DB1"/>
<path d="M497.894 811.783L499.441 810.453C499.815 839.441 495.73 869.581 497.944 898.812C498.169 901.772 498.329 907.466 497.387 910.2C495.358 888.138 496.519 864.163 497.18 842.045C497.344 836.57 498.529 816.439 497.894 811.783Z" fill="#3B5766"/>
<path d="M486.775 656.109C479.48 657.807 463.069 656.232 455.535 654.721C452.658 654.144 439.551 648.811 438.918 646.068C443.372 647.64 447.914 651.01 452.173 652.512C462.615 656.195 475.71 655.406 486.809 655.352L486.775 656.109Z" fill="#31404B"/>
<path d="M492.181 616.558C489.393 617.311 473.061 618.866 470.383 618.008L470.213 618.227L471.39 618.274L471.119 617.789C477.543 616.668 485.592 616.122 492.249 615.412L492.181 616.558Z" fill="#31404B"/>
<path d="M425.95 628.479C423.04 623.92 421.926 604.374 424.401 599.977C425.897 602.037 425.345 615.03 425.688 618.928L425.746 619.557L426.4 620.535C432.514 621.168 444.073 620.231 450.506 619.936C455.361 619.713 460.126 618.004 465.316 618.712C448.287 621.74 441.909 620.641 426.242 622.257C425.247 625.028 426.179 626.17 425.95 628.479Z" fill="#31404B"/>
<path d="M438.324 691.91L439.505 691.943L439.464 692.409C433.172 695.59 409.245 701.442 401.569 702.994L400.122 702.782C402.795 701.026 432.373 693.861 438.324 691.91Z" fill="#31404B"/>
<path d="M424.131 708.01L425.468 707.619C427.206 708.092 428.179 708.069 429.819 708.504L429.317 709.259C426.399 709.989 418.442 710.383 417.453 710.78C416.25 712.392 414.921 713.512 412.866 713.56L412.237 712.685C413.889 709.053 420.595 708.52 424.131 708.01Z" fill="#4C7690"/>
<path d="M359.413 601.711C361.324 603.164 361.613 607.487 362.058 610.037C359.661 607.605 359.645 604.971 359.413 601.711Z" fill="#31404B"/>
<path d="M427.864 627.05C430.107 626.796 430.464 632.747 430.592 634.355C429.441 632.234 428.485 629.98 427.504 627.772L427.864 627.05Z" fill="#3B5766"/>
<path d="M421.013 610.253L421.63 610.838C422.469 613.239 422.177 615.981 422.128 618.592C420.446 616.334 420.904 613.021 421.013 610.253Z" fill="#31404B"/>
<path d="M498.145 441.101C527.55 442.793 554.541 439.026 582.654 431.036L582.312 437.856C581.507 459.041 579.932 480.72 578.13 501.836C577.149 513.34 577.137 526.378 575.302 537.584C567.788 583.452 551.702 626.894 537.588 670.961C535.228 678.331 532.362 685.678 530.422 693.159C528.444 703.859 529.661 718.368 529.258 729.747C528.503 751.118 524.088 784.377 508.479 800.029C507.689 800.821 507.094 801.032 506.067 801.253L505.147 800.594C507.736 794.444 518.391 766.988 516.677 761.432C515.572 764.054 513.11 772.736 512.227 775.605C507.815 789.952 505.495 796.373 497.509 808.701C494.08 808.393 492.437 808.239 489.132 807.395C495.435 793.816 496.686 784.882 500.867 770.729L500.021 769.773C497.636 777.859 485.649 824.623 473.131 820.178C472.453 819.416 471.426 818.58 471.854 817.372C476.426 804.532 486.359 771.906 483.791 759.107C482.402 769.59 477.09 809.869 468.483 815.263C466.119 815.628 467.05 815.774 464.95 814.784C461.314 810.299 463.562 799.118 463.843 793.536C464.645 777.652 466.809 761.024 465.208 745.075C461.025 750.768 467.689 773.031 460.605 780.299C458.083 782.887 454.347 784.022 451.431 781.546C448.924 775.128 457.135 727.45 461.822 718.775C470.295 703.092 481.367 696.665 485.201 677.964C492.812 640.833 495.585 603.52 501.623 565.941C502.73 558.849 504.065 551.794 505.626 544.788C506.303 541.725 510.141 525.827 509.972 524.061C508.955 513.472 504.503 500.28 502.587 489.983C500.21 477.206 499.167 461.235 498.753 448.124L498.145 441.101Z" fill="#F2CFB0"/>
<path d="M498.146 441.101C527.55 442.793 554.541 439.026 582.654 431.036L582.312 437.856C573.912 438.235 560.973 443.329 553.341 444.863C540.717 447.403 510.751 452.162 498.753 448.124L498.146 441.101Z" fill="#EAB190"/>
<path d="M500.021 769.773C500.911 766.251 501.734 762.363 503.259 759.1C502.585 762.992 502 766.95 500.867 770.729L500.021 769.773Z" fill="#734E31"/>
<path d="M559.254 523.26C559.891 527.228 557.493 542.401 556.848 546.723C556.082 542.584 557.881 527.551 559.254 523.26Z" fill="#716355"/>
<path d="M347.526 606.906C353.218 611.16 361.518 614.406 368.141 616.966C367.64 631.266 366.773 646.364 366.476 660.644C366.193 674.27 371.433 702.673 381.016 712.59C382.799 714.436 383.176 715.021 384.692 717.224L384.324 717.652C380.924 714.942 373.928 711.342 369.885 709.073C374.435 714.331 381.673 716.356 387.23 720.195C388.043 720.757 391.248 724.729 391.967 725.626C386.759 723.509 380.332 721.425 374.953 719.536C381.189 724.014 386.745 726.291 394.213 727.781C397.199 742.026 398.358 757.34 400.166 771.894C405.579 815.431 415.435 858.151 420.507 901.714C422.542 919.185 433.04 932.973 435.979 949.154C443.476 990.406 447.382 1036.48 447.994 1078.2C448.414 1086.23 447.643 1100.27 447.605 1108.99C428.185 1117.29 407.335 1110.79 392.234 1097.18C396.439 1058.79 392.396 1023.4 389.296 985.069C387.314 960.558 384.75 934.92 380.288 910.725C378.296 899.93 372.732 889.653 370.162 878.404C367.859 868.314 368.421 857.997 366.57 848.645C364.592 839.147 361.403 829.844 359.616 820.306C352.545 782.603 344.516 742.876 341.718 704.693C339.367 672.589 342.954 638.593 347.526 606.906Z" fill="#5A8DB1"/>
<path d="M355.704 693.589C358.949 694.342 364.309 701.988 367.062 704.448C368.929 706.116 370.622 706.878 372.016 708.853C365.502 706.496 358.593 699.779 355.704 693.589Z" fill="#4C7690"/>
<path d="M361.594 620.61C362.981 627.111 356.163 638.942 348.841 640.922L348.758 640.026C359.683 635.228 356.82 629.235 361.594 620.61Z" fill="#31404B"/>
<path d="M338.572 676.062C338.938 676.622 339.017 693.436 339.145 696.029C340.04 716.754 342.453 737.386 346.366 757.757C335.415 740.537 340.351 727.228 335.332 717.726C334.73 720.443 336.787 732.073 337.319 735.848C338.563 755.293 346.155 753.949 348.366 770.027C329.332 757.447 325.185 721.318 330.231 700.597C332.052 693.12 336.004 683.59 338.572 676.062Z" fill="#F2CFB0"/>
<path d="M497.509 808.701C496.405 810.226 495.271 811.719 494.107 813.195C492.106 815.677 489.914 817.226 486.681 817.566C483.051 815.555 487.553 809.942 489.132 807.396C492.437 808.239 494.08 808.393 497.509 808.701Z" fill="url(#paint1_linear_137_4240)"/>
<path d="M415.156 621.786C417.443 621.685 418.677 621.413 420.738 622.381C422.414 624.05 422.507 626.697 422.952 629.19C420.689 629.415 419.466 629.776 417.436 628.813C415.881 627.097 415.646 624.209 415.156 621.786Z" fill="#5A8DB1"/>
<path d="M351.081 906.596C350.104 906.679 350.575 906.749 349.668 906.384C351.992 904.065 355.412 902.25 358.167 900.423L359.115 900.991C356.838 902.571 353.132 904.443 351.432 906.54L351.081 906.596Z" fill="#A26E42"/>
</g>
<defs>
<linearGradient id="paint0_linear_137_4240" x1="352.428" y1="142.164" x2="352.496" y2="134.144" gradientUnits="userSpaceOnUse">
<stop stop-color="#6B4B2A"/>
<stop offset="1" stop-color="#976236"/>
</linearGradient>
<linearGradient id="paint1_linear_137_4240" x1="489.326" y1="808.187" x2="490.96" y2="815.978" gradientUnits="userSpaceOnUse">
<stop stop-color="#E7B395"/>
<stop offset="1" stop-color="#FFD3AC"/>
</linearGradient>
</defs>
</svg>
