<svg width="489" height="759" viewBox="0 0 489 759" fill="none" xmlns="http://www.w3.org/2000/svg">
<path d="M207.68 47.949C204.126 36.3574 198.004 18.8482 189.882 9.98856C184.044 3.62236 175.87 0.69036 167.384 0.28736C162.966 0.0775598 158.414 0.509963 153.984 0.656363C150.262 0.779363 146.342 0.678359 142.68 1.36396C133.256 3.12816 124.38 11.7852 117.47 18.0514C97.9401 35.7594 94.6681 54.2224 93.5081 79.472C91.0661 79.644 88.6381 79.97 86.2361 80.446C75.7841 82.582 67.0161 88.554 61.3101 97.55C55.2861 107.048 51.8621 118.85 47.8821 129.336C42.7481 142.7 37.4601 156.004 32.0161 169.244C23.1301 190.488 1.59809 234.53 0.940099 254.972C0.648107 264.1 2.73612 273.448 6.58011 281.712C16.9581 304.024 34.5721 324.626 48.7181 344.708C66.2141 369.548 82.8401 395.104 100.634 419.712C107.774 429.586 119.282 442.626 124.608 452.89C130.734 464.694 134.842 479.58 136.478 492.734C139.23 514.866 137.264 536.878 135.37 558.998C133.256 583.7 130.496 608.232 127.584 632.852C125.272 652.386 123.942 672.028 121.58 691.548C120.636 699.346 115.022 735.16 115.93 739.104C121.91 741.044 128.012 742.428 134.124 743.872C159.092 750.292 185.342 753.294 210.894 756.358C271.774 761.584 333.1 756.09 392.082 740.128C394.432 737.492 391.984 705.388 391.834 700.736C391.016 675.654 390.12 649.028 394.262 624.214C396.686 609.686 402.124 595.706 403.352 580.938C404.648 565.376 399.734 549.72 401.886 535.228C403.974 521.168 412.868 508.514 418.592 495.714C421.624 488.934 423.81 481.802 426.344 474.828C428.996 467.61 431.884 460.482 435 453.452C441.888 437.518 450.632 422.584 456.158 406.036C465.668 377.556 465.982 353.328 469.408 324.026C470.396 315.584 471.052 306.446 473.15 298.208C475.96 287.166 482.914 279.324 486.626 269.022C493.352 250.354 482.162 244.864 475.65 230.544C475.562 230.35 475.478 230.152 475.394 229.956C475.654 229.402 475.898 228.862 476.124 228.294C482.594 212.004 483.418 193.452 476.376 177.24C471.196 165.31 457.336 143.624 447.782 134.906C444.058 131.508 439.874 129.036 435.186 127.204C423.456 122.618 412.828 122.52 401.228 127.562C400.082 111.558 392.458 87.178 380.67 75.66C371.216 66.42 356.078 60.256 342.832 60.498C331.024 60.714 320.322 65.588 312.196 74.042C312.006 70.886 311.52 67.866 310.634 64.83C306.856 51.8778 296.218 31.8164 283.966 25.2686C272.326 19.0488 253.788 15.3054 240.896 19.2406C226.86 23.5254 214.448 35.1956 207.68 47.949Z" fill="#ECB7A2"/>
<path d="M207.68 47.949C204.126 36.3574 198.004 18.8482 189.882 9.98856C184.044 3.62236 175.87 0.69036 167.384 0.28736C162.966 0.0775598 158.414 0.509963 153.984 0.656363C150.262 0.779363 146.342 0.678359 142.68 1.36396C133.256 3.12816 124.38 11.7852 117.47 18.0514C97.9401 35.7594 94.6681 54.2224 93.5081 79.472C91.0661 79.644 88.6381 79.97 86.2361 80.446C75.7841 82.582 67.0161 88.554 61.3101 97.55C55.2861 107.048 51.8621 118.85 47.8821 129.336C42.7481 142.7 37.4601 156.004 32.0161 169.244C23.1301 190.488 1.59809 234.53 0.940099 254.972C0.648107 264.1 2.73612 273.448 6.58011 281.712C16.9581 304.024 34.5721 324.626 48.7181 344.708C66.2141 369.548 82.8401 395.104 100.634 419.712C107.774 429.586 119.282 442.626 124.608 452.89C130.734 464.694 134.842 479.58 136.478 492.734C139.23 514.866 137.264 536.878 135.37 558.998C133.256 583.7 130.496 608.232 127.584 632.852C125.272 652.386 123.942 672.028 121.58 691.548C120.636 699.346 115.022 735.16 115.93 739.104L117.452 738.746C120.136 732.984 120.336 722.22 121.178 715.656C124.808 687.316 127.26 658.928 130.692 630.576C133.626 607.784 135.976 584.92 137.738 562.008C140.734 524.678 144.894 488.016 127.488 453.03C124.194 446.414 119.128 440.39 114.742 434.464C108.608 426.246 102.59 417.94 96.6921 409.552C79.2441 384.76 62.6641 359.288 44.8001 334.796C31.5101 316.574 11.0761 291.74 5.1901 270.262C2.75611 261.374 3.03611 252.148 5.19211 243.23C7.59012 233.312 11.9281 223.694 15.7461 214.246C23.6801 194.618 32.3941 175.316 40.2841 155.662C44.2001 145.728 48.0321 135.76 51.7841 125.764C53.7481 120.594 55.4061 114.754 58.1541 109.992L58.6281 109.754L59.0641 107.422C59.5441 106.082 60.0641 104.756 60.6181 103.444C64.5801 94.22 71.9621 88.332 81.0701 84.652C87.1161 82.664 92.3921 82.046 98.7361 82.292C115.862 82.842 129.61 90.512 145.36 96.062C155.388 99.596 166.402 101.904 176.938 103.296C179.032 103.688 181.772 103.866 183.652 104.844L183.166 105.01C175.494 105.78 169.786 104.256 164.202 110.932C159.866 116.114 155.504 124.884 156.244 131.764C156.36 132.844 156.55 133.916 156.746 134.984C162.964 142.096 175.58 142.664 184.42 143.282C193.63 143.926 208.802 144.526 216.09 138.024C223.536 131.38 232.096 119.02 236.178 109.968C240.366 114.612 242.462 118.342 242.65 124.77C242.522 124.896 242.392 125.018 242.268 125.146C237.134 130.402 233.734 142.458 227.76 149.718C214.462 165.874 169.96 178.038 149.24 178.634C132.866 179.104 118.86 175.226 105.508 165.818C102.86 163.952 100.17 160.692 97.1061 162.614C94.5341 158.534 91.9141 154.482 89.2501 150.462C95.4301 167.188 105.846 181.056 122.336 188.65C128.178 191.288 134.256 193.364 140.492 194.85C135.28 206.228 129.766 218.578 117.222 223.232C110.526 225.714 101.95 227.012 94.8341 227.01L93.2961 227.624L93.2261 228.268C94.8601 229.1 96.4881 229.046 98.2721 229.14C111.098 228.324 120.658 226.73 130.18 217.4C130.834 226.494 130.888 233.658 124.594 241.002C117.966 248.732 95.7261 260.62 93.0261 265.086C99.5961 262.286 115.48 252.52 121.16 247.92C121.696 247.916 122.122 247.944 122.658 247.78C127.494 246.302 132.936 233.562 135.854 229.554C136.728 228.354 137.218 228.226 138.65 228.014C139.562 227.214 139.538 227.2 139.724 225.996L138.954 225.534L137.254 219.944C138.514 219.52 138.996 219.13 139.864 218.128C146.474 219.032 153.176 219.78 159.712 221.13C169.772 223.206 188.3 228.74 195.852 235.856C196.982 237.884 198.608 239.3 200.27 240.884C208.112 252.436 220.37 265.556 234.732 268.484C238.05 269.16 242.592 268.242 245.582 269.67C245.978 269.782 246.58 269.614 246.99 269.558C247.51 270.228 248.042 270.892 248.53 271.586C251.658 270.008 260.28 270.174 264.112 269.79C271.356 273.844 278.622 278.784 285.11 283.96L285.734 284.182L286.614 283.548C291.352 285.212 294.66 290.416 299.126 292.604C300.73 291.924 302.238 292.468 303.858 292.85C305.598 292.548 306.782 292.812 308.478 293.248C312.142 291.396 326.866 290.92 332.53 289.404C336.144 290.534 338.932 292.934 342.384 294.218C345.09 296.888 347.93 299.262 351.342 300.98C359.55 305.112 367.936 303.896 376.298 301.094C395.348 294.706 408.164 280.766 416.908 263.228C432.958 265.932 463.448 266.144 477.936 258.642C457.888 262.246 438.44 262.096 418.2 261.38C428.848 252.652 435.776 241.494 441.83 229.248C448.862 226.792 455.33 222.948 460.85 217.946C465.822 213.506 472.392 206.59 472.802 199.582L473.058 199.146C474.582 198.36 475.338 198.582 477.016 198.59C478.27 196.958 478.03 195.292 478.052 193.304C480.446 205.576 476.528 218.296 473.48 230.074L473.718 230.696C479.72 246.032 490.834 252.354 483.05 270.916C479.764 278.746 474.584 285.204 472.062 293.484C468.6 304.848 467.558 316.97 466.29 328.746C463.818 351.7 462.374 374.292 456.266 396.686C450.654 417.27 439.676 435.642 431.324 455.102C425.31 469.118 421.104 483.854 414.926 497.784C410.688 507.338 404.936 516.14 401.674 526.134C395.716 544.384 401.844 563.252 400.422 582.238C399.278 597.484 393.402 612.078 391.182 627.202C386.68 657.866 388.898 690.05 389.854 720.912C390.018 726.176 389.166 734.894 390.396 739.64C391.528 740.126 390.962 739.976 392.082 740.128C394.432 737.492 391.984 705.388 391.834 700.736C391.016 675.654 390.12 649.028 394.262 624.214C396.686 609.686 402.124 595.706 403.352 580.938C404.648 565.376 399.734 549.72 401.886 535.228C403.974 521.168 412.868 508.514 418.592 495.714C421.624 488.934 423.81 481.802 426.344 474.828C428.996 467.61 431.884 460.482 435 453.452C441.888 437.518 450.632 422.584 456.158 406.036C465.668 377.556 465.982 353.328 469.408 324.026C470.396 315.584 471.052 306.446 473.15 298.208C475.96 287.166 482.914 279.324 486.626 269.022C493.352 250.354 482.162 244.864 475.65 230.544C475.562 230.35 475.478 230.152 475.394 229.956C475.654 229.402 475.898 228.862 476.124 228.294C482.594 212.004 483.418 193.452 476.376 177.24C471.196 165.31 457.336 143.624 447.782 134.906C444.058 131.508 439.874 129.036 435.186 127.204C423.456 122.618 412.828 122.52 401.228 127.562C400.082 111.558 392.458 87.178 380.67 75.66C371.216 66.42 356.078 60.256 342.832 60.498C331.024 60.714 320.322 65.588 312.196 74.042C312.006 70.886 311.52 67.866 310.634 64.83C306.856 51.8778 296.218 31.8164 283.966 25.2686C272.326 19.0488 253.788 15.3054 240.896 19.2406C226.86 23.5254 214.448 35.1956 207.68 47.949Z" fill="#040202"/>
<path d="M478.052 193.304C476.862 178.562 456.644 145.838 445.596 136.302C437.322 129.162 425.524 125.322 414.634 126.282C406.718 126.978 399.476 130.148 394.32 136.362C386.006 146.38 377.484 169.704 370.7 182.56C363.68 195.862 352.012 210.67 347.744 224.778C344.92 234.12 345.578 244.09 344.536 253.692C343.48 263.42 340.91 272.078 341.146 282.002C342.308 279.058 343.088 275.664 346.03 274.048C348.75 274.07 373.084 287.86 375.612 290.242C375.52 293.096 375.296 295.75 374.764 298.56C395.492 291.066 404.202 281.046 414.766 262.312C412.076 262.356 409.358 262.488 406.672 262.348C410.76 260.782 415.73 259.792 419.282 257.226C428.548 250.528 446.16 218.514 451.488 206.696C455.284 198.278 456.104 189.392 459.184 180.844C460.186 198.75 451.438 210.688 444.294 225.694C454.088 221.538 462.198 214.824 468.506 206.284C470.094 204.134 471.206 201.722 472.802 199.582L473.058 199.146C474.582 198.36 475.338 198.582 477.016 198.59C478.27 196.958 478.03 195.292 478.052 193.304Z" fill="url(#paint0_linear_144_206)"/>
<path d="M450.346 157.872C448.774 153.832 446.654 150.03 444.042 146.568C438.458 139.192 430.278 134.622 421.156 133.306L420.658 134.25C435.146 138.23 441.984 145.924 450.346 157.872Z" fill="#040202"/>
<path d="M354.974 233.586L354.688 233.916C362.63 242.482 381.446 249.498 392.554 252.756C385.932 247.328 377.426 246.192 369.898 242.814C364.642 240.454 359.77 236.764 354.974 233.586Z" fill="#281715"/>
<path d="M409.572 145.26L408.892 146.194C421.114 150.76 430.784 157.604 441.108 165.392C432.068 155.294 422.342 149.544 409.572 145.26Z" fill="#040202"/>
<path d="M369.446 226.008L369.022 226.076L368.856 226.452C375.706 230.182 382.498 234.014 389.23 237.95L389.476 237.942L389.498 237.424C383.5 232.548 376.472 229.124 369.446 226.008Z" fill="#281715"/>
<path d="M421.156 133.306C418.806 132.778 415.85 131.992 413.504 132.68C415.294 133.998 418.452 133.974 420.658 134.25L421.156 133.306Z" fill="#654138"/>
<path d="M409.572 145.26C407.916 144.742 406.152 143.98 404.408 144.242C405.484 145.376 407.402 145.716 408.892 146.194L409.572 145.26Z" fill="#654138"/>
<path d="M242.65 124.77C242.522 124.896 242.392 125.018 242.268 125.146C237.134 130.402 233.734 142.458 227.76 149.718C214.462 165.874 169.96 178.038 149.24 178.634C132.866 179.104 118.86 175.226 105.508 165.818C102.86 163.952 100.17 160.692 97.1061 162.614C100.812 168.284 105.036 173.498 110.232 177.882C123.822 189.346 146.772 196.252 164.434 194.726C186.952 192.78 216.424 177.808 230.82 160.354C238.952 150.494 243.898 137.66 242.65 124.77Z" fill="#E2A48F"/>
<path d="M286.75 282.212C286.27 281.968 286.122 281.916 285.704 281.634C283.952 280.45 282.432 278.398 281.106 276.756C274.808 268.952 272.822 261.444 270.654 251.878C263.344 263.994 249.202 266.198 246.99 269.558C247.51 270.228 248.042 270.892 248.53 271.586C251.658 270.008 260.28 270.174 264.112 269.79C271.356 273.844 278.622 278.784 285.11 283.96L285.734 284.182L286.614 283.548C291.352 285.212 294.66 290.416 299.126 292.604C300.73 291.924 302.238 292.468 303.858 292.85C305.598 292.548 306.782 292.812 308.478 293.248C312.142 291.396 326.866 290.92 332.53 289.404C336.144 290.534 338.932 292.934 342.384 294.218C340.704 285.37 338.214 285.05 338.504 274.044C333.222 280.156 328.118 283.532 320.414 285.908C307.586 289.866 298.5 288.422 286.75 282.212Z" fill="#845349"/>
<path d="M194.53 216.782C192.16 221.216 190.314 224.694 185.998 227.524C188.21 228.574 190.534 229.754 192.522 231.19C194.384 232.536 195.51 233.586 195.852 235.856C196.982 237.884 198.608 239.3 200.27 240.884C197.366 234.154 196.116 224.122 194.53 216.782Z" fill="#845349"/>
<path d="M139.864 218.128C137.928 216.692 135.518 213.928 133.39 213.06C132.38 214.376 132.49 215.558 132.716 217.166C134.098 227.062 135.774 229.954 129.322 238.864C126.906 242.2 124.036 244.996 121.16 247.92C121.696 247.916 122.122 247.944 122.658 247.78C127.494 246.302 132.936 233.562 135.854 229.554C136.728 228.354 137.218 228.226 138.65 228.014C139.562 227.214 139.538 227.2 139.724 225.996L138.954 225.534L137.254 219.944C138.514 219.52 138.996 219.13 139.864 218.128Z" fill="#E2A48F"/>
<path d="M137.254 219.944L136.404 219.756C135.728 221.746 136.122 224.75 136.876 226.692L137.708 226.988C138.344 226.472 138.546 226.278 138.954 225.534L137.254 219.944Z" fill="#040202"/>
<path d="M343.658 62.7439C337.674 63.0459 331.776 64.1499 326.316 66.6859C316.772 71.1199 308.324 80.4019 304.72 90.2499C299.652 104.096 298.756 119.034 295.24 133.268L279.072 197.352C276.614 206.846 272.294 216.776 271.62 226.562C270.546 242.186 272.892 257.31 279.49 271.542L281.302 262.664C286.916 264.174 291.736 267.6 297.244 269.384C302.688 271.146 318.38 272.096 321.626 275.508C322.392 277.13 321.964 278.684 321.72 280.386C321.596 281.002 321.61 281.638 321.582 282.266L322.28 282.646C325.764 282.056 329.552 279.492 332.262 277.242C343.164 268.186 341.596 251.852 342.728 239.072C343.318 232.412 344.442 225.728 346.952 219.506C352.11 206.724 361.09 195.324 367.572 183.146C375.43 168.378 381.288 152.238 390.128 138.034C392.404 134.376 395.754 131.266 399.044 128.528C397.738 113.762 391.402 91.5159 381.592 79.9639C372.34 69.0679 357.536 63.8959 343.658 62.7439Z" fill="#F0BEA9"/>
<path d="M280.462 234.128L280.222 234.55C280.552 235.048 280.876 235.414 281.356 235.774C291.536 243.43 310.936 251.546 323.888 249.676L324.662 248.818C323.848 247.956 312.33 247.024 310.008 246.504C299.746 244.208 289.292 239.834 280.462 234.128Z" fill="#040202"/>
<path d="M344.174 87.646C337.612 86.644 330.186 87.65 323.664 88.6C324.38 89.26 340.568 88.844 342.51 89.062C349.8 89.882 357 92.63 363.574 95.756C367.316 97.89 372.61 102.718 376.358 103.802C368.406 94.936 355.814 89.374 344.174 87.646Z" fill="#040202"/>
<path d="M348.244 70.2C344.316 70.2059 339.102 70.562 335.334 71.7059C335.164 71.7579 335.002 71.84 334.828 71.878C334.642 71.918 334.45 71.916 334.26 71.936C350.682 71.414 360.382 72.2439 373.662 82.562C376.888 85.574 379.728 89.1339 382.786 92.338C381.12 89.674 379.276 87.1239 377.266 84.7059C369.354 75.3059 360.322 71.2879 348.244 70.2Z" fill="#040202"/>
<path d="M287.468 224.654L287.414 225.356C295.53 229.492 303.074 233.652 312.148 235.238C317.15 236.112 322.234 236.444 327.242 237.274L327.552 237.07C322.508 234.88 315.446 234.434 310.006 233.096C302.21 231.178 294.79 227.884 287.468 224.654Z" fill="#040202"/>
<path d="M312.162 254.922C301.398 252.878 296.224 249.472 286.46 245.84C293.694 251.124 301.66 255.73 310.864 256.092L312.162 254.922Z" fill="#040202"/>
<path d="M329.64 117.678L329.038 117.684L329.116 118.05C337.446 121.314 346.388 123.734 354.882 126.676L355.956 126.784C348.958 121.714 337.98 119.352 329.64 117.678Z" fill="#040202"/>
<path d="M310.864 256.092C312.82 256.182 315.528 256.596 317.276 255.592C315.742 254.774 313.868 254.946 312.162 254.922L310.864 256.092Z" fill="#654138"/>
<path d="M308.402 66.0921C303.45 51.9219 295.828 33.4697 281.51 26.5581C270.096 21.0483 251.77 17.9449 239.548 22.3645C227.104 26.8655 214.912 38.0921 209.328 50.0657C201.636 66.5561 203.006 86.1361 202.998 103.89C211.006 104.15 226.354 104.25 233.574 106.596C236.132 107.426 238.422 108.926 240.204 110.942C245.154 116.474 246.014 125.304 245.44 132.434C244.624 142.562 239.946 152.932 233.746 160.896C223.274 173.996 209.87 181.102 195.238 188.6C194.628 208.154 196.654 234.822 210.218 249.998C210.616 247.246 211.408 239.724 213.794 238.194C216.72 236.318 252.752 239.864 257.49 241.326C259.178 241.846 260.012 242.278 260.808 243.92C263.152 248.742 260.338 256.088 258.772 260.8C263.144 257.198 267 253.168 270.156 248.448C269.794 247.044 269.452 245.632 269.222 244.2C268.176 237.318 268.21 230.316 269.318 223.446C270.912 213.982 274.418 204.824 276.82 195.538L291.36 137.774C295.168 122.62 296.48 106.49 301.494 91.7081C303.63 85.4121 307.016 80.4361 310.912 75.1281C310.194 72.0801 309.298 69.0921 308.402 66.0921Z" fill="#F0BEA9"/>
<path d="M308.402 66.0921C307.996 66.5121 307.602 66.942 307.2 67.366C307 67.576 306.786 67.772 306.59 67.986C304.06 70.778 301.604 80.406 300.354 84.334C291.772 111.282 285.908 138.604 279.428 166.096C276.928 176.694 275.5 187.962 271.908 198.234C270.9 201.116 269.838 204.502 266.74 205.624L265.2 205.426L264.582 204.54L265.124 203.75C262.144 203.426 258.514 204.188 255.366 204.054C242.286 203.496 229.266 201.976 216.642 198.4C219.62 196.83 215.66 192.836 216.88 189.962C217.54 188.406 218.374 188.148 219.868 187.602L218.292 187.28L219.324 186.872C223.348 177.44 234.574 173.856 233.746 160.896C223.274 173.996 209.87 181.102 195.238 188.6C194.628 208.154 196.654 234.822 210.218 249.998C210.616 247.246 211.408 239.724 213.794 238.194C216.72 236.318 252.752 239.864 257.49 241.326C259.178 241.846 260.012 242.278 260.808 243.92C263.152 248.742 260.338 256.088 258.772 260.8C263.144 257.198 267 253.168 270.156 248.448C269.794 247.044 269.452 245.632 269.222 244.2C268.176 237.318 268.21 230.316 269.318 223.446C270.912 213.982 274.418 204.824 276.82 195.538L291.36 137.774C295.168 122.62 296.48 106.49 301.494 91.7081C303.63 85.4121 307.016 80.4361 310.912 75.1281C310.194 72.0801 309.298 69.0921 308.402 66.0921Z" fill="#E2A48F"/>
<path d="M216.642 198.4L210.102 197.112C225.882 204.468 247.44 207.872 264.582 204.54L265.124 203.75C262.144 203.426 258.514 204.188 255.366 204.054C242.286 203.496 229.266 201.976 216.642 198.4Z" fill="#040202"/>
<path d="M213.328 209.518L212.748 209.698C213.182 210.148 213.17 210.174 213.78 210.586C216.072 212.13 219.408 213.098 222.026 214.026C235.396 218.772 246.22 218.628 260.01 215.668C260.946 215.468 260.994 215.416 261.778 214.728C257.478 214.648 253.104 215.454 248.794 215.644C236.162 216.202 225.136 213.87 213.328 209.518Z" fill="#040202"/>
<path d="M219.324 186.872L218.292 187.28L219.868 187.602C231.482 191.246 243.664 192.748 255.816 192.036L257.682 190.974C244.802 191.096 232.002 188.908 219.324 186.872Z" fill="#040202"/>
<path d="M255.816 192.036C258.24 192.12 260.804 192.282 263.104 191.41C261.418 190.778 259.468 190.966 257.682 190.974L255.816 192.036Z" fill="#654138"/>
<path d="M273.104 77.9819C268.632 77.6739 264.068 76.6919 259.606 76.1299C253.986 75.4199 248.332 75.1659 242.678 74.8999C241.576 74.9719 239.518 74.7639 238.772 75.5359L238.932 75.8999C250.614 76.9799 262.362 77.8479 274.022 79.0699L273.104 77.9819Z" fill="#040202"/>
<path d="M259.866 33.4233C254.228 35.4659 249.12 38.8325 243.346 40.7141C237.23 42.7061 230.284 42.8481 224.37 45.3199C238.438 42.9285 248.51 43.6753 259.866 33.4233Z" fill="#040202"/>
<path d="M259.104 27.5191C264.346 28.1081 269.682 29.1257 274.964 29.0955L274.812 28.7453C268.474 26.9675 262.41 25.8001 255.818 26.4727L259.104 27.5191Z" fill="#040202"/>
<path d="M272.02 41.7883L272.01 42.8837C278.594 44.4651 283.902 47.6431 290.138 50.0257L290.07 49.6629L289.65 49.9951L289.648 49.2919C283.882 45.0507 278.956 43.3185 272.02 41.7883Z" fill="#281715"/>
<path d="M255.818 26.4727C253.112 26.1889 250.29 26.2398 247.644 26.9334C251.396 27.655 255.296 27.5017 259.104 27.5191L255.818 26.4727Z" fill="#E2A48F"/>
<path d="M242.678 74.8999C238.686 74.3979 234.514 74.278 230.526 74.88C233.056 75.602 236.308 75.9679 238.932 75.8999L238.772 75.5359C239.518 74.7639 241.576 74.9719 242.678 74.8999Z" fill="#654138"/>
<path d="M272.02 41.7883C270.478 41.5237 268.282 40.8542 266.834 41.4542C268.192 42.483 270.336 42.6411 272.01 42.8837L272.02 41.7883Z" fill="#654138"/>
<path d="M274.022 79.0699C275.318 79.3439 276.1 79.5299 277.42 79.2159C276.22 78.1999 274.608 78.1939 273.104 77.9819L274.022 79.0699Z" fill="#845349"/>
<path d="M171.696 3.07339C164.048 2.68539 145.634 2.10359 138.936 4.83099C134.132 6.78699 130.156 10.4348 126.268 13.7572C101.15 35.2128 98.0441 47.3588 95.5041 79.516C99.9021 79.424 104.302 79.622 108.592 80.662C107.156 76.88 106.154 72.946 105.604 68.938C104.422 60.908 105.064 50.9022 110.034 44.2286C106.602 57.3034 107.066 68.074 110.848 81.006C123.576 83.818 135.26 90.162 147.604 94.212C164.54 99.77 182.486 101.922 200.136 103.992C200.066 85.72 199.412 67.77 206.502 50.5798C201.608 39.6806 198.582 27.4464 192.108 17.3392C187.064 9.4632 180.93 5.10879 171.696 3.07339Z" fill="#F0BEA9"/>
<path d="M161.674 9.93213C157.466 10.6777 152.26 16.1295 148.302 18.2381C142.264 21.4545 135.186 22.5873 129.168 25.8357C130.954 25.6575 132.704 25.3517 134.46 24.9809C142.486 23.2861 157.06 16.9563 161.674 9.93213Z" fill="#040202"/>
<path d="M167.228 51.5591C169.282 51.5295 171.324 51.3801 173.372 51.2439L173.134 50.9693C164.2 49.8275 155.164 49.7193 146.206 50.6467C144.044 50.8753 141.806 50.9399 139.784 51.7883C147.876 52.2719 159.39 52.9303 167.228 51.5591Z" fill="#040202"/>
<path d="M146.206 50.6467C144.044 50.8753 141.806 50.9399 139.784 51.7883C147.876 52.2719 159.39 52.9303 167.228 51.5591C160.368 50.9677 153.346 52.0863 146.462 51.2455L146.206 50.6467Z" fill="#654138"/>
<path d="M168.426 19.1979C165.526 18.8465 162.524 19.0538 159.608 19.098C165.326 20.2918 171.244 20.775 177.008 21.8712C180.326 22.516 183.632 23.1092 186.976 23.5908C180.842 21.2924 174.944 19.9069 168.426 19.1979Z" fill="#281715"/>
<path d="M235.294 108.624C224.218 108.328 213.144 107.134 202.06 106.742C193.358 106.432 184.762 106.85 176.07 107.212C171.32 107.572 169.034 108.758 165.872 112.392C161.858 117.004 157.726 125.504 158.106 131.75C158.144 132.372 158.284 132.952 158.428 133.556C158.958 134.802 159.752 135.836 160.936 136.52C170.66 142.138 202.462 141.742 212.816 138.796C221.156 131.044 229.222 118.306 235.294 108.624Z" fill="#F0BEA9"/>
<path d="M176.07 107.212C171.32 107.572 169.034 108.758 165.872 112.392C161.858 117.004 157.726 125.504 158.106 131.75C158.144 132.372 158.284 132.952 158.428 133.556C158.556 133.476 158.68 133.394 158.808 133.314C159.186 133.08 159.788 132.74 160.158 132.434C163.892 129.34 176.602 112.228 177.144 107.858L176.07 107.212Z" fill="#FADED2"/>
<path d="M217.244 239.158C216.612 239.15 215.886 239.34 215.258 239.444C212.586 241.774 213.146 247.598 212.152 250.916C212.108 251.064 212.06 251.21 212.014 251.356C215.964 255.54 220.724 259.428 225.782 262.186C234.252 266.804 243.164 266.832 252.242 264.144L256.47 261.728C257.972 256.924 261.454 248.562 259.01 243.786C252.982 241.296 244.142 242.246 237.618 241.772C230.82 241.276 223.93 240.486 217.244 239.158Z" fill="#ECB7A2"/>
<path d="M186.052 202.54C178.822 202.532 156.184 201.222 150.692 203.836C147.98 207.256 147.634 212.272 146.854 216.466C150.236 217.048 153.698 217.378 157.106 217.812C162.894 219.046 168.588 220.688 174.146 222.722C176.172 223.446 181.34 225.922 183.276 225.726C183.578 225.696 183.85 225.518 184.138 225.414C185.018 224.45 185.566 223.63 185.884 222.342C187.108 217.402 188.788 206.888 186.052 202.54Z" fill="#ECB7A2"/>
<path d="M347.23 275.9C346.878 275.982 346.608 276.016 346.294 276.22C344.09 277.658 342.854 283.034 342.036 285.418C343.492 290.006 345.47 293.832 349.42 296.774C354.854 300.822 361.19 301.324 367.656 300.352C368.538 300.178 369.534 300.018 370.342 299.602C371.752 298.876 372.308 297.458 372.816 296.06C373.452 294.314 374.19 292.664 374.964 290.974C365.106 286.646 356.12 282.034 347.23 275.9Z" fill="#ECB7A2"/>
<path d="M192.646 189.65C177.334 197.752 159.38 199.032 142.646 195.436C140.284 200.664 137.974 205.7 134.942 210.59C137.86 213.76 140.182 215.194 144.108 216.76C145.054 212.448 145.94 207.922 147.696 203.862C148.308 203.238 148.914 202.594 149.658 202.122C155.01 198.726 177.028 199.002 183.472 200.476C185.376 200.912 186.862 201.484 187.86 203.266C191.728 210.164 188.804 218.664 186.692 225.602C189.366 221.884 191.654 217.986 193.964 214.038C191.5 206.6 192.46 197.404 192.646 189.65Z" fill="#A87267"/>
<path d="M284.34 265.846C283.208 266.24 283.648 265.928 282.854 266.866C281.726 268.2 281.04 269.428 281.314 271.228C281.914 275.172 287.11 279.18 290.368 281.196C297.974 285.898 306.818 286.636 315.396 284.616C316.038 284.402 316.758 284.17 317.354 283.86C319.696 282.638 320.364 278.78 321.098 276.432C316.508 275.202 311.768 274.868 307.082 274.16C298.512 272.868 291.9 269.882 284.34 265.846Z" fill="#ECB7A2"/>
<path d="M203.644 639.006C203.186 626.426 202.208 603.7 198.196 591.96C196.886 588.126 195.068 584.872 192.234 581.926C192.068 582.158 191.91 582.396 191.738 582.622C189.224 585.934 183 588.444 179.486 590.936C177.466 592.368 175.612 594.076 173.818 595.776C164.564 604.544 155.778 616.452 151.926 628.728C150.19 634.256 149.19 640.224 147.978 645.89C147.27 649.194 147.834 652.506 146.846 655.808C146.076 658.384 146.248 661.136 145.972 663.784C145.814 665.284 145.148 666.656 144.928 668.136C144.444 671.422 144.832 674.496 143.826 677.752C142.848 680.912 143.01 684.484 142.684 687.768C142.476 689.844 141.618 691.7 141.296 693.746C140.638 697.938 141.078 702.048 139.844 706.184C138.088 712.058 138.92 718.504 137.316 724.508C135.772 730.29 136.962 738.744 134.124 743.872C159.092 750.292 185.342 753.294 210.894 756.358C209.89 746.382 209.71 736.324 209.118 726.316C208.692 719.108 206.674 703.264 208.05 696.766C205.97 682.992 207.254 668.498 206.01 654.606C204.338 652.522 203.856 642.104 203.644 639.006Z" fill="#F0BEA9"/>
<path d="M81.0701 84.652C71.9621 88.332 64.5801 94.22 60.6181 103.444C60.0641 104.756 59.5441 106.082 59.0641 107.422C60.3061 114.636 61.2302 121.918 63.6062 128.872C70.9642 123.272 64.6462 102.896 72.9442 95.7481C73.9182 94.9101 75.0622 94.3901 76.3582 94.5061C76.6262 94.5301 76.8942 94.5721 77.1602 94.6041L77.7803 93.3701L78.7462 93.6061C80.1422 92.3761 81.5282 89.9941 82.7042 88.4681C82.3782 87.8021 82.2342 87.2221 82.1142 86.4961C81.9282 85.3621 81.8141 85.44 81.0701 84.652Z" fill="#E2A48F"/>
<path d="M246.99 269.558C246.58 269.614 245.978 269.782 245.582 269.67C249.106 275.158 253.222 280.25 256.518 285.89C268.262 305.982 275.032 330.718 275.844 353.96C276.05 359.89 275.358 365.782 275.442 371.69C282.294 345.2 271.344 308.508 257.826 285.408C255.056 280.672 251.996 275.846 248.53 271.586C248.042 270.892 247.51 270.228 246.99 269.558Z" fill="#040202"/>
<path d="M299.126 292.604C294.66 290.416 291.352 285.212 286.614 283.548L285.734 284.182C299.614 295.172 313.13 306.616 326.262 318.492C337.944 329.148 349.482 340.984 362.186 350.388C362.014 349.078 361.528 348.416 360.6 347.468C356.974 343.76 352.28 341.088 348.5 337.526C332.466 322.408 317.132 306.492 299.632 292.99L299.126 292.604Z" fill="#281715"/>
<path d="M203.644 639.006C204.028 638.502 204.246 638.344 204.4 637.77C206.038 631.73 201.18 594.326 198.27 588.338C197.308 586.358 194.452 580.958 192.528 580.256L191.946 580.994L192.234 581.926C195.068 584.872 196.886 588.126 198.196 591.96C202.208 603.7 203.186 626.426 203.644 639.006Z" fill="#A87267"/>
<path d="M86.318 86.21L85.51 85.936C84.426 86.722 83.6082 87.4781 82.7042 88.4681C81.5282 89.9941 80.1422 92.3761 78.7462 93.6061C74.3822 103.208 74.964 112.44 76.02 122.652C77.962 107.96 75.706 98.28 86.318 86.21Z" fill="#040202"/>
<path d="M94.8341 227.01C84.7821 226.836 74.6321 226.058 64.5941 226.682L64.8681 227.038C75.2001 228.046 88.1161 231.194 98.2721 229.14C96.4881 229.046 94.8601 229.1 93.2261 228.268L93.2961 227.624L94.8341 227.01Z" fill="#522D27"/>
<path d="M208.05 696.766C209.894 687.274 208.434 665.046 207.1 654.89L206.01 654.606C207.254 668.498 205.97 682.992 208.05 696.766Z" fill="#845349"/>
<path d="M59.0641 107.422L58.6281 109.754L58.1541 109.992C58.5361 114.61 60.31 128.262 63.864 131.36C63.994 131.472 64.15 131.552 64.294 131.646C64.226 130.596 63.9922 129.848 63.6062 128.872C61.2302 121.918 60.3061 114.636 59.0641 107.422Z" fill="#040202"/>
<path d="M308.478 293.248C306.782 292.812 305.598 292.548 303.858 292.85C309.782 295.702 315.778 298.464 321.622 301.474L322.016 300.462C317.54 298.002 313.092 295.44 308.478 293.248Z" fill="#040202"/>
<path d="M183.166 105.01L183.652 104.844C181.772 103.866 179.032 103.688 176.938 103.296C176.046 103.694 174.782 104.002 174.298 104.882C177.274 105.144 180.18 104.622 183.166 105.01Z" fill="#F0BEA9"/>
<path d="M331.292 306.16C328.342 304.122 325.262 301.99 322.016 300.462L321.622 301.474C324.246 303.508 328.25 304.858 331.292 306.16Z" fill="#845349"/>
<path d="M402.494 503.754C396.008 504.566 389.592 506.098 383.084 506.892C362.576 509.394 342.286 506.166 323.184 498.514C312.12 494.082 301.752 488.878 290.036 486.256C265.084 480.672 238.148 481.948 212.732 482.432L214.7 483.506C224.13 483.834 233.562 484.112 242.994 484.336C260.318 484.654 278.138 484.58 294.926 489.506C302.926 491.852 310.358 495.596 317.992 498.888C344.622 510.366 374.878 514.776 402.494 503.754Z" fill="#040202"/>
<path d="M285.288 516.688C284.26 516.558 283.176 516.582 282.138 516.54L282.32 516.8L281.942 516.762L282.62 516.576L283.01 517.146C288.908 518.63 295.354 519.814 300.974 522.136C306.73 524.512 312.128 527.828 318.008 530.146C335.568 537.07 354.88 537.952 373.392 535.004C374.916 534.674 376.226 534.286 377.654 533.656C376.142 533.194 357.61 534.722 353.692 534.684C347.472 534.578 341.27 533.954 335.152 532.822C317.548 529.71 303.026 519.348 285.288 516.688Z" fill="#040202"/>
<path d="M227.222 587.896C225.212 591.466 218.41 687.258 218.77 698.456C220.608 695.206 227.67 597.484 227.222 587.896Z" fill="#281715"/>
<path d="M260.562 613.28C260.482 611.094 260.938 608.826 260.354 606.692L259.552 607.288C258.66 618.512 258.388 629.74 257.972 640.988C257.314 658.794 256.722 676.718 257.818 694.518L258.168 694.774L258.148 695.962C257.864 694.516 257.926 695.68 258.336 694.276C259.216 691.262 258.838 673.362 258.922 669.258C259.288 650.594 259.836 631.934 260.562 613.28Z" fill="#281715"/>
<path d="M429.5 379.364C428.108 380.058 426.874 381.196 425.502 381.982C421.396 384.334 415.714 386.128 412.384 389.566C406.196 395.958 416.31 417.824 417.948 425.648C419.726 433.828 420.664 442.166 420.746 450.536C421.992 449.25 422.01 445.912 422.022 444.236C422.092 434.864 419.766 424.76 416.974 415.846C415.092 409.84 412.328 403.26 412.134 396.91C412.072 394.878 412.742 392.998 413.386 391.104C418.43 386.352 424.988 385.154 429.5 379.364Z" fill="#040202"/>
<path d="M210.274 398.882C206.654 401.142 202.78 406.628 199.732 409.84C193.764 416.13 187.656 422.446 181.254 428.298C172.008 436.748 161.264 441.902 150.794 448.424C171.74 443.48 198.466 416.25 210.274 398.882Z" fill="#040202"/>
<path d="M136.48 305.912C123.222 328.022 106.106 348.856 88.2782 367.416C89.2722 367.486 94.8701 362.392 95.9981 361.4C110.23 348.864 126.74 323.312 136.936 306.972L136.48 305.912Z" fill="#040202"/>
<path d="M337.604 355.904C337.602 356.046 337.59 356.188 337.6 356.33C337.776 358.892 339.456 362.208 340.454 364.57C348.78 384.24 364.58 406.962 380.388 421.376C380.71 420.232 373.592 412.768 372.464 411.37C358.18 393.652 347.458 376.46 337.604 355.904Z" fill="#281715"/>
<path d="M103.036 267.778C99.4702 270.084 91.1302 281.198 87.8102 284.978C78.1022 296.026 67.7542 306.81 58.4742 318.188C66.4662 315.216 97.4482 276.544 103.036 267.778Z" fill="#040202"/>
<path d="M181.048 394.036C178.268 395.874 175.702 398.308 173.114 400.422C167.35 405.134 161.48 409.91 155.268 414.024C146.306 419.962 136.356 423.58 127.292 429.112L126.83 429.4C143.232 424.766 157.278 415.314 170.298 404.64C174.112 401.512 178.334 398.208 181.048 394.036Z" fill="#040202"/>
<path d="M375.884 585.402C375.748 585.516 375.594 585.612 375.472 585.742C374.292 586.998 373.54 589.694 372.972 591.324C367.506 606.978 366.23 625.006 366.24 641.534C367.64 640.102 369.884 613.414 370.582 608.938C371.826 600.976 373.83 593.186 375.884 585.402Z" fill="#040202"/>
<path d="M208.28 529.924L207.558 530.916C224.864 538.87 247.876 549.242 266.996 550.3C265.918 549.114 254.202 546.756 251.862 546.084C237.064 541.832 222.218 536.472 208.28 529.924Z" fill="#040202"/>
<path d="M229.99 546.516C229.512 546.89 229.766 546.618 229.43 547.482C235.364 552.742 259.258 557.074 267.786 558.528C268.026 558.262 268.134 557.902 268.294 557.58C263.14 554.806 256.058 553.918 250.358 552.464C243.496 550.736 236.702 548.752 229.99 546.516Z" fill="#E2A48F"/>
<path d="M118.484 291.57C111.716 300.938 104.788 310.306 97.4662 319.254C92.9342 324.792 88.0902 330.072 83.5442 335.6L84.2041 336.604C97.1221 323.008 108.078 308.636 118.706 293.19L118.484 291.57Z" fill="#040202"/>
<path d="M217.754 419.25C206.988 429.81 194.598 440.428 181.518 448.014C176.914 450.686 171.734 452.474 167.202 455.24L166.616 455.602C182.04 451.64 209.244 432.956 217.754 419.25Z" fill="#040202"/>
<path d="M282.448 574.302C281.808 572.334 282.018 570.46 281.632 568.44L280.374 568.76C280.616 574.592 283.66 613.75 286.036 616.366C286.778 608.666 284.872 600.642 284.078 592.994C283.434 586.776 283.178 580.506 282.448 574.302Z" fill="#040202"/>
<path d="M83.0724 259.55C82.1344 259.644 81.3004 259.822 80.3904 260.074C68.8204 263.294 47.3203 274.976 41.2323 285.572C44.8903 284.126 56.4083 273.89 61.0223 270.792C67.8403 266.218 75.6424 262.984 83.0724 259.55Z" fill="#040202"/>
<path d="M136.942 459.656L136.702 459.97C146.264 468.53 165.844 475.742 178.442 477.08C178.036 476.362 173.046 474.978 172.018 474.616C159.818 470.312 148.584 465.254 136.942 459.656Z" fill="#040202"/>
<path d="M295.988 335.282L295.336 336.242L306.408 365.236C308.384 370.418 310.098 376.408 312.81 381.218C312.564 372.72 299.972 343.934 295.988 335.282Z" fill="#040202"/>
<path d="M295.17 396.284C295.224 394.262 295.182 392.688 294.598 390.74C291.862 405.826 288.27 422.618 280.726 436.128L281.632 436.53C288.446 423.768 292.34 410.4 295.17 396.284Z" fill="#040202"/>
<path d="M91.88 194.326L91.278 195.788C100.302 201.85 108.962 205.508 119.744 206.848C122.566 207.198 125.072 207.662 127.942 207.28C124.582 206.14 121.002 205.932 117.558 205.092C108.48 202.898 99.81 199.262 91.88 194.326Z" fill="#040202"/>
<path d="M219.936 504.228L216.264 505.008C230.078 507.836 243.956 510.018 257.876 512.22L258.254 511.214C251.182 509.686 244.072 508.332 236.932 507.15C231.318 506.252 225.42 505.694 219.936 504.228Z" fill="#040202"/>
<path d="M259.542 420.01C267.284 406.572 275.744 387.61 275.914 371.852L275.544 371.614C273.86 375.332 273.518 380.634 272.538 384.686C269.692 396.434 265.606 408.852 259.042 419.092L258.778 419.492L259.542 420.01Z" fill="#281715"/>
<path d="M281.894 409.422C278.63 414.114 276.218 423.81 272.84 429.736C268.274 437.75 261.8 444.13 256.698 451.696L256.47 452.04C256.63 451.956 256.794 451.886 256.946 451.792C258.75 450.666 260.396 448.568 261.854 447.018C271.824 436.428 278.512 423.548 281.894 409.422Z" fill="#040202"/>
<path d="M221.158 466.154C235.286 459.572 247.002 452.07 257.086 440.1C252.464 443.648 248.334 447.814 243.682 451.352C236.546 456.784 228.626 461.08 220.812 465.438L221.158 466.154Z" fill="#040202"/>
<path d="M431.876 335.974C431.444 338.106 438.218 361.19 439.242 364.64C440.386 358.002 436.034 345.802 434.464 338.848L431.876 335.974Z" fill="#040202"/>
<path d="M110.89 90.322C110.19 90.52 109.696 90.758 109.144 91.244C101.888 97.642 94.8362 110.956 94.0462 120.594C98.9942 108.792 103.18 100.532 110.89 90.322Z" fill="#040202"/>
<path d="M65.8399 254.138C64.5059 254.066 63.3079 254.212 61.9899 254.414C56.8439 255.2 48.0339 256.894 44.7659 261.328C44.8639 261.302 44.9619 261.28 45.0579 261.252C47.8399 260.412 64.2659 256.084 65.2459 255.176C65.5379 254.906 65.6419 254.484 65.8399 254.138Z" fill="#040202"/>
<path d="M297.246 381.52C298.556 374.204 299.692 367.932 298.29 360.47C296.818 362.344 296.664 374.414 296.244 377.632C296.738 378.97 297.038 380.108 297.246 381.52Z" fill="#E2A48F"/>
<path d="M282.448 574.302C282.384 566.194 282.214 558.162 282.482 550.052C280.668 555.956 279.46 562.586 280.374 568.76L281.632 568.44C282.018 570.46 281.808 572.334 282.448 574.302Z" fill="#845349"/>
<path d="M378.85 308.998L377.98 309.172C378.588 309.766 395.662 318.128 398.984 320.036L399.74 320.24C396.536 314.998 384.514 310.966 378.85 308.998Z" fill="#281715"/>
<path d="M164.498 254.364L164 254.654C163.306 256.232 161.3 265.904 161.62 267.308L162.104 266.784C163.194 264.038 164.952 261.782 166.184 259.174C166.81 257.85 167.128 256.888 166.722 255.51L164.498 254.364Z" fill="#E2A48F"/>
<path d="M260.562 613.28C262.31 606.516 261.394 595.064 261.082 587.968C259.256 593.632 259.786 601.306 259.552 607.288L260.354 606.692C260.938 608.826 260.482 611.094 260.562 613.28Z" fill="#A87267"/>
<path d="M446.4 321.366C444.612 326.342 442.762 330.614 438.892 334.394C437.454 335.798 435.87 336.814 434.788 338.558C436.784 338.306 438.616 337.048 440.09 335.722C443.962 332.238 446.214 326.496 446.4 321.366Z" fill="#040202"/>
<path d="M84.3141 188.32C80.9021 185.492 77.45 182.556 73.612 180.316C76.896 184.338 79.388 187.86 84.234 190.058L84.3141 188.32Z" fill="#A87267"/>
<path d="M296.244 377.632C295.784 381.486 294.14 387.004 294.598 390.74C295.182 392.688 295.224 394.262 295.17 396.284C296.14 391.43 296.298 386.408 297.246 381.52C297.038 380.108 296.738 378.97 296.244 377.632Z" fill="#654138"/>
<path d="M419.19 394.022C418.558 394.168 418.962 394.034 418.072 394.64C421.9 397.564 426.334 399.998 430.422 402.57L431.292 403.106L432.112 402.776L432.132 401.792C427.706 399.234 423.388 396.996 419.19 394.022Z" fill="#E2A48F"/>
<path d="M118.706 293.19C121.946 288.97 124.694 283.998 127.452 279.446L127.128 279.064C124.516 283.288 121.22 287.348 118.484 291.57L118.706 293.19Z" fill="#654138"/>
<path d="M83.5442 335.6C80.9342 338.318 77.9002 341.046 75.9262 344.262L76.0242 344.82L76.4183 344.65L75.9722 344.174L76.8282 344.374L76.2202 343.728L76.4322 343.394L77.4002 343.92C79.8182 341.594 82.0141 339.144 84.2041 336.604L83.5442 335.6Z" fill="#654138"/>
<path d="M84.3141 188.32L84.234 190.058C86.5201 192.086 88.782 194.02 91.278 195.788L91.88 194.326C89.216 192.466 86.7721 190.444 84.3141 188.32Z" fill="#522D27"/>
<path d="M287.974 561.036L287.526 561.46L287.988 562.432C290.834 564.42 294.41 565.184 297.77 565.842L297.984 565.174C294.686 563.544 291.254 562.926 287.974 561.036Z" fill="#522D27"/>
<path d="M472.532 229.912C469.89 230.862 467.176 235.014 465.348 237.146C465.89 237.074 466.016 237.092 466.58 236.816C469.006 235.622 471.598 232.398 472.532 229.912Z" fill="#654138"/>
<path d="M258.778 419.492C257.17 421.864 255.418 424.146 254.492 426.878L254.69 427.192L254.538 427.136L254.696 426.082L255.776 426.286C257.108 424.332 258.652 422.2 259.542 420.01L258.778 419.492Z" fill="#A87267"/>
<path d="M219.936 504.228C217 503.83 213.77 503.222 210.894 504.098L211.128 503.924L211.512 504.758L211.584 503.78L212.122 504.86C213.472 504.95 214.924 505.18 216.264 505.008L219.936 504.228Z" fill="#A87267"/>
<path d="M212.732 482.432C210.846 482.456 207.378 481.952 205.932 483.116L205.378 483.054C208.436 483.788 211.58 483.566 214.7 483.506L212.732 482.432Z" fill="#654138"/>
<path d="M208.28 529.924C205.596 528.882 202.09 527.042 199.258 526.766C201.528 528.476 204.828 530.086 207.558 530.916L208.28 529.924Z" fill="#654138"/>
<path d="M257.876 512.22C260.608 512.694 263.328 513.074 266.08 513.398L266.592 512.748C267.184 512.958 266.888 512.8 267.452 513.278L266.446 513.404L266.114 512.6C263.546 511.968 260.866 511.644 258.254 511.214L257.876 512.22Z" fill="#654138"/>
<path d="M136.936 306.972C138.252 305.292 140.42 302.57 140.388 300.388C138.63 301.77 137.606 304.008 136.48 305.912L136.936 306.972Z" fill="#A87267"/>
<path d="M280.726 436.128C279.534 438.226 278.36 440.336 277.204 442.456L277.954 443.046C279.228 440.902 280.454 438.73 281.632 436.53L280.726 436.128Z" fill="#654138"/>
<path d="M295.988 335.282C295.462 333.68 295.038 331.442 293.764 330.288C293.268 331.49 293.814 332.888 294.314 334.05C294.632 334.79 294.986 335.518 295.336 336.242L295.988 335.282Z" fill="#845349"/>
<path d="M277.204 442.456C275.558 444.254 274.432 446.91 273.252 449.05C275.356 447.268 276.588 445.412 277.954 443.046L277.204 442.456Z" fill="#A87267"/>
<path d="M220.812 465.438C219.382 466.094 218.12 466.444 217.166 467.74C218.674 467.696 219.87 466.86 221.158 466.154L220.812 465.438Z" fill="#845349"/>
<defs>
<linearGradient id="paint0_linear_144_206" x1="229.567" y1="737.934" x2="292.967" y2="9.74205" gradientUnits="userSpaceOnUse">
<stop stop-color="#E5A48E"/>
<stop offset="1" stop-color="#F7CBB7"/>
</linearGradient>
</defs>
</svg>
