<svg width="585" height="833" viewBox="0 0 585 833" fill="none" xmlns="http://www.w3.org/2000/svg">
<path d="M357.924 293.503C357.257 274.865 364.35 251.626 367.413 232.644C369.984 216.714 371.682 200.655 374.518 184.761C377.208 169.685 380.988 154.829 383.44 139.694C385.888 124.588 387.001 109.105 389.822 94.102C391.574 84.787 394.519 75.779 396.839 66.604C399.899 54.76 401.293 42.548 400.979 30.32C400.783 21.879 399.431 14.768 392.902 8.76997C386.816 3.17907 377.911 -0.301327 369.618 0.358173C361.919 0.970373 355.334 5.12117 350.564 11.015C333.148 32.531 332.37 79.042 325.185 105.918C318.559 130.7 308.19 154.286 303.479 179.601C299.164 202.786 299.526 226.71 296.154 250.049C294.746 259.794 291.227 268.599 289.139 278.094C282.639 275.525 275.21 271.306 272.419 264.542C268.776 255.708 271.173 234.876 270.978 224.541C270.683 208.963 268.654 193.366 267.754 177.805C267.199 168.213 267.452 158.51 267.379 148.902C267.31 139.711 266.939 130.54 267.025 121.345C267.272 94.985 275.519 68.511 270.6 42.087C269.035 33.679 264.752 25.581 256.612 21.921C249.423 18.688 241.26 19.605 234.146 22.548C224.734 26.442 218.257 35.268 214.499 44.448C209.576 56.471 207.656 71.346 206.882 84.29C206.521 90.331 206.602 96.414 205.983 102.435C203.628 125.329 196.452 148.117 196.033 171.127C195.728 187.878 195.958 205.209 196.942 221.928L198.338 249.252C198.95 260.177 199.713 270.553 198.463 281.491C197.303 291.644 195.497 301.762 193.881 311.85C190.698 331.714 187.83 352.083 179.41 370.539C176.059 377.882 172.13 384.84 168.088 391.821C165.355 396.542 162.195 401.346 160.302 406.474C154.316 401.855 148.157 397.343 143.449 391.35C135.014 380.613 129.383 361.879 124.544 349.049C121.973 342.234 119.051 335.388 116.828 328.455C114.74 321.943 114.072 315.258 111.09 309C101.684 289.257 72.5251 259.095 52.8801 249.986C44.0971 245.914 34.9531 244.113 25.3031 245.32C17.1961 246.333 8.53407 249.779 3.56605 256.552C0.955029 260.113 -0.536976 264.392 0.290051 268.816C1.79805 276.879 12.3161 289.999 16.7681 297.869C21.4871 306.212 25.8181 314.848 30.2231 323.361C36.2051 334.921 41.4661 346.801 46.9071 358.619C51.306 368.175 55.9951 377.596 59.8051 387.411C63.0441 395.82 65.5791 404.483 67.384 413.311C71.523 434.466 72.0991 456.242 82.9021 475.477C91.1911 490.236 101.649 503.932 111.451 517.713C125.152 536.922 138.719 556.227 152.151 575.626C160.163 587.204 169.139 598.997 175.315 611.682C177.964 617.122 179.728 622.818 180.026 628.884C180.524 639.026 178.975 649.507 177.92 659.587L173.018 706.024C170.135 736.11 168.588 766.4 165.979 796.533C165.806 798.533 163.94 814.809 164.337 815.751C164.448 816.015 164.734 816.165 164.932 816.372L165.918 816.649C180.982 825.012 244.343 832.382 261.956 832.042L262.37 832.062C266.639 833.075 272.492 832.53 276.908 832.542C310.537 832.631 344.961 829.277 377.68 821.224C382.958 819.926 388.994 818.784 393.918 816.491L395.466 816.118C396.431 813.399 393.951 779.803 393.8 773.93C393.248 755.709 392.975 737.48 392.984 719.25C393.006 704.156 393.007 688.934 395.291 673.982C397.873 657.084 402.424 639.491 409.252 623.82C415.148 610.289 423.376 598.07 430.483 585.187C439.301 569.2 446.492 552.097 452.46 534.859C459.517 514.478 463.945 493.42 469.197 472.541C473.056 457.204 477.719 442.087 481.528 426.746C483.868 417.324 484.035 404.774 487.61 396.338C492.334 385.192 503.797 370.965 510.499 360.069C516.145 350.892 520.911 341.24 525.935 331.721C528.938 326.029 532.219 320.488 535.251 314.811C541.919 302.323 548.21 289.61 555.125 277.257C566.368 257.173 593.289 219.786 581.659 196.2C579.162 191.135 575.625 188.272 570.207 186.649C562.551 184.382 554.299 185.377 547.401 189.398C528.495 200.242 519.771 227.052 510.905 245.824C507.647 252.723 503.904 259.488 499.972 266.024C495.422 273.588 490.96 281.069 485.568 288.081C478.438 297.353 470.398 305.764 463.561 315.305C457.043 324.4 449.742 338.585 442.96 346.288C441.273 348.205 439.434 349.868 436.698 349.048C431.958 347.627 427.094 342.23 424.227 338.343C430.277 317.227 440.791 297.971 448.315 277.4C451.614 268.378 454.351 259.153 457.295 250.013C461.683 236.385 466.331 222.886 470.371 209.143C474.856 193.892 478.687 178.476 483.052 163.2C489.447 140.818 498.227 119.349 500.797 95.968C501.51 89.477 501.419 82.624 498.035 76.815C494.088 70.037 486.373 65.359 478.865 63.546C471.87 61.857 464.838 62.652 458.648 66.508C451.86 70.736 448.072 77.72 444.953 84.83C436.983 102.997 433.607 121.872 428.508 140.863C426.099 149.832 422.808 158.524 419.658 167.25C416.562 175.825 413.516 184.379 409.716 192.674C401.403 210.818 391.801 227.887 384.968 246.74C382.31 254.135 379.891 261.614 377.713 269.165C374.707 279.3 372.392 291.938 366.222 300.649C363.183 298.502 360.352 296.357 357.924 293.503Z" fill="#F0BEA9"/>
<path d="M267.963 247.663C268.939 223.935 266.318 201.127 265.117 177.533C264.124 158.019 264.351 138.117 264.378 118.563C264.393 107.654 266.288 97.2669 267.598 86.4979C269.002 74.9579 269.618 62.9869 268.946 51.3769C268.49 43.4859 267.427 34.5269 261.686 28.5459C257.532 24.2169 251.92 22.5259 246.04 22.5339C238.299 22.5049 230.895 25.7019 225.608 31.3559C207.178 50.8119 211.28 87.0549 207.622 111.651C204.878 130.096 199.897 148.629 198.775 167.252C198.226 176.376 198.889 185.633 199.11 194.769C199.344 204.424 199.201 214.097 199.53 223.749C200.049 239.006 202.179 254.483 201.98 269.719C201.825 281.551 199.492 293.518 197.674 305.185C194.693 324.328 192.482 344.969 185.279 363.033C179.354 377.891 170.878 391.189 163.378 405.233C170.014 397.941 185.64 381.476 194.838 379.379C196.229 379.184 198.882 377.231 200.017 376.39C201.104 375.584 202.006 374.768 202.257 373.393C201.408 372.631 200.243 372.77 199.124 372.653C196.604 369.53 206.047 342.936 207.163 337.488C208.589 330.531 209.145 323.581 209.84 316.531C210.79 306.906 213.134 282.762 216.119 274.982C216.73 273.389 217.783 271.621 219.188 270.619C219.429 270.447 219.697 270.317 219.95 270.163C220.428 269.872 220.904 269.578 221.386 269.295C232.701 268.177 247.944 267.358 258.79 264.997C260.343 265.304 261.461 266.022 262.911 266.494C264.818 267.114 266.933 267.469 268.732 266.522C269.6 263.814 265.625 254.767 267.654 248.533C267.75 248.241 267.86 247.953 267.963 247.663Z" fill="url(#paint0_linear_144_208)"/>
<path d="M258.79 264.997C251.255 263.185 228.131 265.341 221.944 268.951C221.756 269.061 221.572 269.18 221.386 269.295C232.701 268.177 247.944 267.358 258.79 264.997Z" fill="#020000"/>
<path d="M258.829 182.515C252.129 182.667 245.434 184.961 238.644 185.339C232.313 185.692 221.999 183.971 216.44 185.465L216.729 185.638C231.731 189.232 244.539 188.603 258.829 182.515Z" fill="#020000"/>
<path d="M221.205 103.216C220.309 103.059 219.596 103.119 218.694 103.181C225.994 108.009 246.361 107.573 255.261 107.238C256.31 107.278 257.109 107.217 258.127 106.961L258.162 106.419C252.941 105.366 247.093 105.501 241.749 105.145C234.889 104.636 228.04 103.993 221.205 103.216Z" fill="#36130E"/>
<path d="M245.891 171.109C236.485 170.659 227.246 171.573 218.459 175.071L225.491 174.1C235.587 172.255 246.215 173.193 256.408 173.607C252.925 172.667 249.412 171.889 245.891 171.109Z" fill="#020000"/>
<path d="M226.7 95.1299L225.153 95.1759C227.549 97.3199 234.968 98.9819 238.244 99.1999L240.504 98.8909C238.899 97.2609 229.379 95.7409 226.7 95.1299Z" fill="#36130E"/>
<path d="M357.924 293.503C357.257 274.865 364.35 251.626 367.413 232.644C369.984 216.714 371.682 200.655 374.518 184.761C377.208 169.685 380.988 154.829 383.44 139.694C385.888 124.588 387.001 109.105 389.822 94.102C391.574 84.787 394.519 75.779 396.839 66.604C399.899 54.76 401.293 42.548 400.979 30.32C400.783 21.879 399.431 14.768 392.902 8.76997C386.816 3.17907 377.911 -0.301327 369.618 0.358173C361.919 0.970373 355.334 5.12117 350.564 11.015C333.148 32.531 332.37 79.042 325.185 105.918C318.559 130.7 308.19 154.286 303.479 179.601C299.164 202.786 299.526 226.71 296.154 250.049C294.746 259.794 291.227 268.599 289.139 278.094C282.639 275.525 275.21 271.306 272.419 264.542C268.776 255.708 271.173 234.876 270.978 224.541C270.683 208.963 268.654 193.366 267.754 177.805C267.199 168.213 267.452 158.51 267.379 148.902C267.31 139.711 266.939 130.54 267.025 121.345C267.272 94.985 275.519 68.511 270.6 42.087C269.035 33.679 264.752 25.581 256.612 21.921C249.423 18.688 241.26 19.605 234.146 22.548C224.734 26.442 218.257 35.268 214.499 44.448C209.576 56.471 207.656 71.346 206.882 84.29C206.521 90.331 206.602 96.414 205.983 102.435C203.628 125.329 196.452 148.117 196.033 171.127C195.728 187.878 195.958 205.209 196.942 221.928L198.338 249.252C198.95 260.177 199.713 270.553 198.463 281.491C197.303 291.644 195.497 301.762 193.881 311.85C190.698 331.714 187.83 352.083 179.41 370.539C176.059 377.882 172.13 384.84 168.088 391.821C165.355 396.542 162.195 401.346 160.302 406.474C154.316 401.855 148.157 397.343 143.449 391.35C135.014 380.613 129.383 361.879 124.544 349.049C121.973 342.234 119.051 335.388 116.828 328.455C114.74 321.943 114.072 315.258 111.09 309C101.684 289.257 72.5251 259.095 52.8801 249.986C44.0971 245.914 34.9531 244.113 25.3031 245.32C17.1961 246.333 8.53407 249.779 3.56605 256.552C0.955029 260.113 -0.536976 264.392 0.290051 268.816C1.79805 276.879 12.3161 289.999 16.7681 297.869C21.4871 306.212 25.8181 314.848 30.2231 323.361C36.2051 334.921 41.4661 346.801 46.9071 358.619C51.306 368.175 55.9951 377.596 59.8051 387.411C63.0441 395.82 65.5791 404.483 67.384 413.311C71.523 434.466 72.0991 456.242 82.9021 475.477C91.1911 490.236 101.649 503.932 111.451 517.713C125.152 536.922 138.719 556.227 152.151 575.626C160.163 587.204 169.139 598.997 175.315 611.682C177.964 617.122 179.728 622.818 180.026 628.884C180.524 639.026 178.975 649.507 177.92 659.587L173.018 706.024C170.135 736.11 168.588 766.4 165.979 796.533C165.806 798.533 163.94 814.809 164.337 815.751C164.448 816.015 164.734 816.165 164.932 816.372L165.918 816.649C166.342 816.304 166.568 815.93 166.875 815.483C171.136 778.473 172.626 741.215 176 704.135C177.416 688.569 179.272 673.054 180.87 657.507C181.739 649.051 182.975 640.338 182.93 631.837C182.895 625.19 181.167 618.226 178.448 612.184C172.801 599.637 163.603 588.198 155.873 576.855C144.198 559.853 132.382 542.949 120.426 526.143C110.04 511.654 99.2821 497.248 89.7491 482.177C86.0521 476.33 82.6551 470.352 80.2261 463.856C72.4811 443.148 72.2351 417.157 65.2631 395.006C61.2901 382.386 55.1761 370.582 49.6511 358.609C41.9141 341.84 34.8041 326.251 26.0361 309.919C22.1621 302.615 18.095 295.415 13.8391 288.327C10.6821 283.125 6.7881 277.932 4.3481 272.356C3.18208 269.691 2.09907 266.777 2.84309 263.86C4.19508 258.551 7.9051 254.605 12.5911 251.944C21.1281 247.096 33.533 246.361 42.876 249.009C66.8751 255.808 99.4791 289.406 109.639 312.1C112.209 317.84 112.595 324.012 114.574 329.902C116.864 336.717 119.706 343.419 122.248 350.15C127.353 363.667 132.312 377.33 139.355 389.983C131.301 397.443 122.644 403.945 116.844 413.497C124.368 405.627 132.215 398.85 140.445 391.759C153.065 408.12 181.637 423.16 200.667 431.186C196.278 426.403 176.029 416.809 168.501 411.837C173.444 410.644 178.582 409.941 183.592 409.046C190.826 407.873 197.884 406.728 204.583 403.636C197.664 405.015 190.526 405.673 183.536 406.668C176.847 407.62 170.209 408.989 163.449 409.322C171.592 397.45 183.942 388.59 194.838 379.379C185.64 381.476 170.014 397.941 163.378 405.233C170.878 391.189 179.354 377.891 185.279 363.033C192.482 344.969 194.693 324.328 197.674 305.185C199.492 293.518 201.825 281.551 201.98 269.719C202.179 254.483 200.049 239.006 199.53 223.749C199.201 214.097 199.344 204.424 199.11 194.769C198.889 185.633 198.226 176.376 198.775 167.252C199.897 148.629 204.878 130.096 207.622 111.651C211.28 87.0549 207.178 50.8119 225.608 31.3559C230.895 25.7019 238.299 22.5049 246.04 22.5339C251.92 22.5259 257.532 24.2169 261.686 28.5459C267.427 34.5269 268.49 43.4859 268.946 51.3769C269.618 62.9869 269.002 74.9579 267.598 86.4979C266.288 97.2669 264.393 107.654 264.378 118.563C264.351 138.117 264.124 158.019 265.117 177.533C266.318 201.127 268.939 223.935 267.963 247.663C268.156 256.808 267.823 265.475 275.028 272.363C280.171 277.28 287.646 281.024 294.493 282.745C295.738 282.24 297.883 281.659 298.734 280.674L298.003 280.719C296.171 280.822 293.785 281.158 292.249 279.91C291.677 279.446 291.595 278.896 291.593 278.173C291.585 275.399 294.484 268.873 295.298 265.875C296.587 261.189 297.62 256.436 298.39 251.638C302.293 227.606 301.714 202.993 306.029 179.068C310.716 153.077 322.075 128.86 328.607 103.357C335.026 78.295 335.512 52.388 344.57 27.877C347.5 19.949 351.847 11.67 358.964 6.72957C364.233 3.07107 370.632 1.85907 376.9 3.13717C384.057 4.59657 390.831 8.99497 394.688 15.242C402.421 27.769 396.871 54.831 393.333 68.472C391.099 77.084 388.532 85.565 386.984 94.343C383.682 113.071 382.332 132.116 378.878 150.851L362.664 243.231C359.728 259.987 354.99 276.504 354.68 293.582C357.228 296.571 361.75 302.153 365.864 302.498C367.156 302.606 368.094 302.084 368.954 301.164C373.913 295.856 382.478 261.747 385.744 252.48C389.879 240.546 394.71 228.865 400.212 217.496C406.286 204.993 412.985 193.017 417.812 179.937C422.583 167.007 427.564 154.061 431.273 140.776C437.095 119.926 440.023 98.245 450.762 79.011C454.92 71.565 460.486 66.664 469.253 65.504C476.678 64.522 484.172 67.037 489.956 71.665C494.111 74.99 497.62 79.572 498.209 85.003C500.551 106.598 485.832 143.481 479.757 165C476.885 175.176 474.512 185.49 471.589 195.654C466.272 214.145 460.299 232.373 454.31 250.651C451.679 258.682 449.43 266.902 446.47 274.815C442.48 285.199 438.249 295.489 433.78 305.676C429.406 315.828 423.554 326.878 422.231 337.945L417.13 332.524C425.754 350.302 448.069 357.219 460.865 371.758C456.256 362.996 447.745 358.265 440.317 352.171C440.494 352.03 440.673 351.89 440.848 351.747C450.071 344.207 459.071 325.982 466.355 315.768C472.948 306.525 480.711 298.362 487.647 289.419C495.866 278.824 502.721 267.014 509.096 255.228C518.815 237.258 525.019 215.323 538.782 199.897C545.607 192.247 554.056 186.963 564.731 188.095C569.673 188.619 574.38 190.291 577.508 194.341C581.675 199.738 582.444 207.755 581.422 214.329C577.285 240.932 559.164 264.102 546.825 287.314L522.518 332.692C518.033 341.025 513.774 349.496 508.914 357.62C501.522 369.977 491.824 381.728 485.611 394.683C481.515 403.225 481.521 415.872 479.231 425.312C475.78 439.541 471.18 453.477 467.576 467.666C462.96 485.84 459.299 504.217 453.943 522.204C448.434 540.703 441.476 559.34 432.474 576.447C426.255 588.264 418.956 599.471 412.617 611.22C400.821 633.083 393.169 660.05 391.213 684.831C389.37 708.182 390.82 732.115 390.895 755.547C390.926 765.499 391.176 809.759 393.918 816.491L395.466 816.118C396.431 813.399 393.951 779.803 393.8 773.93C393.248 755.709 392.975 737.48 392.984 719.25C393.006 704.156 393.007 688.934 395.291 673.982C397.873 657.084 402.424 639.491 409.252 623.82C415.148 610.289 423.376 598.07 430.483 585.187C439.301 569.2 446.492 552.097 452.46 534.859C459.517 514.478 463.945 493.42 469.197 472.541C473.056 457.204 477.719 442.087 481.528 426.746C483.868 417.324 484.035 404.774 487.61 396.338C492.334 385.192 503.797 370.965 510.499 360.069C516.145 350.892 520.911 341.24 525.935 331.721C528.938 326.029 532.219 320.488 535.251 314.811C541.919 302.323 548.21 289.61 555.125 277.257C566.368 257.173 593.289 219.786 581.659 196.2C579.162 191.135 575.625 188.272 570.207 186.649C562.551 184.382 554.299 185.377 547.401 189.398C528.495 200.242 519.771 227.052 510.905 245.824C507.647 252.723 503.904 259.488 499.972 266.024C495.422 273.588 490.96 281.069 485.568 288.081C478.438 297.353 470.398 305.764 463.561 315.305C457.043 324.4 449.742 338.585 442.96 346.288C441.273 348.205 439.434 349.868 436.698 349.048C431.958 347.627 427.094 342.23 424.227 338.343C430.277 317.227 440.791 297.971 448.315 277.4C451.614 268.378 454.351 259.153 457.295 250.013C461.683 236.385 466.331 222.886 470.371 209.143C474.856 193.892 478.687 178.476 483.052 163.2C489.447 140.818 498.227 119.349 500.797 95.968C501.51 89.477 501.419 82.624 498.035 76.815C494.088 70.037 486.373 65.359 478.865 63.546C471.87 61.857 464.838 62.652 458.648 66.508C451.86 70.736 448.072 77.72 444.953 84.83C436.983 102.997 433.607 121.872 428.508 140.863C426.099 149.832 422.808 158.524 419.658 167.25C416.562 175.825 413.516 184.379 409.716 192.674C401.403 210.818 391.801 227.887 384.968 246.74C382.31 254.135 379.891 261.614 377.713 269.165C374.707 279.3 372.392 291.938 366.222 300.649C363.183 298.502 360.352 296.357 357.924 293.503Z" fill="#020000"/>
<path d="M262.37 832.062C263.812 831.89 265.112 832.173 266.482 831.526C267.498 828.891 267.506 797.345 267.602 791.268C267.878 773.818 267.825 756.378 268.599 738.938C268.912 731.894 270.059 724.915 270.537 717.884C271.048 710.361 270.948 702.801 271.169 695.266C271.294 690.984 273.804 655.058 273.434 654.239C272.499 652.171 269.783 650.396 267.621 649.931C266.449 649.68 265.879 649.877 264.894 650.48C263.888 655.475 264.307 661.765 264.567 666.875L264.598 667.415C264.935 673.384 262.783 680.031 263.589 685.735C260.307 719.114 259.947 753.225 261.063 786.727L261.037 790.989C260.694 804.499 259.227 818.63 261.956 832.042L262.37 832.062Z" fill="#E3AC96"/>
<path d="M264.648 691.391C264.44 689.065 264.814 687.81 263.589 685.735C260.307 719.114 259.947 753.225 261.063 786.727C261.364 787.86 261.665 788.983 262.024 790.1C262.38 789.416 262.712 788.757 263.009 788.044C262.272 779.428 262.876 770.357 262.913 761.692C263.012 738.218 263.958 714.85 264.648 691.391Z" fill="#020000"/>
<path d="M264.648 691.391C265.824 689.113 266.139 671.534 266.233 667.531C265.992 668.496 265.916 668.825 265.271 669.622L264.598 667.415C264.935 673.384 262.783 680.031 263.589 685.735C264.814 687.81 264.44 689.065 264.648 691.391Z" fill="#6B3D2C"/>
<path d="M263.009 788.044C262.712 788.757 262.38 789.416 262.024 790.1C261.665 788.983 261.364 787.86 261.063 786.727L261.037 790.989C261.385 795.389 261.98 799.656 262.763 803.999C263.18 798.681 263.144 793.372 263.009 788.044Z" fill="#8C6658"/>
<path d="M183.592 409.046C178.582 409.941 173.444 410.644 168.501 411.837C176.029 416.809 196.278 426.403 200.667 431.186C204.187 435.1 229.727 445.626 235.255 446.028L235.366 445.417C227.547 437.028 210.467 427.359 200.469 421.232C194.719 417.708 187.552 414.61 183.592 409.046Z" fill="#E3AC96"/>
<path d="M284.566 790.74C285.439 784.454 286.826 778.314 287.458 771.975C288.165 764.888 288.067 757.652 289.06 750.61C290.103 743.208 291.92 735.879 293.132 728.496C294.707 718.905 295.439 708.967 295.853 699.262C296.329 688.141 295.028 677.444 294.888 666.391C294.834 662.161 295.733 652.217 294.359 648.923C293.821 647.632 293.627 647.496 292.425 646.996C291.018 647.194 290.539 647.179 289.549 648.314C286.935 651.31 287.954 661.217 287.99 665.109C288.015 666.271 287.961 667.469 288.183 668.611C286.805 678.073 285.384 688.123 285.513 697.689C284.741 710.736 283.171 723.732 282.363 736.778C281.602 749.06 281.632 761.294 282.009 773.582C282.025 775.756 282.012 777.936 282.095 780.11C281.67 785.025 282.473 799.469 284.085 803.818C284.336 799.463 284.496 795.102 284.566 790.74Z" fill="#E3AC96"/>
<path d="M287.544 701.744C287.513 699.836 287.484 698.079 287.041 696.217L286.346 696.106L285.513 697.689C284.741 710.736 283.171 723.732 282.363 736.778C281.602 749.06 281.632 761.294 282.009 773.582L282.938 773.939C282.919 771.518 283.052 769.355 283.47 766.966C282.97 746.054 286.501 722.758 287.544 701.744Z" fill="#020000"/>
<path d="M288.183 668.611C286.805 678.073 285.384 688.123 285.513 697.689L286.346 696.106L287.041 696.217C287.484 698.079 287.513 699.836 287.544 701.744C289.009 695.405 288.711 683.272 289.044 676.233C288.97 673.789 289.239 670.848 288.183 668.611Z" fill="#6B3D2C"/>
<path d="M283.47 766.966C283.052 769.355 282.919 771.518 282.938 773.939L282.009 773.582C282.025 775.756 282.012 777.936 282.095 780.11C281.67 785.025 282.473 799.469 284.085 803.818C284.336 799.463 284.496 795.102 284.566 790.74C284.372 782.873 283.844 774.845 283.47 766.966Z" fill="#BF8B74"/>
<path d="M282.938 773.939L282.009 773.582C282.025 775.756 282.012 777.936 282.095 780.11C283.272 778.152 282.995 776.124 282.938 773.939Z" fill="#573936"/>
<path d="M289.044 676.233C289.975 672.361 290.025 666.352 289.188 662.493L288.699 662.434L287.99 665.109C288.015 666.271 287.961 667.469 288.183 668.611C289.239 670.848 288.97 673.789 289.044 676.233Z" fill="#BF8B74"/>
<path d="M280.641 628.219C274.19 627.641 267.423 627.907 260.946 627.956C247.862 628.05 234.783 628.464 221.719 629.197C231.512 630.916 242.087 630.423 252.001 630.414C273.062 630.395 295.904 629.71 316.248 635.958C322.678 637.933 329.017 640.955 335.245 643.532C352.382 650.109 371.366 652.816 389.499 650.017C374.117 649.256 359.406 647.887 344.477 643.809C334.957 641.209 326.327 636.664 317.02 633.568C305.451 629.72 292.744 628.952 280.641 628.219Z" fill="#020000"/>
<path d="M519.007 314.307L519.334 313.896C519.185 313.629 519.063 313.345 518.885 313.096C516.036 309.116 497.318 298.35 492.478 298.171L492.371 298.601C492.225 298.692 492.08 298.786 491.933 298.875C490.365 299.832 485.919 300.449 485.272 301.706C485.447 301.828 485.625 301.949 485.799 302.073C486.335 302.457 486.797 302.844 487.277 303.292C495.136 311.422 508.382 318.767 518.251 324.401C516.698 322.989 515.169 321.535 513.533 320.221C513.83 319.999 514.123 319.77 514.429 319.56C516.623 318.052 518.046 316.864 519.007 314.307Z" fill="#E3AC96"/>
<path d="M487.277 303.292C495.136 311.422 508.382 318.767 518.251 324.401C516.698 322.989 515.169 321.535 513.533 320.221C505.894 313.974 496.367 307.157 487.277 303.292Z" fill="#020000"/>
<path d="M519.007 314.307L519.334 313.896C519.185 313.629 519.063 313.345 518.885 313.096C516.036 309.116 497.318 298.35 492.478 298.171L492.371 298.601C501.766 302.864 509.682 310.081 519.007 314.307Z" fill="#020000"/>
<path d="M238.154 348.721L238.283 350.014C255.862 359.367 271.115 372.132 286.073 385.152C307.228 403.565 327.348 423.353 349.366 440.712L350.465 440.209C323.408 416.693 269.017 360.857 238.154 348.721Z" fill="#020000"/>
<path d="M305.483 529.112C306.052 516.386 306.937 503.966 306.098 491.217C304.017 459.567 294.58 424.63 276.522 398.301C274.294 395.053 271.851 391.37 269.146 388.513C268.878 388.23 268.582 387.974 268.295 387.711L268.185 388.157C273.306 395.633 278.565 402.917 282.66 411.035C299.897 445.201 307.842 492.058 304.344 530.094L305.483 529.112Z" fill="#020000"/>
<path d="M333.282 377.232L332.336 378.217C346.426 395.293 363.8 409.368 383.428 419.609C397.096 426.72 411.366 432.691 424.887 440.087C431.446 443.675 437.416 447.805 443.661 451.872C444.436 452.376 445.485 453.379 446.374 453.194C428.786 436.062 405.196 429.46 383.941 418.502C364.693 408.579 347.406 393.532 333.282 377.232Z" fill="#020000"/>
<path d="M528.075 248.824C524.583 246.757 521.114 244.615 517.477 242.81C529.301 253.158 541.858 261.312 555.845 268.48C551.308 264.333 546.583 260.716 541.427 257.377C542.323 257.59 543.041 257.827 543.969 257.645C544.753 257.491 544.833 256.889 545.214 256.25C544.537 255.373 543.829 254.519 543.017 253.761C540.675 251.573 531.429 245.021 528.519 245.093L529.903 246.865C528.489 246.376 527.295 245.841 525.782 245.851L527.289 247.624C527.857 248.291 527.65 248.008 528.075 248.824Z" fill="#020000"/>
<path d="M545.214 256.25C544.537 255.373 543.829 254.519 543.017 253.761C540.675 251.573 531.429 245.021 528.519 245.093L529.903 246.865C528.489 246.376 527.295 245.841 525.782 245.851L527.289 247.624C527.857 248.291 527.65 248.008 528.075 248.824C531.939 251.966 536.927 255.258 541.427 257.377C542.323 257.59 543.041 257.827 543.969 257.645C544.753 257.491 544.833 256.889 545.214 256.25Z" fill="#E3AC96"/>
<path d="M545.214 256.25C544.537 255.373 543.829 254.519 543.017 253.761C540.675 251.573 531.429 245.021 528.519 245.093L529.903 246.865C534.737 248.737 540.061 253.716 545.214 256.25Z" fill="#020000"/>
<path d="M310.689 660.837L310.087 661.395C328.774 669.033 351.98 677.166 372.381 676.837C362.16 673.524 351.579 672.292 341.185 669.73C330.894 667.193 320.959 663.442 310.689 660.837Z" fill="#020000"/>
<path d="M247.903 605.835C227.866 613.274 210.586 610.654 189.971 609.508C208.616 615.454 230.266 615.086 248.421 607.572L247.903 605.835Z" fill="#020000"/>
<path d="M154.166 423.857C153.704 440.711 144.404 455.27 134.757 468.566C132.502 471.675 128.775 475.706 128.125 479.5C136.247 469.156 144.722 458.645 150.521 446.755C154.154 439.307 157.023 432.077 154.166 423.857Z" fill="#020000"/>
<path d="M300.521 578.791C296.394 581.14 289.408 590.311 285.329 594.056C276.153 602.481 263.728 607.13 252.44 611.991C252.899 611.955 252.977 611.959 253.499 611.862C273.255 608.215 289.636 595.264 300.521 578.791Z" fill="#020000"/>
<path d="M321.745 185.541C321.52 185.586 321.361 185.794 321.182 185.937C331.991 193.54 347.61 194.889 360.333 193.278L361.583 192.827C360.182 192.009 348.451 191.624 346.185 191.319C337.759 190.187 329.836 188.048 321.745 185.541Z" fill="url(#paint1_linear_144_208)"/>
<path d="M319.392 539.746C317.955 541.312 316.939 543.433 315.85 545.27C311.945 551.864 307.995 558.617 303.219 564.631C299.055 569.875 294.051 574.584 290.442 580.234C301.574 574.064 314.981 551.582 319.392 539.746Z" fill="#020000"/>
<path d="M106.106 335.021C96.002 336.874 78.5179 346.711 69.5189 352.016C76.4959 350.856 100.416 339.756 106.106 335.021Z" fill="#36130E"/>
<path d="M411.791 233.954L411.257 234.115C411.354 234.234 411.441 234.362 411.548 234.472C412.736 235.694 414.757 236.581 416.239 237.423C425.334 242.584 434.598 245.652 445.006 246.567C445.265 246.467 445.436 246.216 445.635 246.023C442.213 243.737 434.616 242.63 430.387 241.219C424.063 239.131 417.856 236.705 411.791 233.954Z" fill="#020000"/>
<path d="M439.838 143.978L439.308 144.172C439.452 144.417 439.567 144.682 439.739 144.909C440.39 145.764 442.073 146.689 442.971 147.321C451.539 153.34 462.178 155.594 472.388 156.818L473.095 156.711C470.778 154.807 465.02 153.966 462.012 153.005C454.319 150.547 447.078 147.548 439.838 143.978Z" fill="#020000"/>
<path d="M422.42 219.631C418.972 219.307 415.497 219.611 412.046 219.788C425.281 221.213 432.855 224.461 442.972 233.144C445.097 234.864 447.421 236.377 449.661 237.945C442.454 228.836 434.137 221.564 422.42 219.631Z" fill="#020000"/>
<path d="M342.484 170.616C335.554 169.898 330.071 170.836 323.932 174.281C333.195 171.179 340.083 171.586 349.302 174.795C354.337 177.186 358.879 180.311 364.05 182.521C357.161 176.772 351.314 172.757 342.484 170.616Z" fill="#020000"/>
<path d="M349.709 89.6211L348.022 89.6101L348.092 89.9771C356.067 94.8311 366.877 95.7381 375.986 96.4901L377.654 96.3261L377.642 95.9931C372.131 93.2741 356.458 90.9441 349.709 89.6211Z" fill="#020000"/>
<path d="M287.672 300.432C291.722 308.798 296.683 317.02 301.67 324.872C304.189 328.836 307.221 332.787 309.368 336.946L310.085 336.364C303.521 324.241 296.442 311.085 287.672 300.432Z" fill="#36130E"/>
<path d="M105.127 323.453C104.861 323.468 104.595 323.479 104.329 323.499C95.2839 324.181 82.064 330.648 76.142 337.6C79.634 335.85 82.768 333.51 86.328 331.778C92.481 328.786 98.935 326.406 105.127 323.453Z" fill="#020000"/>
<path d="M385.488 311.071L385.384 311.168L385.373 311.765C392.108 318.783 398.678 323.341 407.721 326.997C407.905 326.908 407.963 326.666 408.062 326.488C400.374 321.492 392.907 316.467 385.488 311.071Z" fill="#020000"/>
<path d="M332.356 182.609L332.137 182.625L331.927 182.943C338.294 187.018 347.144 188.38 354.565 188.62L355.17 188.385C352.453 185.885 336.755 183.518 332.356 182.609Z" fill="#020000"/>
<path d="M327.616 271.65C324.259 271.286 321.504 271.839 318.287 272.791C324.698 272.855 331.157 274.322 337.261 276.191L345.919 279.724C339.788 275.595 334.984 272.925 327.616 271.65Z" fill="#020000"/>
<path d="M455.826 370.954C455.767 371.499 455.713 371.66 455.857 372.268C457.488 379.161 466.128 386.699 471.613 390.624L471.698 390.23C470.94 388.052 467.238 385.173 465.622 383.288C462.199 379.298 459.335 374.872 455.826 370.954Z" fill="#020000"/>
<path d="M444.808 135.996L444.333 136.107C447.105 140.182 461.774 145.773 466.864 147.513L467.61 147.128C461.105 142.373 452.161 139.228 444.808 135.996Z" fill="#020000"/>
<path d="M347.257 80.509L346.847 80.574C346.91 81.02 346.839 80.996 347.138 81.332C350.28 84.862 361.443 87.022 366.061 87.698L366.672 87.428C363.948 85.102 351.219 81.797 347.257 80.509Z" fill="#020000"/>
<path d="M333.282 377.232C327.951 370.116 322.707 362.392 316.386 356.12C321.312 363.542 326.316 371.647 332.336 378.217L333.282 377.232Z" fill="#6B3D2C"/>
<path d="M261.904 600.28L259.697 600.419C256.353 602.856 251.752 604.28 247.903 605.835L248.421 607.572C253.234 605.558 257.585 603.212 261.904 600.28Z" fill="#36130E"/>
<path d="M349.366 440.712C352.052 442.903 362.354 452.565 364.67 452.94L364.622 452.907L364.92 453.561L364.37 453.226L364.443 452.745C360.048 448.28 355.38 444.094 350.465 440.209L349.366 440.712Z" fill="#6B3D2C"/>
<path d="M261.904 600.28C264.393 598.786 266.336 596.641 267.902 594.214C265.586 594.214 262.198 598.126 260.396 599.575C259.863 600.004 260.081 599.772 259.697 600.419L261.904 600.28Z" fill="#BF8B74"/>
<path d="M310.085 336.364L309.368 336.946C310.264 339.272 310.79 341.6 313.184 342.741L313.708 342.121C313.501 339.941 311.525 337.946 310.085 336.364Z" fill="#BF8B74"/>
<path d="M305.483 529.112L304.344 530.094C303.414 533.355 303.386 538.01 303.275 541.419C304.414 537.377 304.922 533.263 305.483 529.112Z" fill="#8C6658"/>
<path d="M238.154 348.721C235.78 347.583 233.327 346.896 230.809 346.169L230.808 346.452C233.27 347.725 235.745 348.9 238.283 350.014L238.154 348.721Z" fill="#573936"/>
<path d="M310.689 660.837C308.534 659.967 306.685 659.99 304.406 660.036C305.672 661.368 308.376 661.021 310.087 661.395L310.689 660.837Z" fill="#BF8B74"/>
<defs>
<linearGradient id="paint0_linear_144_208" x1="613.819" y1="417.727" x2="-26.4659" y2="348.819" gradientUnits="userSpaceOnUse">
<stop stop-color="#E0A78D"/>
<stop offset="1" stop-color="#F7C6B3"/>
</linearGradient>
<linearGradient id="paint1_linear_144_208" x1="287.022" y1="672.473" x2="117.575" y2="561.467" gradientUnits="userSpaceOnUse">
<stop/>
<stop offset="1" stop-color="#1C0503"/>
</linearGradient>
</defs>
</svg>
