<svg width="541" height="575" viewBox="0 0 541 575" fill="none" xmlns="http://www.w3.org/2000/svg">
<path d="M389.025 0.799167C384.544 -0.714141 360.086 11.9213 354.448 14.7088C329.226 27.1778 288.84 47.2895 278.987 75.8656C274.31 89.4288 276.77 103.155 276.978 117.092C277.039 125.589 276.385 134.077 275.022 142.464C269.799 173.771 256.403 206.671 248.324 237.954C242.761 259.495 238.144 281.399 233.427 303.14C225.454 339.89 210.939 420.061 174.727 438.238C170.51 440.354 166.005 441.706 161.358 442.475C151.588 444.092 141.377 443.802 131.497 444.545C116.865 445.644 102.341 448.008 87.6199 447.366C82.0186 447.122 76.6762 446.192 71.3593 444.383C59.1185 440.218 46.4845 433.01 35.3488 426.484C31.2374 424.075 27.535 420.895 23.1116 419.049C18.3988 417.083 9.94734 414.45 4.94738 416.625C3.29229 417.345 2.2465 418.701 1.67317 420.383C0.0223342 425.23 2.33838 429.742 2.18181 434.537C2.09633 437.166 -0.123125 439.575 0.220122 442.236C0.468697 444.157 1.55904 446.179 2.46822 447.869C3.23865 449.299 4.16999 450.542 5.19985 451.792C4.92315 458.393 7.06994 461.944 11.1214 467.021C11.2637 473.303 13.7379 476.52 18.1576 480.745C18.8891 481.442 19.6258 482.135 20.3667 482.821C20.2746 486.597 21.3073 490.015 23.9693 492.777C28.3209 497.293 35.2897 498.49 40.2596 502.364C44.5748 505.728 47.5109 510.5 51.0522 514.613C56.7794 521.266 65.2413 526.173 73.0967 529.938C97.2789 541.526 124.179 539.53 149.111 548.102C171.667 555.857 192.427 574.098 217.08 574.279C227.402 574.354 237.549 570.89 244.953 563.552C260.982 547.666 261.594 516.518 267.48 495.434C271.335 481.624 276.46 468.543 282.082 455.378C290.552 435.953 299.822 416.886 309.868 398.226C315.108 388.373 320.198 378.256 326.413 368.974C333.317 358.663 341.877 349.296 349.54 339.537C366.646 317.751 381.064 294.451 390.984 268.518C400.476 243.702 404.643 217.202 406.106 190.793C406.682 180.38 406.664 169.888 407.361 159.499C414.486 156.797 421.701 154.221 428.755 151.344C434.753 155.708 441.006 160.387 447.885 163.241L507.764 148.126C517.217 145.775 527.883 144.218 536.881 140.699L537.34 139.764C536.876 138.931 536.425 138.093 535.895 137.3C518.655 112.787 500.546 87.4954 477.896 67.5673L477.436 66.9241C459.333 49.6757 439.873 33.9133 419.241 19.789C413.191 15.7614 407.031 11.9014 400.768 8.21286C396.948 5.93648 392.323 3.77001 389.025 0.799167Z" fill="#382B23"/>
<path d="M477.436 66.9241C471.368 65.6351 434.152 80.3328 425.333 83.5367C421.034 85.0984 415.343 87.9638 410.836 88.2023C410.466 87.6434 410.092 87.0246 409.638 86.5318C408.739 85.5581 408.093 85.6202 406.877 85.5575L406.534 86.9243L405.727 87.3319C405.826 88.3759 405.693 89.0039 405.417 89.992C403.657 91.8811 400.916 92.1311 398.625 93.1447C397.162 93.7918 396.661 94.7002 396.101 96.1525C396.047 96.293 395.999 96.4359 395.947 96.5777C395.413 96.4002 394.844 96.2137 394.279 96.1849C392.836 96.1099 391.836 96.8309 390.811 97.7397C390.898 97.8877 390.973 98.0431 391.071 98.1838C391.526 98.8449 391.32 98.3134 391.778 99.1973C392.444 100.483 392.793 101.348 392.282 102.672C390.32 102.742 389.49 101.931 387.851 100.932C386.626 102.13 386.5 104.449 386.11 106.124C391.141 113.026 397.866 120.101 404.241 125.824C414.294 135.83 425.264 145.375 437.196 153.067C440.631 155.599 444.106 157.545 447.94 159.399C450.987 158.65 454.088 157.991 457.022 156.864C459.768 156.314 462.489 155.832 465.088 154.749C467.319 154.353 469.647 154.089 471.757 153.242C485.461 149.875 499.764 146.951 513.214 142.752C515.485 142.239 517.881 141.842 520.102 141.161C525.238 139.945 530.959 139.106 535.895 137.3C518.655 112.787 500.546 87.4954 477.896 67.5673L477.436 66.9241Z" fill="#6C8AA3"/>
<path d="M477.436 66.9241C471.368 65.6351 434.152 80.3328 425.333 83.5367C421.034 85.0984 415.343 87.9638 410.836 88.2023C410.466 87.6434 410.092 87.0246 409.638 86.5318C408.739 85.5581 408.093 85.6202 406.877 85.5575L406.534 86.9243L405.727 87.3319C405.826 88.3759 405.693 89.0039 405.417 89.992C403.657 91.8811 400.916 92.1311 398.625 93.1447C397.162 93.7918 396.661 94.7002 396.101 96.1525C396.047 96.293 395.999 96.4359 395.947 96.5777C395.413 96.4002 394.844 96.2137 394.279 96.1849C392.836 96.1099 391.836 96.8309 390.811 97.7397C390.898 97.8877 390.973 98.0431 391.071 98.1838C391.526 98.8449 391.32 98.3134 391.778 99.1973C392.444 100.483 392.793 101.348 392.282 102.672C390.32 102.742 389.49 101.931 387.851 100.932C386.626 102.13 386.5 104.449 386.11 106.124C391.141 113.026 397.866 120.101 404.241 125.824L405.585 126.091C406.714 125.052 407.823 123.962 409.025 123.005C409.699 123.509 410.368 124.011 411.021 124.543C412.337 123.201 412.952 122.359 414.79 121.804C414.061 120.909 413.402 120.017 412.773 119.049L412.137 119.058C411.365 120.237 410.628 121.766 409.323 122.393L408.71 121.976C408.933 120.125 409.575 118.45 410.197 116.706L409.639 116.177L408.928 116.255C405.814 116.583 402.813 116.541 399.87 115.347C398.8 114.132 398.601 113.288 398.634 111.641C398.687 108.988 399.79 106.174 400.161 103.518L399.731 103.976C398.63 105.137 397.943 105.914 396.321 106.279L395.059 105.724L394.752 104.8C395.602 103.529 398.2 100.417 398.048 99.0047C398.036 98.8903 397.785 97.9834 397.766 97.9107C397.472 96.7867 397.5 96.2565 397.803 95.1496C401.876 92.6455 408.188 91.3355 412.79 89.7349C426.646 84.7972 440.547 79.9863 454.491 75.3034C460.909 73.1991 472.412 70.5523 477.896 67.5673L477.436 66.9241Z" fill="#576771"/>
<path d="M457.022 156.864C456.91 154.844 458.811 153.525 458.356 151.409C456.798 151.41 454.645 153.709 453.379 154.712L452.726 153.753L451.379 153.665C450.958 152.636 450.35 151.865 449.676 150.995L450.274 150.105C451.785 149.561 453.409 149.878 454.981 150.012C455.987 148.565 456.809 147.434 458.315 146.441C458.427 146.366 458.542 146.297 458.656 146.225C457.286 143.934 459.302 143.324 458.448 140.875C456.954 141.197 455.612 142.92 454.538 143.973L454.097 143.761L453.645 141.181C453.246 140.845 452.989 140.402 452.446 140.465C449.604 140.792 448.413 143.036 446.751 145.006C445.352 146.664 443.619 152.931 441.355 152.915C439.212 152.9 439.356 152.048 437.196 153.067C440.631 155.599 444.106 157.545 447.94 159.399C450.987 158.65 454.088 157.991 457.022 156.864Z" fill="#658299"/>
<path d="M520.102 141.161C519.672 138.527 517.155 135.345 515.176 133.569C515.075 133.478 514.971 133.391 514.869 133.302C515.32 132.601 515.487 132.361 515.6 131.512L514.432 131.339L513.298 133.318C511.903 133.681 510.749 134.013 509.51 134.76L509.473 135.69C510.933 137.374 511.563 136.573 512.62 137.617C511.932 138.367 511.647 138.75 511.383 139.769C512.173 140.637 512.682 141.349 513.104 142.452C513.142 142.551 513.177 142.652 513.214 142.752C515.485 142.239 517.881 141.842 520.102 141.161Z" fill="#658299"/>
<path d="M471.757 153.242C472.142 152.186 472.357 151.335 472.481 150.219L471.896 149.516C471.113 149.455 470.607 149.457 469.884 149.814C467.8 150.84 465.774 152.549 465.088 154.749C467.319 154.353 469.647 154.089 471.757 153.242Z" fill="#658299"/>
<path d="M462.955 136.491C462.864 137.535 462.681 137.824 463.295 138.675C464.199 139.928 465.025 140.242 466.527 140.431C467.748 140.585 468.816 140.935 469.818 140.158L468.83 139.562C469.487 138.865 469.52 138.905 469.532 137.955C468.489 137.838 467.743 137.979 466.968 137.227C467.691 136.531 468.456 135.896 468.917 134.989L468.24 134.426C467.508 134.948 466.99 135.266 466.113 135.484C465.029 135.754 464.004 136.112 462.955 136.491Z" fill="#658299"/>
<path d="M499.549 108.279C499.54 108.933 499.685 109.43 499.845 110.06L501.314 109.512C501.959 110.708 502.624 111.893 503.307 113.067C504.985 113.671 506.114 113.333 507.762 112.917C506.514 111.496 504.621 112.335 503.336 110.755L504.625 109.48L504.287 109C502.727 108.979 501.417 108.885 499.923 108.405C499.797 108.365 499.674 108.321 499.549 108.279Z" fill="#658299"/>
<path d="M469.362 103.227C469.328 103.756 469.314 104.31 469.246 104.836C469.116 105.843 469.044 106.547 469.18 107.564C470.17 108.336 471.065 108.87 472.226 109.346L473.845 107.93C472.863 107.126 471.752 106.337 471.072 105.251C470.578 104.465 470.02 103.878 469.362 103.227Z" fill="#658299"/>
<path d="M472.896 143.401C472.855 143.869 473.248 144.776 473.502 145.165C474.094 146.075 474.68 146.173 475.684 146.288C476.439 145.015 476.105 144.682 475.784 143.28L475.609 142.683C476.244 142.22 476.155 141.899 476.347 141.162C475.139 141.845 474.027 142.597 472.896 143.401Z" fill="#658299"/>
<path d="M421.938 97.4389C421.896 97.7632 421.816 98.2331 421.873 98.5515C422.136 100.006 423.388 100.245 424.56 100.845C424.938 101.563 425.364 101.799 426.044 102.216C426.655 101.611 426.802 101.477 427.034 100.66C425.356 99.5538 423.658 98.4798 421.938 97.4389Z" fill="#658299"/>
<path d="M448.861 78.252C448.895 79.4906 448.833 79.9014 449.488 80.9863L451.455 80.9822C452.348 80.2705 452.53 80.128 452.944 79.0753C451.867 78.1759 450.207 78.3256 448.861 78.252Z" fill="#658299"/>
<path d="M418.981 102.089L419.841 103.675C421.089 103.599 422.194 103.707 423.429 103.886C423.259 102.712 423.084 101.968 422.442 100.962C420.936 101.955 420.755 102.181 418.981 102.089Z" fill="#658299"/>
<path d="M351.667 20.1553L342.565 24.9883C344.374 33.4936 346.551 41.4485 350.181 49.3788C350.537 50.2005 350.847 51.1218 351.312 51.8837C360.544 71.5747 372.365 89.3116 386.11 106.124C386.5 104.449 386.626 102.13 387.851 100.932C389.49 101.931 390.32 102.742 392.282 102.672C392.793 101.348 392.444 100.483 391.778 99.1973C391.32 98.3134 391.526 98.8449 391.071 98.1838C390.973 98.0431 390.898 97.8877 390.811 97.7397C391.836 96.8309 392.836 96.1099 394.279 96.1849C394.844 96.2137 395.413 96.4002 395.947 96.5777C395.999 96.4359 396.047 96.293 396.101 96.1525C396.661 94.7002 397.162 93.7918 398.625 93.1447C400.916 92.1311 403.657 91.8811 405.417 89.992C405.693 89.0039 405.826 88.3759 405.727 87.3319L406.534 86.9243L406.877 85.5575C408.093 85.6202 408.739 85.5581 409.638 86.5318C410.092 87.0246 410.466 87.6434 410.836 88.2023C415.343 87.9638 421.034 85.0984 425.333 83.5367C434.152 80.3328 471.368 65.6351 477.436 66.9241C459.333 49.6757 439.873 33.9133 419.241 19.789C413.191 15.7614 407.031 11.9014 400.768 8.21286C396.948 5.93648 392.323 3.77001 389.025 0.799167C388.972 1.24176 388.933 1.82305 388.756 2.24696C387.99 4.08135 360.726 15.7003 356.749 17.8255L351.667 20.1553Z" fill="#6C8AA3"/>
<path d="M351.312 51.8826C352.467 51.5406 353.131 51.8652 354.287 52.1488L354.466 51.5352C353.775 51.331 353.292 51.1694 352.719 50.7258C352.681 48.4275 354.891 47.255 355.332 45.0225L354.492 44.0859C352.781 45.2661 352.043 47.5853 350.486 49.0918C350.386 49.1887 350.283 49.282 350.182 49.3776C350.537 50.1994 350.848 51.1206 351.312 51.8826Z" fill="#658299"/>
<path d="M356.749 17.8255L351.667 20.1553L351.908 22.3464L352.87 23.0355C355.03 22.5476 355.956 21.4854 357.36 19.7849C357.186 19.1178 357.049 18.4484 356.749 17.8255Z" fill="#658299"/>
<path d="M359.646 55.6408C358.756 56.4912 357.619 57.5713 357.316 58.8131C356.989 60.1561 357.2 60.7588 357.922 61.8593C359.069 62.2277 360.01 62.5339 361.222 62.4957L360.69 61.0953L358.877 60.6295L358.628 60.1227L360.616 58.9056C360.932 57.3511 360.412 56.9865 359.646 55.6408Z" fill="#658299"/>
<path d="M395.136 29.7596C394.931 30.0764 394.461 30.6932 394.365 31.0893C394.066 32.3165 394.656 33.0469 395.173 34.0977C396.493 34.831 396.635 34.8208 398.139 34.6302C398.084 34.4771 398.053 34.3131 397.974 34.1719C397.25 32.8917 396.976 32.3633 396.741 30.8316L396.669 30.3335L395.136 29.7596Z" fill="#658299"/>
<path d="M380.33 21.2554C380.251 22.0029 380.223 21.7507 380.323 22.3782C380.581 24.0081 380.616 25.4845 380.587 27.1257L381.199 27.5657L382.394 26.415L383.772 27.2038L384.166 26.799C382.909 24.936 381.631 23.0881 380.33 21.2554Z" fill="#658299"/>
<path d="M440.93 50.5422C440.451 51.6597 440.265 51.9475 440.414 53.1886L441.452 53.3359L443.175 52.0386L443.628 52.1366L444.213 51.2732L443.551 50.452L440.93 50.5422Z" fill="#658299"/>
<path d="M380.779 96.6589C380.533 97.4084 380.77 97.5921 381.035 98.309L383.271 98.9758L383.874 96.7725L383.481 96.1828L380.779 96.6589Z" fill="#658299"/>
<path d="M340.267 26.1825C319.949 37.2314 295.488 50.8832 284.544 72.3631C277.354 86.4741 280.361 101.864 280.532 116.932C280.645 124.873 280.038 132.809 278.721 140.642C274.857 163.068 267.548 184.504 260.899 206.198C257.641 217.124 254.596 228.112 251.768 239.157C245.343 263.649 240.388 288.67 234.977 313.406C226.644 351.492 218.442 393.262 194.507 425.051C185.521 436.986 174.455 443.757 159.672 445.808C149.238 447.255 138.504 446.957 128.003 447.94C92.2657 451.29 80.2206 454.506 48.0369 436.465C42.5602 433.394 36.4693 430.959 31.2257 427.555C29.0745 426.157 27.2638 424.285 25.1993 422.775C21.5871 420.136 12.9767 417.876 8.51766 418.838C6.79694 419.209 5.27789 420.215 4.42099 421.773C2.74148 424.826 3.73739 428.663 4.67135 431.772C4.77782 431.721 4.88341 431.667 4.99046 431.617L5.52539 431.368C7.35919 430.496 9.03717 429.762 11.068 429.482C30.0294 426.87 44.1137 440.855 57.731 451.33C54.6471 450.799 52.1419 448.782 49.5907 447.088C39.2829 440.248 30.9215 433.79 18.1331 432.392C15.9135 431.995 13.9037 431.599 11.6446 431.907C8.9328 432.452 6.1688 433.535 4.55542 435.931C3.15013 438.018 3.11699 441.003 3.66015 443.397C4.12104 445.425 5.08964 447.488 5.97572 449.37C9.52872 445.414 12.2824 443.949 17.6467 443.681C28.9477 443.117 38.8701 448.259 47.5353 454.915C48.2676 456.035 49.2276 456.702 50.0878 457.687C50.4439 458.095 51.0287 458.849 51.0038 459.377C47.7243 457.004 44.0686 454.364 40.4018 452.657C40.284 452.602 40.1651 452.551 40.0466 452.498C32.8467 448.627 21.2329 444.423 13.0262 447.097C11.2953 447.66 9.77328 448.661 8.91565 450.31C7.66115 452.721 7.99626 455.86 8.91068 458.343C9.57688 460.154 10.3882 461.669 11.6543 463.132C13.4964 463.318 17.6873 459.813 21.009 459.612C28.2652 459.173 37.792 460.615 43.8002 465.015C46.801 467.565 50.0028 470.039 52.7733 472.836C49.2549 471.186 46.2301 468.842 42.7858 467.156C42.6929 467.11 42.5987 467.067 42.5055 467.022C37.0761 464.189 31.5853 462.771 25.4999 462.325L21.2518 462.064C18.9928 462.58 16.8472 463.065 15.4874 465.156C14.3274 466.941 14.2584 469.395 14.7309 471.412C15.3542 474.076 17.1656 476.764 19.4997 478.216C20.2548 478.686 21.162 479.02 21.9839 479.346C23.9638 478.619 25.4251 477.154 27.3394 476.405C32.5226 474.376 39.7881 476.911 44.5091 479.083C49.257 481.267 53.5767 484.22 57.5504 487.599C54.876 486.659 53.3435 484.578 50.8711 483.737C50.7385 484.246 50.0062 484.7 49.6039 485.053C44.9927 482.193 40.8123 480.307 35.5081 479.016C33.8916 478.739 32.2381 478.614 30.6073 478.439C28.033 479.089 25.7589 479.819 24.2857 482.25C23.4832 483.574 23.3606 485.139 23.7639 486.618C24.6807 489.976 27.2778 492.367 30.3051 493.886C34.6765 496.08 39.6801 497.61 43.5284 500.687C46.7035 503.225 48.3763 507.194 50.908 510.308C56.6427 517.362 65.3974 522.713 73.5023 526.68C97.2605 538.309 123.606 536.599 148.392 544.277C168.072 550.373 184.807 564.216 204.772 569.126C212.984 571.145 221.486 571.608 229.563 568.775C239.104 565.427 246.014 558.444 250.443 549.468C251.977 545.857 253.132 542.14 254.324 538.407C258.72 522.701 260.484 506.511 265.107 490.788C275.987 453.792 298.332 410.279 317.581 376.552C327.9 358.469 342.513 343.622 354.669 326.818C396.058 269.595 401.973 225.783 403.785 157.588C411.181 154.946 418.485 151.813 425.791 148.916C420.294 144.798 415.147 140.194 409.994 135.658C380.499 109.039 348.056 65.7972 340.267 26.1825Z" fill="#EBC5A3"/>
<path d="M378.377 156.853C377.29 157.305 377.185 157.601 376.529 158.541C376.989 166.481 378.445 174.15 379.478 182.015C380.025 186.178 380.135 190.341 380.898 194.482C380.825 194.613 380.748 194.743 380.677 194.875C380.172 195.81 379.753 196.703 379.683 197.777C379.507 200.508 380.496 203.332 380.495 206.101C380.494 210.95 377.858 244.723 376.681 247.058C373.556 253.257 373.092 260.67 371.21 267.315C369.328 273.958 366.04 280.513 363.517 286.959C362.762 288.887 362.449 291.258 361.562 293.062C360.848 294.517 358.807 295.091 358.066 296.563C357.158 298.366 356.892 300.619 356.037 302.52C353.68 307.756 350.612 312.959 347.651 317.884C336.845 335.863 323.045 351.805 311.804 369.455C310.214 371.952 309.12 374.788 307.717 377.404C304.876 382.704 301.851 387.917 299.027 393.221C298.304 394.583 298.016 396.463 297.106 397.643L295.939 397.216C295.958 397.374 295.983 397.531 295.996 397.69C296.458 403.195 288.056 410.21 289.458 416.407C288.161 417.604 285.255 419.748 284.507 421.276C283.618 423.092 283.516 426.429 282.747 428.534C279.299 437.969 275.099 447.174 271.619 456.636C270.783 458.91 270.694 462.83 269.103 464.471L267.379 464.158L267.4 464.59C267.409 464.829 267.411 465.069 267.424 465.309C267.433 465.488 267.454 465.668 267.465 465.847C267.79 471.141 265.08 478.488 262.941 483.315C262.208 484.968 261.019 486.69 260.593 488.443C260.298 489.657 260.693 491.041 260.5 492.308C259.698 497.562 257.537 501.826 257.401 507.383L256.104 507.401C256.247 510.52 256.236 513.507 255.687 516.592C255.126 519.743 252.769 523.841 253.324 526.938C252.87 530.693 252.401 534.805 254.23 538.149C254.274 538.23 254.292 538.321 254.324 538.407C258.72 522.701 260.484 506.511 265.107 490.788C275.987 453.792 298.332 410.279 317.581 376.552C327.9 358.469 342.513 343.622 354.669 326.818C396.058 269.595 401.973 225.783 403.785 157.588C411.181 154.946 418.485 151.813 425.791 148.916C420.294 144.798 415.147 140.194 409.994 135.658C407.126 138.93 402.462 137.435 399.702 141.536C397.226 144.416 381.917 155.654 378.377 156.853Z" fill="#E5B48C"/>
<path d="M399.702 141.536C393.364 143.622 385.167 148.548 380.888 153.856C380.07 154.872 379.216 155.855 378.377 156.853C381.917 155.654 397.226 144.416 399.702 141.536Z" fill="#745D48"/>
<path d="M253.324 526.938C252.862 527.617 252.328 528.1 252.328 528.935C252.327 535.753 248.712 542.833 250.443 549.468C251.977 545.857 253.132 542.14 254.324 538.407C254.292 538.321 254.274 538.23 254.23 538.149C252.401 534.805 252.87 530.693 253.324 526.938Z" fill="#E4BB9B"/>
<path d="M35.5081 479.016C33.8916 478.739 32.2381 478.614 30.6073 478.439C29.4954 480.6 28.3989 482.366 28.8587 484.88L30.329 485.767C31.8307 485.395 32.4932 485.363 33.2777 483.864C33.6904 483.076 33.9816 482.16 34.282 481.325L35.5081 479.016Z" fill="#E4BB9B"/>
<path d="M34.2823 481.327C33.8179 481.104 33.4425 481.248 32.9388 481.3C32.2371 483.036 31.6377 484.372 30.3293 485.768C31.831 485.396 32.4935 485.364 33.278 483.865C33.6907 483.077 33.9819 482.161 34.2823 481.327Z" fill="#382B23"/>
<path d="M11.6446 431.907C11.863 433.877 10.0873 435.345 10.9233 436.899C12.5145 437.416 13.9221 438.109 15.574 437.52C16.8865 436.178 16.9401 434.86 17.2011 433.088L18.1331 432.392C15.9135 431.995 13.9037 431.599 11.6446 431.907Z" fill="#E4BB9B"/>
<path d="M49.6036 485.054C53.4555 488.317 58.8303 491.79 63.8648 492.655L63.9836 492.292C61.9911 490.78 59.6713 488.805 57.5501 487.6C54.8757 486.66 53.3431 484.579 50.8708 483.738C50.7381 484.247 50.0058 484.701 49.6036 485.054Z" fill="#745D48"/>
<path d="M43.8002 465.015C46.801 467.565 50.0028 470.039 52.7733 472.836C49.2549 471.186 46.2301 468.842 42.7858 467.156C42.6929 467.11 42.5987 467.067 42.5055 467.022C48.1394 471.785 54.4833 475.443 61.0143 478.83C55.7649 474.049 50.204 468.141 43.8002 465.015Z" fill="#745D48"/>
<path d="M21.2518 462.064C20.8284 463.757 20.3966 465.357 19.702 466.967L20.1713 467.867C21.2894 468.1 22.4158 468.398 23.5571 468.443C24.4677 466.599 24.9179 465.096 25.2525 463.066L25.4999 462.325L21.2518 462.064Z" fill="#E4BB9B"/>
<path d="M47.5348 454.917C48.2671 456.036 49.227 456.703 50.0872 457.688C50.4434 458.096 51.0281 458.85 51.0032 459.378C47.7237 457.005 44.068 454.365 40.4012 452.658C40.2834 452.603 40.1646 452.552 40.0461 452.499C45.5979 457.15 52.229 461.572 58.8801 464.441C55.2472 461.175 51.6437 457.565 47.5348 454.917Z" fill="#745D48"/>
<path d="M10.9233 436.899C12.3081 437.827 13.7899 438.99 15.565 438.574C17.0097 438.235 17.2751 437.842 17.9858 436.59C18.0386 435.17 17.8513 434.352 17.2011 433.088C16.9401 434.86 16.8865 436.178 15.574 437.52C13.9221 438.109 12.5145 437.416 10.9233 436.899Z" fill="#745D48"/>
<path d="M25.2526 463.068C24.9181 465.097 24.4678 466.6 23.5572 468.444C24.0107 468.239 24.4736 468.053 24.8449 467.708C25.5976 467.01 26.1465 466.002 26.2013 464.974C26.2545 463.963 25.8564 463.799 25.2526 463.068Z" fill="#745D48"/>
<path d="M258.516 447.704C258.572 447.568 258.616 447.426 258.686 447.297C259.448 445.89 262.249 445.553 261.912 443.946C261.714 443.006 260.869 441.934 260.344 441.14C260.034 438.127 262.767 435.872 262.953 432.797L263.709 432.201L264.287 433.4L264.793 433.273L265.138 432.206C264.287 430.592 264.38 429.398 264.898 427.664C265.448 425.825 267.106 423.174 267.114 421.391L266.475 421.515C261.347 429.694 250.185 452.761 248.981 462.258C248.706 463.01 248.466 463.587 248.089 464.285C247.771 464.875 247.767 465.165 247.704 465.804C247.453 468.306 246.262 470.285 244.62 472.144L244.994 469.182C238.402 480.509 238.032 493.08 227.419 502.254C226.169 502.698 225.871 502.621 225.19 503.809L226.49 507.459C227.62 507.74 228.37 507.168 229.428 506.729C231.666 503.856 233.98 501.043 236.369 498.294L235.91 497.029L236.584 496.51C237.686 496.698 238.551 496.566 239.261 497.473L238.866 498.463L240.285 497.566C240.56 498.187 240.575 498.732 241.232 498.987C241.388 497.058 241.661 492.627 243.179 491.336L243.118 490.997C248.224 483.105 249.506 473.859 252.493 465.145C254.232 460.069 256.897 454.653 258.124 449.518C258.267 448.918 258.382 448.306 258.516 447.704Z" fill="#E5B48C"/>
<path d="M258.516 447.704C258.572 447.568 258.616 447.426 258.686 447.297C259.448 445.89 262.249 445.553 261.912 443.946C261.714 443.006 260.869 441.934 260.344 441.14C260.034 438.127 262.767 435.872 262.953 432.797L263.709 432.201L264.287 433.4L264.793 433.273L265.138 432.206C264.287 430.592 264.38 429.398 264.898 427.664C265.448 425.825 267.106 423.174 267.114 421.391L266.475 421.515C261.347 429.694 250.185 452.761 248.981 462.258L250.039 462.187C253.328 456.327 254.002 448.927 257.819 443.386C257.872 443.421 257.972 443.428 257.978 443.491C258.173 445.571 257.131 445.591 258.516 447.704Z" fill="#A68467"/>
<path d="M227.419 502.254C226.169 502.698 225.871 502.621 225.19 503.809L226.49 507.459C227.62 507.74 228.37 507.168 229.428 506.729C231.666 503.856 233.98 501.043 236.369 498.294L235.91 497.029L236.584 496.51C237.686 496.698 238.551 496.566 239.261 497.473L238.866 498.463L240.285 497.566C240.56 498.187 240.575 498.732 241.232 498.987C241.388 497.058 241.661 492.627 243.179 491.336L243.118 490.997L241.753 490.864C239.251 491.957 237.777 494.336 236.106 496.411C233.851 498.587 230.723 502.308 227.419 502.254Z" fill="#E4BB9B"/>
<path d="M244.62 472.144L244.994 469.182C238.402 480.509 238.032 493.08 227.419 502.254C230.723 502.308 233.852 498.588 236.106 496.412C236.677 492.662 242.806 477.42 244.62 472.144Z" fill="#382B23"/>
<path d="M191.269 487.596C191.433 489.572 192.109 491.293 193.12 492.981C195.479 496.925 201.165 501.441 205.554 502.568C204.047 500.565 200.958 499.065 198.968 497.429C195.649 494.7 193.552 491.172 191.269 487.596Z" fill="#A68467"/>
<path d="M301.145 110.266L300.381 111.142C303.01 110.715 311.238 101.191 313.56 98.7873L314.071 98.173C310.146 98.8986 303.766 107.096 301.145 110.266Z" fill="#A68467"/>
<path d="M11.7431 419.813C11.9175 421.029 12.6201 422.125 13.4714 422.99C16.6297 426.2 20.8492 427.503 25.2527 427.55C24.8686 426.637 23.1382 426.517 22.1846 426.23C17.8013 424.913 14.9242 423.067 11.7431 419.813Z" fill="#745D48"/>
<path d="M301.322 534.547C299.835 536.06 298.513 537.865 297.151 539.5C305.491 542.266 340.581 558.084 345.302 558.086C346.393 558.087 346.512 557.787 347.184 557.035C346.409 552.082 340.451 545.129 337.59 540.854C371.048 536.388 404.157 522.686 432.331 504.294C483.834 470.674 526.607 414.648 539.338 353.916C539.79 351.735 540.215 349.55 540.612 347.36C540.968 345.295 541.317 342.024 540.083 340.288C537.303 341.663 532.641 358.488 531.364 361.92C523.335 383.541 512.263 403.907 498.482 422.402C458.168 476.698 399.369 513.797 332.268 523.714C332.485 519.475 334.98 507.166 333.594 503.951C333.18 502.992 332.674 503.008 331.764 502.709C328.72 503.682 305.839 529.759 301.322 534.547Z" fill="#382B23"/>
</svg>
