<svg width="683" height="683" viewBox="0 0 683 683" fill="none" xmlns="http://www.w3.org/2000/svg">
<mask id="mask0_143_10" style="mask-type:alpha" maskUnits="userSpaceOnUse" x="0" y="0" width="683" height="683">
<circle cx="341.5" cy="341.5" r="341.5" transform="matrix(-1 0 0 1 683 0)" fill="#D9D9D9"/>
</mask>
<g mask="url(#mask0_143_10)">
<path d="M505.096 13.9758C507.32 11.3963 509.53 8.98201 512.687 7.53134C515.483 6.24602 518.688 5.8645 521.723 5.60811C527.577 5.11431 533.476 6.20692 539.333 5.94605C550.924 5.42935 608.883 -0.850352 615.531 1.52144C619.37 6.25384 620.002 19.3612 620.759 25.7141C625.78 67.9075 627.466 111.019 623 153.355C622.848 154.795 622.849 156.877 622.283 158.201C621.74 169.378 618.904 187.876 615.319 198.342C614.932 199.726 614.604 201.31 613.349 202.19C613.288 202.233 613.22 202.262 613.156 202.298C604.649 206.563 578.221 206.64 567.533 208.103C558.614 209.325 549.976 213.97 540.765 212.391C533.72 211.182 531.146 205.252 527.414 199.926C528.026 230.583 524.18 258.272 513.047 287.104C504.669 308.797 491.96 327.637 480.507 347.683C461.214 381.452 436.351 436.024 431.751 474.71C430.21 487.664 430.638 501.685 432.462 514.594C433.758 523.76 435.779 532.888 436.113 542.16C436.536 553.941 433.261 565.04 425.07 573.76C419.444 579.748 412.663 583.407 404.801 585.585C392.784 588.915 380.467 588.764 368.123 589.345C358.844 589.786 349.622 590.702 340.523 592.612C325.352 595.796 310.765 601.829 296.427 607.627C286.573 611.616 277.131 615.677 266.669 617.883C260.461 619.19 253.511 619.777 247.197 619.112C241.862 618.542 236.06 616.99 230.724 617.766C223.119 618.866 218.562 625.469 208.478 625.698C203.286 625.821 198.682 623.849 194.936 620.319C192.098 621.86 189.148 623.117 185.925 623.564C179.956 624.385 175.233 622.279 170.583 618.716C167.196 619.85 163.913 620.598 160.343 620.028C154.652 619.129 150.328 615.526 147.074 610.957C142.211 611.7 137.887 611.951 133.556 609.147C129.501 606.516 127.658 602.555 126.674 597.986C124.672 597.048 122.736 596.087 120.968 594.752C116.657 591.484 113.27 586.809 112.562 581.357C112.426 580.312 112.395 579.262 112.472 578.218C112.622 575.966 113.359 573.794 114.61 571.917C119.171 565.063 130.575 565.778 137.853 563.404C144.189 561.337 149.908 557.617 156.106 555.215C162.929 552.573 170.138 551.042 176.974 548.456C183.295 546.07 188.752 542.333 194.857 539.596C202.234 536.284 209.865 533.804 217.104 530.117C235.147 520.911 251.401 508.371 268.059 496.925C279.772 488.882 292.185 481.653 302.713 472.032C311.53 463.976 319.234 454.247 325.604 444.166C347.189 410.003 354.948 371.318 362.275 332.28C368.684 298.136 373.442 263.637 380.264 229.595C384.819 206.864 390.667 184.345 396.124 161.814C398.163 153.397 400.75 144.963 402.312 136.448C403.656 129.128 403.765 121.56 404.282 114.146C405.79 92.5359 408.003 67.5763 421.718 49.8633C441.033 24.9148 475.505 17.7787 505.096 13.9758Z" fill="#000001"/>
<path d="M615.531 1.52144C619.37 6.25384 620.002 19.3612 620.759 25.7141C625.78 67.9075 627.466 111.019 623 153.355C622.848 154.795 622.849 156.877 622.283 158.201C621.072 159.663 621.224 163.291 620.831 165.204C610.929 164.419 596.586 163.878 587.25 162.042C585.85 170.641 583.549 179.885 579.591 187.699C582.221 179.244 584.501 170.904 586.292 162.233C588.826 148.941 590.915 130.936 590.786 117.488C590.526 90.6373 583.154 56.7139 569.07 33.7663C563.742 25.0858 553.793 11.8404 543.409 9.34291L543.087 8.419L542.956 8.27376C545.724 5.78244 610.755 4.62666 615.531 1.52144Z" fill="#3772A2"/>
<path d="M543.087 8.419C555.41 11.5823 564.571 23.6764 570.753 34.1232C584.201 56.8474 591.78 91.1467 591.904 117.405C591.945 126.058 590.867 134.866 589.9 143.457C589.208 149.614 588.599 155.997 587.25 162.042C585.85 170.641 583.549 179.885 579.591 187.699C582.221 179.244 584.501 170.904 586.292 162.233C588.826 148.941 590.915 130.936 590.786 117.488C590.526 90.6373 583.154 56.7139 569.07 33.7663C563.742 25.0858 553.793 11.8404 543.409 9.34291L543.087 8.419Z" fill="#000001"/>
<path d="M506.866 13.8386C514.909 8.04037 521.971 7.68511 531.572 8.24817C535.526 8.48055 539.493 8.72232 543.409 9.34291C553.793 11.8404 563.742 25.0858 569.07 33.7663C583.154 56.7139 590.526 90.6373 590.786 117.488C590.915 130.936 588.826 148.941 586.292 162.233C578.524 161.906 570.752 161.678 562.977 161.548C562.232 160.896 562.274 159.847 562.111 158.885C562.87 150.386 563.42 141.638 563.348 133.109C563.093 102.545 557.744 66.9128 543.373 39.6551C540.359 33.9373 537.073 28.1296 532.395 23.5911C524.483 15.9171 517.65 13.6034 506.866 13.8386Z" fill="#3772A2"/>
<path d="M620.831 165.204C621.224 163.291 621.072 159.663 622.283 158.201C621.74 169.378 618.904 187.876 615.319 198.342C614.932 199.726 614.604 201.31 613.349 202.19C613.288 202.233 613.22 202.262 613.156 202.298L610.405 202.105C606.545 202.928 602.102 202.76 598.137 203.07C588.134 203.852 577.863 204.528 567.917 205.794C560.239 206.771 552.887 209.678 545.118 210.307C542.423 210.526 540.023 209.988 537.444 209.262L537.74 208.529C541.206 208.804 544.098 207.552 546.748 205.322C558.558 195.385 560.847 173.24 562.111 158.885C562.274 159.847 562.232 160.896 562.977 161.548C570.752 161.678 578.524 161.906 586.292 162.233C584.501 170.904 582.221 179.244 579.591 187.699C583.549 179.885 585.85 170.641 587.25 162.042C596.586 163.878 610.929 164.419 620.831 165.204Z" fill="#27618A"/>
<path d="M610.405 202.105C611.133 199.805 613.038 196.413 614.979 194.993L615.413 195.448C615.177 196.401 615.156 197.055 615.278 198.031L615.319 198.342C614.932 199.726 614.604 201.31 613.349 202.19C613.288 202.233 613.22 202.262 613.156 202.298L610.405 202.105Z" fill="#3772A2"/>
<path d="M525.184 171.619C534.779 163.081 547.72 161.217 559.894 159.022C558.879 171.091 557.226 185.3 551.578 196.189C548.268 202.568 544.146 205.915 537.415 208.074L537.74 208.529L537.444 209.262C533.564 206.656 530.605 200.903 527.67 197.195C526.913 188.736 526.566 179.989 525.184 171.619Z" fill="#00324B"/>
<path d="M407.71 123.232C406.95 98.9222 409.37 67.761 426.13 48.6359C440.603 32.1211 461.887 24.9353 482.693 20.2415C491.037 18.359 499.764 16.7028 508.313 16.1715C516.948 15.6353 523.403 18.2702 529.845 24.0477C545.305 37.9126 557.358 79.544 558.535 100.175C560.435 110.936 561.22 124.924 560.981 135.895C560.827 142.959 560.15 150.038 560.167 157.099C547.885 158.378 534.265 160.546 525.019 169.461L524.831 164.809L524.569 164.804C524.775 166.967 525.157 168.803 523.741 170.6C523.027 170.68 522.923 170.586 522.272 170.255C527.769 219.945 524.06 262.057 500.854 307.354C493.351 321.998 484.236 335.756 476.225 350.118C456.731 385.067 439.184 424.795 430.855 464.032C427.792 478.464 427.739 493.149 429.061 507.807C430.903 528.212 439.747 551.505 425.332 569.526C416.342 580.765 403.311 584.189 389.634 585.608C381.544 586.451 373.333 586.418 365.21 586.876C354.832 587.462 344.275 588.937 334.205 591.545C320.628 595.053 307.322 600.863 294.322 606.119C281.83 611.163 270.018 616.677 256.277 617.107C247.87 617.364 239.759 615.531 231.452 614.643C231.156 613.856 231.316 613.532 231.482 612.722L228.599 615.386C229.615 613.269 230.671 611.169 231.462 608.951C225.74 617.196 223.134 621.123 212.577 623.028C208.523 623.765 202.672 623.642 199.126 621.257C198.048 620.531 196.938 619.308 196.667 617.995C196.342 616.431 196.998 614.694 197.471 613.208L198.326 614.872L198.429 615.431L201.078 616.889C202.557 616.515 203.893 616.168 204.91 614.951C206.261 613.331 207.022 611.353 206.698 609.236C206.477 607.784 205.956 606.75 204.796 605.857L204.199 605.08C205.088 604.84 205.637 605.287 206.438 605.683L205.44 604.013C207.459 600.282 219.803 596.88 223.933 595.076C226.794 593.825 229.499 592.272 232.207 590.73C228.204 591.607 212.082 597.439 208.354 599.539C200.699 603.84 196.351 609.962 193.992 618.218C189.712 621.14 184.647 621.899 179.578 621.073C177.177 620.682 174.329 619.889 172.93 617.727C171.502 615.526 172.639 612.604 173.185 610.242C174.718 611.694 176.267 612.616 178.427 612.783C180.378 612.94 182.416 612.264 183.85 610.917C185.015 609.823 185.77 608.342 185.814 606.734C185.857 605.136 185.259 602.969 184.113 601.846L183.423 601.125L180.507 600.874L180.261 600.528C187.615 592.903 195.05 591.311 204.155 587.161C208.38 585.239 212.411 582.91 216.688 581.094C211.896 582.267 207.803 584.34 203.249 586.099C199.362 587.596 195.287 588.669 191.46 590.317C183.436 593.769 176.558 600.405 172.026 607.845C171.168 610.493 170.485 613.079 169.899 615.8C165.255 617.403 161.128 618.52 156.44 616.263C154.504 615.33 152.73 613.973 151.221 612.448L148.992 609.923C149.345 608.348 149.724 606.773 150.128 605.209L151.001 607.114C151.261 607.661 151.618 608.158 152.055 608.577C153.324 609.806 155.572 610.208 157.275 610.096C159.074 609.974 160.895 609.231 162.072 607.828C163.958 605.583 163.996 599.924 163.624 597.165C163.175 593.836 161.877 595.277 159.928 593.774C159.968 593.612 159.999 593.456 160.048 593.299C160.492 591.881 162.208 590.669 163.337 589.78C170.485 584.127 177.885 582.038 186.037 578.502C190.442 576.592 194.759 574.441 199.066 572.319C194.327 573.481 189.889 575.743 185.297 577.363C166.043 584.161 165.562 584.077 151.452 599.131C149.309 601.885 148.274 604.231 147.32 607.594C145.448 608.303 143.382 609.074 141.358 609.136C137.977 609.236 134.511 607.918 132.14 605.488C130.054 603.349 128.944 600.209 129.014 597.26C132.048 592.462 134.866 588.825 139.933 586.082L139.785 585.82L138.896 585.68C139.609 583.502 142.139 582.133 143.969 580.91C149.469 577.201 155.376 574.134 161.574 571.766C168.848 568.995 176.626 566.811 183.401 562.895L183.835 562.638C167.599 567.129 152.013 572.09 138.547 582.496C134.56 586.769 130.341 590.467 126.697 595.104C123.986 593.813 121.415 592.227 119.332 590.043C115.667 586.205 114.634 581.938 114.759 576.771C115.679 573.626 116.879 570.995 120.014 569.481C125.305 566.934 134.115 566.789 140.402 564.392C145.715 562.365 150.618 559.41 155.91 557.359C163.384 554.455 171.246 552.639 178.738 549.768C184.643 547.506 189.776 543.881 195.5 541.289C200.872 538.853 206.591 537.155 212.009 534.792C221.11 530.815 229.621 525.62 237.921 520.196C247.319 514.052 256.396 507.438 265.72 501.182C285.678 487.803 302.226 478.598 317.678 459.325C347.873 421.667 356.863 375.27 365.384 329.159C371.217 297.595 375.838 265.761 382.012 234.277C386.76 210.069 392.904 186.09 398.716 162.118C400.76 153.688 403.113 145.331 404.889 136.839C405.012 134.236 405.53 131.592 405.899 129.011C405.932 126.962 406.029 124.915 406.189 122.872L406.401 123.245L407.71 123.232Z" fill="#E4BB9B"/>
<path d="M558.535 100.175C560.435 110.936 561.22 124.924 560.981 135.895C560.827 142.959 560.15 150.038 560.167 157.099C547.885 158.378 534.265 160.546 525.019 169.461L524.831 164.809L524.569 164.804C524.775 166.967 525.157 168.803 523.741 170.6C523.027 170.68 522.923 170.586 522.272 170.255C527.769 219.945 524.06 262.057 500.854 307.354C493.351 321.998 484.236 335.756 476.225 350.118C456.731 385.067 439.184 424.795 430.855 464.032C427.792 478.464 427.739 493.149 429.061 507.807C430.903 528.212 439.747 551.505 425.332 569.526C416.342 580.765 403.311 584.189 389.634 585.608C381.544 586.451 373.333 586.418 365.21 586.876C354.832 587.462 344.275 588.937 334.205 591.545C320.628 595.053 307.322 600.863 294.322 606.119C281.83 611.163 270.018 616.677 256.277 617.107C247.87 617.364 239.759 615.531 231.452 614.643C231.156 613.856 231.316 613.532 231.482 612.722L228.599 615.386C229.615 613.269 230.671 611.169 231.462 608.951C225.74 617.196 223.134 621.123 212.577 623.028C208.523 623.765 202.672 623.642 199.126 621.257C198.048 620.531 196.938 619.308 196.667 617.995C196.342 616.431 196.998 614.694 197.471 613.208L198.326 614.872L198.429 615.431L201.078 616.889C201.756 617.38 202.605 617.66 203.416 617.844C206.23 618.492 209.605 618.403 212.466 618.129C225.572 616.9 224.895 609.454 232.846 607.063C236.467 605.974 243.804 608.667 247.936 608.991C252.374 609.337 256.846 608.929 261.215 608.119C279.74 604.689 305.751 587.423 324.074 579.525C328.74 577.514 333.609 575.631 338.613 574.659C361.628 570.168 389.958 582.312 410.932 568.928C419.285 563.599 424.079 554.047 426.167 544.624C429.185 531.005 427.979 505.299 420.233 493.406C419.269 491.926 418.211 490.68 416.416 490.284C411.207 491.133 405.345 499.618 401.541 503.215C399.671 504.969 397.638 506.544 395.469 507.913C391.185 510.633 382.99 514.516 377.769 513.225C377.675 513.203 377.583 513.175 377.489 513.147C376.647 513.6 375.982 513.857 375.039 514.03L375.032 513.594L376.599 512.259C378.923 508.634 382.843 504.679 386.371 502.199C394.2 493.725 398.4 488.245 401.821 476.973C400.208 468.91 401.364 459.712 403.509 451.865C404.868 446.897 411.338 423.68 414.57 421.84L415.076 422.121C415.378 425.761 413.647 430.601 413.052 434.285C411.629 443.099 410.537 452.378 411.007 461.304C412.926 457.487 413.619 452.746 414.585 448.588C416.154 441.834 417.609 434.935 419.844 428.368C423.779 416.802 428.941 405.741 433.861 394.576C437.793 385.655 441.477 376.609 445.528 367.742C449.8 358.389 454.814 349.041 460.224 340.311C465.667 331.529 471.598 323.121 476.846 314.206C485.111 300.165 493.213 285.875 499.536 270.829C512.206 240.679 516.4 207.013 515.271 174.516C514.896 163.697 512.316 153.085 512.012 142.252C523.578 134.899 539.264 136.402 551.265 132.926C560.981 130.112 554.491 106.956 558.399 100.384C558.441 100.312 558.49 100.244 558.535 100.175Z" fill="#D6AB8A"/>
<path d="M407.756 449.37L408.094 451.831C407.322 469.849 405.455 491.272 391.231 504.321C387.896 507.382 384.062 509.499 380.126 511.661L379.828 511.197C390.626 504.767 398.043 497.489 401.576 485.116L399.157 489.345C402.057 481.698 405.185 474.045 406.371 465.906C407.166 460.445 407.243 454.868 407.756 449.37Z" fill="#3E221C"/>
<path d="M401.821 476.973C403.812 469.957 403.842 462.609 404.691 455.415C405.934 469.017 402.104 485.122 393.233 495.696C391.424 497.852 388.898 500.936 386.371 502.199C394.2 493.725 398.4 488.245 401.821 476.973Z" fill="#6D463C"/>
<path d="M522.272 170.255C521.627 167.386 520.361 154.317 521.574 151.974C521.62 151.886 521.689 151.812 521.747 151.731L521.633 151.26L521.473 152.027L521.84 152.03C522.506 156.846 522.45 161.824 523.011 166.685C523.202 164.197 523.42 161.731 523.755 159.257C524.512 160.705 523.959 162.703 524.414 164.297C524.463 164.467 524.517 164.635 524.569 164.804C524.775 166.967 525.157 168.803 523.741 170.6C523.027 170.68 522.923 170.586 522.272 170.255Z" fill="#170A08"/>
<path d="M376.599 512.259C377.604 511.79 378.765 511.526 379.828 511.197L380.126 511.661L377.489 513.147C376.647 513.6 375.982 513.857 375.039 514.03L375.032 513.594L376.599 512.259Z" fill="#D56E4D"/>
<path d="M407.756 449.37C407.865 448.209 407.8 446.511 408.479 445.548C408.96 447.445 408.676 449.972 408.094 451.831L407.756 449.37Z" fill="#D56E4D"/>
<path d="M126.697 595.104C123.986 593.813 121.415 592.227 119.332 590.043C115.667 586.205 114.634 581.938 114.759 576.771C119.178 581.049 122.126 584.976 128.949 584.87C132.349 584.814 135.44 583.792 138.547 582.496C134.56 586.769 130.341 590.467 126.697 595.104Z" fill="#D6AB8A"/>
<path d="M129.014 597.26L130.747 597.092C130.844 598.868 131.196 600.136 132.534 601.382C134.158 602.896 136.876 603.493 139.064 603.376C140.241 603.315 141.371 602.812 142.448 602.365C144.996 603.393 148.97 599.969 151.452 599.131C149.309 601.885 148.274 604.231 147.32 607.594C145.448 608.303 143.382 609.074 141.358 609.136C137.977 609.236 134.511 607.918 132.14 605.488C130.054 603.349 128.944 600.209 129.014 597.26Z" fill="#D6AB8A"/>
<path d="M151.221 612.448C159.623 613.325 164.824 612.046 172.026 607.845C171.168 610.493 170.485 613.079 169.899 615.8C165.255 617.403 161.128 618.52 156.44 616.263C154.504 615.33 152.73 613.973 151.221 612.448Z" fill="#D6AB8A"/>
<path d="M139.019 602.477C140.919 600.131 144.111 596.813 144.504 593.752C144.7 592.232 144.426 590.154 145.121 588.797C146.41 592.081 145.527 596.483 144.183 599.634C143.753 600.645 143.182 601.555 142.448 602.365C141.371 602.812 140.241 603.315 139.064 603.376C136.876 603.493 134.158 602.896 132.534 601.382C131.196 600.136 130.844 598.868 130.747 597.092C132.038 599.399 133.184 600.93 135.87 601.723C136.901 602.03 137.966 602.253 139.019 602.477Z" fill="#000001"/>
<path d="M405.899 129.011C405.932 126.962 406.029 124.915 406.189 122.872L406.401 123.245L407.71 123.232C408.757 129.478 408.552 136.393 408.864 142.756C409.048 146.48 409.632 150.535 409.426 154.235C408.071 146.847 407.715 139.167 407.109 131.688L406.178 133.361L405.899 129.011Z" fill="#3E221C"/>
<path d="M405.899 129.011C405.932 126.962 406.029 124.915 406.189 122.872L406.401 123.245C406.976 125.995 406.972 128.888 407.109 131.688L406.178 133.361L405.899 129.011Z" fill="#E4BB9B"/>
<path d="M405.899 129.011L406.178 133.361C406.412 139.983 406.888 146.926 405.864 153.502L405.392 153.827L405.814 153.772L405.508 154.404L405.384 153.961L405.709 154.089L405.761 153.85C404.321 152.15 405.432 140.029 404.889 136.839C405.012 134.236 405.53 131.592 405.899 129.011Z" fill="#D56E4D"/>
<path d="M473.24 53.2617L474.055 53.3667C475.002 55.2 474.66 56.9993 474.204 58.9923C474.575 60.1928 474.072 61.5205 473.792 62.7137C473.226 70.0095 455.99 90.7154 450.695 95.707L450.223 95.7579L450.933 94.2759C449.82 94.1748 449.762 94.1731 448.89 94.8546C445.872 97.213 443.337 102.723 440.271 104.503L432.089 114.059C432.705 112.772 434.755 109.716 434.714 108.456C434.932 107.812 435.181 107.179 435.461 106.559C439.111 98.5117 453.967 77.5421 461.6 74.6369C465.574 68.9694 469.442 57.3104 473.24 53.2617Z" fill="#D6AB8A"/>
<path d="M473.24 53.2617L474.055 53.3667C475.002 55.2 474.66 56.9993 474.204 58.9923L473.473 59.2074C469.252 64.066 467.47 71.316 462.51 76.0049L462.104 75.6239C460.549 78.0191 459.117 81.3545 456.834 83.0711C457.078 80.9797 460.497 76.6389 461.6 74.6369C465.574 68.9694 469.442 57.3104 473.24 53.2617Z" fill="url(#paint0_linear_143_10)"/>
<path d="M461.6 74.6369C465.574 68.9694 469.442 57.3104 473.24 53.2617C470.584 60.9262 466.406 68.7471 462.104 75.6239C460.549 78.0191 459.117 81.3545 456.834 83.0711C457.078 80.9797 460.497 76.6389 461.6 74.6369Z" fill="#A16152"/>
<path d="M474.204 58.9923C474.575 60.1928 474.072 61.5205 473.792 62.7137C472.664 64.9447 471.595 67.2387 470.314 69.3848L469.724 67.1113C468.201 69.4435 464.795 76.0745 462.266 77.1303C462.336 76.7661 462.377 76.3501 462.51 76.0049C467.47 71.316 469.252 64.066 473.473 59.2074L474.204 58.9923Z" fill="#A16152"/>
<path d="M474.204 58.9923C474.575 60.1928 474.072 61.5205 473.792 62.7137C472.664 64.9447 471.595 67.2387 470.314 69.3848L469.724 67.1113C471.22 64.6921 472.811 61.9886 473.473 59.2074L474.204 58.9923Z" fill="#F3D5B9"/>
<path d="M470.314 69.3848C471.595 67.2387 472.664 64.9447 473.792 62.7137C473.226 70.0095 455.99 90.7154 450.695 95.707L450.223 95.7579L450.933 94.2759C453.877 92.6655 468.169 73.2698 470.314 69.3848Z" fill="#6D463C"/>
<path d="M434.714 108.456C436.572 107.176 438.135 105.294 440.271 104.503L432.089 114.059C432.705 112.772 434.755 109.716 434.714 108.456Z" fill="#D56E4D"/>
<path d="M131.162 567.855C133.72 567.47 136.127 567.397 138.334 568.933C139.473 569.727 139.928 570.475 140.195 571.827C140.215 571.927 140.231 572.028 140.248 572.129C140.399 571.62 140.08 570.821 139.96 570.296C140.314 570.598 140.511 571.419 140.563 571.872C140.743 573.441 139.735 574.983 138.709 576.061C136.978 577.888 134.575 579.351 132.02 579.385C129.375 579.418 124.488 578.647 122.613 576.592C121.644 575.53 121.225 574.123 121.228 572.715L121.768 572.581C122.071 573.458 122.422 574.346 123.028 575.061C124.592 576.916 127.398 578.167 129.781 578.228C132.455 578.295 135.222 577.491 137.148 575.57C138.424 574.29 139.104 572.916 139.088 571.106C138.799 570.497 138.687 570.051 138.13 569.632C135.514 567.66 125.12 569.944 121.669 570.369C124.724 568.906 127.852 568.392 131.162 567.855Z" fill="#000001"/>
<path d="M441.368 281.471C442.469 290.104 437.242 311.171 436.012 321.15C435.46 320.213 435.68 318.778 435.775 317.733C436.444 310.439 438.113 303.116 439.265 295.873C440.02 291.132 440.272 286.121 441.368 281.471Z" fill="#D56E4D"/>
<path d="M150.128 605.209C151.734 602.226 155.369 597.489 158.742 596.595C159.816 596.31 160.537 596.579 161.475 597.098C161.948 597.696 162.35 598.081 162.51 598.841L161.982 598.198C162.024 598.299 162.067 598.405 162.107 598.506C162.973 600.757 162.964 603.444 161.864 605.622C161.075 607.186 159.783 608.153 158.091 608.577C155.504 609.225 153.265 608.231 151.001 607.114L150.128 605.209Z" fill="#E4BB9B"/>
<path d="M184.113 601.846C184.253 602.505 184.266 603.181 184.3 603.857C184.425 606.331 184.588 608.398 182.704 610.314C181.586 611.448 179.986 612.006 178.404 611.956C177.227 611.917 175.74 611.487 174.99 610.509C174.578 609.968 174.346 609.314 174.389 608.644C174.53 606.448 176.651 604.678 178.194 603.32C179.93 601.79 180.998 600.98 183.423 601.125L184.113 601.846Z" fill="#E4BB9B"/>
<path d="M204.441 606.058C205.402 608.096 205.902 610.532 205.024 612.711C204.556 613.872 203.52 614.928 202.314 615.313C201.095 615.704 199.516 615.235 198.326 614.872L197.471 613.208C197.588 612.968 197.704 612.733 197.831 612.504C199.121 610.163 201.768 606.789 204.441 606.058Z" fill="#E4BB9B"/>
</g>
<defs>
<linearGradient id="paint0_linear_143_10" x1="258.835" y1="260.03" x2="319.298" y2="204.061" gradientUnits="userSpaceOnUse">
<stop stop-color="#EBB59C"/>
<stop offset="1" stop-color="#FFD5B5"/>
</linearGradient>
</defs>
</svg>
