<svg width="722" height="779" viewBox="0 0 722 779" fill="none" xmlns="http://www.w3.org/2000/svg">
<path d="M199.934 664.528C221.194 669.654 242.033 681.882 262.66 689.736C314.502 709.478 368.904 714.418 423.97 712.916C453.052 712.123 481.547 706.371 510.191 701.846C524.311 699.569 538.446 697.389 552.595 695.306C569.711 692.892 586.997 690.893 603.691 686.256C610.47 684.373 617.266 682.308 623.81 679.718C631.6 676.634 639.134 672.964 647.034 670.151C669.595 662.116 691.516 654.826 708.416 636.837C721.899 622.485 723.052 612.471 720.399 593.414C718.683 581.082 715.726 568.959 714.029 556.672C712.29 544.086 712.963 530.822 712.578 518.113C711.442 480.645 706.38 444.956 696.013 408.89C687.031 377.644 675.475 348.081 662.192 318.429C649.344 289.747 635.348 261.736 623.5 232.578C607.021 192.019 596.126 149.083 578.583 108.995C575.359 101.628 571.487 94.866 565.554 89.345C557.869 82.192 548.969 77.067 540.225 71.41C528.817 64.029 517.537 56.34 505.12 50.707C486.426 42.226 466.663 37.269 447 31.661C436.027 28.531 425.272 24.675 414.315 21.501C404.421 18.636 394.321 16.502 384.39 13.772C371.049 10.105 358.076 4.77096 344.591 1.71396C339.703 0.605963 334.754 -0.101036 329.733 0.114964C315.932 0.706964 303.879 5.38496 294.498 15.68C287.455 23.408 283.189 32.862 278.137 41.887C275.085 47.339 271.755 52.652 268.503 57.986C261.043 70.222 251.373 82.118 245.709 95.276C243.395 100.651 242.395 106.039 242.691 111.885C243.336 124.647 251.505 133.815 260.554 141.902C255.982 143.987 251.874 146.857 248.659 150.748C244.172 156.103 242.048 163.049 242.773 169.997C243.507 177.034 247.532 183.311 252.955 187.709C260.994 194.229 274.477 197.5 284.664 196.384C296.953 195.037 308.52 186.399 315.999 177.007C320.709 178.669 325.341 179.339 330.102 180.648C336.189 182.322 341.911 184.71 348.158 185.964C353.74 187.084 360.284 187.017 365.618 188.826C371.145 190.7 376.184 194.559 381.616 196.868C390.73 200.742 399.519 200.762 408.657 197.01C424.125 190.659 428.869 183.195 435.025 168.261L435.759 167.941C447.582 174.853 455.038 178.115 468.877 178.443C472.726 184.953 476.594 191.484 479.749 198.368C493.221 227.762 498.013 261.016 499.867 293.021C500.603 305.723 501.728 318.191 498.584 330.687C495.542 342.779 491.31 354.568 488.268 366.681C480.487 397.666 476.331 433.859 477.84 465.747C473.369 463.216 468.871 460.738 464.16 458.674C460.975 457.278 457.209 456.3 454.293 454.423C450.372 451.899 446.828 447.725 443.342 444.598C437.219 439.105 430.337 434.492 423.165 430.488C391.633 412.883 359.337 409.322 323.938 412.126C311.743 413.092 299.654 414.488 287.835 417.791C279.839 420.05 272.026 422.914 264.464 426.358C256.138 416.058 245.822 408.59 234.737 401.515C202.569 381.085 166.172 368.248 128.306 363.977C91.0933 360.077 55.7623 365.397 20.8383 378.518C16.7272 380.063 4.29425 384.798 1.02625 387.547C0.24823 388.202 0.272278 388.499 0.175293 389.44L1.31128 391.054C3.05231 394.777 4.26825 398.496 5.33325 402.46C16.2062 455.616 23.0762 509.587 33.0392 562.933C37.4382 586.483 41.8623 610.218 47.2983 633.551C48.9693 640.843 50.7673 648.106 52.6902 655.335C53.9033 659.8 55.5643 664.4 56.4543 668.919C59.9593 679.812 63.2113 691.114 67.9153 701.555C79.8733 728.098 101.831 754.141 127.769 767.572C132.214 769.842 136.908 771.588 141.756 772.773C146.446 773.915 153.43 774.441 157.557 776.81C157.743 778.023 157.551 778.063 158.5 778.959C158.63 778.885 158.771 778.828 158.889 778.738C164.729 774.258 196.219 678.173 199.934 664.528Z" fill="#F3BBA1"/>
<path d="M199.934 664.528C221.194 669.654 242.033 681.882 262.66 689.736C314.502 709.478 368.904 714.418 423.97 712.916C453.052 712.123 481.547 706.371 510.191 701.846C524.311 699.569 538.446 697.389 552.595 695.306C569.711 692.892 586.997 690.893 603.691 686.256C610.47 684.373 617.266 682.308 623.81 679.718C631.6 676.634 639.134 672.964 647.034 670.151C669.595 662.116 691.516 654.826 708.416 636.837C721.899 622.485 723.052 612.471 720.399 593.414C718.683 581.082 715.726 568.959 714.029 556.672C712.29 544.086 712.963 530.822 712.578 518.113C711.442 480.645 706.38 444.956 696.013 408.89C687.031 377.644 675.475 348.081 662.192 318.429C649.344 289.747 635.348 261.736 623.5 232.578C607.021 192.019 596.126 149.083 578.583 108.995C575.359 101.628 571.487 94.866 565.554 89.345C557.869 82.192 548.969 77.067 540.225 71.41C528.817 64.029 517.537 56.34 505.12 50.707C486.426 42.226 466.663 37.269 447 31.661C436.027 28.531 425.272 24.675 414.315 21.501C404.421 18.636 394.321 16.502 384.39 13.772C371.049 10.105 358.076 4.77096 344.591 1.71396C339.703 0.605963 334.754 -0.101036 329.733 0.114964C315.932 0.706964 303.879 5.38496 294.498 15.68C287.455 23.408 283.189 32.862 278.137 41.887C275.085 47.339 271.755 52.652 268.503 57.986C261.043 70.222 251.373 82.118 245.709 95.276C243.395 100.651 242.395 106.039 242.691 111.885C243.336 124.647 251.505 133.815 260.554 141.902C255.982 143.987 251.874 146.857 248.659 150.748C244.172 156.103 242.048 163.049 242.773 169.997C243.507 177.034 247.532 183.311 252.955 187.709C260.994 194.229 274.477 197.5 284.664 196.384C296.953 195.037 308.52 186.399 315.999 177.007C320.709 178.669 325.341 179.339 330.102 180.648C336.189 182.322 341.911 184.71 348.158 185.964C353.74 187.084 360.284 187.017 365.618 188.826C371.145 190.7 376.184 194.559 381.616 196.868C390.73 200.742 399.519 200.762 408.657 197.01C424.125 190.659 428.869 183.195 435.025 168.261L433.329 167.794C431.539 168.316 427.041 178.611 425.525 180.974C420.528 188.767 409.855 194.563 400.901 196.473C388.233 199.176 374.4 190.934 364.169 184.286C360.009 181.583 353.108 176.877 351.321 172.077C348.296 163.949 357.702 143.643 360.45 135.319C362.227 129.934 363.81 124.398 364.77 118.803C366.076 111.194 366.024 103.97 364.408 96.425L363.662 96.417C364.297 105.773 363.729 114.565 361.397 123.683C357.24 139.938 347.662 155.56 349.85 172.763C353.565 178.871 359.939 183.876 365.244 188.576C351.698 180.639 334.119 183.299 321.072 171.398C317.118 167.792 314.223 163.125 313.198 157.839C309.415 138.333 326.68 108.325 331.698 89.546C334.421 79.357 334.16 70.384 333.709 59.969L332.703 59.999C332.813 71.021 331.785 81.021 328.589 91.643C321.967 113.653 298.002 152.568 318.975 172.896C321.737 175.573 325.193 177.733 328.35 179.927C324.523 178.47 320.949 176.535 317.329 174.637C317.195 174.588 317.059 174.542 316.926 174.489C311.811 172.453 307.311 169.284 302.57 166.55C293.008 161.035 279.627 155.463 274.918 144.645C270.483 134.457 273.966 121.639 277.885 111.854C278.694 107.773 281.34 102.754 283.173 99.009C290.795 83.436 303.68 64.831 304.255 47.142C303.959 44.65 304.704 42.198 303.41 39.989C302.662 45.166 302.055 50.545 300.426 55.53L299.476 55.856C297.854 59.899 296.704 64.049 294.818 67.996C283.505 91.671 268.152 112.452 270.611 140.062C269.575 139.805 268.734 139.327 267.794 138.836C266.933 139.853 267.102 140.382 266.996 141.656L264.399 140.087C257.325 135.823 250.929 126.299 247.648 118.864L246.9 118.564L246.702 118.005C243.571 108.896 244.905 103.699 249.045 95.318C254.644 83.982 262.472 73.915 269.007 63.111C273.365 55.907 277.767 48.691 281.886 41.348C286.485 33.148 290.614 24.498 296.805 17.322C300.739 12.761 306.574 8.56596 312.292 6.61596C320.459 3.82996 329.771 2.22996 338.362 3.44796C352.607 5.46896 368.509 12.723 382.584 16.79L446.783 34.939C467.948 40.827 489.386 45.992 509.111 55.986C523.414 63.233 560.295 85.692 568.796 97.527C577.581 109.758 582.641 127.852 587.826 141.986C599.63 174.163 609.761 206.942 622.732 238.687C642.572 287.243 668.754 333.38 685.052 383.357C697.824 422.521 706.319 459.775 708.839 501.031C709.205 507.021 709.68 513.027 709.727 519.03C709.815 530.306 709.269 541.69 710.466 552.922C712.564 572.61 724.393 605.434 715.07 623.498C701.665 649.473 667.787 658.864 642.547 668.509C631.43 672.758 620.713 677.666 609.323 681.21C585.632 688.581 561.194 690.496 536.809 694.465C506.849 699.342 476.589 705.239 446.396 708.297C400.068 712.988 339.823 709.698 294.958 696.998C280.77 693.086 266.836 688.299 253.239 682.664C238.069 676.222 216.651 663.973 200.581 661.668C202.773 650.367 204.894 639.07 206.242 627.632L206.576 627.139C207.064 621.856 208.182 616.181 206.511 611.042L206.048 611.345C203.135 626.592 201.992 642.048 198.57 657.276C195.868 669.296 191.785 680.967 187.903 692.645C181.425 712.329 174.466 731.851 167.03 751.193C163.839 759.571 161.446 768.771 157.557 776.81C157.743 778.023 157.551 778.063 158.5 778.959C158.63 778.885 158.771 778.828 158.889 778.738C164.729 774.258 196.219 678.173 199.934 664.528Z" fill="#010000"/>
<path d="M300.426 55.53L299.476 55.856C297.854 59.899 296.704 64.049 294.818 67.996C283.505 91.671 268.152 112.452 270.611 140.062C269.575 139.805 268.734 139.327 267.794 138.836C266.933 139.853 267.102 140.382 266.996 141.656L264.399 140.087C257.325 135.823 250.929 126.299 247.648 118.864L246.9 118.564C246.95 119.11 246.909 118.96 247.08 119.506C250.993 131.979 263.057 141.225 274.142 146.966C270.786 139.965 270.697 133.287 271.763 125.776C274.395 107.234 284.095 91.578 292.362 75.176C295.514 68.922 298.78 62.359 300.426 55.53Z" fill="#E29D7D"/>
<path d="M263.689 143.569C257 147.194 250.973 150.74 247.617 157.975C245.145 163.304 244.834 169.645 246.963 175.138C249.485 181.64 255.217 186.619 261.475 189.426C271.482 193.915 283.547 194.826 293.829 190.971C297.036 189.405 313.36 179.004 314.305 176.311C300.496 167.285 285.562 162.254 274.953 148.917C270.969 147.446 267.389 145.653 263.689 143.569Z" fill="#E29D7D"/>
<path d="M258.409 158.299C257.249 159.207 256.63 159.872 256.052 161.242C254.978 163.785 254.429 166.188 255.54 168.817C256.943 172.136 259.898 174.261 263.176 175.516C268.428 177.527 275.127 178.056 280.336 175.812C283.303 173.07 284.669 170.335 286.231 166.699C279.849 165.518 273.034 166.006 266.772 164.588C262.288 163.573 260.758 162.013 258.409 158.299Z" fill="#F3BBA1"/>
<path d="M295.166 166.309C294.131 168.64 296.189 179.46 295.359 183.769C295.326 183.94 295.289 184.11 295.254 184.281L295.841 184.877C296.333 183.891 296.733 182.935 297.013 181.865C298.267 177.073 297.721 170.545 295.166 166.309Z" fill="#010000"/>
<path d="M524.98 141.732C522.056 147.723 519.147 153.371 514.722 158.43C504.125 170.545 491.085 175.012 475.224 175.948C456.19 177.071 441.348 170.821 427.244 158.19C429.707 162.042 432.257 164.993 435.759 167.941C447.582 174.853 455.038 178.115 468.877 178.443C472.726 184.953 476.594 191.484 479.749 198.368C493.221 227.762 498.013 261.016 499.867 293.021C500.603 305.723 501.728 318.191 498.584 330.687C495.542 342.779 491.31 354.568 488.268 366.681C480.487 397.666 476.331 433.859 477.84 465.747C473.369 463.216 468.871 460.738 464.16 458.674C460.975 457.278 457.209 456.3 454.293 454.423C450.372 451.899 446.828 447.725 443.342 444.598C437.219 439.105 430.337 434.492 423.165 430.488C391.633 412.883 359.337 409.322 323.938 412.126C311.743 413.092 299.654 414.488 287.835 417.791C279.839 420.05 272.026 422.914 264.464 426.358C256.138 416.058 245.822 408.59 234.737 401.515C202.569 381.085 166.172 368.248 128.306 363.977C91.0933 360.077 55.7623 365.397 20.8383 378.518C16.7272 380.063 4.29425 384.798 1.02625 387.547C0.24823 388.202 0.272278 388.499 0.175293 389.44L1.31128 391.054C6.87531 388.7 12.1365 385.633 17.7305 383.305C40.1255 373.988 66.1484 366.936 90.4924 366.126C104.836 365.649 119.22 365.848 133.463 367.694C170.598 372.509 213.652 388.398 243.71 411.012C250.208 415.901 255.701 421.757 261.615 427.288C245.901 433.21 229.966 450.531 220.631 464.098C214.35 473.228 209.184 482.754 201.858 491.186C194.971 499.112 185.201 503.652 179.76 513.03C174.638 521.858 171.965 532.129 168.763 541.747C165.223 552.514 161.294 563.148 156.986 573.631C147.384 596.542 132.671 616.351 119.409 637.143C105.476 658.988 93.0455 682.747 75.1165 701.628C79.9745 698.681 83.7675 695.052 87.3594 690.653C99.5504 675.725 109.103 658.051 119.444 641.812C133.291 620.067 148.285 599.771 158.741 575.989C162.938 566.522 166.636 556.84 169.819 546.985C173.165 536.742 176.001 525.131 181.271 515.686C187.685 504.193 197.451 499.815 205.328 490.191C211.465 482.692 216.106 473.959 221.511 465.933C225.584 459.886 230.651 453.95 235.826 448.817C242.516 442.181 250.073 435.09 258.446 430.725C262.684 428.517 267.625 428.162 272.105 426.62C277.786 424.664 283.291 422.437 289.081 420.77C306.931 415.629 325.98 413.907 344.53 414.006C404.14 414.324 454.664 442.132 478.787 497.92C480.508 501.867 482.022 505.901 483.321 510.006C484.186 512.79 485.971 523.253 487.383 524.68L487.374 524.527L487.306 525.378L487.115 524.606L487.456 524.369C484.699 498.406 470.677 474.702 454.36 454.811C456.111 456.292 457.796 457.947 459.714 459.214C467.883 464.61 478.154 467.308 485.389 474.092C494.286 482.434 501.221 494.155 508.325 504.018C520.305 520.651 543.961 544.65 563.262 551.772C545.775 540.5 529.195 526.726 516.154 510.453C504.38 495.761 496.054 479.289 480.328 468.255C482.061 459.128 480.945 450.189 481.244 441C481.664 428.126 483.045 415.543 484.664 402.783C486.671 386.96 490.084 371.611 494.478 356.289C497.552 345.569 501.817 334.538 503.242 323.473C504.983 309.962 502.688 286.137 501.13 272.226C498.137 245.491 492.853 218.087 480.82 193.821C477.973 188.08 475.063 182.252 469.972 178.189C479.614 177.763 496.452 175.046 504.77 169.951C515.209 163.557 522.096 153.467 524.98 141.732Z" fill="#010000"/>
<path d="M277.885 111.854C273.966 121.639 270.483 134.457 274.918 144.645C279.627 155.463 293.008 161.035 302.57 166.55C307.311 169.284 311.811 172.453 316.926 174.489C317.059 174.542 317.195 174.588 317.329 174.637C315.564 171.269 308.995 171.013 307.634 168.133C308.712 167.328 309.766 166.492 310.796 165.626L310.818 164.71C310.478 164.389 310.346 164.222 309.866 164.013C307.87 163.147 303.588 162.352 301.645 163.181L301.471 164.239L301.876 164.622L303.044 163.408L303.41 163.734L302.541 164.937C301.637 164.709 300.856 164.462 300.015 164.048C293.854 161.011 277.246 151.324 275.473 144.333C274.391 140.069 273.325 134.573 273.768 130.227C274.219 125.811 278.719 115.554 278.105 112.468C278.062 112.255 277.958 112.059 277.885 111.854Z" fill="#E29D7D"/>
<path d="M413.832 69.3049C413.417 69.1229 413.001 68.944 412.584 68.769C401.98 64.3289 386.769 60.898 375.781 65.692C369.579 68.397 366.502 72.69 364.111 78.757L364.516 79.6779C366.554 75.7799 369.113 72.264 372.824 69.798C383.934 62.413 401.668 66.9189 413.832 69.3049Z" fill="#010000"/>
<path d="M206.576 627.139L206.242 627.632C209.092 628.713 212.302 629.277 215.249 630.086C220.161 631.407 224.969 633.086 229.636 635.11C239.508 639.333 248.374 645.485 258.09 649.982L258.682 650.251C243.445 639.104 225.605 629.024 206.576 627.139Z" fill="#010000"/>
<path d="M364.111 78.757C362.157 82.887 361.822 91.1819 363.286 95.5829C363.382 95.8719 363.537 96.139 363.662 96.417L364.408 96.425C363.787 90.788 362.701 85.2119 364.516 79.6779L364.111 78.757Z" fill="#E29D7D"/>
<path d="M304.255 47.142C305.17 43.274 305.021 37.833 304.25 33.946C303.494 35.775 303.566 38.016 303.41 39.989C304.704 42.198 303.959 44.65 304.255 47.142Z" fill="#18100F"/>
<path d="M333.709 59.969C333.73 58.26 334.067 55.916 333.265 54.379C332.551 56.048 332.656 58.189 332.703 59.999L333.709 59.969Z" fill="#B47961"/>
<path d="M459.518 563.14L458.56 564.079C454.548 568.004 450.556 572.029 446.085 575.437C427.771 589.395 404.665 596.492 382.224 600.303C375.473 601.449 368.162 603.019 361.294 602.941L359.014 603.923C370.334 604.473 383.299 602.386 394.371 600.034C417.982 595.02 445.82 584.262 459.518 563.14Z" fill="#010000"/>
<path d="M508.488 192.397C513.284 206.543 520.671 219.966 526.361 233.811C533.78 251.866 540.192 270.241 546.603 288.672C549.672 297.494 553.055 306.25 555.922 315.137L556.227 314.22C553.684 303.539 549.651 292.909 546.128 282.506C536.296 253.473 524.09 218.605 508.488 192.397Z" fill="#010000"/>
<path d="M238.092 600.536C210.726 603.155 168.985 595.607 144.861 609.091C156.35 606.33 168.079 604.202 179.881 603.391C193.194 602.476 228.441 605.512 238.092 600.536Z" fill="#010000"/>
<path d="M270.964 609.301C269.754 608.85 267.984 609.432 266.768 609.808L266.784 611.487C268.979 615.805 275.363 620.245 279.446 622.753C274.881 618.553 272.302 615.229 269.293 609.736C277.329 610.387 285.262 611.95 293.28 612.8C301.183 613.638 309.191 613.931 317.123 614.442C327.307 615.099 337.407 615.938 347.625 616.02C356.413 616.091 365.274 615.433 374.054 615.053C394.408 614.173 415.286 613.236 435.601 614.913C444.677 615.335 453.789 617.011 462.871 616.921C459.554 615.429 453.453 615.604 449.752 615.26C426.706 613.114 403.581 613.222 380.47 614.095C369.184 614.521 357.55 615.869 346.28 615.451C328.991 614.81 311.458 613.864 294.235 612.207C286.673 611.479 279.183 609.933 271.628 609.348L270.964 609.301Z" fill="#EAB294"/>
<path d="M217.44 565.519L217.093 565.73C221.04 570.571 227.618 573.54 233.109 576.257C252.567 586.071 273.45 592.756 294.989 596.066L295.364 595.773C288.86 592.772 280.469 591.459 273.539 589.498C254.197 584.027 234.146 576.851 217.44 565.519Z" fill="#010000"/>
<path d="M535.487 623.535C535.224 623.552 535.42 623.523 534.971 623.847C538.401 625.753 541.957 627.422 545.615 628.842C565.12 636.466 591.371 642.223 611.378 633.493L612.29 632.917C612.245 632.864 599.269 635.586 597.69 635.745C576.386 637.885 555.167 630.885 535.487 623.535Z" fill="#010000"/>
<path d="M697.376 486.48C696.787 492.038 697.91 498.066 697.791 503.713C697.4 522.212 693.989 539.015 687.35 556.278L687.717 556.558C688.83 554.585 689.962 552.599 690.923 550.547C697.953 535.519 702.964 502.302 697.376 486.48Z" fill="#010000"/>
<path d="M361.771 23.6979C354.772 22.7369 346.245 23.5649 339.783 26.5639C333.673 29.3989 330.511 33.6459 328.154 39.7369C331.8 34.4159 335.005 31.1879 340.807 28.2479C353.94 23.6539 369.199 25.6309 382.289 29.2889C375.79 25.8249 369.038 24.5199 361.771 23.6979Z" fill="#010000"/>
<path d="M121.028 652.338C120.824 652.509 120.606 652.665 120.417 652.853C113.896 659.326 100.779 690.689 97.9836 700.047C96.9226 703.598 96.3416 706.986 96.2136 710.691C98.9606 705.137 100.161 698.241 102.505 692.385C108.017 678.615 114.47 665.613 121.028 652.338Z" fill="#010000"/>
<path d="M409.499 136.197C409.446 140.16 409.817 144.178 409.568 148.123C408.829 159.808 401.56 168.489 395.058 177.614C403.576 170.37 408.632 163.379 411.484 152.508L411.746 149.422C411.186 144.961 410.396 140.601 409.499 136.197Z" fill="#010000"/>
<path d="M499.76 178.044C505.252 178.129 511.152 177.328 516.409 175.75C526.243 172.8 535.365 166.143 540.27 156.998L540.006 156.631C538.919 157.996 537.825 159.365 536.634 160.64C527.908 169.98 513.845 176.621 501.01 177.001C500.848 177.006 500.685 177.006 500.523 177.008L499.76 178.044Z" fill="#010000"/>
<path d="M372.905 43.711C371.931 43.434 370.753 43.518 369.737 43.479L369.422 43.857C369.954 44.014 370.491 44.155 371.022 44.315C376.1 45.841 381.773 46.036 387.046 46.661L414.63 49.998L418.299 49.914L417.229 49.032C412.064 49.371 406.515 47.518 401.354 46.824C391.891 45.608 382.407 44.57 372.905 43.711Z" fill="#010000"/>
<path d="M425.433 149.546L423.84 148.778C420.2 149.089 416.485 149.562 412.832 149.547L411.746 149.422L411.484 152.508C412.446 152.864 412.772 153.229 413.394 154.034C414.715 157.098 414.701 160.207 414.792 163.483C416.314 160.908 415.003 156.03 414.452 153.246C414.752 153.564 414.917 153.769 415.309 154.02C416.709 154.914 419.305 155.331 420.887 154.765C421.975 154.376 421.765 154.295 422.201 153.338C420.752 153.658 419.782 153.777 418.31 153.611C419.289 152.322 423.418 151.023 425.004 149.867C425.149 149.762 425.29 149.653 425.433 149.546Z" fill="#EAB294"/>
<path d="M423.84 148.778C420.2 149.089 416.485 149.562 412.832 149.547L412.942 150.085C413.939 150.993 414.595 151.01 415.939 150.949C418.039 150.853 422.339 150.297 423.84 148.778Z" fill="#010000"/>
<path d="M394.638 23.983L394.172 24.059L394.126 24.429C397.88 25.975 401.7 27.767 405.564 28.997C416.009 32.324 427.026 34.014 437.711 36.408L438.039 36.093C437.153 35.746 436.332 35.41 435.39 35.255C431.288 34.582 429.406 32.404 425.996 30.267C425.005 30.304 424.261 30.432 423.348 30.015C420.611 28.762 417.9 30.98 415.036 30.675C408.487 29.977 400.625 26.77 394.638 23.983Z" fill="#E29D7D"/>
<path d="M441.369 124.332C436.718 134.271 434.248 142.377 425.433 149.546C425.29 149.653 425.149 149.762 425.004 149.867C423.418 151.023 419.289 152.322 418.31 153.611C419.782 153.777 420.752 153.658 422.201 153.338C423.549 152.728 424.905 152.109 426.152 151.306C435.293 145.42 439.41 134.53 441.369 124.332Z" fill="#010000"/>
<path d="M492.988 504.51C493.449 509.462 516.07 537.856 520.53 542.992C520.528 540.605 496.2 508.26 492.988 504.51Z" fill="#010000"/>
<path d="M304.806 137.748C302.488 141.49 303.81 146.461 300.848 150.205C299.971 151.313 298.88 152.035 297.437 152.186C295.108 152.428 285.835 149.527 283.523 148.401C282.239 147.775 281.074 146.764 279.971 145.861L279.406 145.392L278.833 145.457L278.953 146.25C281.357 148.706 285.649 150.62 288.913 151.695C292.365 152.832 299.873 154.696 303.091 153.083C303.321 151.367 303.111 149.678 303.311 147.968C303.712 144.538 304.569 141.205 304.806 137.748Z" fill="#EAB294"/>
<path d="M414.792 163.483C414.701 160.207 414.715 157.098 413.394 154.034C413.359 154.181 413.322 154.327 413.29 154.474C410.92 165.199 414.054 169.601 405.053 178.728C409.465 175.945 412.78 173.356 413.954 167.954C414.277 166.47 414.504 164.973 414.792 163.483Z" fill="#010000"/>
<path d="M170.033 649.881C169.447 653.755 171.349 658.999 171.719 662.997C172.264 668.894 171.694 675.278 170.983 681.135C170.743 683.111 169.771 685.908 170.255 687.787L171.151 687.124C171.131 685.492 171.614 684.123 172.098 682.589L171.317 681.951L171.982 681.245L172.369 682.874L172.804 682.521C172.961 678.497 173.961 663.899 173.195 660.958C172.431 661.769 172.881 661.562 171.908 661.696C171.769 657.627 170.951 653.826 170.033 649.881Z" fill="#E29D7D"/>
<path d="M514.523 144.822C511.73 147.253 509.471 151.593 507.137 154.578C503.951 158.652 500.437 162.159 496.656 165.677C497.22 165.538 497.747 165.403 498.282 165.172C506.056 161.819 511.347 152.192 514.523 144.822Z" fill="#010000"/>
<path d="M361.294 602.941C357.534 603.06 333.6 603.709 332.154 604.491C338.949 605.495 352.435 605.631 359.014 603.923L361.294 602.941Z" fill="#B47961"/>
<path d="M564.346 102.154L564.005 102.409C564.033 102.61 564.048 102.814 564.089 103.013C564.584 105.399 570.675 119.897 572.14 120.935L571.924 119.687C572.51 119.806 572.11 119.755 573.132 119.634C573.122 118.629 573.262 118.851 572.878 118.137C572.756 117.909 572.61 117.695 572.487 117.469C569.648 112.251 566.462 107.761 564.346 102.154Z" fill="#E29D7D"/>
<path d="M426.393 81.178C422.06 80.568 416.296 80.708 411.979 81.444C412.729 82.183 414.53 81.952 415.598 82.006C421.089 81.965 426.611 82.203 432.1 82.391C430.226 81.862 428.305 81.54 426.393 81.178Z" fill="#010000"/>
<path d="M500.523 177.008C495.684 177.641 490.135 176.39 486.866 176.958C490.3 179.293 495.324 179.015 499.352 178.15C499.49 178.121 499.624 178.079 499.76 178.044L500.523 177.008Z" fill="#7C4737"/>
<path d="M555.922 315.137C556.615 317.379 557.171 319.604 558.46 321.59C558.791 319.446 557.123 316.183 556.227 314.22L555.922 315.137Z" fill="#E29D7D"/>
</svg>
