<svg width="207" height="876" viewBox="0 0 207 876" fill="none" xmlns="http://www.w3.org/2000/svg">
<path d="M189.543 38.7664C193.781 36.1022 200.085 29.0451 195.415 24.3784C182.899 11.87 161.893 6.27146 145.043 2.53816C127.844 -0.632113 105.258 -2.43513 90.1965 7.13816C85.3374 10.2264 82.473 15.9634 80.5261 20.9893C69.6406 28.3451 63.1394 39.1795 60.6354 52.0815C56.0751 74.7616 66.6673 95.1076 74.317 115.69C75.09 118.28 79.0921 122.834 79.4507 125.25C80.5721 133.148 79.6255 148.284 73.3052 153.852C55.5804 169.462 31.6496 181.897 17.668 201.408C-0.299921 226.482 2.66729 259.909 0.387137 289.022C0.245001 290.831 0.113745 293.314 0.904242 294.943C2.08121 295.766 2.43021 295.917 3.76565 296.461C4.22046 313.338 5.20692 330.196 6.72259 347.011C7.42054 355.433 7.73264 365.248 8.63744 373.4C9.59971 382.062 12.6177 394.682 14.7394 403.309C17.1853 413.257 19.9705 423.119 23.0908 432.877C24.2811 436.576 28.8462 448.727 29.0023 451.617C29.6016 462.703 28.1694 472.574 30.2119 484.015C31.2867 489.878 32.6699 495.679 34.3561 501.396C35.8815 506.544 38.5124 514.068 38.9909 519.091C40.9444 539.602 42.197 560.284 43.9679 580.807L47.6446 619.491C48.677 630.209 50.3826 638.101 47.4414 648.516C47.0652 649.847 48.5802 655.49 48.253 657.238C47.4613 663.655 44.032 669.848 42.7038 676.163C34.3954 715.651 39.6223 758.218 42.4939 797.991C42.8574 802.545 43.083 807.112 43.1683 811.684C43.2046 815.15 43.0849 818.676 43.3129 822.123C43.3794 823.115 45.0965 824.331 45.8355 824.869C46.7524 835.23 38.9787 851.493 49.1245 859.834C56.9726 866.287 70.3724 864.043 78.6941 867.001C96.3892 873.297 112.09 876.454 131.016 875.16C135.868 874.833 137.014 873.581 142.519 874.041L142.749 873.902C148.983 870.14 161.074 871.87 164.176 864.418C165.343 860.16 163.009 854.414 159.122 852.376C156.415 850.955 153.165 850.925 150.632 849.685C142.126 845.505 132.964 842.995 124.943 837.927C122.316 836.27 119.837 834.564 117.317 832.81C122.849 833.173 131.174 833.839 136.4 835.556C148.678 839.59 164.165 849.721 177.15 843.086C182.596 844.774 190.16 847.453 195.255 844.29C213.382 833.04 199.365 824.034 186.765 819.637C172.359 814.617 155.244 808.69 145.008 797.556C146.166 796.503 147.589 795.287 148.615 794.138C148.231 787.473 147.159 779.29 147.255 772.8C147.591 750.065 149.612 726.925 151.604 704.262C153.096 687.303 154.868 669.812 158.073 653.101C159.741 645.789 163.16 639.087 165.006 631.805C166.927 624.233 166.46 616.249 167.89 608.653C169.03 602.599 171.202 596.442 172.456 590.375C175.154 577.311 178.05 564.059 179.691 550.82C186.296 547.82 189.564 542.296 192.071 535.653C195.408 526.713 196.885 517.188 196.412 507.657C195.648 493.646 189.03 485.035 187.111 472.221C184.987 458.043 184.886 442.812 182.3 428.51C181.427 423.685 182.495 420.003 180.812 414.925C190.575 405.353 186.373 395.747 186.165 383.552C185.98 362.341 185.542 341.132 184.85 319.93C184.476 307.475 186.3 294.008 185.906 283.488C185.189 264.389 173.838 229.332 164.065 212.186C159.718 204.56 147.948 191.953 142.179 184.794C144.873 177.512 146.082 173.259 152.819 169.059C162.36 171.048 182.95 175.998 185.968 162.259C186.625 159.267 185.793 155.322 186.628 152.285C188.137 147.184 192.308 146.214 190.821 140.323C191.516 139.042 191.808 138.763 192.784 137.652C192.945 133.992 192.641 131.268 195.571 128.678C199.54 125.171 206.292 127.338 206.942 120.881C208.124 109.135 190.721 99.3897 195.762 87.1506C200.38 84.3207 199.685 79.8045 198.88 74.923C198.318 66.7247 192.999 46.1972 189.543 38.7664Z" fill="#1E0E09"/>
<path d="M186.664 38.1541C184.165 38.2575 178.438 37.4803 175.649 37.3775C160.608 36.8205 145.183 33.2363 130.252 34.7768C131.045 35.7892 131.674 36.7884 132.757 37.4386C132.989 38.9428 134.772 42.438 135.428 44.3898C137.609 50.8801 137.313 58.7318 135.693 65.3285C135.537 65.9152 135.504 65.6424 135.56 66.4323C134.886 67.5506 134.014 68.3254 133.313 69.5205C130.608 74.1341 129.707 94.061 126.14 96.5335C122.97 95.8646 120.098 93.8693 116.784 92.8828C113.072 88.4199 112.502 87.6439 109.402 83.0908L108.767 83.438C105.164 71.1166 89.8662 74.0458 84.7803 85.1998C82.4735 90.3589 82.3417 96.2299 84.4144 101.488C86.1393 105.914 89.608 109.341 92.525 113.001C90.8787 116.147 87.1627 120.13 83.6886 121.386C82.0828 122.013 81.3214 121.946 80.7268 123.18C81.8512 132.66 81.9304 145.961 75.6748 153.776C74.8619 154.783 73.9801 155.733 73.036 156.619C88.0179 175.572 113.307 195.698 136.557 202.106C145.021 204.438 145.746 191.818 141.305 189.604L140.655 189.701L139.277 192.205C138.61 191.015 138.938 188.975 139.387 187.749C142.188 180.095 144.359 172.433 151.602 168.079L145.715 165.257L146.278 164.459C154.669 168.781 174.721 173.761 182.405 165.99C186.309 162.04 183.874 155.515 185.325 150.752C186.317 147.499 189.748 146.212 189.437 142.283C185.946 138.307 172.614 143.446 166.939 139.708L166.926 139.115C170.55 139.365 186.335 139.928 189.258 138.951C191.787 137.12 191.49 133.003 192.306 129.879C193.65 124.733 205.019 125.701 205.275 121.275C206.05 107.926 189.042 101.211 194.324 86.6635L194.516 86.1452C194.757 80.6855 197.178 83.392 197.765 78.317C196.418 68.9798 192.162 45.9387 187.226 38.347L186.664 38.1541Z" fill="#F2CFB0"/>
<path d="M108.767 83.438C105.164 71.1166 89.8662 74.0458 84.7803 85.1998C82.4735 90.3589 82.3417 96.2299 84.4144 101.488C86.1393 105.914 89.608 109.341 92.525 113.001C96.0844 117.474 103.52 128.173 110.3 121.329C111.724 119.893 111.738 117.533 111.635 115.618L111.262 115.532C110.913 116.71 110.495 118.231 109.816 119.196C104.951 126.122 98.5634 117.928 95.6881 114.316C90.9681 108.386 86.0164 104.358 84.6774 96.7374C82.8889 86.5571 91.6612 72.3318 103.064 78.435C104.647 79.2993 106.891 82.0439 108.767 83.438Z" fill="#1E0E09"/>
<path d="M132.757 37.4386C132.989 38.9428 134.772 42.438 135.428 44.3898C137.609 50.8801 137.313 58.7318 135.693 65.3285C135.537 65.9152 135.504 65.6424 135.56 66.4323C139.856 60.7622 138.361 42.2529 132.757 37.4386Z" fill="#734E31"/>
<path d="M137.85 159.67C140.569 162.213 142.356 163.565 145.715 165.257L146.278 164.459C143.458 162.738 140.743 161.251 137.85 159.67Z" fill="#734E31"/>
<path d="M190.644 78.4353C185.093 74.0763 171.198 73.7159 164.766 76.6414C163.385 77.4712 162.913 77.7681 161.717 78.8375L156.795 82.9321C169.1 80.3798 170.375 79.9491 182.911 80.4306C184.804 81.913 188.089 82.1954 190.389 81.7497C191.679 80.7493 191.474 81.2023 191.909 79.862C191.629 79.0848 191.304 78.9572 190.644 78.4353Z" fill="url(#paint0_linear_147_25)"/>
<path d="M182.911 80.4306L183.083 80.0006C182.319 79.5076 170.984 79.1296 169.314 78.9839C167.4 78.8169 164.571 80.6459 162.003 80.3592L161.717 78.8375L156.795 82.9321C169.1 80.3798 170.375 79.9491 182.911 80.4306Z" fill="#583D26"/>
<path d="M190.644 78.4353C185.093 74.0763 171.198 73.7159 164.766 76.6414L165.036 76.639C170.015 76.5567 175.945 75.4711 180.982 75.8642C183.612 76.0692 187.878 78.5804 190.644 78.4353Z" fill="#583D26"/>
<path d="M102.985 88.7356L103.145 89.0133L103.386 88.8808C102.615 85.7158 101.493 82.0929 98.102 80.7756C95.0967 79.6083 92.372 82.131 91.4993 84.895L92.2329 84.534C93.4837 85.8011 93.2762 85.2634 93.6972 86.8353L93.3663 87.2865C92.9932 87.7994 92.8432 88.054 92.5444 88.628C94.6455 89.9846 94.0673 89.2249 94.8379 91.6243C99.0661 89.7227 98.4135 87.1601 102.985 88.7356Z" fill="#EAB190"/>
<path d="M102.985 88.7356L103.145 89.0133L103.386 88.8808C102.615 85.7158 101.493 82.0929 98.102 80.7756C95.0967 79.6083 92.372 82.131 91.4993 84.895L92.2329 84.534C98.2363 78.9618 99.9304 83.0691 102.985 88.7356Z" fill="#1E0E09"/>
<path d="M104.354 99.9616C100.926 100.871 99.644 100.806 97.8059 103.753C97.6511 106.654 99.9567 107.236 102.461 107.791C104.187 108.952 103.714 109.047 105.243 108.801C106.768 105.782 103.042 105.441 104.354 99.9616Z" fill="#EAB190"/>
<path d="M104.354 99.9616C100.926 100.871 99.644 100.806 97.8059 103.753C97.6511 106.654 99.9567 107.236 102.461 107.791C100.622 106.661 98.5813 105.865 98.8873 103.505C99.9409 102.264 100.661 102.187 102.215 101.668C102.87 104.038 105.355 105.849 104.201 107.743L102.461 107.791C104.187 108.952 103.714 109.047 105.243 108.801C106.768 105.782 103.042 105.441 104.354 99.9616Z" fill="#1E0E09"/>
<path d="M104.195 96.7776C104.514 94.9456 104.573 94.6813 104.062 92.9062C100.793 90.603 96.617 97.1484 95.2096 99.408C96.6382 98.433 97.5158 97.2844 98.6317 95.9829C100.214 96.976 100.9 97.3504 102.248 98.7185L102.914 98.7191L104.195 96.7776Z" fill="#EAB190"/>
<path d="M104.195 96.7776C104.514 94.9456 104.573 94.6813 104.062 92.9062C100.793 90.603 96.617 97.1484 95.2096 99.408C96.6382 98.433 97.5158 97.2844 98.6317 95.9829C99.7863 94.8882 100.771 93.6126 102.236 93.4795C104.12 95.0067 102.937 94.3983 104.195 96.7776Z" fill="#1E0E09"/>
<path d="M184.719 114.731C181.751 115.802 179.133 119.955 180.486 122.985C184.569 127.241 189.557 124.096 194.02 125.351L194.462 125.479L194.214 124.544C190.146 121.903 185.373 126.958 182.538 123.185C180.289 120.193 182.433 116.659 184.719 114.731Z" fill="#1E0E09"/>
<path d="M180.459 91.1061C179.884 91.7382 179.405 92.9381 178.767 93.4559C175.661 95.9713 169.331 93.9494 165.225 93.6252L165.188 94.0419C170.3 96.1788 178.958 98.9984 180.459 91.1061Z" fill="#1E0E09"/>
<path d="M111.071 122.001C109.72 130.49 112.944 137.824 118.004 144.401C117.971 142.077 113.414 136.239 112.765 133.52C111.847 129.671 112.128 125.768 111.071 122.001Z" fill="#583D26"/>
<path d="M89.9177 88.8582C88.2484 91.4976 88.8828 94.6753 89.2651 97.7036C90.3967 96.3712 89.9582 90.9079 89.9177 88.8582Z" fill="#A97A4E"/>
<path d="M120.879 147.507L120.569 147.908C122.163 150.149 125.606 152.368 127.924 153.84L127.976 153.802L128.033 153.282L120.879 147.507Z" fill="#583D26"/>
<path d="M187.226 38.347C188.957 35.6792 196.473 34.8325 195.028 27.8908C194.421 24.9714 192.394 23.3524 190.062 21.5866C166.747 6.50283 134.545 -0.967033 107.001 2.61343C94.9293 4.18269 85.5522 10.228 82.0388 22.0506C72.1525 27.8527 65.9168 38.1216 63.0342 48.9823C58.1159 67.5139 63.8762 85.9892 71.215 102.983C72.7434 106.523 76.7987 120.42 80.1367 121.631C81.4201 121.494 82.3991 121.416 83.6886 121.386C87.1627 120.13 90.8787 116.147 92.525 113.001C89.608 109.341 86.1393 105.914 84.4144 101.488C82.3417 96.2299 82.4735 90.3589 84.7803 85.1998C89.8662 74.0458 105.164 71.1166 108.767 83.438L109.402 83.0908C112.502 87.6439 113.072 88.4199 116.784 92.8828C120.098 93.8693 122.97 95.8646 126.14 96.5335C129.707 94.061 130.608 74.1341 133.313 69.5205C134.014 68.3254 134.886 67.5506 135.56 66.4323C135.504 65.6424 135.537 65.9152 135.693 65.3285C137.313 58.7318 137.609 50.8801 135.428 44.3898C134.772 42.438 132.989 38.9428 132.757 37.4386C131.674 36.7884 131.045 35.7892 130.252 34.7768C145.183 33.2363 160.608 36.8205 175.649 37.3775C178.438 37.4803 184.165 38.2575 186.664 38.1541L187.226 38.347Z" fill="#A97A4E"/>
<path d="M186.664 38.1541C184.722 35.9011 160.924 35.646 156.391 34.6988C152.831 33.9549 132.273 32.1465 129.742 34.2016L130.252 34.7768C145.183 33.2363 160.608 36.8205 175.649 37.3775C178.438 37.4803 184.165 38.2575 186.664 38.1541Z" fill="#734E31"/>
<path d="M95.6448 22.3723C94.3565 22.2855 93.4953 22.4392 92.2221 22.5964L92.4133 22.9486C99.7201 23.3114 117.536 29.0584 124.316 32.0558C125.517 32.5427 125.493 32.5415 126.78 32.657C125.044 29.3758 99.6928 23.2386 95.6448 22.3723Z" fill="#583D26"/>
<path d="M198.88 74.923C198.847 77.3459 199.02 79.3384 198.372 81.6409C198.143 80.5383 197.94 79.4299 197.765 78.317C197.178 83.392 194.757 80.6855 194.516 86.1452L195.762 87.1506C200.38 84.3207 199.685 79.8045 198.88 74.923Z" fill="#583D26"/>
<path d="M71.7845 157.431C55.7774 170.304 32.2887 184.744 20.0273 200.946C1.23679 225.777 3.62945 263.848 1.87487 293.847C19.6317 301.073 49.9839 304.197 69.5146 302.388C73.2615 301.849 73.3184 298.208 73.8706 295.384C76.8057 280.37 79.3671 267.542 86.8094 254.08C85.4903 259.526 82.1729 267.072 80.3657 273.878C86.0449 268.336 91.1756 263.207 96.3945 257.233C93.6644 263.27 84.6351 271.987 79.7542 276.564C77.6355 284.087 76.1985 293.968 74.02 301.631C73.645 302.951 70.9928 303.808 69.6519 304.313C69.3634 315.421 68.4907 327.823 66.8873 338.765C65.7714 346.381 60.9958 359.395 61.4881 366.724C61.9369 373.398 64.8551 383.859 66.141 391.109C67.5435 398.158 68.8633 407.327 69.6943 414.456C75.2477 414.769 82.2564 415.762 87.8679 416.383C99.7695 417.775 111.693 418.972 123.634 419.974C140.833 421.325 165.502 423.87 180.328 412.877C186.919 407.99 185.48 397.167 185.007 390.091C184.665 384.972 184.582 379.669 184.449 374.458L183.927 344.794C183.494 327.986 182.388 311.108 184.119 294.415C186.234 274.031 179.077 256.389 173.222 237.545C167.108 217.87 158.58 205.244 144.67 190.036C144.177 189.495 142.422 187.475 141.785 187.437C154.403 207.885 134.743 204.862 122.385 198.549C103.583 188.945 84.5341 174.311 71.7845 157.431Z" fill="#F2CFB0"/>
<path d="M44.0501 188.978C41.8794 188.492 34.2424 188.704 32.6045 190.35C33.5088 190.523 35.2573 189.73 36.4367 189.544C44.5213 188.528 55.9892 191.676 62.5376 196.489C77.6199 207.574 83.5756 222.364 86.8174 239.949C87.2383 243.337 87.2613 248.112 87.4639 251.601C88.9953 248.677 87.3333 237.139 86.5646 233.515C82.0266 212.131 66.7024 191.54 44.0501 188.978Z" fill="#716355"/>
<path d="M91.1068 387.001L90.6731 387.142L90.9398 387.634C95.4687 390.393 104.722 394.762 109.808 396.152L110.336 396.061L110.263 395.673C103.262 393.117 97.7785 390.265 91.1068 387.001Z" fill="#716355"/>
<path d="M146.828 300.477C146.668 300.532 142.531 305.765 141.765 306.614C138.529 310.202 135.922 312.457 131.825 315.053C136.511 314.331 145.667 305.023 146.828 300.477Z" fill="#716355"/>
<path d="M127.786 208.916L127.338 208.961C129.931 211.661 137.846 212.784 141.587 212.048L142.253 211.549L142.187 211.167C135.795 211.961 133.826 211.082 127.786 208.916Z" fill="#716355"/>
<path d="M180.448 427.332C179.938 424.084 180.879 418.579 179.262 416.192C176.86 417.017 174.457 417.998 172.091 418.931C156.635 425.024 138.038 422.117 121.968 421.514C104.895 419.42 87.2777 417.922 70.0488 415.931C70.5061 419.582 71.7193 431.428 72.5891 434.302L72.6399 435.157C72.7372 438.96 75.2116 461.642 76.6456 464.085L76.671 464.649C76.4956 467.631 79.6515 483.667 80.8454 486.542C84.7205 495.874 93.1438 502.487 97.2578 512.196C98.4656 515.065 99.414 518.035 100.092 521.073C101.157 525.805 106.625 557.322 103.998 559.544C102.854 560.512 101.552 561.125 100.033 560.916C97.3334 560.543 95.8255 558.741 94.3425 556.655C94.8905 563.575 95.5256 570.509 95.7614 577.463C95.8576 580.293 95.7493 584.406 91.9233 584.684C88.4619 584.932 88.9603 588.392 86.0275 588.991C81.9256 589.874 81.5585 585.852 78.7739 585.386C77.3774 585.767 77.1543 585.906 75.866 586.602C72.6792 586.632 70.2182 583.033 68.3796 580.735L67.2261 579.743C66.6352 578.043 65.275 575.31 63.7829 574.281C60.0137 573.842 59.2571 573.426 56.6261 569.941C46.5994 555.796 44.1451 535.692 43.4217 518.765C43.1441 512.276 44.3133 499.838 42.8514 494.288C39.7136 482.377 34.9482 468.163 30.8772 456.618C29.6972 476.018 32.0899 488.733 37.572 507.358C38.2469 509.651 41.7446 517.631 41.7978 518.751L40.6601 518.295C40.3117 519.735 42.0567 536.045 42.3113 539.157C43.7465 558.206 45.3251 577.245 47.0476 596.273C48.3292 609.966 49.6877 623.762 50.8876 637.467C51.0938 639.826 49.4494 644.96 49.1705 647.622C48.8306 650.857 50.0959 655.817 49.6224 658.732C48.732 664.224 45.9275 670.145 44.5697 675.588C41.8516 686.493 40.7938 697.707 40.2803 708.896C38.53 747.011 44.4408 784.044 44.8981 822.142C49.1397 824.343 57.015 829.902 61.2862 829.375L61.9231 829.357C63.5991 829.944 68.206 829.575 70.1414 829.478C83.3953 828.843 94.7998 825.68 106.302 818.967C104.005 811.945 104.952 805.261 104.693 797.895C103.358 759.779 106.493 720.454 112.931 682.883C115.717 670.393 123.094 660.166 124.551 647.186C127.49 621.004 133.211 595.009 136.903 568.991L141.321 536.556C142.189 530.203 143.718 518.458 145.581 512.648L145.893 512.701C145.893 513.673 145.827 514.847 146.082 515.753C147.547 514.956 153.207 508.413 154.388 506.962C165.719 493.03 167.005 470.23 165.262 453.029C164.737 447.844 164.893 442.056 164.329 436.225C162.273 436.909 155.071 438.261 154.423 438.953C156.212 445.169 154.523 445.826 155.615 450.259C157.3 457.1 154.919 483.18 152.481 487.93C152.073 485.517 153.29 483.542 153.731 481.599C155.239 474.933 157.143 442.169 153.066 438.489C148.271 437.587 142.178 438.507 137.281 438.183C130.179 437.712 130.462 439.957 129.233 445.791C127.121 445.357 124.948 445.085 122.81 444.785C124.474 442.931 123.771 441.719 125.103 439.279C126.484 438.473 128.616 438.888 130.352 439.009L130.725 423.935C130.825 426.046 131.132 436.008 131.586 437.586C133.384 438.013 160.123 437.669 163.494 435.959C167.125 434.117 164.471 425.431 165.263 422.374C166.107 424.881 165.538 430.505 165.796 433.804L166.477 434.099C171.698 432.339 175.684 430.067 180.448 427.332Z" fill="#5A8DB1"/>
<path d="M61.9231 829.357C61.7513 820.152 60.3553 810.784 60.1164 801.584C59.0229 759.447 55.9129 716.099 65.2041 674.663C65.6777 672.553 67.4661 664.521 66.9762 662.99C65.5942 666.202 64.3229 674.706 63.51 678.304C58.0836 702.322 57.8622 725.51 58.0799 749.951C58.236 767.412 58.1108 785.399 59.3682 802.909C59.7105 807.681 60.3034 825.71 61.2862 829.375L61.9231 829.357Z" fill="#3B5766"/>
<path d="M68.3796 580.736L67.2262 579.744C66.9473 601.36 69.9932 623.835 68.3421 645.633C68.1745 647.841 68.0554 652.087 68.7576 654.125C70.2708 637.674 69.4053 619.795 68.9118 603.302C68.7896 599.219 67.906 584.208 68.3796 580.736Z" fill="#3B5766"/>
<path d="M76.671 464.649C82.1107 465.916 94.3487 464.742 99.9662 463.615C102.112 463.185 111.885 459.208 112.358 457.163C109.037 458.335 105.649 460.848 102.474 461.967C94.6868 464.714 84.9219 464.125 76.6456 464.085L76.671 464.649Z" fill="#31404B"/>
<path d="M72.6399 435.158C74.7187 435.719 86.8973 436.879 88.8944 436.239L89.0214 436.402L88.1438 436.437L88.3458 436.076C83.5551 435.24 77.5534 434.833 72.5891 434.304L72.6399 435.158Z" fill="#31404B"/>
<path d="M122.028 444.046C124.198 440.647 125.029 426.071 123.183 422.792C122.067 424.328 122.479 434.018 122.223 436.924L122.18 437.393L121.692 438.122C117.133 438.594 108.514 437.896 103.717 437.675C100.096 437.51 96.5429 436.235 92.6733 436.763C105.371 439.021 110.127 438.202 121.81 439.406C122.552 441.473 121.858 442.324 122.028 444.046Z" fill="#31404B"/>
<path d="M112.8 491.347L111.92 491.372L111.95 491.719C116.642 494.091 134.484 498.455 140.208 499.612L141.288 499.454C139.294 498.145 117.238 492.802 112.8 491.347Z" fill="#31404B"/>
<path d="M77.5165 799.432C80.5013 797.744 93.2423 789.633 95.2092 787.42L94.9491 787.16C94.285 787.45 73.9499 800.871 74.0091 800.792L74.2383 800.865C75.1728 800.653 76.6099 799.873 77.5165 799.432Z" fill="#3B5766"/>
<path d="M108.696 673.491C108.4 673.593 90.7038 688.278 88.4981 690.038C93.2531 688.974 105.299 677.797 108.696 673.491Z" fill="#31404B"/>
<path d="M123.384 503.352L122.387 503.061C121.091 503.413 120.365 503.396 119.143 503.72L119.517 504.284C121.693 504.828 127.627 505.122 128.364 505.418C129.261 506.62 130.252 507.455 131.784 507.49L132.254 506.838C131.022 504.13 126.021 503.732 123.384 503.352Z" fill="#4C7690"/>
<path d="M75.5513 658.49C73.507 658.079 71.5764 658.659 69.514 659.083C73.3782 659.077 77.4504 659.669 81.3291 660.044C82.4928 660.256 86.2566 660.818 87.2273 660.371C83.2053 659.143 79.6955 658.841 75.5513 658.49Z" fill="#31404B"/>
<path d="M52.8152 654.765C53.3613 657.583 63.3329 659.041 65.9796 660.057L66.478 660.25L66.4992 659.706C65.0585 658.43 57.1378 657.045 52.8152 654.765Z" fill="#31404B"/>
<path d="M171.644 424.085C170.219 425.169 170.003 428.392 169.672 430.294C171.459 428.48 171.471 426.516 171.644 424.085Z" fill="#31404B"/>
<path d="M120.601 442.982C118.928 442.792 118.662 447.23 118.566 448.429C119.425 446.848 120.137 445.166 120.869 443.52L120.601 442.982Z" fill="#3B5766"/>
<path d="M125.71 430.456L125.249 430.892C124.624 432.683 124.841 434.727 124.878 436.674C126.132 434.991 125.791 432.52 125.71 430.456Z" fill="#31404B"/>
<path d="M68.1919 304.319C46.2648 305.581 26.1377 302.772 5.17412 296.814L5.42935 301.899C6.02933 317.697 7.20389 333.863 8.5478 349.609C9.27962 358.187 9.28809 367.91 10.6568 376.267C16.2598 410.47 28.2552 442.864 38.7796 475.725C40.5397 481.221 42.6765 486.7 44.1232 492.278C45.5983 500.257 44.6911 511.076 44.9911 519.561C45.5542 535.498 48.8468 560.299 60.4859 571.971C61.075 572.561 61.519 572.718 62.2847 572.883L62.9711 572.391C61.0406 567.806 53.0951 547.332 54.373 543.189C55.1968 545.144 57.033 551.618 57.6911 553.758C60.9813 564.456 62.7111 569.244 68.6667 578.437C71.2233 578.207 72.4486 578.092 74.9133 577.463C70.2132 567.337 69.28 560.675 66.1627 550.121L66.7936 549.408C68.5718 555.438 77.5103 590.31 86.8451 586.995C87.3507 586.427 88.1164 585.804 87.7977 584.903C84.3877 575.328 76.9811 550.999 78.896 541.455C79.9314 549.272 83.893 579.308 90.3107 583.33C92.0738 583.602 91.38 583.711 92.9453 582.973C95.6567 579.629 93.9808 571.291 93.7709 567.128C93.1733 555.284 91.559 542.884 92.7529 530.992C95.8726 535.237 90.9028 551.838 96.1853 557.258C98.0663 559.188 100.852 560.034 103.026 558.188C104.896 553.402 98.7733 517.848 95.2781 511.379C88.9596 499.685 80.7032 494.892 77.8448 480.947C72.1692 453.259 70.1013 425.435 65.5991 397.412C64.7735 392.124 63.778 386.863 62.6137 381.639C62.1087 379.354 59.2466 367.499 59.3731 366.182C60.1315 358.286 63.4514 348.449 64.8799 340.77C66.6527 331.243 67.4299 319.333 67.7389 309.556L68.1919 304.319Z" fill="#F2CFB0"/>
<path d="M68.1919 304.319C46.2648 305.581 26.1377 302.772 5.17412 296.814L5.42935 301.899C11.6928 302.182 21.3422 305.981 27.0329 307.125C36.4463 309.019 58.7918 312.567 67.7389 309.556L68.1919 304.319Z" fill="#EAB190"/>
<path d="M66.7936 549.408C66.1301 546.782 65.5165 543.883 64.3788 541.449C64.8814 544.352 65.3178 547.304 66.1627 550.121L66.7936 549.408Z" fill="#734E31"/>
<path d="M22.6233 365.585C22.1485 368.544 23.9369 379.859 24.4177 383.082C24.9893 379.995 23.6472 368.785 22.6233 365.585Z" fill="#716355"/>
<path d="M180.508 427.96C176.264 431.132 170.074 433.553 165.136 435.461C165.51 446.125 166.156 457.384 166.378 468.032C166.588 478.192 162.681 499.372 155.535 506.768C154.205 508.144 153.924 508.58 152.794 510.223L153.068 510.542C155.603 508.522 160.82 505.837 163.835 504.145C160.442 508.066 155.045 509.576 150.901 512.439C150.295 512.858 147.905 515.82 147.369 516.489C151.252 514.91 156.045 513.356 160.056 511.947C155.406 515.286 151.263 516.985 145.694 518.095C143.467 528.718 142.603 540.138 141.255 550.991C137.219 583.456 129.869 615.312 126.086 647.797C124.569 660.824 116.741 671.106 114.549 683.172C108.959 713.933 106.046 748.293 105.59 779.405C105.276 785.393 105.852 795.856 105.88 802.364C120.361 808.551 135.909 803.7 147.17 793.552C144.034 764.926 147.049 738.537 149.36 709.954C150.839 691.676 152.75 672.558 156.078 654.516C157.563 646.466 161.712 638.803 163.629 630.414C165.346 622.89 164.927 615.197 166.307 608.223C167.782 601.141 170.16 594.204 171.493 587.091C176.765 558.976 182.753 529.352 184.839 500.879C186.592 476.939 183.918 451.588 180.508 427.96Z" fill="#5A8DB1"/>
<path d="M174.41 492.599C171.99 493.16 167.993 498.861 165.94 500.696C164.549 501.94 163.286 502.508 162.246 503.981C167.104 502.223 172.256 497.214 174.41 492.599Z" fill="#4C7690"/>
<path d="M149.004 658.962C147.528 659.513 136.48 670.266 135.231 672.026C139.101 670.321 146.682 662.773 149.004 658.962Z" fill="#3B5766"/>
<path d="M139.609 777.96C137.464 778.619 124.672 786.863 122.641 788.556C126.578 787.843 136.494 780.688 139.609 777.96Z" fill="#3B5766"/>
<path d="M170.017 438.179C168.983 443.026 174.067 451.848 179.527 453.325L179.589 452.657C171.443 449.079 173.577 444.61 170.017 438.179Z" fill="#31404B"/>
<path d="M102.895 822.626C89.1423 829.757 78.4818 830.761 62.9942 831.196C61.787 831.081 57.7667 830.634 56.7507 830.761C56.0255 830.047 49.6283 826.721 47.4685 825.172C46.8389 833.851 42.7963 850.339 48.2548 857.07C53.7617 863.862 69.1004 863.252 77.3072 865.151C84.5717 866.832 91.016 869.269 98.1123 871.38C104.688 872.892 118.403 874.447 124.894 873.546C122.563 871.683 121.789 871.278 120.855 868.386C122.135 870.074 122.736 871.09 124.682 871.901L125.267 871.556C125.333 869.868 124.388 868.816 123.438 867.328C126.142 869.082 126.273 874.156 130.443 875.009C132.675 875.463 135.162 872.729 135.551 870.709C135.44 869.209 135.07 868.81 134.196 867.643L133.914 867.268L134.577 867.044C136.453 868.278 136.103 870.999 137.955 872.227C139.694 873.376 143.858 873.013 144.728 870.903L143.626 869.729C144.406 868.483 144.361 870.497 147.429 869.741C149.968 867.534 149.192 861.637 151.934 861.213C155.286 860.699 155.704 865.701 158.057 867.334C165.313 867.449 163.382 856.447 158.708 853.98C155.272 852.522 151.949 851.833 148.35 850.466C129.689 843.377 117.637 836.815 102.895 822.626Z" fill="#F2CFB0"/>
<path d="M62.9942 831.196C61.787 831.081 57.7667 830.634 56.7507 830.761C57.0863 833.797 62.337 837.372 65.1548 836.664L65.5716 835.884C65.3647 834.021 64.1458 832.769 62.9942 831.196Z" fill="#EAB190"/>
<path d="M123.438 867.328C121.99 867.243 121.931 867.165 120.855 868.386C122.135 870.074 122.736 871.09 124.682 871.901L125.267 871.556C125.333 869.868 124.388 868.816 123.438 867.328Z" fill="#EAB190"/>
<path d="M122.544 862.93C120.964 862.9 119.586 862.731 118.126 863.269C120.955 863.892 123.622 864.067 126.1 865.561C126.926 866.081 128.5 867.267 129.355 867.243C127.17 864.999 125.51 863.868 122.544 862.93Z" fill="#1E0E09"/>
<path d="M141.253 855.207L141.022 855.721C144.403 857.723 146.762 859.701 150.517 860.777C150.761 860.493 150.635 860.692 150.68 860.082C147.341 858.63 144.09 855.969 141.253 855.207Z" fill="#583D26"/>
<path d="M133.776 859.448L133.821 859.895C137.492 861.431 139.754 861.111 143.137 862.363C143.188 862.054 143.028 861.873 142.869 861.48C141.018 860.53 136.063 859.853 133.776 859.448Z" fill="#583D26"/>
<path d="M143.739 798.56C131.819 806.641 119.696 808.782 105.995 804.228C106.159 809.568 106.782 813.554 107.429 818.87C107.552 819.886 105.922 820.969 105.047 821.725L105.039 822.312C106.983 824.809 112.593 829.164 115.225 831.275C120.955 831.626 131.48 832.146 136.625 833.93C146.07 837.214 153.455 841.581 163.655 843.432C170.884 844.75 170.621 842.694 177.235 842.065C178.97 841.902 185.391 843.795 188.263 844.236C192.601 844.055 204.047 840.402 199.101 833.658C196.903 830.658 190.097 830.973 186.446 830.979C184.957 830.114 184.383 829.884 183.216 828.578C184.177 828.311 188.631 830.108 192.923 829.805L193.222 829.781C192.108 829.207 190.352 828.493 189.746 827.507C193.343 828.203 200.426 831.426 201.985 835.055C205.148 826.334 182.034 819.947 176.479 817.836C172.395 816.251 168.369 814.515 164.406 812.647C156.948 809.127 149.233 804.832 143.739 798.56Z" fill="#F2CFB0"/>
<path d="M166.043 835.044C165.751 835.292 165.491 835.57 165.266 835.878C164.353 837.155 164.77 839.259 164.959 840.765C166.023 839.453 165.894 836.967 166.043 835.044Z" fill="#A97A4E"/>
<path d="M187.185 479.528C186.912 479.946 186.853 492.483 186.758 494.417C186.091 509.872 184.291 525.257 181.373 540.448C189.539 527.607 185.858 517.683 189.601 510.596C190.05 512.623 188.516 521.295 188.119 524.11C187.191 538.61 181.53 537.608 179.882 549.597C194.076 540.216 197.167 513.275 193.405 497.824C192.047 492.248 189.1 485.142 187.185 479.528Z" fill="#F2CFB0"/>
<path d="M68.6667 578.437C69.4899 579.574 70.3355 580.687 71.2034 581.787C72.6955 583.638 74.3303 584.793 76.7411 585.047C79.4477 583.547 76.0908 579.363 74.9133 577.463C72.4486 578.092 71.2233 578.207 68.6667 578.437Z" fill="url(#paint1_linear_147_25)"/>
<path d="M151.898 861.843C151.722 861.861 150.905 862.103 150.903 862.23C150.848 865.211 149.994 867.225 148.665 869.808L148.913 870.219L151.744 870.129C157.76 867.685 155.822 864.824 151.898 861.843Z" fill="#F2CFB0"/>
<path d="M130.076 439.056C128.371 438.98 127.451 438.778 125.915 439.499C124.664 440.744 124.595 442.717 124.263 444.577C125.951 444.744 126.863 445.014 128.376 444.295C129.536 443.016 129.712 440.862 130.076 439.056Z" fill="#5A8DB1"/>
<defs>
<linearGradient id="paint0_linear_147_25" x1="88.9189" y1="712.035" x2="185.125" y2="87.1162" gradientUnits="userSpaceOnUse">
<stop stop-color="#6B4B2A"/>
<stop offset="1" stop-color="#976236"/>
</linearGradient>
<linearGradient id="paint1_linear_147_25" x1="68.4318" y1="68.1647" x2="417.756" y2="395.713" gradientUnits="userSpaceOnUse">
<stop stop-color="#E7B395"/>
<stop offset="1" stop-color="#FFD3AC"/>
</linearGradient>
</defs>
</svg>
