<svg width="522" height="886" viewBox="0 0 522 886" fill="none" xmlns="http://www.w3.org/2000/svg">
<path d="M152.166 0.999839C141.281 -1.22216 122.769 2.29943 112.775 7.18919C104.344 9.66814 103.816 16.574 99.4714 21.1573C91.693 29.3643 85.6128 32.4976 81.995 44.8638C74.7497 69.6311 85.3466 97.8801 95.8444 120.319C100.807 130.928 94.0592 150.408 85.497 157.651C81.9772 160.442 71.4659 165.762 67.0982 168.325C43.0807 181.835 23.9172 196.523 15.2711 223.707C7.83407 247.088 2.96846 269.478 3.75539 294.048C4.16762 306.911 1.77919 322.52 2.15566 335.722C2.24563 346.436 -0.267863 357.304 0.185018 367.966C2.01888 411.172 16.6952 450.171 27.4628 491.354C29.3934 498.737 25.576 509.492 25.2691 517.195C24.6813 531.942 30.1366 548.243 35.004 562.074C38.8905 572.541 50.8721 579.815 61.0827 583.389C62.4131 586.164 63.0157 593.836 63.6646 597.269C65.6735 607.886 66.8652 623.926 69.7337 633.791C66.0229 642.622 64.8354 643.638 69.0355 652.524C63.4656 665.163 59.2667 676.791 57.1457 690.643C54.6359 711.323 55.2447 733.155 55.5842 754.07C55.9805 778.453 54.8232 802.344 54.5872 826.61C56.4888 827.657 59.1712 828.779 61.2096 829.691C53.0584 869.19 56.5807 866.411 93.1171 873.048C102.092 874.674 113.177 880.793 122.849 882.198C132.248 883.56 140.69 882.087 149.741 885.353C152.402 886.388 156.002 884.429 158.32 882.784C165.639 882.636 180.011 880.171 185.83 875.167C191.346 870.835 186.715 864.02 181.469 862.449C163.602 857.075 148.66 845.928 134.054 834.719C130.829 832.242 125.98 829.106 123.18 826.068L122.852 825.704C122.502 820.91 121.308 814.569 120.773 809.498C119.683 798.603 119.223 787.653 119.397 776.709C120.169 742.189 125.904 705.987 132.239 672.052C133.666 664.405 138.834 656.018 139.996 647.434C141.135 639.023 141.921 630.889 142.622 622.428C149.336 592.086 152.316 563.31 154.625 532.318C169.784 536.267 187.289 542.05 202.395 546.65C215.797 550.712 229.265 554.555 242.793 558.177C259.427 562.639 269.578 563.476 283.656 574.381C285.807 574.437 288.314 574.343 290.495 574.317C298.843 580.429 306.979 588.944 315.379 595.623C327.115 604.953 340.774 612.809 353.678 620.401C363.153 625.978 426.74 660.972 435.491 658.058C437.964 657.238 439.682 652.635 440.794 650.441C452.133 656.949 466.065 670.813 478.853 671.682C483.415 671.966 487.894 670.37 491.246 667.264C501.18 658.23 501.795 634.093 505.63 621.393C510.118 606.536 521.297 593.047 521.644 577.604C521.886 566.841 522.218 550.576 514.425 542.248C514.672 537.228 514.107 532.028 507.758 531.261C495.884 529.827 497.245 543.225 494.678 550.806C489.087 567.313 475.55 586.787 461.582 597.065L459.05 593.171C455.411 591.439 448.921 589.159 444.984 587.6C438.041 584.877 431.228 581.828 424.57 578.467C409.391 570.847 395.984 561.716 381.47 552.985C368.962 545.461 356.32 538.159 343.83 530.608C337.343 527.504 330.391 517.141 324.687 514.33C308.971 506.586 295.778 495.679 281.074 486.55C255.827 470.875 228.664 459.504 201.224 448.418C198.895 444.59 198.415 445.044 193.974 444.239C192.843 441.31 190.651 440.667 190.429 440.05C186.521 429.077 182.747 421.033 186.714 409.409C190.014 399.738 188.748 385.556 190.07 374.972L197.587 317.435C200.927 290.99 205.486 274.876 197.124 247.966C189.52 223.495 181.431 199.888 157.727 186.542C157.843 186.221 157.962 185.9 158.085 185.58C160.535 179.168 164.643 175.218 170.864 172.461C181.96 174.804 205.24 179.127 206.582 162.644C207.413 152.447 206.252 153.625 211.446 144.806C211.022 142.875 210.589 141.656 211.172 139.755C212.862 134.248 212.827 134.527 211.492 129.16C240.506 124.715 219.651 110.645 215.746 96.1769C214.835 92.8031 218.539 90.8861 220.649 88.184L220.945 87.8013C221.813 70.5986 218.89 56.215 211.483 40.7758C212.296 40.2317 213.092 39.6623 213.87 39.0689C218.473 35.4967 221.064 28.4696 216.441 24.4107C200.807 10.6835 172.009 2.98262 152.166 0.999839Z" fill="#1B0E09"/>
<path d="M76.127 414.66L58.7745 409.658C60.2583 435.995 61.6812 462.255 66.0199 488.355C68.1237 501.011 76.644 505.44 81.0727 515.589C84.7256 523.959 83.8309 543.761 85.0756 553.474C85.3431 555.561 85.9932 561.794 85.7738 563.423C83.0008 566.411 79.327 564.565 76.4166 562.687C76.832 567.431 83.6546 595.476 69.7159 584.71C70.1682 585.062 63.6247 583.503 63.5711 583.49C63.3628 586.041 64.7117 593.159 65.1708 596.104C66.4697 604.571 67.8273 613.031 69.2421 621.486C69.8928 625.343 71.1061 630.969 71.5245 634.593C69.8275 638.469 68.7984 640.847 67.59 644.896C68.5858 647.089 69.9618 649.887 70.8258 652.068L70.7031 652.543C69.6716 656.425 67.0256 662.205 65.5399 666.198C62.7084 673.975 60.5547 681.979 59.1036 690.126C56.0145 707.953 57.2814 731.929 57.3659 750.539C57.5778 775.514 57.2223 800.495 56.2986 825.458C75.5157 835.065 99.7679 831.509 119.478 824.934L121.071 824.398C119.517 818.76 119.174 812.185 118.662 806.337C116.774 784.788 117.806 764.73 119.805 743.218C121.313 728.201 123.236 713.234 125.571 698.327C126.856 689.99 128.234 681.326 129.915 673.057C130.839 668.515 133.498 662.686 135.084 658.218C136.733 653.43 137.95 648.501 138.721 643.497C139.35 639.418 139.846 634.685 140.018 630.563C140.487 619.261 143.34 608.256 145.379 597.158C147.066 587.631 148.45 578.052 149.529 568.435C151.381 552.204 151.22 527.424 157.056 511.679C157.968 509.218 162.708 505.147 164.461 502.905C169.66 497.202 174.347 490.592 174.967 482.666C175.28 478.67 174.822 474.579 174.941 470.591C175.279 459.218 172.457 448.121 173.041 436.803C173.316 436.661 173.591 436.519 173.867 436.377C174.697 438.436 174.322 438.276 173.76 440.711C173.168 443.279 174.14 447.578 174.464 450.387C175.737 461.409 177.502 475.117 175.102 485.952C174.2 490.022 171.767 494.507 169.802 498.137C181.298 486.932 182.12 471.712 190.223 461.993C184.86 472.201 182.148 481.573 176.03 491.259C171.682 498.144 166.668 502.091 162.21 508.624C174.891 499.284 188.292 490.855 201.169 481.787C203.308 480.28 206.75 476.994 208.63 476.1L208.891 476.597L208.601 476.795C205.917 478.646 203.374 480.837 200.776 482.821C188.93 491.873 175.906 499.41 163.946 508.363C161.887 509.904 160.072 511.249 157.714 512.303C156.229 518.097 155.59 524.152 154.766 530.096C178.545 537.849 206.305 546.16 230.397 552.916C237.802 554.999 245.221 557.031 252.654 559.016C259.767 560.888 266.99 562.583 273.776 565.501C277.105 566.932 281.124 570.347 284.115 572.634L291.696 573.086L292.141 573.389C295.553 575.741 299.29 579.331 302.373 582.148C325.706 603.468 354.159 619.36 382.097 633.915C396.897 641.63 417.409 652.315 433.637 656.579C435.278 648.913 450.406 599.179 453.988 596.973C454.676 596.548 455.108 596.308 455.913 596.351C454.843 597.817 453.421 599.044 452.086 600.282C454.631 599.789 456.96 599.672 458.585 597.676C458.629 596.591 458.671 596.388 457.96 595.55C456.208 593.491 433.635 585.105 428.608 582.75C420.126 578.774 412.041 574.198 404.061 569.31C394.744 563.514 385.385 557.786 375.986 552.125C364.129 545.104 352.085 538.092 340.539 530.558C332.967 525.617 328.89 518.762 320.564 514.527C307.434 507.847 296.038 498.281 283.611 490.463C262.074 477.184 239.423 465.8 215.914 456.442C211.516 454.675 204.463 451.622 200.081 450.264L197.924 446.891C189.888 446.013 195.087 446.3 190.716 442.859C189.098 442.669 187.587 442.74 186.517 441.662C185.519 439.045 187.039 436.41 186.649 433.989C186.341 432.078 184.322 428.404 183.378 426.464L183.392 425.063C183.634 422.298 183.232 416.182 183.102 413.13C180.127 414.226 178.024 415.037 174.899 415.731L173.959 416.027C163.648 418.184 147.473 420.909 137.101 420.782L136.089 420.734C134.247 420.771 133.711 420.758 131.883 421.225C130.265 423.81 128.506 430.903 127.635 434.025C127.194 435.612 127.284 437.542 126.527 438.96C125.626 435.292 129.488 424.634 130.72 420.977C112.3 421.11 98.7025 419.449 80.6395 415.643L80.0289 415.683L78.4181 414.757C77.8844 414.812 76.7167 414.697 76.127 414.66Z" fill="#5A90B0"/>
<path d="M137.101 420.782L136.089 420.734C135.773 425.397 133.236 432.071 132.904 436.951C132.872 437.426 133.837 438.865 134.106 439.844C130.05 442.534 127.167 439.782 125.313 440.819C127.379 442.72 131.439 442.236 133.801 441.199C134.759 439.43 134.163 439.388 134.159 436.995C134.969 436.522 136.358 436.201 137.285 436.246C147.511 436.741 156.988 435.93 167.171 435.085L167.41 434.767C166.652 434.536 136.971 435.326 133.793 435.363C135.187 430.574 136.292 425.704 137.101 420.782Z" fill="#455054"/>
<path d="M78.4181 414.757C75.7468 417.089 76.089 423.209 74.8917 427.346C75.6706 428.485 75.2207 428.136 76.7736 428.51L77.8427 428.119C78.6111 426.376 78.8316 419.727 80.0289 415.683L78.4181 414.757Z" fill="#5A90B0"/>
<path d="M78.4181 414.757C77.8844 414.812 76.7167 414.697 76.127 414.66C75.6026 417.873 74.2102 425.331 74.2207 428.238C75.7883 428.908 76.3756 428.904 78.0345 429.11C78.8854 427.113 80.4183 418.039 80.6395 415.643L80.0289 415.683C78.8316 419.727 78.6111 426.376 77.8427 428.119L76.7736 428.51C75.2207 428.136 75.6706 428.485 74.8917 427.346C76.089 423.209 75.7468 417.089 78.4181 414.757Z" fill="#4D6067"/>
<path d="M174.899 415.731L173.959 416.027C173.708 421.236 174.016 424.308 174.832 429.505C175.128 427.983 174.912 417.827 174.899 415.731Z" fill="#455054"/>
<path d="M183.392 425.063C181.116 426.069 180.103 426.428 178.2 428.001L178.133 428.658C180.282 427.811 182.044 426.09 183.378 426.464L183.392 425.063Z" fill="#4D6067"/>
<path d="M69.9696 806.94C69.6769 795.393 69.025 783.746 69.0132 772.211C68.9652 759.184 70.3067 746.04 70.7768 733.063C71.7061 707.416 75.8021 682.244 81.9303 657.368C81.9968 657.195 82.0628 657.023 82.1293 656.85C80.0607 658.329 78.1153 670.61 77.528 673.475C70.9383 706.923 67.7186 740.95 67.9176 775.045C67.8825 784.942 69.1827 795.806 68.9584 805.492L69.9696 806.94Z" fill="#33383C"/>
<path d="M297.767 549.448L297.537 549.935C302.519 553.45 310.036 558.055 314.438 561.833C333.003 577.768 352.249 588.741 373.64 600.27C393.417 610.93 409.84 619.705 431.266 626.958L431.613 626.792C431.29 626.342 403.097 614.683 399.054 612.656C379.649 602.895 355.851 590.651 338.074 578.571C324.348 569.243 312.124 557.886 297.767 549.448Z" fill="#4D6067"/>
<path d="M187.855 510.497L187.773 510.569C190.578 511.416 193.041 512.561 196.02 513.48C211.811 518.23 227.56 523.115 243.266 528.135C257.156 532.624 271.594 536.719 284.679 543.018L285.032 542.579C277.359 538.143 266.176 534.755 257.633 531.904C244.302 527.474 230.924 523.182 217.504 519.029C210.265 516.794 194.793 511.664 187.855 510.497Z" fill="#455054"/>
<path d="M75.8807 432.36C73.6235 435.009 74.4553 446.666 74.1177 450.633C74.0172 454.134 72.465 457.55 72.1889 461.02C71.3564 471.493 72.4212 484.379 74.7499 494.502C75.485 492.979 72.1563 469.201 72.8871 464.111C74.3358 454.026 75.6748 442.454 75.8807 432.36Z" fill="#455054"/>
<path d="M80.9001 586.664C80.3393 588.229 81.2168 593.8 81.4817 595.722C83.429 609.815 82.7191 624.179 83.5356 638.29C85.505 632.516 83.0543 592.863 80.9001 586.664Z" fill="#455054"/>
<path d="M164.365 443.863C163.98 444.872 164.026 447.891 164.146 449.185C165.129 459.789 163.636 472.481 167.22 482.513C168.494 486.08 171.198 486.355 174.194 484.825L173.852 484.114C173.382 484.332 172.88 484.56 172.367 484.653C171.222 484.858 169.882 484.545 168.938 483.875C164.992 481.076 165.564 449.99 164.365 443.863Z" fill="#33383C"/>
<path d="M84.4281 429.963L83.7755 429.911C88.7114 432.599 115.639 435.398 122.707 436.383C123.572 436.299 123.267 436.398 123.986 435.896C123.996 435.903 86.6933 430.23 84.4281 429.963Z" fill="#455054"/>
<path d="M108.652 787.69C108.287 787.9 108.088 788.029 107.792 788.349C100.611 796.114 91.4026 801.715 82.8021 807.742C80.7286 809.196 79.686 809.923 78.2348 811.944C79.3187 811.5 83.663 808.364 84.8239 807.538C91.6466 802.695 104.726 795.048 108.652 787.69Z" fill="#455054"/>
<path d="M154.889 468.923C153.416 469.04 143.714 472.751 141.264 473.558C136.988 474.966 124.53 477.347 121.572 478.984C132.303 477.749 145.331 474.17 154.889 468.923Z" fill="#33383C"/>
<path d="M191.304 445.254C189.387 445.856 188.287 447.683 186.954 449.107C181.478 454.955 178.265 461.877 176.5 469.627C178.469 467.537 180.366 459.694 182.05 457.127C184.947 452.712 188.572 449.857 191.304 445.254Z" fill="#1B0E09"/>
<path d="M153.729 505.815C152.725 506.055 149.249 507.853 148.116 508.425C140.968 512.037 132.597 514.655 125.659 518.516C132.007 517.147 148.986 510.036 153.729 505.815Z" fill="#455054"/>
<path d="M123.734 674.117C121.98 674.591 107.849 688.092 105.349 690.391C109.429 689.294 120.55 677.401 123.734 674.117Z" fill="#455054"/>
<path d="M117.261 449.13C116.814 449.225 112.01 451.249 111.101 451.588C105.317 453.751 100.914 454.4 94.8324 454.953C101.591 455.874 112.18 453.992 117.261 449.13Z" fill="#33383C"/>
<path d="M80.6039 647.829L80.3204 648.045C81.3612 650.053 92.644 655.433 95.3066 656.555L95.563 656.228C93.6355 654.848 83.6227 649.567 80.6039 647.829Z" fill="#455054"/>
<path d="M167.81 417.99C167.136 419.74 166.605 428.776 166.711 430.947C167.856 428.415 168.876 420.538 167.81 417.99Z" fill="#455054"/>
<path d="M124.602 438.156L124.325 438.092C121.792 439.209 118.894 443.436 117.799 445.991C118.527 445.525 124.123 439.106 124.602 438.156Z" fill="#4D6067"/>
<path d="M321.215 529.902C317.789 530.498 314.318 533.127 311.415 535.088C314.367 534.565 318.625 531.647 321.215 529.902Z" fill="#455054"/>
<path d="M69.9181 816.369C69.1873 818.692 69.3524 822.248 69.7961 824.639C71.0907 822.913 70.3445 818.415 69.9181 816.369Z" fill="#5A8091"/>
<path d="M69.9696 806.94L68.9584 805.492C69.0779 807.421 69.084 809.978 69.8382 811.667L69.7391 811.648L70.6695 810.866C70.5364 809.719 70.4299 807.926 69.9696 806.94Z" fill="#4D6067"/>
<path d="M83.5675 641.766L83.1854 642.141C82.4189 644.237 82.735 645.888 83.5878 647.885L83.8029 647.669C84.1671 646.443 83.7111 643.232 83.5675 641.766Z" fill="#4D6067"/>
<path d="M86.2908 159.697C67.2295 168.968 36.9933 187.137 26.1221 205.006C12.3319 227.672 7.36892 261.129 4.60337 287.106C21.8098 293.993 56.2911 302.451 74.2204 303.735C79.0663 288.993 83.723 274.628 91.7997 261.297C90.4576 265.961 87.3272 273.253 85.4231 277.807C87.9441 276.08 104.428 266.127 106.202 265.785C104.826 267.343 87.8282 277.479 85.1039 279.119C81.6642 286.358 78.7822 296.947 75.83 304.654C75.5638 304.8 73.4557 306.203 73.4243 306.348C69.6155 323.711 66.8962 341.84 57.3208 357.139C57.8052 366.694 60.4629 376.273 60.4444 385.903C60.4376 389.418 57.5032 390.992 57.4934 394.191C57.921 398.533 58.2291 402.885 58.4171 407.244C62.3029 408.652 66.2356 409.925 70.2089 411.063C82.2755 414.482 94.6133 416.861 107.086 418.172C124.379 419.867 168.119 419.126 183.475 410.671C189.047 401.991 186.373 386.514 187.884 375.62L195.666 316.486C196.904 307.464 199.771 294.897 200.061 285.823C200.877 260.296 190.214 221.745 173.236 202.043C171.211 199.693 160.281 189.003 157.612 188.877C156.703 191.222 160.829 198.17 161.774 200.893C163.705 206.464 160.722 207 155.873 208.513C141.35 205.46 101.43 169.349 86.2908 159.697Z" fill="#F3CFB2"/>
<path d="M51.9995 184.908C50.1077 184.641 48.3638 184.779 46.5084 185.144L46.3556 185.523C61.0738 186.414 79.0936 192.216 87.1099 205.689C94.3874 217.922 98.0532 233.712 94.6943 247.746C94.1163 249.448 93.9955 250.22 93.717 251.942L93.9961 251.982C101.494 236.931 94.6856 214.268 84.9477 201.295C78.5582 192.784 62.6365 186.047 51.9995 184.908Z" fill="#986C42"/>
<path d="M89.2082 396.03L88.7842 396.138C92.5647 399.244 110.283 402.147 115.584 402.726L116.058 402.694L115.942 402.471C106.819 399.909 99.2025 399.137 89.2082 396.03Z" fill="#986C42"/>
<path d="M99.6918 285.06L99.0676 285.173C99.8108 286.402 115.508 291.442 118.256 292.443C118.619 292.458 118.85 292.333 119.231 292.216C117.787 291.02 102.663 286.072 99.6918 285.06Z" fill="#BF834A"/>
<path d="M159.86 384.819C157.055 385.358 145.792 389.68 143.008 390.865C147.748 390.546 155.864 387.407 159.86 384.819Z" fill="#BF834A"/>
<path d="M147.216 214.835L146.811 215.117C150.851 218.325 156.142 218.129 160.853 217.126L161.145 216.665C160.589 216.005 159.951 216.418 158.612 216.75C154.516 217.766 151.095 216.219 147.216 214.835Z" fill="#BF834A"/>
<path d="M170.885 300.623C169.711 301.063 163.168 307.022 161.654 308.314C164.951 307.704 168.903 303.13 170.885 300.623Z" fill="#BF834A"/>
<path d="M210.146 39.293C213.138 37.5917 215.85 36.0628 216.742 32.4426C217.296 30.1928 216.738 27.9159 215.455 26.0187C209.248 16.8406 173.692 6.4443 162.432 4.4604C144.497 1.30084 123.513 1.34059 108.002 12.2904C104.651 14.6554 104.163 18.7039 101.701 21.6484C99.7363 23.9987 96.8568 25.8811 94.6267 28.0187C87.7048 34.6955 83.1806 43.4703 81.7572 52.9803C78.9836 71.0076 86.0645 91.5699 92.1871 108.272C94.4911 114.558 99.6716 121.003 99.5804 127.689C98.4078 140.231 96.293 149.724 86.8927 158.953C97.0552 164.964 99.9255 168.946 107.562 174.647C118.065 182.491 144.64 204.13 155.652 207.256C157.728 206.368 160.023 205.445 161.998 204.39C160.867 201.48 159.202 197.156 157.585 194.536C151.906 185.329 161.267 174.024 169.839 170.699L170.368 170.498C168.71 169.686 166.795 168.915 165.49 167.674C168.579 168.595 172.364 170.588 175.185 171.229C183.332 173.076 202.102 175.72 204.334 164.209C205.983 155.711 203.427 152.225 209.537 145.038L208.966 139.578L209.305 139.093C212.61 135.325 209.475 133.015 210.369 128.928C212.025 125.475 219.65 126.817 222.005 124.468C229.51 116.979 217.613 107.264 214.91 100.236C213.82 97.4017 213.606 95.6683 214.279 92.3624L214.391 91.8275C213.744 90.9833 213.75 91.0584 213.587 90.0146C214.512 88.1937 217.659 85.47 219.303 83.7545C218.29 63.7289 217.496 59.9182 209.695 41.1028C203.544 40.2562 197.421 39.7157 191.258 38.7064C192.541 36.9237 193.24 37.3267 195.177 37.5522C196.012 37.6521 196.994 37.811 197.817 37.8067C201.794 38.1684 206.242 38.5141 210.146 39.293Z" fill="#F3CFB2"/>
<path d="M210.146 39.293C213.138 37.5917 215.85 36.0628 216.742 32.4426C217.296 30.1928 216.738 27.9159 215.455 26.0187C209.248 16.8406 173.692 6.4443 162.432 4.4604C144.497 1.30084 123.513 1.34059 108.002 12.2904C104.651 14.6554 104.163 18.7039 101.701 21.6484C99.7363 23.9987 96.8568 25.8811 94.6267 28.0187C87.7048 34.6955 83.1806 43.4703 81.7572 52.9803C78.9836 71.0076 86.0645 91.5699 92.1871 108.272C94.4911 114.558 99.6716 121.003 99.5804 127.689C99.6137 127.393 99.6501 127.098 99.689 126.803C100.452 121.061 108.578 122.493 112.221 119.627C114.066 118.175 113.002 115.712 113.141 112.96L113.163 112.597C112.061 108.926 104.93 104.261 104.609 96.82C104.385 91.621 104.132 85.6463 107.783 81.1381C109.463 79.0491 111.931 77.7458 114.604 77.5369C117.486 77.3391 121.385 78.2104 123.578 80.2556L123.45 80.9396C128.457 84.5845 134.536 93.9115 138.728 93.6502L139.127 93.4506C140.864 93.111 143.583 92.0006 145.338 91.3462L146.653 91.565C148.673 88.9097 147.231 84.0435 147.961 80.3961L147.875 80.0695C151.79 75.6168 155.987 67.7835 157.561 62.0528C159.184 56.147 157.288 50.3269 157.481 44.7034C156.552 41.0924 154.11 38.8327 153.847 33.4809C157.858 34.2561 172.494 36.875 176.121 36.9422C177.685 37.4105 189.127 38.6842 191.258 38.7064C192.541 36.9237 193.24 37.3267 195.177 37.5522C196.012 37.6521 196.994 37.811 197.817 37.8067C201.794 38.1684 206.242 38.5141 210.146 39.293Z" fill="#BF834A"/>
<path d="M176.121 36.9422C174.89 35.8737 169.579 34.7678 168.14 34.8257C160.439 35.1362 127.065 25.3395 122.404 26.3382C122.813 26.6768 151.144 33.0101 153.847 33.4809C157.858 34.2561 172.494 36.875 176.121 36.9422Z" fill="#5A3D27"/>
<path d="M197.817 37.8067C201.355 31.4388 200.114 34.0201 204.638 29.6826L203.935 29.64C200.016 31.4653 199.418 33.5776 197.205 37.3642L195.177 37.5522C196.012 37.6521 196.994 37.811 197.817 37.8067Z" fill="#2C1B11"/>
<path d="M145.338 91.3462L145.39 90.3819C143.551 90.0097 140.199 92.1603 138.621 93.1321L139.127 93.4506C140.864 93.111 143.583 92.0006 145.338 91.3462Z" fill="#2C1B11"/>
<path d="M118.913 11.7627C114.743 12.8898 112.597 18.1575 111.23 21.805C112.124 21.1684 116.655 14.1759 118.913 11.7627Z" fill="#986C42"/>
<path d="M184.551 22.9875C183.969 23.0437 183.39 23.1344 182.818 23.2593C179.714 23.9112 177.851 25.6877 176.222 28.2371C177.511 27.5731 182.746 24.0741 184.551 22.9875Z" fill="#5A3D27"/>
<path d="M123.45 80.9396L123.578 80.2556C121.385 78.2104 117.486 77.3391 114.604 77.5369C111.931 77.7458 109.463 79.0491 107.783 81.1381C104.132 85.6463 104.385 91.621 104.609 96.82C104.93 104.261 112.061 108.926 113.163 112.597L114.868 115.37L115.244 114.904C113.578 109.876 107.968 104.924 106.21 99.3033C104.607 94.1783 105.586 87.5608 107.767 82.6791C108.557 80.9119 111.262 79.5365 113.122 79.0811C117.293 78.06 119.888 78.9863 123.45 80.9396Z" fill="#2C1B11"/>
<path d="M157.481 44.7034C157.288 50.3269 159.184 56.147 157.561 62.0528C155.987 67.7835 151.79 75.6168 147.875 80.0695L147.961 80.3961C151.263 79.2648 155.729 69.6154 157.111 66.326C159.732 60.0881 160.132 50.969 157.481 44.7034Z" fill="#2C1B11"/>
<path d="M209.305 139.093C202.784 138.558 193.951 139.091 186.99 138.909L186.575 139.365C190.15 141.754 203.191 139.138 208.966 139.578L209.305 139.093Z" fill="#5A3D27"/>
<path d="M115.244 114.904L114.868 115.37C116.84 119.204 123.139 129.627 129.014 123.285C129.646 122.605 130.224 121.196 130.104 120.263L130.299 120.159C129.472 121.087 128.235 122.509 127.242 123.186C126.143 123.948 124.764 124.184 123.473 123.832C119.58 122.751 116.974 118.169 115.244 114.904Z" fill="#5A3D27"/>
<path d="M125.753 91.9807C125.356 91.2647 124.931 90.5641 124.481 89.8807C119.297 82.1454 110.747 80.5396 109.75 92.0177L110.043 92.2303L110.86 90.2486C114.726 89.9405 117.954 89.3655 121.585 90.7871L122.563 91.8439C118.25 93.4141 116.598 94.9231 118.106 99.8165L119.545 101.852C119.334 103.474 118.814 105.68 119.39 107.074C119.939 107.461 120.262 107.779 120.884 107.958C122.792 109.625 124.898 111.396 127.461 110.368L127.925 109.24C127.593 103.002 120.48 104.552 124.243 98.064C125.128 96.5382 125.564 93.7943 125.753 91.9807Z" fill="#2C1B11"/>
<path d="M122.563 91.8439C123.399 92.1946 123.947 92.3835 124.795 92.6601C124.867 90.7382 115.46 77.8621 110.86 90.2486C114.726 89.9405 117.954 89.3655 121.585 90.7871L122.563 91.8439Z" fill="#BF834A"/>
<path d="M121.42 103.289C122.185 99.2782 122.444 99.3694 124.633 95.9038C124.779 94.2265 124.809 93.3336 123.263 92.6059C119.347 93.6429 118.546 96.2837 118.106 99.8165L119.545 101.852L121.42 103.289Z" fill="#BF834A"/>
<path d="M119.545 101.852C119.334 103.474 118.814 105.68 119.39 107.074C119.939 107.461 120.262 107.779 120.884 107.958C122.99 108.86 124.373 109.89 126.553 108.861L126.739 107.991C125.374 105.228 124.04 104.6 121.42 103.289L119.545 101.852Z" fill="#F0B590"/>
<path d="M206.794 86.4498C195.549 80.8651 189.821 78.8685 177.215 83.0834C175.606 83.6103 174.024 84.2185 172.476 84.9049C179.073 84.9431 195.346 86.8392 201.185 90.4015C202.711 91.3314 202.026 91.4436 204.451 92.0511C206.649 92.0431 208.695 92.4868 210.456 91.5206L209.984 91.0467C211.007 89.5912 210.975 90.0774 211.047 88.5443L206.794 86.4498Z" fill="#986C42"/>
<path d="M211.047 88.5443L206.794 86.4498C205.536 86.5515 204.277 86.6261 203.017 86.6748C203.27 87.5331 203.314 87.5054 203.87 88.2245L202.043 88.3736L201.916 89.0428C203.359 90.3178 203.693 90.1926 204.451 92.0511C206.649 92.0431 208.695 92.4868 210.456 91.5206L209.984 91.0467C211.007 89.5912 210.975 90.0774 211.047 88.5443Z" fill="#8A5C2B"/>
<path d="M202.254 93.3099C200.135 93.1713 197.441 93.801 195.236 93.867C191.601 93.9754 187.988 93.9945 184.349 94.1067C184.992 96.0175 187.486 96.1506 189.068 96.0385C190.642 96.0194 194.185 95.6546 195.524 96.0071L195.714 97.7288C196.855 98.4127 196.22 98.2531 197.727 97.9629L198.104 96.0631C200.291 94.1011 203.206 95.4124 206.069 94.8104C204.827 93.7979 203.815 93.6981 202.254 93.3099Z" fill="#1B0E09"/>
<path d="M130.605 125.119C130.26 125.627 130.29 125.41 130.327 125.981C130.934 135.456 135.114 145.64 142.012 152.141L142.284 151.703C132.859 138.063 134.765 140.173 130.605 125.119Z" fill="#2C1B11"/>
<path d="M206.804 121.597C205.793 121.538 203.593 121.632 202.779 122.269C204.313 123.187 206.228 123.113 208.085 123.251C210.283 123.393 212.697 123.312 214.918 123.284C211.746 122.412 210.058 122.042 206.804 121.597Z" fill="#1B0E09"/>
<path d="M199.787 115.398C196.67 118.917 195.325 121.069 198.939 124.778C199.357 124.69 199.28 124.648 199.662 124.315L198.299 122.287C197.952 120.638 199.252 117.271 199.787 115.398Z" fill="#2C1B11"/>
<path d="M211.773 78.8716C211.216 82.607 210.861 84.7306 211.047 88.5443C210.975 90.0774 211.007 89.5912 209.984 91.0467L210.456 91.5206C213.196 89.134 212.041 82.3193 211.773 78.8716Z" fill="#5A3D27"/>
<path d="M209.769 63.9693C209.278 65.4476 210.031 73.3185 210.175 75.3772C211.568 71.7644 211.077 67.5396 209.769 63.9693Z" fill="#2C1B11"/>
<path d="M133.561 164.27C133.223 165.581 134.456 174.464 134.776 176.107C135.543 172.121 135.263 167.975 133.561 164.27Z" fill="#986C42"/>
<path d="M71.5654 305.539C52.9226 303.912 23.5644 296 5.90198 289.709C4.56542 304.288 4.45326 319.089 3.95105 333.737C3.797 339.177 3.52464 344.613 3.13396 350.041C2.7895 354.247 1.82821 360.714 2.04265 364.739C3.22454 386.868 6.87804 409.504 12.1855 431.01C17.1121 450.971 25.2128 470.258 29.1301 490.485C30.9744 500.011 27.8705 508.652 27.229 518.053C26.4052 528.201 29.4425 536.166 31.8149 545.581C34.1713 554.932 36.2319 562.803 42.5277 570.513C43.9678 572.276 45.9477 574.375 48.3657 574.606C43.537 566.72 38.6591 551.585 37.1426 542.329C43.3282 553.784 42.9221 568.024 52.8782 577.056C54.6812 578.691 57.3014 580.97 59.8445 581.03L60.4194 580.411C60.2111 578.054 58.6231 576.099 57.5626 574.043C52.9577 565.116 49.7084 555.047 47.0119 545.396L47.7414 545.149L48.007 545.716C52.1363 554.682 57.4653 582.149 68.6409 582.846L69.0568 582.359C66.6899 575.776 64.3385 569.493 63.1757 562.552C62.1799 556.61 60.0053 551.178 59.6812 545.117C63.9885 557.075 65.9043 573.923 71.1932 583.048C72.8311 583.966 74.2934 585.136 76.0033 584.889C78.2538 583.053 75.9362 573.438 75.6318 570.434C74.5664 559.924 73.1706 549.354 72.8286 538.792C72.7984 537.927 74.1862 531.679 74.4351 530.549C74.172 536.744 74.6526 553.213 76.2246 559.007L76.8734 559.668C78.5803 562.184 81.0249 564.479 84.0012 562.446C84.9661 559.896 84.2273 559.126 83.0269 556.432L83.3788 556.242C84.271 553.068 81.3453 520.102 79.6008 516.81C73.1244 504.593 66.2752 501.335 63.7007 485.681C58.7951 455.847 58.4771 425.761 55.783 395.704C54.9037 386.292 51.671 373.365 49.6597 363.816L50.756 363.026L50.9796 362.548C53.0088 358.32 56.7122 354.778 58.4993 351.184C65.1833 337.744 68.8855 320.352 71.5654 305.539Z" fill="#F3CFB2"/>
<path d="M83.0269 556.432C80.3914 556.854 80.4006 557.141 79.3469 559.819L78.5138 560.411L76.8734 559.668C78.5803 562.184 81.0249 564.479 84.0012 562.446C84.9661 559.896 84.2273 559.126 83.0269 556.432Z" fill="#F0B590"/>
<path d="M50.756 363.026L50.6514 362.738C49.9335 360.727 49.8836 359.009 48.7368 357.371L48.6912 357.424L49.1102 358.445L48.8397 358.728L49.6597 363.816L50.756 363.026Z" fill="#BF834A"/>
<path d="M47.7414 545.149C47.1881 543.275 46.4914 540.245 45.3638 538.824C45.1629 540.346 46.3907 543.921 47.0119 545.396L47.7414 545.149Z" fill="#F0B590"/>
<path d="M13.7663 365.338C13.5802 367.182 15.0511 372.728 15.5921 374.846C16.4431 372.22 14.7633 367.787 13.7663 365.338Z" fill="#986C42"/>
<path d="M58.314 540.898C57.3835 542.975 58.5463 544.833 59.3955 546.778C59.8552 545.6 58.7102 542.329 58.314 540.898Z" fill="#F0B590"/>
<path d="M509.261 533.201L505.327 533.357C504.315 534.786 506.775 533.787 506.387 537.534C506.122 540.095 504.778 546.091 502.795 547.727C501.928 543.932 507.799 538.813 504.178 534.832C502.065 534.175 500.553 534.367 499.752 536.745C498.599 540.166 498.087 543.872 497.311 547.41C495.769 554.228 493.173 560.764 489.615 566.782C483.968 576.451 472.9 591.463 463.261 597.57C459.899 599.702 456.882 600.645 453.091 601.643C448.02 614.707 442.776 632.374 437.956 646.238C444.14 650.909 449.388 653.202 456.254 658.858C462.684 664.035 477.202 672.859 485.228 668.927C501.393 661.015 498.807 633.452 504.59 618.681C508.201 609.457 511.901 601.766 516.155 593.103C519.26 586.78 521.333 567.47 518.714 561.063C518.145 561.894 518.083 562.066 517.301 562.739C515.904 554.825 520.595 553.716 513.964 543.891C513.079 549.484 512.963 551.622 510.2 556.67C511.412 551.001 513.299 543.898 512.654 538.224C512.342 535.479 511.282 534.74 509.261 533.201Z" fill="#F3CFB2"/>
<path d="M448.302 636.127L447.61 635.992L447.935 636.331C452.544 637.766 459.47 638.173 464.349 638.241L465.271 637.871C464.247 636.848 450.735 636.294 448.302 636.127Z" fill="#2C1B11"/>
<path d="M499.063 600.103C495.63 602.667 491.134 612.249 491.159 616.507C492.224 611.189 496.958 605.082 499.063 600.103Z" fill="#986C42"/>
<path d="M120.877 826.068C105.662 832.89 79.0409 836.217 62.7637 830.474C61.3526 837.672 56.9855 855.511 60.9397 861.562C67.5788 869.431 84.8154 868.199 93.7338 871.126C110.441 876.616 123.114 882.082 140.833 881.262C143.954 881.121 155.82 887.554 156.94 880.055C155.706 877.263 150.406 876.456 146.803 874.182L146.284 873.855C154.645 877.066 153.395 874.096 159.407 880.646C161.429 881.127 162.109 881.392 163.294 879.568C163.242 877.491 163.429 878.311 162.232 876.339C158.525 874.465 154.803 872.95 151.703 870.275L151.77 870.004C155.07 871.699 161.74 874.164 164.194 876.487C164.503 876.782 164.912 879.278 165.35 880.159C167.601 880.054 171.622 879.395 172.142 876.782C173.088 872.025 165.913 870.861 162.643 870.053C164.087 870.097 165.529 870.158 166.97 870.244C173.614 870.694 173.925 873.134 173.316 878.822C176.196 878.261 179.39 878.039 180.215 874.817C178.559 870.17 169.229 869.419 164.509 866.689L164.058 866.43C168.716 867.459 173.935 868.408 178.339 870.238C181.027 871.354 180.926 873.042 181.977 875.84C186.805 875.47 187.232 867.527 183.656 865.623C179.449 863.411 174.732 862.104 170.352 860.163C157.979 854.679 147.103 846.927 136.435 838.707C131.02 834.529 125.564 831.177 120.877 826.068Z" fill="#F3CFB2"/>
<path d="M167.32 863.792L166.873 863.99C174.819 868.026 178.854 865.524 184.377 868.722C184.508 868.858 184.396 868.784 184.854 868.888C182.605 865.333 172.73 865.179 167.32 863.792Z" fill="#2C1B11"/>
<path d="M75.672 834.411C74.8383 837.967 75.0373 842.841 78.0068 845.318L78.3051 844.727C76.5119 842.163 76.8225 838.047 75.672 834.411Z" fill="#BF834A"/>
<path d="M55.6023 358.866C49.4143 366.155 54.9054 379.754 56.82 388.434L57.0923 389.283L57.6678 388.999C59.8918 383.936 56.0737 366.115 55.6023 358.866Z" fill="white"/>
<path d="M437.929 648.069C436.677 648.895 434.669 654.86 435.3 656.215C436.452 654.576 438.666 651.754 438.946 649.77C439.051 649.024 438.578 648.815 437.929 648.069Z" fill="#5A90B0"/>
</svg>
