<svg width="683" height="683" viewBox="0 0 683 683" fill="none" xmlns="http://www.w3.org/2000/svg">
<mask id="mask0_143_156" style="mask-type:alpha" maskUnits="userSpaceOnUse" x="0" y="0" width="683" height="683">
<circle cx="341.5" cy="341.5" r="341.5" transform="matrix(-1 0 0 1 683 0)" fill="#D9D9D9"/>
</mask>
<g mask="url(#mask0_143_156)">
<path d="M502.162 52.3716L502.326 52.0134C503.816 48.8203 506.072 46.717 509.4 45.5332C516.905 42.8637 525.227 44.5202 533.002 44.0008C545.408 43.172 605.438 36.8476 611.761 39.7732C611.769 39.8538 611.775 39.9343 611.785 40.0144C612.15 43.1822 613.447 46.4753 614.091 49.6415C615.416 56.1432 616.339 62.8292 617.106 69.4195C620.944 102.353 620.638 136.73 617.287 169.697C616.722 175.261 616.464 182.474 614.855 187.715C613.534 195.805 608.54 226.543 605.485 231.132C605.402 231.195 605.323 231.263 605.236 231.321C600.456 234.532 571.726 235.805 563.989 237.133C559.35 237.929 555.199 240.344 550.429 240.924C547.605 241.268 544.607 241.305 541.817 240.692C534.267 239.031 529.746 231.374 525.923 225.295C526.968 264.199 520.193 302.841 501.694 337.371C493.388 352.875 483.546 367.479 475.15 382.931C463.054 405.662 453.129 429.484 445.507 454.078C440.032 472.145 434.762 491.704 434.535 510.641C434.273 532.588 442.685 556.537 435.595 577.947C432.376 587.674 425.828 595.44 416.619 599.984C401.506 607.445 383.767 606.075 367.434 607.015C360.385 607.385 353.382 608.379 346.51 609.99C321.85 615.829 300.067 632.855 276.158 635.766C262.568 637.421 250.755 634.037 238.073 629.649L237.921 629.81C233.575 634.434 228.537 637.496 222.027 637.614C216.723 637.711 213.312 635.659 209.636 632.044C205.931 632.802 202.111 633.135 198.373 632.426C192.906 631.389 189.295 628.532 186.178 624.052C185.139 624.299 184.096 624.525 183.037 624.675C171.768 626.265 166.489 621.587 157.922 615.104C154.989 612.886 152.89 609.803 152.425 606.113C152.128 603.744 152.386 601.134 153.232 598.899C154.942 594.387 158.612 591.202 160.774 587.013C161.634 585.348 161.993 583.301 162.515 581.497C163.75 577.227 165.661 572.925 168.463 569.444C177.548 558.149 192.715 561.527 205.274 560.125C229.569 557.418 251.227 534.688 269.394 520.041C293.827 500.334 315.85 488.732 334.057 461.347C358.579 424.465 369.459 351.642 376.719 307.769C379.899 288.565 383.284 269.396 386.874 250.265C392.333 222.15 400.537 194.652 405.955 166.566C407.737 157.327 408.101 148.019 408.98 138.683C410.857 118.759 415.619 98.7441 428.261 82.7634C443.58 63.399 478.733 55.0937 502.162 52.3716Z" fill="#1B1B1A"/>
<path d="M611.76 39.7734C611.768 39.854 611.775 39.9346 611.784 40.0146C612.149 43.1825 613.446 46.4755 614.091 49.6417C615.415 56.1435 616.338 62.8294 617.106 69.4197C620.943 102.354 620.637 136.73 617.287 169.698C616.721 175.261 616.463 182.474 614.855 187.715L614.556 186.744C611.94 186.674 608.691 187.806 606.11 188.361C601.178 189.423 585.929 192.479 581.739 190.307C581.024 194.542 577.393 217.126 575.364 219.063C577.056 209.583 579.323 200.25 580.893 190.729C584.558 163.28 584.367 134.234 577.131 107.353C570.932 84.324 559.521 60.2636 538.123 47.9472L538.085 47.5631L537.154 46.9315C538.729 45.557 582.886 42.09 587.419 41.8069C591.808 41.5325 608.764 41.0969 611.76 39.7734Z" fill="#3C75A4"/>
<path d="M538.085 47.5605C551.181 51.8128 562.1 68.5417 568.018 80.1776C584.834 113.246 586.585 154.095 581.739 190.304C581.024 194.539 577.393 217.124 575.364 219.06C577.055 209.58 579.323 200.247 580.893 190.727C584.558 163.277 584.367 134.231 577.131 107.35C570.932 84.3214 559.52 60.261 538.123 47.9446L538.085 47.5605Z" fill="#1B1B1A"/>
<path d="M559.239 182.715C559.447 180.089 559.618 177.46 559.752 174.829C561.27 144.338 557.741 112.691 545.125 84.6429C541.451 76.4762 537.393 68.9384 531.332 62.2739C526.644 57.1182 520.674 52.0747 513.429 51.5742C510.749 51.3889 508.064 51.7836 505.38 51.6542C505.252 51.0505 505.218 51.2868 505.457 50.6675C505.939 49.4177 507.295 48.7704 508.472 48.3091C513.829 46.21 532.736 45.5338 538.123 47.9481C559.521 60.2646 570.932 84.3249 577.131 107.353C584.368 134.235 584.558 163.281 580.893 190.73C575.559 189.412 564.449 188.13 560.108 185.111C559.287 184.54 559.39 183.638 559.239 182.715Z" fill="#3C75A4"/>
<path d="M546.647 232.028C557.037 222.001 558.226 196.739 559.24 182.715C559.39 183.638 559.287 184.539 560.109 185.111C564.449 188.129 575.56 189.412 580.894 190.73C579.324 200.25 577.056 209.583 575.365 219.063C577.394 217.127 581.024 194.543 581.739 190.307C585.929 192.479 601.178 189.423 606.11 188.361C608.691 187.806 611.941 186.675 614.556 186.745L614.855 187.716C613.534 195.806 608.54 226.544 605.485 231.133C592.61 231.384 579.762 232.825 566.974 234.238L568.886 232.375L568.822 231.924C566.377 232.7 564.201 234.26 561.864 235.319C555.946 238.001 547.489 239.987 541.195 237.991C542.79 235.91 544.887 233.988 546.647 232.028Z" fill="#2C5F88"/>
<path d="M541.195 237.99C539.719 237.389 538.424 236.613 537.197 235.593C532.451 231.648 525.86 223.07 525.291 216.841C524.97 213.333 524.1 205.06 524.574 201.828C524.726 200.794 525.249 199.804 525.947 199.035C531.201 193.257 548.576 192.965 555.91 192.615C554.736 201.175 554.029 210.04 551.747 218.399C550.66 222.383 546.985 228.601 546.647 232.027C544.887 233.987 542.79 235.909 541.195 237.99Z" fill="#103A5C"/>
<path d="M411.095 149.855C410.986 145.282 411.559 140.614 412.058 136.072C413.855 119.707 417.386 103.029 426.68 89.1365C440.333 68.7274 465.256 61.2718 488.186 56.7187C495.253 55.3158 507.456 52.7785 514.485 54.1196C517.209 54.6396 519.788 55.89 522.069 57.4422C541.794 70.8667 550.304 103.443 554.602 125.56C558.367 147.109 557.639 168.338 556.126 190.039C545.75 191.011 532.194 190.555 523.817 197.477C523.09 192.219 522.267 186.847 520.839 181.731C520.213 190.607 521.848 202.794 522.426 211.933C523.852 234.472 523.501 257.067 519.076 279.297C512.98 309.927 502.152 332.12 486.507 358.623C480.941 368.052 475.055 377.329 469.951 387.021C454.353 416.635 442.176 449.816 435.367 482.585C432.973 494.107 431.643 505.425 432.142 517.204C433.132 540.547 443.9 574.659 423.399 592.555C408.097 605.919 384.369 603.34 365.602 604.619C358.185 605.097 350.833 606.289 343.647 608.19C335.008 610.548 326.584 613.631 318.461 617.402C300.757 625.485 284.555 635.041 264.354 633.569C256.661 633.005 248.803 631.227 241.708 628.176C246.568 625.722 251.809 622.086 254.787 617.402L253.655 617.912C250.288 621.156 244.343 625.727 239.618 626.151C239.309 625.84 239.021 625.523 238.74 625.185L238.303 625.33C237.02 627.559 235.226 629.487 233.314 631.195C229.438 633.999 224.954 635.878 220.078 635.143C218.525 634.906 216.959 634.482 215.603 633.676C213.539 632.516 210.658 630.48 209.976 628.106C208.847 624.186 212.809 620.63 214.42 617.45L214.587 617.112L214.564 616.457C224.398 590.944 242.113 603.851 258.708 592.614C250.21 595.37 243.35 595.955 234.487 596.272C226.719 598.189 220.224 601.632 215.945 608.631C214.071 611.698 213.235 615.151 211.594 618.299C210.251 620.872 207.212 622.816 207.322 625.947C207.379 627.575 208.227 629.761 206.308 630.25C203.134 631.055 198.498 630.078 195.427 629.138C193.205 628.09 190.268 626.565 189.233 624.212C187.754 620.861 191.564 615.087 192.71 611.714L197.254 613.981L197.605 613.572C196.138 612.595 194.39 611.859 192.812 611.069C193.185 608.862 193.358 606.622 193.78 604.431C195.903 593.404 203.376 586.889 214.347 585.465C219.142 584.842 224.022 585.057 228.817 584.38C234.522 583.575 240.208 581.786 244.98 578.499C234.664 582.049 225.468 582.635 214.649 582.989C207.085 584.3 200.717 586.577 196.067 593.092C194.245 595.649 192.898 598.517 192.091 601.557C190.347 608.105 190.386 621.108 181.942 622.633C178.764 623.208 174.69 622.521 171.649 621.505C170.782 621.135 169.898 620.759 169.088 620.275C165.646 618.213 163.424 614.319 162.459 610.516C162.019 608.781 161.44 605.516 162.468 603.963C162.986 603.179 163.138 603.109 164.037 602.889L164.382 602.578C164.378 602.513 164.359 602.449 164.37 602.39C164.757 600.343 170.498 597.212 171.923 595.026C175.013 590.283 176.85 585.524 180.954 581.373C191.102 571.103 205.691 576.823 218.229 574.256C223.239 573.225 227.574 571.017 231.777 568.192C216.7 574.39 212.326 571.962 197.244 572.537C187.094 572.924 179.429 577.226 174.156 586.045C172.487 588.838 171.267 591.938 169.26 594.516C166.829 597.642 163.045 599.828 160.304 602.787C158.965 601.106 157.743 599.307 156.483 597.566C157.945 595.042 159.641 592.636 161.245 590.203C161.823 591.873 162.523 593.984 164.148 594.849L164.454 594.51C163.974 594.016 163.346 593.425 163.087 592.775C162.047 590.17 164.878 581.926 165.922 579.278C174.095 558.529 190.039 564.62 207.335 562.439C212.043 561.849 216.459 560.2 220.773 558.304C241.852 549.022 257.151 532.34 275.16 518.735C294.197 504.356 314.955 491.13 329.801 472.14C360.844 432.431 371.004 356.086 379.629 306.562C384.76 277.097 389.874 247.753 396.6 218.597C399.354 206.657 402.516 194.807 405.188 182.852C406.204 178.308 407.464 168.669 408.995 164.973C409.048 164.844 409.105 164.717 409.161 164.589L410.355 164.41C410.783 159.576 410.382 154.66 411.095 149.855Z" fill="#E4BB9B"/>
<path d="M548.514 165.206C550.357 159.7 551.985 153.936 552.78 148.177C553.37 143.902 552.802 128.999 553.674 126.828C553.83 126.439 554.342 125.914 554.602 125.559C558.367 147.108 557.638 168.337 556.126 190.038C545.75 191.01 532.194 190.554 523.817 197.476C523.09 192.218 522.267 186.847 520.839 181.73C520.213 190.606 521.848 202.793 522.426 211.932C523.852 234.471 523.501 257.066 519.076 279.296C512.98 309.926 502.152 332.119 486.507 358.622C480.941 368.051 475.055 377.328 469.951 387.02C454.353 416.634 442.176 449.815 435.367 482.584C432.973 494.106 431.643 505.424 432.142 517.203C433.132 540.546 443.9 574.658 423.399 592.554C408.096 605.918 384.369 603.339 365.602 604.618C358.185 605.096 350.833 606.288 343.647 608.19C335.008 610.547 326.584 613.631 318.461 617.401C300.757 625.485 284.555 635.04 264.354 633.568C256.661 633.004 248.803 631.226 241.708 628.175C246.568 625.721 251.808 622.085 254.787 617.401L254.973 616.928C255.758 617.643 256.269 620.215 256.59 621.274C257.048 621.827 257.452 622.09 258.136 622.342C261.84 623.68 266.996 623.46 270.916 623.336C287.812 622.788 303.979 615.714 318.449 607.405C326.134 602.99 333.457 598.323 341.922 595.471C350.643 592.538 360.371 591.292 369.551 591.335C384.228 591.405 398.834 594.542 412.669 587.774C420.244 584.068 425.038 578.036 427.727 570.135C434.353 550.665 428.488 528.961 419.746 511.161C417.5 514.163 415.24 517.203 412.798 520.05C405.362 528.724 396.066 535.03 384.347 535.803C379.547 536.12 374.595 535.17 370.906 531.899L371.004 531.329C374.951 528.939 379.973 528.262 384.18 526.232C405.632 515.893 406.649 486.368 410.289 466.075C411.818 457.707 413.99 449.468 416.787 441.434C417.065 451.798 415.965 462.507 415.4 472.858C416.159 471.892 416.924 470.975 417.77 470.082C419.412 466.286 420.347 461.746 421.564 457.77C424.023 449.603 426.663 441.491 429.484 433.442C430.107 429.596 435.656 416.411 437.268 412.042C443.351 395.555 450.214 379.602 459.081 364.397C466.557 351.576 475.481 339.696 483.198 327.025C493.234 310.548 502.966 284.645 506.28 265.69C509.178 248.461 510.351 230.985 509.78 213.523C509.546 204.525 508.317 194.998 509.011 186.058C509.257 182.889 509.939 180.426 511.927 177.891C519.841 167.796 536.7 166.556 548.514 165.206Z" fill="#CFB29A"/>
<path d="M429.484 433.445C429.745 436.774 416.833 475.884 414.763 482.308C415.12 478.16 416.847 474.125 417.77 470.085C419.412 466.29 420.348 461.749 421.565 457.774C424.023 449.606 426.663 441.494 429.484 433.445Z" fill="#4E3A31"/>
<path d="M412.216 473.674C412.967 480.568 409.426 501.499 407.213 508.578C403.958 518.992 398.087 525.26 388.568 530.277C388.652 529.246 393.939 525.755 395.015 524.696C398.011 521.732 400.514 518.31 402.427 514.551C408.832 501.966 408.83 487.512 412.113 474.085L412.216 473.674Z" fill="#1B1B1A"/>
<path d="M195.426 629.138C202.703 626.63 207.521 620.894 210.223 613.75C211.222 611.102 211.934 608.153 213.385 605.72C216.15 601.085 223.138 597.18 228.241 595.897C230.327 595.37 232.57 595.134 234.487 596.272C226.718 598.19 220.224 601.633 215.944 608.631C214.07 611.698 213.234 615.152 211.593 618.299C210.251 620.872 207.212 622.816 207.322 625.948C207.379 627.575 208.226 629.761 206.308 630.25C203.133 631.056 198.498 630.078 195.426 629.138Z" fill="#CFB29A"/>
<path d="M171.648 621.506C173.107 621.34 174.592 621.227 176.032 620.932C189.269 618.209 186.648 602.326 192.783 593.024C196.492 587.4 203.314 583.984 209.803 582.727C211.376 582.421 213.252 582.05 214.649 582.99C207.085 584.301 200.716 586.578 196.067 593.093C194.245 595.65 192.898 598.518 192.09 601.558C190.347 608.106 190.385 621.109 181.942 622.634C178.764 623.209 174.69 622.522 171.648 621.506Z" fill="#CFB29A"/>
<path d="M411.095 149.857C411.13 151.001 411.18 152.146 411.195 153.29C411.212 154.682 411.578 156.069 412.057 157.372C413.713 161.872 413.891 183.96 411.658 187.832C411.371 188.329 410.979 188.762 410.585 189.174C410.146 188.609 410.151 188.592 410.16 187.875C408.987 180.103 410.09 172.298 409.161 164.592L410.355 164.413C410.783 159.579 410.382 154.662 411.095 149.857Z" fill="#CFB29A"/>
<path d="M409.161 164.59L410.355 164.41C410.375 172.133 410.831 180.193 410.16 187.873C408.987 180.101 410.09 172.295 409.161 164.59Z" fill="#1B1B1A"/>
<path d="M239.886 616.98L242.955 620.085C246.579 619.693 250.132 618.833 253.654 617.915C250.288 621.159 244.343 625.73 239.618 626.154C239.309 625.843 239.021 625.526 238.74 625.188L238.303 625.333C237.453 623.522 239.291 619.016 239.886 616.98Z" fill="#CFB29A"/>
<path d="M215.603 633.678C218.737 633.157 221.787 633.237 224.961 632.561C226.882 632.152 230.15 630.793 231.985 630.799C232.327 630.799 232.963 631.089 233.314 631.196C229.438 634 224.954 635.88 220.078 635.144C218.525 634.908 216.958 634.483 215.603 633.678Z" fill="#CFB29A"/>
<path d="M164.382 602.58C166.595 605.319 169.495 609.643 173.254 610.185C174.336 610.341 175.342 610.1 176.218 609.439C177.5 608.472 178.137 606.802 178.234 605.244C178.37 603.069 177.593 601.012 176.151 599.4C175.354 598.509 172.453 596.844 172.36 595.99C173.033 595.796 173.244 595.7 173.916 596.027C176.105 597.107 178.191 600.861 178.833 603.133C179.414 605.185 179.029 606.802 178.005 608.644C177.361 609.799 176.447 610.766 175.106 611.045C173.07 611.48 170.86 610.325 169.261 609.149C166.972 607.468 165.512 605.276 164.037 602.892L164.382 602.58Z" fill="#29201C"/>
<path d="M197.604 613.574C199.45 615.062 201.105 616.48 201.407 619.01C201.614 620.739 201.361 622.598 200.173 623.957C199.319 624.929 198.06 625.439 196.773 625.417C194.812 625.385 193.328 624.757 192.033 623.307C191.292 622.479 190.674 621.534 190.057 620.61C192.584 622.329 194.128 625.111 197.571 624.574C198.602 624.413 199.441 623.946 199.992 623.049C200.873 621.609 200.798 619.456 200.385 617.882C199.96 616.26 198.481 615.035 197.253 613.982L197.604 613.574Z" fill="#29201C"/>
<path d="M214.564 616.457C216.098 616.989 217.448 617.483 218.798 618.412L218.882 618.885C217.313 618.734 215.949 617.848 214.587 617.112L214.564 616.457Z" fill="#4E3A31"/>
<path d="M451.474 128.944C454.393 125.179 457.742 121.751 460.635 117.936C463.018 114.793 472.136 100.538 473.635 99.6074C472.281 102.446 470.58 105.071 468.915 107.732C469.537 108.833 470.153 109.905 470.614 111.087C470.231 111.655 470.126 111.885 469.528 112.195C464.7 120.878 449.623 134.841 441.45 140.235L441.16 140.202C444.737 136.915 448.572 133.945 452.161 130.677C451.57 130.292 451.115 129.993 450.656 129.449L451.474 128.944Z" fill="#CFB29A"/>
<path d="M452.161 130.675C456.016 127.135 459.456 123.317 462.903 119.385C464.971 117.025 467.051 114.118 469.528 112.193C464.7 120.876 449.623 134.839 441.45 140.233L441.16 140.2C444.737 136.913 448.572 133.943 452.161 130.675Z" fill="#765C50"/>
<path d="M451.475 128.944C454.394 125.179 457.742 121.751 460.635 117.936C463.018 114.793 472.136 100.538 473.635 99.6074C472.282 102.446 470.581 105.071 468.915 107.732C465.461 112.84 456.924 126.298 451.475 128.944Z" fill="#765C50"/>
<path d="M471.853 94.293C471.824 99.366 455.157 121.075 450.949 125.374C450.819 124.166 453.852 121.09 454.759 119.955C461.231 111.856 466.58 103.189 471.853 94.293Z" fill="#4E3A31"/>
<path d="M319.654 534.23L319.977 534.649C314.262 540.434 308.133 545.864 302.04 551.246L301.69 550.784C303.509 548.743 305.805 546.987 307.834 545.139L319.654 534.23Z" fill="#765C50"/>
<path d="M301.851 553.799L302.59 554.078C301.712 556.694 293.804 562.323 291.307 564.584L290.855 564.412C291.383 562.022 299.935 556.576 301.851 553.799Z" fill="#CFB29A"/>
<path d="M155.915 598.555C157.26 599.344 159.02 602.395 160.077 603.7C159.999 607.358 160.945 610.914 160.864 614.464C158.737 612.949 157.049 611.257 155.925 608.856C154.292 605.381 154.681 602.073 155.915 598.555Z" fill="#F8C6AC"/>
</g>
</svg>
