<svg width="895" height="948" viewBox="0 0 895 948" fill="none" xmlns="http://www.w3.org/2000/svg">
<mask id="mask0_137_4251" style="mask-type:alpha" maskUnits="userSpaceOnUse" x="0" y="0" width="895" height="948">
<ellipse cx="447.5" cy="474" rx="447.5" ry="474" fill="#D9D9D9"/>
</mask>
<g mask="url(#mask0_137_4251)">
<path d="M428.437 45.6309C462.827 29.7899 518.537 41.9003 552.685 54.7861C588.456 68.2842 624.903 92.0776 641.222 127.971C645.245 136.821 645.116 143.368 647.637 152.099C649.286 157.809 651.956 163.146 653.469 168.925C659.614 192.402 656.968 216.11 648.429 238.648C639.707 261.671 625.293 282.217 608.199 299.796C600.324 307.894 591.724 315.276 583.11 322.569C565.733 337.281 555.388 347.104 550.924 370.437C548.497 383.127 549.75 393.989 555.012 405.803C567.892 434.719 581.239 436.727 600.66 456.625C613.262 469.536 623.508 486.422 631.098 502.751C644.615 531.834 648.432 559.25 648.015 591.048C647.897 600.04 646.634 609.11 647.035 618.084C647.492 628.284 650.37 638.37 652.149 648.394C654.708 662.515 656.089 676.827 656.277 691.178C657.049 725.395 652.144 760.292 648.059 794.212C646.66 805.825 645.035 817.425 644.172 829.095C643.018 844.672 646.526 860.174 644.185 875.729C642.128 889.402 636.303 902.816 632.375 916.046C628.249 929.947 624.375 944.119 621.32 958.303C620.296 963.053 619.663 967.863 618.698 972.62C617.827 973.615 617.586 973.742 616.336 974.192C608.171 974.532 599.617 976.991 591.488 978.209C566.727 981.862 541.825 984.487 516.847 986.078C510.47 986.485 503.16 987.654 496.87 986.987C499.075 962.401 503.369 938.408 508.99 914.39C512.084 901.168 515.767 888.09 518.752 874.841C519.523 871.417 521.623 856.982 523.012 855.27L523.808 854.664L524.144 851.938C522.867 842.625 517.698 833.686 514.783 824.777C507.41 802.247 500.506 779.795 495.502 756.601C489.246 727.597 487.483 697.598 485.099 668.072C484.058 655.169 483.852 641.586 481.152 628.919C479.036 619.029 475.555 609.481 470.809 600.55L469.833 601.638C482.826 629.495 481.943 660.728 484.625 690.749C486.772 714.783 489.096 737.692 493.391 761.475C495.149 771.215 496.501 782.167 500.139 791.353C500.897 793.266 501.028 795.787 502.189 797.439C501.615 793.574 499.536 789.288 499.48 785.473L499.862 786.202L499.579 786.38L500.12 786.79C505.72 801.485 509.136 816.959 514.929 831.593C508.396 842.053 499.159 848.95 491.291 858.164L491.735 860.349C491.357 864.169 487.973 869.209 486.543 872.863C480.976 887.089 477.141 905.267 479.255 920.515C479.681 921.756 479.697 922.753 479.72 924.04C479.735 924.849 479.713 924.507 479.868 925.399C480.977 939.696 488.711 949.248 497.708 959.724C497.292 962.623 497.229 966.684 496.23 969.363C495.91 972.548 493.695 984.606 495.038 986.985L496.511 987.095C494.259 988.021 490.036 987.495 487.5 987.607C472.006 988.294 456.47 988.154 440.962 988.17C416.909 988.195 392.978 988.002 368.953 986.673C361.356 986.252 350.365 986.496 343.32 984.53L342.944 984.59C342.819 984.661 342.704 984.751 342.571 984.803C341.118 985.367 327.139 983.48 324.61 983.244C286.77 979.724 181.501 928.5 170.5 908.5C160.325 890 163.357 775.817 213.165 704.283C220.363 693.945 228.275 684.157 236.227 674.396C241.296 668.175 246.795 662.048 251.039 655.214C250.427 643.532 249.435 632.088 250.935 620.41C254.775 590.518 277.026 564.172 296.572 542.445C309.072 528.731 322.488 515.883 336.73 503.989C344.377 497.659 355.122 490.332 361.798 483.453C366.114 479.005 368.48 473.013 372.153 468.064C379.684 457.918 394.175 447.953 393.754 433.715C393.554 426.922 387.64 418.823 385.233 412.415C381.911 403.571 380.6 394.869 380.253 385.461C380.058 380.176 381.366 373.092 376.817 369.362C369.43 363.305 353.308 362.299 344.077 360.585C326.875 357.391 307.845 349.979 305.311 330.302C303.999 320.113 311.817 310.43 312.823 299.581C313.208 295.422 312.537 291.496 311.917 287.403C311.316 283.441 309.51 276.269 312.415 272.929C313.283 271.931 314.627 271.363 315.8 270.811C315.67 269.013 315.421 267.031 315.612 265.236C315.775 263.697 316.544 262.112 317.081 260.661C319.817 253.275 321.882 248.043 318.853 240.186C311.616 236.921 301.424 233.35 298.556 225.191C297.08 220.994 297.602 215.561 299.679 211.653C304.746 202.123 317.902 195.574 326.429 189.281C333.585 183.999 340.852 178.431 346.704 171.703C357.663 159.104 352.285 153.06 357.083 140.326C364.508 120.62 394.721 96.602 411.265 83.5898L410.965 83.0205C408.011 77.288 407.216 70.7607 409.352 64.6035C412.358 55.9386 420.331 49.3646 428.437 45.6309Z" fill="#F6C8A8"/>
<path d="M516.11 832.527C516.973 834.624 517.86 836.71 518.687 838.765C520.468 843.191 522 847.553 522.63 851.955L522.396 853.852L522.104 854.075L521.96 854.185L521.848 854.324C521.486 854.77 521.231 855.419 521.041 855.979C520.829 856.602 520.619 857.367 520.412 858.21C519.998 859.899 519.575 862.005 519.176 864.137C518.365 868.473 517.668 872.827 517.289 874.51C515.802 881.111 514.14 887.674 512.459 894.253C510.78 900.826 509.081 907.418 507.529 914.047C504.057 928.883 501.089 943.719 498.804 958.695C489.812 948.224 482.429 939.016 481.363 925.282L481.358 925.211L481.346 925.141C481.305 924.907 481.276 924.752 481.256 924.646C481.234 924.529 481.231 924.511 481.23 924.503L481.229 924.497C481.229 924.487 481.229 924.468 481.228 924.429L481.22 924.011C481.198 922.78 481.185 921.604 480.725 920.184C478.697 905.307 482.439 887.461 487.939 873.408C488.626 871.655 489.754 869.631 490.881 867.325C491.949 865.139 493.009 862.704 493.228 860.495L493.25 860.271L493.205 860.049L492.906 858.586C496.661 854.262 500.687 850.461 504.681 846.396C508.776 842.227 512.774 837.834 516.11 832.527ZM494.408 758.623C496.39 767.629 498.652 776.523 501.11 785.353L500.809 784.775L499.605 785.081C497.41 777.447 496.284 769.06 494.867 761.207C494.711 760.345 494.559 759.483 494.408 758.623Z" stroke="#010000" stroke-opacity="0.75" stroke-width="3"/>
<path d="M411.421 82.8869C409.614 74.6136 408.884 67.5135 413.862 60.0543C421.117 49.1843 434.747 44.6207 447.014 42.4401C492.588 34.3388 557.527 53.0631 595.031 79.4533C614.054 92.8391 633.238 112.017 641.187 134.362C643.159 139.906 643.409 145.737 645.118 151.284C647.84 160.12 651.45 168.115 653.041 177.355C658.978 211.831 646.166 246.361 626.35 274.232C615.086 290.075 601.527 303.453 586.927 316.202C579.408 322.767 570.941 328.966 564.401 336.525C559.975 341.64 557.383 347.626 553.605 353.089C551.44 352.867 549.216 353.078 547.045 353.177C544.626 348.559 540.946 345.495 537.999 341.314L537.42 340.482L536.764 340.645C535.623 338.75 533.858 337.144 532.436 335.439C529.94 333.578 528.636 331.745 527.216 328.97C526.713 325.994 527.066 322.73 527.164 319.71C525.11 317.219 523.78 314.798 522.566 311.842C525.131 304.743 525.662 299.101 525.497 291.594C543.475 282.076 555.102 274.194 562.79 254.709C566.582 245.099 570.238 231.569 565.891 221.667C562.79 214.604 556.24 208.486 548.989 205.89C540.168 202.731 530.384 204.98 522.2 208.919C516.559 211.634 502.797 220.885 500.747 226.763C498.529 229.369 495.363 229.321 492.619 230.801C489.942 231.168 487.152 231.022 484.452 231.031C482.574 229.78 481.113 228.356 479.537 226.757C479.277 220.704 479.762 216.555 481.604 210.785L481.076 207.827C480.63 200.697 483.199 193.817 482.178 186.546C481.11 178.931 476.01 170.539 476.361 162.981C476.517 159.623 484.401 135.996 486.232 132.485C487.112 130.799 488.654 129.49 490.035 128.215C492.132 124.713 497.976 120.384 501.461 118.4C504.847 110.088 505.616 103.688 506.312 94.8776L505.155 93.8136C499.391 91.1973 494.354 86.9592 488.166 85.3405C481.04 83.4763 473.812 84.4029 466.804 81.5809C464.843 81.3309 462.897 81.1644 461.022 80.5108C457.735 80.3396 454.464 80.1847 451.197 79.7704L451.316 78.691C448.662 78.0995 445.778 77.2644 443.053 77.2813C438.235 77.3112 433.741 78.7373 429.025 79.447C424.665 80.1032 420.081 80.033 415.797 81.1137C414.253 81.5033 412.827 82.1514 411.421 82.8869Z" fill="#B38354"/>
<path d="M466.804 81.5813C465.596 80.5667 463.265 79.0995 462.679 77.6846C473.997 83.2309 477.36 80.7486 487.808 83.6633C494.783 85.609 500.461 90.404 507.372 92.1686C516.263 94.4388 525.333 94.4685 534.269 96.1595C556.821 100.273 578.738 107.319 599.463 117.117C605.609 119.977 612.098 122.94 617.519 127.065C612.206 124.799 607.29 121.663 601.988 119.486C605.986 122.772 610.371 125.531 614.314 128.875C626.65 139.339 638.483 154.525 640.164 171.151C640.346 173.066 640.44 174.988 640.447 176.912L639.645 176.145C639.437 165.509 634.946 154.472 628.903 145.844C608.609 116.871 567.304 103.879 533.921 97.794C524.433 96.0646 514.708 95.4872 505.155 93.814C499.391 91.1977 494.354 86.9596 488.166 85.3409C481.04 83.4767 473.812 84.4033 466.804 81.5813Z" fill="#482A11"/>
<path d="M490.035 128.215L490.591 128.803L489.993 129.618L488.753 131.33C487.802 132.637 487.059 133.968 486.452 135.468C484.609 140.023 483.498 144.995 481.889 149.655C480.601 153.385 478.473 157.408 477.692 161.239C477.436 162.489 477.61 164.057 477.825 165.299C478.52 169.325 480.154 173.344 481.383 177.247C484.605 187.48 484.781 197.632 481.076 207.827C480.63 200.697 483.199 193.817 482.178 186.546C481.11 178.931 476.01 170.539 476.361 162.981C476.517 159.623 484.401 135.996 486.232 132.485C487.112 130.799 488.654 129.49 490.035 128.215Z" fill="#663D1A"/>
<path d="M481.604 210.785C481.727 210.664 481.852 210.544 481.975 210.422C484.127 208.264 484.85 205.661 486.471 203.163C487.069 202.243 487.302 201.395 487.623 200.352L488.066 200.791C487.635 202.823 486.686 204.469 485.714 206.284C481.896 213.413 480.361 218.31 481.307 226.502L484.92 229.5C487.579 229.593 490.264 229.396 492.619 230.801C489.942 231.168 487.152 231.022 484.452 231.031C482.574 229.78 481.113 228.356 479.537 226.757C479.277 220.704 479.762 216.555 481.604 210.785Z" fill="#663D1A"/>
<path d="M459.204 80.1501C452.711 73.8538 443.209 64.522 442.465 54.9222C442.424 54.3974 442.475 53.9206 442.698 53.4453L442.906 54.0316C446.471 63.9426 452.222 74.2876 461.022 80.5112C457.735 80.34 454.464 80.1851 451.197 79.7708L451.316 78.6914C454.038 78.9885 456.557 79.4632 459.204 80.1501Z" fill="#663D1A"/>
<path d="M506.312 94.8779C508.085 97.0876 507.718 100.703 507.439 103.477C506.953 108.32 505.641 113.965 502.682 117.897L501.461 118.4C504.847 110.088 505.616 103.688 506.312 94.8779Z" fill="#663D1A"/>
<path d="M639.645 176.145L640.447 176.912C639.618 186.213 636.151 197.891 631.622 206.071L631.228 206.098C631.609 203.059 633.013 200.031 634.048 197.15C636.246 191.025 639.27 183.123 639.63 176.605C639.638 176.452 639.64 176.298 639.645 176.145Z" fill="#8D5D2D"/>
<path d="M527.216 328.97C527.305 327.284 527.108 324.735 527.962 323.266C528.989 325.058 528.18 327.334 528.955 329.224C529.715 331.077 531.8 333.171 533.061 334.762L532.436 335.439C529.94 333.578 528.636 331.745 527.216 328.97Z" fill="#663D1A"/>
<path d="M594.589 252.307C595.588 254.682 594.163 259.71 593.516 262.201C591.518 269.885 578.942 294.845 572.146 298.903C571.836 297.215 576.955 292.108 578.083 290.315C582.815 282.791 588.297 274.374 591.039 265.882C592.36 261.792 592.588 257.179 594.203 253.219C594.328 252.914 594.461 252.611 594.589 252.307Z" fill="#8D5D2D"/>
<path d="M481.556 60.4492C483.038 61.7953 484.198 65.9918 485.236 67.9535C487.997 73.1721 491.978 77.6988 494.617 82.8596C491.215 80.0454 488.796 76.6946 486.481 72.9586C484.752 70.1678 480.808 63.5758 481.556 60.4492Z" fill="#8D5D2D"/>
<path d="M596.904 83.8281C598.756 85.4764 599.983 88.0033 600.454 90.4222C601.583 96.2176 599.073 102.303 596.013 107.117L595.747 106.852C595.58 105.36 596.794 103.668 597.416 102.293C600.465 95.5514 599.436 90.4546 596.904 83.8281Z" fill="#663D1A"/>
<path d="M610.129 205.961C610.249 206.012 610.374 206.054 610.49 206.115C611.923 206.868 612.908 207.88 613.341 209.451L612.757 210.306L612.229 210.413C611.684 208.845 610.714 207.528 610.129 205.961Z" fill="#C79164"/>
<path d="M411.265 83.5894L410.965 83.0207C408.011 77.2882 407.216 70.7611 409.352 64.6039C412.358 55.9388 420.331 49.365 428.437 45.6312C462.827 29.7902 518.537 41.9 552.685 54.7858C588.456 68.2839 624.903 92.0777 641.222 127.971C645.245 136.821 645.116 143.368 647.637 152.099C649.286 157.809 651.956 163.146 653.469 168.925C659.614 192.402 656.968 216.11 648.429 238.648C639.707 261.671 625.293 282.217 608.199 299.796C600.324 307.894 591.724 315.276 583.11 322.569C565.733 337.281 555.388 347.104 550.924 370.437C548.497 383.128 549.75 393.989 555.012 405.803C567.892 434.719 581.239 436.727 600.66 456.625C613.262 469.536 623.508 486.422 631.098 502.751C644.615 531.834 648.432 559.25 648.015 591.048C647.897 600.04 646.634 609.11 647.035 618.084C647.492 628.284 650.37 638.37 652.149 648.394C654.708 662.516 656.089 676.827 656.277 691.178C657.049 725.395 652.144 760.292 648.059 794.212C646.66 805.825 645.035 817.425 644.172 829.095C643.018 844.672 646.526 860.174 644.185 875.729C642.128 889.402 636.303 902.816 632.375 916.046C628.248 929.947 624.375 944.119 621.32 958.303C620.296 963.053 619.663 967.863 618.698 972.62C617.827 973.615 617.586 973.742 616.336 974.192C615.988 969.024 617.991 962.211 619.11 957.072C622.623 940.929 627.016 924.768 631.939 908.997C635.138 898.748 639.212 888.563 641.354 878.034C644.667 861.752 640.446 845.722 641.698 829.353C645.41 780.853 656.302 732.023 653.74 683.173C652.678 662.906 648.754 643.472 644.872 623.606C644.978 621.922 644.472 620.473 644.008 618.879C644.184 611.486 645.095 604.055 645.438 596.656C646.444 574.972 645.182 553.751 639.501 532.732C629.013 493.931 604.834 455.767 569.517 435.439L570.419 434.454L570.648 434.255C569.31 432.436 567.595 430.889 566.199 429.088C560.797 422.218 556.283 414.694 552.766 406.694C545.047 389.039 546.541 372.25 553.393 354.529L553.605 353.089C557.383 347.626 559.975 341.64 564.401 336.525C570.941 328.966 579.408 322.767 586.927 316.202C601.527 303.453 615.086 290.075 626.35 274.232C646.166 246.361 658.978 211.831 653.041 177.355C651.45 168.115 647.84 160.12 645.118 151.284C643.409 145.737 643.159 139.906 641.187 134.362C633.238 112.017 614.054 92.8392 595.031 79.4534C557.527 53.0632 492.588 34.3389 447.014 42.4402C434.747 44.6208 421.117 49.1844 413.862 60.0544C408.884 67.5136 409.614 74.6137 411.421 82.887C412.827 82.1515 414.253 81.5034 415.797 81.1138C420.081 80.0331 424.665 80.1033 429.025 79.4471C433.741 78.7374 438.235 77.3113 443.053 77.2814C445.778 77.2645 448.662 78.0996 451.316 78.6911L451.197 79.7705C447.735 79.1906 444.303 78.4266 440.786 78.8012C440.496 78.8321 440.205 78.8563 439.914 78.8889C436.279 79.2974 432.782 80.3657 429.183 80.9724C424.875 81.6989 419.823 81.5024 415.774 83.2565C405.982 87.4974 374.702 117.799 366.763 127.951C362.622 133.246 359.096 138.648 357.556 145.27C355.62 153.597 356.897 160.572 351.809 168.297C343.944 180.237 329.661 189.561 318.085 197.711C312.587 201.582 306.527 205.31 302.504 210.819C300.131 214.069 299.282 217.491 299.702 221.514C300.126 225.57 302.426 228.742 305.582 231.192C309.246 234.036 313.858 236.16 318.139 237.884C320.804 235.618 323.006 235.674 326.316 235.508C331.724 235.582 344.333 239.466 348.558 236.26C349.825 233.197 347.816 227.657 349.15 225.668C350.806 228.121 351.133 232.347 350.576 235.222C350.372 236.278 349.989 237.384 349.051 238.008C346.001 240.04 329.84 241.517 325.842 241.438C324.214 241.405 322.572 240.946 321.007 240.53C322.851 246.929 322.578 254.985 319.185 260.851C318.812 261.484 318.417 262.103 318 262.708C323.618 263.514 349.441 269.85 352.28 273.485C352.369 273.599 352.447 273.722 352.531 273.841C357.341 273.028 362.758 271.636 367.612 271.928C365.925 273.107 363.232 273.522 361.234 273.965C350.097 276.432 339.262 276.104 328.048 274.11C324.498 273.478 317.565 271.621 314.326 273.551C313.384 274.112 312.985 275.826 312.883 276.842C312.19 283.73 314.997 291.634 314.517 299.303C313.461 316.142 299.457 327.598 312.998 343.786C330.014 364.129 369.306 354.599 381.987 371.494C382.217 382.886 382.138 394.083 385.048 405.215C389.099 420.712 400.746 428.577 392.853 445.578C390.981 449.61 388.909 453.351 385.806 456.578C382.549 459.967 378.901 463.221 376.058 466.966C372.44 471.732 369.591 477.081 365.964 481.824C369.358 479.208 372.755 476.644 376.282 474.211C376.152 474.357 376.024 474.506 375.892 474.65C371.736 479.207 366.448 483.031 361.638 486.875C354.162 492.766 346.749 498.735 339.4 504.783C309.991 529.379 262.881 575.666 254.465 613.932C251.31 628.279 253.302 642.253 252.982 656.687C252.473 657.427 251.769 658.242 251.389 659.044C244.977 668.139 237.522 676.59 230.535 685.255C223.22 694.361 216.292 703.77 209.768 713.457C169.074 791 164.536 848 165.955 885L169.074 905.938C169.074 905.938 165.216 894.422 164.536 890.645C159.649 863.5 163.357 775.817 213.165 704.283C220.364 693.945 228.275 684.157 236.227 674.396C241.296 668.174 246.795 662.048 251.039 655.214C250.427 643.532 249.435 632.088 250.935 620.41C254.775 590.518 277.026 564.172 296.572 542.445C309.072 528.731 322.488 515.883 336.73 503.989C344.377 497.659 355.122 490.332 361.798 483.453C366.114 479.005 368.48 473.013 372.153 468.064C379.684 457.918 394.175 447.953 393.754 433.715C393.554 426.922 387.64 418.823 385.233 412.415C381.911 403.571 380.6 394.869 380.253 385.461C380.058 380.176 381.366 373.092 376.817 369.362C369.43 363.305 353.308 362.299 344.077 360.585C326.875 357.391 307.845 349.979 305.311 330.302C303.999 320.113 311.817 310.43 312.823 299.581C313.208 295.422 312.537 291.496 311.917 287.403C311.316 283.441 309.51 276.269 312.415 272.929C313.283 271.931 314.627 271.363 315.8 270.811C315.67 269.013 315.421 267.031 315.612 265.236C315.775 263.697 316.544 262.112 317.081 260.661C319.817 253.275 321.882 248.043 318.853 240.186C311.616 236.921 301.424 233.35 298.556 225.191C297.08 220.994 297.602 215.561 299.679 211.653C304.746 202.123 317.902 195.574 326.429 189.281C333.585 183.999 340.852 178.431 346.704 171.703C357.663 159.104 352.285 153.06 357.083 140.326C364.508 120.62 394.721 96.6015 411.265 83.5894Z" fill="#020000"/>
<path d="M318 262.708C323.618 263.514 349.441 269.85 352.28 273.485C352.369 273.599 352.447 273.722 352.531 273.841C345.531 275 339.235 274.942 332.25 273.562C328.217 272.765 319.533 270.685 317.593 266.729C316.931 265.379 317.42 263.967 318 262.708Z" fill="#ECB187"/>
<path d="M318.139 237.884C320.804 235.618 323.006 235.674 326.316 235.508L328.188 236.866C331.203 237.262 334.106 237.88 337.067 238.568C333.542 239.12 330.082 239.721 326.618 240.577C324.146 239.802 321.496 238.749 318.96 238.29L318.139 237.884Z" fill="#ECB187"/>
<path d="M318.139 237.884C320.804 235.618 323.006 235.674 326.316 235.508L328.188 236.866C325.883 236.92 323.778 236.901 321.56 237.606C320.693 237.882 319.861 238.145 318.96 238.29L318.139 237.884Z" fill="#B38354"/>
<path d="M467.722 597.981L469.833 601.638C482.826 629.495 481.942 660.728 484.624 690.749C486.771 714.783 489.096 737.692 493.391 761.475C495.149 771.216 496.501 782.167 500.139 791.353C500.897 793.266 501.028 795.787 502.189 797.439C501.615 793.574 499.536 789.288 499.48 785.473L499.862 786.202L499.578 786.38L500.119 786.79C505.719 801.485 509.136 816.959 514.929 831.593C508.396 842.053 499.158 848.95 491.29 858.164L491.735 860.349C491.007 860.878 489.952 861.445 489.464 862.193C485.521 870.803 476.124 870.73 471.444 875.33C471.659 876.937 471.775 878.079 471.331 879.65C470.849 879.994 470.376 880.353 469.892 880.693C468.044 881.993 466.709 882.809 465.764 884.94C465.699 885.088 465.642 885.24 465.58 885.39C465.686 884.726 465.863 884.229 466.141 883.611C467.351 880.928 467.892 879.832 470.628 878.81L470.387 878.323C466.584 877.508 464.683 878.006 461.236 879.658L460.324 880.1C460.129 879.781 459.842 879.33 459.702 878.996C459.141 877.655 459.431 876.657 460.177 875.459C461.527 873.289 463.713 871.513 465.532 869.719C470.172 865.142 475.722 859.758 478.325 853.737C492.594 820.734 487.996 752.726 483.585 716.458C482.556 707.995 480.174 699.728 479.322 691.23C478.504 683.058 477.734 674.774 477.195 666.584C476.247 652.173 476.056 640.124 470.662 626.433C469.44 625.438 467.305 625.503 465.758 625.352C467.703 623.202 472.098 620.334 473.095 617.839L471.901 617.612C472.302 616.667 473.077 616.442 473.936 615.922C474.654 612.075 468.264 602.889 467.722 597.981Z" fill="#ECB187"/>
<path d="M491.29 858.164L491.735 860.349C491.007 860.878 489.952 861.445 489.464 862.193C484.229 866.255 479.604 871.145 472.987 872.735C480.025 868.798 485.463 863.65 491.29 858.164Z" fill="#482A11"/>
<path d="M500.747 226.763C502.797 220.885 516.559 211.634 522.2 208.919C530.384 204.98 540.168 202.731 548.989 205.89C556.24 208.486 562.79 214.604 565.891 221.667C570.238 231.569 566.582 245.099 562.79 254.709C555.102 274.194 543.475 282.076 525.497 291.594C514.996 296.014 502.085 306.851 490.345 301.733C488.124 300.765 486.21 299.433 484.329 297.927C475.293 315.117 457.328 333.875 438.475 339.826C433.378 341.435 427.711 342.323 422.788 344.246L422.068 343.07L423.375 342.794C437.591 339.402 449.241 334.833 460.045 324.749C465.107 320.157 481.489 303.444 483.547 297.582L482.346 295.481L482.883 295.086C485.074 295.65 485.894 298.088 487.846 299.153C489.438 300.022 491.883 300.664 493.67 301.038C496.537 301.64 499.272 301.583 502.098 300.803C506.855 299.492 511.104 296.604 515.485 294.399C523.598 290.314 531.788 286.842 539.312 281.659C553.91 271.603 561.977 257.255 565.117 239.893C566.521 232.131 566.67 224.699 561.83 217.993C557.739 212.324 550.416 207.152 543.428 206.241C532.467 204.811 520.378 211.057 511.934 217.488C508.232 220.308 504.912 223.583 501.214 226.411L500.747 226.763Z" fill="#020000"/>
<path d="M472.48 930.62C475.588 929.299 477.527 927.783 479.868 925.399C480.977 939.696 488.71 949.248 497.708 959.724C497.292 962.623 497.229 966.684 496.23 969.363C495.945 969.247 495.665 969.115 495.373 969.016C495.146 968.939 494.902 968.917 494.676 968.836C487.799 966.39 479.972 952.806 477.577 946.305C475.798 941.476 474.947 936.072 472.845 931.409L472.48 930.62Z" fill="#ECB187"/>
<path d="M448.908 634.631L449.63 635.53C427.448 646.494 403.751 654.078 379.325 658.032C372.872 659.062 366.344 659.422 359.876 660.308L359.495 659.113C390.032 656.55 421.121 647.34 448.908 634.631Z" fill="#020000"/>
<path d="M423.375 342.794C424.022 341.666 424.505 341.059 425.614 340.353C429.477 337.897 454.517 324.812 458.017 324.216C458.378 324.154 459.623 324.638 460.045 324.749C449.241 334.833 437.591 339.402 423.375 342.794Z" fill="#ECB187"/>
<path d="M471.901 617.612L473.095 617.839C472.098 620.334 467.703 623.202 465.758 625.352C461.005 629.337 455.365 633.144 449.63 635.53L448.908 634.631C451.508 632.248 460.152 628.202 463.82 625.673C466.985 623.49 468.634 619.722 471.901 617.612Z" fill="#A26E42"/>
<path d="M536.764 340.645L537.42 340.482L537.999 341.314C540.946 345.495 544.626 348.559 547.045 353.177C549.216 353.078 551.44 352.867 553.605 353.089L553.393 354.529C551.195 353.961 549.018 354.441 546.762 353.737C543.119 350.834 538.321 345.01 536.764 340.645Z" fill="#482A11"/>
<path d="M546.751 429.297C554.695 430.168 563.231 430.672 570.419 434.454L569.517 435.439C563.132 432.163 555.16 431.009 548.075 430.524L546.751 429.297Z" fill="#2D160B"/>
<path d="M479.255 920.515C479.681 921.756 479.697 922.753 479.72 924.04C479.735 924.849 479.713 924.507 479.868 925.399C477.527 927.783 475.588 929.299 472.48 930.62L467.303 932.247L465.171 931.6C468.941 931.241 474.258 928.493 476.998 925.958C478.851 924.244 479.107 922.926 479.255 920.515Z" fill="#482A11"/>
<path d="M359.876 660.308C354.103 661.47 346.38 660.845 340.441 660.652L340.253 660.274C346.625 659.604 353.095 659.452 359.495 659.113L359.876 660.308Z" fill="#A26E42"/>
<path d="M389.405 953.376C393.853 949.697 401.362 945.957 406.868 943.971C406.564 943.944 406.296 944.182 406.012 944.295L405.827 944.764C400.207 948.153 394.569 951.512 388.914 954.842L389.405 953.376Z" fill="#C79164"/>
<path d="M422.788 344.246C417.478 345.605 411.616 347.342 406.136 347.47C411.072 345.428 416.861 344.288 422.068 343.07L422.788 344.246Z" fill="#8D5D2D"/>
<path d="M524.144 851.938C524.985 859.022 524.072 864.286 522.222 871.122C522.723 865.851 523.311 860.571 523.012 855.27L523.808 854.664L524.144 851.938Z" fill="#2D160B"/>
<path d="M644.008 618.879C644.472 620.473 644.978 621.922 644.872 623.606C644.562 623.711 640.628 634.401 639.685 635.932C641.574 630.332 642.924 624.685 644.008 618.879Z" fill="#A26E42"/>
<path d="M467.722 597.981C466.573 595.555 465.365 593.178 464.708 590.561C466.763 593.67 469.362 597.144 470.809 600.55L469.833 601.638L467.722 597.981Z" fill="#482A11"/>
<path d="M548.075 430.524C543.736 430.097 539.222 430.436 534.949 429.576C534.795 429.545 534.642 429.509 534.489 429.476L534.918 429.783L535.29 428.71L536.4 428.672L536.337 430.154L536.934 428.679C540.211 428.887 543.483 428.944 546.751 429.297L548.075 430.524Z" fill="#B38354"/>
<path d="M252.982 656.688C253.082 658.053 254.074 663.629 253.702 664.333L253.919 665.237C252.876 663.233 252.361 661.03 251.389 659.044C251.769 658.242 252.473 657.428 252.982 656.688Z" fill="#A26E42"/>
<path d="M467.303 932.247C465.222 932.713 462.678 932.804 460.645 932.112C462.11 931.549 463.624 931.631 465.171 931.6L467.303 932.247Z" fill="#B38354"/>
<path d="M383.814 136.573C401.108 135.569 401.331 140.967 414.678 148.151C423.798 153.103 426.31 159.519 429.2 168.977C430.324 170.001 431.273 170.944 432.151 172.189L431.587 172.652C425.666 171.88 420.203 166.163 416.68 161.654C404.864 153.154 398.462 147.713 383.267 147.422C379.866 147.62 371.394 148.642 368.667 146.86C368.04 145.459 367.852 144.225 367.775 142.689C367.692 141.037 367.835 139.419 369.147 138.225C372.165 135.476 379.968 136.505 383.814 136.573Z" fill="#B38354"/>
<path d="M376.769 146.838C393.507 144.537 400.021 147.908 413.295 157.783C414.53 158.702 416.137 160.176 416.68 161.654C404.864 153.154 398.462 147.713 383.267 147.422C381.094 147.137 378.959 146.923 376.769 146.838Z" fill="#2D160B"/>
<path d="M383.814 136.573C401.108 135.569 401.331 140.967 414.678 148.151L413.377 149.156C398.949 141.176 399.06 136.733 380.458 137.345C381.584 137.11 382.697 136.842 383.814 136.573Z" fill="#020000"/>
<path d="M414.678 148.151C423.798 153.103 426.31 159.519 429.2 168.977C427.117 168.442 424.043 158.436 422.333 156.007C420.198 152.972 416.518 150.983 413.377 149.156L414.678 148.151Z" fill="#482A11"/>
<path d="M517.658 235.119C520.122 230.461 522.74 226.891 527.037 223.727L528.83 224.539C527.348 225.68 525.495 226.755 524.82 228.563C526.375 232.277 533.758 231.889 530.908 238.822C530.725 239.267 530.524 239.589 530.282 240.022C529.672 240.879 529.135 241.702 528.653 242.638C532.256 245.588 534.086 248.417 534.665 253.135C535.294 258.251 532.439 263.929 529.177 267.812C529.04 267.975 528.861 268.099 528.704 268.242L528.242 268.155C528.752 267.318 529.277 266.686 529.963 265.987L529.665 264.935L530.918 263.08C531.9 257.697 533.454 252.804 530.239 247.691C527.019 242.571 521.387 243.038 516.38 241.333C515.121 240.905 514.76 240.171 514.186 239.06C514.597 237.716 515.63 237.494 516.802 236.799L517.017 235.468L517.658 235.119Z" fill="#ECB187"/>
<path d="M530.918 263.08C533.143 260.656 533.363 257.123 533.174 253.982C532.432 241.644 523.191 244.302 517.814 239.483C521.565 240.205 525.054 241.374 528.653 242.638C532.256 245.588 534.086 248.417 534.665 253.135C535.294 258.251 532.439 263.929 529.177 267.812C529.04 267.975 528.861 268.099 528.704 268.242L528.242 268.155C528.752 267.318 529.277 266.686 529.963 265.987L529.665 264.935L530.918 263.08Z" fill="#8D5D2D"/>
<path d="M517.658 235.119C520.122 230.461 522.74 226.891 527.037 223.727L528.83 224.539C527.348 225.68 525.495 226.755 524.82 228.563C526.375 232.277 533.758 231.889 530.908 238.822C530.725 239.267 530.524 239.589 530.282 240.022C530.183 239.129 530.083 238.234 529.925 237.349C529.548 235.249 527.835 232.157 525.889 231.107C524.812 230.525 523.897 230.381 522.738 230.864C521.177 231.513 520.202 232.76 519.507 234.247C519.1 235.117 519.001 235.359 518.308 236.095L517.658 235.119Z" fill="#482A11"/>
<path d="M369.705 190.975C369.678 190.905 369.63 190.841 369.625 190.767C369.495 189.05 372.696 186.03 373.546 184.198C377.345 176.015 375.521 172.51 381.901 163.997C379.421 169.778 377.54 175.024 376.349 181.22L376.507 181.795C377.467 185.369 377.197 188.772 379.696 191.73C389.616 193.345 399.359 190.59 408.87 194.659L409.023 195.16C405.047 195.975 400.317 196.53 396.241 196.4C394.58 196.52 392.916 196.614 391.251 196.684C383.733 196.984 375.498 196.34 369.705 190.975Z" fill="url(#paint0_linear_137_4251)"/>
<path d="M369.705 190.975C369.678 190.905 369.63 190.841 369.625 190.767C369.495 189.05 372.696 186.03 373.546 184.198C377.345 176.015 375.521 172.51 381.901 163.997C379.421 169.778 377.54 175.024 376.349 181.22L376.507 181.795C377.467 185.369 377.197 188.772 379.696 191.73L376.874 191.991C375.204 190.681 374.091 189.699 373.042 187.84L372.407 187.4C372.229 189.326 373.247 190.282 374.384 191.689C372.626 192.078 370.936 189.23 369.705 190.975Z" fill="#8D5D2D"/>
<path d="M373.042 187.84C374.572 185.782 375.414 183.58 376.349 181.22L376.507 181.795C377.467 185.369 377.197 188.772 379.696 191.73L376.874 191.991C375.204 190.681 374.091 189.699 373.042 187.84Z" fill="#ECB187"/>
<path d="M369.705 190.975C370.936 189.23 372.626 192.078 374.384 191.689C373.247 190.282 372.229 189.326 372.407 187.4L373.042 187.84C374.091 189.699 375.204 190.681 376.874 191.991C380.466 194.38 384.738 194.841 388.957 195.112C390.994 195.248 394.931 194.938 396.534 196.005L396.241 196.4C394.58 196.52 392.916 196.614 391.251 196.684C383.733 196.984 375.498 196.34 369.705 190.975Z" fill="#020000"/>
<path d="M388.957 195.112C395.603 194.803 402.376 194.895 409.023 195.16C405.047 195.975 400.317 196.53 396.241 196.4L396.534 196.005C394.931 194.938 390.994 195.248 388.957 195.112Z" fill="#482A11"/>
<path d="M509.912 241.51C509.199 240.354 508.982 238.959 509.308 237.641C509.486 236.895 509.603 236.733 509.911 236.109L510.742 235.82C512.287 237.347 512.198 240.109 512.39 242.162C515.04 245.494 519.046 249.44 518.525 254.063C518.257 256.443 516.758 258.312 514.9 259.718C511.298 262.442 506.425 262.981 503.407 266.386L503.423 267.036C505.389 267.813 507.314 268.582 509.22 269.501C510.523 270.13 511.538 270.381 512.417 271.626L511.87 271.938C508.227 270.767 504.935 268.635 501.544 266.891C501.264 266.056 501.144 265.201 501.487 264.375C502.735 261.375 508.11 260.166 510.929 258.899C512.965 257.984 515.092 256.552 515.8 254.316C517.267 249.683 511.966 245.87 510.134 242.002C510.057 241.839 509.986 241.674 509.912 241.51Z" fill="#ECB187"/>
<path d="M509.912 241.51C512.913 244.469 517.261 248.26 517.425 252.768C517.499 254.821 516.674 256.614 515.262 258.076C512.449 260.99 508.405 262.093 504.635 263.183C503.649 264.454 502.714 265.786 501.544 266.891C501.264 266.056 501.144 265.201 501.487 264.375C502.735 261.375 508.11 260.166 510.929 258.899C512.965 257.984 515.092 256.552 515.8 254.316C517.267 249.683 511.966 245.87 510.134 242.002C510.057 241.839 509.986 241.674 509.912 241.51Z" fill="#482A11"/>
<path d="M527.037 223.727C532.073 220.178 537.809 217.911 544.077 219.025C547.969 219.7 551.432 221.896 553.702 225.129C557.784 230.953 557.37 238.817 556.059 245.487C554.93 251.542 552.542 257.292 549.048 262.365L548.417 262.201C550.215 259.115 551.733 255.38 552.815 251.966C555.118 244.698 556.737 234.252 552.896 227.304C551.185 224.21 548.406 221.909 544.943 221.079C539.255 219.717 533.644 221.605 528.83 224.539L527.037 223.727Z" fill="#020000"/>
<path d="M403.229 460.237C421.481 455.268 439.681 450.111 457.827 444.768L457 446.097C446.662 449.439 436.249 452.544 425.769 455.409C418.692 457.306 411.048 458.72 404.175 461.211L403.229 460.237Z" fill="#020000"/>
<path d="M450.609 377.013L451.155 378.144C442.737 395.034 433.406 411.62 424.024 427.994L423.311 427.576C426.555 422.408 429.145 416.455 432.039 411.052C438.171 399.675 444.362 388.328 450.609 377.013Z" fill="#482A11"/>
<path d="M276.504 881.632L277.214 882.772C272.544 896.476 268.397 921.537 269.019 936.153L267.89 938.667C268.114 918.891 270.078 900.461 276.504 881.632Z" fill="#2D160B"/>
<path d="M262.435 769.931L262.662 770.478C267.513 781.962 274.481 793.74 281.966 803.732C282.854 804.918 287.987 810.005 287.925 810.951C275.458 801.099 268.27 784.914 261.909 770.749L262.435 769.931Z" fill="#663D1A"/>
<path d="M297.309 625.618L302.874 627C304.937 628.976 306.576 631.011 306.742 633.996C306.846 635.865 306.209 637.568 304.911 638.919C302.301 641.635 299.555 641.661 296.041 641.832C293.073 640.447 290.333 638.667 288.992 635.533C287.685 632.477 288.371 629.577 289.54 626.618L289.954 626.377L290.441 626.693C289.537 628.903 289.027 630.579 289.468 632.969C289.949 635.569 291.691 637.893 293.935 639.254C296.112 640.575 298.912 641.121 301.382 640.361C302.918 639.888 304.045 638.903 304.778 637.466C305.66 635.74 305.605 632.05 304.648 630.348C303.84 628.91 301.687 628.114 300.086 628.067C299.779 628.058 299.473 628.101 299.166 628.118C298.539 627.467 297.961 626.907 297.532 626.1C297.449 625.944 297.383 625.779 297.309 625.618Z" fill="#A26E42"/>
<path d="M469.157 477.746L469.693 478.702C462.675 490.573 460.931 504.072 461.116 517.594C460.669 517.173 460.682 517.287 460.487 516.678C459.733 514.315 460.101 511.06 460.218 508.603C460.779 496.737 463.365 488.19 469.157 477.746Z" fill="#663D1A"/>
<path d="M517.269 620.726C523.228 627.348 530.006 633.225 536.579 639.224C539.17 641.588 543.03 644.337 544.968 647.213C540.121 645.371 520.49 625.932 516.793 621.634L517.269 620.726Z" fill="#482A11"/>
<path d="M438.162 746.705L438.525 747.55C429.537 753.508 420.844 757.447 410.444 760.253L410.527 759.17C420.474 756.573 429.351 751.846 438.162 746.705Z" fill="#2D160B"/>
<path d="M469.157 477.746C473.297 470.657 479.849 462.499 487.332 458.799C488.774 458.086 490.173 457.186 491.725 456.741C489.964 458.8 486.822 459.959 484.601 461.547C478.573 465.857 473.553 472.457 469.693 478.702L469.157 477.746Z" fill="#B38354"/>
<path d="M539.628 267.074L539.695 267.719C535.501 272.537 524.104 275.415 517.996 277.187L518.043 276.761C524.89 273.017 533.138 271.345 539.628 267.074Z" fill="#8D5D2D"/>
<path d="M362.287 819.824C370.374 815.748 377.537 810.048 384.611 804.449L384.851 804.789C378.355 811.425 370.977 816.596 362.664 820.72L362.287 819.824Z" fill="#482A11"/>
<path d="M610.033 873.894C609.792 882.487 607.862 889.771 604.593 897.708L603.564 897.479C606.348 891.139 609.36 881.951 608.946 875.01L610.033 873.894Z" fill="#663D1A"/>
<path d="M276.504 881.632C278.431 874.792 283.387 862.508 288.008 857.132C284.129 865.628 280.513 874.036 277.214 882.772L276.504 881.632Z" fill="#A26E42"/>
<path d="M342.837 769.938C346.171 768.164 362.98 757.536 364.738 757.235C358.502 762.804 350.439 767.304 343.012 771.101L342.837 769.938Z" fill="#663D1A"/>
<path d="M438.409 694.246L439.034 694.985C433.152 698.638 427.312 701.652 420.88 704.249L419.086 703.719C425.838 701.132 432.089 697.723 438.409 694.246Z" fill="#2D160B"/>
<path d="M450.609 377.013C452.704 371.734 459.346 359.657 463.074 355.636C459.358 363.071 455.529 371.095 451.155 378.144L450.609 377.013Z" fill="#B38354"/>
<path d="M438.162 746.705C440.606 744.395 443.547 742.54 446.184 740.444C450.26 737.203 452.376 731.974 454.775 727.501C454.713 731.758 449.658 738.34 446.734 741.187C444.253 743.602 441.417 745.659 438.525 747.55L438.162 746.705Z" fill="#C79164"/>
<path d="M516.793 621.634C514.506 619.445 502.251 604.468 501.842 602.371C507.51 607.559 512.288 614.812 517.269 620.726L516.793 621.634Z" fill="#B38354"/>
<path d="M500.573 273.052C505.552 272.587 510.109 278.363 514.954 279.489C515.769 279.678 516.504 279.969 517.285 280.266C510.504 280.877 506.915 276.052 501.208 273.345C500.997 273.245 500.784 273.149 500.573 273.052Z" fill="#B38354"/>
<path d="M424.024 427.994C422.317 432.688 418.017 438.745 414.518 442.393C417.512 437.503 420.08 432.311 423.311 427.576L424.024 427.994Z" fill="#C79164"/>
<path d="M442.677 691.202L443.273 690.733C447.076 687.702 449.786 683.743 453.423 680.582C453.285 682.852 448.332 687.868 446.496 689.507C445.546 690.344 444.562 691.141 443.546 691.896L442.677 691.202Z" fill="#ECB187"/>
<path d="M342.837 769.938L343.012 771.101C337.067 773.83 331.41 776.446 324.962 777.755C330.585 774.655 337.054 772.918 342.837 769.938Z" fill="#B38354"/>
<path d="M269.019 936.153C268.97 942.463 268.779 948.845 268.203 955.13C267.928 950.354 266.746 943.28 267.89 938.667L269.019 936.153Z" fill="#A26E42"/>
<path d="M470.904 440.779L470.001 442.047C465.676 443.405 461.36 444.855 457 446.097L457.827 444.768C462.108 443.284 466.58 442.163 470.904 440.779Z" fill="#663D1A"/>
<path d="M381.826 260.826C382.32 261.272 382.648 261.633 383.015 262.219C385.32 265.905 385.246 271.409 384.374 275.482C383.732 275.108 384.025 273.783 384.017 273.03C383.97 268.666 383.078 264.989 381.826 260.826Z" fill="#B38354"/>
<path d="M388.156 465.54C393.058 463.405 398.133 461.827 403.229 460.237L404.175 461.211C398.799 462.517 393.572 464.321 388.156 465.54Z" fill="#8D5D2D"/>
<path d="M420.88 704.249C416.378 705.653 411.96 706.659 407.258 707.102L419.086 703.719L420.88 704.249Z" fill="#A26E42"/>
<path d="M548.417 262.201L549.048 262.365C547.634 265.13 544.592 268.574 541.671 269.668C542.68 267.302 546.577 264.234 548.417 262.201Z" fill="#C79164"/>
<path d="M603.564 897.479L604.593 897.708C603.132 901.052 601.31 904.369 599.121 907.288C599.151 904.818 602.41 899.784 603.564 897.479Z" fill="#C79164"/>
<path d="M261.909 770.749C259.676 766.896 258.373 762.377 257.619 758.016L262.435 769.931L261.909 770.749Z" fill="#C79164"/>
<path d="M470.904 440.779C473.86 439.764 476.771 438.57 479.909 438.343L480.115 438.597C476.801 439.924 473.404 440.972 470.001 442.047L470.904 440.779Z" fill="#C79164"/>
<path d="M362.287 819.824L362.664 820.72C359.374 822.508 354.495 824.595 350.755 824.764C354.669 823.347 358.476 821.502 362.287 819.824Z" fill="#B38354"/>
<path d="M293.167 630.336C293.428 632.193 293.689 633.842 294.699 635.459C295.316 636.447 295.189 636.24 295.068 637.286C293.888 636.362 292.725 635.304 292.394 633.769C292.075 632.291 292.459 631.597 293.167 630.336Z" fill="#C79164"/>
<path d="M400.93 760.848L410.527 759.17L410.444 760.253C407.265 760.888 404.155 761.005 400.93 760.848Z" fill="#8D5D2D"/>
<path d="M442.677 691.202L443.546 691.896L439.034 694.985L438.409 694.246C439.82 693.216 441.243 692.201 442.677 691.202Z" fill="#8D5D2D"/>
<path d="M484.026 288.729L484.542 288.753C485.157 290.15 485.854 291.482 486.576 292.827C485.976 292.525 485.411 292.119 484.844 291.758C484.125 290.637 484.034 290.055 484.026 288.729Z" fill="#ECB187"/>
<path d="M608.946 875.01C608.978 873.247 609.031 871.78 609.582 870.097C610.166 871.389 610.032 872.502 610.033 873.894L608.946 875.01Z" fill="#C79164"/>
</g>
<defs>
<linearGradient id="paint0_linear_137_4251" x1="386.495" y1="189.254" x2="402.492" y2="197.772" gradientUnits="userSpaceOnUse">
<stop stop-color="#D38C5A"/>
<stop offset="1" stop-color="#F6B588"/>
</linearGradient>
</defs>
</svg>
