<svg width="528" height="890" viewBox="0 0 528 890" fill="none" xmlns="http://www.w3.org/2000/svg">
<path d="M52.879 305.883C45.089 284.613 37.598 261.885 34.463 239.383C33.116 229.708 33.321 219.159 33.633 209.408C34.699 176.105 40.878 144.3 54.921 113.945C61.758 99.1666 70.395 83.7947 81.12 71.4737C101.974 47.5177 140.781 26.6849 170.315 15.8665C218.811 -2.14154 271.653 -4.89274 321.756 7.98176C333.784 11.0132 346.037 14.6583 357.301 19.892C376.252 28.697 398.97 43.8357 406.26 64.5407C406.998 66.6347 407.567 68.8207 408.08 70.9797C420.193 68.9277 431.055 72.5987 440.944 79.5627C447.221 83.9837 451.767 89.3616 456.469 95.3567C473.671 117.287 483.441 143.92 488.022 171.249C491.243 190.464 492.995 215.667 491.242 234.873C489.374 255.352 480.394 287.065 472.667 306.239C478.396 303.209 484.418 300.971 490.931 303.005C496.563 304.764 500.598 309.466 503.123 314.619C509.522 327.677 507.554 361.959 505 376.203C503.266 385.873 500.395 395.421 497.148 404.685C490.459 423.768 475.993 457.261 457.194 466.014C452.855 468.035 449.186 468.329 444.549 467.749C443.041 466.713 441.54 465.74 440.237 464.449C439.437 474.035 437.691 483.581 436.168 493.077C434.672 502.4 433.496 511.97 430.704 521.013C427.72 530.68 422.376 539.675 420.539 549.704C417.882 564.206 418.162 579.238 417.291 593.904C416.238 611.639 414.696 629.343 414.684 647.118C414.681 652.509 414.399 658.211 415.148 663.554C415.568 666.557 416.317 668.155 418.286 670.488C422.247 675.179 427.63 679.197 432.352 683.117C452.242 699.856 473.826 714.474 496.751 726.733C500.344 728.642 527.156 740.812 527.935 741.857C527.645 742.573 527.376 743.296 527.031 743.987C505.074 780.692 475.091 814.554 439.371 838.367C369.655 884.844 280.12 898.788 198.496 882.443C127.153 868.156 70.178 835.229 24.403 778.195C19.156 771.657 13.964 764.935 9.30099 757.964C6.41999 753.657 3.87099 749.093 0.96199 744.827C0.85199 744.667 0.737 744.51 0.625 744.352L0 742.86C1.069 740.47 5.05399 739.279 7.44199 738.385C38.898 726.608 73.562 703.299 97.995 680.369C102.761 675.897 108.106 671.073 111.742 665.648C113.158 641.035 110.371 617.241 109.101 592.741C108.381 578.864 109.275 564.191 106.692 550.54C104.589 539.425 97.965 530.039 95.124 519.181C90.502 501.515 89.221 482.739 85.652 464.805C82.161 467.253 79.157 468.264 74.859 467.605C64.599 466.034 55.834 455.571 50.269 447.593C36.5 427.853 24.563 398.897 20.519 375.107C18.997 366.153 18.77 356.984 18.508 347.917C18.292 340.448 17.923 332.486 19.282 325.109C20.6 317.959 23.95 309.446 30.092 305.124C34.415 302.081 39.624 302 44.634 302.984C47.539 303.555 50.219 304.598 52.879 305.883Z" fill="#090605"/>
<path d="M109.328 550.369C124.387 577.978 168.744 619.744 194.949 636.674C204.345 642.744 214.372 647.755 225.125 650.932C237.051 654.456 247.484 653.906 259.723 653.937C286.746 654.006 300.821 654.941 325.919 641.22C351.333 627.327 405.035 578.102 417.217 551.395C415.473 567.3 415.115 583.101 414.154 599.05C413.003 618.147 411.759 636.992 411.935 656.146C412.011 664.397 412.047 672.908 413.214 681.088C414.688 690.869 416.833 700.537 419.633 710.023C420.987 714.578 423.208 719.329 424.049 723.946L424.661 723.075C418.915 708.59 415.772 685.861 414.866 670.203C442.956 700.312 488.433 729.736 527.031 743.987C505.074 780.692 475.091 814.554 439.371 838.367C369.655 884.844 280.12 898.788 198.496 882.443C127.153 868.156 70.178 835.229 24.403 778.195C19.156 771.657 13.964 764.935 9.30099 757.964C6.41999 753.657 3.87099 749.093 0.96199 744.827C0.85199 744.667 0.737 744.51 0.625 744.352C7.118 742.697 13.947 739.113 20.038 736.3C54.558 720.58 85.66 698.242 111.583 670.551C111.078 685.244 107.776 702.366 103.63 716.451L104.42 717.361C113.799 687.992 116.437 660.149 114.719 629.451C114.032 617.168 112.519 604.923 111.936 592.637C111.281 578.814 112.525 563.816 109.328 550.369Z" fill="#F7C2A8"/>
<path d="M424.661 723.075C426.064 726.773 428.366 731.194 428.965 735.058L428.554 735.235C426.785 732.334 424.909 727.279 424.049 723.946L424.661 723.075Z" fill="#B78462"/>
<path d="M103.63 716.451L104.42 717.361C103.755 719.412 102.984 721.432 102.248 723.459L101.669 723.905L101.537 724.933L101.507 724.251L101.662 724.601L101.811 724.232C101.198 723.003 103.193 717.978 103.63 716.451Z" fill="#564742"/>
<path d="M454.02 804.872L453.96 805.88C427.337 814.772 398.523 819.793 370.891 824.294C353.086 827.195 333.639 827.433 317.05 834.979C311.768 837.366 306.913 840.603 302.677 844.561C301.084 846.067 299.601 847.991 297.843 849.275C297.302 849.669 297.563 849.382 297.178 850.072C297.294 849.895 297.446 849.736 297.527 849.54C297.589 849.391 297.574 849.22 297.597 849.06C303.868 840.454 311.664 834.982 321.551 831.131C338.004 824.723 365.113 822.793 383.252 819.895C407.093 816.152 430.716 811.138 454.02 804.872Z" fill="#090605"/>
<path d="M76.7129 804.805C82.9059 804.988 91.4759 808.263 97.6089 809.845C106.9 812.287 116.269 814.423 125.701 816.248C138.541 818.773 151.449 820.939 164.41 822.745C173.522 823.979 182.745 824.688 191.799 826.289C208.724 829.284 224.763 836.179 234.883 850.544C232.805 849.292 230.921 847.072 229.132 845.412C224.235 840.867 219.069 837.064 212.921 834.363C199.288 828.375 185.058 827.635 170.565 825.608C145.467 822.097 120.299 818.381 95.8909 811.389C89.4769 809.551 82.7429 807.678 76.7129 804.805Z" fill="#090605"/>
<path d="M243.303 721.035L243.899 721.405C250.904 725.687 257.696 727.546 265.896 725.567C269.861 724.61 273.279 722.846 277.393 722.404C278.135 721.83 278.328 721.366 279.295 721.464L279.065 722.415C278.841 722.523 278.613 722.623 278.391 722.737C276.626 723.647 275.374 725.466 273.773 726.665C267.945 730.982 260.424 732.3 253.475 730.221C249.017 728.932 246.054 725.14 242.836 722.046L243.303 721.035Z" fill="#E2A487"/>
<path d="M339.496 684.628L340.159 685.646C337.281 691.108 335.412 697.684 333.03 703.433C328.208 715.073 322.808 726.64 318.624 738.518L317.742 738.252C323.536 719.953 332.677 702.573 339.496 684.628Z" fill="#15100F"/>
<path d="M202.998 735.414C198.26 722.986 192.227 710.706 186.962 698.464C185.065 694.055 182.258 689.307 181.544 684.537C184.973 688.128 200.244 726.565 203.842 735.02L202.998 735.414Z" fill="#15100F"/>
<path d="M314.359 747.742L315.181 748.49C310.387 761.024 306.051 773.957 300.083 785.99L299.182 785.716C304.393 773.181 309.563 760.434 314.359 747.742Z" fill="#15100F"/>
<path d="M208.334 747.418C213.316 759.023 216.609 771.413 222.225 782.719L221.401 783.044C215.269 772.261 212.336 760.173 207.817 748.708L208.334 747.418Z" fill="#15100F"/>
<path d="M339.496 684.628C340.548 681.199 342.176 677.945 342.946 674.448L343.925 673.475L344.602 673.778C343.573 677.786 341.668 681.784 340.159 685.646L339.496 684.628Z" fill="#B78462"/>
<path d="M203.842 735.02C205.447 739.126 206.989 743.217 208.334 747.418L207.817 748.708C206.4 744.167 204.811 739.81 202.998 735.414L203.842 735.02Z" fill="#564742"/>
<path d="M314.359 747.742C315.453 744.567 316.58 741.404 317.742 738.252L318.624 738.518C317.346 741.819 316.129 745.077 315.181 748.49L314.359 747.742Z" fill="#564742"/>
<path d="M454.02 804.872C457.072 804.007 460.134 803.177 463.206 802.382L464.17 802.699C460.791 803.81 457.411 805.02 453.96 805.88L454.02 804.872Z" fill="#564742"/>
<path d="M296.33 792.216L297.002 792.432C295.879 794.889 294.708 797.323 293.488 799.733L292.617 799.74L293.223 800.154L292.873 800.632L292.417 800.733L292.527 800.924L293.246 800.178L292.759 799.456C293.752 796.997 295.132 794.588 296.33 792.216Z" fill="#AD7C59"/>
<path d="M174.264 670.175C176.635 671.4 177.633 675.732 178.459 678.152C176.304 676.085 175.375 672.89 174.264 670.175Z" fill="#B78462"/>
<path d="M296.33 792.216C297.224 790.013 298.145 787.857 299.182 785.716L300.083 785.99L297.002 792.432L296.33 792.216Z" fill="#564742"/>
<path d="M463.206 802.382C464.895 801.579 467.867 799.905 469.721 800.342L469.288 800.657L469.772 800.187C468.456 801.545 465.956 802.106 464.17 802.699L463.206 802.382Z" fill="#E2A487"/>
<path d="M222.225 782.719C223.287 784.574 224.285 786.407 225.147 788.364L224.415 788.435L221.401 783.044L222.225 782.719Z" fill="#564742"/>
<path d="M242.836 722.046C242.712 721.936 242.584 721.831 242.465 721.716C241.531 720.807 240.294 719.57 240.248 718.211C241.668 718.63 242.358 719.921 243.303 721.035L242.836 722.046Z" fill="#E2A487"/>
<path d="M225.147 788.364C226.1 789.877 227.112 791.268 227.501 793.041C226.064 792.159 225.205 789.896 224.415 788.435L225.147 788.364Z" fill="#AD7C59"/>
<path d="M66.554 800.841C68.932 801.166 70.724 801.894 72.869 802.926C70.333 802.917 68.703 802.124 66.554 800.841Z" fill="#E2A487"/>
<path d="M47.0938 279.795C46.9818 279.48 46.8648 279.167 46.7578 278.85C42.3708 265.818 38.5618 250.938 37.0208 237.276C35.9438 227.729 36.1818 217.914 36.5248 208.328C37.8118 172.375 45.6748 138.226 62.0908 106.101C68.0318 94.4737 74.9228 82.7687 83.5988 72.9707C106.694 46.8877 147.661 26.1675 180.512 15.5945C227.956 -0.192329 279.073 -1.21853 327.112 12.6513C339.209 16.0879 351.358 20.057 362.55 25.8501C382.475 36.1646 400.035 51.1547 406.931 73.0597L408.068 73.1557C418.854 71.4367 431.057 75.8767 439.672 82.1547C467.277 102.271 481.225 145.591 486.179 178.3C488.735 195.182 490.133 216.975 488.605 233.945C487.338 248.027 482.119 270.529 477.305 283.904C476.442 271.463 473.352 259.397 470.458 247.313C469.099 241.638 468.143 235.864 466.725 230.209C463.971 219.231 459.827 207.852 454.784 197.731C454.896 196.917 454.981 196.128 454.958 195.303C454.698 186.225 448.749 173.631 442.038 167.579L440.75 167.336C440.748 167.555 440.749 167.774 440.745 167.993C440.728 168.943 440.756 168.567 440.588 169.518C442.482 176.568 444.557 188.044 443.948 195.255C443.815 197.555 443.673 199.844 443.428 202.135C443.668 220.153 446.627 238.374 447.694 256.407C448.627 272.178 449.645 288.05 449.917 303.842C450.115 315.409 449.467 327.119 450.152 338.657C450.32 341.484 450.412 344.562 451.735 347.112C452.914 347.943 452.937 347.945 454.377 347.856C460.548 344.061 466.043 324.41 467.793 317.081C468.141 315.62 468.476 314.155 468.797 312.688C473.415 308.587 480.504 304.752 486.786 305.014C490.926 305.186 494.269 307.391 496.99 310.399C506.733 321.169 505.67 343.455 504.68 357.097C502.447 387.867 486.002 438.68 462.135 459.042C458.38 462.246 453.583 465.311 448.457 464.993C445.244 464.793 443.364 463.384 441.278 461.051C443.785 448.593 454.555 377.976 452.651 370.311C450.123 375.523 447.955 400.65 446.691 408.49C442.531 434.285 438.818 460.147 434.401 485.888C432.409 497.493 430.909 509.261 427.729 520.616C425.793 527.528 422.884 534.025 419.826 540.5C407.957 565.623 391.037 583.481 370.994 602.271C352.106 619.98 332.696 637.695 307.787 646.322C302.16 648.271 296.299 649.767 290.379 650.468C280.527 651.635 244.035 651.904 234.917 650.418C226.012 648.967 217.383 645.809 209.317 641.823C180.863 627.76 139.317 588.254 120.45 562.448C112.024 550.923 103.831 536.401 99.2528 522.818C94.8918 509.876 93.8398 495.201 91.5568 481.752L76.9068 395.554C75.4348 386.819 75.4508 374.36 71.5518 366.666C72.9688 375.374 73.4178 384.156 74.4628 392.904C75.6978 403.25 77.4478 413.575 78.9448 423.889C80.2388 432.801 81.5358 441.815 83.1138 450.68C83.5388 453.069 84.7948 455.326 85.1328 457.639C85.3298 458.99 85.0568 460.374 84.2768 461.503C82.9788 463.381 80.6728 464.355 78.4748 464.649C73.3958 465.329 68.3788 462.173 64.5698 459.115C44.2458 442.801 25.0008 394.466 22.3538 368.47C20.7148 352.369 17.9898 323.369 28.6998 310.341C31.2298 307.265 34.5528 305.214 38.5868 304.989C44.6178 304.653 51.7718 307.8 56.6988 311.126L56.9988 311.706C60.2578 318.159 68.8758 343.729 72.8388 346.834C75.0858 344.865 75.2468 337.789 75.4358 334.838C76.5208 317.833 75.9848 300.799 77.2208 283.77C78.7878 262.2 82.3668 239.391 82.0018 217.832L80.8288 216.814C80.6908 214.889 80.7798 212.928 80.7918 210.997L79.8708 211.273C79.5358 212.847 80.0738 214.459 79.7978 215.841C79.3288 218.184 75.5578 220.754 75.4708 224.514C63.3658 244.567 59.5488 255.467 53.9788 277.739C52.8788 282.141 51.4508 286.478 50.4808 290.907C48.9878 287.312 48.0758 283.552 47.0938 279.795Z" fill="#F7C2A8"/>
<path d="M47.0938 279.795C46.9818 279.48 46.8648 279.167 46.7578 278.85C42.3708 265.818 38.5618 250.938 37.0208 237.276C35.9438 227.729 36.1818 217.914 36.5248 208.328C37.8118 172.375 45.6748 138.226 62.0908 106.101C68.0318 94.4737 74.9228 82.7687 83.5988 72.9707C106.694 46.8877 147.661 26.1675 180.512 15.5945C227.956 -0.192329 279.073 -1.21853 327.112 12.6513C339.209 16.0879 351.358 20.057 362.55 25.8501C382.475 36.1646 400.035 51.1547 406.931 73.0597L408.068 73.1557C418.854 71.4367 431.057 75.8767 439.672 82.1547C467.277 102.271 481.225 145.591 486.179 178.3C488.735 195.182 490.133 216.975 488.605 233.945C487.338 248.027 482.119 270.529 477.305 283.904C476.442 271.463 473.352 259.397 470.458 247.313C469.099 241.638 468.143 235.864 466.725 230.209C463.971 219.231 459.827 207.852 454.784 197.731C454.896 196.917 454.981 196.128 454.958 195.303C454.698 186.225 448.749 173.631 442.038 167.579C440.424 164.537 439.786 161.268 439.086 157.925L438 157.865C437.35 154.156 436.345 150.669 434.946 147.171C432.348 140.68 429.054 134.528 425.712 128.398C418.748 115.624 412.591 105.384 398.729 99.5447C392.217 96.8027 385.295 95.2087 378.383 93.8467C338.849 86.0577 307.634 98.1057 269.405 97.5817C259.148 97.4087 248.913 96.5877 238.76 95.1227C220.754 92.4167 202.732 88.2767 184.458 87.9107C175.423 87.7297 166.135 88.8557 157.216 90.2977C148.18 91.7597 139.268 93.7107 130.778 97.2187C124.293 99.8987 118.094 103.345 113.006 108.235C101.449 119.343 94.3279 140.062 88.2209 154.744C89.4379 162.354 85.4999 172.087 84.2929 179.71C84.4189 182.862 84.4909 189.717 83.0699 192.467L82.6119 192.349C81.2439 196.342 81.4239 202.193 81.1379 206.449L80.7918 210.997L79.8708 211.273C79.5358 212.847 80.0738 214.459 79.7978 215.841C79.3288 218.184 75.5578 220.754 75.4708 224.514C63.3658 244.567 59.5488 255.467 53.9788 277.739C52.8788 282.141 51.4508 286.478 50.4808 290.907C48.9878 287.312 48.0758 283.552 47.0938 279.795Z" fill="#B78462"/>
<path d="M136.688 55.0406C149.465 52.0616 166.45 52.9336 179.28 55.3606C188.33 57.0726 196.987 60.3526 205.673 63.3296C222.814 69.2056 240.824 75.4066 256.813 83.9866L256.535 84.0616C265.832 88.5786 278.713 92.7466 289.04 93.3556C292.958 93.5866 297.065 93.1916 300.977 92.8226C307.618 92.1956 314.19 90.9106 320.86 90.6166C317.003 89.6636 314.261 88.5636 311.072 86.0656C312.417 86.1816 313.161 86.4706 314.337 87.1276C314.509 87.1976 314.68 87.2696 314.853 87.3366C321.092 89.7656 335.001 88.7966 342.165 88.8406C364.002 88.9746 400.953 91.4676 416.151 108.861C425.021 119.011 431.154 133.114 437.568 144.956L436.28 146.112L436.384 146.697C437.324 150.418 438.381 154.152 439.086 157.925L438 157.865C437.35 154.156 436.345 150.669 434.946 147.171C432.348 140.68 429.054 134.528 425.712 128.398C418.748 115.624 412.591 105.384 398.729 99.5447C392.217 96.8027 385.295 95.2087 378.383 93.8467C338.849 86.0577 307.634 98.1057 269.405 97.5817C259.148 97.4087 248.913 96.5877 238.76 95.1227C220.754 92.4167 202.732 88.2767 184.458 87.9107C175.423 87.7297 166.135 88.8557 157.216 90.2977C148.18 91.7597 139.268 93.7107 130.778 97.2187C124.293 99.8987 118.094 103.345 113.006 108.235C101.449 119.343 94.3279 140.062 88.2209 154.744L87.791 154.631C87.505 145.006 101.262 117.802 107.656 110.163C129.251 84.3606 177.488 83.1036 208.218 86.8086C232.507 89.7376 255.666 96.6686 280.485 94.4276C272.433 91.6086 264.062 89.8096 256.143 86.5296C250.776 84.3076 245.561 81.6786 240.252 79.3176C207.406 64.7146 174.705 51.5916 137.94 55.5586L136.688 55.0406Z" fill="#090605"/>
<path d="M81.4348 175.899C82.0358 175.235 82.2728 174.922 83.1178 174.572L83.8698 175.174C83.9368 176.698 83.8899 178.235 84.2929 179.71C84.4189 182.862 84.4909 189.717 83.0699 192.467L82.6119 192.349C81.2439 196.342 81.4239 202.193 81.1379 206.449L80.7918 210.997L79.8708 211.273C79.5358 212.847 80.0738 214.459 79.7978 215.841C79.3288 218.184 75.5578 220.754 75.4708 224.514C63.3658 244.567 59.5488 255.467 53.9788 277.739C52.8788 282.141 51.4508 286.478 50.4808 290.907C48.9878 287.312 48.0758 283.552 47.0938 279.795L48.1948 278.026C49.7158 261.073 54.8588 245.838 59.5358 229.639C62.4158 219.661 64.6538 209.688 68.5018 199.979C70.7528 194.298 73.8498 188.768 76.5878 183.297C77.4748 180.554 79.6658 178.133 81.4348 175.899Z" fill="url(#paint0_linear_144_225)"/>
<path d="M76.5878 183.297L76.9958 184.064C64.9438 210.079 58.8788 235.25 52.3438 263.034C51.9818 264.574 49.0308 278.42 48.5308 278.721L48.1948 278.026C49.7158 261.073 54.8588 245.838 59.5358 229.639C62.4158 219.661 64.6538 209.688 68.5018 199.979C70.7528 194.298 73.8498 188.768 76.5878 183.297Z" fill="#15100F"/>
<path d="M81.4348 175.899C81.2808 177.289 81.1519 178.647 81.1319 180.047C80.4309 180.838 80.8819 180.515 79.6949 180.888L80.6469 180.29L80.2899 180.413L80.6509 179.798C78.7719 180.991 78.1088 182.165 76.9958 184.064L76.5878 183.297C77.4748 180.554 79.6658 178.133 81.4348 175.899Z" fill="#92684B"/>
<path d="M204.951 28.3071C222.923 31.8238 239.515 36.9036 255.563 45.9527C264.959 51.2507 274.027 57.5137 282.862 63.7067C291.735 69.9257 308.095 84.1717 318.293 86.1977L318.698 86.6237C316.984 86.5337 315.838 86.2096 314.337 87.1276C313.161 86.4706 312.417 86.1816 311.072 86.0656C310.466 85.7636 310.694 85.9357 310.218 85.4737C304.856 80.2667 297.596 76.6067 291.549 72.1997C259.738 49.0187 244.291 38.3895 205.016 29.205L204.951 28.3071Z" fill="#15100F"/>
<path d="M437.568 144.956L438.04 145.747C442.237 152.699 447.559 158.93 452.12 165.643C459.573 176.615 465.296 188.443 470.329 200.678L469.46 200.993C465.492 189.868 455.52 172.276 448.515 162.518C444.639 157.12 440.278 152.089 436.384 146.697L436.28 146.112L437.568 144.956Z" fill="#15100F"/>
<path d="M192.224 26.6872C196.549 26.3507 200.755 27.3753 204.951 28.3071L205.016 29.205C200.814 28.8505 196.398 27.4789 192.224 26.6872Z" fill="#7C4C34"/>
<path d="M137.94 55.5586C135.495 56.1466 133.075 56.7877 130.56 56.9897C130.411 57.0017 130.261 57.0097 130.112 57.0197L130.315 57.0647L130.549 56.1547C132.594 55.6697 134.605 55.3136 136.688 55.0406L137.94 55.5586Z" fill="#92684B"/>
<path d="M406.931 73.0597L408.068 73.1557C407.881 75.6987 407.622 78.0576 406.995 80.5436C406.149 78.6026 406.819 75.1897 406.931 73.0597Z" fill="#7C4C34"/>
<path d="M470.329 200.678C471.691 203.208 472.595 205.972 473.598 208.66C471.818 206.264 470.471 203.806 469.46 200.993L470.329 200.678Z" fill="#92684B"/>
<path d="M135.259 72.0977C153.441 69.6467 188.67 77.3977 205.629 85.4767C199.662 84.3737 193.735 82.6317 187.853 81.1217C164.565 75.4207 138.659 72.1437 114.896 76.2127C121.249 73.2747 128.378 72.7477 135.259 72.0977Z" fill="#090605"/>
<path d="M290.632 37.8491C295.936 38.7551 301.531 42.1567 306.204 44.7447C328.528 57.1097 343.118 69.1747 359.707 88.4787C354.245 86.5677 338.54 68.2207 332.246 63.2307C319.727 53.3067 304.525 45.6517 290.632 37.8491Z" fill="#090605"/>
<path d="M355.451 25.6052C356.147 25.9398 356.837 26.2888 357.518 26.6519C375.906 36.3617 393.642 61.0057 399.826 80.7447L398.583 81.3427C395.195 69.0367 382.171 50.8627 373.43 41.8657C367.834 36.1065 361.388 31.0316 355.451 25.6052Z" fill="#090605"/>
<path d="M323.748 23.6656C345.715 37.1943 360.843 52.2357 373.66 74.7327C376.384 79.5147 379.355 84.3157 381.298 89.4817C375.37 81.5997 371.258 72.9647 365.897 64.7807C355.077 48.2647 339.817 35.1889 323.431 24.4295L323.748 23.6656Z" fill="#15100F"/>
<path d="M57.2039 180.561C69.1439 161.494 80.7409 136.677 97.6229 121.657C96.4619 125.796 84.0159 139.497 80.8279 144.276C72.7939 156.319 67.2529 169.506 58.0539 180.891L57.2039 180.561Z" fill="#15100F"/>
<path d="M114.229 92.1417C119.986 91.7487 125.541 92.1197 131.278 92.5707C129.93 93.5297 114.163 93.6177 111.179 94.0057C99.8789 95.4747 90.9558 99.5877 81.4258 105.636C77.5958 108.321 74.0099 111.331 70.4119 114.315C70.8919 113.693 71.3848 113.083 71.8918 112.483C82.3258 100.098 98.4219 93.5207 114.229 92.1417Z" fill="#15100F"/>
<path d="M426.496 102.083C428.495 102.706 430.71 103.897 432.707 104.268C432.834 104.321 432.972 104.354 433.089 104.427C440.18 108.879 456.09 127.825 458.359 135.907L457.997 136.127C453.514 128.231 446.583 118.846 439.582 113.041C435.321 109.508 430.155 106.234 426.496 102.083Z" fill="#AD7C59"/>
<path d="M419.728 105.231C422.142 105.933 424.079 107.527 426.081 108.998C431.757 113.169 437.403 118.255 442.233 123.408C446.079 127.511 465.492 152.813 466.127 156.881C465.616 156.901 460.071 149.05 459.405 148.053C457.403 145.055 455.005 142.432 452.909 139.515C449.429 134.673 446.599 129.466 442.485 125.104C435.512 117.709 427.421 111.805 419.728 105.231Z" fill="#7C4C34"/>
<path d="M100.745 113.851L101.507 114.13C98.1699 116.472 93.7809 117.831 90.2259 119.981C80.0039 126.162 71.5809 135.34 64.1159 144.549L63.7549 144.696L63.8599 143.857C73.3559 130.242 85.5319 120.232 100.745 113.851Z" fill="#523726"/>
<path d="M426.496 102.083C426.375 101.964 426.261 101.837 426.134 101.725C423.153 99.0716 412.831 95.5866 411.669 93.7476C418.372 93.9256 427.629 100.129 432.707 104.268C430.71 103.897 428.495 102.706 426.496 102.083Z" fill="#523726"/>
<path d="M422.016 82.7626C429.771 84.3856 441.826 93.1496 446.703 99.4066C446.83 99.5696 446.896 99.7716 446.993 99.9536C442.509 98.0926 437.917 92.1966 433.919 89.2656C430.279 86.5976 425.623 85.3666 422.016 82.7626Z" fill="#523726"/>
<path d="M323.431 24.4295C318.226 22.3219 310.973 17.9711 306.176 14.9016C312.158 16.8544 318.883 19.6206 323.748 23.6656L323.431 24.4295Z" fill="#92684B"/>
<path d="M58.0539 180.891C56.2959 183.568 53.9398 188.072 51.1758 189.734C52.8088 186.309 54.7299 183.461 57.2039 180.561L58.0539 180.891Z" fill="#7C4C34"/>
<path d="M396.421 92.6316C399.365 92.3166 402.468 92.2266 405.379 92.8586C407.321 93.2796 409.116 93.7786 410.23 95.5026C406.241 94.0146 402.562 94.4416 398.768 93.3386C397.985 93.1116 397.208 92.8536 396.421 92.6316Z" fill="#92684B"/>
<path d="M399.826 80.7447C400.11 83.1557 400.478 86.2167 399.436 88.4717C398.937 86.0877 398.937 83.7347 398.583 81.3427L399.826 80.7447Z" fill="#523726"/>
<path d="M446.993 99.9536C449.933 100.864 451.411 103.239 453.152 105.637C450.607 104.3 448.552 102.371 446.993 99.9536Z" fill="#AD7C59"/>
<path d="M439.218 169.721L439.585 168.814L440.588 169.518C442.482 176.568 444.557 188.044 443.948 195.255C443.815 197.555 443.673 199.844 443.428 202.135C443.025 199.865 443.112 197.45 442.914 195.148C442.203 186.875 441.517 177.681 439.218 169.721Z" fill="#15100F"/>
<path d="M438 157.865L439.086 157.925C439.786 161.268 440.424 164.537 442.038 167.579L440.75 167.336C440.748 167.555 440.749 167.774 440.745 167.993C440.728 168.943 440.756 168.567 440.588 169.518L439.585 168.814L439.218 169.721C437.922 166.18 438.477 161.668 438 157.865Z" fill="#7C4C34"/>
<path d="M81.1379 206.449L81.797 206.26L82.201 207.267C82.096 210.785 81.9348 214.312 82.0018 217.832L80.8288 216.814C80.6908 214.889 80.7798 212.928 80.7918 210.997L81.1379 206.449Z" fill="#15100F"/>
<path d="M81.1379 206.449C81.4239 202.193 81.2439 196.342 82.6119 192.349L83.0699 192.467C82.7059 196.741 83.114 203.254 82.201 207.267L81.797 206.26L81.1379 206.449Z" fill="#523726"/>
<path d="M170.833 222.832C179.716 221.607 203.113 223.018 210.664 226.782C217.561 228.777 225.639 231.759 229.265 238.459C231.466 242.525 231.909 249.97 230.401 254.407C229.787 256.213 228.869 257.147 227.261 258.162C224.943 259.654 217.624 259.321 214.902 258.786C214.751 258.757 214.61 258.691 214.464 258.643C187.566 254.718 168.232 246.991 140.338 254.117C132.772 256.05 124.371 259.227 118.057 263.893C113.72 267.098 110.589 271.714 106.41 274.954C105.545 276.752 104.493 278.368 103.402 280.034C103.715 277.379 103.971 274.75 104.75 272.181C107.975 260.509 113.481 247.504 121.816 238.519C134.039 225.344 153.873 223.376 170.833 222.832Z" fill="#AD7C59"/>
<path d="M170.833 222.832C179.716 221.607 203.113 223.018 210.664 226.782C217.561 228.777 225.639 231.759 229.265 238.459C231.466 242.525 231.909 249.97 230.401 254.407C229.787 256.213 228.869 257.147 227.261 258.162C228.359 255.722 228.247 254.702 227.335 252.174C223.313 241.02 212.846 234.854 202.587 230.38C185.031 222.723 156.569 222.82 138.737 229.925C133.714 231.927 128.199 234.927 124.326 238.752C120.7 242.334 117.648 247.227 115.183 251.661C113.634 254.448 106.887 271.271 104.75 272.181C107.975 260.509 113.481 247.504 121.816 238.519C134.039 225.344 153.873 223.376 170.833 222.832Z" fill="#090605"/>
<path d="M170.833 222.832C179.716 221.607 203.113 223.018 210.664 226.782C210.691 226.982 210.614 227.228 210.744 227.383C211.195 227.92 220.601 232.081 223.065 234.323C228.594 239.355 228.661 246.239 229.111 253.138C227.26 248.666 225.426 244.81 222.112 241.248C210.082 228.318 187.86 223.38 170.833 222.832Z" fill="#AD7C59"/>
<path d="M106.41 274.954C106.432 274.809 106.438 274.66 106.478 274.519C107.409 271.228 114.811 264.226 117.747 262.21C121.128 259.889 125.367 258.478 129.097 256.76C136.648 253.283 144.364 250.408 152.649 249.297C172.852 246.588 200.254 254.712 220.874 258.016C218.724 258.167 216.597 258.325 214.464 258.643C187.566 254.718 168.232 246.991 140.338 254.117C132.772 256.05 124.371 259.227 118.057 263.893C113.72 267.098 110.589 271.714 106.41 274.954Z" fill="#090605"/>
<path d="M151.37 236.467C163.124 235.788 176.505 237.786 187.835 240.605C175.206 241.236 162.564 235.96 149.799 238.264C146.664 238.829 140.009 240.322 138.202 242.96C139.382 243.47 140.51 243.017 141.709 242.746L142.356 242.595L147.827 242.648C134.958 243.983 128.931 246.178 119.563 255.145C119.68 254.506 119.652 254.464 119.976 253.788C122.269 249 138.375 240.796 143.593 238.756C146.116 237.77 148.747 237.128 151.37 236.467Z" fill="#342219"/>
<path d="M195.095 234.916C201.363 235.017 212.138 240.312 217.531 243.421C213.097 242.937 199.809 236.943 195.095 234.916Z" fill="#523726"/>
<path d="M185.603 242.386C191.736 242.504 198.145 246.976 203.321 249.972C198.223 249.257 190.583 244.583 185.603 242.386Z" fill="#523726"/>
<path d="M167.77 226.155C172.439 225.978 176.897 226.033 181.53 226.664C181.011 227.141 180.488 226.998 179.776 227.016C177.254 227.082 169.545 227.824 167.77 226.155Z" fill="#7C4C34"/>
<path d="M190.705 238.033C193.488 237.851 196.279 238.828 198.569 240.388C196.819 240.946 192.525 238.753 190.705 238.033Z" fill="#92684B"/>
<path d="M199.457 240.884C201.564 241.212 203.758 242.217 205.551 243.366C205.504 243.384 205.46 243.412 205.411 243.421C203.318 243.772 201.056 242.129 199.457 240.884Z" fill="#92684B"/>
<path d="M163.183 226.477C164.524 226.383 166.036 226.06 167.267 226.698L166.815 227.365C165.446 227.431 163.937 227.7 162.666 227.1L163.183 226.477Z" fill="#7C4C34"/>
<path d="M315.839 227.751C324.198 223.196 340.745 221.757 350.317 222.414C356.401 222.535 364.155 222.378 370.012 223.903C382.424 224.832 397.424 227.489 405.977 237.43C407.689 239.421 409.086 241.829 410.24 244.172C411.717 245.798 412.732 248.123 413.222 250.248C415.287 254.345 422.5 268.367 421.278 272.251C421.238 272.382 421.159 272.497 421.1 272.62L420.284 271.942L419.852 272.406L420.215 273.916C419.594 273.486 419.284 273.342 418.939 272.65C412.148 265.507 406.021 260.173 396.961 256.153C396.131 256.116 395.491 255.771 394.728 255.463C367.677 249.696 357.642 249.955 330.825 255.061C324.005 256.359 316.792 258.675 309.877 258.99C307.851 259.026 305.945 258.69 304.019 258.097C302.974 257.878 301.777 257.68 300.834 257.167C299.149 256.25 298.058 254.112 297.511 252.355C296.211 248.178 297.182 243.052 299.171 239.247C302.783 232.339 308.895 230.037 315.839 227.751Z" fill="#AD7C59"/>
<path d="M309.877 258.99C318.432 254.182 347.732 249.776 358.24 249.093C366.955 248.527 387.88 249.429 394.728 255.463C367.677 249.696 357.642 249.955 330.825 255.061C324.005 256.359 316.792 258.675 309.877 258.99Z" fill="#090605"/>
<path d="M370.012 223.903C382.424 224.832 397.424 227.489 405.977 237.43C407.689 239.421 409.086 241.829 410.24 244.172C406.846 242.804 403.89 237.929 400.831 235.63C388.749 226.554 374.941 226.736 360.669 225.108C358.527 224.765 356.248 224.833 354.077 224.757C357.735 222.973 365.71 224.265 370.012 223.903Z" fill="#090605"/>
<path d="M350.317 222.414C356.401 222.535 364.155 222.378 370.012 223.903C365.71 224.265 357.735 222.973 354.077 224.757L346.867 224.876C346.455 224.888 346.043 224.918 345.633 224.961C330.026 226.605 311.679 234.228 301.706 246.653L301.409 246.342C301.543 245.745 301.529 245.658 301.866 245.035C302.69 243.512 304.47 241.971 305.723 240.77C314.122 232.725 324.462 228.257 335.653 225.461C340.321 224.296 345.281 224 349.835 222.572C349.996 222.522 350.156 222.467 350.317 222.414Z" fill="#15100F"/>
<path d="M315.839 227.751C315.744 227.89 315.666 228.042 315.554 228.168C314.378 229.498 311.584 230.308 309.971 231.111C304.027 234.068 299.19 240.303 298.908 247.086C298.786 250.026 299.83 254.262 301.983 256.365C302.62 256.987 303.32 257.546 304.019 258.097C302.974 257.878 301.777 257.68 300.834 257.167C299.149 256.25 298.058 254.112 297.511 252.355C296.211 248.178 297.182 243.052 299.171 239.247C302.783 232.339 308.895 230.037 315.839 227.751Z" fill="#090605"/>
<path d="M396.961 256.153C399.228 256.249 401.202 256.884 403.355 257.532C404.455 257.997 404.67 257.972 405.863 257.809C410.275 261.807 417.86 266.346 418.939 272.65C412.148 265.507 406.021 260.173 396.961 256.153Z" fill="#090605"/>
<path d="M420.284 271.942C419.901 264.714 412.194 257.572 413.222 250.248C415.287 254.345 422.5 268.367 421.278 272.251C421.238 272.382 421.159 272.497 421.1 272.62L420.284 271.942Z" fill="#090605"/>
<path d="M398.375 254.528C393.452 253.048 381.025 249.251 377.193 246.595C384.864 247.392 392.366 250.864 399.376 253.925L398.375 254.528Z" fill="#090605"/>
<path d="M346.867 224.876L354.077 224.757C356.248 224.833 358.527 224.765 360.669 225.108L361.636 226.492L361.212 226.997C359.942 226.781 358.703 226.548 357.455 226.218C354.651 225.424 350.176 225.822 347.378 226.498L346.867 224.876Z" fill="#B78462"/>
<path d="M399.376 253.925C402.078 254.684 403.895 255.825 405.863 257.809C404.67 257.972 404.455 257.997 403.355 257.532C403.339 257.447 403.348 257.353 403.307 257.277C402.609 255.988 399.762 255.173 398.375 254.528L399.376 253.925Z" fill="#523726"/>
<path d="M347.378 226.498C350.176 225.822 354.651 225.424 357.455 226.218C354.341 227.176 350.38 226.969 347.138 226.824L347.378 226.498Z" fill="#523726"/>
<path d="M377.858 236.801C392.586 241.284 399.914 245.997 409.307 258.098C404.739 256.347 400.975 249.475 396.804 246.447C391.122 242.321 384.081 240.015 377.858 236.801Z" fill="#342219"/>
<path d="M347.272 242.047C344.763 242.654 342.164 242.92 339.689 243.64C333.406 245.467 327.009 248.534 321.06 251.276L320.563 250.957C322.175 248.769 335.885 243.785 339.137 242.852C341.481 242.179 343.993 241.866 346.402 241.502L347.272 242.047Z" fill="#7C4C34"/>
<path d="M346.402 241.502C351.484 239.901 362.281 237.326 367.424 239.127L367.068 239.258L366.972 238.93L366.281 239.427C359.92 240.146 353.483 240.41 347.272 242.047L346.402 241.502Z" fill="#342219"/>
<path d="M351.356 233.085C354.134 232.816 356.674 232.996 359.439 233.264C356.949 234.138 353.514 233.89 350.867 234.107C348.532 234.457 346.192 234.772 343.848 235.053L343.149 234.6L342.961 235.04L342.469 234.931C344.943 233.551 348.547 233.412 351.356 233.085Z" fill="#7C4C34"/>
<path d="M366.04 236.47C369.995 236.449 374.459 237.979 377.914 239.812C373.842 239.518 369.784 238.025 366.04 236.47Z" fill="#523726"/>
<path d="M321.981 241.988L322.197 242.517C321.008 244.281 318.528 245.526 316.761 246.698L316.348 246.104C317.564 244.377 320.2 243.126 321.981 241.988Z" fill="#523726"/>
<path d="M333.814 239.907C334.799 239.799 334.268 239.773 335.4 240.091C334.06 241.136 332.194 241.51 330.584 242.036L330.214 242.281L329.81 241.998C331.058 240.838 332.213 240.443 333.814 239.907Z" fill="#523726"/>
<path d="M345.07 294.635C350.217 294.222 355.523 294.25 360.683 294.484C370.015 297.406 377.401 301.866 385.735 306.794L383.922 308.324C385.76 312.798 387.4 317.625 385.242 322.343C382.715 327.866 374.827 330.48 369.478 332.368C359.645 334.558 351.32 334.112 341.485 331.961C335.62 330.732 328.645 329.787 323.178 327.397C321.237 327.738 319.19 327.752 317.224 327.872C315.423 326.055 313.626 324.016 311.574 322.49C310.862 321.96 310.283 321.46 309.664 320.83L309.794 320.051C310.352 318.375 311.021 316.657 312.005 315.182C318.45 305.524 333.765 296.59 345.07 294.635Z" fill="white"/>
<path d="M345.07 294.635C350.217 294.222 355.523 294.25 360.683 294.484C359.829 294.787 358.918 294.779 358.562 295.681C358.053 296.968 358.2 298.26 358.008 299.598L358.349 300.023L363.967 301.02C364.77 303.903 365.87 306.759 366.352 309.714C366.369 310.046 366.391 310.378 366.404 310.711C366.575 315.103 365.109 320.013 362.019 323.219C359.736 325.626 356.558 326.98 353.24 326.957C349.838 326.933 346.691 325.377 344.446 322.851C340.614 318.541 340.41 313.376 340.584 307.935C341.059 304.978 342.028 302.034 342.945 299.184L345.008 298.316L348.848 295.991C348.795 295.966 348.745 295.932 348.689 295.915C347.41 295.526 346.294 295.189 345.07 294.635Z" fill="#090605"/>
<path d="M345.07 294.635C350.217 294.222 355.523 294.25 360.683 294.484C359.829 294.787 358.918 294.779 358.562 295.681C358.053 296.968 358.2 298.26 358.008 299.598L358.349 300.023C358.571 301.882 358.962 303.378 357.974 305.051C357.04 305.801 356.115 306.561 355.141 307.261L353.987 307.542C352.816 307.54 351.621 307.556 350.457 307.432C348.726 307.249 346.659 306.281 345.673 304.806C344.329 302.795 344.71 300.57 345.008 298.316L348.848 295.991C348.795 295.966 348.745 295.932 348.689 295.915C347.41 295.526 346.294 295.189 345.07 294.635Z" fill="#43403F"/>
<path d="M345.07 294.635C350.217 294.222 355.523 294.25 360.683 294.484C359.829 294.787 358.918 294.779 358.562 295.681C358.053 296.968 358.2 298.26 358.008 299.598C357.565 298.635 357.103 297.448 356.283 296.745C354.438 295.162 351.079 295.828 348.848 295.991C348.795 295.966 348.745 295.932 348.689 295.915C347.41 295.526 346.294 295.189 345.07 294.635Z" fill="#342219"/>
<path d="M349.252 298.765C350.83 298.673 352.655 298.508 354.108 299.277C355.357 299.938 355.597 300.527 356.009 301.82C355.767 303.448 355.159 304.152 354.129 305.347C352.544 305.377 350.998 305.447 349.523 304.766C348.267 304.186 347.955 303.431 347.523 302.207C347.77 300.543 348.135 300.023 349.252 298.765Z" fill="white"/>
<path d="M355.141 307.261C355.442 307.389 355.746 307.51 356.044 307.645C357.656 308.373 358.862 309.716 359.374 311.419C359.905 313.184 359.503 315.055 358.541 316.594C357.536 318.202 355.953 319.393 354.084 319.778C352.531 320.098 350.962 319.682 349.721 318.711C347.989 317.356 346.7 315.142 346.528 312.94C346.409 311.42 346.699 310.165 347.758 309.029C348.612 308.112 349.366 307.9 350.568 307.905C351.776 307.911 352.796 307.757 353.987 307.542L355.141 307.261Z" fill="#15100F"/>
<path d="M345.07 294.635C346.294 295.189 347.41 295.526 348.689 295.915C348.745 295.932 348.795 295.966 348.848 295.991L345.008 298.316L342.945 299.184C342.028 302.034 341.059 304.978 340.584 307.935C334.814 308.934 329.252 310.336 323.626 311.938L324.834 308.398L322.83 309.613C317.819 312.618 313.771 315.743 309.794 320.051C310.352 318.375 311.021 316.657 312.005 315.182C318.45 305.524 333.765 296.59 345.07 294.635Z" fill="url(#paint1_linear_144_225)"/>
<path d="M342.945 299.184C342.028 302.034 341.059 304.978 340.584 307.935C334.814 308.934 329.252 310.336 323.626 311.938L324.834 308.398C330.874 304.934 336.506 301.899 342.945 299.184Z" fill="#DCDCDD"/>
<path d="M322.83 309.613L324.834 308.398L323.626 311.938C322.351 314.059 321.179 316.198 320.037 318.393C320.022 320.465 320.237 321.511 321.731 322.987C323.307 324.545 325.29 325.826 327.089 327.12C326.791 327.135 326.493 327.158 326.194 327.164C323.943 327.206 321.978 325.941 319.794 325.667L320.601 326.244L320.444 325.822C320.592 325.953 320.734 326.092 320.888 326.215C321.614 326.793 322.326 327.061 323.178 327.397C321.237 327.738 319.19 327.752 317.224 327.872C315.423 326.055 313.626 324.016 311.574 322.49C310.862 321.96 310.283 321.46 309.664 320.83L309.794 320.051C313.771 315.743 317.819 312.618 322.83 309.613Z" fill="#E2A487"/>
<path d="M322.83 309.613L324.834 308.398L323.626 311.938C322.351 314.059 321.179 316.198 320.037 318.393C318.772 317.227 323.249 311.136 322.83 309.613Z" fill="#AD7C59"/>
<path d="M360.683 294.484C370.015 297.406 377.401 301.866 385.735 306.794L383.922 308.324L382.146 307.423C377.396 306.906 368.727 302.797 363.967 301.02L358.349 300.023L358.008 299.598C358.2 298.26 358.053 296.968 358.562 295.681C358.918 294.779 359.829 294.787 360.683 294.484Z" fill="#401B0F"/>
<path d="M366.352 309.714C365.87 306.759 364.77 303.903 363.967 301.02C368.727 302.797 377.396 306.906 382.146 307.423C382.918 309.079 383.839 310.762 384.421 312.491C378.881 312.755 372.685 307.194 366.859 308.631L366.352 309.714Z" fill="#DCDCDD"/>
<path d="M382.146 307.423L383.922 308.324C385.76 312.798 387.4 317.625 385.242 322.343C382.715 327.866 374.827 330.48 369.478 332.368L368.224 331.163C368.802 331.023 369.364 330.879 369.933 330.707C375.398 329.063 381.911 326.425 384.563 320.988C386.06 317.92 385.538 315.572 384.421 312.491C383.839 310.762 382.918 309.079 382.146 307.423Z" fill="#7C4C34"/>
<path d="M341.242 330.62C350.397 332.513 359.022 332.852 368.224 331.163L369.478 332.368C359.645 334.558 351.32 334.112 341.485 331.961L341.242 330.62Z" fill="#401B0F"/>
<path d="M323.178 327.397C322.326 327.061 321.614 326.793 320.888 326.215C320.734 326.092 320.592 325.953 320.444 325.822L320.601 326.244L319.794 325.667C321.978 325.941 323.943 327.206 326.194 327.164C326.493 327.158 326.791 327.135 327.089 327.12C331.701 328.22 336.805 329.013 341.242 330.62L341.485 331.961C335.62 330.732 328.645 329.787 323.178 327.397Z" fill="#AD7C59"/>
<path d="M166.281 294.403C171.189 294.321 176.772 293.84 181.571 294.856L178.813 295.926C180.434 296.665 181.8 297.394 183.227 298.464C183.514 298.559 184.458 298.805 184.686 298.976L186.509 303.768C186.794 305.385 187.029 307.035 187.402 308.632C189.845 308.934 192.253 309.243 194.619 309.952C198.086 310.992 202.528 313.295 206.075 313.437C207.202 316.553 208.526 318.532 207.306 321.899C204.98 324.393 201.457 325.872 198.81 328.109C198.959 328.106 199.108 328.106 199.256 328.101C202.324 327.995 205.477 326.073 208.351 326.258C204.761 328.332 200.452 328.878 196.464 329.796C185.16 332.398 171.875 336.138 160.3 333.206C158.991 332.874 157.737 332.412 156.483 331.914C151.426 329.731 145.755 326.764 143.22 321.613C141.024 317.149 141.423 313.171 142.982 308.679L134.029 312.568C134.628 310.131 139.668 307.927 141.683 306.406L142.077 306.105C143.905 305.417 146.068 303.398 147.777 302.316C153.774 298.52 159.363 296.013 166.281 294.403Z" fill="white"/>
<path d="M166.281 294.403C171.189 294.321 176.772 293.84 181.571 294.856L178.813 295.926C180.434 296.665 181.8 297.394 183.227 298.464C183.514 298.559 184.458 298.805 184.686 298.976L186.509 303.768C186.794 305.385 187.029 307.035 187.402 308.632C187.547 314.047 186.97 319.274 182.931 323.324C180.575 325.687 177.384 327.054 174.03 326.916C170.576 326.773 167.393 325.138 165.112 322.566C161.919 318.967 160.835 314.028 161.05 309.323C161.579 306.168 162.25 303.493 163.79 300.658C165.464 300.263 167.971 300.171 169.019 298.854L168.564 296.105C167.774 295.659 167.01 294.954 166.281 294.403Z" fill="#090605"/>
<path d="M172.001 306.595L175.046 307.59C176.482 307.931 177.924 308.304 178.981 309.42C179.906 310.398 180.242 311.342 180.264 312.68C180.303 314.965 179.336 318.068 177.447 319.489C176.249 320.392 174.664 320.492 173.268 320.068C171.077 319.402 169.282 317.662 168.304 315.62C167.476 313.892 167.296 311.911 168.092 310.137C168.9 308.338 170.225 307.317 172.001 306.595Z" fill="#15100F"/>
<path d="M166.281 294.403C171.189 294.321 176.772 293.84 181.571 294.856L178.813 295.926C180.434 296.665 181.8 297.394 183.227 298.464C183.277 300.328 183.37 301.704 182.538 303.404C181.605 304.2 181.227 304.65 180.04 304.997C177.965 305.306 175.27 305.821 173.498 304.358C171.828 302.979 171.846 300.775 171.722 298.806C171.565 298.112 170.935 297.7 170.446 297.196L170.967 295.974L168.564 296.105C167.774 295.659 167.01 294.954 166.281 294.403Z" fill="#564742"/>
<path d="M171.722 298.806C174.444 298.43 177.356 297.83 179.786 299.457C180.514 300.464 181.09 301.278 180.927 302.588C180.832 303.356 180.348 304.283 180.04 304.997C177.965 305.306 175.27 305.821 173.498 304.358C171.828 302.979 171.846 300.775 171.722 298.806Z" fill="white"/>
<path d="M166.281 294.403C171.189 294.321 176.772 293.84 181.571 294.856L178.813 295.926C176.203 295.87 173.579 295.95 170.967 295.974L168.564 296.105C167.774 295.659 167.01 294.954 166.281 294.403Z" fill="#342219"/>
<path d="M183.227 298.464C183.514 298.559 184.458 298.805 184.686 298.976L186.509 303.768C185.813 304.164 185.12 304.553 184.409 304.921C180.939 306.721 179.132 307.83 175.046 307.59L172.001 306.595C170.969 306.426 170.603 306.473 169.948 305.564C169.106 304.395 168.849 302.7 169.205 301.326C169.657 299.583 170.21 299.549 171.722 298.806C171.846 300.775 171.828 302.979 173.498 304.358C175.27 305.821 177.965 305.306 180.04 304.997C181.227 304.65 181.605 304.2 182.538 303.404C183.37 301.704 183.277 300.328 183.227 298.464Z" fill="#43403F"/>
<path d="M142.077 306.105C143.905 305.417 146.068 303.398 147.777 302.316C153.774 298.52 159.363 296.013 166.281 294.403C167.01 294.954 167.774 295.659 168.564 296.105L169.019 298.854C167.971 300.171 165.464 300.263 163.79 300.658C157.39 302.799 151.08 305.201 144.877 307.858L142.982 308.679L134.029 312.568C134.628 310.131 139.668 307.927 141.683 306.406L142.077 306.105Z" fill="#401B0F"/>
<path d="M163.79 300.658C162.25 303.493 161.579 306.168 161.05 309.323C157.332 309.307 153.858 309.441 150.231 310.319C148.054 310.845 145.818 311.731 143.583 311.881L144.877 307.858C151.08 305.201 157.39 302.799 163.79 300.658Z" fill="#DCDCDD"/>
<path d="M198.81 328.109C198.959 328.106 199.108 328.106 199.256 328.101C202.324 327.995 205.477 326.073 208.351 326.258C204.761 328.332 200.452 328.878 196.464 329.796C185.16 332.398 171.875 336.138 160.3 333.206C158.991 332.874 157.737 332.412 156.483 331.914L157.158 330.562C168.727 335.086 186.954 330.521 198.81 328.109Z" fill="#401B0F"/>
<path d="M142.982 308.679L144.877 307.858L143.583 311.881C142.676 315.863 142.887 318.942 145.191 322.427C147.646 326.142 152.901 329.325 157.158 330.562L156.483 331.914C151.426 329.731 145.755 326.764 143.22 321.613C141.024 317.149 141.423 313.171 142.982 308.679Z" fill="#7C4C34"/>
<path d="M29.418 342.038C29.537 337.889 29.354 327.112 32.302 324.053C33.124 323.199 33.916 322.736 35.142 322.888C40.946 323.607 58.485 347.215 61.437 352.356C65.44 359.328 68.958 367.204 66.65 375.379C63.413 386.852 57.837 391.034 64.569 403.663C66.79 407.829 71.078 413.319 69.815 418.265C69.417 419.825 68.454 421.079 67.023 421.834C64.905 422.951 61.366 423.425 59.099 422.591C57.926 422.159 56.739 421.216 55.819 420.398C55.562 420.312 55.296 420.248 55.047 420.14C50.946 418.35 47.834 414.544 46.356 410.401C44.376 404.851 44.914 398.367 47.466 393.106C49.806 381.628 56.368 371.348 62.679 361.676C58.752 350.416 50.627 343.76 43.703 334.554C43.075 342.673 39.317 354.208 36.379 361.884C37.167 351.934 39.031 343.424 42.414 334.032C39.825 330.159 36.919 327.101 33.378 324.09C31.871 330.275 31.211 336.503 30.235 342.778L29.418 342.038Z" fill="#F7C2A8"/>
<path d="M29.418 342.038C29.537 337.889 29.354 327.112 32.302 324.053C33.124 323.199 33.916 322.736 35.142 322.888C40.946 323.607 58.485 347.215 61.437 352.356C65.44 359.328 68.958 367.204 66.65 375.379C63.413 386.852 57.837 391.034 64.569 403.663C66.79 407.829 71.078 413.319 69.815 418.265C69.417 419.825 68.454 421.079 67.023 421.834C64.905 422.951 61.366 423.425 59.099 422.591C57.926 422.159 56.739 421.216 55.819 420.398L56.757 420.173C58.083 420.978 59.522 421.72 61.108 421.677C63.466 421.614 66.048 420.824 67.575 418.928C71.814 413.665 60.901 404.723 59.603 397.725C57.581 386.826 65.058 376.493 63.708 365.179L63.115 365.092C56.243 374.272 51.552 383.267 47.81 394.07L47.466 393.106C49.806 381.628 56.368 371.348 62.679 361.676C58.752 350.416 50.627 343.76 43.703 334.554C43.075 342.673 39.317 354.208 36.379 361.884C37.167 351.934 39.031 343.424 42.414 334.032C39.825 330.159 36.919 327.101 33.378 324.09C31.871 330.275 31.211 336.503 30.235 342.778L29.418 342.038Z" fill="#090605"/>
<path d="M55.819 420.398C55.562 420.312 55.296 420.248 55.047 420.14C50.946 418.35 47.834 414.544 46.356 410.401C44.376 404.851 44.914 398.367 47.466 393.106L47.81 394.07C46.057 399.489 44.6038 405.34 47.4528 410.683C49.3568 414.255 52.2778 416.95 55.5228 419.262C55.9398 419.559 56.346 419.869 56.757 420.173L55.819 420.398Z" fill="#E2A487"/>
<path d="M465.768 422.457C463.273 422.952 460.214 423.174 458.03 421.556C451.082 416.41 463.037 402.092 464.359 396.264C466.578 386.475 459.204 380.279 458.97 371.343C458.588 356.741 474.185 338.904 483.363 328.827C485.513 326.467 488.356 323.313 491.718 323.162C493.197 323.869 493.855 324.497 494.425 326.07C497.057 333.346 496.273 342.342 496.137 349.913C495.815 367.87 495.527 387.468 488.061 404.163C489.002 398.8 490.361 393.526 491.311 388.166C493.4 376.423 494.679 364.55 495.138 352.631C495.348 347.912 495.805 343.054 495.14 338.363C494.504 333.87 492.868 329.46 491.403 325.186C488.396 327.691 485.807 330.241 483.769 333.617C486.059 341.995 487.973 350.174 488.846 358.839C486.167 351.339 484.148 343.569 481.553 336.019C475.08 345.019 467.59 351.238 463.707 362.016C468.149 366.095 471.379 371.241 474.685 376.234L474.35 377.061C471.257 373.102 467.695 367.522 463.598 364.714C462.388 365.997 462.49 367.398 462.552 369.097C462.897 378.596 468.979 388.877 466.591 398.04C464.769 405.034 453.183 414.661 459.528 420.062C460.276 420.699 461.127 421.134 462.02 421.525L465.768 422.457Z" fill="#090605"/>
<path d="M305.396 334.233C311.236 335.307 338.394 361.213 344.779 366.482C348.294 369.383 352.242 371.654 355.853 374.427C350.698 373.411 346.319 369.829 341.765 367.388C330.015 361.09 321.351 358.052 313.426 346.561C310.753 342.684 308.616 338.476 305.768 334.715L305.396 334.233Z" fill="#E2A487"/>
<path d="M181.571 294.856C193.471 296.126 207.34 304.417 214.861 313.634C216.64 315.814 218.162 318.325 219.473 320.81C214.456 316.316 209.001 312.402 203.476 308.561L206.075 313.437C202.528 313.295 198.086 310.992 194.619 309.952C192.253 309.243 189.845 308.934 187.402 308.632C187.029 307.035 186.794 305.385 186.509 303.768L184.686 298.976C184.458 298.805 183.514 298.559 183.227 298.464C181.8 297.394 180.434 296.665 178.813 295.926L181.571 294.856Z" fill="#401B0F"/>
<path d="M184.686 298.976C191.051 301.633 198.106 304.126 203.476 308.561L206.075 313.437C202.528 313.295 198.086 310.992 194.619 309.952C192.253 309.243 189.845 308.934 187.402 308.632C187.029 307.035 186.794 305.385 186.509 303.768L184.686 298.976Z" fill="#DCDCDD"/>
<path d="M182.6 520.289C184.517 518.063 186.572 515.272 189.184 513.857C193.251 511.654 206.085 511.089 211.24 510.428C217.611 509.61 223.844 508.033 230.193 507.136C236.466 506.249 253.479 505.135 258.914 507.408C260.613 508.904 262.099 510.22 263.29 512.184C260.086 511.86 257.03 509.164 253.692 508.617C245.869 507.337 202.229 512.436 193.649 514.837C189.398 516.027 186.234 517.837 182.6 520.289Z" fill="#090605"/>
<path d="M233.681 276.355C234.743 277.428 235.708 278.634 236.697 279.776C237.709 280.338 238.577 280.923 239.482 281.646C239.61 280.638 239.629 281.143 239.415 280.131C241.32 281.002 242.569 283.909 243.284 285.753C244.119 287.91 245.346 290.658 244.221 292.887C244.111 293.104 243.973 293.306 243.849 293.515C249.755 309.615 244.296 320.407 243.404 336.595C243.001 343.917 244.139 351.043 243.979 358.309L243.011 358.339C243.035 350.316 241.668 342.565 242.161 334.43C242.592 327.296 243.912 320.354 244.668 313.27C246.104 299.806 239.323 288.043 233.681 276.355Z" fill="#090605"/>
<path d="M236.697 279.776C237.709 280.338 238.577 280.923 239.482 281.646C239.61 280.638 239.629 281.143 239.415 280.131C241.32 281.002 242.569 283.909 243.284 285.753C244.119 287.91 245.346 290.658 244.221 292.887C244.111 293.104 243.973 293.306 243.849 293.515C241.894 288.677 239.422 284.22 236.697 279.776Z" fill="#E2A487"/>
<path d="M180.69 279.603C189.962 279.735 196.146 284.008 202.963 289.666C184.034 281.047 174.98 280.154 154.853 287.669C147.621 291.052 142.552 295.48 137.039 301.204C138.412 298.478 140.368 296.095 142.414 293.844C152.05 283.25 166.942 280.229 180.69 279.603Z" fill="#090605"/>
<path d="M323.702 291.43C331.472 284.134 337.824 279.272 349.099 279.583C362.038 279.941 375.802 284.8 384.72 294.375C386.439 296.256 388.116 298.176 389.75 300.132C388.033 300.088 386.353 297.961 385.154 296.809C375.825 286.933 361.944 283.075 348.689 282.654C337.504 282.298 332.866 286.395 323.702 291.43Z" fill="#090605"/>
<path d="M283.501 359.607C281.259 341.959 280.665 324.385 280.12 306.622C279.733 293.98 284.582 283.52 293.126 274.31C287.594 285.013 281.904 294.193 282.176 306.596C282.285 311.565 282.877 316.508 282.934 321.479C283.06 332.5 283.09 343.188 284.067 354.179C283.909 355.984 283.826 357.824 283.501 359.607Z" fill="#090605"/>
<path d="M268.806 507.599C283.716 503.049 299.376 508.409 314.277 510.547C313.769 511.468 314.042 511.173 313.632 511.566C301.71 511.012 289.361 507.883 277.621 508.345C272.354 508.552 267.894 511.935 263.771 512.038L263.29 512.184C262.099 510.22 260.613 508.904 258.914 507.408C261.497 506.181 264.412 505.817 267.183 506.73C267.785 506.928 268.279 507.259 268.806 507.599Z" fill="#090605"/>
<path d="M258.914 507.408C261.497 506.181 264.412 505.817 267.183 506.73C267.785 506.928 268.279 507.259 268.806 507.599C266.826 508.903 265.195 510.122 263.771 512.038L263.29 512.184C262.099 510.22 260.613 508.904 258.914 507.408Z" fill="#E2A487"/>
<path d="M312.6 165.607C315.373 165.571 318.094 165.955 320.842 166.282C283.179 170.195 258.798 173.071 220.94 167.567C218.284 167.005 215.57 166.755 212.875 166.438C221.168 164.581 243.333 169.498 253.604 169.841C273.376 170.501 292.915 166.585 312.6 165.607Z" fill="#AD7C59"/>
<path d="M273.297 448.201C281.961 443.131 282.439 434.977 294.05 432.764C296.129 433.286 299.391 433.707 300.642 435.611C301.082 436.28 300.839 436.76 300.752 437.507C299.594 439.324 297.916 440.345 296.187 441.567C292.699 440.045 290.043 438.522 286.24 440.053C281.473 441.973 278.392 446.964 273.501 449.131L273.297 448.201Z" fill="#090605"/>
<path d="M290.041 436.549C292.249 436.319 293.992 436.338 296.074 437.153C293.609 437.637 292.334 437.471 290.041 436.549Z" fill="#523726"/>
<path d="M233.253 441.241C231.561 440.261 229.915 439.47 228.785 437.813C228.544 436.593 228.261 435.869 228.985 434.727C229.662 433.658 231.157 433.056 232.353 432.821C241.302 431.067 247.584 441.233 254.086 445.647L254.666 446.033L253.721 446.534C249.137 444.371 245.053 441.665 240.852 438.846C238.234 439.381 235.762 440.341 233.253 441.241Z" fill="#090605"/>
<path d="M236.719 535.517C246.903 535.747 255.879 538.118 267.057 537.804C270.95 537.694 287.713 535.714 289.657 536.118L288.905 536.964C287.761 537.408 286.628 537.787 285.438 538.089C272.26 541.435 248.784 542.702 236.719 535.517Z" fill="#090605"/>
<path d="M337.602 450.177C337.711 450.255 337.827 450.326 337.93 450.412C340.604 452.64 342.749 456.763 345.071 459.482C358.306 474.976 367.662 485.676 369.322 506.983C368.847 506.257 368.951 506.555 368.762 505.762C364.341 487.241 358.124 478.664 346.704 463.944C343.463 459.766 339.373 455.187 337.602 450.177Z" fill="#E2A487"/>
<path d="M304.24 397.215C310.034 401.724 319.542 419.825 320.42 427.671C320.992 432.784 320.207 438.409 316.742 442.421C313.185 446.537 308.261 447.577 303.115 448.078L302.568 447.971C305.114 447.283 307.739 446.643 310.184 445.643C313.42 444.321 316.088 442.07 317.426 438.787C323.109 424.844 309.725 409.861 304.557 397.955L304.24 397.215Z" fill="#090605"/>
<path d="M221.658 402.313C222.308 406.097 215.738 414.635 214.018 418.343C211.529 423.706 209.786 429.925 212.021 435.678C214.888 443.055 220.544 444.908 227.029 447.915L226.74 448.416C223.136 447.662 219.863 446.676 216.786 444.559C212.633 441.699 210.073 437.496 209.3 432.523C207.494 420.905 215.403 411.177 221.658 402.313Z" fill="#090605"/>
<path d="M29.418 342.038L30.235 342.778C27.472 355.898 33.7539 384.144 36.7769 398.072C29.6929 383.775 27.175 357.843 29.418 342.038Z" fill="#15100F"/>
<path d="M240.828 560.533C254.055 554.224 274.581 555.47 288.14 560.25C274.164 558.2 255.141 556.434 241.716 561.047L240.828 560.533Z" fill="#090605"/>
<path d="M284.067 354.179L284.143 354.692C285.332 363.153 283.968 371.81 289.261 379.235L289.642 383.585L288.984 383.958L287.451 383.322C282.699 376.68 282.568 367.398 283.501 359.607C283.826 357.824 283.909 355.984 284.067 354.179Z" fill="#E2A487"/>
<path d="M264.025 481.052C265.55 482.086 267.465 483.036 268.054 484.866C267.994 486.032 267.661 486.816 267.226 487.881L267.566 488.378L267.321 488.758C264.67 488.578 262.068 487.693 260.091 485.891C258.714 485.33 257.002 484.312 256.296 482.987L256.624 482.185C258.652 481.027 261.002 481.248 263.279 481.193L264.025 481.052Z" fill="#E2A487"/>
<path d="M260.091 485.891C262.407 486.111 265.277 486.525 267.226 487.881L267.566 488.378L267.321 488.758C264.67 488.578 262.068 487.693 260.091 485.891Z" fill="#090605"/>
<path d="M385.154 296.809C386.353 297.961 388.033 300.088 389.75 300.132C392.878 303.086 396.811 306.955 398.372 311.025L397.755 311.416C397.656 313.207 398.788 314.326 399.252 315.953C393.184 308.266 389.963 306.194 385.154 296.809Z" fill="#E2A487"/>
<path d="M462.02 421.525C463.383 421.457 464.87 421.445 466.175 421.017C468.466 420.263 476.302 411.393 478.4 409.04C481.227 405.871 483.434 402.265 485.599 398.627C482.945 407.329 476.241 417.39 467.873 421.602C467.253 421.914 466.614 422.125 465.969 422.367C465.9 422.393 465.835 422.427 465.768 422.457L462.02 421.525Z" fill="#E2A487"/>
<path d="M122.056 325.238C124.757 320.556 131.8 306.996 135.163 303.927C134.876 305.976 131.196 310.047 130.234 314.025L130.633 314.292C134.086 310.747 136.958 307.131 142.077 306.105L141.683 306.406C139.668 307.927 134.628 310.131 134.029 312.568C129.933 316.793 126.541 321.328 122.056 325.238Z" fill="#E2A487"/>
<path d="M289.261 379.235C294.468 385.268 296.643 392.615 299.549 399.863C300.366 401.902 302.204 404.135 302.332 406.296C302.045 406.12 301.716 406.001 301.472 405.769C300.705 405.043 298.846 399.385 298.107 397.921C295.683 393.118 292.609 388.093 289.642 383.585L289.261 379.235Z" fill="#E2A487"/>
<path d="M250.209 224.76C250.964 229.426 245.124 247.726 243.26 252.53C242.385 248.815 248.186 229.053 250.209 224.76Z" fill="#090605"/>
<path d="M182.834 287.355C182.989 287.347 183.144 287.329 183.3 287.331C190.744 287.472 203.782 297.35 208.891 302.549C208.492 302.581 208.079 302.758 207.695 302.646C206.443 302.281 195.557 293.828 193.364 292.508C190.003 290.487 186.421 288.924 182.834 287.355Z" fill="#AD7C59"/>
<path d="M327.045 511.693C330.491 511.756 333.937 511.84 337.383 511.947C340.827 514.084 343.353 516.76 345.949 519.834C339.749 515.908 335.193 513.937 327.889 512.859L327.045 511.693Z" fill="#090605"/>
<path d="M399.252 315.953C398.788 314.326 397.656 313.207 397.755 311.416L398.372 311.025C400.708 314.386 408.363 323.672 409.078 326.754C405.503 324.152 401.381 319.88 399.252 315.953Z" fill="#B78462"/>
<path d="M211.645 290.894C219.485 291.505 228.096 294.309 234.451 298.919C230.397 297.96 214.769 293.057 211.645 290.894Z" fill="#AD7C59"/>
<path d="M276.023 225.756C279.118 230.576 280.981 246.084 280.905 252.041C278.785 243.193 277.023 234.827 276.023 225.756Z" fill="#15100F"/>
<path d="M284.035 431.944C284.553 432.673 284.805 433.124 285.132 433.983L284.632 434.397C283.841 433.955 283.369 433.798 282.464 433.747C281.05 434.936 281.049 435.792 280.604 437.552C278.856 439.335 276.544 440.602 274.221 441.501C273.132 441.922 273.881 441.558 272.774 442.114C272.592 442.206 272.414 442.303 272.234 442.397C271.558 442.876 270.206 444.053 269.434 443.94C270.2 442.267 281.814 433.54 284.035 431.944Z" fill="#B78462"/>
<path d="M313.06 297.182L313.17 297.667C312.331 298.304 311.754 298.597 310.731 298.754C305.153 299.616 300.3 300.583 295.606 303.83L295.341 303.376C300.485 298.07 306.047 297.549 313.06 297.182Z" fill="#7C4C34"/>
<path d="M254.666 446.033C261.215 447.378 266.495 448.336 273.297 448.201L273.501 449.131C273.342 449.189 273.188 449.26 273.025 449.303C268.298 450.532 258.103 448.873 253.721 446.534L254.666 446.033Z" fill="#AD7C59"/>
<path d="M321.474 333.488C328.829 333.077 337.739 337.832 344.125 341.025C338.748 340.066 333.566 337.386 328.397 335.634C326.094 334.853 323.748 334.389 321.474 333.488Z" fill="#B78462"/>
<path d="M316.696 296.142L318.799 296.417L319.08 297.071C318.383 299.484 315.436 302.02 313.96 304.186L313.628 304.681L313.064 304.377C313.028 303.635 312.959 302.886 313.175 302.16C313.571 300.824 314.437 298.96 315.724 298.32L316.719 299.238C316.295 297.734 316.144 297.577 316.696 296.142Z" fill="#E2A487"/>
<path d="M335.909 288.394L336.302 288.975C331.922 291.731 327.523 294.59 323.642 298.021L323.185 297.471C325.676 293.328 331.635 290.343 335.909 288.394Z" fill="#B78462"/>
<path d="M213.839 298.4C218.235 297.913 221.999 299.544 225.939 301.238C221.417 301.143 217.575 301.326 213.839 298.4Z" fill="#AD7C59"/>
<path d="M203.188 333.832L204.082 333.982C202.491 335.96 188.736 340.137 185.67 341.243L184.756 341.141C190.583 338.253 197.012 335.863 203.188 333.832Z" fill="#B78462"/>
<path d="M310.144 307.642L310.145 308.497C307.97 311.362 305.797 314.824 303.123 317.206C303.285 316.338 303.47 315.454 303.798 314.631C304.986 311.652 307.155 308.873 310.144 307.642Z" fill="#B78462"/>
<path d="M263.279 481.193C262.962 475.82 262.845 470.494 263.27 465.124C264.917 469.167 264.071 476.595 264.025 481.052L263.279 481.193Z" fill="#B78462"/>
<path d="M474.685 376.234C476.629 379.879 477.474 384.139 478.193 388.179C476.679 385.112 474.729 381.936 473.757 378.668L474.35 377.061L474.685 376.234Z" fill="#E2A487"/>
<path d="M314.277 510.547C318.53 510.961 322.786 511.343 327.045 511.693L327.889 512.859C323.147 512.051 318.341 512.356 313.632 511.566C314.042 511.173 313.769 511.468 314.277 510.547Z" fill="#15100F"/>
<path d="M385.735 306.794C388.3 308.246 390.907 309.65 393.334 311.328C390.14 310.452 387.041 309.438 383.922 308.324L385.735 306.794Z" fill="#342219"/>
<path d="M241.716 561.047C239.955 562.049 237.45 563.692 235.434 563.852C235.223 563.868 235.012 563.87 234.8 563.879L235.475 563.915L235.557 562.812C237.104 561.853 239.118 561.202 240.828 560.533L241.716 561.047Z" fill="#E2A487"/>
<path d="M243.011 358.339L243.979 358.309C243.96 359.985 244.102 361.613 243.345 363.153C242.656 361.81 242.962 359.838 243.011 358.339Z" fill="#7C4C34"/>
<path d="M440.588 169.518C440.756 168.567 440.728 168.943 440.745 167.993C440.749 167.774 440.748 167.555 440.75 167.336L442.038 167.579C448.749 173.631 454.698 186.225 454.958 195.303C454.981 196.128 454.896 196.917 454.784 197.731C453.015 194.409 450.932 188.819 448.119 186.424C448.56 190.499 455.919 202.504 457.899 207.968C461.999 218.918 468.624 236.641 468.412 247.838C470.257 255.898 478.276 283.647 475.724 289.415C473.58 295.948 471.368 302.459 469.089 308.947C468.461 299.317 466.25 291.788 463.876 282.481L463.124 283.379C464.978 290.904 465.682 302.539 469 309.117C468.959 309.316 468.92 309.515 468.877 309.714C467.533 315.897 458 343.179 453.46 346.092C450.896 343.621 452.639 322.734 452.747 318.132C453.016 306.646 452.199 295.105 451.554 283.643C449.889 254.05 446.633 224.759 443.948 195.255C444.557 188.044 442.482 176.568 440.588 169.518Z" fill="#AD7C59"/>
<path d="M448.082 207.497C448.564 207.812 449.122 208.032 449.527 208.441C451.85 210.791 473.347 276.545 474.911 283.833C475.301 285.651 475.566 287.562 475.724 289.415C474.052 286.561 473.689 283.07 472.699 279.919C470.633 273.35 468.253 266.856 466.321 260.25C465.056 255.928 464.28 251.394 462.828 247.143C460.681 240.859 458.304 234.406 455.784 228.262C453.146 221.832 449.057 214.374 448.082 207.497Z" fill="#92684B"/>
<path d="M456.737 210.952C455.917 209.779 455.289 208.962 455.144 207.485C456.318 207.076 456.785 207.533 457.899 207.968C461.999 218.918 468.624 236.641 468.412 247.838C468 247.264 467.682 246.655 467.34 246.037C465.388 240.737 464.421 234.943 462.786 229.521C460.926 223.349 458.185 217.206 456.737 210.952Z" fill="#B78462"/>
<path d="M456.737 210.952C459.747 213.738 467.549 240.072 467.613 244.421C467.624 245.219 467.537 245.369 467.34 246.037C465.388 240.737 464.421 234.943 462.786 229.521C460.926 223.349 458.185 217.206 456.737 210.952Z" fill="#523726"/>
<path d="M460.849 271.304C462.267 274.907 463.283 278.655 463.876 282.481L463.124 283.379C462.227 279.376 461.538 275.347 460.849 271.304Z" fill="#523726"/>
<path d="M75.4708 224.514C75.5578 220.754 79.3288 218.184 79.7978 215.841C80.0738 214.459 79.5358 212.847 79.8708 211.273L80.7918 210.997C80.7798 212.928 80.6908 214.889 80.8288 216.814C81.3458 225.625 80.0759 234.054 79.0279 242.777C77.5169 255.351 75.7489 267.966 74.8139 280.597C73.9549 292.522 73.4739 304.471 73.3699 316.426C73.2649 322.898 73.6119 329.654 73.0099 336.083C73.0989 339.85 72.9919 343.58 72.8319 347.344C72.3859 345.121 71.6479 342.665 71.6159 340.405C69.4209 333.517 65.3699 327.338 62.2189 320.871C57.8139 311.83 53.8759 301.866 50.9619 292.239C55.9569 277.78 58.3409 262.611 63.9889 248.402C66.3719 242.409 74.7408 229.478 75.4708 224.514Z" fill="url(#paint2_linear_144_225)"/>
<path d="M71.6159 340.405C72.3989 338.785 71.8209 337.422 73.0099 336.083C73.0989 339.85 72.9919 343.58 72.8319 347.344C72.3859 345.121 71.6479 342.665 71.6159 340.405Z" fill="#B78462"/>
<path d="M68.7719 269.772C68.6409 274.7 65.8689 280.316 64.6529 285.21C63.3099 290.613 62.4449 296.096 61.4709 301.571C58.9479 293.942 66.1358 277.026 68.7719 269.772Z" fill="#523726"/>
<defs>
<linearGradient id="paint0_linear_144_225" x1="170.962" y1="425.665" x2="386.536" y2="508.334" gradientUnits="userSpaceOnUse">
<stop stop-color="#A87755"/>
<stop offset="1" stop-color="#C28E6B"/>
</linearGradient>
<linearGradient id="paint1_linear_144_225" x1="234.515" y1="279.916" x2="348.482" y2="364.237" gradientUnits="userSpaceOnUse">
<stop stop-color="#401708"/>
<stop offset="1" stop-color="#2C1E1E"/>
</linearGradient>
<linearGradient id="paint2_linear_144_225" x1="927.864" y1="603.451" x2="664.751" y2="-24.4603" gradientUnits="userSpaceOnUse">
<stop stop-color="#9D6F4E"/>
<stop offset="1" stop-color="#B78561"/>
</linearGradient>
</defs>
</svg>
