<svg width="547" height="899" viewBox="0 0 547 899" fill="none" xmlns="http://www.w3.org/2000/svg">
<path d="M51.1269 298.32C48.7649 287.75 44.3649 277.545 42.0399 266.632C33.9149 228.493 36.3379 185.989 45.6439 148.286C48.9329 134.96 53.3169 121.016 59.6539 108.822C75.1669 78.9711 105.338 52.5101 133.793 35.4032C195.152 -1.48459 270.718 -7.19329 339.247 9.96581C363.423 16.0193 396.109 29.2198 411.224 49.5081C414.402 53.7741 417.778 64.6561 420.659 66.7421C424.214 69.3141 431.004 69.9901 435.256 71.2121C455.515 77.0341 469.356 90.6431 479.925 108.441C504.737 150.224 508.631 213.158 500.432 260.392C498.15 273.542 493.887 285.941 490.55 298.814C497.094 297.398 506.499 294.329 513.028 296.875C518.272 298.92 521.508 304.483 523.782 309.353C533.783 330.772 530.134 371.885 522.356 393.581C517.533 407.032 510.898 419.054 504.526 431.765C500.11 440.577 496.565 449.7 490.52 457.602C487.045 462.145 482.553 466.321 477.292 468.688C471.124 471.463 466.178 470.367 460.175 468.046C457.547 491.047 455.883 514.912 449.84 537.295C447.436 546.198 441.235 554.015 439.467 562.826C437.747 571.396 437.698 583.083 436.989 592.108C434.912 618.534 432.777 644.884 433.016 671.421C437.53 677.706 443.779 682.909 449.551 688.017C461.761 698.822 474.511 708.971 488.559 717.301C498.236 723.039 508.324 727.876 518.285 733.066C527.05 737.633 534.758 742.69 544.296 745.755C545.255 746.063 545.626 746.165 546.46 746.764L546.127 748.612C545.925 748.84 545.721 749.065 545.523 749.296C541.435 754.039 538.323 760.797 534.783 766.089C528.085 775.942 520.729 785.331 512.766 794.193C459.445 852.859 386.085 889.429 307.142 896.696C220 905.345 132.979 879.132 65.1119 823.792C39.0819 802.129 18.7149 780.572 0.763883 751.845C0.616883 751.226 0.679875 751.636 0.764875 750.598C5.62787 747.94 11.2749 746.355 16.3539 744.043C27.3629 739.033 37.3159 733.184 47.3599 726.453C68.3509 712.387 90.1779 697.547 106.608 678.11C108.328 676.075 111.551 672.681 111.971 670.016C112.004 669.808 112.019 669.598 112.048 669.389C113.351 659.917 112.419 649.542 112.027 640.002C111.178 619.345 109.638 598.837 107.943 578.242C107.46 572.374 107.86 565.167 106.363 559.576C105.038 554.628 101.526 550.651 99.4989 545.997C95.8849 537.698 93.3709 527.706 91.4729 518.837C87.9059 502.173 87.5039 484.947 84.4209 468.156C79.8019 469.312 75.1279 470.679 70.3749 469.422C62.2749 467.279 55.4249 460.228 51.3449 453.187C46.4239 444.694 42.4289 435.976 37.9689 427.279C35.0759 421.638 31.8089 416.192 29.1459 410.434C19.1909 388.908 14.8449 366.507 14.9359 342.856C14.9699 334.027 14.9999 324.899 17.3369 316.329C19.2469 309.322 22.8369 300.682 29.5199 297.075C36.5259 293.293 44.0579 296.378 51.1269 298.32Z" fill="#040101"/>
<path d="M108.968 560.74C116.344 571.995 125.253 581.151 134.314 590.986C156.8 615.39 183.559 643.747 212.983 659.713C219.423 663.208 226.474 665.536 233.639 667.002C256.846 671.748 299.527 671.825 322.371 664.954C330.798 662.419 338.765 658.133 346.062 653.253C371.575 636.189 395.591 610.862 416.111 588.037C423.525 579.791 430.98 571.679 437.468 562.66C433.234 595.065 430.095 627.947 430.027 660.64C430 673.774 430.196 686.769 432.183 699.781C433.601 709.066 436.24 717.723 438.752 726.722L439.718 725.852C434.499 709.196 433.296 691.92 432.397 674.598C449.057 692.245 467.255 708.171 488.331 720.392C498.101 726.057 508.34 730.785 518.395 735.899C527.601 740.583 535.931 746.081 546.127 748.612C545.925 748.84 545.721 749.065 545.523 749.296C541.435 754.039 538.323 760.797 534.783 766.089C528.085 775.942 520.729 785.331 512.766 794.193C459.445 852.859 386.085 889.429 307.142 896.696C220 905.345 132.979 879.132 65.1119 823.792C39.0819 802.129 18.7149 780.572 0.763883 751.845C5.30088 752.036 10.8902 749.188 14.9852 747.377C39.8132 736.395 103.777 696.212 113.081 672.052C113.203 689.649 112.532 707.103 107.123 724.01L107.932 724.971C116.718 696.609 116.425 667.325 115.127 637.976C114.544 623.637 113.627 609.314 112.379 595.017C111.345 583.683 109.177 572.069 108.968 560.74Z" fill="#F6C2A8"/>
<path d="M107.123 724.01L107.932 724.971C107.11 727.972 105.951 730.935 104.924 733.875C105.128 730.496 106.213 727.252 107.123 724.01Z" fill="#2A1D18"/>
<path d="M441.77 732.81C442.651 735.371 443.803 737.997 443.919 740.723L443.651 740.595L443.908 740.116L443.841 739.673L443.138 739.505C442.453 737.518 441.572 735.46 441.12 733.413L441.77 732.81Z" fill="#B07B57"/>
<path d="M439.718 725.852C440.323 728.142 440.788 730.656 441.77 732.81L441.12 733.413C440.195 731.249 439.513 728.951 438.752 726.722L439.718 725.852Z" fill="#5B3D2D"/>
<path d="M75.3481 804.93C91.2901 808.402 106.772 813.662 122.812 816.694C141.299 820.189 159.973 822.969 178.509 826.279C192.759 828.824 207.128 830.529 220.442 836.611C228.225 840.165 233.683 845.192 239.757 851.071C241.206 852.474 243.219 854.019 244.403 855.626C244.584 855.873 244.728 856.145 244.89 856.404C240.968 854.915 234.514 848.005 230.968 845.324C225.81 841.425 220.099 838.768 214.081 836.471C203.02 832.251 191.668 831.446 180.126 829.395C170.728 827.726 161.419 825.588 152.03 823.877C141.316 821.924 130.556 820.417 119.914 818.063C110.69 816.023 101.584 813.295 92.5631 810.51C87.1431 808.836 81.0742 806.464 75.4322 805.745L75.3481 804.93Z" fill="#040101"/>
<path d="M309.199 855.131C316.018 847.046 323.505 840.11 333.316 835.883C348.208 829.467 364.658 827.752 380.534 825.236C394.568 823.013 408.691 820.785 422.653 818.16C438.767 815.131 454.262 810.082 470.116 806.025L470.877 806.831C454.35 811.749 437.898 817.247 420.928 820.447C407.173 823.041 393.331 825.766 379.524 828.023C365.051 830.388 349.394 831.644 335.645 836.961C325.976 840.699 316.711 847.604 310.061 855.52L309.199 855.131Z" fill="#040101"/>
<path d="M364.138 668.092L364.724 669.224C360.547 677.299 357.709 686.691 354.198 695.133C348.644 708.363 343.24 721.656 337.987 735.008C330.766 753.722 323.978 772.328 315.867 790.702C313 797.196 310.012 806.653 305.391 811.993C317.768 787.225 326.849 760.755 336.665 734.917C345.186 712.485 354.572 690.103 364.138 668.092Z" fill="#2A1D18"/>
<path d="M175.901 664.077L176.474 663.153C184.208 679.399 190.87 696.209 198.119 712.682C204.411 726.981 211.359 741.069 217.399 755.466C221.042 764.15 224.498 773.016 227.944 781.779C229.217 785.015 229.697 788.387 231.307 791.519C225.896 780.486 222.246 768.829 217.292 757.625C208.639 738.058 199.217 718.881 190.79 699.199C186.004 688.023 181.712 674.574 175.901 664.077Z" fill="#2A1D18"/>
<path d="M176.968 773.347C182.607 784.865 185.945 797.577 191.471 809.276C187.163 806.09 177.97 779.386 176.968 773.347Z" fill="#7B5747"/>
<path d="M364.138 668.092C366.5 660.675 371.61 650.893 375.806 644.308L376.423 644.009C376.278 644.828 365.963 666.638 364.724 669.224L364.138 668.092Z" fill="#B07B57"/>
<path d="M299.284 725.613L299.561 726.519C293.336 730.691 287.976 734.995 280.139 735.033C278.306 734.924 276.49 734.838 274.676 734.543C284.713 734.742 291.182 730.712 299.284 725.613Z" fill="#2A1D18"/>
<path d="M280.139 735.033C274.96 736.187 268.778 735.362 263.669 734.085C266.933 733.458 271.343 734.296 274.676 734.543C276.49 734.838 278.306 734.924 280.139 735.033Z" fill="#B07B57"/>
<path d="M310.061 855.52C307.582 858.844 304.181 862.195 300.92 864.737C303.566 861.505 306.183 858.014 309.199 855.131L310.061 855.52Z" fill="#B07B57"/>
<path d="M309.799 717.622C306.707 721.155 303.581 724.063 299.561 726.519L299.284 725.613C302.844 723.023 306.23 720.18 309.799 717.622Z" fill="#B07B57"/>
<path d="M470.116 806.025C473.619 804.964 477.575 804.901 480.888 803.584C477.662 804.959 474.327 806.148 470.877 806.831L470.116 806.025Z" fill="#5B3D2D"/>
<path d="M175.901 664.077C174.613 661.37 173.34 658.772 172.594 655.855L172.737 656.314L173.426 656.366C174.589 658.556 175.505 660.872 176.474 663.153L175.901 664.077Z" fill="#7B5747"/>
<path d="M75.4322 805.745C73.9592 805.584 67.7501 804.61 66.8721 803.671C69.5771 803.282 72.7991 803.998 75.3481 804.93L75.4322 805.745Z" fill="#B07B57"/>
<path d="M123.356 109.114C142.441 97.1749 163.943 92.9149 186.113 91.2209C197.178 90.3749 212.927 95.4459 224.19 97.6499C239.85 100.713 259.632 103.627 275.518 103.505C289.042 103.401 303.116 102.016 316.449 99.7389C339.953 95.7259 363.857 88.3349 387.829 93.9619C406.607 98.3689 424.864 111.072 434.935 127.618C438.176 132.941 440.235 138.894 442.481 144.683C454.339 175.243 454.068 193.14 457.599 224.633C460.251 248.288 462.806 271.882 464.072 295.664C465.108 315.116 464.836 334.991 467.867 354.273C474.903 343.441 478.592 330.323 482.748 318.185C484.445 313.229 486.054 308.054 488.547 303.43C494.639 300.58 504.58 296.506 511.234 299.122C517.099 301.428 520.477 307.451 522.679 313.032C529.659 330.726 527.81 362.532 523.428 381.067C521.574 388.907 518.624 396.849 515.386 404.228C511.229 413.702 506.05 422.796 501.32 431.997C497.175 440.059 493.665 449.227 487.968 456.317C484.458 460.683 479.012 465.227 473.704 467.131C471.421 467.951 468.818 468.139 466.615 466.985C464.5 465.877 463.102 463.982 462.425 461.713C460.341 454.73 467.703 405.527 467.541 392.549C467.326 390.507 467.754 388.413 466.669 386.564C463.308 408.272 462.035 430.65 459.821 452.514C458.624 464.337 456.542 476.05 455.14 487.848C453.077 505.216 451.682 523.851 446.03 540.498C442.796 550.025 437.458 558.814 431.074 566.552C426.725 571.823 421.894 576.755 417.325 581.841C410.633 589.292 404.164 597.004 397.274 604.269C383.658 618.628 350.516 650.172 333.564 658.259C323.456 663.081 311.598 664.555 300.561 665.658C278.011 667.911 237.907 668.391 217.06 659.397C208.344 655.636 200.31 649.279 192.99 643.274C178.355 631.153 164.374 618.264 151.106 604.661C145.456 598.752 140.1 592.508 134.561 586.487C122.454 573.327 109.162 560.458 101.613 543.946C92.6701 524.386 91.9741 501.545 89.1601 480.542C84.7061 447.661 80.9421 414.691 77.8701 381.652C76.9061 382.027 77.1571 381.708 76.8591 382.331C77.2021 400.662 79.4231 419.093 81.3031 437.332C82.0301 444.393 83.2611 451.725 83.4591 458.807C83.4951 460.119 83.3211 461.367 82.8231 462.586C82.1011 464.348 80.6811 465.731 78.9011 466.408C75.6941 467.657 71.8131 467.011 68.7311 465.704C64.1871 463.775 60.1001 460.126 57.0761 456.263C50.7761 448.216 46.5611 437.917 41.8711 428.843C36.9811 419.383 31.6791 410.22 27.7211 400.299C18.6301 377.513 12.1511 333.305 22.1511 310.321C24.2711 305.449 27.4901 300.789 32.6761 298.899C39.7391 296.326 48.4431 299.806 54.8891 302.796C60.5461 311.465 66.1251 330.816 70.0091 341.466C71.9931 346.909 74.4781 352.142 76.3281 357.624C76.5891 345.285 77.9101 332.88 78.5771 320.54C79.8661 291.482 81.6621 262.449 83.9641 233.453C85.7361 210.402 85.9151 185.095 91.2211 162.549C94.0871 150.373 99.9971 137.468 107.228 127.205C108.668 125.833 109.586 124.1 110.61 122.412C110.636 118.171 116.064 115.851 117.288 112.189C118.672 110.7 121.399 109.526 123.356 109.114Z" fill="#F6C2A8"/>
<path d="M117.288 112.189C118.672 110.7 121.399 109.526 123.356 109.114C118.831 113.423 114.309 117.32 110.61 122.412C110.636 118.171 116.064 115.851 117.288 112.189Z" fill="#2A1D18"/>
<path d="M467.669 376.126C468.018 381.51 468.44 387.199 467.541 392.549C467.326 390.507 467.754 388.413 466.669 386.564C466.946 383.087 467.137 379.574 467.669 376.126Z" fill="#181516"/>
<path d="M76.8591 382.331C75.9021 379.44 76.6342 375.057 76.8792 372.063C77.3212 375.237 77.5601 378.461 77.8701 381.652C76.9061 382.027 77.1571 381.708 76.8591 382.331Z" fill="#5B3D2D"/>
<path d="M250.607 550.479L249.75 550.577C232.321 552.478 210.537 551.083 196.493 539.556C189.116 533.5 181.758 525.545 181.025 515.574C180.386 506.864 182.789 498.196 188.685 491.654C194.252 485.478 203.894 478.062 212.493 477.724C217.227 477.537 222.139 478.811 226.775 479.692C233.969 481.007 241.133 482.477 248.263 484.102C257.176 486.139 266.745 488.951 275.926 489.074C284.805 489.193 294.405 487.831 303.088 485.894C313.835 483.495 327.909 478.236 338.922 479.665C346.731 480.678 356.056 487.043 361.669 492.441C367.252 497.809 369.317 503.524 369.447 511.166C369.615 521.051 364.985 528.099 358.327 534.935C346.455 547.126 322.981 551.676 306.499 551.784C298.745 551.836 290.799 550.941 283.06 550.367C272.483 549.482 261.187 549.733 250.607 550.479Z" fill="#040101"/>
<path d="M274.18 522.059C275.207 521.25 275.553 521.083 276.883 520.907C284.07 519.957 291.597 520.277 298.848 519.622C306.516 518.928 314.13 517.394 321.798 516.793C323.861 525.148 325.846 536.83 320.979 544.695C320.044 546.206 318.838 547.575 317.639 548.88C311.283 549.028 304.748 549.376 298.412 548.783C300.528 541.512 304.1 530.825 301.788 523.311C300.73 526.922 301.096 530.807 300.688 534.529C300.164 539.31 297.836 543.643 295.833 547.942C293.171 548.33 290.471 548.826 287.793 549.058L273.422 548.963C274.167 539.964 274.074 531.072 274.18 522.059Z" fill="white"/>
<path d="M231.269 516.844C244.658 520 258.362 519.943 271.931 521.341C272.757 521.426 272.518 521.428 273.399 521.927L274.18 522.059C274.074 531.072 274.167 539.964 273.422 548.963L287.793 549.058C286.23 549.411 284.488 549.65 283.06 550.367C272.483 549.482 261.187 549.733 250.607 550.479L251.289 548.364C252.857 544.402 250.872 536.388 250.354 532.068C249.406 533.656 249.529 535.386 249.461 537.179C249.489 541.309 250.705 543.973 248.623 547.899C247.886 548.51 247.359 548.936 246.394 549.137C245.194 549.387 232.357 547.993 229.753 547.967C227.897 542.905 225.932 536.959 225.724 531.559C225.496 525.638 227.425 521.172 231.269 516.844Z" fill="white"/>
<path d="M273.399 521.927L274.18 522.059C274.074 531.072 274.167 539.964 273.422 548.963L287.793 549.058C286.23 549.411 284.488 549.65 283.06 550.367C272.483 549.482 261.187 549.733 250.607 550.479L251.289 548.364C258.271 548.971 265.222 549.008 272.224 549.001C273.571 539.993 272.009 530.803 273.399 521.927Z" fill="#181516"/>
<path d="M249.461 537.179C248.659 532.962 248.281 526.355 250.171 522.439C250.946 524.975 250.289 529.258 250.354 532.068C249.406 533.656 249.529 535.386 249.461 537.179Z" fill="#181516"/>
<path d="M228.716 486.76C228.476 485.289 227.984 483.788 227.603 482.343C230.302 482.92 232.99 483.576 235.679 484.199C240.02 484.949 244.8 486.276 249.146 486.593L250.023 487.088C257.873 489.655 266.537 491.985 274.814 492.604C275.811 492.859 276.91 493.047 277.869 493.407L278.681 493.324L279.023 494.035C278.847 502.052 278.314 510.369 275.836 518.048L274.726 518.045L273.497 518.836C267.686 519.316 259.086 520.079 253.607 518.179L252.847 518.484C245.087 516.389 236.666 516.442 228.743 514.973C228.329 511.303 227.585 507.607 227.721 503.907C227.913 498.686 229.065 493.658 229.01 488.388L228.716 486.76Z" fill="white"/>
<path d="M228.716 486.76C228.476 485.289 227.984 483.788 227.603 482.343C230.302 482.92 232.99 483.576 235.679 484.199C240.02 484.949 244.8 486.276 249.146 486.593L250.023 487.088C249.471 489.068 249.206 490.96 248.982 493.001C248.923 502.368 248.431 509.886 253.607 518.179L252.847 518.484C245.087 516.389 236.666 516.442 228.743 514.973C228.329 511.303 227.585 507.607 227.721 503.907C227.913 498.686 229.065 493.658 229.01 488.388L228.716 486.76Z" fill="white"/>
<path d="M228.716 486.76C228.476 485.289 227.984 483.788 227.603 482.343C230.302 482.92 232.99 483.576 235.679 484.199C240.02 484.949 244.8 486.276 249.146 486.593C248.614 488.497 248.316 490.369 248.054 492.327C241.835 492.901 234.933 490.129 229.01 488.388L228.716 486.76Z" fill="#E2DEDF"/>
<path d="M228.716 486.76C228.476 485.289 227.984 483.788 227.603 482.343C230.302 482.92 232.99 483.576 235.679 484.199C234.845 484.714 234.005 485.218 233.186 485.759C231.637 486.783 230.548 486.778 228.716 486.76Z" fill="#BAB8B9"/>
<path d="M249.146 486.593L250.023 487.088C249.471 489.068 249.206 490.96 248.982 493.001C248.923 502.368 248.431 509.886 253.607 518.179L252.847 518.484C247.051 510.098 247.888 502.029 248.054 492.327C248.316 490.369 248.614 488.497 249.146 486.593Z" fill="#181516"/>
<path d="M250.023 487.088C257.873 489.655 266.537 491.985 274.814 492.604L273.761 496.18C269.602 497.413 253.46 494.416 248.982 493.001C249.206 490.96 249.471 489.068 250.023 487.088Z" fill="#E2DEDF"/>
<path d="M278.681 493.324L279.023 494.035C278.847 502.052 278.314 510.369 275.836 518.048L274.726 518.045C275.119 515.089 276.278 512.262 276.624 509.239C277.225 503.982 277.046 498.635 277.869 493.407L278.681 493.324Z" fill="#181516"/>
<path d="M303.879 488.156C309.891 485.703 317.425 483.836 323.896 483.979C323.997 487.07 324.122 490.032 323.527 493.088C323.431 497.004 325.543 511.219 323.554 513.38C320.79 516.382 305.156 517.592 301.054 517.398C300.532 517.373 300.352 517.305 299.9 517.182L299.428 517.178C296.233 519.223 281.219 519.444 277.304 518.508C276.803 518.388 276.315 518.236 275.836 518.048C278.314 510.369 278.847 502.052 279.023 494.035L278.681 493.324L279.463 491.945C280.277 491.431 300.237 488.418 302.901 488.192L303.663 488.413L303.879 488.156Z" fill="white"/>
<path d="M303.879 488.156C309.891 485.703 317.425 483.836 323.896 483.979C323.997 487.07 324.122 490.032 323.527 493.088C323.431 497.004 325.543 511.219 323.554 513.38C320.79 516.382 305.156 517.592 301.054 517.398C300.532 517.373 300.352 517.305 299.9 517.182L299.428 517.178C299.946 515.044 301.204 513.18 301.974 511.135C304.284 504.999 303.824 498.672 303.118 492.295L302.901 488.192L303.663 488.413L303.879 488.156Z" fill="white"/>
<path d="M303.879 488.156C309.891 485.703 317.425 483.836 323.896 483.979C323.997 487.07 324.122 490.032 323.527 493.088C323.482 491.305 323.416 489.54 323.272 487.763C318.962 487.014 309.885 491.47 304.925 492.18C304.768 492.202 304.611 492.22 304.454 492.24C304.409 490.837 304.149 489.527 303.879 488.156Z" fill="#E2DEDF"/>
<path d="M302.901 488.192L303.663 488.413L303.879 488.156C304.149 489.527 304.409 490.837 304.454 492.24C304.62 501.237 306.017 509.712 299.9 517.182L299.428 517.178C299.946 515.044 301.204 513.18 301.974 511.135C304.284 504.999 303.824 498.672 303.118 492.295L302.901 488.192Z" fill="#181516"/>
<path d="M302.901 488.192L303.118 492.295C297.948 493.189 292.527 494.624 287.296 494.855C284.62 494.973 281.526 493.756 279.023 494.035L278.681 493.324L279.463 491.945C280.277 491.431 300.237 488.418 302.901 488.192Z" fill="#E2DEDF"/>
<path d="M188.619 524.621C189.116 523.077 189.592 521.473 190.533 520.133C193.148 516.409 197.781 512.607 202.332 511.885C204.913 511.476 207.463 512.388 209.532 513.938C216.158 514.881 223.202 514.945 229.637 516.781C224.877 523.077 223.478 529.283 224.605 537.079C225.222 541.35 226.714 544.364 228.233 548.335C222.416 547.822 215.062 546.326 209.587 544.336C208.299 540.801 207.233 537.262 206.248 533.631C205.648 535.174 205.592 536.595 205.502 538.237C205.234 538.527 205.077 538.727 204.725 538.954C203.662 539.641 202.745 539.665 201.551 539.363C196.051 537.972 191.067 529.338 188.619 524.621Z" fill="white"/>
<path d="M188.619 524.621C189.116 523.077 189.592 521.473 190.533 520.133C193.148 516.409 197.781 512.607 202.332 511.885C204.913 511.476 207.463 512.388 209.532 513.938C209.477 514.137 209.426 514.336 209.369 514.535C208.956 515.967 208.11 517.272 207.487 518.626C205.051 523.914 205.138 528.043 206.248 533.631C205.648 535.174 205.592 536.595 205.502 538.237C205.234 538.527 205.077 538.727 204.725 538.954C203.662 539.641 202.745 539.665 201.551 539.363C196.051 537.972 191.067 529.338 188.619 524.621Z" fill="white"/>
<path d="M205.502 538.237C204.308 530.549 203 523.037 206.965 515.848C207.718 514.482 208.032 514.322 209.532 513.938C209.477 514.137 209.426 514.336 209.369 514.535C208.956 515.967 208.11 517.272 207.487 518.626C205.051 523.914 205.138 528.043 206.248 533.631C205.648 535.174 205.592 536.595 205.502 538.237Z" fill="#181516"/>
<path d="M324.328 540.031C324.778 535.47 325.671 530.083 324.828 525.52C324.341 522.879 323.077 520.023 323.024 517.364C323.007 516.549 323.407 516.255 324.049 515.773C327.124 513.466 336.806 513.484 340.37 514.562C341.569 514.925 343.096 515.617 343.727 516.758C348.223 524.885 342.336 535.027 340.617 543.052C337.533 544.66 334.292 545.512 330.96 546.451C327.902 547.106 324.768 547.429 321.668 547.837C322.915 545.184 323.873 542.952 324.328 540.031Z" fill="white"/>
<path d="M321.668 547.837C322.915 545.184 323.873 542.952 324.328 540.031C324.401 541.556 324.205 542.435 325.408 543.601C326.876 545.022 329.403 544.846 330.96 546.451C327.902 547.106 324.768 547.429 321.668 547.837Z" fill="#E2DEDF"/>
<path d="M210.603 484.069L211.176 480.779C213.781 479.459 223.149 481.894 226.315 482.63L226.923 487.77C227.761 493.897 226.383 499.412 226.327 505.507C226.301 508.383 226.85 511.344 227.249 514.187C221.828 513.659 211.647 514.067 207.841 509.625C206.423 507.972 206.572 506.164 206.501 504.12L206.458 503.127L206.438 502.529L206.278 496.881C207.165 492.413 208.876 488.265 210.603 484.069Z" fill="white"/>
<path d="M210.603 484.069L211.176 480.779C213.781 479.459 223.149 481.894 226.315 482.63L226.923 487.77C221.639 485.859 216.013 485.507 210.603 484.069Z" fill="#E2DEDF"/>
<path d="M325.484 486.534L326.039 484.31C327.437 482.971 330.424 482.395 332.327 482.14C335.084 481.77 337.879 481.225 340.193 482.978C341.361 485.071 342.783 487.299 343.521 489.581C345.063 494.353 345.576 503.413 344.122 508.165C343.646 509.721 342.919 510.577 341.429 511.219C337.494 512.915 331.13 512.723 326.866 513.177C324.352 506.175 324.41 493.928 325.484 486.534Z" fill="white"/>
<path d="M325.484 486.534L326.039 484.31C327.437 482.971 330.424 482.395 332.327 482.14C335.084 481.77 337.879 481.225 340.193 482.978C335.979 485.421 330.253 486.058 325.484 486.534Z" fill="#E2DEDF"/>
<path d="M345.571 511.703C350.37 511.278 353.613 512.528 357.397 515.63C359.474 517.332 361.275 519.557 361.521 522.321C361.985 527.554 355.38 533.261 352.13 536.849C349.118 539.454 346.656 540.247 342.863 540.997C345.316 534.178 348.201 524.047 345.033 517.048C344.305 515.438 343.479 514.035 343.857 512.292L345.571 511.703Z" fill="white"/>
<path d="M201.833 485.545C202.827 484.432 203.55 483.515 204.999 482.987C206.001 483.749 205.742 483.269 205.906 484.532C206.169 486.547 205.786 488.585 205.666 490.601L205.254 493.869C205.56 494.879 205.804 495.938 206.278 496.881L206.438 502.529L205.055 504.247C204.846 505.783 204.817 507.077 203.722 508.276C201.224 509.376 198.639 507.972 196.237 507.11C195.722 506.265 194.924 505.458 194.295 504.684C193.122 502.879 192.853 501.404 192.934 499.279C193.165 493.255 197.69 489.283 201.833 485.545Z" fill="white"/>
<path d="M201.833 485.545C202.827 484.432 203.55 483.515 204.999 482.987C206.001 483.749 205.742 483.269 205.906 484.532C206.169 486.547 205.786 488.585 205.666 490.601C203.003 489.034 202.679 488.469 201.833 485.545Z" fill="#E2DEDF"/>
<path d="M205.254 493.869C205.56 494.879 205.804 495.938 206.278 496.881L206.438 502.529L205.055 504.247C204.991 500.767 204.922 497.338 205.254 493.869Z" fill="#181516"/>
<path d="M343.112 483.364C347.036 484.726 351.714 487.562 354.675 490.496C356.612 492.416 358.063 494.742 358.026 497.552C357.984 500.71 356.108 503.358 353.974 505.507C351.426 507.435 348.998 508.864 346.089 510.163C345.401 499.104 347.631 494.587 343.112 483.364Z" fill="white"/>
<path d="M358.755 503.283L359.883 503.824C362.556 507.275 362.579 515.248 363.05 519.559L359.503 515.057C356.737 512.545 354.02 510.778 350.507 509.481C353.805 507.819 356.189 505.886 358.755 503.283Z" fill="#946248"/>
<path d="M194.295 504.684C194.924 505.458 195.722 506.265 196.237 507.11L198.22 509.92C196.784 511.912 193.724 513.028 191.675 514.394C190.726 515.337 190.2 515.861 188.895 516.294C188.017 515.753 187.881 515.568 187.713 514.498C187.214 511.328 189.195 508.336 190.855 505.866L192.539 505.335L194.295 504.684Z" fill="#793010"/>
<path d="M190.855 505.866C190.892 508.675 190.647 511.74 191.675 514.394C190.726 515.337 190.2 515.861 188.895 516.294C188.017 515.753 187.881 515.568 187.713 514.498C187.214 511.328 189.195 508.336 190.855 505.866Z" fill="#69220B"/>
<path d="M194.295 504.684C194.924 505.458 195.722 506.265 196.237 507.11L198.22 509.92C196.156 508.49 194.371 507.052 192.539 505.335L194.295 504.684Z" fill="#181516"/>
<path d="M304.124 279.928C308.697 276.745 313.203 273.216 318.033 270.444C330.353 263.371 360.109 250.087 373.692 246.732C382.047 244.669 391.579 243.462 400.124 244.991C413.292 247.346 424.381 254.06 431.983 265.182C435.25 269.962 439.592 279.749 439.815 285.503L439.277 285.722C438.201 285.516 437.48 285.235 436.527 284.695C427.861 281.308 419.932 277.216 410.823 274.863C393.15 270.299 371.7 278.92 355.611 285.967C346.695 289.872 325.608 300.802 316.392 296.942C311.276 294.8 307.61 289.519 305.619 284.485C305.031 282.997 304.601 281.453 304.124 279.928Z" fill="#B07B57"/>
<path d="M304.124 279.928C308.697 276.745 313.203 273.216 318.033 270.444C330.353 263.371 360.109 250.087 373.692 246.732C382.047 244.669 391.579 243.462 400.124 244.991C413.292 247.346 424.381 254.06 431.983 265.182C435.25 269.962 439.592 279.749 439.815 285.503L439.277 285.722C437.04 277.782 433.736 269.707 428.52 263.254C420.516 253.353 409.101 247.567 396.461 246.27C388.873 245.492 380.423 246.612 373.055 248.445C359.464 251.828 330.986 264.417 318.872 271.442C314.26 274.116 309.994 277.354 305.847 280.691C306.255 282 306.695 283.298 307.168 284.585C309.076 289.717 312.509 292.948 317.41 295.217C331.95 294.47 342.896 288.376 356.002 282.821C365.877 278.635 376.343 274.951 386.893 272.977C406.194 269.366 420.564 273.733 436.527 284.695C427.861 281.308 419.932 277.216 410.823 274.863C393.15 270.299 371.7 278.92 355.611 285.967C346.695 289.872 325.608 300.802 316.392 296.942C311.276 294.8 307.61 289.519 305.619 284.485C305.031 282.997 304.601 281.453 304.124 279.928Z" fill="#040101"/>
<path d="M113.027 284.52L112.049 284.539C112.084 277.84 114.469 270.606 118.52 265.286C126.769 254.453 139.643 246.602 153.195 244.931C160.863 243.985 169.19 245.399 176.591 247.388C189.409 250.832 220.444 264.126 232.031 271.125C236.309 273.709 240.221 277.045 244.147 280.125C243.625 283.523 243.044 287.121 241.418 290.185C238.779 295.155 233.814 297.366 228.316 297.362C216.249 297.351 184.697 281.839 171.055 277.272C163.631 274.864 155.878 273.626 148.073 273.602C135.491 273.491 125.993 280.596 114.499 284.036C114.293 284.097 114.086 284.153 113.88 284.212L113.027 284.52Z" fill="#B07B57"/>
<path d="M113.027 284.52L112.049 284.539C112.084 277.84 114.469 270.606 118.52 265.286C126.769 254.453 139.643 246.602 153.195 244.931C160.863 243.985 169.19 245.399 176.591 247.388C189.409 250.832 220.444 264.126 232.031 271.125C236.309 273.709 240.221 277.045 244.147 280.125C243.625 283.523 243.044 287.121 241.418 290.185C238.779 295.155 233.814 297.366 228.316 297.362C216.249 297.351 184.697 281.839 171.055 277.272C163.631 274.864 155.878 273.626 148.073 273.602C135.491 273.491 125.993 280.596 114.499 284.036C114.293 284.097 114.086 284.153 113.88 284.212C131.135 272.716 142.964 269.164 163.512 273.214C177.243 275.92 191.041 282.157 203.949 287.474C210.407 290.134 217.082 293.436 224.006 294.659C228.22 295.404 233.601 295.407 237.348 293.047C239.634 291.606 240.842 289.351 241.284 286.728C241.662 284.485 241.736 282.142 241.881 279.874C229.512 269.899 214.717 264.237 200.248 258.068C193.18 255.055 185.882 251.597 178.468 249.524C170.529 247.305 162.043 245.671 153.777 246.593C140.879 248.032 128.291 255.359 120.24 265.51C115.654 271.293 114.285 277.067 113.147 284.157C113.126 284.283 113.067 284.399 113.027 284.52Z" fill="#040101"/>
<path d="M138.3 318.44C140.069 316.529 141.834 314.576 143.736 312.797C154.465 302.762 168.608 298.407 183.145 298.993C194.199 299.439 204.417 303.628 211.947 311.802C212.371 311.998 212.866 312.085 213.221 312.39C213.927 312.995 221.418 324.019 221.738 324.955C222.128 326.092 222.029 326.844 221.659 327.956C220.52 329.319 219.402 329.855 217.655 330.065C216.11 330.251 213.869 330.228 212.566 329.263C212.44 329.169 212.342 329.044 212.23 328.934C212.444 327.822 212.943 327.185 213.971 326.66C214.535 326.372 215.334 326.284 215.938 326.175C208.874 326.066 201.666 326.943 194.627 327.523L193.919 327.969C184.037 330.384 163.659 324.24 152.974 322.628L154.614 321.905L153.674 321.557C151.207 319.326 150.977 318.018 150.505 314.761C149.553 315.886 148.761 317.145 147.273 317.538C145.888 317.25 145.211 316.785 144.088 315.981L141.729 317.695L139.815 318.903L139.186 319.266L138.3 318.44Z" fill="#0D0E10"/>
<path d="M138.3 318.44C140.069 316.529 141.834 314.576 143.736 312.797C154.465 302.762 168.608 298.407 183.145 298.993C194.199 299.439 204.417 303.628 211.947 311.802C212.371 311.998 212.866 312.085 213.221 312.39C213.927 312.995 221.418 324.019 221.738 324.955C222.128 326.092 222.029 326.844 221.659 327.956C220.52 329.319 219.402 329.855 217.655 330.065C216.11 330.251 213.869 330.228 212.566 329.263C212.44 329.169 212.342 329.044 212.23 328.934C212.444 327.822 212.943 327.185 213.971 326.66C214.535 326.372 215.334 326.284 215.938 326.175C208.874 326.066 201.666 326.943 194.627 327.523C194.91 325.772 196.886 324.011 197.652 322.348C200.945 315.198 197.363 310.35 195.186 303.926C195.112 303.708 195.043 303.489 194.971 303.27C188.885 300.693 178.731 300.483 172.424 302.277L172.576 303.091C171.12 304.63 169.5 306.146 168.332 307.917C165.279 306.874 158.395 310.099 155.491 311.518C153.7 312.393 151.94 313.357 150.505 314.761C149.553 315.886 148.761 317.145 147.273 317.538C145.888 317.25 145.211 316.785 144.088 315.981L141.729 317.695L139.815 318.903L139.186 319.266L138.3 318.44Z" fill="#040101"/>
<path d="M194.971 303.27C206.167 307.499 212.501 314.609 218.289 324.872L215.938 326.175C208.874 326.066 201.666 326.943 194.627 327.523C194.91 325.772 196.886 324.011 197.652 322.348C200.945 315.198 197.363 310.35 195.186 303.926C195.112 303.708 195.043 303.489 194.971 303.27Z" fill="white"/>
<path d="M144.088 315.981C152.862 308.019 160.904 304.623 172.424 302.277L172.576 303.091C171.12 304.63 169.5 306.146 168.332 307.917C165.279 306.874 158.395 310.099 155.491 311.518C153.7 312.393 151.94 313.357 150.505 314.761C149.553 315.886 148.761 317.145 147.273 317.538C145.888 317.25 145.211 316.785 144.088 315.981Z" fill="#F6C2A8"/>
<path d="M211.947 311.802C212.371 311.998 212.866 312.085 213.221 312.39C213.927 312.995 221.418 324.019 221.738 324.955C222.128 326.092 222.029 326.844 221.659 327.956C220.52 329.319 219.402 329.855 217.655 330.065C216.11 330.251 213.869 330.228 212.566 329.263C212.44 329.169 212.342 329.044 212.23 328.934C212.444 327.822 212.943 327.185 213.971 326.66C214.535 326.372 215.334 326.284 215.938 326.175L218.289 324.872C218.78 324.777 219.161 324.381 219.559 324.086C218.942 320.483 213.608 315.611 211.947 311.802Z" fill="#EDB297"/>
<path d="M150.505 314.761C151.94 313.357 153.7 312.393 155.491 311.518C158.395 310.099 165.279 306.874 168.332 307.917C166.083 313.5 165.52 318.037 167.651 323.791L167.395 324.198C163.139 323.25 158.964 322.322 154.614 321.905L153.674 321.557C151.207 319.326 150.977 318.018 150.505 314.761Z" fill="white"/>
<path d="M154.614 321.905C158.964 322.322 163.139 323.25 167.395 324.198C173.155 325.818 178.863 326.662 184.816 327.162C187.675 327.402 191.188 327.179 193.919 327.969C184.037 330.384 163.659 324.24 152.974 322.628L154.614 321.905Z" fill="#181516"/>
<path d="M187.368 311.903C189.066 311.953 189.974 311.698 191.34 312.758C192.043 314.326 192.363 315.554 191.946 317.27C191.318 319.856 189.504 322.215 187.229 323.58C185.178 324.811 182.818 325.084 180.528 324.417C178.121 323.709 176.121 322.026 175.013 319.776C173.682 317.131 173.503 313.839 174.428 311.037C175.156 308.833 176.572 306.802 178.734 305.816C181.504 304.554 183.729 305.497 186.363 306.605C187.822 306.714 189.521 306.738 190.643 307.825C191.591 308.743 191.497 309.171 191.352 310.347C190.174 311.737 189.123 311.617 187.368 311.903Z" fill="#040101"/>
<path d="M186.363 306.605C187.822 306.714 189.521 306.738 190.643 307.825C191.591 308.743 191.497 309.171 191.352 310.347C190.174 311.737 189.123 311.617 187.368 311.903L185.743 311.908C184.526 311.243 184.512 311.298 184.054 309.998C184.584 308.131 184.985 307.886 186.363 306.605Z" fill="white"/>
<path d="M348.313 303.633C363.36 297.81 379.328 296.839 394.389 303.429C400.906 306.281 405.517 310.308 410.799 314.921C411.776 316.165 413.957 318.249 414.263 319.72C412.648 318.937 411.182 317.855 409.687 316.863C407.569 317.526 405.61 318.241 403.363 318.237C400.294 319.106 395.508 320.542 392.934 322.36C387.225 325.811 370.147 328.149 363.188 328.531L361.167 328.535C360.073 327.818 358.913 327.732 357.651 327.541C352.964 327.366 335.857 327.87 332.977 325.44L332.95 324.438C332.916 323.855 332.887 323.272 332.916 322.687C333.249 316.003 343.432 308.427 347.914 304.05C348.051 303.916 348.18 303.772 348.313 303.633Z" fill="#040101"/>
<path d="M357.28 303.243C363.776 300.125 374.815 300.51 381.623 302.304L381.455 302.967C385.093 308.071 387.396 312.663 386.396 319.211C386.159 320.757 385.779 322.301 385.431 323.825L392.934 322.36C387.225 325.811 370.147 328.149 363.188 328.531L361.167 328.535C360.073 327.818 358.913 327.732 357.651 327.541C353.423 322.185 353.581 316.312 354.244 309.88C355.178 307.627 356.552 305.57 357.28 303.243Z" fill="#0D0E10"/>
<path d="M392.934 322.36C387.225 325.811 370.147 328.149 363.188 328.531C368.981 326.123 378.985 325.344 385.431 323.825L392.934 322.36Z" fill="#181516"/>
<path d="M365.523 307.029C368.515 305.513 370.54 304.564 373.912 305.606C375.54 306.109 376.753 307.401 377.493 308.895C379.009 311.959 379.613 316.114 378.277 319.336C377.298 321.698 375.222 323.468 372.816 324.27C370.279 325.137 367.49 324.854 365.179 323.494C363.153 322.301 361.624 320.349 361.145 318.031C360.623 315.5 361.014 312.303 362.175 310.003C362.493 308.873 362.967 308.023 363.898 307.284C364.644 306.692 364.674 306.897 365.523 307.029Z" fill="#040101"/>
<path d="M362.175 310.003C362.493 308.873 362.967 308.023 363.898 307.284C364.644 306.692 364.674 306.897 365.523 307.029C366.969 307.845 368.109 308.37 368.929 309.894C369.088 311.352 369.109 311.511 368.432 312.801C367.31 313.409 366.672 313.799 365.32 313.479C363.694 313.095 362.766 311.423 362.175 310.003Z" fill="white"/>
<path d="M344.535 309.741C349.312 311.935 352.218 308.122 354.244 309.88C353.581 316.312 353.423 322.185 357.651 327.541C352.964 327.366 335.857 327.87 332.977 325.44L332.95 324.438C336.562 319.336 340.034 314.114 344.535 309.741Z" fill="white"/>
<path d="M381.623 302.304C392.442 304.803 400.328 309.134 408.657 316.348L403.363 318.237C400.294 319.106 395.508 320.542 392.934 322.36L385.431 323.825C385.779 322.301 386.159 320.757 386.396 319.211C387.396 312.663 385.093 308.071 381.455 302.967L381.623 302.304Z" fill="white"/>
<path d="M344.535 309.741C348.53 306.841 352.635 304.875 357.28 303.243C356.552 305.57 355.178 307.627 354.244 309.88C352.218 308.122 349.312 311.935 344.535 309.741Z" fill="#E2DEDF"/>
<path d="M58.144 352.672C54.096 343.224 43.607 320.898 34.275 316.866C33.16 316.384 31.918 316.142 30.728 316.515C28.55 317.196 27.299 319.552 26.543 321.533C23.934 328.374 25.048 341.678 23.497 344.971C22.26 343.36 22.998 330.297 23.377 327.577C23.952 323.449 25.325 317.572 28.866 315.043C30.184 314.101 31.736 313.86 33.297 314.223C40.487 315.898 46.05 325.694 49.425 331.614C57.154 345.177 68.852 364.333 65.156 380.306C64.077 384.969 61.451 391.3 62.391 396.072C63.844 403.443 72.013 413.89 75.357 421.286C71.934 423.953 69.037 426.9 66.376 430.329C66.031 431.58 65.247 432.099 64.291 432.884C61.249 429.684 59.64 425.523 57.991 421.515C50.417 418.62 47.756 413.544 44.16 406.765C43.473 404.214 44.253 400.618 44.539 397.994C45.693 381.085 47.633 366.558 58.144 352.672Z" fill="#EDB297"/>
<path d="M58.144 352.672C54.096 343.224 43.607 320.898 34.275 316.866C33.16 316.384 31.918 316.142 30.728 316.515C28.55 317.196 27.299 319.552 26.543 321.533C23.934 328.374 25.048 341.678 23.497 344.971C22.26 343.36 22.998 330.297 23.377 327.577C23.952 323.449 25.325 317.572 28.866 315.043C30.184 314.101 31.736 313.86 33.297 314.223C40.487 315.898 46.05 325.694 49.425 331.614C57.154 345.177 68.852 364.333 65.156 380.306C64.077 384.969 61.451 391.3 62.391 396.072C63.844 403.443 72.013 413.89 75.357 421.286C71.934 423.953 69.037 426.9 66.376 430.329C67.448 426.122 70.151 423.506 73.088 420.508C69.835 412.328 61.84 405.005 60.253 396.211C59.605 392.623 60.504 389.667 61.621 386.313C66.021 373.114 64.594 366.034 58.835 353.614C49.476 366.38 46.04 381.206 45.502 396.898L44.539 397.994C45.693 381.085 47.633 366.558 58.144 352.672Z" fill="#040101"/>
<path d="M44.6621 404.871C48.7241 412.08 51.4431 417.486 59.4251 420.683C61.0441 424.648 63.094 428.788 64.291 432.884C61.249 429.684 59.64 425.523 57.991 421.515C50.417 418.62 47.756 413.544 44.16 406.765L44.6621 404.871Z" fill="#040101"/>
<path d="M44.539 397.994L45.502 396.898C45.208 399.377 45.2811 402.525 44.6621 404.871L44.16 406.765C43.473 404.214 44.253 400.618 44.539 397.994Z" fill="#B07B57"/>
<path d="M482.871 394.161C481.237 387.706 478.661 381.035 478.154 374.38C477.904 371.098 478.33 367.913 479.194 364.753C482.186 353.807 494.577 327.781 501.974 319.368C504.136 316.909 508.215 313.158 511.772 313.262C513.441 313.311 514.444 314.017 515.454 315.259C519.828 320.632 520.953 334.495 520.364 341.315L519.881 341.047C518.621 335.946 518.792 330.577 517.778 325.415C517.205 322.497 516.012 317.636 513.13 316.152C512.14 315.642 510.986 315.673 509.947 315.997C498.844 319.451 488.956 346.821 483.715 356.765C492.923 366.087 496.97 380.738 498.531 393.372C499.383 397.05 498.974 400.915 498.534 404.626C496.431 414.298 490.27 415.672 484.701 422.176C482.513 424.732 481.536 428.221 479.81 431.084L479.739 432.094L479.036 432.558C477.826 432.095 477.482 431.545 476.766 430.492C474.586 428.854 471.565 426.088 470.445 423.604C467.105 416.197 475.491 407.781 479.195 401.892C480.748 399.423 481.869 396.894 482.871 394.161Z" fill="#EDB297"/>
<path d="M482.871 394.161C481.237 387.706 478.661 381.035 478.154 374.38C477.904 371.098 478.33 367.913 479.194 364.753C482.186 353.807 494.577 327.781 501.974 319.368C504.136 316.909 508.215 313.158 511.772 313.262C513.441 313.311 514.444 314.017 515.454 315.259C519.828 320.632 520.953 334.495 520.364 341.315L519.881 341.047C518.621 335.946 518.792 330.577 517.778 325.415C517.205 322.497 516.012 317.636 513.13 316.152C512.14 315.642 510.986 315.673 509.947 315.997C498.844 319.451 488.956 346.821 483.715 356.765C492.923 366.087 496.97 380.738 498.531 393.372L498.105 396.829C496.002 381.766 491.683 370.118 483.541 357.267C475.828 374.208 481.091 377.799 485.045 393.254C484.997 393.451 484.952 393.649 484.901 393.846C482.456 403.269 471.552 414.88 470.351 419.957C470.081 421.099 470.507 421.796 471.07 422.768C472.694 425.57 475.496 427.392 476.766 430.492C474.586 428.854 471.565 426.088 470.445 423.604C467.105 416.197 475.491 407.781 479.195 401.892C480.748 399.423 481.869 396.894 482.871 394.161Z" fill="#040101"/>
<path d="M498.006 404.526L498.534 404.626C496.431 414.298 490.27 415.672 484.701 422.176C482.513 424.732 481.536 428.221 479.81 431.084C480.198 427.557 481.708 424.084 483.033 420.824C490.239 416.3 493.715 411.773 498.006 404.526Z" fill="#040101"/>
<path d="M498.531 393.372C499.383 397.05 498.974 400.915 498.534 404.626L498.006 404.526C497.957 401.95 498.007 399.402 498.105 396.829L498.531 393.372Z" fill="#B07B57"/>
<path d="M366.367 283.946C363.877 285.956 360.189 287.394 357.356 289.004C353.053 291.449 349.039 294.167 345.082 297.132C343.25 303.217 330.142 305.703 327.321 312.835C327.119 313.346 326.864 313.834 326.629 314.331L326.103 314.135C326.007 312.557 326.426 311.37 326.911 309.901C326.092 310.652 324.476 312.225 324.34 313.324C324.148 314.868 323.907 315.548 322.943 316.819C322.801 317.007 322.669 317.202 322.529 317.392C322.436 317.519 322.34 317.645 322.245 317.771L322.51 318.581C326.424 318.794 333.57 310.926 336.589 308.416C339.111 306.32 342.655 307.057 345.362 304.693C346.062 304.081 346.689 303.863 347.554 303.552L348.313 303.633C348.18 303.772 348.051 303.916 347.914 304.05C343.432 308.427 333.249 316.003 332.916 322.687C332.887 323.272 332.916 323.855 332.95 324.438L332.977 325.44C335.857 327.87 352.964 327.366 357.651 327.541C358.913 327.732 360.073 327.818 361.167 328.535C354.715 328.917 348.182 327.495 341.705 327.847L340.798 327.903C336.889 328.124 334.768 331.969 330.867 331.346C330.095 330.802 329.491 330.443 328.59 330.125C327.796 329.845 327.032 329.57 326.255 329.246L326.37 328.021C327.421 326.856 328.418 326.492 329.875 325.941C330.925 325.543 330.052 323.266 330.737 321.996C333.4 317.056 338.24 313.252 340.999 308.422L340.115 308.459C339.415 309.048 339.682 308.945 338.933 309.193C338.779 309.244 338.62 309.283 338.464 309.328C333.676 313.718 328.645 319.57 321.948 320.635C320.297 320.731 318.674 320.969 317.081 320.424C313.544 319.646 310.7 319.3 307.115 320.225C306.323 321.018 305.785 321.494 304.735 321.904L304.41 321.243C304.626 320.597 304.652 320.431 305.02 319.781C308.025 314.47 313.198 319.052 317.134 317.473C320.38 316.172 331.684 300.659 340.571 298.166C349.914 293.284 355.642 286.824 366.367 283.946Z" fill="#EDB297"/>
<path d="M366.367 283.946C363.877 285.956 360.189 287.394 357.356 289.004C353.053 291.449 349.039 294.167 345.082 297.132C339.392 301.058 334.125 305.424 327.87 308.447C331.763 304.584 336.742 302.086 340.571 298.166C349.914 293.284 355.642 286.824 366.367 283.946Z" fill="#040101"/>
<path d="M321.948 320.635C327.681 317.699 332.617 311.185 338.464 309.328C333.676 313.718 328.645 319.57 321.948 320.635Z" fill="#2A1D18"/>
<path d="M307.115 320.225L306.913 319.472C308.625 317.902 310.981 318.043 313.164 318.13C314.877 318.197 317.543 318.304 318.828 319.41C318.081 320.126 318.009 320.178 317.081 320.424C313.544 319.646 310.7 319.3 307.115 320.225Z" fill="#040101"/>
<path d="M310.39 426.088C312.163 425.929 314.097 425.831 315.849 426.169C316.956 426.383 317.669 426.334 318.297 427.292C314.387 430.803 307.585 430.165 302.997 432.861C298.111 435.732 295.635 441.361 291.061 444.762C287.313 447.55 283.016 448.842 278.417 449.326C256.718 451.612 257.25 432.616 241.228 430.283L240.535 430.188C238.179 430.02 235.099 429.977 233.117 428.646L233.258 427.857C233.81 427.613 234.371 427.342 234.964 427.214C250.316 423.901 253.512 437.326 264.053 443.922C267.88 446.317 272.031 447.197 276.51 446.99C295.293 446.124 294.909 429.859 309.69 426.254L310.39 426.088Z" fill="#040101"/>
<path d="M396.017 499.712C395.624 462.227 369.71 432.056 344.32 407.174C339.444 402.397 332.444 397.13 328.973 391.314C331.863 392.42 337.938 399.482 340.474 401.964C359.863 420.94 378.481 439.094 389.71 464.318C395.54 477.413 397.135 488.726 396.996 502.907L396.017 499.712Z" fill="#040101"/>
<path d="M213.745 397.72L214.188 398.651C185.743 425.346 154.249 456.526 153.038 498.248C152.99 500.502 152.979 502.756 153.004 505.01L151.987 503.779C151.977 499.666 151.937 495.536 152.201 491.429C154.6 454.133 187.1 421.051 213.745 397.72Z" fill="#040101"/>
<path d="M362.233 351.187C352.726 348.878 343.941 343.668 335.185 339.515C332.009 338.008 328.636 336.925 325.417 335.5L325.896 335.272C330.589 336.053 334.748 337.927 338.942 340.109C340.546 339.202 340.982 339.334 342.741 339.794C349.419 341.542 355.671 345.235 362.161 347.602C365.133 348.686 370.386 349.578 372.877 351.305C377.681 352.752 382.476 354.537 387.329 355.764C385.176 356.058 383.09 356.151 381.031 355.355C380.852 355.415 380.673 355.477 380.492 355.535C380.241 355.615 379.986 355.687 379.735 355.767C374.384 357.485 367.098 353.383 362.233 351.187Z" fill="#EDB297"/>
<path d="M362.233 351.187C352.726 348.878 343.941 343.668 335.185 339.515C332.009 338.008 328.636 336.925 325.417 335.5L325.896 335.272C330.589 336.053 334.748 337.927 338.942 340.109C342.061 342.184 361.641 350.183 362.233 351.187Z" fill="#946248"/>
<path d="M372.877 351.305C377.681 352.752 382.476 354.537 387.329 355.764C385.176 356.058 383.09 356.151 381.031 355.355C378.334 354.389 374.632 353.631 372.877 351.305Z" fill="#B07B57"/>
<path d="M296.726 294.001C299.363 296.37 301.868 298.442 305.282 299.621C306.159 299.376 305.9 299.597 306.233 299.249C307.427 299.332 307.61 299.195 308.621 299.93L308.646 300.502L307.891 300.047C308.419 301.374 308.633 302.642 309.79 303.515C311.257 303.394 312.107 302.936 313.344 302.222C313.154 303.177 313.297 302.753 312.963 303.508C316.668 304.509 322.596 300.223 325.801 302.309L325.795 303.041C322.39 305.702 315.493 306.314 311.209 305.675C308.056 305.205 304.63 303.321 301.608 302.225L301.552 302.682C301.674 302.806 301.798 302.927 301.919 303.052C302.879 304.042 303.749 304.877 303.768 306.361C303.808 309.7 300.48 312.161 299.229 315.003C298.404 316.876 298.239 319.707 297.879 321.746L297.197 321.861C297.3 319.647 297.889 317.745 297.742 315.461C298.067 314.251 298.357 313.048 298.62 311.823C297.553 310.827 296.665 310.971 295.241 310.792C296.901 310.534 298.071 310.064 299.563 309.303L299.565 308.826L297.622 308.844C297.949 305.93 300.355 303.593 300.52 301.094C300.605 299.803 299.522 298.183 298.787 297.197C298.018 296.165 297.372 295.113 296.726 294.001Z" fill="#B07B57"/>
<path d="M230.402 383.049L230.679 383.269C227.068 387.824 223.104 392.706 220.686 398.028C217.688 404.627 216.165 412.717 218.887 419.648C222.305 428.357 232.787 430.45 240.58 433.77L240.975 434.519C234.553 433.465 225.913 430.946 221.225 426.245C217.074 422.082 215.356 416.328 215.562 410.54C215.943 399.888 222.725 389.992 230.402 383.049Z" fill="#040101"/>
<path d="M318.654 382.404C325.406 386.989 331.687 396.689 333.533 404.592C335.064 411.148 333.901 418.424 330.124 424.026C326.146 429.927 320.956 432.366 314.252 433.765L313.604 433.657C314.371 432.468 322.144 429.57 324.1 428.139C328.81 424.692 331.506 419.735 332.221 413.976C333.81 401.197 325.916 391.863 318.654 382.404Z" fill="#040101"/>
<path d="M44.4302 330.485C44.8972 331.202 41.4112 334.357 40.6682 335.186C36.6732 339.646 33.6452 344.015 32.1732 349.93C27.7832 367.566 31.4942 385.334 30.9242 403.135C27.8832 389.786 28.1332 374.642 29.2592 361.077C30.4442 346.8 33.5522 339.686 44.4302 330.485Z" fill="#040101"/>
<path d="M248.59 311.431C247.928 311.036 247.596 310.567 247.107 309.981L247.382 309.099C251.566 308.263 257.961 310.569 262.502 310.66C266.371 310.738 269.955 308.051 273.98 307.969C279.198 307.861 284.391 309.684 289.611 309.848C292.217 309.929 295.05 309.269 297.622 308.844L299.565 308.826L299.563 309.303C298.071 310.064 296.901 310.534 295.241 310.792C285.985 313.257 281.962 309.051 273.502 309.574C268.651 309.874 264.324 312.646 259.348 312.626C256.473 312.614 253.292 311.496 250.511 310.777C249.712 310.926 249.328 311.037 248.59 311.431Z" fill="#040101"/>
<path d="M261.068 259.191L261.489 259.11C261.973 262.988 261.966 266.694 261.539 270.576C260.256 282.238 257.654 291.388 247.971 298.783C245.004 301.049 242.113 302.439 238.325 301.92L238.139 301.366C239.813 299.969 242.392 300.053 244.328 299.069C246.75 297.839 249.474 294.804 251.429 292.898C259.027 285.492 261.052 269.425 261.068 259.191Z" fill="#040101"/>
<path d="M501.686 331.339C504.734 333.586 507.53 337.142 509.327 340.431C517.13 354.714 516.221 384.954 511.735 400.376C511.071 395.56 512.524 389.207 513.048 384.308C514.553 370.254 514.684 355.277 508.327 342.201C506.461 338.364 503.872 334.993 501.686 331.339Z" fill="#040101"/>
<path d="M272.857 581.199C285.137 581.534 307.586 582.182 318.756 585.995C313.95 586.037 308.802 584.934 304 584.418C295.808 583.569 287.599 582.91 279.377 582.442C264.095 580.942 248.942 586.31 233.835 586.733C245.967 582.95 260.19 581.791 272.857 581.199Z" fill="#2A1D18"/>
<path d="M288.643 258.494C288.752 260.302 288.578 262.749 289.3 264.389C290.366 276.031 291.821 287.38 301.358 295.387C302.945 296.719 304.631 297.932 306.233 299.249C305.9 299.597 306.159 299.376 305.282 299.621C301.868 298.442 299.363 296.37 296.726 294.001C289.817 283.767 286.409 270.771 288.643 258.494Z" fill="#040101"/>
<path d="M183.91 284.584C192.773 285.378 215.651 302.201 222.575 308.014C215.153 306.189 203.181 296.275 196.501 291.841C192.422 289.135 188.296 286.758 183.91 284.584Z" fill="#040101"/>
<path d="M297.742 315.461C297.889 317.745 297.3 319.647 297.197 321.861C295.172 333.694 294.908 346.177 297.203 358.009L296.118 358.385C293.444 344.355 292.436 329.003 297.742 315.461Z" fill="#040101"/>
<path d="M144.088 315.981C145.211 316.785 145.888 317.25 147.273 317.538C148.761 317.145 149.553 315.886 150.505 314.761C150.977 318.018 151.207 319.326 153.674 321.557L154.614 321.905L152.974 322.628C150.57 322.573 146.53 323.016 144.743 321.149C144.636 321.038 144.61 320.869 144.518 320.745C143.502 319.368 141.377 319.224 139.815 318.903L141.729 317.695L144.088 315.981Z" fill="#E2DEDF"/>
<path d="M141.729 317.695C145.906 319.911 148.816 321.526 153.674 321.557L154.614 321.905L152.974 322.628C150.57 322.573 146.53 323.016 144.743 321.149C144.636 321.038 144.61 320.869 144.518 320.745C143.502 319.368 141.377 319.224 139.815 318.903L141.729 317.695Z" fill="#EDB297"/>
<path d="M251.816 317.229L252.544 316.034C256.741 326.192 257.77 341.082 255.248 351.736C255.245 351.748 255.248 351.762 255.247 351.775C254.75 340.499 255.611 328.026 251.816 317.229Z" fill="#181516"/>
<path d="M216.664 338.474L217.214 338.584L217.123 339.093C202.699 345.862 187.533 352.916 171.726 355.722L171.255 355.635C179.312 352.508 187.827 350.51 195.938 347.51C203.005 344.896 209.545 341.032 216.664 338.474Z" fill="#7B5747"/>
<path d="M123.303 524.373L123.919 523.357C125.502 533.057 128.121 543.178 132.768 551.898C135.083 556.242 138.566 560.829 140.019 565.495L139.75 565.702C139.177 564.946 138.825 564.276 138.453 563.419C137.201 560.535 134.807 558.18 133.29 555.398C128.013 545.724 124.798 535.261 123.303 524.373Z" fill="#2A1D18"/>
<path d="M420.756 521.125C421.709 535.205 414.236 550.118 406.77 561.562C406.623 559.231 411.854 550.918 413.136 548.07C416.897 539.716 420.041 530.304 420.756 521.125Z" fill="#2A1D18"/>
<path d="M410.799 314.921C411.828 314.648 412.541 314.668 413.6 314.663C415.042 315.266 415.967 315.324 417.495 315.338C417.388 317.203 417.21 317.766 416.024 319.209L416.031 320.135C418.509 320.898 421.616 320.361 423.849 321.466L423.72 321.912C420.659 322.107 416.417 322.146 413.499 321.24L414.595 320.63L414.263 319.72C413.957 318.249 411.776 316.165 410.799 314.921Z" fill="#B07B57"/>
<path d="M288.643 258.494C288.824 249.637 292.292 236.531 295.352 227.992L295.726 227.675C295.536 233.135 293.15 238.831 291.778 244.128C289.985 251.056 289.442 257.26 289.3 264.389C288.578 262.749 288.752 260.302 288.643 258.494Z" fill="#946248"/>
<path d="M261.068 259.191C260.142 250.92 258.667 243.906 256.161 235.942C254.998 232.243 252.736 228.066 252.329 224.264L252.805 224.036C256.354 233.699 262.178 248.968 261.489 259.11L261.068 259.191Z" fill="#B07B57"/>
<path d="M414.857 325.748C424.561 325.47 437.001 327.865 445.713 332.069C438.65 331.254 431.568 328.797 424.585 327.344C421.384 326.678 417.96 326.701 414.857 325.748Z" fill="#946248"/>
<path d="M264.772 186.457C274.127 187.164 283.914 187.476 293.242 186.374L291.953 187.493C283.258 188.24 274.792 187.847 266.09 187.536L264.772 186.457Z" fill="#2A1D18"/>
<path d="M359.208 337.277C362.324 336.902 380.441 338.089 382.768 339.195C375.299 339.828 366.343 339.854 359.208 337.277Z" fill="#EDB297"/>
<path d="M133.897 325.166L136.606 325.233C135.642 325.741 136.069 325.597 135.096 325.828C128.155 327.477 121.75 329.963 114.511 329.995C113.357 330.176 112.36 330.215 111.194 330.149L111.02 329.818C118.904 329.059 126.253 327.145 133.897 325.166Z" fill="#946248"/>
<path d="M212.683 308.877C216.587 309.831 224.462 318.3 228.795 321.029C222.492 319.883 216.871 313.406 212.683 308.877Z" fill="#2A1D18"/>
<path d="M241.289 185.593C249.001 185.318 257.082 185.768 264.772 186.457L266.09 187.536C257.906 186.74 249.336 187.385 241.289 185.593Z" fill="#7B5747"/>
<path d="M157.339 578.764C160.778 580.717 164.589 588.701 165.845 592.362L165.275 592.372C162.281 588.144 159.281 583.582 157.339 578.764Z" fill="#EDB297"/>
<path d="M360.668 537.86C362.77 537.767 365.253 537.964 366.864 539.452C367.644 540.172 367.44 540.491 367.516 541.477C366.108 541.922 365.673 542.164 364.218 541.66C362.324 541.004 361.429 539.604 360.668 537.86Z" fill="#EDB297"/>
<path d="M235.228 317.978C238.638 317.796 243.604 318.218 246.474 320.276L245.228 320.366C241.198 319.426 237.115 319.79 233.06 319.084L232.779 318.568L235.228 317.978Z" fill="#2A1D18"/>
<path d="M352.68 547.58L353.375 547.896C353.958 549.043 354.348 549.981 354.056 551.299C353.709 552.859 353.133 553.111 351.904 553.971C351.325 552.643 350.757 551.323 350.256 549.962C350.769 548.504 351.401 548.389 352.68 547.58Z" fill="#EDB297"/>
<path d="M194.381 589.413C194.527 589.464 194.675 589.506 194.817 589.565C196.52 590.271 202.723 593.501 203.669 594.876C204.066 595.451 204.327 596.606 204.586 597.29C200.899 596.006 196.69 592.557 194.381 589.413Z" fill="#EDB297"/>
<path d="M123.303 524.373C121.843 519.787 122.911 511.896 123.502 507.104C124.372 512.032 124.454 518.377 123.919 523.357L123.303 524.373Z" fill="#EDB297"/>
<path d="M293.242 186.374C298.428 185.607 303.962 185.678 309.211 185.411L309.454 185.961C303.628 186.558 297.794 187.068 291.953 187.493L293.242 186.374Z" fill="#7B5747"/>
<path d="M287.924 471.781C288.645 472.389 289.203 472.842 289.506 473.781C290.109 475.652 289.497 477.214 288.567 478.815C287.675 478.186 287.398 478.229 287.062 477.129C286.454 475.136 287.024 473.561 287.924 471.781Z" fill="#EDB297"/>
<path d="M213.745 397.72C215.518 395.302 218.062 391.064 220.665 389.693C220.737 392.015 216.159 396.597 214.585 398.265C214.459 398.4 214.32 398.523 214.188 398.651L213.745 397.72Z" fill="#B07B57"/>
<path d="M219.893 309.102C222.617 309.686 225.346 311.099 227.43 312.94C228.292 313.701 228.219 313.696 228.287 314.837C225.566 312.507 222.319 312.112 219.893 309.102Z" fill="#946248"/>
<path d="M139.186 319.266C136.292 319.804 131.138 320.235 128.228 319.68C127.923 319.622 127.617 319.464 127.311 319.515L128.417 319.887L128.695 318.742C131.845 318.376 135.125 318.485 138.3 318.44L139.186 319.266Z" fill="#946248"/>
<path d="M413.6 314.663C418.34 313.996 422.318 314.217 427.052 314.734C423.857 315.33 420.688 314.924 417.495 315.338C415.967 315.324 415.042 315.266 413.6 314.663Z" fill="#7B5747"/>
<path d="M360.376 587.763L360.405 586.815C362.739 584.781 365.253 582.8 367.331 580.507L367.991 580.561C367.491 583.234 362.854 585.931 361.211 588.203L360.376 587.763Z" fill="#EDB297"/>
<path d="M360.376 587.763L361.211 588.203C359.094 590.65 356.913 593.215 353.988 594.705L354.176 593.956L354.836 594.225L354.594 593.401C356.332 591.385 358.444 589.598 360.376 587.763Z" fill="#EDB297"/>
<path d="M226.346 332.522L226.911 333.154C224.321 335.041 219.716 335.82 216.611 337.005L216.299 336.86C219.572 334.918 222.626 333.479 226.346 332.522Z" fill="#B07B57"/>
<path d="M431.579 311.703C434.243 311.13 437.569 311.503 440.319 311.544C438.666 311.973 436.815 312.118 435.12 312.389C432.277 312.685 429.635 312.898 426.773 312.679L427.813 312.238L427.245 312.617L428.128 312.58L428.347 312.054L431.579 311.703Z" fill="#946248"/>
<path d="M277.243 621.958C278.647 623.848 277.632 630.797 277.513 633.219C275.93 629.696 276.793 625.64 277.243 621.958Z" fill="#EDB297"/>
<path d="M342.519 552.822C342.688 552.957 342.878 553.068 343.025 553.225C344.496 554.804 344.235 557.682 344.05 559.643C343.693 559.394 343.407 559.226 343.123 558.867C341.694 557.065 342.092 554.871 342.519 552.822Z" fill="#EDB297"/>
<path d="M177.863 582.451C180.817 584.543 183.122 587.442 185.456 590.173C182.17 588.975 179.362 585.528 177.863 582.451Z" fill="#EDB297"/>
<path d="M139.238 348.404C139.689 348.443 140.245 348.62 140.689 348.724C139.13 350.128 134.677 350.986 132.607 351.62L131.738 352.011L131.45 351.562C133.978 350.207 136.529 349.315 139.238 348.404Z" fill="#B07B57"/>
<path d="M407.392 347.53C407.516 347.523 407.641 347.519 407.765 347.51C411.995 347.21 414.913 349.516 418.4 351.608C414.604 351.24 411.283 348.313 407.392 347.53Z" fill="#B07B57"/>
<path d="M396.017 499.712L396.996 502.907C397.064 504.611 397.295 507.564 396.543 509.068C395.773 506.011 395.983 502.84 396.017 499.712Z" fill="#7B5747"/>
<path d="M227.23 304.05C230.424 303.696 231.793 304.094 234.4 305.992C231.585 306.043 229.656 305.463 227.23 304.05Z" fill="#946248"/>
<path d="M296.118 358.385L297.203 358.009C297.783 361.425 298.33 364.784 298.546 368.245C297.638 364.969 296.778 361.722 296.118 358.385Z" fill="#5B3D2D"/>
<path d="M151.987 503.779L153.004 505.01C153.078 507.025 152.959 508.984 152.802 510.993L152.434 511.268C151.838 508.784 151.961 506.316 151.987 503.779Z" fill="#B07B57"/>
<path d="M248.59 311.431C249.328 311.037 249.712 310.926 250.511 310.777C250.667 312.721 251.668 314.33 252.544 316.034L251.816 317.229C251.19 315.032 250.252 313.011 248.59 311.431Z" fill="#5B3D2D"/>
<path d="M131.029 316.262C133.662 315.995 136.533 315.55 138.978 316.748C136.178 317.122 133.717 317.247 131.029 316.262Z" fill="#946248"/>
<path d="M128.296 352.377C128.902 352.317 128.5 352.321 129.484 352.582C128.461 353.95 126.19 354.601 124.63 355.307C124.34 355.408 124.017 355.329 123.71 355.323C124.737 354.003 126.829 353.188 128.296 352.377Z" fill="#EDB297"/>
<path d="M321.005 585.398C323.298 584.805 326.705 585.787 328.744 586.834C326.661 586.661 322.604 586.78 321.005 585.398Z" fill="#EDB297"/>
<path d="M237.65 463.274L238.215 463.809C238.012 465.474 236.894 467.046 236.082 468.516L235.57 467.941C235.732 466.183 236.777 464.764 237.65 463.274Z" fill="#EDB297"/>
<path d="M327.684 560.372C329.792 561.133 330.756 563.373 331.69 565.231L330.482 564.778C329.295 563.331 328.449 562.084 327.684 560.372Z" fill="#EDB297"/>
<path d="M309.211 185.411C310.75 185.069 311.927 184.854 313.497 185.065L313.922 185.559C312.506 186.281 310.993 186.031 309.454 185.961L309.211 185.411Z" fill="#EDB297"/>
<path d="M403.033 565.866L403.469 566.33C402.861 568.222 401.275 569.874 400.076 571.458L399.798 570.778L403.033 565.866Z" fill="#B07B57"/>
<path d="M320.172 562.689C320.341 562.785 320.518 562.869 320.68 562.977C322.374 564.107 322.671 565.704 323.061 567.552C321.475 566.091 320.952 564.678 320.172 562.689Z" fill="#EDB297"/>
<path d="M114.371 316.174C116.869 315.904 119.543 315.38 121.784 316.759C119.214 316.928 116.885 316.647 114.371 316.174Z" fill="#EDB297"/>
<path d="M75.2801 349.222C69.1601 337.288 65.8211 323.239 61.1171 310.635C58.7981 304.421 55.4311 298.608 52.9001 292.469C33.1901 244.684 38.1261 166.926 58.1191 119.86C76.5451 76.4819 122.791 40.172 165.753 23.049C197.847 10.2578 235.374 2.28701 269.996 3.11841C281.899 3.4043 294.055 5.0135 305.844 6.6811C328.236 9.8485 349.65 15.0971 370.473 24.1804C392.622 33.8417 408.791 45.7349 417.57 68.6589C419.255 73.0599 420.457 78.1789 418.272 82.6299C415.967 87.3239 411.577 88.9789 406.965 90.5859C407.278 85.8819 406.774 81.1329 405.888 76.5119C402.933 61.0939 394.317 43.4986 381.002 34.5109L380.495 34.7242C392.875 45.9079 402.248 61.5819 404.857 78.2469C405.616 83.0949 405.476 88.0239 405.928 92.9049C406.32 92.2549 406.694 91.5999 407.066 90.9379C408.65 90.7529 410.339 90.6239 411.889 90.2479C414.699 89.5659 417.006 87.5069 418.485 85.0819C421.63 79.9289 420.976 75.9649 419.776 70.4529C431.42 75.1399 439.99 74.5869 451.65 81.9479C474.641 96.4619 488.884 128.673 494.614 154.449C502.473 189.805 503.562 234.603 495.518 270.007C492.104 285.032 486.877 299.431 481.92 313.99C477.927 325.72 474.737 338.989 468.075 349.474C467.979 337.465 466.808 325.458 466.235 313.463C465.936 307.195 466.026 300.915 465.737 294.647C465.124 281.356 464.121 268.029 463.049 254.767C462.092 242.917 460.255 231.114 458.936 219.293C457.537 206.764 456.643 194.202 455.164 181.679C462.787 195.892 470.26 209.493 475.439 224.838C476.784 228.767 477.996 232.74 479.073 236.75C480.127 240.781 480.257 246.384 482.609 249.844C480.937 245.96 481.131 240.895 480.32 236.724C479.354 231.758 477.773 227.221 476.129 222.457C472.961 213.273 469.37 204.079 464.435 195.675C461.762 191.123 458.126 186.741 455.945 181.957C453.531 176.662 452.901 170.559 451.336 164.967C449.551 158.586 447.057 152.554 444.701 146.376C440.13 134.393 438.762 127.934 429.827 117.716C418.473 104.733 398.599 92.8179 381.139 91.6019L380.729 91.4599C371.851 90.4409 364.146 89.9199 355.249 91.0979C346.646 68.2309 335.298 37.769 311.608 26.9261C309.091 25.7744 306.433 24.8037 303.817 23.8996L304.312 24.2335C308.761 27.1804 313.849 29.1618 318.136 32.3292C337.798 46.8579 343.891 70.0229 353.803 90.8669C342.054 91.6979 331.04 94.8679 319.574 97.1149L318.983 97.2919C314.857 98.3989 309.964 98.5149 305.711 98.9969C290.774 100.689 260.156 104.142 246.59 97.1779C239.553 93.5659 233.263 88.4829 226.73 84.0609C220.949 80.1929 214.838 76.8419 208.468 74.0479C189.121 65.6369 164.684 58.5359 143.602 61.7269C137.759 62.6119 132.324 64.5159 126.838 66.6569L127.829 67.1989C151.632 57.1519 182.527 65.2799 205.461 74.6859C210.614 76.7989 215.943 79.2529 220.662 82.2069C229.68 87.8529 237.793 94.5739 247.677 98.7479C229.845 96.8849 212.51 92.3909 194.943 89.0709C171.891 84.7159 144.051 82.1439 121.125 88.3299C113.929 90.2719 107.349 93.3809 100.742 96.7699L101.497 97.5769C108.305 94.3219 115.154 91.4829 122.514 89.6989C138.972 85.7099 161.251 85.9229 177.948 88.5069C165.607 90.2329 153.959 93.4799 142.244 97.6949C128.218 102.74 99.6351 116.904 87.4351 125.202C80.7191 129.77 73.9791 135.185 69.2341 141.867C69.0401 142.14 68.8551 142.421 68.6661 142.697L69.5581 143.06C81.7621 128.107 99.6631 119.162 117.288 112.189C116.064 115.851 110.636 118.171 110.61 122.412C109.586 124.1 108.668 125.833 107.228 127.205C106.443 127.459 106.523 127.338 105.994 127.778C99.7711 132.946 90.4031 157.203 88.5831 165.563C85.9851 177.493 84.5831 190.76 83.7641 202.943C83.4021 208.334 83.5321 213.751 83.1551 219.147C82.4211 229.65 81.2381 240.116 80.4301 250.61C79.4101 263.861 78.8911 277.326 78.2621 290.608C77.3341 310.218 77.4781 329.671 75.2801 349.222Z" fill="#B07B57"/>
<path d="M255.439 32.8076C285.902 53.533 301.254 63.4069 319.574 97.1149L318.983 97.2919C312.497 91.1559 309.519 82.676 304.373 75.548C295.082 62.683 283.265 53.762 270.576 44.5574C265.642 40.9776 260.761 37.2237 255.547 34.0557L255.439 32.8076Z" fill="#040101"/>
<path d="M359.943 50.8359C367.728 62.3969 374.751 69.868 379.473 83.7789C380.329 86.3009 381.357 88.9029 381.139 91.6019L380.729 91.4599C375.438 77.9609 369.698 62.6919 359.395 52.0929L359.943 50.8359Z" fill="#181516"/>
<path d="M359.395 52.0929C356.756 48.4909 354.125 45.6289 350.797 42.6742L350.843 42.0188L350.726 42.6208L351.173 42C354.297 42.6402 358.121 48.2609 359.943 50.8359L359.395 52.0929Z" fill="#946248"/>
<path d="M127.829 67.1989C124.463 68.3569 121.219 70.744 117.613 71.035L117.883 70.218L119.364 70.166C121.56 68.577 124.264 67.4609 126.838 66.6569L127.829 67.1989Z" fill="#946248"/>
<path d="M100.742 96.7699L101.497 97.5769C98.7871 99.2509 95.9969 101.189 93.0249 102.339C95.4909 100.226 97.9801 98.4759 100.742 96.7699Z" fill="#2A1D18"/>
<path d="M64.7061 149.937C65.8331 147.411 66.9531 144.885 68.6661 142.697L69.5581 143.06C68.0971 145.414 66.3141 147.674 64.7061 149.937Z" fill="#2A1D18"/>
<path d="M255.547 34.0557C253.964 33.2234 252.792 32.9575 251.944 31.3509C253.371 31.3459 254.222 32.1094 255.439 32.8076L255.547 34.0557Z" fill="#946248"/>
<path d="M208.308 43.2927C229.751 49.236 247.506 62.411 263.839 77.157C270.837 83.475 277.69 90.205 285.378 95.683C285.567 96.845 285.694 96.325 285.053 97.254C277.771 92.682 271.22 86.114 264.845 80.368C247.317 64.567 229.018 50.031 205.798 43.8671L208.308 43.2927Z" fill="#040101"/>
<path d="M63.1549 266.937C62.0999 246.434 66.9989 232.52 75.0999 214.006C77.4429 208.653 79.4129 202.99 82.1009 197.809C82.5669 204.512 70.6179 227.562 68.0399 235.865C65.0249 245.579 63.8379 255.988 64.1209 266.119L63.6749 267.191L63.1549 266.937Z" fill="#040101"/>
<path d="M86.4161 166.945C86.1921 173.014 67.1892 202.075 63.1392 210.081C63.3202 202.99 81.5461 174.997 86.4161 166.945Z" fill="#040101"/>
<path d="M444.504 138.934C444.928 139.112 445.117 139.166 445.52 139.484C455.542 147.387 472.968 175.825 474.596 188.146C469.252 174.506 462.677 163.143 453.994 151.432C450.879 147.231 447.494 143.226 444.504 138.934Z" fill="#2A1D18"/>
<path d="M97.1938 133.503C97.6718 136.501 70.8968 163.849 67.6288 169.078C67.5158 164.662 92.4948 138.472 97.1938 133.503Z" fill="#2A1D18"/>
<path d="M421.688 96.927C435.768 101.679 446.411 111.935 456.185 122.758L455.383 123.1C447.812 113.124 432.552 102.365 421.15 97.296L421.688 96.927Z" fill="#2A1D18"/>
<path d="M420.613 83.9871C421.358 83.6821 421.5 83.7611 422.248 83.9891C429.777 86.2811 453.231 98.9591 456.576 105.176C453.597 104.243 444.72 96.4171 440.854 94.0891C436.007 91.1711 423.917 87.0661 420.613 83.9871Z" fill="#5B3D2D"/>
<path d="M457.712 131.883C461.479 134.559 477.51 158.306 479.643 163.14C476.924 160.453 459.089 135.065 457.712 131.883Z" fill="#5B3D2D"/>
<path d="M421.15 97.296C418.129 96.55 413.876 95.9661 411.322 94.2001C412.196 93.8591 411.833 93.8761 412.372 93.9031L412.142 94.9761L412.901 93.9681C415.681 94.7001 419.224 95.46 421.688 96.927L421.15 97.296Z" fill="#946248"/>
<path d="M64.1209 266.119C64.7309 269.054 64.6419 272.452 64.2969 275.426C63.6239 272.798 63.1269 269.661 63.1549 266.937L63.6749 267.191L64.1209 266.119Z" fill="#5B3D2D"/>
<path d="M456.185 122.758C457.115 123.571 458.104 124.385 458.961 125.276C459.699 126.043 460.178 126.592 460.142 127.68C458.137 127.123 456.473 124.804 455.383 123.1L456.185 122.758Z" fill="#946248"/>
<path d="M205.798 43.8671C204.18 43.9997 200.789 44.3991 199.479 43.5464C202.332 42.5548 205.368 42.8441 208.308 43.2927L205.798 43.8671Z" fill="#5B3D2D"/>
</svg>
