<svg width="568" height="904" viewBox="0 0 568 904" fill="none" xmlns="http://www.w3.org/2000/svg">
<path d="M69.3351 312.493C66.0061 306.844 62.7961 301.239 60.4091 295.107C55.9171 283.57 53.5821 271.631 51.8021 259.437C46.1691 220.768 48.4781 181.357 58.5861 143.61C62.4181 128.723 68.0531 112.463 75.6471 99.1008C79.6011 92.1438 84.6301 85.7548 89.7671 79.6348C94.8571 73.5708 100.054 67.3918 105.82 61.9538C118.46 50.0338 136.402 37.8434 151.406 29.0139C201.637 -0.545727 287.547 -6.82312 343.669 7.88248C372.789 15.5128 417.409 35.0606 433.032 61.7748C438.037 70.3328 439.253 78.8548 439.535 88.6128C448.016 86.2868 456.861 87.8148 464.474 92.1178C482.374 102.238 495.906 122.339 503.626 141.035C506.931 149.037 509.371 158.12 511.616 166.492C519.439 195.652 519.429 231.838 514.647 261.458C512.041 277.604 507.763 293.538 503.661 309.352C510.061 307.643 515.337 308.05 521.23 311.404C527.737 315.107 531.985 321.285 533.809 328.46C539.952 352.628 538.557 391.887 530.316 415.519C526.751 425.745 521.194 434.546 516.793 444.315C514.281 449.89 513.396 455.981 510.101 461.239C506.895 466.354 500.726 470.634 494.866 471.906C491.743 472.583 488.681 472.141 485.554 471.768C485.204 487.701 485.225 503.186 482.029 518.914C478.827 534.679 470.909 548.589 467.035 563.977C465.284 570.933 464.156 578.546 463.391 585.684C462.554 593.489 463.14 601.449 462.557 609.294C461.511 623.38 459.577 637.36 458.678 651.473C458.37 656.3 457.585 661.694 458.455 666.459C459.894 674.336 466.495 682.832 471.904 688.493C486.907 704.196 509.315 718.518 528.383 728.971C536.823 733.598 545.587 737.541 554.357 741.491C558.133 743.191 562.453 744.703 566.014 746.775C566.785 747.223 567.088 747.42 567.487 748.189C562.719 758.959 555.256 769.481 548.089 778.8C518.816 816.368 481.495 846.896 438.87 868.142C356.459 908.763 261.254 914.853 174.339 885.064C117.559 866.757 66.9711 833.053 28.2081 787.703C17.8801 775.441 8.11713 762.25 0.911133 747.888C1.06513 747.753 1.20913 747.606 1.37213 747.483C5.51913 744.368 21.0501 738.887 26.8481 736.161C45.8821 727.211 81.0851 706.698 95.2881 691.34C102.149 683.922 108.108 674.005 110.038 663.977C111.976 653.906 108.785 638.33 107.622 627.848C105.685 610.383 105.907 590.654 102.123 573.729C101.162 569.432 99.8171 565.232 98.8382 560.943C97.9052 556.855 97.4191 552.54 95.9661 548.598C92.7841 539.966 88.1431 532.084 85.5641 523.188C80.6991 506.406 80.9591 486.847 81.9511 469.498C77.8381 471.703 73.8461 472.743 69.1951 471.415C59.8201 468.736 53.5581 453.183 49.3551 445.114C32.5501 412.854 23.6601 379.061 29.3981 342.68C30.2761 337.117 30.9971 331.316 32.7231 325.94C34.8011 319.466 39.0441 313.988 45.1541 310.881C50.4371 308.196 56.8061 306.413 62.5761 308.492C65.0881 309.398 67.2381 310.872 69.3351 312.493Z" fill="#050302"/>
<path d="M461.054 579.628C459.921 588.133 460.281 596.573 459.571 605.083C457.105 634.656 453.245 663.056 455.731 692.855C456.246 699.033 456.718 706.424 459.101 712.192L459.666 711.122C457.41 700.442 457.16 685.092 458.006 674.242C460.912 679.181 463.734 684.291 467.607 688.556C486.782 709.675 536.541 740.617 564.207 747.657C565.301 747.935 566.367 748.089 567.487 748.189C562.719 758.959 555.256 769.481 548.089 778.8C518.816 816.368 481.495 846.896 438.87 868.142C356.459 908.763 261.254 914.853 174.339 885.064C117.559 866.757 66.9711 833.053 28.2081 787.703C17.8801 775.441 8.11713 762.25 0.911133 747.888C3.88113 748.086 7.35613 746.523 10.1331 745.558C34.0321 737.249 80.1411 712.954 97.0651 694.309C103.494 687.225 107.578 679.185 111.731 670.67C113.557 681.46 112.739 693.255 112.35 704.163C113.209 704.828 112.827 704.692 113.361 704.843C116.853 677.102 113.536 649.726 110.689 622.069C109.304 608.61 107.802 595.123 108.069 581.572C112.866 591.616 119.726 600.436 126.706 609.056C151.971 640.253 183.141 663.573 221.171 676.988C272.472 694.564 328.659 691.005 377.333 667.096C402.195 655.058 417.763 639.835 434.955 618.834C438.035 615.072 441.45 611.596 444.425 607.746C451.2 598.977 456.226 589.539 461.054 579.628Z" fill="#F9C7AB"/>
<path d="M459.666 711.122C460.824 714.4 461.653 717.365 461.844 720.853L461.32 721.412L461.791 721.569L461.413 721.651L461.107 721.083L461.776 720.839L461.741 720.278L460.777 720.156C460.255 717.518 459.519 714.84 459.101 712.192L459.666 711.122Z" fill="#D49C7E"/>
<path d="M111.957 712.502L113.106 709.328C112.874 712.772 112.882 716.614 111.787 719.911L111.376 719.377L112.016 719.03L111.395 718.585C111.524 716.588 111.513 714.454 111.957 712.502Z" fill="#B48662"/>
<path d="M112.35 704.163C113.209 704.828 112.827 704.692 113.361 704.843C113.24 706.299 112.989 707.878 113.106 709.328L111.957 712.502C111.953 709.74 111.759 706.872 112.35 704.163Z" fill="#5D3F2B"/>
<path d="M110.95 812.394C129.544 815.556 148.154 818.442 166.949 820.144C185.171 821.794 209.141 821.031 226.257 826.668C234.4 829.349 242.858 835.269 248.686 841.464L247.851 841.667C241.612 835.853 233.045 830.887 224.822 828.569C206.625 823.442 184.074 824.239 164.993 822.438C146.538 820.696 128.238 817.086 110.087 813.381L110.95 812.394Z" fill="#050302"/>
<path d="M485.372 804.765L486.374 804.736C486.38 805.358 485.695 805.227 485.187 805.37C479.384 807.003 473.304 808.102 467.414 809.423C446.648 814.044 425.68 817.706 404.577 820.398C385.546 822.66 361.845 822.151 344.047 829.301C335.735 832.64 329.077 839.351 322.925 845.644L322.329 846.179L322.393 845.562C328.108 837.752 336.432 830.426 345.534 826.881C364.523 819.485 393.784 819.628 414.552 817.189C437.423 814.504 462.948 810.178 485.372 804.765Z" fill="#150F0A"/>
<path d="M428.348 661.88L428.616 662.683C417.136 672.159 405.796 682.059 393.053 689.835C375.016 700.84 346.671 708.655 325.911 712.766L325.942 711.624C346.19 707.929 378.048 698.301 395.218 687.364C406.984 679.869 417.411 670.498 428.348 661.88Z" fill="#150F0A"/>
<path d="M228.417 706.437C240.32 710.261 251.917 711.635 264.243 713.282C271.163 714.206 278.023 715.352 285.024 715.469C291.148 715.571 297.324 714.889 303.415 714.284L302.57 715.534C297.074 715.641 291.604 717 286.055 717.021C271.86 717.073 240.872 712.091 228.064 707.403L228.417 706.437Z" fill="#150F0A"/>
<path d="M228.064 707.403C193.996 698.622 175.892 688.831 148.779 666.225C146.111 664 143.168 662.176 140.571 659.878L140.803 659.368C143.505 660.302 166.636 679.196 171.752 682.698C183.316 690.614 197.762 697.598 211.089 701.828C216.783 703.635 222.673 704.793 228.417 706.437L228.064 707.403Z" fill="#9E7252"/>
<path d="M346.831 746.75L347.57 747.108C346.549 750.947 338.576 764.077 336.155 768.835C328.513 783.859 322.261 799.622 313.52 814.082L313.363 814.059L313.126 813.533C315.74 806.815 319.736 800.362 322.989 793.911C327.437 785.092 331.179 775.901 335.7 767.13C338.26 762.163 341.52 757.584 344.127 752.651C345.137 750.74 345.45 748.319 346.831 746.75Z" fill="#5D3F2B"/>
<path d="M165.289 708.514C171.469 709.628 178.974 714.363 184.85 716.922C195.432 721.531 206.421 726.068 217.234 730.076C222.583 732.059 228.466 733.48 234.056 734.581C237.307 735.221 241.479 735.274 244.464 736.637C242.65 737.139 240.168 736.446 238.265 736.169C226.377 734.441 216.027 730.373 204.976 726.01C198.582 723.485 192.023 721.252 185.74 718.471C178.828 715.412 172.065 711.868 165.289 708.514Z" fill="#B48662"/>
<path d="M224.875 745.88C232.427 753.325 242.359 784.094 245.075 795.161C240.639 787.112 238.384 777.042 234.958 768.438C231.911 760.783 227.612 753.669 224.875 745.88Z" fill="#150F0A"/>
<path d="M342.057 733.064C349.797 731.376 358.836 730.302 366.083 727.199C374.091 723.769 381.837 719.397 389.685 715.593C392.539 714.209 395.574 712.406 398.621 711.527L398.818 711.932C389.843 717.339 373.286 726.015 363.35 729.158C356.098 731.451 348.181 732.826 340.696 734.222L342.057 733.064Z" fill="#150F0A"/>
<path d="M197.96 758.393C202.921 763.697 216.393 809.353 218.709 818.53C217.11 816.704 208.065 786.531 206.718 782.657C204.366 775.894 199.111 764.712 197.96 758.393Z" fill="#B48662"/>
<path d="M370.14 776.966L370.672 778.288C369.077 781.002 368.017 784.765 366.792 787.705C362.776 797.342 358.287 807.809 351.57 815.868C351.723 812.552 358.916 802.505 360.721 798.856C364.24 791.741 367.194 784.332 370.14 776.966Z" fill="#3F271D"/>
<path d="M303.415 714.284C306.277 713.501 309.921 713.634 312.933 713.342C317.283 712.876 321.621 712.303 325.942 711.624L325.911 712.766C318.166 713.778 310.275 714.36 302.57 715.534L303.415 714.284Z" fill="#5D3F2B"/>
<path d="M340.696 734.222C337.066 734.747 331.78 735.12 328.168 734.604C332.738 733.744 337.428 733.471 342.057 733.064L340.696 734.222Z" fill="#7E5A40"/>
<path d="M92.887 810.127C89.389 809.474 86.013 808.844 82.667 807.605C86.168 808.004 89.887 808.302 93.255 809.355L92.887 810.127Z" fill="#D49C7E"/>
<path d="M248.686 841.464C251.784 842.777 254.857 847.219 257.046 849.736C253.775 847.302 250.807 844.467 247.851 841.667L248.686 841.464Z" fill="#D49C7E"/>
<path d="M93.255 809.355C96.507 809.879 101.419 810.003 104.353 811.28L103.798 812.242C100.169 811.421 96.579 810.61 92.887 810.127L93.255 809.355Z" fill="#5D3F2B"/>
<path d="M370.14 776.966C370.791 774.795 371.54 772.664 372.29 770.526L373.035 770.412C372.765 773.089 371.613 775.775 370.672 778.288L370.14 776.966Z" fill="#D49C7E"/>
<path d="M104.353 811.28C106.535 811.643 108.796 811.904 110.95 812.394L110.087 813.381L103.798 812.242L104.353 811.28Z" fill="#150F0A"/>
<path d="M428.348 661.88C429.614 660.869 430.622 659.76 432.248 659.476C431.384 660.946 429.986 661.735 428.616 662.683L428.348 661.88Z" fill="#7E5A40"/>
<path d="M179.69 82.2402C215.75 72.7942 248.958 82.6112 285.042 83.0052C315.251 83.3352 345.432 78.3832 375.493 83.3212C390.571 85.7972 405.447 92.2432 418.615 99.9442C433.189 108.467 458.868 138.515 463.113 155.13C467.512 172.342 463.852 190.074 465.17 207.523C465.723 214.847 466.348 222.24 467.53 229.493C469.366 240.771 471.856 251.779 473.002 263.178C474.54 278.471 474.867 293.895 476.174 309.216C477.1 320.07 478.856 330.527 480.286 341.287C480.94 346.203 480.848 351.184 481.664 356.084C482.001 352.136 481.808 348.094 482.434 344.192C483.956 334.702 489.668 322.47 497.155 316.22C501.067 312.953 506.562 310.384 511.754 311.055C517.379 311.782 523.106 315.81 526.438 320.25C537.182 334.569 534.456 376.54 531.595 394.014C530.355 401.582 528.856 409.222 526.419 416.5C522.916 426.962 517.532 436.017 512.915 445.915C510.722 450.617 509.146 455.782 506.386 460.187C504.912 462.54 503.146 464.686 500.909 466.352C497.623 468.8 492.95 470.491 488.811 469.898C487.978 469.778 486.663 469.368 486.15 468.677C483.223 464.731 483.96 430.238 484.08 424.051C487.095 426.178 490.782 429.375 494.745 428.859C497.007 428.564 498.956 426.888 500.152 425.017C500.73 424.113 501.157 423.294 501.017 422.215C498.426 424.295 496.276 426.372 492.946 427.1L492.163 427.805C491.331 427.506 490.533 427.196 489.754 426.775C488.34 426.011 487.892 425.249 487.489 423.733C487.853 421.502 489.357 420.005 490.73 418.291L491.607 416.91C493.341 409.968 495.61 402.218 494.888 395.017C494.236 388.518 488.265 381.641 489.864 376.2C490.504 375.671 490.661 375.296 491.55 375.318C496.997 375.456 504.161 384.187 507.768 387.906C504.952 380.172 499.386 376.514 492.479 372.876C496.2 364.706 504.15 348.902 509.648 342.043C511.237 339.737 513.771 336.259 516.802 335.963C518.861 335.762 520.677 337.095 521.993 338.531C525.867 342.757 527.262 348.672 529.443 353.819C528.628 347.932 527.027 338.946 522.01 335.081C520.446 333.876 518.584 333.357 516.628 333.702C511.809 334.551 507.899 339.719 505.392 343.628C499.518 352.789 487.899 374.655 485.394 384.699L484.129 385.799L484.052 384.642L482.965 381.873C482.529 392.15 483.041 402.381 482.739 412.636C482.443 422.673 481.417 432.715 481.499 442.759C481.7 467.498 484.027 493.659 479.095 518.053C476.533 530.726 470.894 541.849 466.861 553.969C461.996 568.589 457.41 584.17 449.117 597.29C445.009 603.788 440.177 609.448 435.416 615.435C432.265 619.398 429.367 623.562 426.024 627.371C394.395 663.407 346.855 682.235 299.602 685.134C246.256 688.322 193.827 670.199 153.838 634.748C133.224 616.584 116.88 594.088 105.977 568.869C104.143 564.575 101.43 559.619 101.159 554.938C101.812 555.442 102.033 555.686 102.87 555.807C101.091 550.686 97.9808 546.125 95.7488 541.197C91.5298 531.882 87.1488 517.27 85.7088 507.125C84.3438 497.507 85.0808 487.679 85.2328 478L85.9318 433.802C86.0148 424.97 84.4008 416.066 84.0538 407.225C83.8008 400.77 85.0098 393.347 83.5298 387.108C81.7728 379.701 66.3498 350.558 61.1468 343.841C58.5028 340.428 53.9698 335.329 49.4648 334.932C47.6868 334.775 45.9188 335.025 44.5338 336.225C41.1068 339.196 40.4058 346.114 39.8778 350.379L40.6628 350.619C41.8288 346.382 43.2618 340.279 46.5868 337.255C48.4178 336.72 50.7608 337.491 52.3648 338.438C52.9848 338.804 53.3188 339.242 53.6878 339.843C53.4228 343.795 48.5958 349.001 46.6368 352.607C39.7858 365.213 36.8018 382.774 38.6668 396.945C39.8858 395.244 39.4498 391.878 39.9178 389.712C41.0998 373.37 45.9228 355.541 56.1588 342.455C62.1438 349.311 69.0418 361.976 72.9048 370.318C68.1888 372.416 63.4848 374.214 61.3548 379.346C60.5428 381.301 59.9918 383.429 59.4048 385.464C63.3678 379.117 66.5768 376.191 73.3468 373.118C74.3398 374.786 75.4098 376.444 76.2388 378.2C76.1828 378.419 76.1298 378.639 76.0708 378.857C74.6278 384.241 71.0438 389.281 70.7828 394.91C70.5678 399.567 75.1308 415.05 73.1738 417.455C68.3398 417.304 65.5658 410.835 60.8948 410.589C61.3858 412.962 62.5088 414.028 64.5258 415.292C67.4568 417.128 70.7568 418.123 74.1628 418.589C75.4668 420.482 77.0848 422.678 77.1928 425.035C76.5078 425.339 75.8278 425.625 75.1318 425.901C74.4118 426.186 74.6998 426.03 74.0798 426.544C75.7188 427.104 76.7048 427.322 78.3538 426.458C79.8318 425.684 81.1588 424.576 82.4638 423.547L83.4498 432.221C83.6708 439.351 83.8458 458.719 81.7558 464.616C80.9908 466.774 79.5798 468.631 77.3928 469.475C74.7298 470.503 71.6058 469.753 69.1148 468.589C65.8198 467.048 63.2138 464.305 61.1668 461.354C56.8578 455.142 54.4528 447.68 51.3748 440.828C47.2058 431.55 42.7258 422.619 39.2228 413.045C35.7168 403.464 33.2528 393.957 31.8848 383.827C29.6928 367.596 30.2028 338.07 37.3218 323.385C40.3738 317.089 45.3658 313.432 51.8858 311.281C56.5168 309.753 60.0128 309.872 64.3598 312.196C74.0068 317.353 80.4968 330.403 83.6368 340.397L84.6438 340.071C84.9598 340.371 84.7428 340.244 85.3798 340.246C86.1758 336.342 86.1698 332.025 86.6638 328.032C87.8928 318.089 89.2488 307.971 89.7588 297.961C90.3998 285.381 90.1698 273.524 91.3428 260.839C93.0298 242.601 97.9058 224.927 99.3628 206.659C100.594 191.214 99.4508 175.798 102.563 160.49C102.793 159.358 102.847 158.844 103.834 158.156C105.316 154.882 106.812 151.822 107.17 148.202L108.861 144.994C113.974 132.034 123.975 123.154 132.527 112.633L132.921 112.142C135.759 109.609 138.014 106.346 140.883 103.731C151.814 93.7682 165.545 86.4122 179.69 82.2402Z" fill="#F9C7AB"/>
<path d="M491.607 416.91C493.341 409.968 495.61 402.218 494.888 395.017C494.236 388.518 488.265 381.641 489.864 376.2C490.504 375.671 490.661 375.296 491.55 375.318C496.997 375.456 504.161 384.187 507.768 387.906C509.07 389.646 507.874 401.923 507.426 404.738C507.24 405.908 507.067 406.293 506.329 407.162C503.18 411.043 499.822 414.134 495.965 417.287L495.274 417.461L495.914 417.507C495.136 418.603 494.526 419.593 493.325 420.272C492.718 420.044 492.392 420.117 492.129 419.475C491.785 418.632 491.722 417.806 491.607 416.91Z" fill="#EFB79A"/>
<path d="M103.834 158.156C102.773 165.001 101.641 171.965 101.244 178.883C100.531 191.3 100.969 203.527 99.6132 215.957C98.0052 230.689 94.5442 245.181 93.1542 259.926C91.4332 278.169 91.7922 296.568 89.9142 314.751C88.5152 328.291 85.5712 341.425 84.7262 355.028C83.0922 350.981 84.2998 344.851 83.6368 340.397L84.6438 340.071C84.9598 340.371 84.7428 340.244 85.3798 340.246C86.1758 336.342 86.1698 332.025 86.6638 328.032C87.8928 318.089 89.2488 307.971 89.7588 297.961C90.3998 285.381 90.1698 273.524 91.3428 260.839C93.0298 242.601 97.9058 224.927 99.3628 206.659C100.594 191.214 99.4508 175.798 102.563 160.49C102.793 159.358 102.847 158.844 103.834 158.156Z" fill="#150F0A"/>
<path d="M509.648 342.043C516.608 345.29 520.666 352.873 523.188 359.788C526.957 370.124 527.29 379.995 526.797 390.877C526.757 390.735 526.715 390.595 526.677 390.453C525.468 385.923 525.379 380.916 524.776 376.262C523.13 363.56 518.384 351.528 509.648 342.043Z" fill="#050302"/>
<path d="M74.0798 426.544C75.7188 427.104 76.7048 427.322 78.3538 426.458C79.8318 425.684 81.1588 424.576 82.4638 423.547L83.4498 432.221C81.0038 432.039 78.651 431.215 76.626 429.831C75.615 428.982 74.674 428.104 73.729 427.184L74.0798 426.544Z" fill="#EFB79A"/>
<path d="M490.73 418.291C491.555 421.457 490.392 425.131 492.163 427.805C491.331 427.506 490.533 427.196 489.754 426.775C488.34 426.011 487.892 425.249 487.489 423.733C487.853 421.502 489.357 420.005 490.73 418.291Z" fill="#F9C7AB"/>
<path d="M495.965 417.287C499.822 414.134 503.18 411.043 506.329 407.162C504.48 412.77 501.507 415.218 496.979 418.675L495.965 417.287Z" fill="#050302"/>
<path d="M76.626 429.831C72.523 429.028 70.679 428.395 67.474 425.515L67.663 424.316L67.021 424.81L67.794 424.29C68.907 424.508 68.537 424.309 69.401 424.93C70.534 425.745 71.517 426.677 72.911 427.014C73.182 427.079 73.456 427.128 73.729 427.184C74.674 428.104 75.615 428.982 76.626 429.831Z" fill="#050302"/>
<path d="M491.607 416.91C491.722 417.806 491.785 418.632 492.129 419.475C492.392 420.117 492.718 420.044 493.325 420.272C494.526 419.593 495.136 418.603 495.914 417.507L495.274 417.461L495.965 417.287L496.979 418.675C495.272 419.896 492.553 421.356 492.148 423.559C491.909 424.861 492.428 425.947 492.946 427.1L492.163 427.805C490.392 425.131 491.555 421.457 490.73 418.291L491.607 416.91Z" fill="#7E5A40"/>
<path d="M38.6668 396.945C39.8858 395.244 39.4498 391.878 39.9178 389.712C39.9948 394.811 40.113 399.91 40.272 405.007C39.593 402.34 38.8478 399.704 38.6668 396.945Z" fill="#150F0A"/>
<path d="M39.8778 350.379L40.6628 350.619L40.6482 351.616C40.6262 352.659 40.6492 354.666 39.9102 355.377C39.8262 355.231 39.7232 355.095 39.6582 354.941C39.0772 353.573 39.3008 351.704 39.8778 350.379Z" fill="#D49C7E"/>
<path d="M483.085 376.485L483.164 374.33L483.544 374.021C483.989 376.561 484.08 378.71 483.955 381.274L483.085 376.485Z" fill="#D49C7E"/>
<path d="M483.085 376.485L483.955 381.274L484.052 384.642L482.965 381.873L483.085 376.485Z" fill="#7E5A40"/>
<path d="M124.374 518.331C122.592 510.914 123.088 503.706 124.289 496.264C124.834 492.887 125.705 489.237 125.405 485.806C125.337 485.022 125.303 484.244 125.263 483.458C126.955 485.838 126.503 488.93 126.347 491.68C126.994 498.346 127.205 504.919 128.38 511.543C131.044 526.563 138.626 542.811 150.535 552.64C163.761 563.557 179.435 572.507 194.338 580.973C203.034 585.913 211.378 591.532 220.381 595.923C246.445 608.634 275.12 611.939 303.693 609.048C313.379 608.069 331.073 604.261 339.929 600.676C358.135 593.307 413.243 557.516 424.137 543.236C426.921 539.588 428.544 533.584 431.835 530.613C431.478 531.659 431.051 532.482 431.222 533.597C434.527 530.309 434.455 524.345 437.203 520.793C438.708 527.065 434.39 534.128 431.2 539.326C426.646 546.746 421.023 556.751 413.46 561.545C410.951 563.53 408.391 566.107 405.669 567.72C397.293 574.197 388.21 579.955 379.668 586.257C355.063 604.408 338.598 619.784 306.396 624.054C277.213 627.923 245.055 623.935 219.797 608.238C208.37 601.137 198.183 592.267 186.987 584.842C174.26 576.401 160.621 570.508 148.387 561.104C145.664 559.963 142.29 556.601 140.078 554.527C130.661 545.695 124.731 531.116 124.374 518.331Z" fill="#EFB79A"/>
<path d="M148.387 561.104C150.136 561.112 162.112 569.951 164.572 571.328C172.715 575.888 181.345 579.559 189.159 584.713C202.526 593.531 214.463 604.204 228.994 611.248C262.489 627.485 309.352 627.956 342.55 610.868C354.768 604.579 365.23 595.116 376.42 587.198C385.053 581.09 397.24 573.963 404.786 567.372L405.669 567.72C397.293 574.197 388.21 579.955 379.668 586.257C355.063 604.408 338.598 619.784 306.396 624.054C277.213 627.923 245.055 623.935 219.797 608.238C208.37 601.137 198.183 592.267 186.987 584.842C174.26 576.401 160.621 570.508 148.387 561.104Z" fill="#150F0A"/>
<path d="M124.374 518.331C122.592 510.914 123.088 503.706 124.289 496.264C124.834 492.887 125.705 489.237 125.405 485.806C125.337 485.022 125.303 484.244 125.263 483.458C126.955 485.838 126.503 488.93 126.347 491.68C122.199 508.896 125.132 517.117 133.134 532.361C134.823 535.578 137.082 538.839 138.082 542.319C132.209 539.151 129.453 523.011 124.374 518.331Z" fill="#D49C7E"/>
<path d="M404.786 567.372C407.368 565.163 410.088 562.42 413.091 560.831L413.46 561.545C410.951 563.53 408.391 566.107 405.669 567.72L404.786 567.372Z" fill="#B48662"/>
<path d="M173.833 191.346C174.349 190.247 174.92 189.626 175.894 188.933C184.168 183.047 199.905 176.4 210.036 175.719C214.327 175.431 218.406 176.15 222.614 176.897C230.338 177.75 238.534 178.839 243.864 185.228C247.392 189.457 248.036 194.996 247.47 200.31C247.241 202.467 246.719 204.391 244.933 205.775C240.823 208.958 233.091 209.44 227.992 210.299C220.305 211.053 212.511 211.595 204.889 212.847C174.704 219.414 151.303 231.72 128.518 252.519C130.408 237.919 132.015 230.055 142.206 218.703C142.941 217.623 144.055 216.754 144.858 215.703C146.277 213.846 147.415 211.851 148.958 210.069C154.722 203.409 162.788 198.202 170.258 193.613L173.833 191.346Z" fill="url(#paint0_linear_144_240)"/>
<path d="M173.833 191.346C174.349 190.247 174.92 189.626 175.894 188.933C184.168 183.047 199.905 176.4 210.036 175.719C214.327 175.431 218.406 176.15 222.614 176.897C230.338 177.75 238.534 178.839 243.864 185.228C247.392 189.457 248.036 194.996 247.47 200.31C247.241 202.467 246.719 204.391 244.933 205.775C240.823 208.958 233.091 209.44 227.992 210.299L227.689 208.624C232.474 207.91 240.226 206.818 244.287 204.561C243.804 203.986 243.369 203.999 242.666 203.783C243.187 202.56 243.544 202.556 244.77 202.045L245.21 201.865C245.276 201.665 245.347 201.467 245.406 201.266C246.538 197.441 245.058 190.319 243.006 187.068C240.283 182.753 235.581 180.771 230.752 179.831C212.989 176.374 185.923 185.481 171.205 195.505L170.258 193.613L173.833 191.346Z" fill="#050302"/>
<path d="M173.833 191.346C174.349 190.247 174.92 189.626 175.894 188.933C184.168 183.047 199.905 176.4 210.036 175.719C214.327 175.431 218.406 176.15 222.614 176.897C202.647 177.248 191.538 184.431 173.833 191.346Z" fill="#D49C7E"/>
<path d="M204.583 212.099L204.889 212.847C174.704 219.414 151.303 231.72 128.518 252.519C130.408 237.919 132.015 230.055 142.206 218.703L143.054 219.656C135.354 226.849 131.306 239.129 130.22 249.302C152.213 228.137 174.741 217.558 204.583 212.099Z" fill="#050302"/>
<path d="M142.206 218.703C142.941 217.623 144.055 216.754 144.858 215.703C146.277 213.846 147.415 211.851 148.958 210.069C154.722 203.409 162.788 198.202 170.258 193.613L171.205 195.505L170.491 196.095C166.276 199.552 161.531 202.372 157.323 205.845C152.184 210.085 147.859 215.1 143.054 219.656L142.206 218.703Z" fill="#7E5A40"/>
<path d="M204.583 212.099C211.841 210.115 220.201 209.637 227.689 208.624L227.992 210.299C220.305 211.053 212.511 211.595 204.889 212.847L204.583 212.099Z" fill="#5D3F2B"/>
<path d="M185.373 210.718C188.489 210.53 193.062 210.166 195.988 211.193C184.331 211.821 172.519 213.284 161.392 216.918C158.437 218.025 155.199 220.015 152.277 220.817L152.448 220.195C161.294 213.265 174.59 212.033 185.373 210.718Z" fill="#150F0A"/>
<path d="M205.668 202.569C205.876 202.746 205.9 203.065 205.994 203.322C204.04 205.748 198.562 205.863 195.639 206.337L195.381 205.777L195.581 205.243C199.009 204.533 202.425 203.928 205.668 202.569Z" fill="#7E5A40"/>
<path d="M326.761 180.905C329.534 178.447 333.811 178.918 337.247 179.001L340.539 179.039C365.461 179.431 401.822 194.71 419.245 212.482C427.258 220.656 432.769 231.835 436.178 242.663C436.789 243.954 437.298 245.323 436.804 246.75C436.577 247.407 436.432 247.451 435.948 248.011C436.17 248.904 436.182 249.561 436.104 250.476C431.291 246.472 426.712 242.262 421.813 238.337C416.659 234.422 411.296 230.789 405.748 227.455C375.406 212.101 361.422 213.162 329.48 209.168C326.134 208.749 322.789 208.423 320.659 205.483C318.251 202.16 318.318 197.107 319.135 193.268C320.139 188.553 322.62 183.56 326.761 180.905Z" fill="#B48662"/>
<path d="M326.761 180.905C322.411 186.956 319.639 191.824 320.86 199.577C320.93 200.02 321.021 200.46 321.11 200.9C321.449 202.432 321.418 203.654 322.77 204.669C328.584 209.029 340.545 208.184 347.676 209.468C372.007 212.742 383.035 215.044 406.33 224.317C407.59 226.154 408.414 226.615 410.521 227.195L409.236 228.268C408.602 228.077 407.984 227.871 407.358 227.655C406.792 227.46 406.339 227.455 405.748 227.455C375.406 212.101 361.422 213.162 329.48 209.168C326.134 208.749 322.789 208.423 320.659 205.483C318.251 202.16 318.318 197.107 319.135 193.268C320.139 188.553 322.62 183.56 326.761 180.905Z" fill="#050302"/>
<path d="M340.539 179.039C365.461 179.431 401.822 194.71 419.245 212.482C427.258 220.656 432.769 231.835 436.178 242.663C434.485 240.479 433.357 237.438 432.12 234.959C429.132 228.967 426.118 222.971 421.957 217.684C409.44 201.781 380.756 188.775 361.417 183.684C355.469 182.118 349.333 181.246 343.235 180.509L340.437 179.72L340.539 179.039Z" fill="#050302"/>
<path d="M327.049 198.015C328.108 199.355 329.118 200.727 330.13 202.103L330.87 201.943C333.396 198.587 334.395 194.221 336.391 190.529C337.193 189.045 338.059 187.585 339.731 187.085C339.869 189.39 337.581 191.071 337.781 193.279C338.354 193.473 338.342 193.509 339.044 193.529C341.066 193.588 342.811 191.817 344.212 190.595C343.21 192.777 341.949 194.993 341.679 197.4C340.367 198.673 338.737 200.327 338.478 202.224C338.455 202.388 338.474 202.555 338.472 202.721L339.254 203.326C339.262 204.393 339.424 204.587 338.814 205.5C338.385 206.143 338.133 206.623 337.882 207.339C338.609 207.773 338.183 207.641 339.105 207.633C341.946 207.609 345.373 207.632 347.676 209.468C340.545 208.184 328.584 209.029 322.77 204.669C321.418 203.654 321.449 202.432 321.11 200.9C322.937 202.416 324.422 204.062 326.738 204.767L327.686 204.224C328.308 202.274 327.478 199.966 327.049 198.015Z" fill="#9E7252"/>
<path d="M406.33 224.317C412.603 226.386 419.079 231.323 424.113 235.532L424.08 236.031L422.749 235.633C422.729 236.615 422.615 236.168 423.046 236.983L421.813 238.337C416.659 234.422 411.296 230.789 405.748 227.455C406.339 227.455 406.792 227.46 407.358 227.655C407.984 227.871 408.602 228.077 409.236 228.268L410.521 227.195C408.414 226.615 407.59 226.154 406.33 224.317Z" fill="#150F0A"/>
<path d="M423.046 236.983C427.458 239.889 431.706 242.503 434.977 246.752L435.589 247.534C435.71 247.692 435.828 247.852 435.948 248.011C436.17 248.904 436.182 249.561 436.104 250.476C431.291 246.472 426.712 242.262 421.813 238.337L423.046 236.983Z" fill="#050302"/>
<path d="M341.679 197.4C343.555 196.378 345.015 195.628 347.142 195.322C343.703 197.68 340.634 199.193 339.254 203.326L338.472 202.721C338.474 202.555 338.455 202.388 338.478 202.224C338.737 200.327 340.367 198.673 341.679 197.4Z" fill="#7E5A40"/>
<path d="M337.247 179.001L340.539 179.039L340.437 179.72L343.235 180.509C339.988 180.318 336.731 180.86 333.514 180.443C334.52 179.456 335.921 179.313 337.247 179.001Z" fill="#5D3F2B"/>
<path d="M364.115 200.669C365.332 200.497 366.295 200.546 367.512 200.711C365.874 202.085 359.271 202.73 356.92 203.44C354.595 204.142 352.36 205.465 350.223 206.61L349.124 207.196L348.352 207.179L348.391 207.54L347.596 207.517L347.994 206.801L348.457 206.971L348.482 206.439C353.453 203.249 358.263 201.495 364.115 200.669Z" fill="#5D3F2B"/>
<path d="M384.511 212.915C391.401 211.687 396.608 213.445 402.379 217.136C396.01 215.64 391.301 212.866 384.511 212.915Z" fill="#5D3F2B"/>
<path d="M331.549 294.951L329.22 297.013C327.776 297.333 327.586 297.289 326.189 296.785C326.841 296.622 327.531 296.565 328.147 296.295C329.596 295.66 335.61 284.731 336.957 282.728C342.973 273.777 350.081 269.534 360.55 267.532C369.474 265.826 391.204 266.647 398.612 272.058C403.854 275.888 407.962 284.389 408.897 290.725L408.472 291.065C408.083 290.493 407.721 289.915 407.36 289.326L406.303 289.461C406.757 291.137 408.153 294.753 407.379 296.24C404.823 301.153 388.622 307.205 383.03 308.714C365.889 313.341 358.146 308.289 342.837 303.135C339.586 302.041 336.214 301.492 332.895 300.669C332.338 298.757 331.84 296.923 331.549 294.951Z" fill="white"/>
<path d="M331.549 294.951L329.22 297.013C327.776 297.333 327.586 297.289 326.189 296.785C326.841 296.622 327.531 296.565 328.147 296.295C329.596 295.66 335.61 284.731 336.957 282.728C342.973 273.777 350.081 269.534 360.55 267.532C369.474 265.826 391.204 266.647 398.612 272.058C403.854 275.888 407.962 284.389 408.897 290.725L408.472 291.065C408.083 290.493 407.721 289.915 407.36 289.326L406.303 289.461C404.061 286.901 403.453 282.977 401.363 280.1C400.9 278.509 400.347 276.91 399.124 275.739C393.511 270.361 385.694 269.346 378.333 269.707C368.335 268.397 354.876 268.893 346.572 275.169C340.002 280.135 335.759 288.029 331.549 294.951Z" fill="#150F0A"/>
<path d="M378.333 269.707C385.694 269.346 393.511 270.361 399.124 275.739C400.347 276.91 400.9 278.509 401.363 280.1C399.718 278.555 398.164 276.989 396.225 275.812L395.506 276.011L395.678 277.036L394.911 277.241C391.122 275.771 387.739 272.912 383.86 271.286C382.147 271.162 380.027 270.185 378.333 269.707Z" fill="#F9C7AB"/>
<path d="M383.86 271.286C386.834 270.779 389.89 272.674 392.243 274.35C393.332 275.126 394.558 275.869 394.911 277.241C391.122 275.771 387.739 272.912 383.86 271.286Z" fill="#5D3F2B"/>
<path d="M368.641 274.916C377.733 273.861 385.975 280.337 387.101 289.42C388.228 298.504 381.818 306.796 372.743 307.994C363.567 309.206 355.161 302.708 354.022 293.522C352.883 284.337 359.447 275.983 368.641 274.916Z" fill="black"/>
<path d="M369.691 281.934C371.44 281.97 373.3 282.543 374.577 283.784C375.914 285.083 376.47 287.193 376.337 289.014C376.217 290.664 375.568 292.348 374.267 293.409C373.537 294.004 373.431 293.78 372.591 293.654C371.419 293.919 369.654 294.505 368.485 294.191C367.201 293.845 366.048 293.027 365.356 291.886C364.601 290.642 364.597 289.182 364.891 287.802C365.506 284.905 367.304 283.455 369.691 281.934Z" fill="#050302"/>
<path d="M172.952 271.823C182.368 265.796 196.02 265.248 206.687 267.589C217.423 269.945 226.163 276.456 231.982 285.712C234.353 289.484 236.242 293.819 238.874 297.386L237.265 297.439L235.806 296.933C235.33 298.097 234.858 298.975 233.902 299.81C231.293 302.089 225.593 302.209 222.284 303.19C211.78 306.306 204.384 311.415 192.904 310.463C189.936 310.216 187.044 309.702 184.203 308.796C179.705 307.36 162.403 300.172 159.781 296.759C158.69 295.339 158.647 294.023 158.793 292.311C159.503 292.24 159.902 292.224 160.495 291.782C160.624 291.686 160.738 291.572 160.859 291.467L159.84 288.909C159.496 289.741 159.107 290.422 158.606 291.169L158.125 290.866C158.099 289.471 158.177 288.201 158.55 286.847C160.616 279.368 164.583 274.625 171.151 270.753C171.989 270.059 172.4 269.868 173.483 269.743L172.575 271.047L172.952 271.823Z" fill="white"/>
<path d="M172.952 271.823C182.368 265.796 196.02 265.248 206.687 267.589C217.423 269.945 226.163 276.456 231.982 285.712C234.353 289.484 236.242 293.819 238.874 297.386L237.265 297.439L235.806 296.933C230.882 286.494 223.289 277.094 212.525 272.435C203.305 268.444 187.415 267.567 178.211 271.339C168.762 275.211 164.517 282.411 160.859 291.467L159.84 288.909C159.496 289.741 159.107 290.422 158.606 291.169L158.125 290.866C158.099 289.471 158.177 288.201 158.55 286.847C160.616 279.368 164.583 274.625 171.151 270.753C171.989 270.059 172.4 269.868 173.483 269.743L172.575 271.047L172.952 271.823Z" fill="url(#paint1_linear_144_240)"/>
<path d="M171.151 270.753C167.137 274.685 162.975 278.025 161.281 283.635C161.256 283.814 161.226 283.993 161.205 284.173C161.109 285.007 161.125 284.688 161.284 285.604C161.187 285.722 161.081 285.833 160.992 285.957C160.38 286.813 160.044 287.885 159.84 288.909C159.496 289.741 159.107 290.422 158.606 291.169L158.125 290.866C158.099 289.471 158.177 288.201 158.55 286.847C160.616 279.368 164.583 274.625 171.151 270.753Z" fill="#150F0A"/>
<path d="M171.151 270.753C171.989 270.059 172.4 269.868 173.483 269.743L172.575 271.047L172.952 271.823C168.777 275.417 164.857 279.446 161.281 283.635C162.975 278.025 167.137 274.685 171.151 270.753Z" fill="#9E7252"/>
<path d="M194.123 275.067C203.103 274.045 211.234 280.439 212.357 289.407C213.48 298.375 207.178 306.577 198.223 307.801C192.34 308.605 186.479 306.185 182.877 301.465C179.274 296.746 178.486 290.454 180.813 284.992C183.14 279.529 188.223 275.739 194.123 275.067Z" fill="#020202"/>
<path d="M296.777 451.166C316.017 448.985 351.175 463.924 367.091 474.881C371.845 478.154 386.461 489.655 387.492 495.395C386.323 495.082 384.384 492.263 383.485 491.303C369.536 476.413 351.521 467.632 332.681 460.684C324.3 457.594 316.067 454.833 307.128 453.92C301.924 453.388 296.544 453.864 291.322 454.016C284.741 454.261 278.153 454.254 271.572 453.996C246.985 453.531 215.2 465.037 195.99 480.72C192.358 483.686 188.856 487.01 185.742 490.516C184.041 492.432 182.545 494.761 180.609 496.421C180.906 495.014 181.786 493.953 182.605 492.807C196.743 473.01 219.314 462.653 242.158 456.218C248.315 454.483 254.64 452.662 261.03 452.108C268.416 451.468 275.631 452.766 282.995 452.811C287.623 452.839 292.227 451.93 296.777 451.166Z" fill="#050302"/>
<path d="M262.746 392.06C258.501 393.451 252.675 394.852 248.5 392.651C247.005 391.864 246.089 390.722 245.72 389.048C245.329 387.269 246.304 385.222 247.417 383.895C249.664 381.215 253.146 379.964 256.56 379.777C261.075 379.531 266.511 381.069 269.781 384.308C273.22 387.715 275.153 393.331 278.931 396.161L278.29 396.552C278.167 396.46 278.042 396.371 277.92 396.278C274.914 393.982 270.946 387.512 266.839 388.355C264.982 388.737 263.831 390.65 262.746 392.06Z" fill="#050302"/>
<path d="M254.349 383.427C256.816 383.766 260.064 383.857 262.238 385.119C263.339 385.758 263.641 386.264 263.846 387.47C262.816 389.596 260.337 390.725 258.279 391.689C258.021 391.754 257.763 391.822 257.504 391.883C255.063 392.463 251.358 392.808 249.247 391.141C248.132 390.26 248.168 389.683 248.029 388.383C249.274 385.475 251.671 384.688 254.349 383.427Z" fill="#5D3F2B"/>
<path d="M289.379 394.023C294.299 387.505 297.375 381.152 306.36 379.827C310.135 379.271 314.514 379.594 317.561 382.136C318.815 383.183 319.974 384.828 320.039 386.521C320.097 388.026 319.569 389.244 318.452 390.262C316.058 392.444 311.483 393.23 308.36 392.995C304.164 392.679 301.466 390.406 298.738 387.443C295.68 389.381 292.98 391.826 290.229 394.167L289.379 394.023Z" fill="#050302"/>
<path d="M306.061 384.056C309.966 383.813 312.926 383.757 316.387 385.797C317.061 386.961 317.072 386.909 316.779 388.219C315.717 389.518 314.8 390.168 313.335 390.973C312.57 391.014 311.805 391.066 311.039 391.081C308.347 391.132 304.576 390.26 302.686 388.198C302.13 387.592 302.291 387.224 302.27 386.464C303.172 385.024 304.56 384.661 306.061 384.056Z" fill="#5D3F2B"/>
<path d="M354.224 539.641L353.436 539.184C357.792 536.839 367.259 541.056 372.268 541.409C379.623 541.928 387.359 541.621 394.739 541.527C392.81 543.169 391.08 544.99 388.512 545.49C388.21 545.625 387.91 545.763 387.606 545.894C380.762 548.829 372.802 548.117 365.998 545.489C361.723 543.948 357.819 542.487 354.224 539.641Z" fill="#EFB79A"/>
<path d="M365.886 544.322C373.761 546.844 380.427 547.159 388.512 545.49C388.21 545.625 387.91 545.763 387.606 545.894C380.762 548.829 372.802 548.117 365.998 545.489L365.886 544.322Z" fill="#5D3F2B"/>
<path d="M354.224 539.641C358.209 540.603 361.898 543.071 365.886 544.322L365.998 545.489C361.723 543.948 357.819 542.487 354.224 539.641Z" fill="#B48662"/>
<path d="M281.014 480.211C283.575 480.049 286.142 480.043 288.703 480.194C295.81 480.584 323.926 484.563 328.745 489.945C325.822 490.148 320.404 487.231 317.246 486.46C308.624 484.356 299.645 483.267 290.794 482.721C279.973 482.416 267.978 482.204 257.506 485.066C252.769 486.36 248.211 489.074 243.367 489.802L243.723 489.305C256.997 482.946 266.5 481.247 281.014 480.211Z" fill="#050302"/>
<path d="M322.936 356.778C323.095 356.864 323.259 356.94 323.411 357.036C330.156 361.281 338.809 372.405 340.66 380.288C341.817 385.21 341.707 390.543 338.874 394.895C335.22 400.509 328.965 402.639 322.783 404.071C321.659 404.01 320.546 403.86 319.43 403.723C320.102 403.193 327.986 401.562 331.3 399.306C334.718 396.979 336.898 393.747 337.625 389.666C339.901 376.906 329.652 366.89 323.251 357.258L322.936 356.778Z" fill="#050302"/>
<path d="M248.635 232.855C258.401 242.18 268.039 257.895 268.364 271.729C268.589 281.333 267.704 292.074 266.068 301.548L264.856 301.941C266.95 281.085 267.446 264.631 256.864 245.771C254.357 241.303 251.293 237.217 248.635 232.855Z" fill="#050302"/>
<path d="M241.359 356.553C240.562 362.717 226.657 372.449 228.006 386.759C228.612 393.187 233.273 397.68 238.759 400.527C240.472 401.416 242.587 402.031 244.055 403.27L242.631 403.387C237.699 402.006 233.043 400.388 229.396 396.587C226.248 393.308 224.576 389.082 224.718 384.535C225.026 374.717 234.325 362.979 241.359 356.553Z" fill="#050302"/>
<path d="M298.464 292.868C297.784 278.443 295.036 269.461 300.447 255.414C302.649 249.695 305.347 244.892 309.229 240.153C298.88 264.767 299.871 266.762 300.004 292.714L298.464 292.868Z" fill="#050302"/>
<path d="M155.032 307.457L154.541 306.219C155.155 306.283 174.203 327.772 185.735 329.464C187.144 329.671 188.577 329.852 189.913 330.349V331.221C186.541 330.688 183.143 330.428 179.776 329.83C176.895 329.318 172.619 328.449 170.858 325.955C168.055 324.323 166.473 322.73 164.583 320.07C161.813 316.977 159.394 311.773 156.11 309.434L155.032 307.457Z" fill="url(#paint2_linear_144_240)"/>
<path d="M164.583 320.07C166.178 319.874 166.588 320.516 167.846 321.521C169.512 322.85 170.507 323.872 170.858 325.955C168.055 324.323 166.473 322.73 164.583 320.07Z" fill="#EFB79A"/>
<path d="M402.486 305.582L402.589 305.648C402.309 306.754 399.21 308.519 398.136 309.183C387.524 315.742 371.522 316.438 359.621 314.042C353.907 312.892 348.331 310.905 342.631 309.602L341.128 309.163C346.42 308.376 352.786 310.857 357.904 312.031C372.267 315.326 389.669 312.733 402.486 305.582Z" fill="#050302"/>
<path d="M164.241 305.977C170.558 307.231 176.665 310.685 183.096 312.091C191.988 314.035 202.437 313.68 211.289 311.665C215.73 310.654 220.259 309.151 224.785 308.676L224.555 308.946C218.324 311.238 212.084 313.449 205.49 314.447C191.308 316.595 175.998 314.701 164.241 305.977Z" fill="#050302"/>
<path d="M257.148 498.237C269.021 490.665 283.303 489.619 296.84 492.603C304.498 494.292 311.112 498.009 317.618 502.257L316.897 502.569C312.427 499.89 307.888 497.373 302.924 495.72C289.294 491.181 271.527 492.201 258.675 498.665L257.148 498.237Z" fill="#050302"/>
<path d="M360.102 253.103C370.775 252.27 382.896 252.198 392.56 257.2C382.995 255.038 373.509 254.498 363.739 254.532C353.383 255.652 345.506 258.142 337.961 265.59L338.279 265.051C342.999 257.233 351.836 255.12 360.102 253.103Z" fill="#050302"/>
<path d="M43.479 394.566L44.48 395.411C44.31 399.295 46.002 403.777 46.782 407.586C48.803 417.45 50.756 426.817 57.75 434.463C60.721 437.71 63.957 440.646 66.827 444C64.782 442.43 62.759 440.831 60.759 439.203C47.911 428.55 44.965 410.337 43.479 394.566Z" fill="#150F0A"/>
<path d="M339.874 313.894C343.553 317.463 347.188 320.393 351.561 323.09C366.392 332.237 373.61 331.322 389.712 327.489L389.829 328.322C376.85 332.68 369.219 332.562 356.52 327.002C353.064 325.489 341.334 319.471 340.354 315.852C340.181 315.211 340.053 314.542 339.874 313.894Z" fill="#D49C7E"/>
<path d="M331.572 523.665C330.723 522.579 329.613 521.729 329.663 520.325C332.329 520.893 335.198 524.348 336.848 526.41C338.697 528.381 340.483 530.322 342.113 532.481C344.378 535.482 346.764 538.073 349.433 540.714C346.385 538.83 343.731 536.883 341.056 534.5C337.094 532.382 333.748 527.515 331.572 523.665Z" fill="#EFB79A"/>
<path d="M362.378 415.95C365.245 417.2 368.606 420.996 370.995 423.165C384.078 435.046 392.895 444.609 399.722 461.181C397.054 458.951 391.384 446.168 388.082 441.943C380.433 432.156 368.637 424.51 362.378 415.95Z" fill="#5D3F2B"/>
<path d="M431.835 530.613C431.914 530.543 432.011 530.489 432.071 530.403C436.848 523.6 440.221 503.988 439.002 495.481C438.749 493.713 438.641 492.021 438.613 490.237C443.184 500.039 439.697 511.016 437.203 520.793C434.455 524.345 434.527 530.309 431.222 533.597C431.051 532.482 431.478 531.659 431.835 530.613Z" fill="#D49C7E"/>
<path d="M435.305 561.842C435.309 562.011 435.331 562.181 435.319 562.35C434.959 567.421 423.186 588.204 419.952 592.975C417.68 596.326 415.186 599.492 412.154 602.188C413.328 598.146 419.691 591.608 422.15 587.686C424.723 583.582 433.495 563.394 435.305 561.842Z" fill="#D49C7E"/>
<path d="M238.874 297.386C239.663 298.077 239.975 298.044 240.104 299.124C240.376 301.409 240.825 303.264 241.702 305.416C238.124 307.602 235.482 309.921 232.631 312.982L231.921 312.696C231.424 311.461 230.892 310.794 231.592 309.499C233.531 305.911 239.462 305.866 238.739 300.51C238.583 299.356 237.884 298.387 237.265 297.439L238.874 297.386Z" fill="#EFB79A"/>
<path d="M193.129 254.011C203.673 253.524 215.442 253.357 223.746 261.054C225.195 262.397 226.285 264.084 227.383 265.714C215.776 255.986 207.626 254.1 192.524 255.186L193.129 254.011Z" fill="#050302"/>
<path d="M133.013 293.705C140.035 298.494 147.296 302.252 153.903 307.702L155.032 307.457L156.11 309.434C155.903 309.433 155.694 309.451 155.488 309.43C149.175 308.774 137.487 298.33 133.013 293.705Z" fill="#EFB79A"/>
<path d="M262.621 178.236C262.839 178.429 263.081 178.597 263.274 178.814C268.791 185.02 266.93 206.528 266.987 214.729C263.864 209.435 265.914 195.928 265.301 189.459C264.925 185.49 263.953 181.982 262.621 178.236Z" fill="#150F0A"/>
<path d="M281.623 420.277C283.156 419.133 283.826 418.41 285.761 418.272L285.647 418.382L286.638 419.715C285.912 421.801 285.548 424.578 284.681 426.468C284.151 427.133 283.738 427.597 283.074 428.144L281.73 427.917C281.218 427.404 280.832 426.973 280.625 426.259C279.938 423.895 280.382 422.318 281.623 420.277Z" fill="#D49C7E"/>
<path d="M281.623 420.277C283.156 419.133 283.826 418.41 285.761 418.272L285.647 418.382L286.638 419.715C285.912 421.801 285.548 424.578 284.681 426.468C284.039 424.115 283.223 422.13 281.623 420.277Z" fill="#EFB79A"/>
<path d="M302.234 308.297C303.95 314.414 305.346 321.03 306.182 327.327C306.459 329.413 306.357 331.562 306.673 333.628C307.053 336.107 308.754 338.075 308.489 340.655L308.11 341.019C306.496 339.423 302.528 313.405 301.402 308.659L302.234 308.297Z" fill="#D49C7E"/>
<path d="M191.516 430.679L191.5 432.071C186.44 435.984 181.265 442.135 177.322 447.119C175.071 449.965 171.398 457.541 168.693 459.133C174.431 447.777 182.64 439.594 191.516 430.679Z" fill="#3F271D"/>
<path d="M301.84 186.225C299.899 194.937 298.334 201.971 301.802 210.573C302.612 212.584 304.068 215.02 304.11 217.176C299.925 211.777 297.798 203.345 298.607 196.662C298.977 193.598 299.784 190.565 300.504 187.569L301.84 186.225Z" fill="#3F271D"/>
<path d="M189.913 330.349C195.277 330.876 202.754 331.664 207.908 329.59C211.125 328.295 215.596 324.256 218.804 324.077C217.736 326.503 212.752 328.501 210.304 329.459C203.533 332.107 197.045 332.354 189.913 331.221V330.349Z" fill="#D49C7E"/>
<path d="M202.261 542.519L202.669 542.558L202.577 543.003C193.995 547.868 185.71 546.433 176.593 543.994L175.316 543.277C176.76 542.778 180.783 544.293 182.48 544.545C186.417 545.13 190.87 545.291 194.839 544.816C197.418 544.507 199.859 543.455 202.261 542.519Z" fill="#7E5A40"/>
<path d="M412.764 572.4C413.001 572.698 413.075 573.096 413.212 573.451C410.094 579.274 406.71 584.958 402.702 590.22C402.084 589.639 402.263 590.004 402.224 589.098C404.137 586.248 411.098 573.475 412.764 572.4Z" fill="#EFB79A"/>
<path d="M516.573 422.551L517.115 423.189C514.724 428.588 508.067 434.395 503.944 438.721C503.665 438.803 503.361 438.73 503.071 438.71C504.499 435.857 513.787 425.886 516.573 422.551Z" fill="#B48662"/>
<path d="M131.383 565.345C132.894 566.586 140.297 583.028 142.251 586.294L140.899 585.656C136.816 580.24 132.829 571.983 131.383 565.345Z" fill="#D49C7E"/>
<path d="M214.474 398.521L214.647 398.7C213.807 402.141 203.781 411.591 200.825 414.309C200.378 413.868 200.532 414.146 200.437 413.436C205.145 408.491 209.824 403.519 214.474 398.521Z" fill="#D49C7E"/>
<path d="M143.097 587.95C143.789 588.142 143.935 588.156 144.573 588.425C147.286 589.567 154.255 598.166 155.265 601.174C151.908 598.444 145.416 591.524 143.097 587.95Z" fill="#EFB79A"/>
<path d="M335.394 268.158L336.1 268.093L336.388 268.557C334.972 273.345 333.051 277.221 330.163 281.292L329.784 281.715C329.671 278.889 334.026 271.093 335.394 268.158Z" fill="#D49C7E"/>
<path d="M191.516 430.679C195.204 426.574 199.263 423.079 203.458 419.516C202.191 422.526 194.28 429.859 191.5 432.071L191.516 430.679Z" fill="#D49C7E"/>
<path d="M238.794 517.329L239.258 517.818C237.083 522.603 233.828 527.098 230.509 531.143L230.072 530.966C231.664 526.43 235.996 521.235 238.794 517.329Z" fill="#D49C7E"/>
<path d="M263.803 310.533C263.272 315.351 262.218 319.86 260.524 324.402L260.107 324.694C260.494 320.303 261.616 314.987 262.942 310.776L263.803 310.533Z" fill="#B48662"/>
<path d="M278.931 396.161C279.005 396.189 279.085 396.206 279.155 396.245C280.095 396.766 280.889 397.367 281.964 397.602C284.526 398.162 287.373 395.364 289.379 394.023L290.229 394.167C288.184 396.081 285.189 399.423 282.103 399.033C280.71 398.856 279.161 397.596 278.29 396.552L278.931 396.161Z" fill="#D49C7E"/>
<path d="M212.09 226.309L212.964 226.299C214.089 227.07 214.37 227.181 214.9 228.414L214.425 229.26L212.769 229.314C211.216 228.982 209.853 228.735 208.48 227.882C209.183 226.719 210.798 226.667 212.09 226.309Z" fill="#EFB79A"/>
<path d="M317.618 502.257C321.317 503.953 324.713 507.408 327.165 510.564C325.032 510.073 318.999 504.189 316.897 502.569L317.618 502.257Z" fill="#D49C7E"/>
<path d="M252.46 533.161C256.663 532.823 258.897 532.969 262.402 535.451C258.537 535.887 255.847 534.806 252.46 533.161Z" fill="#B48662"/>
<path d="M315.248 568.002L315.758 568.145C312.158 570.497 307.396 571.639 303.276 572.753L302.813 572.686C303.766 570.915 312.78 568.795 315.248 568.002Z" fill="#9E7252"/>
<path d="M428.524 291.461L428.837 291.845C427.428 294.848 424.205 297.953 422.039 300.534L421.716 300.07C423.252 296.756 425.987 294.03 428.524 291.461Z" fill="#D49C7E"/>
<path d="M298.464 292.868L300.004 292.714C300.156 295.396 300.296 298.049 300.716 300.707L299.738 301.101C299.292 298.36 298.867 295.616 298.464 292.868Z" fill="#150F0A"/>
<path d="M182.659 255.492C186.086 254.678 189.633 254.401 193.129 254.011L192.524 255.186C189.238 255.452 185.925 255.652 182.66 256.107L182.659 255.492Z" fill="#5D3F2B"/>
<path d="M264.856 301.941L266.068 301.548C265.334 304.533 264.692 307.592 263.803 310.533L262.942 310.776C263.796 307.911 264.115 304.853 264.856 301.941Z" fill="#3F271D"/>
<path d="M236.007 229.618C239.563 229.085 241.749 229.909 244.663 231.918C241.932 231.747 238.453 230.828 236.007 229.618Z" fill="#D49C7E"/>
<path d="M251.364 502.109L251.915 503.077C250.165 504.347 248.556 505.772 246.394 506.207L246.906 505.96L246.813 505.376C248.098 504.092 249.855 503.119 251.364 502.109Z" fill="#D49C7E"/>
<path d="M43.479 394.566C43.461 392.854 42.9189 388.867 44.0419 387.666C44.7459 389.879 44.463 393.053 44.48 395.411L43.479 394.566Z" fill="#D49C7E"/>
<path d="M251.364 502.109C253.399 501.09 255.281 499.547 257.148 498.237L258.675 498.665C256.493 500.017 253.777 501.329 251.915 503.077L251.364 502.109Z" fill="#5D3F2B"/>
<path d="M300.716 300.707C301.268 303.229 301.851 305.742 302.234 308.297L301.402 308.659C301.116 306.128 300.334 303.581 299.738 301.101L300.716 300.707Z" fill="#5D3F2B"/>
<path d="M174.957 257.391C177.577 256.605 179.899 255.702 182.659 255.492L182.66 256.107C180.223 256.866 177.486 257.041 174.957 257.391Z" fill="#B48662"/>
<path d="M300.504 187.569C300.769 185.672 301.1 184.025 301.752 182.222C302.293 183.256 301.902 185.041 301.84 186.225L300.504 187.569Z" fill="#7E5A40"/>
<path d="M77.8748 321.389C75.2038 318.341 73.1568 314.377 71.1378 310.85C54.9878 282.633 51.9018 247.005 51.9448 215.005C51.9898 181.643 60.7198 129.514 77.4538 100.723C84.3618 88.8368 96.2148 75.5138 106.081 65.7798C112.682 59.2668 120.441 53.8998 127.889 48.4088C139.501 39.8483 151.592 31.1995 164.662 24.9959C197.12 9.59042 248.343 2.55362 284.179 2.93722C296.876 3.07312 309.848 3.85312 322.37 6.00402C356.1 11.7976 397.397 27.2219 421.604 52.1498C431.744 62.5918 437.149 74.6598 436.945 89.3448C435.364 92.1618 433.893 93.8288 431.107 95.5258C420.054 102.258 412.724 93.3328 403.012 89.5218C384.952 82.4348 361.899 78.3918 342.486 78.8048C337.123 78.9188 309.154 81.0328 306.427 80.1798C302.769 79.0348 299.225 77.2038 295.716 75.6508C290.323 73.2638 284.691 71.1408 279.461 68.4238C274.677 65.9388 270.129 62.9948 265.387 60.4278C241.626 47.5638 222.558 37.6662 196.035 31.1091C208.913 37.3765 223.052 40.6566 236.051 46.7738C250.68 53.6578 264.321 62.5898 278.635 70.0258C287.205 74.4778 296.857 77.8758 305.883 81.3188C283.853 82.8158 251.141 80.1558 230.212 74.2068C222.737 72.0828 215.641 68.8268 208.278 66.3688C192.873 61.2258 175.833 57.5518 159.591 57.0548L153.958 58.0018C179.818 57.9728 206.143 66.7928 229.934 76.0468C220.092 75.4778 209.982 75.5608 200.171 76.5678C193.907 77.2108 187.639 78.4918 181.364 78.8798C173.265 79.3818 165.023 78.3998 156.904 78.5118L157.321 79.9958C164.01 80.1698 172.484 79.4508 178.934 81.2338L179.173 81.4878L179.69 82.2402C165.545 86.4122 151.814 93.7682 140.883 103.731C138.014 106.346 135.759 109.609 132.921 112.142L132.527 112.633C123.975 123.154 113.974 132.034 108.861 144.994L107.17 148.202C106.812 151.822 105.316 154.882 103.834 158.156C102.847 158.844 102.793 159.358 102.563 160.49C99.4508 175.798 100.594 191.214 99.3628 206.659C97.9058 224.927 93.0298 242.601 91.3428 260.839C90.1698 273.524 90.3998 285.381 89.7588 297.961C89.2488 307.971 87.8928 318.089 86.6638 328.032C86.1698 332.025 86.1758 336.342 85.3798 340.246C84.7428 340.244 84.9598 340.371 84.6438 340.071C84.2278 338.588 84.0558 337.559 84.1608 335.99C84.4758 331.232 81.6038 326.278 79.6698 322.004L78.4858 322.327L77.8748 321.389Z" fill="#B48662"/>
<path d="M179.173 81.4878L179.69 82.2402C165.545 86.4122 151.814 93.7682 140.883 103.731C138.014 106.346 135.759 109.609 132.921 112.142L132.813 111.285L132.605 110.166C121.48 112.641 109.725 119.506 99.5692 124.609L98.6792 123.816C106.11 119.94 113.317 115.762 121.085 112.567C125.096 110.917 130.173 110.309 133.896 108.295C135.391 107.487 136.608 106.293 137.802 105.104C141.539 101.384 145.856 98.1368 150.126 95.0528C139.944 98.0068 129.621 99.0228 119.517 102.56C112.629 104.971 105.63 107.619 98.9832 110.623C95.8162 112.055 88.9832 117.193 85.8262 117C98.5262 109.743 111.346 102.944 125.52 98.9988C134.238 96.5718 143.547 95.3428 152.087 92.4258C156.231 91.0098 159.911 88.1208 163.885 86.2748C168.739 84.0188 174.064 82.9858 179.173 81.4878Z" fill="#150F0A"/>
<path d="M98.1938 150.295C102.502 145.119 106.405 139.577 110.73 134.449C117.545 126.37 125.352 118.779 132.813 111.285L132.921 112.142L132.527 112.633C123.975 123.154 113.974 132.034 108.861 144.994L107.772 143.117C107 144.571 106.273 145.982 105.263 147.287L103.92 147.378L100.278 152.874L99.3878 151.893L99.1288 151.087L98.1938 150.295Z" fill="#050302"/>
<path d="M103.92 147.378C104.94 145.863 106.148 144.482 107.305 143.069L107.772 143.117C107 144.571 106.273 145.982 105.263 147.287L103.92 147.378Z" fill="#7E5A40"/>
<path d="M105.263 147.287C106.273 145.982 107 144.571 107.772 143.117L108.861 144.994L107.17 148.202C99.3638 158.799 76.1439 205.292 73.6949 217.523L72.8818 217.434C80.1698 192.723 93.0208 169.822 105.263 147.287Z" fill="#150F0A"/>
<path d="M98.1938 150.295L99.1288 151.087C90.2988 162.734 82.4631 175.091 73.5931 186.668L72.2051 186.883C81.0341 174.736 88.9238 162.167 98.1938 150.295Z" fill="#150F0A"/>
<path d="M77.8748 321.389C77.8398 321.119 77.8069 320.848 77.7679 320.578C77.4059 318.106 76.4079 315.529 75.6209 313.159C72.0629 302.453 71.2039 298.24 74.8749 287.219C75.6199 284.984 76.6049 280.849 78.1859 279.074C78.5699 278.643 78.6599 278.634 79.0999 278.398C79.8859 281.812 75.5259 287.745 74.4359 291.152C73.5419 294.021 73.1349 297.02 73.2299 300.025C73.5119 307.875 77.6628 314.611 79.6698 322.004L78.4858 322.327L77.8748 321.389Z" fill="#5D3F2B"/>
<path d="M128.663 81.3079C138.113 79.4339 147.279 78.4988 156.904 78.5118L157.321 79.9958C147.769 79.9788 138.17 80.3689 128.765 82.1769L128.663 81.3079Z" fill="#150F0A"/>
<path d="M99.5692 124.609C95.5922 126.823 91.4562 128.796 87.5302 131.092C86.0702 131.945 84.7842 133.081 83.2642 133.813C84.1862 132.809 85.0682 131.824 86.2602 131.137C90.4522 128.724 94.2522 125.841 98.6792 123.816L99.5692 124.609Z" fill="#5D3F2B"/>
<path d="M128.765 82.1769C125.27 83.0789 113.878 85.7971 110.774 85.7711C112.483 83.8741 125.598 81.6539 128.663 81.3079L128.765 82.1769Z" fill="#5D3F2B"/>
<path d="M100.278 152.874C98.5839 155.813 96.3682 158.815 94.0332 161.279C95.3602 157.98 97.5158 154.915 99.3878 151.893L100.278 152.874Z" fill="#150F0A"/>
<path d="M73.6949 217.523C72.2239 221.541 70.5992 225.68 68.7352 229.531C68.2282 227.051 71.7438 219.907 72.8818 217.434L73.6949 217.523Z" fill="#5D3F2B"/>
<path d="M72.2051 186.883L73.5931 186.668C72.5521 188.596 71.2808 190.802 69.8268 192.447C69.6348 192.665 69.4348 192.876 69.2398 193.09L69.5068 193.155L68.9468 192.391L69.8878 192.883L69.1318 191.788C69.8218 190.157 71.0791 188.231 72.2051 186.883Z" fill="#5D3F2B"/>
<path d="M153.958 58.0018C153.059 58.4158 151.755 58.4518 150.766 58.6058L150.276 58.0678L150.206 58.0788C153.249 56.6998 156.338 56.9238 159.591 57.0548L153.958 58.0018Z" fill="#7E5A40"/>
<path d="M281.336 30.4126C283.644 30.8808 285.871 32.5287 287.857 33.7699C299.418 40.9951 307.36 50.685 317.376 59.567C322.565 64.168 328.191 68.358 333.642 72.647C322.856 70.315 306.881 50.448 298.344 43.0241C293.024 38.3985 287.102 34.4524 281.336 30.4126Z" fill="#150F0A"/>
<path d="M330.536 26.752C345.119 37.469 352.264 46.4851 362.478 61.215C365.238 65.196 367.867 69.4341 370.858 73.2371L369.846 73.6141C355.916 55.8761 348.687 41.906 330.008 27.4444L330.536 26.752Z" fill="#150F0A"/>
<path d="M388.054 33.0054C400.654 39.9056 407.162 54.161 412.475 66.86L410.796 66.984C404.858 53.61 398.977 43.0716 388.054 33.0054Z" fill="#050302"/>
<path d="M379.916 45.8838C387.971 50.3858 400.605 76.9528 404.743 85.6918C400.856 82.7898 391.345 63.2548 387.925 57.5598C385.475 53.4808 382.796 49.6648 379.916 45.8838Z" fill="#150F0A"/>
<path d="M89.7781 204.339L90.8361 205.702C89.2521 212.17 87.1251 218.476 85.3641 224.895C82.4631 235.471 79.6661 250.855 74.3711 260.157C78.3681 248.338 81.2121 236.545 84.3611 224.5C86.1231 217.761 88.1481 211.117 89.7781 204.339Z" fill="#5D3F2B"/>
<path d="M412.475 66.86C415.625 73.862 422.476 82.6699 422.712 90.3089C421.344 88.6049 420.894 85.8229 419.87 83.8139C417.008 78.2009 413.085 72.838 410.796 66.984L412.475 66.86Z" fill="#5D3F2B"/>
<path d="M370.858 73.2371C372.172 74.1901 375.025 76.6878 375.45 78.2438C375.496 78.4128 375.498 78.5918 375.522 78.7658C374.587 78.8468 374.376 78.7878 373.635 78.2148C372.182 77.0908 370.959 75.0871 369.846 73.6141L370.858 73.2371Z" fill="#7E5A40"/>
<path d="M330.008 27.4444C327.487 26.0644 325.021 24.0346 322.763 22.2623L322.906 21.186L322.413 21.8697L322.182 21.338L323.262 21.5009L322.581 22.3864L323.543 21.6462C325.966 23.0691 328.245 25.1005 330.536 26.752L330.008 27.4444Z" fill="#7E5A40"/>
<path d="M89.7781 204.339C90.0081 202.633 89.9978 200.419 90.9268 198.967C91.2658 201.236 91.0151 203.429 90.8361 205.702L89.7781 204.339Z" fill="#5D3F2B"/>
<path d="M439.517 90.0619C456.62 89.6649 463.843 91.3689 476.511 103.494C504.486 130.27 514.573 178.835 515.161 216.249C515.556 241.374 512.121 265.621 506.317 289.992C504.745 296.595 503.341 303.414 501.012 309.793C492.057 314.836 485.537 327.021 482.801 336.611C482.254 338.53 481.96 340.558 481.228 342.411C479.688 326.649 477.479 310.983 476.446 295.168C475.695 283.682 476.267 272.282 475.073 260.794C473.847 249.004 470.157 237.77 468.577 226.047C465.996 206.89 466.374 190.119 465.716 171.033C469.019 177.609 470.844 185.219 473.191 192.198C478.637 208.396 483.718 224.827 489.999 240.724L490.67 239.815C488.795 235.787 487.606 231.016 486.207 226.781L476.709 197.586C473.462 187.748 468.97 177.819 466.268 167.884C465.1 163.588 463.999 158.066 464.003 153.628C467.626 156.174 483.797 182.448 486.878 188.116L487.75 187.841C479.957 172.505 469.724 158.577 459.919 144.511C456.018 138.915 452.662 132.966 448.449 127.585C442.428 119.894 435.582 112.82 429.736 105.003C435.168 109 440.897 111.729 446.62 115.211C456.238 121.063 466.312 130.58 472.235 140.216L473.054 139.856C464.53 127.572 453.659 117.096 441.067 109.033C439.067 107.764 424.998 101.172 424.814 100.772C424.714 100.554 424.813 100.293 424.813 100.054C427.078 98.6049 431.318 99.8529 433.81 100.402C441.413 102.078 448.127 105.4 454.811 109.294C450.019 105.221 444.345 101.202 438.031 100.013C435.657 99.5659 431.989 99.7749 429.956 98.5459C430.544 97.0989 437.028 93.5239 439.517 90.0619Z" fill="#B48662"/>
<path d="M494.793 201.781C498.941 210.234 506.013 225.938 505.162 235.456C503.618 232.326 502.749 228.687 501.697 225.356C499.25 217.608 497.056 209.582 493.941 202.076L494.793 201.781Z" fill="url(#paint3_linear_144_240)"/>
<path d="M472.235 140.216L473.054 139.856C475.652 142.951 486.967 157.908 488.229 160.904C486.579 160.477 473.91 142.836 472.235 140.216Z" fill="#5D3F2B"/>
<path d="M487.75 187.841C489.87 190.303 493.671 198.596 494.793 201.781L493.941 202.076C491.563 197.435 489.208 192.781 486.878 188.116L487.75 187.841Z" fill="#5D3F2B"/>
<path d="M490.67 239.815C491.813 243.147 492.879 246.405 493.597 249.856C492.316 246.848 490.945 243.859 489.999 240.724L490.67 239.815Z" fill="#5D3F2B"/>
<path d="M491.644 256.19C496.237 262.138 500.806 295.35 500.899 303.643C499.271 301.549 499.634 295.203 499.168 292.258C497.253 280.167 494.216 268.16 491.644 256.19Z" fill="#3F271D"/>
<path d="M490.698 281.396C490.797 281.555 490.914 281.704 490.994 281.873C493.73 287.718 490.153 307.884 488.603 314.162C488.387 313.606 488.049 313.083 487.956 312.494C487.632 310.45 489.119 304.737 489.439 302.242C490.325 295.323 490.506 288.36 490.698 281.396Z" fill="#7E5A40"/>
<path d="M78.6169 379.851C80.2129 381.693 81.9679 385.092 82.2889 387.514C82.9339 392.376 82.0939 397.84 82.0619 402.792C82.0259 408.551 82.4809 414.306 82.2259 420.064C81.4659 421.652 79.9639 422.285 78.5079 423.14C75.9449 414.063 72.9509 400.349 74.7319 391.101C75.4689 387.276 77.1979 383.475 78.6169 379.851Z" fill="#EFB79A"/>
<path d="M485.394 384.699C486.14 383.789 486.87 382.865 487.582 381.928C490.245 383.835 491.165 390.277 491.704 393.438C492.894 400.423 491.545 415.36 487.185 421.024C486.402 422.041 485.328 422.892 484.349 423.715C484.48 417.303 485.149 410.888 484.973 404.475C484.803 398.304 483.653 391.945 484.129 385.799L485.394 384.699Z" fill="#EFB79A"/>
<defs>
<linearGradient id="paint0_linear_144_240" x1="334.76" y1="688.581" x2="43.3786" y2="521.029" gradientUnits="userSpaceOnUse">
<stop stop-color="#987153"/>
<stop offset="1" stop-color="#BC8D68"/>
</linearGradient>
<linearGradient id="paint1_linear_144_240" x1="366.315" y1="73.0289" x2="-91.7572" y2="292.219" gradientUnits="userSpaceOnUse">
<stop/>
<stop offset="1" stop-color="#492B10"/>
</linearGradient>
<linearGradient id="paint2_linear_144_240" x1="304.229" y1="408.034" x2="140.265" y2="537.866" gradientUnits="userSpaceOnUse">
<stop stop-color="#D59776"/>
<stop offset="1" stop-color="#F2BEA3"/>
</linearGradient>
<linearGradient id="paint3_linear_144_240" x1="145.852" y1="454.595" x2="399.387" y2="371.855" gradientUnits="userSpaceOnUse">
<stop stop-color="#7D533C"/>
<stop offset="1" stop-color="#A2805B"/>
</linearGradient>
</defs>
</svg>
