<svg width="489" height="759" viewBox="0 0 489 759" fill="none" xmlns="http://www.w3.org/2000/svg">
<path d="M281.32 47.949C284.874 36.3574 290.996 18.8482 299.118 9.98856C304.956 3.62236 313.13 0.69036 321.616 0.28736C326.034 0.0775598 330.586 0.509963 335.016 0.656363C338.738 0.779363 342.658 0.678359 346.32 1.36396C355.744 3.12816 364.62 11.7852 371.53 18.0514C391.06 35.7594 394.332 54.2224 395.492 79.472C397.934 79.644 400.362 79.97 402.764 80.446C413.216 82.582 421.984 88.554 427.69 97.55C433.714 107.048 437.138 118.85 441.118 129.336C446.252 142.7 451.54 156.004 456.984 169.244C465.87 190.488 487.402 234.53 488.06 254.972C488.352 264.1 486.264 273.448 482.42 281.712C472.042 304.024 454.428 324.626 440.282 344.708C422.786 369.548 406.16 395.104 388.366 419.712C381.226 429.586 369.718 442.626 364.392 452.89C358.266 464.694 354.158 479.58 352.522 492.734C349.77 514.866 351.736 536.878 353.63 558.998C355.744 583.7 358.504 608.232 361.416 632.852C363.728 652.386 365.058 672.028 367.42 691.548C368.364 699.346 373.978 735.16 373.07 739.104C367.09 741.044 360.988 742.428 354.876 743.872C329.908 750.292 303.658 753.294 278.106 756.358C217.226 761.584 155.9 756.09 96.918 740.128C94.568 737.492 97.016 705.388 97.166 700.736C97.984 675.654 98.88 649.028 94.738 624.214C92.314 609.686 86.876 595.706 85.648 580.938C84.352 565.376 89.266 549.72 87.114 535.228C85.026 521.168 76.132 508.514 70.408 495.714C67.376 488.934 65.19 481.802 62.656 474.828C60.004 467.61 57.116 460.482 54 453.452C47.112 437.518 38.368 422.584 32.842 406.036C23.332 377.556 23.018 353.328 19.592 324.026C18.604 315.584 17.948 306.446 15.85 298.208C13.04 287.166 6.08598 279.324 2.37398 269.022C-4.35202 250.354 6.83799 244.864 13.35 230.544C13.438 230.35 13.522 230.152 13.606 229.956C13.346 229.402 13.102 228.862 12.876 228.294C6.40599 212.004 5.58198 193.452 12.624 177.24C17.804 165.31 31.664 143.624 41.218 134.906C44.942 131.508 49.126 129.036 53.814 127.204C65.544 122.618 76.172 122.52 87.772 127.562C88.918 111.558 96.542 87.178 108.33 75.66C117.784 66.42 132.922 60.256 146.168 60.498C157.976 60.714 168.678 65.588 176.804 74.042C176.994 70.886 177.48 67.866 178.366 64.83C182.144 51.8778 192.782 31.8164 205.034 25.2686C216.674 19.0488 235.212 15.3054 248.104 19.2406C262.14 23.5254 274.552 35.1956 281.32 47.949Z" fill="#ECB7A2"/>
<path d="M281.32 47.949C284.874 36.3574 290.996 18.8482 299.118 9.98856C304.956 3.62236 313.13 0.69036 321.616 0.28736C326.034 0.0775598 330.586 0.509963 335.016 0.656363C338.738 0.779363 342.658 0.678359 346.32 1.36396C355.744 3.12816 364.62 11.7852 371.53 18.0514C391.06 35.7594 394.332 54.2224 395.492 79.472C397.934 79.644 400.362 79.97 402.764 80.446C413.216 82.582 421.984 88.554 427.69 97.55C433.714 107.048 437.138 118.85 441.118 129.336C446.252 142.7 451.54 156.004 456.984 169.244C465.87 190.488 487.402 234.53 488.06 254.972C488.352 264.1 486.264 273.448 482.42 281.712C472.042 304.024 454.428 324.626 440.282 344.708C422.786 369.548 406.16 395.104 388.366 419.712C381.226 429.586 369.718 442.626 364.392 452.89C358.266 464.694 354.158 479.58 352.522 492.734C349.77 514.866 351.736 536.878 353.63 558.998C355.744 583.7 358.504 608.232 361.416 632.852C363.728 652.386 365.058 672.028 367.42 691.548C368.364 699.346 373.978 735.16 373.07 739.104L371.548 738.746C368.864 732.984 368.664 722.22 367.822 715.656C364.192 687.316 361.74 658.928 358.308 630.576C355.374 607.784 353.024 584.92 351.262 562.008C348.266 524.678 344.106 488.016 361.512 453.03C364.806 446.414 369.872 440.39 374.258 434.464C380.392 426.246 386.41 417.94 392.308 409.552C409.756 384.76 426.336 359.288 444.2 334.796C457.49 316.574 477.924 291.74 483.81 270.262C486.244 261.374 485.964 252.148 483.808 243.23C481.41 233.312 477.072 223.694 473.254 214.246C465.32 194.618 456.606 175.316 448.716 155.662C444.8 145.728 440.968 135.76 437.216 125.764C435.252 120.594 433.594 114.754 430.846 109.992L430.372 109.754L429.936 107.422C429.456 106.082 428.936 104.756 428.382 103.444C424.42 94.22 417.038 88.332 407.93 84.652C401.884 82.664 396.608 82.046 390.264 82.292C373.138 82.842 359.39 90.512 343.64 96.062C333.612 99.596 322.598 101.904 312.062 103.296C309.968 103.688 307.228 103.866 305.348 104.844L305.834 105.01C313.506 105.78 319.214 104.256 324.798 110.932C329.134 116.114 333.496 124.884 332.756 131.764C332.64 132.844 332.45 133.916 332.254 134.984C326.036 142.096 313.42 142.664 304.58 143.282C295.37 143.926 280.198 144.526 272.91 138.024C265.464 131.38 256.904 119.02 252.822 109.968C248.634 114.612 246.538 118.342 246.35 124.77C246.478 124.896 246.608 125.018 246.732 125.146C251.866 130.402 255.266 142.458 261.24 149.718C274.538 165.874 319.04 178.038 339.76 178.634C356.134 179.104 370.14 175.226 383.492 165.818C386.14 163.952 388.83 160.692 391.894 162.614C394.466 158.534 397.086 154.482 399.75 150.462C393.57 167.188 383.154 181.056 366.664 188.65C360.822 191.288 354.744 193.364 348.508 194.85C353.72 206.228 359.234 218.578 371.778 223.232C378.474 225.714 387.05 227.012 394.166 227.01L395.704 227.624L395.774 228.268C394.14 229.1 392.512 229.046 390.728 229.14C377.902 228.324 368.342 226.73 358.82 217.4C358.166 226.494 358.112 233.658 364.406 241.002C371.034 248.732 393.274 260.62 395.974 265.086C389.404 262.286 373.52 252.52 367.84 247.92C367.304 247.916 366.878 247.944 366.342 247.78C361.506 246.302 356.064 233.562 353.146 229.554C352.272 228.354 351.782 228.226 350.35 228.014C349.438 227.214 349.462 227.2 349.276 225.996L350.046 225.534L351.746 219.944C350.486 219.52 350.004 219.13 349.136 218.128C342.526 219.032 335.824 219.78 329.288 221.13C319.228 223.206 300.7 228.74 293.148 235.856C292.018 237.884 290.392 239.3 288.73 240.884C280.888 252.436 268.63 265.556 254.268 268.484C250.95 269.16 246.408 268.242 243.418 269.67C243.022 269.782 242.42 269.614 242.01 269.558C241.49 270.228 240.958 270.892 240.47 271.586C237.342 270.008 228.72 270.174 224.888 269.79C217.644 273.844 210.378 278.784 203.89 283.96L203.266 284.182L202.386 283.548C197.648 285.212 194.34 290.416 189.874 292.604C188.27 291.924 186.762 292.468 185.142 292.85C183.402 292.548 182.218 292.812 180.522 293.248C176.858 291.396 162.134 290.92 156.47 289.404C152.856 290.534 150.068 292.934 146.616 294.218C143.91 296.888 141.07 299.262 137.658 300.98C129.45 305.112 121.064 303.896 112.702 301.094C93.652 294.706 80.836 280.766 72.092 263.228C56.042 265.932 25.552 266.144 11.064 258.642C31.112 262.246 50.56 262.096 70.8 261.38C60.152 252.652 53.224 241.494 47.17 229.248C40.138 226.792 33.67 222.948 28.15 217.946C23.178 213.506 16.608 206.59 16.198 199.582L15.942 199.146C14.418 198.36 13.662 198.582 11.984 198.59C10.73 196.958 10.97 195.292 10.948 193.304C8.55398 205.576 12.472 218.296 15.52 230.074L15.282 230.696C9.28 246.032 -1.834 252.354 5.95 270.916C9.236 278.746 14.416 285.204 16.938 293.484C20.4 304.848 21.442 316.97 22.71 328.746C25.182 351.7 26.626 374.292 32.734 396.686C38.346 417.27 49.324 435.642 57.676 455.102C63.69 469.118 67.896 483.854 74.074 497.784C78.312 507.338 84.064 516.14 87.326 526.134C93.284 544.384 87.156 563.252 88.578 582.238C89.722 597.484 95.598 612.078 97.818 627.202C102.32 657.866 100.102 690.05 99.146 720.912C98.982 726.176 99.834 734.894 98.604 739.64C97.472 740.126 98.038 739.976 96.918 740.128C94.568 737.492 97.016 705.388 97.166 700.736C97.984 675.654 98.88 649.028 94.738 624.214C92.314 609.686 86.876 595.706 85.648 580.938C84.352 565.376 89.266 549.72 87.114 535.228C85.026 521.168 76.132 508.514 70.408 495.714C67.376 488.934 65.19 481.802 62.656 474.828C60.004 467.61 57.116 460.482 54 453.452C47.112 437.518 38.368 422.584 32.842 406.036C23.332 377.556 23.018 353.328 19.592 324.026C18.604 315.584 17.948 306.446 15.85 298.208C13.04 287.166 6.08598 279.324 2.37398 269.022C-4.35202 250.354 6.83799 244.864 13.35 230.544C13.438 230.35 13.522 230.152 13.606 229.956C13.346 229.402 13.102 228.862 12.876 228.294C6.40599 212.004 5.58198 193.452 12.624 177.24C17.804 165.31 31.664 143.624 41.218 134.906C44.942 131.508 49.126 129.036 53.814 127.204C65.544 122.618 76.172 122.52 87.772 127.562C88.918 111.558 96.542 87.178 108.33 75.66C117.784 66.42 132.922 60.256 146.168 60.498C157.976 60.714 168.678 65.588 176.804 74.042C176.994 70.886 177.48 67.866 178.366 64.83C182.144 51.8778 192.782 31.8164 205.034 25.2686C216.674 19.0488 235.212 15.3054 248.104 19.2406C262.14 23.5254 274.552 35.1956 281.32 47.949Z" fill="#040202"/>
<path d="M10.948 193.304C12.138 178.562 32.3561 145.838 43.4041 136.302C51.6781 129.162 63.4761 125.322 74.3661 126.282C82.2821 126.978 89.5241 130.148 94.6801 136.362C102.994 146.38 111.516 169.704 118.3 182.56C125.32 195.862 136.988 210.67 141.256 224.778C144.08 234.12 143.422 244.09 144.464 253.692C145.52 263.42 148.09 272.078 147.854 282.002C146.692 279.058 145.912 275.664 142.97 274.048C140.25 274.07 115.916 287.86 113.388 290.242C113.48 293.096 113.704 295.75 114.236 298.56C93.5081 291.066 84.7981 281.046 74.2341 262.312C76.9241 262.356 79.6421 262.488 82.3281 262.348C78.2401 260.782 73.2701 259.792 69.718 257.226C60.452 250.528 42.8401 218.514 37.5121 206.696C33.7161 198.278 32.8961 189.392 29.8161 180.844C28.8141 198.75 37.5621 210.688 44.7061 225.694C34.9121 221.538 26.802 214.824 20.494 206.284C18.906 204.134 17.794 201.722 16.198 199.582L15.942 199.146C14.418 198.36 13.662 198.582 11.984 198.59C10.73 196.958 10.97 195.292 10.948 193.304Z" fill="url(#paint0_linear_143_202)"/>
<path d="M38.6538 157.872C40.2258 153.832 42.3458 150.03 44.9578 146.568C50.5418 139.192 58.7218 134.622 67.8438 133.306L68.3418 134.25C53.8538 138.23 47.0158 145.924 38.6538 157.872Z" fill="#040202"/>
<path d="M134.026 233.586L134.312 233.916C126.37 242.482 107.554 249.498 96.4458 252.756C103.068 247.328 111.574 246.192 119.102 242.814C124.358 240.454 129.23 236.764 134.026 233.586Z" fill="#281715"/>
<path d="M79.4281 145.26L80.1081 146.194C67.8861 150.76 58.2161 157.604 47.8921 165.392C56.9321 155.294 66.6581 149.544 79.4281 145.26Z" fill="#040202"/>
<path d="M119.554 226.008L119.978 226.076L120.144 226.452C113.294 230.182 106.502 234.014 99.7699 237.95L99.5239 237.942L99.502 237.424C105.5 232.548 112.528 229.124 119.554 226.008Z" fill="#281715"/>
<path d="M67.8438 133.306C70.1938 132.778 73.1498 131.992 75.4958 132.68C73.7058 133.998 70.5478 133.974 68.3418 134.25L67.8438 133.306Z" fill="#654138"/>
<path d="M79.4281 145.26C81.0841 144.742 82.8482 143.98 84.5922 144.242C83.5162 145.376 81.5981 145.716 80.1081 146.194L79.4281 145.26Z" fill="#654138"/>
<path d="M246.35 124.77C246.478 124.896 246.608 125.018 246.732 125.146C251.866 130.402 255.266 142.458 261.24 149.718C274.538 165.874 319.04 178.038 339.76 178.634C356.134 179.104 370.14 175.226 383.492 165.818C386.14 163.952 388.83 160.692 391.894 162.614C388.188 168.284 383.964 173.498 378.768 177.882C365.178 189.346 342.228 196.252 324.566 194.726C302.048 192.78 272.576 177.808 258.18 160.354C250.048 150.494 245.102 137.66 246.35 124.77Z" fill="#E2A48F"/>
<path d="M202.25 282.212C202.73 281.968 202.878 281.916 203.296 281.634C205.048 280.45 206.568 278.398 207.894 276.756C214.192 268.952 216.178 261.444 218.346 251.878C225.656 263.994 239.798 266.198 242.01 269.558C241.49 270.228 240.958 270.892 240.47 271.586C237.342 270.008 228.72 270.174 224.888 269.79C217.644 273.844 210.378 278.784 203.89 283.96L203.266 284.182L202.386 283.548C197.648 285.212 194.34 290.416 189.874 292.604C188.27 291.924 186.762 292.468 185.142 292.85C183.402 292.548 182.218 292.812 180.522 293.248C176.858 291.396 162.134 290.92 156.47 289.404C152.856 290.534 150.068 292.934 146.616 294.218C148.296 285.37 150.786 285.05 150.496 274.044C155.778 280.156 160.882 283.532 168.586 285.908C181.414 289.866 190.5 288.422 202.25 282.212Z" fill="#845349"/>
<path d="M294.47 216.782C296.84 221.216 298.686 224.694 303.002 227.524C300.79 228.574 298.466 229.754 296.478 231.19C294.616 232.536 293.49 233.586 293.148 235.856C292.018 237.884 290.392 239.3 288.73 240.884C291.634 234.154 292.884 224.122 294.47 216.782Z" fill="#845349"/>
<path d="M349.136 218.128C351.072 216.692 353.482 213.928 355.61 213.06C356.62 214.376 356.51 215.558 356.284 217.166C354.902 227.062 353.226 229.954 359.678 238.864C362.094 242.2 364.964 244.996 367.84 247.92C367.304 247.916 366.878 247.944 366.342 247.78C361.506 246.302 356.064 233.562 353.146 229.554C352.272 228.354 351.782 228.226 350.35 228.014C349.438 227.214 349.462 227.2 349.276 225.996L350.046 225.534L351.746 219.944C350.486 219.52 350.004 219.13 349.136 218.128Z" fill="#E2A48F"/>
<path d="M351.746 219.944L352.596 219.756C353.272 221.746 352.878 224.75 352.124 226.692L351.292 226.988C350.656 226.472 350.454 226.278 350.046 225.534L351.746 219.944Z" fill="#040202"/>
<path d="M145.342 62.7441C151.326 63.0461 157.224 64.1501 162.684 66.6861C172.228 71.1201 180.676 80.4021 184.28 90.2501C189.348 104.096 190.244 119.034 193.76 133.268L209.928 197.352C212.386 206.846 216.706 216.776 217.38 226.562C218.454 242.186 216.108 257.31 209.51 271.542L207.698 262.664C202.084 264.174 197.264 267.6 191.756 269.384C186.312 271.146 170.62 272.096 167.374 275.508C166.608 277.13 167.036 278.684 167.28 280.386C167.404 281.002 167.39 281.638 167.418 282.266L166.72 282.646C163.236 282.056 159.448 279.492 156.738 277.242C145.836 268.186 147.404 251.852 146.272 239.072C145.682 232.412 144.558 225.728 142.048 219.506C136.89 206.724 127.91 195.324 121.428 183.146C113.57 168.378 107.712 152.238 98.8721 138.034C96.5961 134.376 93.2461 131.266 89.9561 128.528C91.2621 113.762 97.5981 91.5161 107.408 79.9641C116.66 69.0681 131.464 63.8961 145.342 62.7441Z" fill="#F0BEA9"/>
<path d="M208.538 234.128L208.778 234.55C208.448 235.048 208.124 235.414 207.644 235.774C197.464 243.43 178.064 251.546 165.112 249.676L164.338 248.818C165.152 247.956 176.67 247.024 178.992 246.504C189.254 244.208 199.708 239.834 208.538 234.128Z" fill="#040202"/>
<path d="M144.826 87.646C151.388 86.644 158.814 87.65 165.336 88.6C164.62 89.26 148.432 88.844 146.49 89.062C139.2 89.882 132 92.63 125.426 95.756C121.684 97.89 116.39 102.718 112.642 103.802C120.594 94.936 133.186 89.374 144.826 87.646Z" fill="#040202"/>
<path d="M140.756 70.2002C144.684 70.2062 149.898 70.5622 153.666 71.7062C153.836 71.7582 153.998 71.8402 154.172 71.8782C154.358 71.9182 154.55 71.9162 154.74 71.9362C138.318 71.4142 128.618 72.2442 115.338 82.5622C112.112 85.5742 109.272 89.1342 106.214 92.3382C107.88 89.6742 109.724 87.1242 111.734 84.7062C119.646 75.3062 128.678 71.2882 140.756 70.2002Z" fill="#040202"/>
<path d="M201.532 224.654L201.586 225.356C193.47 229.492 185.926 233.652 176.852 235.238C171.85 236.112 166.766 236.444 161.758 237.274L161.448 237.07C166.492 234.88 173.554 234.434 178.994 233.096C186.79 231.178 194.21 227.884 201.532 224.654Z" fill="#040202"/>
<path d="M176.838 254.922C187.602 252.878 192.776 249.472 202.54 245.84C195.306 251.124 187.34 255.73 178.136 256.092L176.838 254.922Z" fill="#040202"/>
<path d="M159.36 117.678L159.962 117.684L159.884 118.05C151.554 121.314 142.612 123.734 134.118 126.676L133.044 126.784C140.042 121.714 151.02 119.352 159.36 117.678Z" fill="#040202"/>
<path d="M178.136 256.092C176.18 256.182 173.472 256.596 171.724 255.592C173.258 254.774 175.132 254.946 176.838 254.922L178.136 256.092Z" fill="#654138"/>
<path d="M180.598 66.0918C185.55 51.9216 193.172 33.4694 207.49 26.5578C218.904 21.048 237.23 17.9446 249.452 22.3642C261.896 26.8652 274.088 38.0918 279.672 50.0654C287.364 66.5558 285.994 86.1358 286.002 103.89C277.994 104.15 262.646 104.25 255.426 106.596C252.868 107.426 250.578 108.926 248.796 110.942C243.846 116.474 242.986 125.304 243.56 132.434C244.376 142.562 249.054 152.932 255.254 160.896C265.726 173.996 279.13 181.102 293.762 188.6C294.372 208.154 292.346 234.822 278.782 249.998C278.384 247.246 277.592 239.724 275.206 238.194C272.28 236.318 236.248 239.864 231.51 241.326C229.822 241.846 228.988 242.278 228.192 243.92C225.848 248.742 228.662 256.088 230.228 260.8C225.856 257.198 222 253.168 218.844 248.448C219.206 247.044 219.548 245.632 219.778 244.2C220.824 237.318 220.79 230.316 219.682 223.446C218.088 213.982 214.582 204.824 212.18 195.538L197.64 137.774C193.832 122.62 192.52 106.49 187.506 91.7078C185.37 85.4118 181.984 80.4358 178.088 75.1278C178.806 72.0798 179.702 69.0918 180.598 66.0918Z" fill="#F0BEA9"/>
<path d="M180.598 66.0918C181.004 66.5118 181.398 66.9418 181.8 67.3658C182 67.5758 182.214 67.7718 182.41 67.9858C184.94 70.7778 187.396 80.4058 188.646 84.3338C197.228 111.282 203.092 138.604 209.572 166.096C212.072 176.694 213.5 187.962 217.092 198.234C218.1 201.116 219.162 204.502 222.26 205.624L223.8 205.426L224.418 204.54L223.876 203.75C226.856 203.426 230.486 204.188 233.634 204.054C246.714 203.496 259.734 201.976 272.358 198.4C269.38 196.83 273.34 192.836 272.12 189.962C271.46 188.406 270.626 188.148 269.132 187.602L270.708 187.28L269.676 186.872C265.652 177.44 254.426 173.856 255.254 160.896C265.726 173.996 279.13 181.102 293.762 188.6C294.372 208.154 292.346 234.822 278.782 249.998C278.384 247.246 277.592 239.724 275.206 238.194C272.28 236.318 236.248 239.864 231.51 241.326C229.822 241.846 228.988 242.278 228.192 243.92C225.848 248.742 228.662 256.088 230.228 260.8C225.856 257.198 222 253.168 218.844 248.448C219.206 247.044 219.548 245.632 219.778 244.2C220.824 237.318 220.79 230.316 219.682 223.446C218.088 213.982 214.582 204.824 212.18 195.538L197.64 137.774C193.832 122.62 192.52 106.49 187.506 91.7078C185.37 85.4118 181.984 80.4358 178.088 75.1278C178.806 72.0798 179.702 69.0918 180.598 66.0918Z" fill="#E2A48F"/>
<path d="M272.358 198.4L278.898 197.112C263.118 204.468 241.56 207.872 224.418 204.54L223.876 203.75C226.856 203.426 230.486 204.188 233.634 204.054C246.714 203.496 259.734 201.976 272.358 198.4Z" fill="#040202"/>
<path d="M275.672 209.518L276.252 209.698C275.818 210.148 275.83 210.174 275.22 210.586C272.928 212.13 269.592 213.098 266.974 214.026C253.604 218.772 242.78 218.628 228.99 215.668C228.054 215.468 228.006 215.416 227.222 214.728C231.522 214.648 235.896 215.454 240.206 215.644C252.838 216.202 263.864 213.87 275.672 209.518Z" fill="#040202"/>
<path d="M269.676 186.872L270.708 187.28L269.132 187.602C257.518 191.246 245.336 192.748 233.184 192.036L231.318 190.974C244.198 191.096 256.998 188.908 269.676 186.872Z" fill="#040202"/>
<path d="M233.184 192.036C230.76 192.12 228.196 192.282 225.896 191.41C227.582 190.778 229.532 190.966 231.318 190.974L233.184 192.036Z" fill="#654138"/>
<path d="M215.896 77.9819C220.368 77.6739 224.932 76.6919 229.394 76.1299C235.014 75.4199 240.668 75.1659 246.322 74.8999C247.424 74.9719 249.482 74.7639 250.228 75.5359L250.068 75.8999C238.386 76.9799 226.638 77.8479 214.978 79.0699L215.896 77.9819Z" fill="#040202"/>
<path d="M229.134 33.4233C234.772 35.4659 239.88 38.8325 245.654 40.7141C251.77 42.7061 258.716 42.8481 264.63 45.3199C250.562 42.9285 240.49 43.6753 229.134 33.4233Z" fill="#040202"/>
<path d="M229.896 27.5194C224.654 28.1084 219.318 29.126 214.036 29.0958L214.188 28.7456C220.526 26.9678 226.59 25.8004 233.182 26.473L229.896 27.5194Z" fill="#040202"/>
<path d="M216.98 41.7886L216.99 42.884C210.406 44.4654 205.098 47.6434 198.862 50.026L198.93 49.6632L199.35 49.9954L199.352 49.2922C205.118 45.051 210.044 43.3188 216.98 41.7886Z" fill="#281715"/>
<path d="M233.182 26.473C235.888 26.1892 238.71 26.2396 241.356 26.9332C237.604 27.6548 233.704 27.502 229.896 27.5194L233.182 26.473Z" fill="#E2A48F"/>
<path d="M246.322 74.8999C250.314 74.3979 254.486 74.2778 258.474 74.8798C255.944 75.6018 252.692 75.9679 250.068 75.8999L250.228 75.5359C249.482 74.7639 247.424 74.9719 246.322 74.8999Z" fill="#654138"/>
<path d="M216.98 41.7886C218.522 41.524 220.718 40.854 222.166 41.454C220.808 42.4828 218.664 42.6414 216.99 42.884L216.98 41.7886Z" fill="#654138"/>
<path d="M214.978 79.0699C213.682 79.3439 212.9 79.5299 211.58 79.2159C212.78 78.1999 214.392 78.1939 215.896 77.9819L214.978 79.0699Z" fill="#845349"/>
<path d="M317.304 3.07339C324.952 2.68539 343.366 2.10359 350.064 4.83099C354.868 6.78699 358.844 10.4348 362.732 13.7572C387.85 35.2128 390.956 47.3588 393.496 79.516C389.098 79.424 384.698 79.622 380.408 80.662C381.844 76.88 382.846 72.946 383.396 68.938C384.578 60.908 383.936 50.9022 378.966 44.2286C382.398 57.3034 381.934 68.074 378.152 81.006C365.424 83.818 353.74 90.162 341.396 94.212C324.46 99.77 306.514 101.922 288.864 103.992C288.934 85.72 289.588 67.77 282.498 50.5798C287.392 39.6806 290.418 27.4464 296.892 17.3392C301.936 9.4632 308.07 5.10879 317.304 3.07339Z" fill="#F0BEA9"/>
<path d="M327.326 9.93213C331.534 10.6777 336.74 16.1295 340.698 18.2381C346.736 21.4545 353.814 22.5873 359.832 25.8357C358.046 25.6575 356.296 25.3517 354.54 24.9809C346.514 23.2861 331.94 16.9563 327.326 9.93213Z" fill="#040202"/>
<path d="M321.772 51.5594C319.718 51.5298 317.676 51.3804 315.628 51.2442L315.866 50.9696C324.8 49.8278 333.836 49.7196 342.794 50.647C344.956 50.8756 347.194 50.9402 349.216 51.7886C341.124 52.2722 329.61 52.9306 321.772 51.5594Z" fill="#040202"/>
<path d="M342.794 50.647C344.956 50.8756 347.194 50.9402 349.216 51.7886C341.124 52.2722 329.61 52.9306 321.772 51.5594C328.632 50.968 335.654 52.0866 342.538 51.2458L342.794 50.647Z" fill="#654138"/>
<path d="M320.574 19.1979C323.474 18.8465 326.476 19.0538 329.392 19.098C323.674 20.2918 317.756 20.775 311.992 21.8712C308.674 22.516 305.368 23.1092 302.024 23.5908C308.158 21.2924 314.056 19.9069 320.574 19.1979Z" fill="#281715"/>
<path d="M253.706 108.624C264.782 108.328 275.856 107.134 286.94 106.742C295.642 106.432 304.238 106.85 312.93 107.212C317.68 107.572 319.966 108.758 323.128 112.392C327.142 117.004 331.274 125.504 330.894 131.75C330.856 132.372 330.716 132.952 330.572 133.556C330.042 134.802 329.248 135.836 328.064 136.52C318.34 142.138 286.538 141.742 276.184 138.796C267.844 131.044 259.778 118.306 253.706 108.624Z" fill="#F0BEA9"/>
<path d="M312.93 107.212C317.68 107.572 319.966 108.758 323.128 112.392C327.142 117.004 331.274 125.504 330.894 131.75C330.856 132.372 330.716 132.952 330.572 133.556C330.444 133.476 330.32 133.394 330.192 133.314C329.814 133.08 329.212 132.74 328.842 132.434C325.108 129.34 312.398 112.228 311.856 107.858L312.93 107.212Z" fill="#FADED2"/>
<path d="M271.756 239.158C272.388 239.15 273.114 239.34 273.742 239.444C276.414 241.774 275.854 247.598 276.848 250.916C276.892 251.064 276.94 251.21 276.986 251.356C273.036 255.54 268.276 259.428 263.218 262.186C254.748 266.804 245.836 266.832 236.758 264.144L232.53 261.728C231.028 256.924 227.546 248.562 229.99 243.786C236.018 241.296 244.858 242.246 251.382 241.772C258.18 241.276 265.07 240.486 271.756 239.158Z" fill="#ECB7A2"/>
<path d="M302.948 202.54C310.178 202.532 332.816 201.222 338.308 203.836C341.02 207.256 341.366 212.272 342.146 216.466C338.764 217.048 335.302 217.378 331.894 217.812C326.106 219.046 320.412 220.688 314.854 222.722C312.828 223.446 307.66 225.922 305.724 225.726C305.422 225.696 305.15 225.518 304.862 225.414C303.982 224.45 303.434 223.63 303.116 222.342C301.892 217.402 300.212 206.888 302.948 202.54Z" fill="#ECB7A2"/>
<path d="M141.77 275.9C142.122 275.982 142.392 276.016 142.706 276.22C144.91 277.658 146.146 283.034 146.964 285.418C145.508 290.006 143.53 293.832 139.58 296.774C134.146 300.822 127.81 301.324 121.344 300.352C120.462 300.178 119.466 300.018 118.658 299.602C117.248 298.876 116.692 297.458 116.184 296.06C115.548 294.314 114.81 292.664 114.036 290.974C123.894 286.646 132.88 282.034 141.77 275.9Z" fill="#ECB7A2"/>
<path d="M296.354 189.65C311.666 197.752 329.62 199.032 346.354 195.436C348.716 200.664 351.026 205.7 354.058 210.59C351.14 213.76 348.818 215.194 344.892 216.76C343.946 212.448 343.06 207.922 341.304 203.862C340.692 203.238 340.086 202.594 339.342 202.122C333.99 198.726 311.972 199.002 305.528 200.476C303.624 200.912 302.138 201.484 301.14 203.266C297.272 210.164 300.196 218.664 302.308 225.602C299.634 221.884 297.346 217.986 295.036 214.038C297.5 206.6 296.54 197.404 296.354 189.65Z" fill="#A87267"/>
<path d="M204.66 265.846C205.792 266.24 205.352 265.928 206.146 266.866C207.274 268.2 207.96 269.428 207.686 271.228C207.086 275.172 201.89 279.18 198.632 281.196C191.026 285.898 182.182 286.636 173.604 284.616C172.962 284.402 172.242 284.17 171.646 283.86C169.304 282.638 168.636 278.78 167.902 276.432C172.492 275.202 177.232 274.868 181.918 274.16C190.488 272.868 197.1 269.882 204.66 265.846Z" fill="#ECB7A2"/>
<path d="M285.356 639.006C285.814 626.426 286.792 603.7 290.804 591.96C292.114 588.126 293.932 584.872 296.766 581.926C296.932 582.158 297.09 582.396 297.262 582.622C299.776 585.934 306 588.444 309.514 590.936C311.534 592.368 313.388 594.076 315.182 595.776C324.436 604.544 333.222 616.452 337.074 628.728C338.81 634.256 339.81 640.224 341.022 645.89C341.73 649.194 341.166 652.506 342.154 655.808C342.924 658.384 342.752 661.136 343.028 663.784C343.186 665.284 343.852 666.656 344.072 668.136C344.556 671.422 344.168 674.496 345.174 677.752C346.152 680.912 345.99 684.484 346.316 687.768C346.524 689.844 347.382 691.7 347.704 693.746C348.362 697.938 347.922 702.048 349.156 706.184C350.912 712.058 350.08 718.504 351.684 724.508C353.228 730.29 352.038 738.744 354.876 743.872C329.908 750.292 303.658 753.294 278.106 756.358C279.11 746.382 279.29 736.324 279.882 726.316C280.308 719.108 282.326 703.264 280.95 696.766C283.03 682.992 281.746 668.498 282.99 654.606C284.662 652.522 285.144 642.104 285.356 639.006Z" fill="#F0BEA9"/>
<path d="M407.93 84.652C417.038 88.332 424.42 94.22 428.382 103.444C428.936 104.756 429.456 106.082 429.936 107.422C428.694 114.636 427.77 121.918 425.394 128.872C418.036 123.272 424.354 102.896 416.056 95.7479C415.082 94.9099 413.938 94.3899 412.642 94.5059C412.374 94.5299 412.106 94.5719 411.84 94.6039L411.22 93.3699L410.254 93.6059C408.858 92.3759 407.472 89.9939 406.296 88.4679C406.622 87.8019 406.766 87.2219 406.886 86.4959C407.072 85.3619 407.186 85.44 407.93 84.652Z" fill="#E2A48F"/>
<path d="M242.01 269.558C242.42 269.614 243.022 269.782 243.418 269.67C239.894 275.158 235.778 280.25 232.482 285.89C220.738 305.982 213.968 330.718 213.156 353.96C212.95 359.89 213.642 365.782 213.558 371.69C206.706 345.2 217.656 308.508 231.174 285.408C233.944 280.672 237.004 275.846 240.47 271.586C240.958 270.892 241.49 270.228 242.01 269.558Z" fill="#040202"/>
<path d="M189.874 292.604C194.34 290.416 197.648 285.212 202.386 283.548L203.266 284.182C189.386 295.172 175.87 306.616 162.738 318.492C151.056 329.148 139.518 340.984 126.814 350.388C126.986 349.078 127.472 348.416 128.4 347.468C132.026 343.76 136.72 341.088 140.5 337.526C156.534 322.408 171.868 306.492 189.368 292.99L189.874 292.604Z" fill="#281715"/>
<path d="M285.356 639.006C284.972 638.502 284.754 638.344 284.6 637.77C282.962 631.73 287.82 594.326 290.73 588.338C291.692 586.358 294.548 580.958 296.472 580.256L297.054 580.994L296.766 581.926C293.932 584.872 292.114 588.126 290.804 591.96C286.792 603.7 285.814 626.426 285.356 639.006Z" fill="#A87267"/>
<path d="M402.682 86.21L403.49 85.936C404.574 86.722 405.392 87.4779 406.296 88.4679C407.472 89.9939 408.858 92.3759 410.254 93.6059C414.618 103.208 414.036 112.44 412.98 122.652C411.038 107.96 413.294 98.28 402.682 86.21Z" fill="#040202"/>
<path d="M394.166 227.01C404.218 226.836 414.368 226.058 424.406 226.682L424.132 227.038C413.8 228.046 400.884 231.194 390.728 229.14C392.512 229.046 394.14 229.1 395.774 228.268L395.704 227.624L394.166 227.01Z" fill="#522D27"/>
<path d="M280.95 696.766C279.106 687.274 280.566 665.046 281.9 654.89L282.99 654.606C281.746 668.498 283.03 682.992 280.95 696.766Z" fill="#845349"/>
<path d="M429.936 107.422L430.372 109.754L430.846 109.992C430.464 114.61 428.69 128.262 425.136 131.36C425.006 131.472 424.85 131.552 424.706 131.646C424.774 130.596 425.008 129.848 425.394 128.872C427.77 121.918 428.694 114.636 429.936 107.422Z" fill="#040202"/>
<path d="M180.522 293.248C182.218 292.812 183.402 292.548 185.142 292.85C179.218 295.702 173.222 298.464 167.378 301.474L166.984 300.462C171.46 298.002 175.908 295.44 180.522 293.248Z" fill="#040202"/>
<path d="M305.834 105.01L305.348 104.844C307.228 103.866 309.968 103.688 312.062 103.296C312.954 103.694 314.218 104.002 314.702 104.882C311.726 105.144 308.82 104.622 305.834 105.01Z" fill="#F0BEA9"/>
<path d="M157.708 306.16C160.658 304.122 163.738 301.99 166.984 300.462L167.378 301.474C164.754 303.508 160.75 304.858 157.708 306.16Z" fill="#845349"/>
<path d="M86.5059 503.754C92.9919 504.566 99.4078 506.098 105.916 506.892C126.424 509.394 146.714 506.166 165.816 498.514C176.88 494.082 187.248 488.878 198.964 486.256C223.916 480.672 250.852 481.948 276.268 482.432L274.3 483.506C264.87 483.834 255.438 484.112 246.006 484.336C228.682 484.654 210.862 484.58 194.074 489.506C186.074 491.852 178.642 495.596 171.008 498.888C144.378 510.366 114.122 514.776 86.5059 503.754Z" fill="#040202"/>
<path d="M203.712 516.688C204.74 516.558 205.824 516.582 206.862 516.54L206.68 516.8L207.058 516.762L206.38 516.576L205.99 517.146C200.092 518.63 193.646 519.814 188.026 522.136C182.27 524.512 176.872 527.828 170.992 530.146C153.432 537.07 134.12 537.952 115.608 535.004C114.084 534.674 112.774 534.286 111.346 533.656C112.858 533.194 131.39 534.722 135.308 534.684C141.528 534.578 147.73 533.954 153.848 532.822C171.452 529.71 185.974 519.348 203.712 516.688Z" fill="#040202"/>
<path d="M261.778 587.896C263.788 591.466 270.59 687.258 270.23 698.456C268.392 695.206 261.33 597.484 261.778 587.896Z" fill="#281715"/>
<path d="M228.438 613.28C228.518 611.094 228.062 608.826 228.646 606.692L229.448 607.288C230.34 618.512 230.612 629.74 231.028 640.988C231.686 658.794 232.278 676.718 231.182 694.518L230.832 694.774L230.852 695.962C231.136 694.516 231.074 695.68 230.664 694.276C229.784 691.262 230.162 673.362 230.078 669.258C229.712 650.594 229.164 631.934 228.438 613.28Z" fill="#281715"/>
<path d="M59.5 379.364C60.892 380.058 62.126 381.196 63.498 381.982C67.604 384.334 73.286 386.128 76.616 389.566C82.804 395.958 72.69 417.824 71.052 425.648C69.274 433.828 68.336 442.166 68.254 450.536C67.008 449.25 66.99 445.912 66.978 444.236C66.908 434.864 69.234 424.76 72.026 415.846C73.908 409.84 76.672 403.26 76.866 396.91C76.928 394.878 76.258 392.998 75.614 391.104C70.57 386.352 64.012 385.154 59.5 379.364Z" fill="#040202"/>
<path d="M278.726 398.882C282.346 401.142 286.22 406.628 289.268 409.84C295.236 416.13 301.344 422.446 307.746 428.298C316.992 436.748 327.736 441.902 338.206 448.424C317.26 443.48 290.534 416.25 278.726 398.882Z" fill="#040202"/>
<path d="M352.52 305.912C365.778 328.022 382.894 348.856 400.722 367.416C399.728 367.486 394.13 362.392 393.002 361.4C378.77 348.864 362.26 323.312 352.064 306.972L352.52 305.912Z" fill="#040202"/>
<path d="M151.396 355.904C151.398 356.046 151.41 356.188 151.4 356.33C151.224 358.892 149.544 362.208 148.546 364.57C140.22 384.24 124.42 406.962 108.612 421.376C108.29 420.232 115.408 412.768 116.536 411.37C130.82 393.652 141.542 376.46 151.396 355.904Z" fill="#281715"/>
<path d="M385.964 267.778C389.53 270.084 397.87 281.198 401.19 284.978C410.898 296.026 421.246 306.81 430.526 318.188C422.534 315.216 391.552 276.544 385.964 267.778Z" fill="#040202"/>
<path d="M307.952 394.036C310.732 395.874 313.298 398.308 315.886 400.422C321.65 405.134 327.52 409.91 333.732 414.024C342.694 419.962 352.644 423.58 361.708 429.112L362.17 429.4C345.768 424.766 331.722 415.314 318.702 404.64C314.888 401.512 310.666 398.208 307.952 394.036Z" fill="#040202"/>
<path d="M113.116 585.402C113.252 585.516 113.406 585.612 113.528 585.742C114.708 586.998 115.46 589.694 116.028 591.324C121.494 606.978 122.77 625.006 122.76 641.534C121.36 640.102 119.116 613.414 118.418 608.938C117.174 600.976 115.17 593.186 113.116 585.402Z" fill="#040202"/>
<path d="M280.72 529.924L281.442 530.916C264.136 538.87 241.124 549.242 222.004 550.3C223.082 549.114 234.798 546.756 237.138 546.084C251.936 541.832 266.782 536.472 280.72 529.924Z" fill="#040202"/>
<path d="M259.01 546.516C259.488 546.89 259.234 546.618 259.57 547.482C253.636 552.742 229.742 557.074 221.214 558.528C220.974 558.262 220.866 557.902 220.706 557.58C225.86 554.806 232.942 553.918 238.642 552.464C245.504 550.736 252.298 548.752 259.01 546.516Z" fill="#E2A48F"/>
<path d="M370.516 291.57C377.284 300.938 384.212 310.306 391.534 319.254C396.066 324.792 400.91 330.072 405.456 335.6L404.796 336.604C391.878 323.008 380.922 308.636 370.294 293.19L370.516 291.57Z" fill="#040202"/>
<path d="M271.246 419.25C282.012 429.81 294.402 440.428 307.482 448.014C312.086 450.686 317.266 452.474 321.798 455.24L322.384 455.602C306.96 451.64 279.756 432.956 271.246 419.25Z" fill="#040202"/>
<path d="M206.552 574.302C207.192 572.334 206.982 570.46 207.368 568.44L208.626 568.76C208.384 574.592 205.34 613.75 202.964 616.366C202.222 608.666 204.128 600.642 204.922 592.994C205.566 586.776 205.822 580.506 206.552 574.302Z" fill="#040202"/>
<path d="M405.928 259.55C406.866 259.644 407.7 259.822 408.61 260.074C420.18 263.294 441.68 274.976 447.768 285.572C444.11 284.126 432.592 273.89 427.978 270.792C421.16 266.218 413.358 262.984 405.928 259.55Z" fill="#040202"/>
<path d="M352.058 459.656L352.298 459.97C342.736 468.53 323.156 475.742 310.558 477.08C310.964 476.362 315.954 474.978 316.982 474.616C329.182 470.312 340.416 465.254 352.058 459.656Z" fill="#040202"/>
<path d="M193.012 335.282L193.664 336.242L182.592 365.236C180.616 370.418 178.902 376.408 176.19 381.218C176.436 372.72 189.028 343.934 193.012 335.282Z" fill="#040202"/>
<path d="M193.83 396.284C193.776 394.262 193.818 392.688 194.402 390.74C197.138 405.826 200.73 422.618 208.274 436.128L207.368 436.53C200.554 423.768 196.66 410.4 193.83 396.284Z" fill="#040202"/>
<path d="M397.12 194.326L397.722 195.788C388.698 201.85 380.038 205.508 369.256 206.848C366.434 207.198 363.928 207.662 361.058 207.28C364.418 206.14 367.998 205.932 371.442 205.092C380.52 202.898 389.19 199.262 397.12 194.326Z" fill="#040202"/>
<path d="M269.064 504.228L272.736 505.008C258.922 507.836 245.044 510.018 231.124 512.22L230.746 511.214C237.818 509.686 244.928 508.332 252.068 507.15C257.682 506.252 263.58 505.694 269.064 504.228Z" fill="#040202"/>
<path d="M229.458 420.01C221.716 406.572 213.256 387.61 213.086 371.852L213.456 371.614C215.14 375.332 215.482 380.634 216.462 384.686C219.308 396.434 223.394 408.852 229.958 419.092L230.222 419.492L229.458 420.01Z" fill="#281715"/>
<path d="M207.106 409.422C210.37 414.114 212.782 423.81 216.16 429.736C220.726 437.75 227.2 444.13 232.302 451.696L232.53 452.04C232.37 451.956 232.206 451.886 232.054 451.792C230.25 450.666 228.604 448.568 227.146 447.018C217.176 436.428 210.488 423.548 207.106 409.422Z" fill="#040202"/>
<path d="M267.842 466.154C253.714 459.572 241.998 452.07 231.914 440.1C236.536 443.648 240.666 447.814 245.318 451.352C252.454 456.784 260.374 461.08 268.188 465.438L267.842 466.154Z" fill="#040202"/>
<path d="M57.1241 335.974C57.5561 338.106 50.7821 361.19 49.7581 364.64C48.6141 358.002 52.9661 345.802 54.5361 338.848L57.1241 335.974Z" fill="#040202"/>
<path d="M378.11 90.3218C378.81 90.5198 379.304 90.7578 379.856 91.2438C387.112 97.6418 394.164 110.956 394.954 120.594C390.006 108.792 385.82 100.532 378.11 90.3218Z" fill="#040202"/>
<path d="M423.16 254.138C424.494 254.066 425.692 254.212 427.01 254.414C432.156 255.2 440.966 256.894 444.234 261.328C444.136 261.302 444.038 261.28 443.942 261.252C441.16 260.412 424.734 256.084 423.754 255.176C423.462 254.906 423.358 254.484 423.16 254.138Z" fill="#040202"/>
<path d="M191.754 381.52C190.444 374.204 189.308 367.932 190.71 360.47C192.182 362.344 192.336 374.414 192.756 377.632C192.262 378.97 191.962 380.108 191.754 381.52Z" fill="#E2A48F"/>
<path d="M206.552 574.302C206.616 566.194 206.786 558.162 206.518 550.052C208.332 555.956 209.54 562.586 208.626 568.76L207.368 568.44C206.982 570.46 207.192 572.334 206.552 574.302Z" fill="#845349"/>
<path d="M110.15 308.998L111.02 309.172C110.412 309.766 93.3377 318.128 90.0157 320.036L89.2598 320.24C92.4638 314.998 104.486 310.966 110.15 308.998Z" fill="#281715"/>
<path d="M324.502 254.364L325 254.654C325.694 256.232 327.7 265.904 327.38 267.308L326.896 266.784C325.806 264.038 324.048 261.782 322.816 259.174C322.19 257.85 321.872 256.888 322.278 255.51L324.502 254.364Z" fill="#E2A48F"/>
<path d="M228.438 613.28C226.69 606.516 227.606 595.064 227.918 587.968C229.744 593.632 229.214 601.306 229.448 607.288L228.646 606.692C228.062 608.826 228.518 611.094 228.438 613.28Z" fill="#A87267"/>
<path d="M42.6001 321.366C44.3881 326.342 46.2381 330.614 50.1081 334.394C51.5461 335.798 53.1301 336.814 54.2121 338.558C52.2161 338.306 50.3841 337.048 48.9101 335.722C45.0381 332.238 42.7861 326.496 42.6001 321.366Z" fill="#040202"/>
<path d="M404.686 188.32C408.098 185.492 411.55 182.556 415.388 180.316C412.104 184.338 409.612 187.86 404.766 190.058L404.686 188.32Z" fill="#A87267"/>
<path d="M192.756 377.632C193.216 381.486 194.86 387.004 194.402 390.74C193.818 392.688 193.776 394.262 193.83 396.284C192.86 391.43 192.702 386.408 191.754 381.52C191.962 380.108 192.262 378.97 192.756 377.632Z" fill="#654138"/>
<path d="M69.8102 394.022C70.4422 394.168 70.0382 394.034 70.9282 394.64C67.1002 397.564 62.6662 399.998 58.5782 402.57L57.7082 403.106L56.8882 402.776L56.8682 401.792C61.2942 399.234 65.6122 396.996 69.8102 394.022Z" fill="#E2A48F"/>
<path d="M370.294 293.19C367.054 288.97 364.306 283.998 361.548 279.446L361.872 279.064C364.484 283.288 367.78 287.348 370.516 291.57L370.294 293.19Z" fill="#654138"/>
<path d="M405.456 335.6C408.066 338.318 411.1 341.046 413.074 344.262L412.976 344.82L412.582 344.65L413.028 344.174L412.172 344.374L412.78 343.728L412.568 343.394L411.6 343.92C409.182 341.594 406.986 339.144 404.796 336.604L405.456 335.6Z" fill="#654138"/>
<path d="M404.686 188.32L404.766 190.058C402.48 192.086 400.218 194.02 397.722 195.788L397.12 194.326C399.784 192.466 402.228 190.444 404.686 188.32Z" fill="#522D27"/>
<path d="M201.026 561.036L201.474 561.46L201.012 562.432C198.166 564.42 194.59 565.184 191.23 565.842L191.016 565.174C194.314 563.544 197.746 562.926 201.026 561.036Z" fill="#522D27"/>
<path d="M16.4678 229.912C19.1098 230.862 21.8238 235.014 23.6518 237.146C23.1098 237.074 22.9838 237.092 22.4198 236.816C19.9938 235.622 17.4018 232.398 16.4678 229.912Z" fill="#654138"/>
<path d="M230.222 419.492C231.83 421.864 233.582 424.146 234.508 426.878L234.31 427.192L234.462 427.136L234.304 426.082L233.224 426.286C231.892 424.332 230.348 422.2 229.458 420.01L230.222 419.492Z" fill="#A87267"/>
<path d="M269.064 504.228C272 503.83 275.23 503.222 278.106 504.098L277.872 503.924L277.488 504.758L277.416 503.78L276.878 504.86C275.528 504.95 274.076 505.18 272.736 505.008L269.064 504.228Z" fill="#A87267"/>
<path d="M276.268 482.432C278.154 482.456 281.622 481.952 283.068 483.116L283.622 483.054C280.564 483.788 277.42 483.566 274.3 483.506L276.268 482.432Z" fill="#654138"/>
<path d="M280.72 529.924C283.404 528.882 286.91 527.042 289.742 526.766C287.472 528.476 284.172 530.086 281.442 530.916L280.72 529.924Z" fill="#654138"/>
<path d="M231.124 512.22C228.392 512.694 225.672 513.074 222.92 513.398L222.408 512.748C221.816 512.958 222.112 512.8 221.548 513.278L222.554 513.404L222.886 512.6C225.454 511.968 228.134 511.644 230.746 511.214L231.124 512.22Z" fill="#654138"/>
<path d="M352.064 306.972C350.748 305.292 348.58 302.57 348.612 300.388C350.37 301.77 351.394 304.008 352.52 305.912L352.064 306.972Z" fill="#A87267"/>
<path d="M208.274 436.128C209.466 438.226 210.64 440.336 211.796 442.456L211.046 443.046C209.772 440.902 208.546 438.73 207.368 436.53L208.274 436.128Z" fill="#654138"/>
<path d="M193.012 335.282C193.538 333.68 193.962 331.442 195.236 330.288C195.732 331.49 195.186 332.888 194.686 334.05C194.368 334.79 194.014 335.518 193.664 336.242L193.012 335.282Z" fill="#845349"/>
<path d="M211.796 442.456C213.442 444.254 214.568 446.91 215.748 449.05C213.644 447.268 212.412 445.412 211.046 443.046L211.796 442.456Z" fill="#A87267"/>
<path d="M268.188 465.438C269.618 466.094 270.88 466.444 271.834 467.74C270.326 467.696 269.13 466.86 267.842 466.154L268.188 465.438Z" fill="#845349"/>
<defs>
<linearGradient id="paint0_linear_143_202" x1="228.949" y1="737.934" x2="292.35" y2="9.74205" gradientUnits="userSpaceOnUse">
<stop stop-color="#E5A48E"/>
<stop offset="1" stop-color="#F7CBB7"/>
</linearGradient>
</defs>
</svg>
