<svg width="522" height="886" viewBox="0 0 522 886" fill="none" xmlns="http://www.w3.org/2000/svg">
<path d="M369.834 0.999839C380.719 -1.22216 399.231 2.29943 409.225 7.18919C417.656 9.66814 418.184 16.574 422.529 21.1573C430.307 29.3643 436.387 32.4976 440.005 44.8638C447.25 69.6311 436.654 97.8801 426.156 120.319C421.193 130.928 427.941 150.408 436.503 157.651C440.023 160.442 450.534 165.762 454.902 168.325C478.919 181.835 498.083 196.523 506.729 223.707C514.166 247.088 519.032 269.478 518.245 294.048C517.833 306.911 520.221 322.52 519.844 335.722C519.755 346.436 522.268 357.304 521.815 367.966C519.981 411.172 505.305 450.171 494.537 491.354C492.607 498.737 496.424 509.492 496.731 517.195C497.319 531.942 491.864 548.243 486.996 562.074C483.11 572.541 471.128 579.815 460.917 583.389C459.587 586.164 458.984 593.836 458.336 597.269C456.327 607.886 455.135 623.926 452.266 633.791C455.977 642.622 457.165 643.638 452.965 652.524C458.535 665.163 462.733 676.791 464.854 690.643C467.364 711.323 466.755 733.155 466.416 754.07C466.02 778.453 467.177 802.344 467.413 826.61C465.511 827.657 462.829 828.779 460.791 829.691C468.942 869.19 465.419 866.411 428.883 873.048C419.909 874.674 408.824 880.793 399.152 882.198C389.752 883.56 381.31 882.087 372.259 885.353C369.598 886.388 365.998 884.429 363.681 882.784C356.361 882.636 341.989 880.171 336.17 875.167C330.654 870.835 335.286 864.02 340.531 862.449C358.398 857.075 373.34 845.928 387.946 834.719C391.172 832.242 396.021 829.106 398.82 826.068L399.148 825.704C399.498 820.91 400.692 814.569 401.228 809.498C402.318 798.603 402.777 787.653 402.604 776.709C401.831 742.189 396.096 705.987 389.761 672.052C388.335 664.405 383.166 656.018 382.004 647.434C380.865 639.023 380.079 630.889 379.379 622.428C372.664 592.086 369.684 563.31 367.375 532.318C352.217 536.267 334.711 542.05 319.605 546.65C306.203 550.712 292.735 554.555 279.207 558.177C262.573 562.639 252.422 563.476 238.344 574.381C236.193 574.437 233.686 574.343 231.505 574.317C223.157 580.429 215.022 588.944 206.621 595.623C194.886 604.953 181.226 612.809 168.323 620.401C158.847 625.978 95.2603 660.972 86.5089 658.058C84.036 657.238 82.318 652.635 81.2058 650.441C69.8669 656.949 55.9356 670.813 43.1474 671.682C38.5856 671.966 34.1057 670.37 30.7541 667.264C20.8198 658.23 20.2056 634.093 16.3698 621.393C11.8826 606.536 0.703129 593.047 0.356141 577.604C0.114401 566.841 -0.218231 550.576 7.57468 542.248C7.3285 537.228 7.89345 532.028 14.2425 531.261C26.1165 529.827 24.7547 543.225 27.3225 550.806C32.9127 567.313 46.4503 586.787 60.4179 597.065L62.9499 593.171C66.5887 591.439 73.0792 589.159 77.0162 587.6C83.9596 584.877 90.7718 581.828 97.4306 578.467C112.609 570.847 126.016 561.716 140.53 552.985C153.038 545.461 165.68 538.159 178.17 530.608C184.657 527.504 191.609 517.141 197.313 514.33C213.029 506.586 226.222 495.679 240.926 486.55C266.173 470.875 293.336 459.504 320.776 448.418C323.105 444.59 323.586 445.044 328.027 444.239C329.157 441.31 331.349 440.667 331.571 440.05C335.479 429.077 339.253 421.033 335.286 409.409C331.986 399.738 333.252 385.556 331.93 374.972L324.413 317.435C321.073 290.99 316.514 274.876 324.877 247.966C332.481 223.495 340.569 199.888 364.273 186.542C364.157 186.221 364.038 185.9 363.915 185.58C361.465 179.168 357.358 175.218 351.136 172.461C340.04 174.804 316.76 179.127 315.418 162.644C314.587 152.447 315.748 153.625 310.554 144.806C310.978 142.875 311.411 141.656 310.828 139.755C309.139 134.248 309.174 134.527 310.508 129.16C281.494 124.715 302.349 110.645 306.254 96.1769C307.165 92.8031 303.461 90.8861 301.351 88.184L301.055 87.8013C300.187 70.5986 303.11 56.215 310.517 40.7758C309.704 40.2317 308.908 39.6623 308.13 39.0689C303.527 35.4967 300.936 28.4696 305.559 24.4107C321.193 10.6835 349.991 2.98262 369.834 0.999839Z" fill="#1B0E09"/>
<path d="M445.873 414.66L463.226 409.658C461.742 435.995 460.319 462.255 455.98 488.355C453.876 501.011 445.356 505.44 440.927 515.589C437.275 523.959 438.169 543.761 436.924 553.474C436.657 555.561 436.007 561.794 436.226 563.423C438.999 566.411 442.673 564.565 445.583 562.687C445.168 567.431 438.345 595.476 452.284 584.71C451.832 585.062 458.375 583.503 458.429 583.49C458.637 586.041 457.288 593.159 456.829 596.104C455.53 604.571 454.173 613.031 452.758 621.486C452.107 625.343 450.894 630.969 450.476 634.593C452.173 638.469 453.202 640.847 454.41 644.896C453.414 647.089 452.038 649.887 451.174 652.068L451.297 652.543C452.329 656.425 454.975 662.205 456.46 666.198C459.292 673.975 461.445 681.979 462.897 690.126C465.986 707.953 464.719 731.929 464.634 750.539C464.422 775.514 464.778 800.495 465.702 825.458C446.484 835.065 422.232 831.509 402.522 824.934L400.929 824.398C402.483 818.76 402.827 812.185 403.339 806.337C405.226 784.788 404.194 764.73 402.195 743.218C400.687 728.201 398.764 713.234 396.43 698.327C395.144 689.99 393.766 681.326 392.085 673.057C391.161 668.515 388.502 662.686 386.916 658.218C385.267 653.43 384.05 648.501 383.279 643.497C382.65 639.418 382.154 634.685 381.983 630.563C381.513 619.261 378.66 608.256 376.621 597.158C374.934 587.631 373.55 578.052 372.471 568.435C370.619 552.204 370.78 527.424 364.944 511.679C364.032 509.218 359.292 505.147 357.539 502.905C352.34 497.202 347.653 490.592 347.033 482.666C346.72 478.67 347.178 474.579 347.059 470.591C346.721 459.218 349.543 448.121 348.959 436.803C348.684 436.661 348.409 436.519 348.133 436.377C347.303 438.436 347.678 438.276 348.24 440.711C348.832 443.279 347.861 447.578 347.536 450.387C346.263 461.409 344.498 475.117 346.898 485.952C347.8 490.022 350.234 494.507 352.199 498.137C340.703 486.932 339.881 471.712 331.777 461.993C337.14 472.201 339.852 481.573 345.97 491.259C350.318 498.144 355.332 502.091 359.79 508.624C347.109 499.284 333.708 490.855 320.831 481.787C318.692 480.28 315.25 476.994 313.371 476.1L313.109 476.597L313.399 476.795C316.083 478.646 318.626 480.837 321.224 482.821C333.07 491.873 346.094 499.41 358.055 508.363C360.113 509.904 361.928 511.249 364.286 512.303C365.771 518.097 366.41 524.152 367.234 530.096C343.455 537.849 315.695 546.16 291.603 552.916C284.198 554.999 276.779 557.031 269.346 559.016C262.233 560.888 255.01 562.583 248.224 565.501C244.895 566.932 240.876 570.347 237.885 572.634L230.304 573.086L229.859 573.389C226.447 575.741 222.71 579.331 219.628 582.148C196.294 603.468 167.841 619.36 139.903 633.915C125.103 641.63 104.591 652.315 88.3636 656.579C86.7226 648.913 71.594 599.179 68.0126 596.973C67.3243 596.548 66.8923 596.308 66.087 596.351C67.1567 597.817 68.5789 599.044 69.9142 600.282C67.3687 599.789 65.04 599.672 63.4151 597.676C63.3713 596.591 63.3288 596.388 64.0399 595.55C65.7918 593.491 88.3654 585.105 93.3919 582.75C101.874 578.774 109.959 574.198 117.939 569.31C127.256 563.514 136.615 557.786 146.014 552.125C157.871 545.104 169.915 538.092 181.461 530.558C189.033 525.617 193.11 518.762 201.436 514.527C214.566 507.847 225.962 498.281 238.389 490.463C259.927 477.184 282.577 465.8 306.086 456.442C310.484 454.675 317.537 451.622 321.919 450.264L324.076 446.891C332.113 446.013 326.913 446.3 331.284 442.859C332.903 442.669 334.414 442.74 335.483 441.662C336.481 439.045 334.961 436.41 335.351 433.989C335.659 432.078 337.678 428.404 338.622 426.464L338.608 425.063C338.366 422.298 338.768 416.182 338.898 413.13C341.873 414.226 343.976 415.037 347.101 415.731L348.041 416.027C358.352 418.184 374.527 420.909 384.899 420.782L385.911 420.734C387.753 420.771 388.289 420.758 390.117 421.225C391.735 423.81 393.495 430.903 394.365 434.025C394.807 435.612 394.717 437.542 395.473 438.96C396.374 435.292 392.512 424.634 391.28 420.977C409.7 421.11 423.298 419.449 441.361 415.643L441.971 415.683L443.582 414.757C444.116 414.812 445.283 414.697 445.873 414.66Z" fill="#5A90B0"/>
<path d="M384.899 420.782L385.911 420.734C386.227 425.397 388.764 432.071 389.096 436.951C389.128 437.426 388.163 438.865 387.894 439.844C391.95 442.534 394.833 439.782 396.687 440.819C394.621 442.72 390.561 442.236 388.199 441.199C387.241 439.43 387.837 439.388 387.841 436.995C387.032 436.522 385.642 436.201 384.715 436.246C374.489 436.741 365.013 435.93 354.83 435.085L354.591 434.767C355.348 434.536 385.03 435.326 388.207 435.363C386.813 430.574 385.708 425.704 384.899 420.782Z" fill="#455054"/>
<path d="M443.582 414.757C446.253 417.089 445.911 423.209 447.108 427.346C446.33 428.485 446.779 428.136 445.227 428.51L444.157 428.119C443.389 426.376 443.169 419.727 441.971 415.683L443.582 414.757Z" fill="#5A90B0"/>
<path d="M443.582 414.757C444.116 414.812 445.283 414.697 445.873 414.66C446.398 417.873 447.79 425.331 447.779 428.238C446.212 428.908 445.625 428.904 443.966 429.11C443.115 427.113 441.582 418.039 441.361 415.643L441.971 415.683C443.169 419.727 443.389 426.376 444.157 428.119L445.227 428.51C446.779 428.136 446.33 428.485 447.108 427.346C445.911 423.209 446.253 417.089 443.582 414.757Z" fill="#4D6067"/>
<path d="M347.101 415.731L348.041 416.027C348.292 421.236 347.984 424.308 347.168 429.505C346.873 427.983 347.088 417.827 347.101 415.731Z" fill="#455054"/>
<path d="M338.608 425.063C340.884 426.069 341.897 426.428 343.8 428.001L343.867 428.658C341.718 427.811 339.956 426.09 338.622 426.464L338.608 425.063Z" fill="#4D6067"/>
<path d="M452.031 806.94C452.323 795.393 452.975 783.746 452.987 772.211C453.035 759.184 451.693 746.04 451.223 733.063C450.294 707.416 446.198 682.244 440.07 657.368C440.003 657.195 439.937 657.023 439.871 656.85C441.939 658.329 443.885 670.61 444.472 673.475C451.062 706.923 454.282 740.95 454.083 775.045C454.118 784.942 452.817 795.806 453.042 805.492L452.031 806.94Z" fill="#33383C"/>
<path d="M224.233 549.448L224.463 549.935C219.481 553.45 211.964 558.055 207.562 561.833C188.997 577.768 169.751 588.741 148.361 600.27C128.583 610.93 112.16 619.705 90.7343 626.958L90.3868 626.792C90.7097 626.342 118.903 614.683 122.946 612.656C142.351 602.895 166.149 590.651 183.926 578.571C197.652 569.243 209.876 557.886 224.233 549.448Z" fill="#4D6067"/>
<path d="M334.145 510.497L334.227 510.569C331.422 511.416 328.959 512.561 325.98 513.48C310.19 518.23 294.44 523.115 278.734 528.135C264.844 532.624 250.406 536.719 237.321 543.018L236.968 542.579C244.641 538.143 255.824 534.755 264.367 531.904C277.699 527.474 291.076 523.182 304.496 519.029C311.735 516.794 327.207 511.664 334.145 510.497Z" fill="#455054"/>
<path d="M446.119 432.36C448.377 435.009 447.545 446.666 447.882 450.633C447.983 454.134 449.535 457.55 449.811 461.02C450.644 471.493 449.579 484.379 447.25 494.502C446.515 492.979 449.844 469.201 449.113 464.111C447.664 454.026 446.325 442.454 446.119 432.36Z" fill="#455054"/>
<path d="M441.1 586.664C441.661 588.229 440.783 593.8 440.518 595.722C438.571 609.815 439.281 624.179 438.465 638.29C436.495 632.516 438.946 592.863 441.1 586.664Z" fill="#455054"/>
<path d="M357.635 443.863C358.02 444.872 357.974 447.891 357.854 449.185C356.871 459.789 358.364 472.481 354.781 482.513C353.506 486.08 350.802 486.355 347.806 484.825L348.148 484.114C348.619 484.332 349.12 484.56 349.633 484.653C350.778 484.858 352.119 484.545 353.063 483.875C357.008 481.076 356.436 449.99 357.635 443.863Z" fill="#33383C"/>
<path d="M437.572 429.963L438.225 429.911C433.289 432.599 406.361 435.398 399.293 436.383C398.428 436.299 398.734 436.398 398.014 435.896C398.004 435.903 435.307 430.23 437.572 429.963Z" fill="#455054"/>
<path d="M413.349 787.69C413.713 787.9 413.912 788.029 414.208 788.349C421.389 796.114 430.598 801.715 439.198 807.742C441.272 809.196 442.314 809.923 443.765 811.944C442.681 811.5 438.337 808.364 437.176 807.538C430.354 802.695 417.274 795.048 413.349 787.69Z" fill="#455054"/>
<path d="M367.112 468.923C368.584 469.04 378.287 472.751 380.737 473.558C385.012 474.966 397.47 477.347 400.428 478.984C389.698 477.749 376.67 474.17 367.112 468.923Z" fill="#33383C"/>
<path d="M330.696 445.254C332.613 445.856 333.713 447.683 335.047 449.107C340.522 454.955 343.735 461.877 345.501 469.627C343.531 467.537 341.634 459.694 339.95 457.127C337.054 452.712 333.428 449.857 330.696 445.254Z" fill="#1B0E09"/>
<path d="M368.271 505.815C369.275 506.055 372.751 507.853 373.884 508.425C381.033 512.037 389.403 514.655 396.341 518.516C389.994 517.147 373.014 510.036 368.271 505.815Z" fill="#455054"/>
<path d="M398.266 674.117C400.021 674.591 414.152 688.092 416.652 690.391C412.571 689.294 401.45 677.401 398.266 674.117Z" fill="#455054"/>
<path d="M404.739 449.13C405.186 449.225 409.99 451.249 410.899 451.588C416.683 453.751 421.086 454.4 427.168 454.953C420.409 455.874 409.82 453.992 404.739 449.13Z" fill="#33383C"/>
<path d="M441.396 647.829L441.68 648.045C440.639 650.053 429.356 655.433 426.694 656.555L426.437 656.228C428.365 654.848 438.377 649.567 441.396 647.829Z" fill="#455054"/>
<path d="M354.19 417.99C354.864 419.74 355.395 428.776 355.289 430.947C354.144 428.415 353.124 420.538 354.19 417.99Z" fill="#455054"/>
<path d="M397.398 438.156L397.675 438.092C400.208 439.209 403.106 443.436 404.202 445.991C403.473 445.525 397.877 439.106 397.398 438.156Z" fill="#4D6067"/>
<path d="M200.785 529.902C204.211 530.498 207.683 533.127 210.586 535.088C207.633 534.565 203.375 531.647 200.785 529.902Z" fill="#455054"/>
<path d="M452.082 816.369C452.813 818.692 452.648 822.248 452.204 824.639C450.909 822.913 451.656 818.415 452.082 816.369Z" fill="#5A8091"/>
<path d="M452.031 806.94L453.042 805.492C452.922 807.421 452.916 809.978 452.162 811.667L452.261 811.648L451.331 810.866C451.464 809.719 451.57 807.926 452.031 806.94Z" fill="#4D6067"/>
<path d="M438.433 641.766L438.815 642.141C439.581 644.237 439.265 645.888 438.412 647.885L438.197 647.669C437.833 646.443 438.289 643.232 438.433 641.766Z" fill="#4D6067"/>
<path d="M435.709 159.697C454.771 168.968 485.007 187.137 495.878 205.006C509.668 227.672 514.631 261.129 517.397 287.106C500.19 293.993 465.709 302.451 447.78 303.735C442.934 288.993 438.277 274.628 430.2 261.297C431.543 265.961 434.673 273.253 436.577 277.807C434.056 276.08 417.572 266.127 415.798 265.785C417.174 267.343 434.172 277.479 436.896 279.119C440.336 286.358 443.218 296.947 446.17 304.654C446.436 304.8 448.544 306.203 448.576 306.348C452.385 323.711 455.104 341.84 464.679 357.139C464.195 366.694 461.537 376.273 461.556 385.903C461.562 389.418 464.497 390.992 464.507 394.191C464.079 398.533 463.771 402.885 463.583 407.244C459.697 408.652 455.765 409.925 451.791 411.063C439.725 414.482 427.387 416.861 414.914 418.172C397.621 419.867 353.881 419.126 338.526 410.671C332.953 401.991 335.627 386.514 334.117 375.62L326.334 316.486C325.096 307.464 322.229 294.897 321.939 285.823C321.123 260.296 331.786 221.745 348.764 202.043C350.789 199.693 361.719 189.003 364.389 188.877C365.297 191.222 361.171 198.17 360.227 200.893C358.295 206.464 361.278 207 366.127 208.513C380.65 205.46 420.57 169.349 435.709 159.697Z" fill="#F3CFB2"/>
<path d="M470.001 184.908C471.892 184.641 473.636 184.779 475.492 185.144L475.645 185.523C460.926 186.414 442.907 192.216 434.89 205.689C427.613 217.922 423.947 233.712 427.306 247.746C427.884 249.448 428.005 250.22 428.283 251.942L428.004 251.982C420.507 236.931 427.315 214.268 437.052 201.295C443.442 192.784 459.364 186.047 470.001 184.908Z" fill="#986C42"/>
<path d="M432.792 396.03L433.216 396.138C429.435 399.244 411.718 402.147 406.416 402.726L405.942 402.694L406.058 402.471C415.181 399.909 422.798 399.137 432.792 396.03Z" fill="#986C42"/>
<path d="M422.308 285.06L422.933 285.173C422.189 286.402 406.492 291.442 403.744 292.443C403.381 292.458 403.15 292.333 402.769 292.216C404.213 291.02 419.337 286.072 422.308 285.06Z" fill="#BF834A"/>
<path d="M362.14 384.819C364.945 385.358 376.208 389.68 378.992 390.865C374.252 390.546 366.136 387.407 362.14 384.819Z" fill="#BF834A"/>
<path d="M374.785 214.835L375.189 215.117C371.149 218.325 365.858 218.129 361.147 217.126L360.855 216.665C361.411 216.005 362.049 216.418 363.388 216.75C367.484 217.766 370.905 216.219 374.785 214.835Z" fill="#BF834A"/>
<path d="M351.115 300.623C352.289 301.063 358.832 307.022 360.346 308.314C357.05 307.704 353.097 303.13 351.115 300.623Z" fill="#BF834A"/>
<path d="M311.854 39.293C308.862 37.5917 306.151 36.0628 305.258 32.4426C304.704 30.1928 305.263 27.9159 306.546 26.0187C312.752 16.8406 348.308 6.4443 359.569 4.4604C377.503 1.30084 398.487 1.34059 413.999 12.2904C417.35 14.6554 417.838 18.7039 420.299 21.6484C422.264 23.9987 425.143 25.8811 427.373 28.0187C434.295 34.6955 438.82 43.4703 440.243 52.9803C443.017 71.0076 435.936 91.5699 429.813 108.272C427.509 114.558 422.329 121.003 422.42 127.689C423.592 140.231 425.707 149.724 435.107 158.953C424.945 164.964 422.075 168.946 414.439 174.647C403.935 182.491 377.361 204.13 366.348 207.256C364.272 206.368 361.977 205.445 360.002 204.39C361.133 201.48 362.798 197.156 364.415 194.536C370.094 185.329 360.733 174.024 352.161 170.699L351.632 170.498C353.29 169.686 355.205 168.915 356.51 167.674C353.421 168.595 349.637 170.588 346.815 171.229C338.669 173.076 319.898 175.72 317.666 164.209C316.017 155.711 318.573 152.225 312.464 145.038L313.034 139.578L312.695 139.093C309.391 135.325 312.525 133.015 311.631 128.928C309.975 125.475 302.35 126.817 299.995 124.468C292.49 116.979 304.388 107.264 307.09 100.236C308.18 97.4017 308.394 95.6683 307.721 92.3624L307.609 91.8275C308.256 90.9833 308.25 91.0584 308.413 90.0146C307.488 88.1937 304.341 85.47 302.697 83.7545C303.71 63.7289 304.504 59.9182 312.305 41.1028C318.456 40.2562 324.579 39.7157 330.742 38.7064C329.459 36.9237 328.76 37.3267 326.823 37.5522C325.988 37.6521 325.006 37.811 324.183 37.8067C320.206 38.1684 315.759 38.5141 311.854 39.293Z" fill="#F3CFB2"/>
<path d="M311.854 39.293C308.862 37.5917 306.151 36.0628 305.258 32.4426C304.704 30.1928 305.263 27.9159 306.546 26.0187C312.752 16.8406 348.308 6.4443 359.569 4.4604C377.503 1.30084 398.487 1.34059 413.999 12.2904C417.35 14.6554 417.838 18.7039 420.299 21.6484C422.264 23.9987 425.143 25.8811 427.373 28.0187C434.295 34.6955 438.82 43.4703 440.243 52.9803C443.017 71.0076 435.936 91.5699 429.813 108.272C427.509 114.558 422.329 121.003 422.42 127.689C422.386 127.393 422.35 127.098 422.311 126.803C421.548 121.061 413.422 122.493 409.779 119.627C407.934 118.175 408.999 115.712 408.859 112.96L408.837 112.597C409.939 108.926 417.07 104.261 417.391 96.82C417.615 91.621 417.868 85.6463 414.217 81.1381C412.537 79.0491 410.07 77.7458 407.396 77.5369C404.514 77.3391 400.615 78.2104 398.422 80.2556L398.55 80.9396C393.543 84.5845 387.464 93.9115 383.272 93.6502L382.873 93.4506C381.137 93.111 378.417 92.0006 376.662 91.3462L375.347 91.565C373.327 88.9097 374.769 84.0435 374.039 80.3961L374.125 80.0695C370.21 75.6168 366.014 67.7835 364.439 62.0528C362.817 56.147 364.712 50.3269 364.519 44.7034C365.448 41.0924 367.89 38.8327 368.154 33.4809C364.142 34.2561 349.506 36.875 345.879 36.9422C344.315 37.4105 332.873 38.6842 330.742 38.7064C329.459 36.9237 328.76 37.3267 326.823 37.5522C325.988 37.6521 325.006 37.811 324.183 37.8067C320.206 38.1684 315.759 38.5141 311.854 39.293Z" fill="#BF834A"/>
<path d="M345.879 36.9422C347.111 35.8737 352.421 34.7678 353.86 34.8257C361.562 35.1362 394.935 25.3395 399.596 26.3382C399.187 26.6768 370.856 33.0101 368.154 33.4809C364.142 34.2561 349.506 36.875 345.879 36.9422Z" fill="#5A3D27"/>
<path d="M324.183 37.8067C320.645 31.4388 321.886 34.0201 317.362 29.6826L318.065 29.64C321.985 31.4653 322.582 33.5776 324.795 37.3642L326.823 37.5522C325.988 37.6521 325.006 37.811 324.183 37.8067Z" fill="#2C1B11"/>
<path d="M376.662 91.3462L376.61 90.3819C378.449 90.0097 381.801 92.1603 383.38 93.1321L382.873 93.4506C381.137 93.111 378.417 92.0006 376.662 91.3462Z" fill="#2C1B11"/>
<path d="M403.087 11.7627C407.257 12.8898 409.403 18.1575 410.77 21.805C409.876 21.1684 405.345 14.1759 403.087 11.7627Z" fill="#986C42"/>
<path d="M337.449 22.9875C338.032 23.0437 338.61 23.1344 339.182 23.2593C342.287 23.9112 344.149 25.6877 345.778 28.2371C344.489 27.5731 339.254 24.0741 337.449 22.9875Z" fill="#5A3D27"/>
<path d="M398.55 80.9396L398.422 80.2556C400.615 78.2104 404.514 77.3391 407.396 77.5369C410.07 77.7458 412.537 79.0491 414.217 81.1381C417.868 85.6463 417.615 91.621 417.391 96.82C417.07 104.261 409.939 108.926 408.837 112.597L407.132 115.37L406.756 114.904C408.422 109.876 414.032 104.924 415.79 99.3033C417.393 94.1783 416.414 87.5608 414.234 82.6791C413.444 80.9119 410.738 79.5365 408.878 79.0811C404.708 78.06 402.112 78.9863 398.55 80.9396Z" fill="#2C1B11"/>
<path d="M364.519 44.7034C364.712 50.3269 362.817 56.147 364.439 62.0528C366.014 67.7835 370.21 75.6168 374.125 80.0695L374.039 80.3961C370.737 79.2648 366.271 69.6154 364.889 66.326C362.268 60.0881 361.868 50.969 364.519 44.7034Z" fill="#2C1B11"/>
<path d="M312.695 139.093C319.216 138.558 328.05 139.091 335.01 138.909L335.425 139.365C331.85 141.754 318.809 139.138 313.034 139.578L312.695 139.093Z" fill="#5A3D27"/>
<path d="M406.756 114.904L407.132 115.37C405.16 119.204 398.861 129.627 392.986 123.285C392.354 122.605 391.776 121.196 391.896 120.263L391.701 120.159C392.529 121.087 393.765 122.509 394.758 123.186C395.857 123.948 397.236 124.184 398.527 123.832C402.421 122.751 405.026 118.169 406.756 114.904Z" fill="#5A3D27"/>
<path d="M396.247 91.9807C396.644 91.2647 397.069 90.5641 397.519 89.8807C402.703 82.1454 411.253 80.5396 412.25 92.0177L411.957 92.2303L411.14 90.2486C407.274 89.9405 404.046 89.3655 400.415 90.7871L399.437 91.8439C403.75 93.4141 405.402 94.9231 403.895 99.8165L402.455 101.852C402.666 103.474 403.186 105.68 402.61 107.074C402.061 107.461 401.738 107.779 401.116 107.958C399.208 109.625 397.102 111.396 394.539 110.368L394.075 109.24C394.407 103.002 401.52 104.552 397.757 98.064C396.872 96.5382 396.437 93.7943 396.247 91.9807Z" fill="#2C1B11"/>
<path d="M399.437 91.8439C398.601 92.1946 398.053 92.3835 397.205 92.6601C397.133 90.7382 406.54 77.8621 411.14 90.2486C407.274 89.9405 404.046 89.3655 400.415 90.7871L399.437 91.8439Z" fill="#BF834A"/>
<path d="M400.58 103.289C399.815 99.2782 399.557 99.3694 397.367 95.9038C397.221 94.2265 397.191 93.3336 398.738 92.6059C402.654 93.6429 403.455 96.2837 403.895 99.8165L402.455 101.852L400.58 103.289Z" fill="#BF834A"/>
<path d="M402.455 101.852C402.666 103.474 403.186 105.68 402.61 107.074C402.061 107.461 401.738 107.779 401.116 107.958C399.011 108.86 397.627 109.89 395.447 108.861L395.261 107.991C396.626 105.228 397.96 104.6 400.58 103.289L402.455 101.852Z" fill="#F0B590"/>
<path d="M315.207 86.4498C326.451 80.8651 332.179 78.8685 344.785 83.0834C346.394 83.6103 347.976 84.2185 349.525 84.9049C342.927 84.9431 326.655 86.8392 320.815 90.4015C319.29 91.3314 319.974 91.4436 317.549 92.0511C315.351 92.0431 313.305 92.4868 311.544 91.5206L312.016 91.0467C310.994 89.5912 311.025 90.0774 310.953 88.5443L315.207 86.4498Z" fill="#986C42"/>
<path d="M310.953 88.5443L315.207 86.4498C316.464 86.5515 317.723 86.6261 318.983 86.6748C318.73 87.5331 318.686 87.5054 318.131 88.2245L319.957 88.3736L320.084 89.0428C318.641 90.3178 318.307 90.1926 317.549 92.0511C315.351 92.0431 313.305 92.4868 311.544 91.5206L312.016 91.0467C310.994 89.5912 311.025 90.0774 310.953 88.5443Z" fill="#8A5C2B"/>
<path d="M319.746 93.3099C321.865 93.1713 324.559 93.801 326.764 93.867C330.399 93.9754 334.012 93.9945 337.651 94.1067C337.008 96.0175 334.514 96.1506 332.932 96.0385C331.358 96.0194 327.815 95.6546 326.476 96.0071L326.286 97.7288C325.145 98.4127 325.78 98.2531 324.273 97.9629L323.896 96.0631C321.709 94.1011 318.794 95.4124 315.931 94.8104C317.173 93.7979 318.185 93.6981 319.746 93.3099Z" fill="#1B0E09"/>
<path d="M391.395 125.119C391.741 125.627 391.71 125.41 391.673 125.981C391.066 135.456 386.886 145.64 379.988 152.141L379.716 151.703C389.141 138.063 387.235 140.173 391.395 125.119Z" fill="#2C1B11"/>
<path d="M315.196 121.597C316.207 121.538 318.407 121.632 319.221 122.269C317.687 123.187 315.772 123.113 313.916 123.251C311.717 123.393 309.303 123.312 307.082 123.284C310.254 122.412 311.943 122.042 315.196 121.597Z" fill="#1B0E09"/>
<path d="M322.213 115.398C325.33 118.917 326.675 121.069 323.061 124.778C322.643 124.69 322.72 124.648 322.338 124.315L323.701 122.287C324.048 120.638 322.748 117.271 322.213 115.398Z" fill="#2C1B11"/>
<path d="M310.227 78.8716C310.785 82.607 311.14 84.7306 310.953 88.5443C311.025 90.0774 310.994 89.5912 312.016 91.0467L311.544 91.5206C308.804 89.134 309.959 82.3193 310.227 78.8716Z" fill="#5A3D27"/>
<path d="M312.231 63.9693C312.722 65.4476 311.969 73.3185 311.825 75.3772C310.432 71.7644 310.923 67.5396 312.231 63.9693Z" fill="#2C1B11"/>
<path d="M388.439 164.27C388.777 165.581 387.544 174.464 387.224 176.107C386.457 172.121 386.737 167.975 388.439 164.27Z" fill="#986C42"/>
<path d="M450.435 305.539C469.078 303.912 498.436 296 516.098 289.709C517.435 304.288 517.547 319.089 518.049 333.737C518.203 339.177 518.476 344.613 518.866 350.041C519.211 354.247 520.172 360.714 519.958 364.739C518.776 386.868 515.122 409.504 509.815 431.01C504.888 450.971 496.787 470.258 492.87 490.485C491.026 500.011 494.13 508.652 494.771 518.053C495.595 528.201 492.558 536.166 490.185 545.581C487.829 554.932 485.768 562.803 479.472 570.513C478.032 572.276 476.053 574.375 473.634 574.606C478.463 566.72 483.341 551.585 484.858 542.329C478.672 553.784 479.078 568.024 469.122 577.056C467.319 578.691 464.699 580.97 462.156 581.03L461.581 580.411C461.789 578.054 463.377 576.099 464.438 574.043C469.042 565.116 472.292 555.047 474.988 545.396L474.259 545.149L473.993 545.716C469.864 554.682 464.535 582.149 453.359 582.846L452.943 582.359C455.31 575.776 457.662 569.493 458.824 562.552C459.82 556.61 461.995 551.178 462.319 545.117C458.012 557.075 456.096 573.923 450.807 583.048C449.169 583.966 447.707 585.136 445.997 584.889C443.746 583.053 446.064 573.438 446.368 570.434C447.434 559.924 448.83 549.354 449.172 538.792C449.202 537.927 447.814 531.679 447.565 530.549C447.828 536.744 447.348 553.213 445.776 559.007L445.127 559.668C443.42 562.184 440.975 564.479 437.999 562.446C437.034 559.896 437.773 559.126 438.973 556.432L438.621 556.242C437.729 553.068 440.655 520.102 442.399 516.81C448.876 504.593 455.725 501.335 458.299 485.681C463.205 455.847 463.523 425.761 466.217 395.704C467.096 386.292 470.329 373.365 472.34 363.816L471.244 363.026L471.021 362.548C468.991 358.32 465.288 354.778 463.501 351.184C456.817 337.744 453.115 320.352 450.435 305.539Z" fill="#F3CFB2"/>
<path d="M438.973 556.432C441.609 556.854 441.6 557.141 442.653 559.819L443.486 560.411L445.127 559.668C443.42 562.184 440.975 564.479 437.999 562.446C437.034 559.896 437.773 559.126 438.973 556.432Z" fill="#F0B590"/>
<path d="M471.244 363.026L471.349 362.738C472.067 360.727 472.117 359.009 473.263 357.371L473.309 357.424L472.89 358.445L473.16 358.728L472.34 363.816L471.244 363.026Z" fill="#BF834A"/>
<path d="M474.259 545.149C474.812 543.275 475.509 540.245 476.636 538.824C476.837 540.346 475.609 543.921 474.988 545.396L474.259 545.149Z" fill="#F0B590"/>
<path d="M508.234 365.338C508.42 367.182 506.949 372.728 506.408 374.846C505.557 372.22 507.237 367.787 508.234 365.338Z" fill="#986C42"/>
<path d="M463.686 540.898C464.617 542.975 463.454 544.833 462.605 546.778C462.145 545.6 463.29 542.329 463.686 540.898Z" fill="#F0B590"/>
<path d="M12.7387 533.201L16.6727 533.357C17.6848 534.786 15.2254 533.787 15.6129 537.534C15.8779 540.095 17.2225 546.091 19.2054 547.727C20.0718 543.932 14.2011 538.813 17.8226 534.832C19.9354 534.175 21.4473 534.367 22.2485 536.745C23.401 540.166 23.9132 543.872 24.6896 547.41C26.2307 554.228 28.8275 560.764 32.3855 566.782C38.0324 576.451 49.1002 591.463 58.739 597.57C62.1016 599.702 65.118 600.645 68.9095 601.643C73.9797 614.707 79.2243 632.374 84.0443 646.238C77.8606 650.909 72.6117 653.202 65.7459 658.858C59.3157 664.035 44.7978 672.859 36.7723 668.927C20.6067 661.015 23.1932 633.452 17.4103 618.681C13.7995 609.457 10.0988 601.766 5.84526 593.103C2.7398 586.78 0.6673 567.47 3.28638 561.063C3.85558 561.894 3.91763 562.066 4.69886 562.739C6.09599 554.825 1.4049 553.716 8.03638 543.891C8.92114 549.484 9.0368 551.622 11.8001 556.67C10.5879 551.001 8.70133 543.898 9.34632 538.224C9.65843 535.479 10.7184 534.74 12.7387 533.201Z" fill="#F3CFB2"/>
<path d="M73.6978 636.127L74.3898 635.992L74.0656 636.331C69.4558 637.766 62.5302 638.173 57.651 638.241L56.7292 637.871C57.7527 636.848 71.2656 636.294 73.6978 636.127Z" fill="#2C1B11"/>
<path d="M22.9367 600.103C26.3701 602.667 30.866 612.249 30.8407 616.507C29.7759 611.189 25.0422 605.082 22.9367 600.103Z" fill="#986C42"/>
<path d="M401.123 826.068C416.338 832.89 442.959 836.217 459.236 830.474C460.648 837.672 465.015 855.511 461.06 861.562C454.421 869.431 437.185 868.199 428.266 871.126C411.559 876.616 398.887 882.082 381.167 881.262C378.046 881.121 366.18 887.554 365.06 880.055C366.294 877.263 371.595 876.456 375.198 874.182L375.716 873.855C367.355 877.066 368.605 874.096 362.594 880.646C360.571 881.127 359.892 881.392 358.706 879.568C358.758 877.491 358.571 878.311 359.768 876.339C363.475 874.465 367.197 872.95 370.297 870.275L370.23 870.004C366.931 871.699 360.26 874.164 357.806 876.487C357.497 876.782 357.088 879.278 356.65 880.159C354.399 880.054 350.378 879.395 349.858 876.782C348.912 872.025 356.087 870.861 359.357 870.053C357.914 870.097 356.472 870.158 355.03 870.244C348.386 870.694 348.075 873.134 348.684 878.822C345.804 878.261 342.611 878.039 341.785 874.817C343.441 870.17 352.771 869.419 357.491 866.689L357.942 866.43C353.285 867.459 348.065 868.408 343.661 870.238C340.973 871.354 341.074 873.042 340.023 875.84C335.195 875.47 334.768 867.527 338.344 865.623C342.551 863.411 347.268 862.104 351.648 860.163C364.021 854.679 374.898 846.927 385.565 838.707C390.98 834.529 396.436 831.177 401.123 826.068Z" fill="#F3CFB2"/>
<path d="M354.68 863.792L355.127 863.99C347.181 868.026 343.146 865.524 337.624 868.722C337.492 868.858 337.604 868.784 337.146 868.888C339.395 865.333 349.27 865.179 354.68 863.792Z" fill="#2C1B11"/>
<path d="M446.328 834.411C447.162 837.967 446.963 842.841 443.993 845.318L443.695 844.727C445.488 842.163 445.178 838.047 446.328 834.411Z" fill="#BF834A"/>
<path d="M466.398 358.866C472.586 366.155 467.095 379.754 465.18 388.434L464.908 389.283L464.332 388.999C462.108 383.936 465.926 366.115 466.398 358.866Z" fill="white"/>
<path d="M84.0714 648.069C85.3236 648.895 87.3312 654.86 86.7002 656.215C85.5478 654.576 83.3344 651.754 83.054 649.77C82.9487 649.024 83.4225 648.815 84.0714 648.069Z" fill="#5A90B0"/>
</svg>
