<svg width="722" height="779" viewBox="0 0 722 779" fill="none" xmlns="http://www.w3.org/2000/svg">
<path d="M521.789 664.528C500.529 669.654 479.69 681.882 459.063 689.736C407.221 709.478 352.819 714.418 297.753 712.916C268.671 712.123 240.176 706.371 211.532 701.846C197.412 699.569 183.277 697.389 169.128 695.306C152.012 692.892 134.726 690.893 118.032 686.256C111.253 684.373 104.457 682.308 97.9131 679.718C90.1231 676.634 82.5891 672.964 74.6891 670.151C52.1281 662.116 30.2071 654.826 13.3071 636.837C-0.175857 622.485 -1.32886 612.471 1.32414 593.414C3.04014 581.082 5.99714 568.959 7.69414 556.672C9.43314 544.086 8.76014 530.822 9.14514 518.113C10.2811 480.645 15.3431 444.956 25.7101 408.89C34.6921 377.644 46.2481 348.081 59.5311 318.429C72.3791 289.747 86.3751 261.736 98.2231 232.578C114.702 192.019 125.597 149.083 143.14 108.995C146.364 101.628 150.236 94.866 156.169 89.345C163.854 82.192 172.754 77.067 181.498 71.41C192.906 64.029 204.186 56.34 216.603 50.707C235.297 42.226 255.06 37.269 274.723 31.661C285.696 28.531 296.451 24.675 307.408 21.501C317.302 18.636 327.402 16.502 337.333 13.772C350.674 10.105 363.647 4.77096 377.132 1.71396C382.02 0.605963 386.969 -0.101036 391.99 0.114964C405.791 0.706964 417.844 5.38496 427.225 15.68C434.268 23.408 438.534 32.862 443.586 41.887C446.638 47.339 449.968 52.652 453.22 57.986C460.68 70.222 470.35 82.118 476.014 95.276C478.328 100.651 479.328 106.039 479.032 111.885C478.387 124.647 470.218 133.815 461.169 141.902C465.741 143.987 469.849 146.857 473.064 150.748C477.551 156.103 479.675 163.049 478.95 169.997C478.216 177.034 474.191 183.311 468.768 187.709C460.729 194.229 447.246 197.5 437.059 196.384C424.77 195.037 413.203 186.399 405.724 177.007C401.014 178.669 396.382 179.339 391.621 180.648C385.534 182.322 379.812 184.71 373.565 185.964C367.983 187.084 361.439 187.017 356.105 188.826C350.578 190.7 345.539 194.559 340.107 196.868C330.993 200.742 322.204 200.762 313.066 197.01C297.598 190.659 292.854 183.195 286.698 168.261L285.964 167.941C274.141 174.853 266.685 178.115 252.846 178.443C248.997 184.953 245.129 191.484 241.974 198.368C228.502 227.762 223.71 261.016 221.856 293.021C221.12 305.723 219.995 318.191 223.139 330.687C226.181 342.779 230.413 354.568 233.455 366.681C241.236 397.666 245.392 433.859 243.883 465.747C248.354 463.216 252.852 460.738 257.563 458.674C260.748 457.278 264.514 456.3 267.43 454.423C271.351 451.899 274.895 447.725 278.381 444.598C284.504 439.105 291.386 434.492 298.558 430.488C330.09 412.883 362.386 409.322 397.785 412.126C409.98 413.092 422.069 414.488 433.888 417.791C441.884 420.05 449.697 422.914 457.259 426.358C465.585 416.058 475.901 408.59 486.986 401.515C519.154 381.085 555.551 368.248 593.417 363.977C630.63 360.077 665.961 365.397 700.885 378.518C704.996 380.063 717.429 384.798 720.697 387.547C721.475 388.202 721.451 388.499 721.548 389.44L720.412 391.054C718.671 394.777 717.455 398.496 716.39 402.46C705.517 455.616 698.647 509.587 688.684 562.933C684.285 586.483 679.861 610.218 674.425 633.551C672.754 640.843 670.956 648.106 669.033 655.335C667.82 659.8 666.159 664.4 665.269 668.919C661.764 679.812 658.512 691.114 653.808 701.555C641.85 728.098 619.892 754.141 593.954 767.572C589.509 769.842 584.815 771.588 579.967 772.773C575.277 773.915 568.293 774.441 564.166 776.81C563.98 778.023 564.172 778.063 563.223 778.959C563.093 778.885 562.952 778.828 562.834 778.738C556.994 774.258 525.504 678.173 521.789 664.528Z" fill="#F3BBA1"/>
<path d="M521.789 664.528C500.529 669.654 479.69 681.882 459.063 689.736C407.221 709.478 352.819 714.418 297.753 712.916C268.671 712.123 240.176 706.371 211.532 701.846C197.412 699.569 183.277 697.389 169.128 695.306C152.012 692.892 134.726 690.893 118.032 686.256C111.253 684.373 104.457 682.308 97.9131 679.718C90.1231 676.634 82.5891 672.964 74.6891 670.151C52.1281 662.116 30.2071 654.826 13.3071 636.837C-0.175857 622.485 -1.32886 612.471 1.32414 593.414C3.04014 581.082 5.99714 568.959 7.69414 556.672C9.43314 544.086 8.76014 530.822 9.14514 518.113C10.2811 480.645 15.3431 444.956 25.7101 408.89C34.6921 377.644 46.2481 348.081 59.5311 318.429C72.3791 289.747 86.3751 261.736 98.2231 232.578C114.702 192.019 125.597 149.083 143.14 108.995C146.364 101.628 150.236 94.866 156.169 89.345C163.854 82.192 172.754 77.067 181.498 71.41C192.906 64.029 204.186 56.34 216.603 50.707C235.297 42.226 255.06 37.269 274.723 31.661C285.696 28.531 296.451 24.675 307.408 21.501C317.302 18.636 327.402 16.502 337.333 13.772C350.674 10.105 363.647 4.77096 377.132 1.71396C382.02 0.605963 386.969 -0.101036 391.99 0.114964C405.791 0.706964 417.844 5.38496 427.225 15.68C434.268 23.408 438.534 32.862 443.586 41.887C446.638 47.339 449.968 52.652 453.22 57.986C460.68 70.222 470.35 82.118 476.014 95.276C478.328 100.651 479.328 106.039 479.032 111.885C478.387 124.647 470.218 133.815 461.169 141.902C465.741 143.987 469.849 146.857 473.064 150.748C477.551 156.103 479.675 163.049 478.95 169.997C478.216 177.034 474.191 183.311 468.768 187.709C460.729 194.229 447.246 197.5 437.059 196.384C424.77 195.037 413.203 186.399 405.724 177.007C401.014 178.669 396.382 179.339 391.621 180.648C385.534 182.322 379.812 184.71 373.565 185.964C367.983 187.084 361.439 187.017 356.105 188.826C350.578 190.7 345.539 194.559 340.107 196.868C330.993 200.742 322.204 200.762 313.066 197.01C297.598 190.659 292.854 183.195 286.698 168.261L288.394 167.794C290.184 168.316 294.682 178.611 296.198 180.974C301.195 188.767 311.868 194.563 320.822 196.473C333.49 199.176 347.323 190.934 357.554 184.286C361.714 181.583 368.615 176.877 370.402 172.077C373.427 163.949 364.021 143.643 361.273 135.319C359.496 129.934 357.913 124.398 356.953 118.803C355.647 111.194 355.699 103.97 357.315 96.425L358.061 96.417C357.426 105.773 357.994 114.565 360.326 123.683C364.483 139.938 374.061 155.56 371.873 172.763C368.158 178.871 361.784 183.876 356.479 188.576C370.025 180.639 387.604 183.299 400.651 171.398C404.605 167.792 407.5 163.125 408.525 157.839C412.308 138.333 395.043 108.325 390.025 89.546C387.302 79.357 387.563 70.384 388.014 59.969L389.02 59.999C388.91 71.021 389.938 81.021 393.134 91.643C399.756 113.653 423.721 152.568 402.748 172.896C399.986 175.573 396.53 177.733 393.373 179.927C397.2 178.47 400.774 176.535 404.394 174.637C404.528 174.588 404.664 174.542 404.797 174.489C409.912 172.453 414.412 169.284 419.153 166.55C428.715 161.035 442.096 155.463 446.805 144.645C451.24 134.457 447.757 121.639 443.838 111.854C443.029 107.773 440.383 102.754 438.55 99.009C430.928 83.436 418.043 64.831 417.468 47.142C417.764 44.65 417.019 42.198 418.313 39.989C419.061 45.166 419.668 50.545 421.297 55.53L422.247 55.856C423.869 59.899 425.019 64.049 426.905 67.996C438.218 91.671 453.571 112.452 451.112 140.062C452.148 139.805 452.989 139.327 453.929 138.836C454.79 139.853 454.621 140.382 454.727 141.656L457.324 140.087C464.398 135.823 470.794 126.299 474.075 118.864L474.823 118.564L475.021 118.005C478.152 108.896 476.818 103.699 472.678 95.318C467.079 83.982 459.251 73.915 452.716 63.111C448.358 55.907 443.956 48.691 439.837 41.348C435.238 33.148 431.109 24.498 424.918 17.322C420.984 12.761 415.149 8.56596 409.431 6.61596C401.264 3.82996 391.952 2.22996 383.361 3.44796C369.116 5.46896 353.214 12.723 339.139 16.79L274.94 34.939C253.775 40.827 232.337 45.992 212.612 55.986C198.309 63.233 161.428 85.692 152.927 97.527C144.142 109.758 139.082 127.852 133.897 141.986C122.093 174.163 111.962 206.942 98.9911 238.687C79.1511 287.243 52.9691 333.38 36.6711 383.357C23.8991 422.521 15.4041 459.775 12.8841 501.031C12.5181 507.021 12.0431 513.027 11.9961 519.03C11.9081 530.306 12.4541 541.69 11.2571 552.922C9.15914 572.61 -2.66986 605.434 6.65314 623.498C20.0581 649.473 53.9361 658.864 79.1761 668.509C90.2931 672.758 101.01 677.666 112.4 681.21C136.091 688.581 160.529 690.496 184.914 694.465C214.874 699.342 245.134 705.239 275.327 708.297C321.655 712.988 381.9 709.698 426.765 696.998C440.953 693.086 454.887 688.299 468.484 682.664C483.654 676.222 505.072 663.973 521.142 661.668C518.95 650.367 516.829 639.07 515.481 627.632L515.147 627.139C514.659 621.856 513.541 616.181 515.212 611.042L515.675 611.345C518.588 626.592 519.731 642.048 523.153 657.276C525.855 669.296 529.938 680.967 533.82 692.645C540.298 712.329 547.257 731.851 554.693 751.193C557.884 759.571 560.277 768.771 564.166 776.81C563.98 778.023 564.172 778.063 563.223 778.959C563.093 778.885 562.952 778.828 562.834 778.738C556.994 774.258 525.504 678.173 521.789 664.528Z" fill="#010000"/>
<path d="M421.297 55.53L422.247 55.856C423.869 59.899 425.019 64.049 426.905 67.996C438.218 91.671 453.571 112.452 451.112 140.062C452.148 139.805 452.989 139.327 453.929 138.836C454.79 139.853 454.621 140.382 454.727 141.656L457.324 140.087C464.398 135.823 470.794 126.299 474.075 118.864L474.823 118.564C474.773 119.11 474.815 118.96 474.644 119.506C470.731 131.979 458.667 141.225 447.582 146.966C450.938 139.965 451.026 133.287 449.96 125.776C447.329 107.234 437.629 91.578 429.362 75.176C426.21 68.922 422.943 62.359 421.297 55.53Z" fill="#E29D7D"/>
<path d="M458.034 143.569C464.723 147.194 470.75 150.74 474.106 157.975C476.578 163.304 476.889 169.645 474.76 175.138C472.238 181.64 466.506 186.619 460.248 189.426C450.241 193.915 438.176 194.826 427.894 190.971C424.687 189.405 408.363 179.004 407.418 176.311C421.227 167.285 436.161 162.254 446.77 148.917C450.754 147.446 454.334 145.653 458.034 143.569Z" fill="#E29D7D"/>
<path d="M463.314 158.299C464.474 159.207 465.093 159.872 465.671 161.242C466.745 163.785 467.294 166.188 466.183 168.817C464.78 172.136 461.825 174.261 458.547 175.516C453.295 177.527 446.596 178.056 441.387 175.812C438.42 173.07 437.054 170.335 435.492 166.699C441.874 165.518 448.689 166.006 454.951 164.588C459.435 163.573 460.965 162.013 463.314 158.299Z" fill="#F3BBA1"/>
<path d="M426.557 166.309C427.592 168.64 425.534 179.46 426.364 183.769C426.397 183.94 426.434 184.11 426.469 184.281L425.882 184.877C425.39 183.891 424.99 182.935 424.71 181.865C423.456 177.073 424.002 170.545 426.557 166.309Z" fill="#010000"/>
<path d="M196.743 141.732C199.667 147.723 202.576 153.371 207.001 158.43C217.598 170.545 230.638 175.012 246.499 175.948C265.533 177.071 280.375 170.821 294.479 158.19C292.016 162.042 289.466 164.993 285.964 167.941C274.141 174.853 266.685 178.115 252.846 178.443C248.997 184.953 245.129 191.484 241.974 198.368C228.502 227.762 223.71 261.016 221.856 293.021C221.12 305.723 219.995 318.191 223.139 330.687C226.181 342.779 230.413 354.568 233.455 366.681C241.236 397.666 245.392 433.859 243.883 465.747C248.354 463.216 252.852 460.738 257.563 458.674C260.748 457.278 264.514 456.3 267.43 454.423C271.351 451.899 274.895 447.725 278.381 444.598C284.504 439.105 291.386 434.492 298.558 430.488C330.09 412.883 362.386 409.322 397.785 412.126C409.98 413.092 422.069 414.488 433.888 417.791C441.884 420.05 449.697 422.914 457.259 426.358C465.585 416.058 475.901 408.59 486.986 401.515C519.154 381.085 555.551 368.248 593.417 363.977C630.63 360.077 665.961 365.397 700.885 378.518C704.996 380.063 717.429 384.798 720.697 387.547C721.475 388.202 721.451 388.499 721.548 389.44L720.412 391.054C714.848 388.7 709.587 385.633 703.993 383.305C681.598 373.988 655.575 366.936 631.231 366.126C616.887 365.649 602.503 365.848 588.26 367.694C551.125 372.509 508.071 388.398 478.013 411.012C471.515 415.901 466.022 421.757 460.108 427.288C475.822 433.21 491.757 450.531 501.092 464.098C507.373 473.228 512.539 482.754 519.865 491.186C526.752 499.112 536.522 503.652 541.963 513.03C547.085 521.858 549.758 532.129 552.96 541.747C556.5 552.514 560.429 563.148 564.737 573.631C574.339 596.542 589.052 616.351 602.314 637.143C616.247 658.988 628.678 682.747 646.607 701.628C641.749 698.681 637.956 695.052 634.364 690.653C622.173 675.725 612.62 658.051 602.279 641.812C588.432 620.067 573.438 599.771 562.982 575.989C558.785 566.522 555.087 556.84 551.904 546.985C548.558 536.742 545.722 525.131 540.452 515.686C534.038 504.193 524.272 499.815 516.395 490.191C510.258 482.692 505.617 473.959 500.212 465.933C496.139 459.886 491.072 453.95 485.897 448.817C479.207 442.181 471.65 435.09 463.277 430.725C459.039 428.517 454.098 428.162 449.618 426.62C443.937 424.664 438.432 422.437 432.642 420.77C414.792 415.629 395.743 413.907 377.193 414.006C317.583 414.324 267.059 442.132 242.936 497.92C241.215 501.867 239.701 505.901 238.402 510.006C237.537 512.79 235.752 523.253 234.34 524.68L234.349 524.527L234.417 525.378L234.608 524.606L234.267 524.369C237.024 498.406 251.046 474.702 267.363 454.811C265.612 456.292 263.927 457.947 262.009 459.214C253.84 464.61 243.569 467.308 236.334 474.092C227.437 482.434 220.502 494.155 213.398 504.018C201.418 520.651 177.762 544.65 158.461 551.772C175.948 540.5 192.528 526.726 205.569 510.453C217.343 495.761 225.669 479.289 241.395 468.255C239.662 459.128 240.778 450.189 240.479 441C240.059 428.126 238.678 415.543 237.059 402.783C235.052 386.96 231.639 371.611 227.245 356.289C224.171 345.569 219.906 334.538 218.481 323.473C216.74 309.962 219.035 286.137 220.593 272.226C223.586 245.491 228.87 218.087 240.903 193.821C243.75 188.08 246.66 182.252 251.751 178.189C242.109 177.763 225.271 175.046 216.953 169.951C206.514 163.557 199.627 153.467 196.743 141.732Z" fill="#010000"/>
<path d="M443.838 111.854C447.757 121.639 451.24 134.457 446.805 144.645C442.096 155.463 428.715 161.035 419.153 166.55C414.412 169.284 409.912 172.453 404.797 174.489C404.664 174.542 404.528 174.588 404.394 174.637C406.159 171.269 412.728 171.013 414.089 168.133C413.011 167.328 411.957 166.492 410.927 165.626L410.905 164.71C411.245 164.389 411.377 164.222 411.857 164.013C413.853 163.147 418.135 162.352 420.078 163.181L420.252 164.239L419.847 164.622L418.679 163.408L418.313 163.734L419.182 164.937C420.086 164.709 420.867 164.462 421.708 164.048C427.869 161.011 444.477 151.324 446.25 144.333C447.332 140.069 448.398 134.573 447.955 130.227C447.504 125.811 443.004 115.554 443.618 112.468C443.661 112.255 443.765 112.059 443.838 111.854Z" fill="#E29D7D"/>
<path d="M307.891 69.3049C308.306 69.1229 308.722 68.944 309.139 68.769C319.743 64.3289 334.954 60.898 345.942 65.692C352.144 68.397 355.221 72.69 357.612 78.757L357.207 79.6779C355.169 75.7799 352.61 72.264 348.899 69.798C337.789 62.413 320.055 66.9189 307.891 69.3049Z" fill="#010000"/>
<path d="M515.147 627.139L515.481 627.632C512.631 628.713 509.421 629.277 506.474 630.086C501.562 631.407 496.754 633.086 492.087 635.11C482.215 639.333 473.349 645.485 463.633 649.982L463.041 650.251C478.278 639.104 496.118 629.024 515.147 627.139Z" fill="#010000"/>
<path d="M357.612 78.757C359.566 82.887 359.901 91.1819 358.437 95.5829C358.341 95.8719 358.186 96.139 358.061 96.417L357.315 96.425C357.936 90.788 359.022 85.2119 357.207 79.6779L357.612 78.757Z" fill="#E29D7D"/>
<path d="M417.468 47.142C416.553 43.274 416.702 37.833 417.473 33.946C418.229 35.775 418.157 38.016 418.313 39.989C417.019 42.198 417.764 44.65 417.468 47.142Z" fill="#18100F"/>
<path d="M388.014 59.969C387.993 58.26 387.657 55.916 388.459 54.379C389.173 56.048 389.067 58.189 389.02 59.999L388.014 59.969Z" fill="#B47961"/>
<path d="M262.205 563.14L263.163 564.079C267.175 568.004 271.167 572.029 275.638 575.437C293.952 589.395 317.058 596.492 339.499 600.303C346.25 601.449 353.561 603.019 360.429 602.941L362.709 603.923C351.389 604.473 338.424 602.386 327.352 600.034C303.741 595.02 275.903 584.262 262.205 563.14Z" fill="#010000"/>
<path d="M213.235 192.397C208.439 206.543 201.052 219.966 195.362 233.811C187.943 251.866 181.531 270.241 175.12 288.672C172.051 297.494 168.668 306.25 165.801 315.137L165.496 314.22C168.039 303.539 172.072 292.909 175.595 282.506C185.427 253.473 197.633 218.605 213.235 192.397Z" fill="#010000"/>
<path d="M483.632 600.536C510.998 603.155 552.739 595.607 576.863 609.091C565.374 606.33 553.645 604.202 541.843 603.391C528.53 602.476 493.283 605.512 483.632 600.536Z" fill="#010000"/>
<path d="M450.759 609.301C451.969 608.85 453.739 609.432 454.955 609.808L454.939 611.487C452.744 615.805 446.36 620.245 442.277 622.753C446.842 618.553 449.421 615.229 452.43 609.736C444.394 610.387 436.461 611.95 428.443 612.8C420.54 613.638 412.532 613.931 404.6 614.442C394.416 615.099 384.316 615.938 374.098 616.02C365.31 616.091 356.449 615.433 347.669 615.053C327.315 614.173 306.437 613.236 286.122 614.913C277.046 615.335 267.934 617.011 258.852 616.921C262.169 615.429 268.27 615.604 271.971 615.26C295.017 613.114 318.142 613.222 341.253 614.095C352.539 614.521 364.173 615.869 375.443 615.451C392.732 614.81 410.265 613.864 427.488 612.207C435.05 611.479 442.54 609.933 450.095 609.348L450.759 609.301Z" fill="#EAB294"/>
<path d="M504.284 565.519L504.631 565.73C500.684 570.571 494.106 573.54 488.615 576.257C469.157 586.071 448.274 592.756 426.735 596.066L426.36 595.773C432.864 592.772 441.254 591.459 448.184 589.498C467.526 584.027 487.578 576.851 504.284 565.519Z" fill="#010000"/>
<path d="M186.236 623.535C186.499 623.552 186.303 623.523 186.752 623.847C183.322 625.753 179.766 627.422 176.108 628.842C156.603 636.466 130.352 642.223 110.345 633.493L109.433 632.917C109.478 632.864 122.454 635.586 124.033 635.745C145.337 637.885 166.556 630.885 186.236 623.535Z" fill="#010000"/>
<path d="M24.3479 486.48C24.9369 492.038 23.8139 498.066 23.9329 503.713C24.3239 522.212 27.7348 539.015 34.3738 556.278L34.0069 556.558C32.8939 554.585 31.7619 552.599 30.8008 550.547C23.7708 535.519 18.7599 502.302 24.3479 486.48Z" fill="#010000"/>
<path d="M359.952 23.6979C366.951 22.7369 375.478 23.5649 381.94 26.5639C388.05 29.3989 391.212 33.6459 393.569 39.7369C389.923 34.4159 386.718 31.1879 380.916 28.2479C367.783 23.6539 352.524 25.6309 339.434 29.2889C345.933 25.8249 352.685 24.5199 359.952 23.6979Z" fill="#010000"/>
<path d="M600.696 652.338C600.9 652.509 601.118 652.665 601.307 652.853C607.828 659.326 620.945 690.689 623.74 700.047C624.801 703.598 625.382 706.986 625.51 710.691C622.763 705.137 621.563 698.241 619.219 692.385C613.707 678.615 607.254 665.613 600.696 652.338Z" fill="#010000"/>
<path d="M312.224 136.197C312.277 140.16 311.906 144.178 312.155 148.123C312.894 159.808 320.163 168.489 326.665 177.614C318.147 170.37 313.091 163.379 310.239 152.508L309.977 149.422C310.537 144.961 311.327 140.601 312.224 136.197Z" fill="#010000"/>
<path d="M221.963 178.044C216.471 178.129 210.571 177.328 205.314 175.75C195.48 172.8 186.358 166.143 181.453 156.998L181.717 156.631C182.804 157.996 183.898 159.365 185.089 160.64C193.815 169.98 207.878 176.621 220.713 177.001C220.875 177.006 221.038 177.006 221.2 177.008L221.963 178.044Z" fill="#010000"/>
<path d="M348.819 43.711C349.793 43.434 350.971 43.518 351.987 43.479L352.302 43.857C351.77 44.014 351.233 44.155 350.702 44.315C345.624 45.841 339.951 46.036 334.678 46.661L307.094 49.998L303.425 49.914L304.495 49.032C309.66 49.371 315.209 47.518 320.37 46.824C329.833 45.608 339.317 44.57 348.819 43.711Z" fill="#010000"/>
<path d="M296.29 149.546L297.883 148.778C301.523 149.089 305.238 149.562 308.891 149.547L309.977 149.422L310.239 152.508C309.277 152.864 308.951 153.229 308.329 154.034C307.008 157.098 307.022 160.207 306.931 163.483C305.409 160.908 306.72 156.03 307.271 153.246C306.971 153.564 306.806 153.769 306.414 154.02C305.014 154.914 302.418 155.331 300.836 154.765C299.748 154.376 299.958 154.295 299.522 153.338C300.971 153.658 301.941 153.777 303.413 153.611C302.434 152.322 298.305 151.023 296.719 149.867C296.574 149.762 296.433 149.653 296.29 149.546Z" fill="#EAB294"/>
<path d="M297.883 148.778C301.523 149.089 305.238 149.562 308.891 149.547L308.782 150.085C307.785 150.993 307.129 151.01 305.785 150.949C303.685 150.853 299.384 150.297 297.883 148.778Z" fill="#010000"/>
<path d="M327.085 23.983L327.551 24.059L327.597 24.429C323.843 25.975 320.023 27.767 316.159 28.997C305.714 32.324 294.697 34.014 284.012 36.408L283.684 36.093C284.57 35.746 285.391 35.41 286.333 35.255C290.435 34.582 292.317 32.404 295.727 30.267C296.718 30.304 297.462 30.432 298.375 30.015C301.112 28.762 303.823 30.98 306.687 30.675C313.236 29.977 321.098 26.77 327.085 23.983Z" fill="#E29D7D"/>
<path d="M280.354 124.332C285.005 134.271 287.475 142.377 296.29 149.546C296.433 149.653 296.574 149.762 296.719 149.867C298.305 151.023 302.434 152.322 303.413 153.611C301.941 153.777 300.971 153.658 299.522 153.338C298.174 152.728 296.818 152.109 295.571 151.306C286.43 145.42 282.313 134.53 280.354 124.332Z" fill="#010000"/>
<path d="M228.736 504.51C228.275 509.462 205.654 537.856 201.194 542.992C201.196 540.605 225.524 508.26 228.736 504.51Z" fill="#010000"/>
<path d="M416.917 137.748C419.235 141.49 417.913 146.461 420.875 150.205C421.752 151.313 422.843 152.035 424.286 152.186C426.615 152.428 435.888 149.527 438.2 148.401C439.484 147.775 440.649 146.764 441.752 145.861L442.317 145.392L442.89 145.457L442.77 146.25C440.366 148.706 436.074 150.62 432.81 151.695C429.358 152.832 421.85 154.696 418.632 153.083C418.402 151.367 418.612 149.678 418.412 147.968C418.011 144.538 417.154 141.205 416.917 137.748Z" fill="#EAB294"/>
<path d="M306.931 163.483C307.022 160.207 307.008 157.098 308.329 154.034C308.364 154.181 308.401 154.327 308.433 154.474C310.803 165.199 307.669 169.601 316.67 178.728C312.258 175.945 308.943 173.356 307.769 167.954C307.446 166.47 307.219 164.973 306.931 163.483Z" fill="#010000"/>
<path d="M551.691 649.881C552.277 653.755 550.375 658.999 550.005 662.997C549.46 668.894 550.03 675.278 550.741 681.135C550.981 683.111 551.953 685.908 551.469 687.787L550.573 687.124C550.593 685.492 550.11 684.123 549.626 682.589L550.407 681.951L549.742 681.245L549.355 682.874L548.92 682.521C548.763 678.497 547.763 663.899 548.529 660.958C549.293 661.769 548.843 661.562 549.816 661.696C549.955 657.627 550.773 653.826 551.691 649.881Z" fill="#E29D7D"/>
<path d="M207.2 144.822C209.993 147.253 212.252 151.593 214.586 154.578C217.772 158.652 221.286 162.159 225.067 165.677C224.503 165.538 223.976 165.403 223.441 165.172C215.667 161.819 210.376 152.192 207.2 144.822Z" fill="#010000"/>
<path d="M360.429 602.941C364.189 603.06 388.123 603.709 389.569 604.491C382.774 605.495 369.288 605.631 362.709 603.923L360.429 602.941Z" fill="#B47961"/>
<path d="M157.377 102.154L157.718 102.409C157.69 102.61 157.675 102.814 157.634 103.013C157.139 105.399 151.048 119.897 149.583 120.935L149.799 119.687C149.213 119.806 149.613 119.755 148.591 119.634C148.601 118.629 148.461 118.851 148.845 118.137C148.967 117.909 149.113 117.695 149.236 117.469C152.075 112.251 155.261 107.761 157.377 102.154Z" fill="#E29D7D"/>
<path d="M295.33 81.178C299.663 80.568 305.427 80.708 309.744 81.444C308.994 82.183 307.193 81.952 306.125 82.006C300.634 81.965 295.112 82.203 289.623 82.391C291.497 81.862 293.418 81.54 295.33 81.178Z" fill="#010000"/>
<path d="M221.2 177.008C226.039 177.641 231.588 176.39 234.857 176.958C231.423 179.293 226.399 179.015 222.371 178.15C222.233 178.121 222.099 178.079 221.963 178.044L221.2 177.008Z" fill="#7C4737"/>
<path d="M165.801 315.137C165.108 317.379 164.552 319.604 163.263 321.59C162.932 319.446 164.6 316.183 165.496 314.22L165.801 315.137Z" fill="#E29D7D"/>
</svg>
