<svg width="706" height="860" viewBox="0 0 706 860" fill="none" xmlns="http://www.w3.org/2000/svg">
<path d="M224.795 179.013C210.324 143.027 208.735 109.426 224.173 73.278C236.339 45.194 259.232 23.1379 287.755 12.02C325.258 -2.96323 373.055 -4.83788 410.512 11.5183C421.208 16.1887 433.895 23.9405 438.401 35.3239C439.62 38.4019 440.112 41.5192 440.302 44.8197C448.737 44.4525 455.336 46.0017 461.694 51.8555C478.875 67.6738 486.541 96.7073 487.371 119.426C487.939 134.992 485.646 166.543 476.899 179.148C480.411 176.919 484.221 175.109 488.514 175.941C491.722 176.564 494.238 178.656 495.984 181.351C502.32 191.127 500.533 217.52 497.89 228.879C495.618 238.64 480.832 270.146 472.593 275.261C470.779 276.388 468.667 277.124 466.52 276.652C464.306 276.164 462.892 274.65 461.799 272.76L461.175 271.667C459.634 283.209 457.745 294.332 454.001 305.402C452.236 310.621 448.829 315.387 447.857 320.819C445.832 332.142 445.816 344.186 445.44 355.679C445.281 360.517 445.332 365.501 444.658 370.297C447.477 374.418 450.774 377.887 454.912 380.71C459.806 384.051 465.314 386.7 470.546 389.48C482.401 395.776 494.393 401.811 506.511 407.584C519.194 413.769 546.68 428.539 559.545 430.97C568.342 432.631 577.051 433.68 585.717 436.088C608.988 442.554 631.014 457.335 644.685 477.258C665.284 507.275 673.588 542.02 672.241 578.125C671.902 587.192 668.825 598.308 670.536 607.031C672.528 617.186 676.933 627.491 680.273 637.303C684.378 649.616 687.955 662.099 690.995 674.717C695.323 693.301 697.642 712.493 699.028 731.507C699.944 744.072 700.352 756.676 701.681 769.209C702.271 774.766 706.668 793.363 705.913 796.441C705.8 796.902 705.726 797.077 705.577 797.483C672.693 819.278 639.256 824.327 601.938 833.393C599.654 830.652 597.388 808.669 596.197 803.467C592.95 789.294 588.703 775.554 584.98 761.531C579.815 742.076 575.347 722.088 572.01 702.243C570.964 708.714 570.779 715.297 569.789 721.793C567.598 736.157 563.933 750.319 559.692 764.206C557.123 772.617 553.985 780.947 550.944 789.202C549.082 794.26 546.976 799.247 545.823 804.529C543.004 817.445 545.551 833.17 542.729 844.591C538.216 844.191 527.124 847.051 521.942 847.857C511.221 849.543 500.463 850.98 489.677 852.168C464.962 854.963 440.168 857.009 415.33 858.307C394.966 859.472 373.932 860.552 353.545 859.686L352.61 859.781C312.389 859.514 272.332 858.231 232.301 853.966C220.215 852.679 208.046 851.459 196.025 849.669C185.119 848.045 174.205 845.855 163.236 844.733C161.14 842.68 161.112 812.96 160.011 806.334C158.972 800.091 156.297 794.024 154.099 788.123C151.684 781.721 149.412 775.266 147.287 768.763C139.277 744.005 136.421 725.767 133.703 700.143C132.077 712.537 129.307 724.587 126.52 736.763C124.53 745.46 122.668 754.232 120.31 762.838C116.904 775.281 113.048 787.514 110.035 800.078C108.294 807.239 106.945 814.489 105.993 821.798C105.516 825.356 105.428 829.094 104.714 832.599L103.56 833.136C97.0878 832.769 90.2894 830.668 83.9746 829.168C63.0163 824.188 41.1573 818.757 21.4651 809.843C13.9844 806.457 7.421 801.755 0.234537 797.888C-1.07615 793.158 3.50352 776.174 4.18027 769.753C7.0002 742.997 7.42829 716.335 12.0726 689.728C15.0146 672.87 19.8156 655.948 25.2369 639.728C28.372 630.348 34.8024 614.942 35.9136 605.971C36.6387 600.115 35.042 593.905 34.3898 588.063C33.7595 582.417 33.8351 576.648 33.8187 570.973C33.7295 540.02 40.1226 510.804 56.3618 484.149C61.8222 475.186 68.0159 466.809 75.7552 459.665C83.991 452.064 94.5557 445.94 104.7 441.186C113.498 437.064 122.712 434.708 132.242 433.037C139.381 431.786 146.359 430.91 153.175 428.306C164.047 424.152 174.52 418.47 184.975 413.355C198.298 406.836 211.726 400.558 224.891 393.721C234.439 388.761 251.937 381.357 258.494 372.961C258.606 372.818 258.714 372.672 258.823 372.528C259.394 358.201 259.859 333.867 256.354 320.317C255.449 316.818 253.07 313.606 251.708 310.238C247.281 299.297 244.01 286.864 243.298 275.055L242.818 275.362C239.971 277.225 236.914 277.064 233.639 277.159C230.838 275.797 228.708 274.32 226.634 271.985C220.838 265.461 209.285 242.57 206.254 233.903C202.087 221.987 200.11 194.894 205.825 183.258C207.261 180.333 209.47 177.794 212.627 176.718C216.015 175.564 219.881 176.256 222.966 177.939C223.584 178.281 224.194 178.64 224.795 179.013Z" fill="#F8C6A6"/>
<path d="M224.795 179.013C210.324 143.027 208.735 109.426 224.173 73.278C236.339 45.194 259.232 23.1379 287.755 12.02C325.258 -2.96323 373.055 -4.83788 410.512 11.5183C421.208 16.1887 433.895 23.9405 438.401 35.3239C439.62 38.4019 440.112 41.5192 440.302 44.8197C448.737 44.4525 455.336 46.0017 461.694 51.8555C478.875 67.6738 486.541 96.7073 487.371 119.426C487.939 134.992 485.646 166.543 476.899 179.148C480.411 176.919 484.221 175.109 488.514 175.941C491.722 176.564 494.238 178.656 495.984 181.351C502.32 191.127 500.533 217.52 497.89 228.879C495.618 238.64 480.832 270.146 472.593 275.261C470.779 276.388 468.667 277.124 466.52 276.652C464.306 276.164 462.892 274.65 461.799 272.76L461.175 271.667C459.634 283.209 457.745 294.332 454.001 305.402C452.236 310.621 448.829 315.387 447.857 320.819C445.832 332.142 445.816 344.186 445.44 355.679C445.281 360.517 445.332 365.501 444.658 370.297C447.477 374.418 450.774 377.887 454.912 380.71C459.806 384.051 465.314 386.7 470.546 389.48C482.401 395.776 494.393 401.811 506.511 407.584C519.194 413.769 546.68 428.539 559.545 430.97C568.342 432.631 577.051 433.68 585.717 436.088C608.988 442.554 631.014 457.335 644.685 477.258C665.284 507.275 673.588 542.02 672.241 578.125C671.902 587.192 668.825 598.308 670.536 607.031C672.528 617.186 676.933 627.491 680.273 637.303C684.378 649.616 687.955 662.099 690.995 674.717C695.323 693.301 697.642 712.493 699.028 731.507C699.944 744.072 700.352 756.676 701.681 769.209C702.271 774.766 706.668 793.363 705.913 796.441C705.8 796.902 705.726 797.077 705.577 797.483C699.243 790.35 696.154 729.95 694.797 716.406C693.787 705.899 692.332 695.438 690.434 685.054C687.92 671.977 684.417 658.42 680.288 645.76C676.215 633.272 671.499 621.022 667.977 608.354L666.194 607.956C666.737 604.881 667.234 601.796 667.683 598.705C673.685 555.468 666.438 510.134 639.606 474.791C626.767 457.88 605.992 444.44 585.496 438.696C572.995 435.193 559.849 433.681 547.016 431.881L547.6 431.08L554.789 431.693C550.175 429.741 545.383 428.238 540.77 426.256C518.282 416.591 495.752 405.836 474.178 394.304C467.201 390.574 459.773 387.031 453.222 382.591C449.996 380.405 447.26 377.986 444.604 375.142C444.509 387.707 445.356 396.654 448.802 408.784C439.048 390.751 442.74 361.692 443.415 341.301C441.091 342.887 439.505 344.525 437.775 346.727C432.053 354.013 426.185 360.462 419.529 366.921C414.33 371.967 408.068 377.087 403.824 382.953C402.23 385.156 401.842 388.293 400.664 390.745L399.963 390.19L401.443 385.322C397.085 387.618 392.981 390.361 388.609 392.636C378.64 397.826 365.63 402.813 354.244 402.978C338.338 403.208 324.108 396.661 311.207 387.873C307.715 385.495 304.273 383.197 301.232 380.245C302.326 383.404 303.56 386.58 304.318 389.836L303.702 390.203C302.06 387.007 301.805 383.16 299.956 380.114C296.915 375.103 277.506 363.959 271.158 357.776C268.392 355.082 265.18 348.83 261.513 347.948C261.605 366.342 263.794 387.583 256.987 404.83C258.469 395.029 260.023 385.965 259.443 375.99C251.388 382.796 242.256 387.389 233.006 392.302C219.231 399.618 205.262 406.374 191.158 413.023C177.453 419.483 163.929 426.57 149.502 431.295C149.546 432.381 149.44 431.842 149.85 432.907C118.539 435.992 88.761 446.602 68.2928 471.556C41.4752 504.248 33.0609 549.391 37.3582 590.625C37.9849 596.806 38.8574 602.961 39.9714 609.075L39.1025 608.564L38.0477 609.161C34.511 622.155 29.5096 634.641 25.5575 647.495C17.5677 673.49 12.9361 697.528 10.4941 724.578C9.1789 739.142 6.95283 787.713 0.234537 797.888C-1.07615 793.158 3.50352 776.174 4.18027 769.753C7.0002 742.997 7.42829 716.335 12.0726 689.728C15.0146 672.87 19.8156 655.948 25.2369 639.728C28.372 630.348 34.8024 614.942 35.9136 605.971C36.6387 600.115 35.042 593.905 34.3898 588.063C33.7595 582.417 33.8351 576.648 33.8187 570.973C33.7295 540.02 40.1226 510.804 56.3618 484.149C61.8222 475.186 68.0159 466.809 75.7552 459.665C83.991 452.064 94.5557 445.94 104.7 441.186C113.498 437.064 122.712 434.708 132.242 433.037C139.381 431.786 146.359 430.91 153.175 428.306C164.047 424.152 174.52 418.47 184.975 413.355C198.298 406.836 211.726 400.558 224.891 393.721C234.439 388.761 251.937 381.357 258.494 372.961C258.606 372.818 258.714 372.672 258.823 372.528C259.394 358.201 259.859 333.867 256.354 320.317C255.449 316.818 253.07 313.606 251.708 310.238C247.281 299.297 244.01 286.864 243.298 275.055L242.818 275.362C239.971 277.225 236.914 277.064 233.639 277.159C230.838 275.797 228.708 274.32 226.634 271.985C220.838 265.461 209.285 242.57 206.254 233.903C202.087 221.987 200.11 194.894 205.825 183.258C207.261 180.333 209.47 177.794 212.627 176.718C216.015 175.564 219.881 176.256 222.966 177.939C223.584 178.281 224.194 178.64 224.795 179.013Z" fill="#040202"/>
<path d="M249.062 86.4796C254.129 78.051 261.106 68.1201 268.898 62.0106C280.627 52.8151 304.575 52.1755 319.049 53.2077C329.579 53.9589 339.946 55.9711 350.542 55.9784C357.54 55.9839 364.605 55.912 371.592 55.5387C382.182 54.9732 392.506 54.0172 403.111 55.3939C419.467 57.5181 436.542 61.9113 447.115 75.7028C448.297 78.4389 449.57 82.7647 451.376 85.0456C453.013 92.9297 455.683 100.734 457.162 108.578L458.384 115.972C457.737 120.668 458.041 123.415 459.696 127.852C459.508 129.34 459.124 131.052 459.323 132.532C459.191 140.723 461.848 148.709 462.2 156.886C462.657 167.457 460.9 177.987 460.991 188.525C461.079 191.562 460.121 199.904 461.755 202.048L462.061 202.552C462.991 201.554 463.707 200.57 464.433 199.418L468.142 193.853C471.28 187.668 475.308 180.835 482.315 178.44C485.016 177.518 488.436 177.57 490.962 178.994C494.142 180.788 495.745 184.241 496.621 187.636C499.671 199.461 499.16 218.221 495.462 229.83C493.238 236.814 489.69 243.452 486.515 250.038C483.981 255.297 481.561 260.691 478.52 265.678C476.449 269.073 472.699 274.342 468.659 275.258C467.582 275.503 466.563 275.477 465.611 274.849C463.57 273.502 462.239 270.08 461.974 267.749C461.625 264.684 463.318 261.788 463.008 258.839L461.686 260.138C461.213 258.885 461.961 230.849 461.543 225.577L460.608 226.356C459.818 253.146 460.912 288.805 448.164 312.867C443.473 321.723 436.54 329.599 429.278 336.431C424.451 340.973 419.301 345.174 414.351 349.581C409.45 353.943 404.608 358.752 399.305 362.614C385.087 372.968 366.674 378.367 349.112 377.772C320.98 376.82 308.469 366.576 288.468 349.14C281.452 343.024 274.358 337.189 268.026 330.334C263.264 325.176 258.598 319.24 255.481 312.918C246.389 294.484 244.028 266.483 242.904 245.811C242.504 238.463 242.947 230.726 241.782 223.472C240.353 235.528 242.1 247.675 241.656 259.77L241.457 259.053C241.763 262.815 242.451 266.43 242.932 270.164L242.022 269.664C241.032 269.649 239.23 273.232 238.076 274.116C237.042 274.907 235.761 275.126 234.5 274.939C231.227 274.455 228.802 271.576 226.903 269.087C222.653 263.518 219.69 256.971 216.621 250.707C213.737 244.822 210.425 238.848 208.193 232.691C203.846 220.7 203.353 205.598 205.101 193.066C205.767 188.291 206.851 182.922 211.038 179.943C213.194 178.408 215.961 177.632 218.574 178.235C220.801 178.749 222.77 179.969 224.377 181.575C227.309 184.506 229.317 188.502 231.763 191.831C234.919 196.129 238.462 200.094 241.294 204.64L241.515 205L241.601 201.402C241.663 199.624 241.62 197.907 241.478 196.133C241.474 186.731 241.481 177.125 242.102 167.745C242.436 162.728 243.556 157.8 244.024 152.8C244.748 145.069 245.104 137.272 245.788 129.525C246.511 124.859 246.466 116.655 244.721 112.377L244.789 111.905C244.994 111.34 244.96 110.818 244.98 110.224C246.381 106.179 247.598 102.199 248.13 97.9375C249.414 95.0603 249.244 89.6173 249.062 86.4796Z" fill="#F8C6A6"/>
<path d="M460.991 188.525C461.079 191.562 460.121 199.904 461.755 202.048L462.061 202.552C461.447 205.126 461.372 207.898 461.13 210.532C459.85 203.908 460.263 195.26 460.991 188.525Z" fill="#71411E"/>
<path d="M460.608 226.356C460.605 224.546 460.368 222.436 461.074 220.746C461.675 222.263 461.536 223.966 461.543 225.577L460.608 226.356Z" fill="#9A572F"/>
<path d="M257.962 164.658C260.691 154.995 265.318 145.86 273.56 139.778C282.886 132.896 297.11 132.361 308.113 133.975C316.707 135.235 324.803 137.891 330.171 145.149C331.489 146.942 332.45 148.773 332.5 151.038L331.99 151.881C330.931 151.93 330.295 151.705 329.317 151.314C311.723 149.825 294.047 145.512 276.591 150.744C268.107 153.286 262.228 156.724 257.962 164.658Z" fill="#B57F4D"/>
<path d="M257.962 164.658C260.691 154.995 265.318 145.86 273.56 139.778C282.886 132.896 297.11 132.361 308.113 133.975C316.707 135.235 324.803 137.891 330.171 145.149C330.017 145.096 329.858 145.055 329.709 144.99C326.054 143.407 322.914 139.764 319.137 137.978C309.648 133.493 291.993 133.564 282.052 137.004C273.739 139.882 266.987 146.34 263.172 154.249C262.833 154.944 262.512 155.65 262.21 156.362C275.397 147.801 288.27 145.736 303.741 146.133C309.604 146.285 315.516 146.583 321.269 147.802C323.359 148.244 327.55 149.165 328.966 150.761C329.111 150.924 329.201 151.129 329.317 151.314C311.723 149.825 294.047 145.512 276.591 150.744C268.107 153.286 262.228 156.724 257.962 164.658Z" fill="#040202"/>
<path d="M381.635 138.286C391.278 132.355 406.596 132.019 417.383 134.655C427.354 137.092 434.909 142.718 440.229 151.506C441.898 154.263 443.13 157.075 444.028 160.168C442.72 158.962 441.438 157.665 439.989 156.631C424.702 147.868 407.954 146.931 390.774 149.291C385.431 150.026 379.086 151.569 373.739 151.065L373.657 150.058C373.413 149.82 372.984 149.418 372.785 149.162C372.15 148.343 372.208 147.966 372.476 146.983C373.455 143.377 378.472 139.999 381.635 138.286Z" fill="#B57F4D"/>
<path d="M373.739 151.065C388.192 143.881 414.371 144.83 429.216 149.882C433.153 151.222 436.877 153.45 440.586 155.315L439.989 156.631C424.702 147.868 407.954 146.931 390.774 149.291C385.431 150.026 379.086 151.569 373.739 151.065Z" fill="#040202"/>
<path d="M381.635 138.286C391.278 132.355 406.596 132.019 417.383 134.655C427.354 137.092 434.909 142.718 440.229 151.506C441.898 154.263 443.13 157.075 444.028 160.168C442.72 158.962 441.438 157.665 439.989 156.631L440.586 155.315C439.07 149.611 432.725 143.324 427.828 140.293C416.151 133.068 401.908 133.536 388.982 136.269C386.642 136.764 384.424 137.729 382.138 138.203C381.971 138.238 381.803 138.258 381.635 138.286Z" fill="#040202"/>
<path d="M268.359 189.733C275.42 180.616 283.114 172.347 295.108 170.739C303.067 169.672 313.119 172.078 319.443 177.11C322.812 179.791 324.685 183.056 326.349 186.926L326.978 189.651C326.108 189.903 310.201 191.399 309.891 191.296C308.995 191.214 308.156 191.019 307.281 190.815C304.213 192.086 300.312 191.641 297.085 191.159C296.822 191.282 296.569 191.43 296.296 191.529C292.153 193.02 285.696 190.676 281.942 188.919C281.278 188.741 281.327 188.802 280.674 188.381C279.299 187.495 279.041 186.536 278.743 185.018C278.57 184.138 278.418 183.308 278.126 182.456L277.87 181.725C274.512 184.196 271.729 187.301 268.359 189.733Z" fill="#040202"/>
<path d="M297.015 175.054C300.278 174.318 301.893 174.087 305.022 175.478C307.51 177.205 309.662 178.855 310.265 181.998C310.877 185.195 309.453 187.857 307.624 190.354L307.281 190.815C304.213 192.086 300.312 191.641 297.085 191.159C295.708 190.189 294.407 189.273 293.469 187.844C292.19 185.898 291.609 183.502 292.116 181.207C292.749 178.34 294.603 176.546 297.015 175.054Z" fill="#040202"/>
<path d="M298.954 175.848C300.177 175.787 301.388 175.727 302.583 176.047C304.853 176.653 306.95 178.173 308.042 180.28C308.895 181.905 309.039 183.81 308.44 185.546C307.597 187.982 305.788 189.234 303.594 190.372C302.186 190.406 300.572 190.56 299.215 190.129C297.097 189.458 295.083 187.682 294.113 185.694C293.291 184.011 293.168 182.137 293.857 180.386C294.79 178.011 296.747 176.868 298.954 175.848Z" fill="#466871"/>
<path d="M299.651 177.553C300.138 177.518 300.624 177.47 301.111 177.473C302.577 177.486 304.083 178.23 305.073 179.304C306.102 180.422 306.493 181.968 306.357 183.456C306.14 185.82 304.876 187.179 303.101 188.6C300.997 188.613 298.268 188.45 296.746 186.782C295.96 185.92 295.646 184.796 295.742 183.647C295.958 181.032 297.805 179.196 299.651 177.553Z" fill="#040202"/>
<path d="M281.942 188.919C281.06 187.591 280.106 186.436 280.231 184.746C280.389 182.624 282.078 180.641 283.662 179.378C287.044 176.685 292.617 174.634 297.015 175.054C294.603 176.546 292.749 178.34 292.116 181.207C291.609 183.502 292.19 185.898 293.469 187.844C294.407 189.273 295.708 190.189 297.085 191.159C296.822 191.282 296.569 191.43 296.296 191.529C292.153 193.02 285.696 190.676 281.942 188.919Z" fill="white"/>
<path d="M305.022 175.478C306.961 174.712 309.502 175.784 311.322 176.581C315.601 178.453 319.668 181.647 322.322 185.475C321.391 186.615 320.488 187.762 319.432 188.792C321.468 188.786 323.441 188.882 325.418 188.326L325.839 187.318L326.349 186.926L326.978 189.651C326.108 189.903 310.201 191.399 309.891 191.296C308.995 191.214 308.156 191.019 307.281 190.815L307.624 190.354C309.453 187.857 310.877 185.195 310.265 181.998C309.662 178.855 307.51 177.205 305.022 175.478Z" fill="white"/>
<path d="M326.349 186.926L326.978 189.651C326.108 189.903 310.201 191.399 309.891 191.296C312.611 189.65 316.336 189.269 319.432 188.792C321.468 188.786 323.441 188.882 325.418 188.326L325.839 187.318L326.349 186.926Z" fill="#9A572F"/>
<path d="M277.87 181.725C285.128 175.151 292.79 173.198 302.424 173.654C308.941 173.962 315.882 175.289 320.542 180.279C322.511 182.389 324.159 184.97 325.839 187.318L325.418 188.326C323.441 188.882 321.468 188.786 319.432 188.792C320.488 187.762 321.391 186.615 322.322 185.475C319.668 181.647 315.601 178.453 311.322 176.581C309.502 175.784 306.961 174.712 305.022 175.478C301.893 174.087 300.278 174.318 297.015 175.054C292.617 174.634 287.044 176.685 283.662 179.378C282.078 180.641 280.389 182.624 280.231 184.746C280.106 186.436 281.06 187.591 281.942 188.919C281.278 188.741 281.327 188.802 280.674 188.381C279.299 187.495 279.041 186.536 278.743 185.018C278.57 184.138 278.418 183.308 278.126 182.456L277.87 181.725Z" fill="#EBB18C"/>
<path d="M376.577 224.81C381.17 230.519 386.175 237.146 385.362 244.941C385.094 247.512 384.089 249.72 382.028 251.334C380.228 252.742 378.272 253.282 376.039 253.605C372.01 254.516 370.64 257.106 367.362 259.199C360.122 263.822 346.002 263.737 337.955 261.928C333.822 260.998 327.531 258.533 325.215 254.799C325.324 254.105 325.452 253.584 325.234 252.894C325.192 252.762 325.128 252.638 325.075 252.51C322.46 250.081 320.762 247.271 320.482 243.642C319.965 236.972 323.865 231.468 327.945 226.645C326.41 229.532 324.745 232.475 323.572 235.528C322.144 239.247 321.394 243.496 323.168 247.238C324.199 249.411 325.971 251.408 328.331 252.099C332.515 253.324 330.989 249.733 334.888 247.615C335.58 247.482 336.205 247.316 336.854 247.037C343.994 243.974 352.145 243.532 359.851 243.618C364.12 243.667 369.125 243.374 372.306 246.613L372.257 247.36C372.517 247.489 372.779 247.613 373.035 247.748C373.939 248.225 374.27 248.695 374.808 249.526C375.589 250.728 376.323 251.591 377.699 252.099C379.885 251.65 381.293 249.679 382.534 247.899C382.935 247.326 383.258 246.717 383.59 246.102C383.829 236.533 380.747 232.946 376.577 224.81Z" fill="#EBB18C"/>
<path d="M334.888 247.615C335.58 247.482 336.205 247.316 336.854 247.037C343.994 243.974 352.145 243.532 359.851 243.618C364.12 243.667 369.125 243.374 372.306 246.613L372.257 247.36L371.621 247.366C364.233 247.498 359.415 253.21 353.299 253.135C347.398 253.061 342.534 247.784 334.888 247.615Z" fill="#EBB18C"/>
<path d="M376.577 224.81C381.17 230.519 386.175 237.146 385.362 244.941C385.094 247.512 384.089 249.72 382.028 251.334C380.228 252.742 378.272 253.282 376.039 253.605C374.377 253.201 373.061 253.229 371.999 251.813L371.701 252.124L371.707 252.051C372.574 251.542 372.957 251.316 373.582 250.499C372.928 249.71 372.699 249.369 371.683 249.051C367.554 247.757 360.262 252.508 356.768 254.441C354.975 254.497 352.95 254.7 351.184 254.39C346.048 253.488 342.065 249.326 336.716 249.046C335.48 248.981 335.093 249.199 334.199 250.007C333.852 251.395 333.699 252.643 332.564 253.624C330.113 254.456 327.374 253.423 325.075 252.51C322.46 250.081 320.762 247.271 320.482 243.642C319.965 236.972 323.865 231.468 327.945 226.645C326.41 229.532 324.745 232.475 323.572 235.528C322.144 239.247 321.394 243.496 323.168 247.238C324.199 249.411 325.971 251.408 328.331 252.099C332.515 253.324 330.989 249.733 334.888 247.615C342.534 247.784 347.398 253.061 353.299 253.135C359.415 253.21 364.233 247.498 371.621 247.366L372.257 247.36C372.517 247.489 372.779 247.613 373.035 247.748C373.939 248.225 374.27 248.695 374.808 249.526C375.589 250.728 376.323 251.591 377.699 252.099C379.885 251.65 381.293 249.679 382.534 247.899C382.935 247.326 383.258 246.717 383.59 246.102C383.829 236.533 380.747 232.946 376.577 224.81Z" fill="#040202"/>
<path d="M382.079 179.956C387.362 174.317 396.024 170.654 403.76 170.443C413.335 170.182 421.506 174.373 428.288 180.85C431.158 183.592 433.931 186.581 436.421 189.675C433.495 187.756 430.89 185.485 428.232 183.217C427.347 184.795 426.331 187.73 424.508 188.312C423.592 188.604 422.63 188.691 421.675 188.731C418.203 190.343 412.744 192.272 408.934 191.023C408.726 190.954 408.537 190.84 408.338 190.748C404.964 191.785 400.843 191.492 397.572 190.327C395.824 191.044 392.55 189.616 390.546 189.493C389.37 189.822 388.356 189.783 387.155 189.747C385.436 189.695 380.3 189.763 379.129 188.517C380.467 187.819 381.863 188.043 383.321 188.107C382.926 187.444 382.645 186.732 382.334 186.026C382.334 185.075 382.394 184.522 382.831 183.65C384.872 179.57 392.489 176.887 396.607 175.509L395.205 174.176C390.22 175.934 386.367 177.403 382.904 181.623L382.079 179.956Z" fill="#040202"/>
<path d="M382.079 179.956C387.362 174.317 396.024 170.654 403.76 170.443C413.335 170.182 421.506 174.373 428.288 180.85C431.158 183.592 433.931 186.581 436.421 189.675C433.495 187.756 430.89 185.485 428.232 183.217C427.347 184.795 426.331 187.73 424.508 188.312C423.592 188.604 422.63 188.691 421.675 188.731C418.203 190.343 412.744 192.272 408.934 191.023C408.726 190.954 408.537 190.84 408.338 190.748C409.155 190.016 409.998 189.278 410.73 188.459C412.158 186.859 413.023 184.466 412.878 182.32C412.671 179.288 410.957 177.255 408.791 175.318C405.518 174.226 403.24 174.462 399.943 175.089C398.648 174.995 397.832 175.167 396.607 175.509L395.205 174.176C390.22 175.934 386.367 177.403 382.904 181.623L382.079 179.956Z" fill="url(#paint0_linear_144_212)"/>
<path d="M408.791 175.318C413.325 175.428 419.421 177.998 422.545 181.272C423.489 182.261 424.453 183.727 424.402 185.148C424.34 186.883 422.961 187.805 421.675 188.731C418.203 190.343 412.744 192.272 408.934 191.023C408.726 190.954 408.537 190.84 408.338 190.748C409.155 190.016 409.998 189.278 410.73 188.459C412.158 186.859 413.023 184.466 412.878 182.32C412.671 179.288 410.957 177.255 408.791 175.318Z" fill="white"/>
<path d="M395.205 174.176C406.566 173.28 417.146 173.279 426.223 181.28C426.916 181.901 427.587 182.547 428.232 183.217C427.347 184.795 426.331 187.73 424.508 188.312C423.592 188.604 422.63 188.691 421.675 188.731C422.961 187.805 424.34 186.883 424.402 185.148C424.453 183.727 423.489 182.261 422.545 181.272C419.421 177.998 413.325 175.428 408.791 175.318C405.518 174.226 403.24 174.462 399.943 175.089C398.648 174.995 397.832 175.167 396.607 175.509L395.205 174.176Z" fill="#EBB18C"/>
<path d="M396.607 175.509C397.832 175.167 398.648 174.995 399.943 175.089C397.418 176.743 395.452 178.531 394.746 181.59C394.197 183.966 394.785 186.612 396.193 188.586C396.622 189.189 397.094 189.763 397.572 190.327C395.824 191.044 392.55 189.616 390.546 189.493C389.37 189.822 388.356 189.783 387.155 189.747C385.436 189.695 380.3 189.763 379.129 188.517C380.467 187.819 381.863 188.043 383.321 188.107C382.926 187.444 382.645 186.732 382.334 186.026C382.334 185.075 382.394 184.522 382.831 183.65C384.872 179.57 392.489 176.887 396.607 175.509Z" fill="white"/>
<path d="M390.546 189.493C389.37 189.822 388.356 189.783 387.155 189.747C385.436 189.695 380.3 189.763 379.129 188.517C380.467 187.819 381.863 188.043 383.321 188.107C385.738 188.507 388.184 188.834 390.546 189.493Z" fill="#9A572F"/>
<path d="M401.902 175.841C403.141 175.783 404.352 175.742 405.571 176.017C407.598 176.475 409.313 177.542 410.415 179.33C411.363 180.869 411.622 182.599 411.176 184.349C410.495 187.028 408.681 188.562 406.392 189.904C405.02 190.006 403.223 190.286 401.88 189.972C399.983 189.528 398.304 188.417 397.243 186.763C396.237 185.194 395.964 183.359 396.446 181.561C397.251 178.565 399.308 177.22 401.902 175.841Z" fill="#466871"/>
<path d="M402.908 177.034C403.466 177.042 404.261 177.001 404.817 177.158C406.173 177.542 407.536 178.54 408.302 179.727C409.139 181.026 409.305 182.652 408.956 184.14C408.464 186.238 407.124 187.016 405.421 188.115C404.768 188.128 404.113 188.14 403.461 188.107C401.943 188.031 400.662 187.386 399.742 186.13C398.874 184.944 398.711 183.541 398.971 182.138C399.446 179.568 400.85 178.478 402.908 177.034Z" fill="#040202"/>
<path d="M403.232 285.843L403.365 285.943L403.283 286.528C401.357 287.672 399.242 289.145 397.039 289.634C396.819 289.682 396.596 289.718 396.375 289.763C389.491 291.147 381.867 290.794 374.838 291.295C366.708 291.875 358.474 293.217 350.325 293.206C341.808 293.195 333.139 291.795 324.64 291.117C318.627 290.636 312.268 290.909 306.361 289.646C304.583 289.266 303.1 288.355 301.567 287.416C301.151 286.838 301.348 287.198 301.089 286.285C303.652 285.311 316.46 288.454 320.076 288.972C329.098 290.267 338.774 291.229 347.884 291.457C358.526 291.722 371.538 290.489 382.102 288.987C389.148 287.986 396.148 286.546 403.232 285.843Z" fill="#040202"/>
<path d="M473.287 210.128C478.242 202.579 481.019 193.315 487.626 186.85C488.892 185.611 489.98 184.878 491.818 184.88C492.608 185.203 493.002 185.438 493.561 186.115C495.456 188.411 495.707 192.346 495.443 195.158C495.052 192.939 493.913 189.638 492.892 187.635C492.331 186.539 491.875 186.249 490.735 185.917C488.305 186.713 486.327 190.545 484.92 192.582C489.531 197.371 492.089 202.125 493.212 208.72L492.565 210.582L492.176 210.65C491.286 203.778 488.81 198.799 484.05 193.855C480 199.407 477.753 205.918 473.886 211.581C475.634 215.166 478.027 218.834 479.194 222.63C476.948 229.934 471.425 238.579 468.379 246.339L467.577 247.604C467.705 239.902 474.401 230.783 477.457 223.806L477.668 223.313C475.762 216.394 471.879 212.292 471.387 204.523L473.287 210.128Z" fill="#040202"/>
<path d="M208.52 190.069C208.845 188.377 208.935 186.876 210.203 185.626C211.489 185.092 212.22 184.795 213.596 185.436C218.676 187.801 227.432 203.311 229.137 208.994C229.298 209.534 229.427 210.076 229.546 210.626L229.23 210.705C225.45 205.676 223.047 199.555 219.592 194.257C215.522 199.074 212.924 203.143 211.381 209.327L210.349 208.718C211.192 202.289 214.562 197.852 218.918 193.374C217.737 191.576 216.172 188.523 214.404 187.322C213.253 186.539 212.97 186.607 211.662 186.77C210.24 187.758 209.922 189.595 209.425 191.175L208.52 190.069Z" fill="#040202"/>
<path d="M400.283 163.207C407.901 162.656 414.317 163.787 421.511 166.277C418.912 166.465 415.797 165.533 413.176 165.129C405.456 163.88 397.547 164.549 390.146 167.074C384.155 170.133 379.658 173.983 374.223 177.844C381.769 169.527 388.973 164.638 400.283 163.207Z" fill="#040202"/>
<path d="M293.782 163.19C296.981 162.824 300.496 162.938 303.699 163.243C314.255 164.247 323.021 168.852 329.742 177.09L323.532 172.519C323.268 172.315 323.001 172.116 322.731 171.92C310.402 163.041 297.505 163.834 283.153 166.156C286.624 164.723 290.077 163.77 293.782 163.19Z" fill="#040202"/>
<path d="M234.98 246.218C233.071 241.528 224.451 224.807 225.597 221.049C226.841 216.967 230.274 212.282 232.222 208.372C232.824 214.388 226.687 217.848 227.046 223.124C227.346 227.53 231.088 233.183 232.784 237.321C234.012 240.32 234.942 243.35 235.755 246.483L234.98 246.218Z" fill="#040202"/>
<path d="M366.572 163.288C366.699 165.915 364.623 173.471 364.112 176.64C363.028 183.355 362.613 189.953 362.631 196.74C362.849 201.588 363.103 207.031 362.37 211.83C361.646 209.293 361.33 205.389 361.331 202.709C361.054 189.419 361.609 175.793 366.572 163.288Z" fill="#040202"/>
<path d="M362.631 196.74C362.849 201.588 363.103 207.031 362.37 211.83C361.646 209.293 361.33 205.389 361.331 202.709L361.889 203.28C362.733 201.974 362.528 198.42 362.631 196.74Z" fill="#C3845D"/>
<path d="M338.318 162.269C342.643 171.816 343.542 184.351 344.093 194.773C344.874 199.412 344.475 204.129 343.907 208.771C343.756 207.096 343.462 205.307 343.573 203.629C342.704 198.326 342.65 192.727 342.144 187.358C341.377 178.925 340.099 170.547 338.318 162.269Z" fill="#040202"/>
<path d="M344.093 194.773C344.874 199.412 344.475 204.129 343.907 208.771C343.756 207.096 343.462 205.307 343.573 203.629C344.211 200.738 344.065 197.722 344.093 194.773Z" fill="#7C4F3D"/>
<path d="M372.135 308.48C373.011 308.327 374.006 308.405 374.899 308.39C367.703 312.336 345.637 311.163 337.553 310.038C335.931 309.766 334.4 309.303 332.827 308.832C337.865 308.622 343.071 309.434 348.132 309.607C356.177 309.881 364.14 309.302 372.135 308.48Z" fill="#040202"/>
<path d="M235.755 246.483C235.97 247.29 236.009 246.903 235.647 247.646C232.603 248.196 228.402 247.908 225.722 246.317C221.573 243.855 220.075 238.641 219.068 234.234C221.158 238.205 223.568 244.083 227.848 246.116C229.385 246.846 233.002 247.224 234.557 246.494C234.709 246.423 234.838 246.31 234.98 246.218L235.755 246.483Z" fill="#9A572F"/>
<path d="M286.752 204.129C286.993 204.118 287.234 204.108 287.475 204.092C291.416 203.848 307.152 199.273 309.194 200.315C302.898 202.217 296.523 204.407 289.865 204.505L286.752 204.129Z" fill="#5B2B17"/>
<path d="M291.027 267.771L291.285 269.101C288.194 273.73 283.784 280.254 283.292 285.873C283.204 286.877 282.895 286.844 282.164 287.484C281.413 282.221 288.136 271.927 291.027 267.771Z" fill="#3F2513"/>
<path d="M391.818 199.51C398.999 201.443 406.052 203.126 413.411 204.272C405.846 204.97 398.452 203.066 391.818 199.51Z" fill="#5B2B17"/>
<path d="M413.611 269.356C416.986 274.159 421.909 280.99 421.683 287.133C419.414 280.925 416.414 275.802 413.213 270.08L413.611 269.356Z" fill="#3F2513"/>
<path d="M468.379 246.339C469.752 247.461 471.025 247.137 472.733 246.923C476.252 246.483 479.157 243.639 481.109 240.891C481.748 239.991 482.414 239.114 483.082 238.234C481.66 241.522 480.489 245.062 476.936 246.585C474.067 247.814 470.635 247.482 467.577 247.604L468.379 246.339Z" fill="#71411E"/>
<path d="M210.349 208.718L211.381 209.327C211.146 214.39 211.103 219.438 210.705 224.495C209.893 219.398 209.667 213.838 210.349 208.718Z" fill="#71411E"/>
<path d="M291.027 267.771C292.486 265.816 294.143 264.25 295.927 262.608L296.494 262.818C295.524 265.133 292.934 267.177 291.285 269.101L291.027 267.771Z" fill="#EBB18C"/>
<path d="M382.079 179.956L382.904 181.623C381.893 183.842 380.008 185.897 378.536 187.846C379.507 184.977 380.438 182.523 382.079 179.956Z" fill="#3F2513"/>
<path d="M493.212 208.72C493.44 211.871 493.494 215 493.512 218.158L492.449 215.582C492.582 213.983 492.301 212.251 492.176 210.65L492.565 210.582L493.212 208.72Z" fill="#5B2B17"/>
<path d="M492.449 215.582L493.512 218.158C493.548 220.228 493.555 222.185 493.228 224.241C491.911 222.374 492.429 217.803 492.449 215.582Z" fill="#EBB18C"/>
<path d="M208.52 190.069L209.425 191.175C208.684 193.674 208.032 196.173 206.838 198.502C207.276 195.642 207.808 192.874 208.52 190.069Z" fill="#5B2B17"/>
<path d="M413.213 270.08C411.297 267.566 409.324 265.084 407.63 262.41C409.982 264.05 411.997 267.004 413.611 269.356L413.213 270.08Z" fill="#B57F4D"/>
<path d="M289.865 204.505C287.873 205.049 285.906 205.005 283.935 204.44C285.092 203.954 285.521 204.066 286.752 204.129L289.865 204.505Z" fill="#EBB18C"/>
<path d="M241.601 201.402C241.066 201.164 240.643 200.989 240.207 200.585C223.618 185.215 215.224 145.492 215.558 123.557C216.308 90.0707 230.261 58.2356 254.378 34.9839C259.257 30.3075 264.783 26.8468 270.577 23.4441C296.159 8.41972 326.171 1.96638 355.691 2.82089C378.934 3.49367 413.45 9.90048 429.798 27.3389C435.541 33.4641 437.555 39.2604 437.295 47.6561L438.581 48.3661C437.436 53.4317 436.352 58.5115 435.329 63.603C439.848 67.0384 444.905 70.2571 448.648 74.5656C455.776 82.7711 464.023 103.719 467.131 114.329C461.565 103.534 455.179 83.7499 447.115 75.7028C436.542 61.9113 419.467 57.5181 403.111 55.3939C392.506 54.0172 382.182 54.9732 371.592 55.5387C364.605 55.912 357.54 55.9839 350.542 55.9784C339.946 55.9711 329.579 53.9589 319.049 53.2077C304.575 52.1755 280.627 52.8151 268.898 62.0106C261.106 68.1201 254.129 78.051 249.062 86.4796C249.244 89.6173 249.414 95.0603 248.13 97.9375C247.598 102.199 246.381 106.179 244.98 110.224C244.96 110.818 244.994 111.34 244.789 111.905L244.721 112.377C246.466 116.655 246.511 124.859 245.788 129.525C245.104 137.272 244.748 145.069 244.024 152.8C243.556 157.8 242.436 162.728 242.102 167.745C241.481 177.125 241.474 186.731 241.478 196.133C241.62 197.907 241.663 199.624 241.601 201.402Z" fill="#B57F4D"/>
<path d="M425.678 58.699C424.299 51.8144 422.412 44.9433 419.475 38.5419C417.832 34.961 414.872 31.5876 414.05 27.7128C414.217 27.8366 414.417 27.9244 414.549 28.0844C420.729 35.5767 425.737 49.3707 426.593 59.0168C429.14 60.6712 431.826 62.1544 434.442 63.6968C434.781 58.3776 436.098 52.8424 437.295 47.6561L438.581 48.3661C437.436 53.4317 436.352 58.5115 435.329 63.603C439.848 67.0384 444.905 70.2571 448.648 74.5656C455.776 82.7711 464.023 103.719 467.131 114.329C461.565 103.534 455.179 83.7499 447.115 75.7028C436.542 61.9113 419.467 57.5181 403.111 55.3939C392.506 54.0172 382.182 54.9732 371.592 55.5387C364.605 55.912 357.54 55.9839 350.542 55.9784C339.946 55.9711 329.579 53.9589 319.049 53.2077C304.575 52.1755 280.627 52.8151 268.898 62.0106C261.106 68.1201 254.129 78.051 249.062 86.4796C244.471 92.2441 239.16 99.8359 235.045 105.965C233.481 108.295 232.337 111.72 230.451 113.643L230.081 113.079L230.393 113.648C230.395 113.457 230.408 112.111 230.432 111.938C230.924 108.368 246.742 88.1058 249.698 83.8218C252.308 80.0378 254.531 75.9313 257.38 72.3239C260.501 68.375 264.046 64.2021 268.087 61.1574C282.307 50.4421 307.366 50.7658 324.442 52.302C333.431 53.1103 342.31 54.7419 351.355 54.741C357.184 54.7401 363.098 54.8412 368.912 54.4524C375.935 53.9826 382.872 52.9318 389.933 52.9491C395.661 52.9637 401.249 53.6411 406.908 54.4305L407.887 54.6318C413.855 55.8163 419.788 57.173 425.678 58.699Z" fill="#20130A"/>
<path d="M241.478 196.133C239.657 191.322 240.249 171.761 240.837 166.202C241.402 160.873 242.636 155.622 243.074 150.277C243.564 144.313 243.269 133.307 245.269 128.059L245.788 129.525C245.104 137.272 244.748 145.069 244.024 152.8C243.556 157.8 242.436 162.728 242.102 167.745C241.481 177.125 241.474 186.731 241.478 196.133Z" fill="#3F2513"/>
<path d="M406.908 54.4305L406.638 53.8222C403.163 46.1148 397.507 38.5563 392.109 32.069C391.111 30.8691 389.18 29.3126 388.783 27.8227L389.298 27.6927C397.337 34.887 403.463 44.905 407.887 54.6318L406.908 54.4305Z" fill="#71411E"/>
<path d="M237.202 131.557C238.557 124.888 241.464 117.757 244.12 111.474L244.789 111.905L244.721 112.377C242.416 119.007 240.586 125.34 237.202 131.557Z" fill="#3F2513"/>
<path d="M244.98 110.224L244.461 109.089C245.027 105.436 246.016 101.328 247.32 97.87L248.13 97.9375C247.598 102.199 246.381 106.179 244.98 110.224Z" fill="#71411E"/>
<path d="M296.37 30.3185C300.984 29.6779 306.186 30.6301 310.681 31.6142C329.113 35.6495 340.947 43.1957 356.985 52.1005C353.929 52.279 352.305 50.8857 349.887 49.2809C344.255 47.0301 338.909 43.2149 333.44 40.5081C317.231 32.4861 301.713 31.4422 284.067 32.4616C288.205 31.3201 292.088 30.6544 296.37 30.3185Z" fill="#3F2513"/>
<path d="M351.316 25.7922C365.37 30.1721 380.794 39.0875 390.137 50.6092L390.378 50.9119C378.314 41.6465 366.439 31.1335 351.27 27.2458C350.928 26.6416 351.153 26.4413 351.316 25.7922Z" fill="#3F2513"/>
<path d="M271.882 54.0208C272.423 53.8706 272.755 53.8952 273.308 53.9279C271.102 55.8528 254.053 57.824 248.883 59.9482C246.554 60.9043 244.666 62.2628 242.683 63.7715L242.373 63.9727L241.917 63.6531C242.251 63.0777 242.24 63.0476 242.73 62.4667C246.983 57.4234 265.492 54.5462 271.882 54.0208Z" fill="#71411E"/>
<path d="M250.057 77.8433L250.475 78.5271C245.052 85.3705 237.867 90.7043 232.424 97.6761L231.904 97.1207C232.713 93.4185 246.331 81.3898 250.057 77.8433Z" fill="#71411E"/>
<path d="M279.245 38.0812C287.949 39.7762 297.044 41.9019 305.228 45.3583C296.526 43.697 288.048 40.9668 279.36 39.3827L279.245 38.0812Z" fill="#3F2513"/>
<path d="M347.423 25.0961C348.608 25.2309 350.296 25.222 351.316 25.7922C351.153 26.4413 350.928 26.6416 351.27 27.2458C349.326 27.5067 340.839 26.8514 338.793 26.3583C339.612 25.4854 340.612 25.4859 341.733 25.3272C343.634 25.8709 345.538 25.5441 347.423 25.0961Z" fill="#9A572F"/>
<path d="M262.702 63.3653L263.083 63.4655C262.774 65.0215 249.106 69.5823 246.814 71.1347L246.128 70.9289C248.141 68.4205 259.326 64.4625 262.702 63.3653Z" fill="#71411E"/>
<path d="M279.36 39.3827C276.058 39.5264 272.752 39.7756 269.459 39.3936C271.894 38.7419 276.817 37.1062 279.245 38.0812L279.36 39.3827Z" fill="#9A572F"/>
<path d="M325.331 22.6583C325.769 22.7427 326.553 22.8803 326.953 23.0216C328.264 23.4841 328.328 24.0052 328.889 25.1902C328.761 26.3178 328.937 26.337 328.095 27.2033L326.801 27.0798L326.179 26.7384C326.922 26.4633 327.196 26.4649 327.722 25.846L327.16 25.1143C326.163 24.8425 325.767 24.8107 325.019 24.0597L325.331 22.6583Z" fill="#C3845D"/>
<path d="M259.517 323.835C269.466 337.245 283.461 348.349 295.984 359.357C312.914 374.239 333.882 381.847 356.556 380.306C371.927 379.262 388.1 374.404 400.532 365.118C406.675 360.53 412.122 355.068 417.807 349.939C423.235 345.04 428.947 340.407 434.104 335.22C438.141 331.16 441.634 326.764 445.396 322.475C444.44 328.712 443.979 335.019 443.415 341.301C441.091 342.887 439.505 344.525 437.775 346.727C432.053 354.013 426.185 360.462 419.529 366.921C414.33 371.967 408.068 377.087 403.824 382.953C402.23 385.156 401.842 388.293 400.664 390.745L399.963 390.19L401.443 385.322C397.085 387.618 392.981 390.361 388.609 392.636C378.64 397.826 365.63 402.813 354.244 402.978C338.338 403.208 324.108 396.661 311.207 387.873C307.715 385.495 304.273 383.197 301.232 380.245C302.326 383.404 303.56 386.58 304.318 389.836L303.702 390.203C302.06 387.007 301.805 383.16 299.956 380.114C296.915 375.103 277.506 363.959 271.158 357.776C268.392 355.082 265.18 348.83 261.513 347.948C260.526 339.968 260.537 331.858 259.517 323.835Z" fill="#EBB18C"/>
<path d="M438.581 48.3661C445.285 47.088 450.823 47.2278 456.747 51.133C471.993 61.1847 480.103 86.0234 483.209 102.973C486.511 120.992 485.263 139.245 482.17 157.184C481.319 162.118 480.588 167.14 478.803 171.84C476.032 179.133 470.995 185.59 467.708 192.74L468.142 193.853L464.433 199.418C463.707 200.57 462.991 201.554 462.061 202.552L461.755 202.048C460.121 199.904 461.079 191.562 460.991 188.525C460.9 177.987 462.657 167.457 462.2 156.886C461.848 148.709 459.191 140.723 459.323 132.532C459.124 131.052 459.508 129.34 459.696 127.852C458.041 123.415 457.737 120.668 458.384 115.972L457.162 108.578C455.683 100.734 453.013 92.9297 451.376 85.0456C449.57 82.7647 448.297 78.4389 447.115 75.7028C455.179 83.7499 461.565 103.534 467.131 114.329C464.023 103.719 455.776 82.7711 448.648 74.5656C444.905 70.2571 439.848 67.0384 435.329 63.603C436.352 58.5115 437.436 53.4317 438.581 48.3661Z" fill="#B57F4D"/>
<path d="M459.323 132.532L459.901 132.52C461.513 140.242 463.087 148.601 463.428 156.462C463.849 166.176 462.896 176.164 462.428 185.875C462.173 191.167 462.377 196.814 461.755 202.048C460.121 199.904 461.079 191.562 460.991 188.525C460.9 177.987 462.657 167.457 462.2 156.886C461.848 148.709 459.191 140.723 459.323 132.532Z" fill="#20130A"/>
<path d="M451.376 85.0456C455.153 89.9987 455.4 100.023 458.138 106.172C460.023 110.406 462.936 113.743 465.897 117.243L465.021 117.668C462.418 114.624 459.798 111.594 457.162 108.578C455.683 100.734 453.013 92.9297 451.376 85.0456Z" fill="#3F2513"/>
<path d="M458.384 115.972C459.797 119.475 458.747 122.123 460.711 126.178C461.072 126.922 462.415 128.996 462.249 129.729C461.396 129.122 460.479 128.546 459.696 127.852C458.041 123.415 457.737 120.668 458.384 115.972Z" fill="#71411E"/>
<path d="M465.897 117.243C467.061 118.38 468.583 119.565 469.097 121.133C467.891 121.05 467.127 120.125 466.35 119.244C465.9 118.724 465.457 118.199 465.021 117.668L465.897 117.243Z" fill="#9A572F"/>
<path d="M467.708 192.74L468.142 193.853L464.433 199.418C464.644 197.103 466.489 194.706 467.708 192.74Z" fill="#3F2513"/>
<path d="M440.917 58.5533C442.947 58.424 444.702 58.4768 446.679 58.9912C451.799 60.3251 459.351 63.1523 462.09 67.8924L461.901 68.1455L461.29 67.388C456.427 64.1493 449.878 60.2851 444.068 59.1779C442.218 58.8255 439.721 59.2689 437.828 59.4082C438.314 58.8492 440.14 58.7172 440.917 58.5533Z" fill="#3F2513"/>
<path d="M439.022 52.6842C440.138 52.5986 441.256 52.5434 442.376 52.5186C447.919 52.4396 453.695 55.9729 457.566 59.6933C452.917 58.6835 448.378 54.018 441.909 53.255C441.116 53.1622 440.388 53.1012 439.62 52.8718C439.419 52.8121 439.221 52.7467 439.022 52.6842Z" fill="#3F2513"/>
<path d="M449.06 74.2642C452.058 74.582 456.905 75.8576 459.167 77.8662C455.722 76.8728 451.891 76.6224 449.06 74.2642Z" fill="#71411E"/>
<path d="M242.022 269.664L242.932 270.164C243.022 271.794 243.07 273.439 243.298 275.055L242.818 275.362C241.674 275.189 240.527 275.415 239.337 275.23L239.278 274.676C240.443 273.202 241.217 271.943 241.85 270.164C241.909 269.999 241.965 269.831 242.022 269.664Z" fill="white"/>
<path d="M115.155 572.444L116.158 570.575C121.823 601.274 137.149 635.083 163.472 653.298C173.861 660.487 192.199 669.446 205.133 669.376L205.161 670.26C184.516 669.41 161.792 658.617 147.836 643.468C143.442 638.699 139.619 633.655 136.305 628.083C136.679 639.056 136.857 650.035 136.838 661.015C136.704 684.088 136.137 706.842 140.074 729.704C142.947 746.389 148.013 763.006 153.522 778.99C156.363 787.233 160.065 795.462 162.039 803.954C164.113 812.875 165.637 836.13 163.236 844.733C161.14 842.68 161.112 812.96 160.011 806.334C158.972 800.091 156.297 794.024 154.099 788.123C151.684 781.721 149.412 775.266 147.287 768.763C139.277 744.005 136.421 725.767 133.703 700.143C132.077 712.537 129.307 724.587 126.52 736.763C124.53 745.46 122.668 754.232 120.31 762.838C116.904 775.281 113.048 787.514 110.035 800.078C108.294 807.239 106.945 814.489 105.993 821.798C105.516 825.356 105.428 829.094 104.714 832.599L103.56 833.136C101.189 826.478 106.852 803.619 108.626 796.234C106.049 800.279 104.287 805.212 102.174 809.551L101.575 809.309C104.666 802.756 106.969 795.544 109.348 788.702C120.933 755.36 130.424 715.157 133.461 680.046C134.386 669.345 134.108 658.534 134.09 647.804C134.08 641.407 135.05 632.697 133.828 626.531C132.857 621.627 129.185 617.281 127.093 612.786C121.314 600.365 116.718 586.113 115.155 572.444Z" fill="#040202"/>
<path d="M589.196 568.768L590.209 570.467C588.43 584.71 584.659 598.633 579.005 611.828C576.971 616.547 572.964 621.447 572.003 626.428C570.665 633.367 571.625 642.429 571.606 649.662C571.578 660.538 571.562 671.473 572.46 682.321C574.099 702.125 578.015 721.42 582.646 740.708C587.106 759.279 592.013 777.116 598.394 795.122L596.638 795.526C598.476 803.499 603.971 825.966 601.938 833.393C599.654 830.652 597.388 808.669 596.197 803.467C592.95 789.294 588.703 775.554 584.98 761.531C579.815 742.076 575.347 722.088 572.01 702.243C570.964 708.714 570.779 715.297 569.789 721.793C567.598 736.157 563.933 750.319 559.692 764.206C557.123 772.617 553.985 780.947 550.944 789.202C549.082 794.26 546.976 799.247 545.823 804.529C543.004 817.445 545.551 833.17 542.729 844.591C542.598 844.452 542.446 844.33 542.338 844.173C540.77 841.92 541.168 835.36 541.181 832.636C541.22 823.576 541.242 813.533 543.124 804.649C544.409 798.584 546.975 792.824 549.065 787.006C552.22 778.237 555.194 769.403 557.985 760.511C565.324 736.455 569.613 712.347 569.467 687.145C569.383 672.758 568.929 658.513 569.248 644.115C569.361 639.041 569.209 633.88 569.796 628.834L569.876 628.17C565.642 634.644 560.67 640.978 555.072 646.315C540.39 660.315 518.901 670.366 498.306 669.94C502.333 668.291 507.627 668.215 511.914 667.286C524.392 664.584 536.488 658.149 546.462 650.283C566.234 634.689 577.748 611.873 584.727 588.167C586.602 581.799 588.422 575.377 589.196 568.768Z" fill="#040202"/>
<path d="M397.293 397.75L397.944 398.694C394.228 409.976 389.882 420.908 385.874 432.069L385.177 431.441C389.943 420.674 393.401 408.88 397.293 397.75Z" fill="#20130A"/>
<path d="M306.772 396.604C310.385 406.705 314.644 416.712 317.87 426.931L317.005 427.244C314.046 417.367 309.611 407.471 306.02 397.768L306.772 396.604Z" fill="#20130A"/>
<path d="M352.73 836.706L353.532 843.866C353.581 849.114 353.787 854.446 353.545 859.686L352.61 859.781C352.238 852.067 352.491 844.419 352.73 836.706Z" fill="#3F2513"/>
<path d="M38.0477 609.161L39.1025 608.564L39.9714 609.075C41.3923 614.771 42.9871 620.569 43.9417 626.36C41.609 620.786 40.5042 614.583 38.0477 609.161Z" fill="#040202"/>
<path d="M666.194 607.956L667.977 608.354C665.305 613.654 664.3 620.105 661.793 625.634C662.995 619.703 664.683 613.819 666.194 607.956Z" fill="#20130A"/>
<path d="M596.638 795.526L598.394 795.122C599.945 799.209 601.949 806.591 604.328 809.98L603.618 810.445C601.473 805.567 599.56 799.96 596.638 795.526Z" fill="#040202"/>
<path d="M352.73 836.706C352.692 836.467 352.651 836.231 352.616 835.992C352.193 833.027 352.685 829.367 352.94 826.371L353.379 826.502C353.854 831.977 354.154 838.418 353.532 843.866L352.73 836.706Z" fill="#EBB18C"/>
<path d="M102.174 809.551C101.347 813.288 98.1754 818.813 95.7316 821.799C97.4986 817.806 99.13 812.882 101.575 809.309L102.174 809.551Z" fill="#EBB18C"/>
<path d="M604.328 809.98C605.864 813.158 607.637 816.316 608.739 819.674C606.642 817.699 604.408 813.201 603.618 810.445L604.328 809.98Z" fill="#EBB18C"/>
<path d="M115.155 572.444C114.599 568.842 114.963 564.862 115.262 561.241C116.02 564.182 115.97 567.539 116.158 570.575L115.155 572.444Z" fill="#20130A"/>
<path d="M385.874 432.069C385.076 435.286 383.645 438.309 382.33 441.339C382.558 438.034 384.044 434.531 385.177 431.441L385.874 432.069Z" fill="#C3845D"/>
<path d="M317.87 426.931C318.964 429.627 320.401 432.648 320.364 435.581C318.881 433.08 318.008 429.979 317.005 427.244L317.87 426.931Z" fill="#5B2B17"/>
<path d="M149.85 432.907C149.44 431.842 149.546 432.381 149.502 431.295C151.59 431.59 154.173 431.475 156.103 432.256L156.186 432.371C154.071 432.612 151.979 432.822 149.85 432.907Z" fill="#20130A"/>
<path d="M547.016 431.881C544.895 431.765 542.473 431.709 540.427 431.152C540.19 431.087 539.954 431.014 539.718 430.946L540.151 431.266L540.779 430.35C543.053 430.403 545.4 430.467 547.6 431.08L547.016 431.881Z" fill="#EBB18C"/>
<path d="M399.963 390.19L400.664 390.745C399.684 393.371 398.817 396.03 397.944 398.694L397.293 397.75C397.978 395.208 399.063 392.671 399.963 390.19Z" fill="#9A572F"/>
<path d="M589.196 568.768C589.383 565.94 589.591 563.113 589.817 560.288C590.188 563.544 590.829 567.21 590.209 570.467L589.196 568.768Z" fill="#3F2513"/>
<path d="M205.133 669.376C206.77 669.285 209.725 668.814 211.065 669.811C209.177 670.515 207.147 670.294 205.161 670.26L205.133 669.376Z" fill="#C3845D"/>
<path d="M304.318 389.836L306.772 396.604L306.02 397.768C305.353 395.201 304.552 392.713 303.702 390.203L304.318 389.836Z" fill="#7C4F3D"/>
<path d="M498.13 627.712C500.246 626.057 503.369 624.729 506.114 624.978C507.932 625.142 509.56 626.177 510.659 627.605C512.493 629.987 513.109 633.322 512.625 636.25C512.239 638.582 511.094 640.881 509.062 642.193C506.977 643.542 504.229 643.404 501.9 642.867C501.049 642.672 500.275 642.379 499.521 641.944C497.941 640.397 496.421 638.734 495.922 636.522C495.201 633.321 496.515 630.411 498.13 627.712Z" fill="#F8C6A6"/>
<path d="M498.13 627.712C500.246 626.057 503.369 624.729 506.114 624.978C507.932 625.142 509.56 626.177 510.659 627.605C512.493 629.987 513.109 633.322 512.625 636.25C512.239 638.582 511.094 640.881 509.062 642.193C506.977 643.542 504.229 643.404 501.9 642.867C501.049 642.672 500.275 642.379 499.521 641.944L500.287 641.448C500.555 641.536 500.821 641.63 501.092 641.713C503.311 642.394 506.427 642.522 508.503 641.32C510.064 640.417 511.074 638.849 511.523 637.128C512.186 634.584 511.819 631.68 510.426 629.437C509.452 627.87 507.989 626.634 506.147 626.274C503.709 625.797 500.737 626.819 498.734 628.164L498.13 627.712Z" fill="#5B2B17"/>
<path d="M499.521 641.944C497.941 640.397 496.421 638.734 495.922 636.522C495.201 633.321 496.515 630.411 498.13 627.712L498.734 628.164C497.386 631.047 495.852 634.043 497.077 637.26C497.688 638.866 499.068 640.267 500.287 641.448L499.521 641.944Z" fill="#9A572F"/>
<path d="M193.292 632.438C194.031 629.871 195.099 627.267 197.536 625.877C199.4 624.814 201.574 624.711 203.602 625.338C206.17 626.142 208.292 627.969 209.469 630.387C210.489 632.512 210.65 635.42 209.674 637.598C209.283 638.468 208.609 639.159 207.979 639.855C206.797 640.928 205.469 641.861 204.196 642.825C202.068 642.936 199.922 642.887 197.79 642.897C196.542 641.947 195.372 640.865 194.425 639.608C192.752 637.387 192.923 635.048 193.292 632.438Z" fill="#F8C6A6"/>
<path d="M193.292 632.438C194.031 629.871 195.099 627.267 197.536 625.877C199.4 624.814 201.574 624.711 203.602 625.338C206.17 626.142 208.292 627.969 209.469 630.387C210.489 632.512 210.65 635.42 209.674 637.598C209.283 638.468 208.609 639.159 207.979 639.855L207.528 639.145C208.248 638.286 208.942 637.464 209.287 636.375C209.827 634.669 209.41 632.314 208.627 630.747C207.526 628.57 205.595 626.93 203.269 626.193C201.513 625.646 199.607 625.722 197.968 626.598C195.713 627.804 194.948 630.24 194.204 632.512L193.292 632.438Z" fill="#9A572F"/>
<path d="M194.204 632.512C193.942 635.051 194.097 637.249 195.768 639.311C197.102 640.957 198.993 641.868 201.104 641.959C203.784 642.073 205.66 640.923 207.528 639.145L207.979 639.855C206.797 640.928 205.469 641.861 204.196 642.825C202.068 642.936 199.922 642.887 197.79 642.897C196.542 641.947 195.372 640.865 194.425 639.608C192.752 637.387 192.923 635.048 193.292 632.438L194.204 632.512Z" fill="#040202"/>
<path d="M374.493 473.59C378.954 468.702 383.675 463.06 389.739 460.149C406.966 451.879 432.641 452.449 451.709 450.114C466.623 448.288 481.363 445.901 496.15 443.247L495.691 444.399C481.014 447.118 466.62 450.286 451.801 452.259C433.051 454.755 409.213 454.314 391.853 461.204C385.494 463.728 379.903 468.917 375.485 474.001L374.493 473.59Z" fill="#040202"/>
<path d="M208.036 445.412C216.74 446.182 225.355 448.112 234.03 449.172C248.638 450.958 263.252 451.929 277.91 453.077C290.546 454.066 307.803 455.112 318.378 462.648C323.554 466.337 327.584 471.188 331.685 475.98C329.674 475.134 328.162 473.337 326.604 471.86C321.617 467.131 317.032 462.772 310.345 460.62C295.566 455.865 279.675 455.708 264.334 454.412C251.486 453.328 238.522 451.75 225.826 449.499C220.12 448.488 213.368 447.685 208.036 445.412Z" fill="#040202"/>
<path d="M379.707 697.653C403.02 707.373 426.322 728.534 440.374 749.39C444.525 755.551 447.384 762.344 451.313 768.532L450.096 768.047C448.794 764.553 446.291 761.078 444.273 757.936C434.528 742.77 422.293 727.7 407.973 716.57C399.013 709.606 388.98 704.156 379.707 697.653Z" fill="#040202"/>
<path d="M324.432 698.099C324.523 698.734 323.71 699.003 323.208 699.35C315.515 704.677 307.391 709.481 299.933 715.135C282.59 728.281 267.715 748.456 256.601 766.906L256.44 766.853L256.223 766.31C262.939 749.508 283.334 727.084 297.276 715.531C305.136 709.017 315.15 702.385 324.432 698.099Z" fill="#040202"/>
<path d="M352.698 526.513L353.602 529.255L353.56 582.602C353.565 591.908 353.324 601.302 353.613 610.596L352.715 610.447C352.51 598.148 352 585.802 352.024 573.506C352.055 557.849 352.614 542.178 352.698 526.513Z" fill="#040202"/>
<path d="M352.628 730.972L353.633 732.243C353.443 751.886 353.104 771.697 353.611 791.329L352.715 791.691C352.625 779.461 351.912 767.218 351.909 754.992C351.907 746.996 352.468 738.972 352.628 730.972Z" fill="#040202"/>
<path d="M427.842 665.322C410.484 660.961 391.862 655.725 378.289 643.439C393.482 652.84 410.275 660.569 427.774 664.534L427.842 665.322Z" fill="#040202"/>
<path d="M549.842 722.145L550.082 722.51C549.754 726.277 548.553 730.454 547.37 734.06C543.367 746.266 534.098 760.828 522.332 766.812L522.056 766.766L522.046 766.262C537.833 755.628 544.572 739.754 549.842 722.145Z" fill="#9A572F"/>
<path d="M324.359 645.664L324.474 645.736L324.507 646.152C311.445 656.067 293.882 662.644 277.729 665.472L277.658 665.466L277.629 665.205C294.775 659.585 308.682 654.993 324.359 645.664Z" fill="#040202"/>
<path d="M157.451 726.981C160.411 739.474 167.996 753.198 177.599 761.808L176.983 762.144C165.507 751.917 161.426 742.121 156.623 727.89L157.451 726.981Z" fill="#71411E"/>
<path d="M519.66 472.011C524.381 480.947 529.51 489.389 535.965 497.201L535.165 497.375C528.382 490.37 523.659 481.876 519.299 473.24L519.66 472.011Z" fill="#20130A"/>
<path d="M258.986 848.242C257.392 839.387 256.088 829.359 256.74 820.367C258.198 829.793 258.54 839.395 259.996 848.808L258.986 848.242Z" fill="#040202"/>
<path d="M173.774 493.294C179.271 486.527 183.64 479.12 188.093 471.648C188.437 472.634 187.031 474.978 186.542 475.985C183.496 482.263 179.192 488.296 174.688 493.616L173.774 493.294Z" fill="#20130A"/>
<path d="M448.253 826.953L449.403 825.708C448.945 833.925 448.391 842.176 446.323 850.176C445.597 842.556 448.39 834.618 448.253 826.953Z" fill="#040202"/>
<path d="M558.641 684.369L559.179 685.398C555.324 692.392 551.117 697.469 544.961 702.555L544.281 702.022C550.44 696.958 554.554 691.12 558.641 684.369Z" fill="#20130A"/>
<path d="M149.599 686.185C153.365 692.369 158.094 698.781 164.259 702.774L163.67 703.027C157.24 699.201 153.45 694.478 149.581 688.182L149.599 686.185Z" fill="#3F2513"/>
<path d="M174.688 493.616C170.742 498.689 165.551 503.18 160.536 507.163L159.931 507.255L159.333 507.969L159.336 507.679L159.645 507.634C159.925 506.779 171.947 494.947 173.774 493.294L174.688 493.616Z" fill="#EBB18C"/>
<path d="M256.613 770.67C253.579 775.083 250.369 778.896 246.249 782.353C244.435 783.876 242.334 785.229 240.624 786.845L239.922 786.14C246.167 781.625 251.276 776.187 256.613 770.67Z" fill="#3F2513"/>
<path d="M149.581 688.182C149.501 688.078 149.416 687.977 149.34 687.869C147.466 685.202 142.453 673.809 143.002 670.799C144.992 675.706 146.676 680.672 149.161 685.367L149.599 686.185L149.581 688.182Z" fill="#9A572F"/>
<path d="M558.641 684.369C560.389 680.525 561.618 676.337 563.431 672.583L563.862 672.961L563.761 672.575L563.678 673.153C563.042 677.279 561.375 681.847 559.179 685.398L558.641 684.369Z" fill="#9A572F"/>
<path d="M156.623 727.89C155.814 724.137 155.191 720.436 155.371 716.58C156.114 720.037 156.807 723.504 157.451 726.981L156.623 727.89Z" fill="#EBB18C"/>
<path d="M535.965 497.201C538.295 498.948 541.75 502.413 543.128 504.93C540.17 502.679 537.704 500.072 535.165 497.375L535.965 497.201Z" fill="#C3845D"/>
<path d="M450.096 768.047L451.313 768.532C451.675 769.13 451.932 770.037 451.831 770.748C451.727 771.475 451.57 771.5 451.114 771.919L450.031 771.568C449.246 770.609 449.245 770.37 449.078 769.126L450.096 768.047Z" fill="#F5CAA5"/>
<path d="M352.628 730.972C352.665 727.935 352.6 724.885 353.134 721.885C353.727 725.214 353.739 728.861 353.633 732.243L352.628 730.972Z" fill="#7C4F3D"/>
<path d="M352.698 526.513C352.661 523.76 352.721 521.13 353.038 518.391C353.695 521.904 353.688 525.685 353.602 529.255L352.698 526.513Z" fill="#B57F4D"/>
<path d="M448.253 826.953C448.587 823.829 448.996 820.752 449.533 817.656C449.647 820.355 449.932 823.04 449.403 825.708L448.253 826.953Z" fill="#B57F4D"/>
<path d="M164.259 702.774C165.957 703.72 168.823 704.858 169.745 706.58C167.381 706.183 165.357 704.658 163.67 703.027L164.259 702.774Z" fill="#EBB18C"/>
<path d="M544.961 702.555C543.519 703.703 541.523 705.584 539.634 705.684C540.288 704.129 542.881 702.907 544.281 702.022L544.961 702.555Z" fill="#C3845D"/>
<path d="M239.922 786.14L240.624 786.845L240.087 787.199C238.834 788.02 236.847 789.568 235.293 789.239C236.652 787.883 238.26 787.068 239.922 786.14Z" fill="#EBB18C"/>
<path d="M370.367 477.957C371.882 476.791 373.199 475.012 374.493 473.59L375.485 474.001C373.606 475.916 371.733 477.821 369.752 479.634L370.367 477.957Z" fill="#7C4F3D"/>
<path d="M427.774 664.534C429.714 664.832 432.191 664.964 433.804 666.112C432.953 666.66 431.99 666.358 431.01 666.167C429.98 665.967 428.813 665.723 427.842 665.322L427.774 664.534Z" fill="#EBB18C"/>
<path d="M496.15 443.247C498.745 442.927 501.339 442.552 503.957 442.525C501.216 443.248 498.503 443.998 495.691 444.399L496.15 443.247Z" fill="#7C4F3D"/>
<path d="M352.715 610.447L353.613 610.596C353.605 612.088 353.847 614.138 353.113 615.442C352.46 613.916 352.683 612.086 352.715 610.447Z" fill="#B57F4D"/>
<path d="M258.986 848.242L259.996 848.808C260.626 851.128 260.856 853.78 261.252 856.164C260.283 853.52 259.404 851.041 258.986 848.242Z" fill="#C3845D"/>
<path d="M353.611 791.329L353.592 796.745L352.728 796.404L352.715 791.691L353.611 791.329Z" fill="#7C4F3D"/>
<path d="M369.752 479.634C369.01 480.483 368.53 481.115 367.474 481.578L367.468 480.865C368.322 479.622 369.17 478.865 370.367 477.957L369.752 479.634Z" fill="#EBB18C"/>
<path d="M176.983 762.144L177.599 761.808C178.728 762.512 180.681 763.664 181.106 764.926C179.44 764.436 178.274 763.25 176.983 762.144Z" fill="#C3845D"/>
<path d="M169.745 706.58C171.657 706.98 173.124 707.654 174.524 709.053C172.8 708.558 170.716 708.25 169.745 706.58Z" fill="#EBB18C"/>
<path d="M519.299 473.24C518.523 471.657 517.699 470.199 517.536 468.413C518.619 469.228 519.095 470.782 519.66 472.011L519.299 473.24Z" fill="#B57F4D"/>
<path d="M352.728 796.404L353.592 796.745C353.621 798.026 353.718 799.133 353.191 800.337C352.463 799.221 352.713 797.691 352.728 796.404Z" fill="#EBB18C"/>
<defs>
<linearGradient id="paint0_linear_144_212" x1="376.229" y1="51.2772" x2="31.6635" y2="450.416" gradientUnits="userSpaceOnUse">
<stop/>
<stop offset="1" stop-color="#2E1F15"/>
</linearGradient>
</defs>
</svg>
