<svg width="683" height="683" viewBox="0 0 683 683" fill="none" xmlns="http://www.w3.org/2000/svg">
<mask id="mask0_143_153" style="mask-type:alpha" maskUnits="userSpaceOnUse" x="0" y="0" width="683" height="683">
<circle cx="341.5" cy="341.5" r="341.5" fill="#D9D9D9"/>
</mask>
<g mask="url(#mask0_143_153)">
<path d="M180.838 52.3716L180.674 52.0134C179.184 48.8203 176.928 46.717 173.6 45.5332C166.095 42.8637 157.773 44.5202 149.998 44.0008C137.592 43.172 77.5625 36.8476 71.2391 39.7732C71.231 39.8538 71.2246 39.9343 71.2155 40.0144C70.8502 43.1822 69.5531 46.4753 68.9086 49.6415C67.5841 56.1432 66.6613 62.8292 65.8938 69.4195C62.0561 102.353 62.3623 136.73 65.7128 169.697C66.2784 175.261 66.5362 182.474 68.1448 187.715C69.4656 195.805 74.4596 226.543 77.5152 231.132C77.5985 231.195 77.6774 231.263 77.7639 231.321C82.5436 234.532 111.274 235.805 119.011 237.133C123.65 237.929 127.801 240.344 132.571 240.924C135.395 241.268 138.393 241.305 141.183 240.692C148.733 239.031 153.254 231.374 157.077 225.295C156.032 264.199 162.807 302.841 181.306 337.371C189.612 352.875 199.454 367.479 207.85 382.931C219.946 405.662 229.871 429.484 237.493 454.078C242.968 472.145 248.238 491.704 248.465 510.641C248.727 532.588 240.315 556.537 247.405 577.947C250.624 587.674 257.172 595.44 266.381 599.984C281.494 607.445 299.233 606.075 315.566 607.015C322.615 607.385 329.618 608.379 336.49 609.99C361.15 615.829 382.933 632.855 406.842 635.766C420.432 637.421 432.245 634.037 444.927 629.649L445.079 629.81C449.425 634.434 454.463 637.496 460.973 637.614C466.277 637.711 469.688 635.659 473.364 632.044C477.069 632.802 480.889 633.135 484.627 632.426C490.094 631.389 493.705 628.532 496.822 624.052C497.861 624.299 498.904 624.525 499.963 624.675C511.232 626.265 516.511 621.587 525.078 615.104C528.011 612.886 530.11 609.803 530.575 606.113C530.872 603.744 530.614 601.134 529.768 598.899C528.058 594.387 524.388 591.202 522.226 587.013C521.366 585.348 521.007 583.301 520.485 581.497C519.25 577.227 517.339 572.925 514.537 569.444C505.452 558.149 490.285 561.527 477.726 560.125C453.431 557.418 431.773 534.688 413.606 520.041C389.173 500.334 367.15 488.732 348.943 461.347C324.421 424.465 313.541 351.642 306.281 307.769C303.101 288.565 299.716 269.396 296.126 250.265C290.667 222.15 282.463 194.652 277.045 166.566C275.263 157.327 274.899 148.019 274.02 138.683C272.143 118.759 267.381 98.7441 254.739 82.7634C239.42 63.399 204.267 55.0937 180.838 52.3716Z" fill="#1B1B1A"/>
<path d="M71.2396 39.7734C71.2315 39.854 71.2251 39.9346 71.2159 40.0146C70.8507 43.1825 69.5536 46.4755 68.909 49.6417C67.5845 56.1435 66.6618 62.8294 65.8942 69.4197C62.0566 102.354 62.3628 136.73 65.7132 169.698C66.2788 175.261 66.5366 182.474 68.1453 187.715L68.4445 186.744C71.0596 186.674 74.3091 187.806 76.8905 188.361C81.8222 189.423 97.0713 192.479 101.261 190.307C101.976 194.542 105.607 217.126 107.636 219.063C105.944 209.583 103.677 200.25 102.107 190.729C98.442 163.28 98.6327 134.234 105.869 107.353C112.068 84.324 123.479 60.2636 144.877 47.9472L144.915 47.5631L145.846 46.9315C144.271 45.557 100.114 42.09 95.5808 41.8069C91.1916 41.5325 74.2356 41.0969 71.2396 39.7734Z" fill="#3C75A4"/>
<path d="M144.915 47.5605C131.819 51.8128 120.9 68.5417 114.982 80.1776C98.1661 113.246 96.4146 154.095 101.261 190.304C101.976 194.539 105.607 217.124 107.636 219.06C105.945 209.58 103.677 200.247 102.107 190.727C98.4422 163.277 98.6329 134.231 105.869 107.35C112.068 84.3214 123.48 60.261 144.877 47.9446L144.915 47.5605Z" fill="#1B1B1A"/>
<path d="M123.761 182.715C123.553 180.089 123.382 177.46 123.248 174.829C121.73 144.338 125.259 112.691 137.875 84.6429C141.549 76.4762 145.607 68.9384 151.668 62.2739C156.356 57.1182 162.326 52.0747 169.571 51.5742C172.251 51.3889 174.936 51.7836 177.62 51.6542C177.748 51.0505 177.782 51.2868 177.543 50.6675C177.061 49.4177 175.705 48.7704 174.528 48.3091C169.171 46.21 150.264 45.5338 144.877 47.9481C123.479 60.2646 112.068 84.3249 105.869 107.353C98.6325 134.235 98.4418 163.281 102.107 190.73C107.441 189.412 118.551 188.13 122.892 185.111C123.713 184.54 123.61 183.638 123.761 182.715Z" fill="#3C75A4"/>
<path d="M136.353 232.028C125.963 222.001 124.774 196.739 123.76 182.715C123.61 183.638 123.713 184.539 122.891 185.111C118.551 188.129 107.44 189.412 102.106 190.73C103.676 200.25 105.944 209.583 107.635 219.063C105.606 217.127 101.976 194.543 101.261 190.307C97.071 192.479 81.8219 189.423 76.8902 188.361C74.3088 187.806 71.0593 186.675 68.4442 186.745L68.145 187.716C69.4657 195.806 74.4598 226.544 77.5154 231.133C90.3899 231.384 103.238 232.825 116.026 234.238L114.114 232.375L114.178 231.924C116.623 232.7 118.799 234.26 121.136 235.319C127.054 238.001 135.511 239.987 141.805 237.991C140.21 235.91 138.113 233.988 136.353 232.028Z" fill="#2C5F88"/>
<path d="M141.805 237.99C143.282 237.389 144.577 236.613 145.803 235.593C150.549 231.648 157.14 223.07 157.709 216.841C158.03 213.333 158.901 205.06 158.426 201.828C158.274 200.794 157.752 199.804 157.053 199.035C151.8 193.257 134.424 192.965 127.09 192.615C128.264 201.175 128.972 210.04 131.253 218.399C132.34 222.383 136.015 228.601 136.353 232.027C138.114 233.987 140.21 235.909 141.805 237.99Z" fill="#103A5C"/>
<path d="M271.905 149.855C272.014 145.282 271.441 140.614 270.942 136.072C269.146 119.707 265.615 103.029 256.32 89.1365C242.667 68.7274 217.745 61.2718 194.815 56.7187C187.748 55.3158 175.545 52.7785 168.515 54.1196C165.791 54.6396 163.213 55.89 160.932 57.4422C141.206 70.8667 132.696 103.443 128.398 125.56C124.634 147.109 125.362 168.338 126.874 190.039C137.251 191.011 150.806 190.555 159.184 197.477C159.91 192.219 160.734 186.847 162.161 181.731C162.788 190.607 161.152 202.794 160.574 211.933C159.149 234.472 159.5 257.067 163.924 279.297C170.02 309.927 180.848 332.12 196.493 358.623C202.06 368.052 207.945 377.329 213.05 387.021C228.647 416.635 240.824 449.816 247.633 482.585C250.027 494.107 251.357 505.425 250.858 517.204C249.869 540.547 239.101 574.659 259.601 592.555C274.904 605.919 298.632 603.34 317.398 604.619C324.815 605.097 332.168 606.289 339.354 608.19C347.992 610.548 356.417 613.631 364.539 617.402C382.243 625.485 398.445 635.041 418.646 633.569C426.34 633.005 434.197 631.227 441.293 628.176C436.433 625.722 431.192 622.086 428.214 617.402L429.346 617.912C432.713 621.156 438.657 625.727 443.382 626.151C443.691 625.84 443.979 625.523 444.26 625.185L444.698 625.33C445.981 627.559 447.774 629.487 449.686 631.195C453.562 633.999 458.046 635.878 462.922 635.143C464.475 634.906 466.042 634.482 467.397 633.676C469.461 632.516 472.343 630.48 473.025 628.106C474.153 624.186 470.191 620.63 468.58 617.45L468.413 617.112L468.436 616.457C458.602 590.944 440.887 603.851 424.293 592.614C432.79 595.37 439.651 595.955 448.513 596.272C456.282 598.189 462.776 601.632 467.055 608.631C468.93 611.698 469.766 615.151 471.407 618.299C472.749 620.872 475.788 622.816 475.678 625.947C475.621 627.575 474.774 629.761 476.692 630.25C479.867 631.055 484.502 630.078 487.574 629.138C489.795 628.09 492.732 626.565 493.768 624.212C495.247 620.861 491.437 615.087 490.29 611.714L485.747 613.981L485.396 613.572C486.862 612.595 488.61 611.859 490.188 611.069C489.816 608.862 489.643 606.622 489.221 604.431C487.098 593.404 479.625 586.889 468.654 585.465C463.858 584.842 458.978 585.057 454.183 584.38C448.478 583.575 442.793 581.786 438.02 578.499C448.336 582.049 457.532 582.635 468.351 582.989C475.915 584.3 482.284 586.577 486.933 593.092C488.756 595.649 490.103 598.517 490.91 601.557C492.653 608.105 492.615 621.108 501.059 622.633C504.237 623.208 508.31 622.521 511.352 621.505C512.218 621.135 513.103 620.759 513.913 620.275C517.354 618.213 519.577 614.319 520.542 610.516C520.982 608.781 521.561 605.516 520.532 603.963C520.014 603.179 519.863 603.109 518.964 602.889L518.618 602.578C518.622 602.513 518.642 602.449 518.63 602.39C518.244 600.343 512.503 597.212 511.078 595.026C507.988 590.283 506.15 585.524 502.046 581.373C491.899 571.103 477.31 576.823 464.771 574.256C459.761 573.225 455.426 571.017 451.224 568.192C466.3 574.39 470.675 571.962 485.757 572.537C495.906 572.924 503.571 577.226 508.844 586.045C510.514 588.838 511.733 591.938 513.74 594.516C516.171 597.642 519.956 599.828 522.697 602.787C524.036 601.106 525.258 599.307 526.518 597.566C525.055 595.042 523.359 592.636 521.755 590.203C521.177 591.873 520.478 593.984 518.852 594.849L518.547 594.51C519.027 594.016 519.655 593.425 519.913 592.775C520.954 590.17 518.123 581.926 517.078 579.278C508.905 558.529 492.961 564.62 475.665 562.439C470.957 561.849 466.542 560.2 462.227 558.304C441.148 549.022 425.85 532.34 407.841 518.735C388.804 504.356 368.046 491.13 353.2 472.14C322.157 432.431 311.996 356.086 303.372 306.562C298.241 277.097 293.126 247.753 286.401 218.597C283.646 206.657 280.484 194.807 277.812 182.852C276.797 178.308 275.537 168.669 274.005 164.973C273.952 164.844 273.895 164.717 273.84 164.589L272.646 164.41C272.218 159.576 272.618 154.66 271.905 149.855Z" fill="#E4BB9B"/>
<path d="M134.486 165.206C132.643 159.7 131.015 153.936 130.221 148.177C129.631 143.902 130.199 128.999 129.326 126.828C129.17 126.439 128.658 125.914 128.398 125.559C124.634 147.108 125.362 168.337 126.875 190.038C137.251 191.01 150.807 190.554 159.184 197.476C159.911 192.218 160.734 186.847 162.162 181.73C162.788 190.606 161.152 202.793 160.574 211.932C159.149 234.471 159.5 257.066 163.924 279.296C170.02 309.926 180.848 332.119 196.494 358.622C202.06 368.051 207.945 377.328 213.05 387.02C228.648 416.634 240.824 449.815 247.633 482.584C250.027 494.106 251.357 505.424 250.858 517.203C249.869 540.546 239.101 574.658 259.601 592.554C274.904 605.918 298.632 603.339 317.398 604.618C324.815 605.096 332.168 606.288 339.354 608.19C347.992 610.547 356.417 613.631 364.54 617.401C382.243 625.485 398.446 635.04 418.646 633.568C426.34 633.004 434.197 631.226 441.293 628.175C436.433 625.721 431.192 622.085 428.214 617.401L428.027 616.928C427.242 617.643 426.732 620.215 426.41 621.274C425.953 621.827 425.548 622.09 424.864 622.342C421.16 623.68 416.005 623.46 412.084 623.336C395.189 622.788 379.021 615.714 364.551 607.405C356.867 602.99 349.543 598.323 341.078 595.471C332.358 592.538 322.63 591.292 313.449 591.335C298.772 591.405 284.167 594.542 270.331 587.774C262.757 584.068 257.962 578.036 255.274 570.135C248.647 550.665 254.513 528.961 263.255 511.161C265.501 514.163 267.76 517.203 270.203 520.05C277.638 528.724 286.935 535.03 298.653 535.803C303.454 536.12 308.406 535.17 312.094 531.899L311.997 531.329C308.049 528.939 303.028 528.262 298.82 526.232C277.368 515.893 276.352 486.368 272.712 466.075C271.183 457.707 269.01 449.468 266.214 441.434C265.935 451.798 267.035 462.507 267.601 472.858C266.841 471.892 266.076 470.975 265.231 470.082C263.588 466.286 262.653 461.746 261.436 457.77C258.978 449.603 256.338 441.491 253.516 433.442C252.893 429.596 247.344 416.411 245.733 412.042C239.65 395.555 232.786 379.602 223.92 364.397C216.444 351.576 207.52 339.696 199.802 327.025C189.766 310.548 180.035 284.645 176.721 265.69C173.822 248.461 172.649 230.985 173.22 213.523C173.455 204.525 174.683 194.998 173.989 186.058C173.743 182.889 173.061 180.426 171.074 177.891C163.159 167.796 146.3 166.556 134.486 165.206Z" fill="#CFB29A"/>
<path d="M253.516 433.445C253.256 436.774 266.167 475.884 268.238 482.308C267.881 478.16 266.154 474.125 265.231 470.085C263.588 466.29 262.653 461.749 261.436 457.774C258.977 449.606 256.338 441.494 253.516 433.445Z" fill="#4E3A31"/>
<path d="M270.785 473.674C270.033 480.568 273.575 501.499 275.788 508.578C279.043 518.992 284.914 525.26 294.433 530.277C294.348 529.246 289.061 525.755 287.986 524.696C284.989 521.732 282.487 518.31 280.574 514.551C274.168 501.966 274.17 487.512 270.887 474.085L270.785 473.674Z" fill="#1B1B1A"/>
<path d="M487.575 629.138C480.297 626.63 475.48 620.894 472.778 613.75C471.779 611.102 471.066 608.153 469.615 605.72C466.85 601.085 459.863 597.18 454.759 595.897C452.674 595.37 450.43 595.134 448.514 596.272C456.283 598.19 462.777 601.633 467.056 608.631C468.931 611.698 469.766 615.152 471.408 618.299C472.75 620.872 475.789 622.816 475.679 625.948C475.622 627.575 474.774 629.761 476.693 630.25C479.868 631.056 484.503 630.078 487.575 629.138Z" fill="#CFB29A"/>
<path d="M511.352 621.506C509.893 621.34 508.408 621.227 506.969 620.932C493.731 618.209 496.352 602.326 490.217 593.024C486.509 587.4 479.687 583.984 473.198 582.727C471.625 582.421 469.749 582.05 468.352 582.99C475.916 584.301 482.284 586.578 486.933 593.093C488.756 595.65 490.103 598.518 490.91 601.558C492.654 608.106 492.615 621.109 501.059 622.634C504.237 623.209 508.31 622.522 511.352 621.506Z" fill="#CFB29A"/>
<path d="M271.905 149.857C271.871 151.001 271.821 152.146 271.806 153.29C271.788 154.682 271.423 156.069 270.944 157.372C269.287 161.872 269.109 183.96 271.343 187.832C271.629 188.329 272.021 188.762 272.415 189.174C272.854 188.609 272.849 188.592 272.841 187.875C274.014 180.103 272.91 172.298 273.84 164.592L272.646 164.413C272.218 159.579 272.618 154.662 271.905 149.857Z" fill="#CFB29A"/>
<path d="M273.84 164.59L272.646 164.41C272.626 172.133 272.169 180.193 272.841 187.873C274.014 180.101 272.91 172.295 273.84 164.59Z" fill="#1B1B1A"/>
<path d="M443.114 616.98L440.045 620.085C436.421 619.693 432.868 618.833 429.346 617.915C432.712 621.159 438.657 625.73 443.382 626.154C443.691 625.843 443.979 625.526 444.26 625.188L444.697 625.333C445.547 623.522 443.709 619.016 443.114 616.98Z" fill="#CFB29A"/>
<path d="M467.397 633.678C464.263 633.157 461.213 633.237 458.039 632.561C456.118 632.152 452.85 630.793 451.015 630.799C450.673 630.799 450.037 631.089 449.686 631.196C453.562 634 458.046 635.88 462.922 635.144C464.475 634.908 466.042 634.483 467.397 633.678Z" fill="#CFB29A"/>
<path d="M518.619 602.58C516.405 605.319 513.505 609.643 509.747 610.185C508.664 610.341 507.659 610.1 506.782 609.439C505.5 608.472 504.864 606.802 504.766 605.244C504.631 603.069 505.408 601.012 506.85 599.4C507.647 598.509 510.547 596.844 510.64 595.99C509.967 595.796 509.756 595.7 509.085 596.027C506.895 597.107 504.81 600.861 504.168 603.133C503.587 605.185 503.972 606.802 504.996 608.644C505.64 609.799 506.553 610.766 507.895 611.045C509.931 611.48 512.141 610.325 513.74 609.149C516.028 607.468 517.488 605.276 518.964 602.892L518.619 602.58Z" fill="#29201C"/>
<path d="M485.396 613.574C483.55 615.062 481.895 616.48 481.593 619.01C481.386 620.739 481.639 622.598 482.827 623.957C483.681 624.929 484.94 625.439 486.227 625.417C488.188 625.385 489.672 624.757 490.967 623.307C491.708 622.479 492.326 621.534 492.943 620.61C490.416 622.329 488.872 625.111 485.429 624.574C484.398 624.413 483.559 623.946 483.008 623.049C482.127 621.609 482.202 619.456 482.615 617.882C483.04 616.26 484.519 615.035 485.747 613.982L485.396 613.574Z" fill="#29201C"/>
<path d="M468.437 616.457C466.902 616.989 465.552 617.483 464.202 618.412L464.119 618.885C465.688 618.734 467.052 617.848 468.413 617.112L468.437 616.457Z" fill="#4E3A31"/>
<path d="M231.526 128.944C228.607 125.179 225.258 121.751 222.365 117.936C219.982 114.793 210.864 100.538 209.365 99.6074C210.719 102.446 212.42 105.071 214.085 107.732C213.463 108.833 212.847 109.905 212.386 111.087C212.769 111.655 212.874 111.885 213.472 112.195C218.3 120.878 233.377 134.841 241.55 140.235L241.84 140.202C238.263 136.915 234.428 133.945 230.839 130.677C231.43 130.292 231.885 129.993 232.344 129.449L231.526 128.944Z" fill="#CFB29A"/>
<path d="M230.839 130.675C226.984 127.135 223.544 123.317 220.097 119.385C218.029 117.025 215.949 114.118 213.472 112.193C218.3 120.876 233.377 134.839 241.55 140.233L241.84 140.2C238.263 136.913 234.428 133.943 230.839 130.675Z" fill="#765C50"/>
<path d="M231.526 128.944C228.607 125.179 225.258 121.751 222.365 117.936C219.982 114.793 210.864 100.538 209.365 99.6074C210.719 102.446 212.42 105.071 214.085 107.732C217.539 112.84 226.077 126.298 231.526 128.944Z" fill="#765C50"/>
<path d="M211.147 94.293C211.176 99.366 227.843 121.075 232.051 125.374C232.181 124.166 229.149 121.09 228.241 119.955C221.769 111.856 216.421 103.189 211.147 94.293Z" fill="#4E3A31"/>
<path d="M363.346 534.23L363.023 534.649C368.738 540.434 374.867 545.864 380.96 551.246L381.31 550.784C379.491 548.743 377.195 546.987 375.166 545.139L363.346 534.23Z" fill="#765C50"/>
<path d="M381.149 553.799L380.41 554.078C381.288 556.694 389.196 562.323 391.693 564.584L392.145 564.412C391.617 562.022 383.065 556.576 381.149 553.799Z" fill="#CFB29A"/>
<path d="M527.086 598.555C525.74 599.344 523.981 602.395 522.924 603.7C523.002 607.358 522.055 610.914 522.136 614.464C524.263 612.949 525.952 611.257 527.076 608.856C528.708 605.381 528.319 602.073 527.086 598.555Z" fill="#F8C6AC"/>
</g>
</svg>
