<svg width="683" height="683" viewBox="0 0 683 683" fill="none" xmlns="http://www.w3.org/2000/svg">
<mask id="mask0_143_6" style="mask-type:alpha" maskUnits="userSpaceOnUse" x="0" y="0" width="683" height="683">
<circle cx="341.5" cy="341.5" r="341.5" fill="#D9D9D9"/>
</mask>
<g mask="url(#mask0_143_6)">
<path d="M177.904 13.9758C175.68 11.3963 173.47 8.98201 170.313 7.53134C167.517 6.24602 164.312 5.8645 161.277 5.60811C155.423 5.11431 149.524 6.20692 143.667 5.94605C132.076 5.42935 74.1166 -0.850352 67.4694 1.52144C63.6301 6.25384 62.9978 19.3612 62.2415 25.7141C57.2197 67.9075 55.5339 111.019 59.9998 153.355C60.1518 154.795 60.1512 156.877 60.7171 158.201C61.26 169.378 64.096 187.876 67.6805 198.342C68.0682 199.726 68.3961 201.31 69.6512 202.19C69.7116 202.233 69.7797 202.262 69.8439 202.298C78.3513 206.563 104.779 206.64 115.467 208.103C124.386 209.325 133.024 213.97 142.235 212.391C149.28 211.182 151.854 205.252 155.586 199.926C154.974 230.583 158.82 258.272 169.953 287.104C178.331 308.797 191.04 327.637 202.493 347.683C221.786 381.452 246.649 436.024 251.249 474.71C252.79 487.664 252.362 501.685 250.538 514.594C249.242 523.76 247.221 532.888 246.887 542.16C246.464 553.941 249.739 565.04 257.93 573.76C263.556 579.748 270.337 583.407 278.199 585.585C290.216 588.915 302.533 588.764 314.877 589.345C324.156 589.786 333.378 590.702 342.477 592.612C357.648 595.796 372.235 601.829 386.573 607.627C396.427 611.616 405.869 615.677 416.331 617.883C422.539 619.19 429.489 619.777 435.803 619.112C441.138 618.542 446.94 616.99 452.276 617.766C459.881 618.866 464.438 625.469 474.522 625.698C479.714 625.821 484.318 623.849 488.064 620.319C490.902 621.86 493.852 623.117 497.075 623.564C503.044 624.385 507.767 622.279 512.417 618.716C515.804 619.85 519.087 620.598 522.657 620.028C528.348 619.129 532.672 615.526 535.926 610.957C540.789 611.7 545.113 611.951 549.444 609.147C553.499 606.516 555.342 602.555 556.326 597.986C558.328 597.048 560.264 596.087 562.032 594.752C566.343 591.484 569.73 586.809 570.438 581.357C570.574 580.312 570.605 579.262 570.528 578.218C570.378 575.966 569.641 573.794 568.39 571.917C563.829 565.063 552.425 565.778 545.147 563.404C538.811 561.337 533.092 557.617 526.894 555.215C520.071 552.573 512.862 551.042 506.026 548.456C499.705 546.07 494.248 542.333 488.143 539.596C480.766 536.284 473.135 533.804 465.896 530.117C447.853 520.911 431.599 508.371 414.941 496.925C403.228 488.882 390.815 481.653 380.287 472.032C371.47 463.976 363.766 454.247 357.396 444.166C335.811 410.003 328.052 371.318 320.725 332.28C314.316 298.136 309.558 263.637 302.736 229.595C298.181 206.864 292.333 184.345 286.876 161.814C284.837 153.397 282.25 144.963 280.688 136.448C279.344 129.128 279.235 121.56 278.718 114.146C277.21 92.5359 274.997 67.5763 261.282 49.8633C241.967 24.9148 207.495 17.7787 177.904 13.9758Z" fill="#000001"/>
<path d="M67.4694 1.52144C63.6301 6.25384 62.9978 19.3612 62.2415 25.7141C57.2197 67.9075 55.5339 111.019 59.9998 153.355C60.1518 154.795 60.1512 156.877 60.7171 158.201C61.9275 159.663 61.776 163.291 62.1687 165.204C72.0709 164.419 86.4145 163.878 95.7503 162.042C97.1495 170.641 99.451 179.885 103.409 187.699C100.779 179.244 98.4991 170.904 96.7077 162.233C94.1745 148.941 92.0848 130.936 92.2144 117.488C92.4736 90.6373 99.8459 56.7139 113.93 33.7663C119.258 25.0858 129.207 11.8404 139.591 9.34291L139.913 8.419L140.044 8.27376C137.276 5.78244 72.2448 4.62666 67.4694 1.52144Z" fill="#3772A2"/>
<path d="M139.913 8.419C127.59 11.5823 118.429 23.6764 112.247 34.1232C98.7992 56.8474 91.2196 91.1467 91.0956 117.405C91.0548 126.058 92.1329 134.866 93.0998 143.457C93.7925 149.614 94.4007 155.997 95.7503 162.042C97.1495 170.641 99.451 179.885 103.409 187.699C100.779 179.244 98.4991 170.904 96.7077 162.233C94.1745 148.941 92.0848 130.936 92.2144 117.488C92.4736 90.6373 99.8459 56.7139 113.93 33.7663C119.258 25.0858 129.207 11.8404 139.591 9.34291L139.913 8.419Z" fill="#000001"/>
<path d="M176.134 13.8386C168.091 8.04037 161.029 7.68511 151.428 8.24817C147.474 8.48055 143.507 8.72232 139.591 9.34291C129.207 11.8404 119.258 25.0858 113.93 33.7663C99.8459 56.7139 92.4736 90.6373 92.2144 117.488C92.0848 130.936 94.1745 148.941 96.7077 162.233C104.476 161.906 112.248 161.678 120.023 161.548C120.768 160.896 120.726 159.847 120.889 158.885C120.13 150.386 119.58 141.638 119.652 133.109C119.907 102.545 125.256 66.9128 139.627 39.6551C142.641 33.9373 145.927 28.1296 150.605 23.5911C158.517 15.9171 165.35 13.6034 176.134 13.8386Z" fill="#3772A2"/>
<path d="M62.1687 165.204C61.776 163.291 61.9275 159.663 60.7171 158.201C61.26 169.378 64.096 187.876 67.6805 198.342C68.0682 199.726 68.3961 201.31 69.6512 202.19C69.7116 202.233 69.7797 202.262 69.8439 202.298L72.5949 202.105C76.4548 202.928 80.8984 202.76 84.8627 203.07C94.866 203.852 105.137 204.528 115.083 205.794C122.761 206.771 130.113 209.678 137.882 210.307C140.577 210.526 142.977 209.988 145.556 209.262L145.26 208.529C141.794 208.804 138.902 207.552 136.252 205.322C124.442 195.385 122.153 173.24 120.889 158.885C120.726 159.847 120.768 160.896 120.023 161.548C112.248 161.678 104.476 161.906 96.7077 162.233C98.4991 170.904 100.779 179.244 103.409 187.699C99.451 179.885 97.1495 170.641 95.7503 162.042C86.4145 163.878 72.0709 164.419 62.1687 165.204Z" fill="#27618A"/>
<path d="M72.5949 202.105C71.8671 199.805 69.9623 196.413 68.0212 194.993L67.5872 195.448C67.8229 196.401 67.8441 197.055 67.7224 198.031L67.6805 198.342C68.0682 199.726 68.3961 201.31 69.6512 202.19C69.7116 202.233 69.7797 202.262 69.8439 202.298L72.5949 202.105Z" fill="#3772A2"/>
<path d="M157.816 171.619C148.221 163.081 135.28 161.217 123.106 159.022C124.121 171.091 125.774 185.3 131.422 196.189C134.732 202.568 138.854 205.915 145.585 208.074L145.26 208.529L145.556 209.262C149.436 206.656 152.395 200.903 155.33 197.195C156.087 188.736 156.434 179.989 157.816 171.619Z" fill="#00324B"/>
<path d="M275.29 123.232C276.05 98.9222 273.63 67.761 256.87 48.6359C242.397 32.1211 221.113 24.9353 200.307 20.2415C191.963 18.359 183.236 16.7028 174.687 16.1715C166.052 15.6353 159.597 18.2702 153.155 24.0477C137.695 37.9126 125.642 79.544 124.465 100.175C122.565 110.936 121.78 124.924 122.019 135.895C122.173 142.959 122.85 150.038 122.833 157.099C135.115 158.378 148.735 160.546 157.981 169.461L158.169 164.809L158.431 164.804C158.225 166.967 157.843 168.803 159.259 170.6C159.973 170.68 160.077 170.586 160.728 170.255C155.231 219.945 158.94 262.057 182.146 307.354C189.649 321.998 198.764 335.756 206.775 350.118C226.269 385.067 243.816 424.795 252.145 464.032C255.208 478.464 255.261 493.149 253.939 507.807C252.097 528.212 243.253 551.505 257.668 569.526C266.658 580.765 279.689 584.189 293.366 585.608C301.456 586.451 309.667 586.418 317.79 586.876C328.168 587.462 338.725 588.937 348.795 591.545C362.372 595.053 375.678 600.863 388.678 606.119C401.17 611.163 412.982 616.677 426.723 617.107C435.13 617.364 443.241 615.531 451.548 614.643C451.844 613.856 451.684 613.532 451.518 612.722L454.401 615.386C453.385 613.269 452.329 611.169 451.538 608.951C457.26 617.196 459.866 621.123 470.423 623.028C474.477 623.765 480.328 623.642 483.874 621.257C484.952 620.531 486.062 619.308 486.333 617.995C486.658 616.431 486.002 614.694 485.529 613.208L484.674 614.872L484.571 615.431L481.922 616.889C480.443 616.515 479.107 616.168 478.09 614.951C476.739 613.331 475.978 611.353 476.302 609.236C476.523 607.784 477.044 606.75 478.204 605.857L478.801 605.08C477.912 604.84 477.363 605.287 476.562 605.683L477.56 604.013C475.541 600.282 463.197 596.88 459.067 595.076C456.206 593.825 453.501 592.272 450.793 590.73C454.796 591.607 470.918 597.439 474.646 599.539C482.301 603.84 486.649 609.962 489.008 618.218C493.288 621.14 498.353 621.899 503.422 621.073C505.823 620.682 508.671 619.889 510.07 617.727C511.498 615.526 510.361 612.604 509.815 610.242C508.282 611.694 506.733 612.616 504.573 612.783C502.622 612.94 500.584 612.264 499.15 610.917C497.985 609.823 497.23 608.342 497.186 606.734C497.143 605.136 497.741 602.969 498.887 601.846L499.577 601.125L502.493 600.874L502.739 600.528C495.385 592.903 487.95 591.311 478.845 587.161C474.62 585.239 470.589 582.91 466.312 581.094C471.104 582.267 475.197 584.34 479.751 586.099C483.638 587.596 487.713 588.669 491.54 590.317C499.564 593.769 506.442 600.405 510.974 607.845C511.832 610.493 512.515 613.079 513.101 615.8C517.745 617.403 521.872 618.52 526.56 616.263C528.496 615.33 530.27 613.973 531.779 612.448L534.008 609.923C533.655 608.348 533.276 606.773 532.872 605.209L531.999 607.114C531.739 607.661 531.382 608.158 530.945 608.577C529.676 609.806 527.428 610.208 525.725 610.096C523.926 609.974 522.105 609.231 520.928 607.828C519.042 605.583 519.004 599.924 519.376 597.165C519.825 593.836 521.123 595.277 523.072 593.774C523.032 593.612 523.001 593.456 522.952 593.299C522.508 591.881 520.792 590.669 519.663 589.78C512.515 584.127 505.115 582.038 496.963 578.502C492.558 576.592 488.241 574.441 483.934 572.319C488.673 573.481 493.111 575.743 497.703 577.363C516.957 584.161 517.438 584.077 531.548 599.131C533.691 601.885 534.726 604.231 535.68 607.594C537.552 608.303 539.618 609.074 541.642 609.136C545.023 609.236 548.489 607.918 550.86 605.488C552.946 603.349 554.056 600.209 553.986 597.26C550.952 592.462 548.134 588.825 543.067 586.082L543.215 585.82L544.104 585.68C543.391 583.502 540.861 582.133 539.031 580.91C533.531 577.201 527.624 574.134 521.426 571.766C514.152 568.995 506.374 566.811 499.599 562.895L499.165 562.638C515.401 567.129 530.987 572.09 544.453 582.496C548.44 586.769 552.659 590.467 556.303 595.104C559.014 593.813 561.585 592.227 563.668 590.043C567.333 586.205 568.366 581.938 568.241 576.771C567.321 573.626 566.121 570.995 562.986 569.481C557.695 566.934 548.885 566.789 542.598 564.392C537.285 562.365 532.382 559.41 527.09 557.359C519.616 554.455 511.754 552.639 504.262 549.768C498.357 547.506 493.224 543.881 487.5 541.289C482.128 538.853 476.409 537.155 470.991 534.792C461.89 530.815 453.379 525.62 445.079 520.196C435.681 514.052 426.604 507.438 417.28 501.182C397.322 487.803 380.774 478.598 365.322 459.325C335.127 421.667 326.137 375.27 317.616 329.159C311.783 297.595 307.162 265.761 300.988 234.277C296.24 210.069 290.096 186.09 284.284 162.118C282.24 153.688 279.887 145.331 278.111 136.839C277.988 134.236 277.47 131.592 277.101 129.011C277.068 126.962 276.971 124.915 276.811 122.872L276.599 123.245L275.29 123.232Z" fill="#E4BB9B"/>
<path d="M124.465 100.175C122.565 110.936 121.78 124.924 122.019 135.895C122.173 142.959 122.85 150.038 122.833 157.099C135.115 158.378 148.735 160.546 157.981 169.461L158.169 164.809L158.431 164.804C158.225 166.967 157.843 168.803 159.259 170.6C159.973 170.68 160.077 170.586 160.728 170.255C155.231 219.945 158.94 262.057 182.146 307.354C189.649 321.998 198.764 335.756 206.775 350.118C226.269 385.067 243.816 424.795 252.145 464.032C255.208 478.464 255.261 493.149 253.939 507.807C252.097 528.212 243.253 551.505 257.668 569.526C266.658 580.765 279.689 584.189 293.366 585.608C301.456 586.451 309.667 586.418 317.79 586.876C328.168 587.462 338.725 588.937 348.795 591.545C362.372 595.053 375.678 600.863 388.678 606.119C401.17 611.163 412.982 616.677 426.723 617.107C435.13 617.364 443.241 615.531 451.548 614.643C451.844 613.856 451.684 613.532 451.518 612.722L454.401 615.386C453.385 613.269 452.329 611.169 451.538 608.951C457.26 617.196 459.866 621.123 470.423 623.028C474.477 623.765 480.328 623.642 483.874 621.257C484.952 620.531 486.062 619.308 486.333 617.995C486.658 616.431 486.002 614.694 485.529 613.208L484.674 614.872L484.571 615.431L481.922 616.889C481.244 617.38 480.395 617.66 479.584 617.844C476.77 618.492 473.395 618.403 470.534 618.129C457.428 616.9 458.105 609.454 450.154 607.063C446.533 605.974 439.196 608.667 435.064 608.991C430.626 609.337 426.154 608.929 421.785 608.119C403.26 604.689 377.249 587.423 358.926 579.525C354.26 577.514 349.391 575.631 344.387 574.659C321.372 570.168 293.042 582.312 272.068 568.928C263.715 563.599 258.921 554.047 256.833 544.624C253.815 531.005 255.021 505.299 262.767 493.406C263.731 491.926 264.789 490.68 266.584 490.284C271.793 491.133 277.655 499.618 281.459 503.215C283.329 504.969 285.362 506.544 287.531 507.913C291.815 510.633 300.01 514.516 305.231 513.225C305.325 513.203 305.417 513.175 305.511 513.147C306.353 513.6 307.018 513.857 307.961 514.03L307.968 513.594L306.401 512.259C304.077 508.634 300.157 504.679 296.629 502.199C288.8 493.725 284.6 488.245 281.179 476.973C282.792 468.91 281.636 459.712 279.491 451.865C278.132 446.897 271.662 423.68 268.43 421.84L267.924 422.121C267.622 425.761 269.353 430.601 269.948 434.285C271.371 443.099 272.463 452.378 271.993 461.304C270.074 457.487 269.381 452.746 268.415 448.588C266.846 441.834 265.391 434.935 263.156 428.368C259.221 416.802 254.059 405.741 249.139 394.576C245.207 385.655 241.523 376.609 237.472 367.742C233.2 358.389 228.186 349.041 222.776 340.311C217.333 331.529 211.402 323.121 206.154 314.206C197.889 300.165 189.787 285.875 183.464 270.829C170.794 240.679 166.6 207.013 167.729 174.516C168.104 163.697 170.684 153.085 170.988 142.252C159.422 134.899 143.736 136.402 131.735 132.926C122.019 130.112 128.509 106.956 124.601 100.384C124.559 100.312 124.51 100.244 124.465 100.175Z" fill="#D6AB8A"/>
<path d="M275.244 449.37L274.906 451.831C275.678 469.849 277.545 491.272 291.769 504.321C295.104 507.382 298.938 509.499 302.874 511.661L303.172 511.197C292.374 504.767 284.957 497.489 281.424 485.116L283.843 489.345C280.943 481.698 277.815 474.045 276.629 465.906C275.834 460.445 275.757 454.868 275.244 449.37Z" fill="#3E221C"/>
<path d="M281.179 476.973C279.188 469.957 279.158 462.609 278.309 455.415C277.066 469.017 280.896 485.122 289.767 495.696C291.576 497.852 294.102 500.936 296.629 502.199C288.8 493.725 284.6 488.245 281.179 476.973Z" fill="#6D463C"/>
<path d="M160.728 170.255C161.373 167.386 162.639 154.317 161.426 151.974C161.38 151.886 161.311 151.812 161.253 151.731L161.367 151.26L161.527 152.027L161.16 152.03C160.494 156.846 160.55 161.824 159.989 166.685C159.798 164.197 159.58 161.731 159.245 159.257C158.488 160.705 159.041 162.703 158.586 164.297C158.537 164.467 158.483 164.635 158.431 164.804C158.225 166.967 157.843 168.803 159.259 170.6C159.973 170.68 160.077 170.586 160.728 170.255Z" fill="#170A08"/>
<path d="M306.401 512.259C305.396 511.79 304.235 511.526 303.172 511.197L302.874 511.661L305.511 513.147C306.353 513.6 307.018 513.857 307.961 514.03L307.968 513.594L306.401 512.259Z" fill="#D56E4D"/>
<path d="M275.244 449.37C275.135 448.209 275.2 446.511 274.521 445.548C274.04 447.445 274.324 449.972 274.906 451.831L275.244 449.37Z" fill="#D56E4D"/>
<path d="M556.303 595.104C559.014 593.813 561.585 592.227 563.668 590.043C567.333 586.205 568.366 581.938 568.241 576.771C563.822 581.049 560.874 584.976 554.051 584.87C550.651 584.814 547.56 583.792 544.453 582.496C548.44 586.769 552.659 590.467 556.303 595.104Z" fill="#D6AB8A"/>
<path d="M553.986 597.26L552.253 597.092C552.156 598.868 551.804 600.136 550.466 601.382C548.842 602.896 546.124 603.493 543.936 603.376C542.759 603.315 541.629 602.812 540.552 602.365C538.004 603.393 534.03 599.969 531.548 599.131C533.691 601.885 534.726 604.231 535.68 607.594C537.552 608.303 539.618 609.074 541.642 609.136C545.023 609.236 548.489 607.918 550.86 605.488C552.946 603.349 554.056 600.209 553.986 597.26Z" fill="#D6AB8A"/>
<path d="M531.779 612.448C523.377 613.325 518.176 612.046 510.974 607.845C511.832 610.493 512.515 613.079 513.101 615.8C517.745 617.403 521.872 618.52 526.56 616.263C528.496 615.33 530.27 613.973 531.779 612.448Z" fill="#D6AB8A"/>
<path d="M543.981 602.477C542.081 600.131 538.889 596.813 538.496 593.752C538.3 592.232 538.574 590.154 537.879 588.797C536.59 592.081 537.473 596.483 538.817 599.634C539.247 600.645 539.818 601.555 540.552 602.365C541.629 602.812 542.759 603.315 543.936 603.376C546.124 603.493 548.842 602.896 550.466 601.382C551.804 600.136 552.156 598.868 552.253 597.092C550.962 599.399 549.816 600.93 547.13 601.723C546.099 602.03 545.034 602.253 543.981 602.477Z" fill="#000001"/>
<path d="M277.101 129.011C277.068 126.962 276.971 124.915 276.811 122.872L276.599 123.245L275.29 123.232C274.243 129.478 274.448 136.393 274.136 142.756C273.952 146.48 273.368 150.535 273.574 154.235C274.929 146.847 275.285 139.167 275.891 131.688L276.822 133.361L277.101 129.011Z" fill="#3E221C"/>
<path d="M277.101 129.011C277.068 126.962 276.971 124.915 276.811 122.872L276.599 123.245C276.024 125.995 276.028 128.888 275.891 131.688L276.822 133.361L277.101 129.011Z" fill="#E4BB9B"/>
<path d="M277.101 129.011L276.822 133.361C276.588 139.983 276.112 146.926 277.136 153.502L277.608 153.827L277.186 153.772L277.492 154.404L277.616 153.961L277.291 154.089L277.239 153.85C278.679 152.15 277.568 140.029 278.111 136.839C277.988 134.236 277.47 131.592 277.101 129.011Z" fill="#D56E4D"/>
<path d="M209.76 53.2617L208.945 53.3667C207.998 55.2 208.34 56.9993 208.796 58.9923C208.425 60.1928 208.928 61.5205 209.208 62.7137C209.774 70.0095 227.01 90.7154 232.305 95.707L232.777 95.7579L232.067 94.2759C233.18 94.1748 233.238 94.1731 234.11 94.8546C237.128 97.213 239.663 102.723 242.729 104.503L250.911 114.059C250.295 112.772 248.245 109.716 248.286 108.456C248.068 107.812 247.819 107.179 247.539 106.559C243.889 98.5117 229.033 77.5421 221.4 74.6369C217.426 68.9694 213.558 57.3104 209.76 53.2617Z" fill="#D6AB8A"/>
<path d="M209.76 53.2617L208.945 53.3667C207.998 55.2 208.34 56.9993 208.796 58.9923L209.527 59.2074C213.748 64.066 215.53 71.316 220.49 76.0049L220.896 75.6239C222.451 78.0191 223.883 81.3545 226.166 83.0711C225.922 80.9797 222.503 76.6389 221.4 74.6369C217.426 68.9694 213.558 57.3104 209.76 53.2617Z" fill="url(#paint0_linear_143_6)"/>
<path d="M221.4 74.6369C217.426 68.9694 213.558 57.3104 209.76 53.2617C212.416 60.9262 216.594 68.7471 220.896 75.6239C222.451 78.0191 223.883 81.3545 226.166 83.0711C225.922 80.9797 222.503 76.6389 221.4 74.6369Z" fill="#A16152"/>
<path d="M208.796 58.9923C208.425 60.1928 208.928 61.5205 209.208 62.7137C210.336 64.9447 211.405 67.2387 212.686 69.3848L213.276 67.1113C214.799 69.4435 218.205 76.0745 220.734 77.1303C220.664 76.7661 220.623 76.3501 220.49 76.0049C215.53 71.316 213.748 64.066 209.527 59.2074L208.796 58.9923Z" fill="#A16152"/>
<path d="M208.796 58.9923C208.425 60.1928 208.928 61.5205 209.208 62.7137C210.336 64.9447 211.405 67.2387 212.686 69.3848L213.276 67.1113C211.78 64.6921 210.189 61.9886 209.527 59.2074L208.796 58.9923Z" fill="#F3D5B9"/>
<path d="M212.686 69.3848C211.405 67.2387 210.336 64.9447 209.208 62.7137C209.774 70.0095 227.01 90.7154 232.305 95.707L232.777 95.7579L232.067 94.2759C229.123 92.6655 214.831 73.2698 212.686 69.3848Z" fill="#6D463C"/>
<path d="M248.286 108.456C246.428 107.176 244.865 105.294 242.729 104.503L250.911 114.059C250.295 112.772 248.245 109.716 248.286 108.456Z" fill="#D56E4D"/>
<path d="M551.838 567.855C549.28 567.47 546.873 567.397 544.666 568.933C543.527 569.727 543.072 570.475 542.805 571.827C542.785 571.927 542.769 572.028 542.752 572.129C542.601 571.62 542.92 570.821 543.04 570.296C542.686 570.598 542.489 571.419 542.437 571.872C542.257 573.441 543.265 574.983 544.291 576.061C546.022 577.888 548.425 579.351 550.98 579.385C553.625 579.418 558.512 578.647 560.387 576.592C561.356 575.53 561.775 574.123 561.772 572.715L561.232 572.581C560.929 573.458 560.578 574.346 559.972 575.061C558.408 576.916 555.602 578.167 553.219 578.228C550.545 578.295 547.778 577.491 545.852 575.57C544.576 574.29 543.896 572.916 543.912 571.106C544.201 570.497 544.313 570.051 544.87 569.632C547.486 567.66 557.88 569.944 561.331 570.369C558.276 568.906 555.148 568.392 551.838 567.855Z" fill="#000001"/>
<path d="M241.632 281.471C240.531 290.104 245.758 311.171 246.988 321.15C247.54 320.213 247.32 318.778 247.225 317.733C246.556 310.439 244.887 303.116 243.735 295.873C242.98 291.132 242.728 286.121 241.632 281.471Z" fill="#D56E4D"/>
<path d="M532.872 605.209C531.266 602.226 527.631 597.489 524.258 596.595C523.184 596.31 522.463 596.579 521.525 597.098C521.052 597.696 520.65 598.081 520.49 598.841L521.018 598.198C520.976 598.299 520.933 598.405 520.893 598.506C520.027 600.757 520.036 603.444 521.136 605.622C521.925 607.186 523.217 608.153 524.909 608.577C527.496 609.225 529.735 608.231 531.999 607.114L532.872 605.209Z" fill="#E4BB9B"/>
<path d="M498.887 601.846C498.747 602.505 498.734 603.181 498.7 603.857C498.575 606.331 498.412 608.398 500.296 610.314C501.414 611.448 503.014 612.006 504.596 611.956C505.773 611.917 507.26 611.487 508.01 610.509C508.422 609.968 508.654 609.314 508.611 608.644C508.47 606.448 506.349 604.678 504.806 603.32C503.07 601.79 502.002 600.98 499.577 601.125L498.887 601.846Z" fill="#E4BB9B"/>
<path d="M478.559 606.058C477.598 608.096 477.098 610.532 477.976 612.711C478.444 613.872 479.48 614.928 480.686 615.313C481.905 615.704 483.484 615.235 484.674 614.872L485.529 613.208C485.412 612.968 485.296 612.733 485.169 612.504C483.879 610.163 481.232 606.789 478.559 606.058Z" fill="#E4BB9B"/>
</g>
<defs>
<linearGradient id="paint0_linear_143_6" x1="424.165" y1="260.03" x2="363.702" y2="204.061" gradientUnits="userSpaceOnUse">
<stop stop-color="#EBB59C"/>
<stop offset="1" stop-color="#FFD5B5"/>
</linearGradient>
</defs>
</svg>
