<svg width="585" height="833" viewBox="0 0 585 833" fill="none" xmlns="http://www.w3.org/2000/svg">
<path d="M227.076 293.503C227.743 274.865 220.65 251.626 217.587 232.644C215.016 216.714 213.318 200.655 210.482 184.761C207.792 169.685 204.012 154.829 201.56 139.694C199.112 124.588 197.999 109.105 195.178 94.102C193.426 84.787 190.481 75.779 188.161 66.604C185.101 54.76 183.707 42.548 184.021 30.32C184.217 21.879 185.569 14.768 192.098 8.76997C198.184 3.17907 207.089 -0.301327 215.382 0.358173C223.081 0.970373 229.666 5.12117 234.436 11.015C251.852 32.531 252.63 79.042 259.815 105.918C266.441 130.7 276.81 154.286 281.521 179.601C285.836 202.786 285.474 226.71 288.846 250.049C290.254 259.794 293.773 268.599 295.861 278.094C302.361 275.525 309.79 271.306 312.581 264.542C316.224 255.708 313.827 234.876 314.022 224.541C314.317 208.963 316.346 193.366 317.246 177.805C317.801 168.213 317.548 158.51 317.621 148.902C317.69 139.711 318.061 130.54 317.975 121.345C317.728 94.985 309.481 68.511 314.4 42.087C315.965 33.679 320.248 25.581 328.388 21.921C335.577 18.688 343.74 19.605 350.854 22.548C360.266 26.442 366.743 35.268 370.501 44.448C375.424 56.471 377.344 71.346 378.118 84.29C378.479 90.331 378.398 96.414 379.017 102.435C381.372 125.329 388.548 148.117 388.967 171.127C389.272 187.878 389.042 205.209 388.058 221.928L386.662 249.252C386.05 260.177 385.287 270.553 386.537 281.491C387.697 291.644 389.503 301.762 391.119 311.85C394.302 331.714 397.17 352.083 405.59 370.539C408.941 377.882 412.87 384.84 416.912 391.821C419.645 396.542 422.805 401.346 424.698 406.474C430.684 401.855 436.843 397.343 441.551 391.35C449.986 380.613 455.617 361.879 460.456 349.049C463.027 342.234 465.949 335.388 468.172 328.455C470.26 321.943 470.928 315.258 473.91 309C483.316 289.257 512.475 259.095 532.12 249.986C540.903 245.914 550.047 244.113 559.697 245.32C567.804 246.333 576.466 249.779 581.434 256.552C584.045 260.113 585.537 264.392 584.71 268.816C583.202 276.879 572.684 289.999 568.232 297.869C563.513 306.212 559.182 314.848 554.777 323.361C548.795 334.921 543.534 346.801 538.093 358.619C533.694 368.175 529.005 377.596 525.195 387.411C521.956 395.82 519.421 404.483 517.616 413.311C513.477 434.466 512.901 456.242 502.098 475.477C493.809 490.236 483.351 503.932 473.549 517.713C459.848 536.922 446.281 556.227 432.849 575.626C424.837 587.204 415.861 598.997 409.685 611.682C407.036 617.122 405.272 622.818 404.974 628.884C404.476 639.026 406.025 649.507 407.08 659.587L411.982 706.024C414.865 736.11 416.412 766.4 419.021 796.533C419.194 798.533 421.06 814.809 420.663 815.751C420.552 816.015 420.266 816.165 420.068 816.372L419.082 816.649C404.018 825.012 340.657 832.382 323.044 832.042L322.63 832.062C318.361 833.075 312.508 832.53 308.092 832.542C274.463 832.631 240.039 829.277 207.32 821.224C202.042 819.926 196.006 818.784 191.082 816.491L189.534 816.118C188.569 813.399 191.049 779.803 191.2 773.93C191.752 755.709 192.025 737.48 192.016 719.25C191.994 704.156 191.993 688.934 189.709 673.982C187.127 657.084 182.576 639.491 175.748 623.82C169.852 610.289 161.624 598.07 154.517 585.187C145.699 569.2 138.508 552.097 132.54 534.859C125.483 514.478 121.055 493.42 115.803 472.541C111.944 457.204 107.281 442.087 103.472 426.746C101.132 417.324 100.965 404.774 97.3899 396.338C92.6659 385.192 81.2029 370.965 74.5009 360.069C68.8549 350.892 64.0889 341.24 59.0649 331.721C56.0619 326.029 52.7809 320.488 49.7489 314.811C43.0809 302.323 36.7899 289.61 29.8749 277.257C18.6319 257.173 -8.28909 219.786 3.34091 196.2C5.83791 191.135 9.37491 188.272 14.7929 186.649C22.4489 184.382 30.7009 185.377 37.5989 189.398C56.5049 200.242 65.2289 227.052 74.0949 245.824C77.3529 252.723 81.0959 259.488 85.0279 266.024C89.5779 273.588 94.0399 281.069 99.4319 288.081C106.562 297.353 114.602 305.764 121.439 315.305C127.957 324.4 135.258 338.585 142.04 346.288C143.727 348.205 145.566 349.868 148.302 349.048C153.042 347.627 157.906 342.23 160.773 338.343C154.723 317.227 144.209 297.971 136.685 277.4C133.386 268.378 130.649 259.153 127.705 250.013C123.317 236.385 118.669 222.886 114.629 209.143C110.144 193.892 106.313 178.476 101.948 163.2C95.5529 140.818 86.7729 119.349 84.2029 95.968C83.4899 89.477 83.5809 82.624 86.9649 76.815C90.9119 70.037 98.6269 65.359 106.135 63.546C113.13 61.857 120.162 62.652 126.352 66.508C133.14 70.736 136.928 77.72 140.047 84.83C148.017 102.997 151.393 121.872 156.492 140.863C158.901 149.832 162.192 158.524 165.342 167.25C168.438 175.825 171.484 184.379 175.284 192.674C183.597 210.818 193.199 227.887 200.032 246.74C202.69 254.135 205.109 261.614 207.287 269.165C210.293 279.3 212.608 291.938 218.778 300.649C221.817 298.502 224.648 296.357 227.076 293.503Z" fill="#F0BEA9"/>
<path d="M317.037 247.663C316.061 223.935 318.682 201.127 319.883 177.533C320.876 158.019 320.649 138.117 320.622 118.563C320.607 107.654 318.712 97.2669 317.402 86.4979C315.998 74.9579 315.382 62.9869 316.054 51.3769C316.51 43.4859 317.573 34.5269 323.314 28.5459C327.468 24.2169 333.08 22.5259 338.96 22.5339C346.701 22.5049 354.105 25.7019 359.392 31.3559C377.822 50.8119 373.72 87.0549 377.378 111.651C380.122 130.096 385.103 148.629 386.225 167.252C386.774 176.376 386.111 185.633 385.89 194.769C385.656 204.424 385.799 214.097 385.47 223.749C384.951 239.006 382.821 254.483 383.02 269.719C383.175 281.551 385.508 293.518 387.326 305.185C390.307 324.328 392.518 344.969 399.721 363.033C405.646 377.891 414.122 391.189 421.622 405.233C414.986 397.941 399.36 381.476 390.162 379.379C388.771 379.184 386.118 377.231 384.983 376.39C383.896 375.584 382.994 374.768 382.743 373.393C383.592 372.631 384.757 372.77 385.876 372.653C388.396 369.53 378.953 342.936 377.837 337.488C376.411 330.531 375.855 323.581 375.16 316.531C374.21 306.906 371.866 282.762 368.881 274.982C368.27 273.389 367.217 271.621 365.812 270.619C365.571 270.447 365.303 270.317 365.05 270.163C364.572 269.872 364.096 269.578 363.614 269.295C352.299 268.177 337.056 267.358 326.21 264.997C324.657 265.304 323.539 266.022 322.089 266.494C320.182 267.114 318.067 267.469 316.268 266.522C315.4 263.814 319.375 254.767 317.346 248.533C317.25 248.241 317.14 247.953 317.037 247.663Z" fill="url(#paint0_linear_143_204)"/>
<path d="M326.21 264.997C333.745 263.185 356.869 265.341 363.056 268.951C363.244 269.061 363.428 269.18 363.614 269.295C352.299 268.177 337.056 267.358 326.21 264.997Z" fill="#020000"/>
<path d="M326.171 182.515C332.871 182.667 339.566 184.961 346.356 185.339C352.687 185.692 363.001 183.971 368.56 185.465L368.271 185.638C353.269 189.232 340.461 188.603 326.171 182.515Z" fill="#020000"/>
<path d="M363.795 103.216C364.691 103.059 365.404 103.119 366.306 103.181C359.006 108.009 338.639 107.573 329.739 107.238C328.69 107.278 327.891 107.217 326.873 106.961L326.838 106.419C332.059 105.366 337.907 105.501 343.251 105.145C350.111 104.636 356.96 103.993 363.795 103.216Z" fill="#36130E"/>
<path d="M339.109 171.109C348.515 170.659 357.754 171.573 366.541 175.071L359.509 174.1C349.413 172.255 338.785 173.193 328.592 173.607C332.075 172.667 335.588 171.889 339.109 171.109Z" fill="#020000"/>
<path d="M358.3 95.1299L359.847 95.1759C357.451 97.3199 350.032 98.9819 346.756 99.1999L344.496 98.8909C346.101 97.2609 355.621 95.7409 358.3 95.1299Z" fill="#36130E"/>
<path d="M227.076 293.503C227.743 274.865 220.65 251.626 217.587 232.644C215.016 216.714 213.318 200.655 210.482 184.761C207.792 169.685 204.012 154.829 201.56 139.694C199.112 124.588 197.999 109.105 195.178 94.102C193.426 84.787 190.481 75.779 188.161 66.604C185.101 54.76 183.707 42.548 184.021 30.32C184.217 21.879 185.569 14.768 192.098 8.76997C198.184 3.17907 207.089 -0.301327 215.382 0.358173C223.081 0.970373 229.666 5.12117 234.436 11.015C251.852 32.531 252.63 79.042 259.815 105.918C266.441 130.7 276.81 154.286 281.521 179.601C285.836 202.786 285.474 226.71 288.846 250.049C290.254 259.794 293.773 268.599 295.861 278.094C302.361 275.525 309.79 271.306 312.581 264.542C316.224 255.708 313.827 234.876 314.022 224.541C314.317 208.963 316.346 193.366 317.246 177.805C317.801 168.213 317.548 158.51 317.621 148.902C317.69 139.711 318.061 130.54 317.975 121.345C317.728 94.985 309.481 68.511 314.4 42.087C315.965 33.679 320.248 25.581 328.388 21.921C335.577 18.688 343.74 19.605 350.854 22.548C360.266 26.442 366.743 35.268 370.501 44.448C375.424 56.471 377.344 71.346 378.118 84.29C378.479 90.331 378.398 96.414 379.017 102.435C381.372 125.329 388.548 148.117 388.967 171.127C389.272 187.878 389.042 205.209 388.058 221.928L386.662 249.252C386.05 260.177 385.287 270.553 386.537 281.491C387.697 291.644 389.503 301.762 391.119 311.85C394.302 331.714 397.17 352.083 405.59 370.539C408.941 377.882 412.87 384.84 416.912 391.821C419.645 396.542 422.805 401.346 424.698 406.474C430.684 401.855 436.843 397.343 441.551 391.35C449.986 380.613 455.617 361.879 460.456 349.049C463.027 342.234 465.949 335.388 468.172 328.455C470.26 321.943 470.928 315.258 473.91 309C483.316 289.257 512.475 259.095 532.12 249.986C540.903 245.914 550.047 244.113 559.697 245.32C567.804 246.333 576.466 249.779 581.434 256.552C584.045 260.113 585.537 264.392 584.71 268.816C583.202 276.879 572.684 289.999 568.232 297.869C563.513 306.212 559.182 314.848 554.777 323.361C548.795 334.921 543.534 346.801 538.093 358.619C533.694 368.175 529.005 377.596 525.195 387.411C521.956 395.82 519.421 404.483 517.616 413.311C513.477 434.466 512.901 456.242 502.098 475.477C493.809 490.236 483.351 503.932 473.549 517.713C459.848 536.922 446.281 556.227 432.849 575.626C424.837 587.204 415.861 598.997 409.685 611.682C407.036 617.122 405.272 622.818 404.974 628.884C404.476 639.026 406.025 649.507 407.08 659.587L411.982 706.024C414.865 736.11 416.412 766.4 419.021 796.533C419.194 798.533 421.06 814.809 420.663 815.751C420.552 816.015 420.266 816.165 420.068 816.372L419.082 816.649C418.658 816.304 418.432 815.93 418.125 815.483C413.864 778.473 412.374 741.215 409 704.135C407.584 688.569 405.728 673.054 404.13 657.507C403.261 649.051 402.025 640.338 402.07 631.837C402.105 625.19 403.833 618.226 406.552 612.184C412.199 599.637 421.397 588.198 429.127 576.855C440.802 559.853 452.618 542.949 464.574 526.143C474.96 511.654 485.718 497.248 495.251 482.177C498.948 476.33 502.345 470.352 504.774 463.856C512.519 443.148 512.765 417.157 519.737 395.006C523.71 382.386 529.824 370.582 535.349 358.609C543.086 341.84 550.196 326.251 558.964 309.919C562.838 302.615 566.905 295.415 571.161 288.327C574.318 283.125 578.212 277.932 580.652 272.356C581.818 269.691 582.901 266.777 582.157 263.86C580.805 258.551 577.095 254.605 572.409 251.944C563.872 247.096 551.467 246.361 542.124 249.009C518.125 255.808 485.521 289.406 475.361 312.1C472.791 317.84 472.405 324.012 470.426 329.902C468.136 336.717 465.294 343.419 462.752 350.15C457.647 363.667 452.688 377.33 445.645 389.983C453.699 397.443 462.356 403.945 468.156 413.497C460.632 405.627 452.785 398.85 444.555 391.759C431.935 408.12 403.363 423.16 384.333 431.186C388.722 426.403 408.971 416.809 416.499 411.837C411.556 410.644 406.418 409.941 401.408 409.046C394.174 407.873 387.116 406.728 380.417 403.636C387.336 405.015 394.474 405.673 401.464 406.668C408.153 407.62 414.791 408.989 421.551 409.322C413.408 397.45 401.058 388.59 390.162 379.379C399.36 381.476 414.986 397.941 421.622 405.233C414.122 391.189 405.646 377.891 399.721 363.033C392.518 344.969 390.307 324.328 387.326 305.185C385.508 293.518 383.175 281.551 383.02 269.719C382.821 254.483 384.951 239.006 385.47 223.749C385.799 214.097 385.656 204.424 385.89 194.769C386.111 185.633 386.774 176.376 386.225 167.252C385.103 148.629 380.122 130.096 377.378 111.651C373.72 87.0549 377.822 50.8119 359.392 31.3559C354.105 25.7019 346.701 22.5049 338.96 22.5339C333.08 22.5259 327.468 24.2169 323.314 28.5459C317.573 34.5269 316.51 43.4859 316.054 51.3769C315.382 62.9869 315.998 74.9579 317.402 86.4979C318.712 97.2669 320.607 107.654 320.622 118.563C320.649 138.117 320.876 158.019 319.883 177.533C318.682 201.127 316.061 223.935 317.037 247.663C316.844 256.808 317.177 265.475 309.972 272.363C304.829 277.28 297.354 281.024 290.507 282.745C289.262 282.24 287.117 281.659 286.266 280.674L286.997 280.719C288.829 280.822 291.215 281.158 292.751 279.91C293.323 279.446 293.405 278.896 293.407 278.173C293.415 275.399 290.516 268.873 289.702 265.875C288.413 261.189 287.38 256.436 286.61 251.638C282.707 227.606 283.286 202.993 278.971 179.068C274.284 153.077 262.925 128.86 256.393 103.357C249.974 78.295 249.488 52.388 240.43 27.877C237.5 19.949 233.153 11.67 226.036 6.72957C220.767 3.07107 214.368 1.85907 208.1 3.13717C200.943 4.59657 194.169 8.99497 190.312 15.242C182.579 27.769 188.129 54.831 191.667 68.472C193.901 77.084 196.468 85.565 198.016 94.343C201.318 113.071 202.668 132.116 206.122 150.851L222.336 243.231C225.272 259.987 230.01 276.504 230.32 293.582C227.772 296.571 223.25 302.153 219.136 302.498C217.844 302.606 216.906 302.084 216.046 301.164C211.087 295.856 202.522 261.747 199.256 252.48C195.121 240.546 190.29 228.865 184.788 217.496C178.714 204.993 172.015 193.017 167.188 179.937C162.417 167.007 157.436 154.061 153.727 140.776C147.905 119.926 144.977 98.245 134.238 79.011C130.08 71.565 124.514 66.664 115.747 65.504C108.322 64.522 100.828 67.037 95.0439 71.665C90.8889 74.99 87.3799 79.572 86.7909 85.003C84.4489 106.598 99.1679 143.481 105.243 165C108.115 175.176 110.488 185.49 113.411 195.654C118.728 214.145 124.701 232.373 130.69 250.651C133.321 258.682 135.57 266.902 138.53 274.815C142.52 285.199 146.751 295.489 151.22 305.676C155.594 315.828 161.446 326.878 162.769 337.945L167.87 332.524C159.246 350.302 136.931 357.219 124.135 371.758C128.744 362.996 137.255 358.265 144.683 352.171C144.506 352.03 144.327 351.89 144.152 351.747C134.929 344.207 125.929 325.982 118.645 315.768C112.052 306.525 104.289 298.362 97.3529 289.419C89.1339 278.824 82.2789 267.014 75.9039 255.228C66.1849 237.258 59.9809 215.323 46.2179 199.897C39.3929 192.247 30.9439 186.963 20.2689 188.095C15.3269 188.619 10.6199 190.291 7.49191 194.341C3.32491 199.738 2.55591 207.755 3.57791 214.329C7.71491 240.932 25.8359 264.102 38.1749 287.314L62.4819 332.692C66.9669 341.025 71.2259 349.496 76.0859 357.62C83.4779 369.977 93.1759 381.728 99.3889 394.683C103.485 403.225 103.479 415.872 105.769 425.312C109.22 439.541 113.82 453.477 117.424 467.666C122.04 485.84 125.701 504.217 131.057 522.204C136.566 540.703 143.524 559.34 152.526 576.447C158.745 588.264 166.044 599.471 172.383 611.22C184.179 633.083 191.831 660.05 193.787 684.831C195.63 708.182 194.18 732.115 194.105 755.547C194.074 765.499 193.824 809.759 191.082 816.491L189.534 816.118C188.569 813.399 191.049 779.803 191.2 773.93C191.752 755.709 192.025 737.48 192.016 719.25C191.994 704.156 191.993 688.934 189.709 673.982C187.127 657.084 182.576 639.491 175.748 623.82C169.852 610.289 161.624 598.07 154.517 585.187C145.699 569.2 138.508 552.097 132.54 534.859C125.483 514.478 121.055 493.42 115.803 472.541C111.944 457.204 107.281 442.087 103.472 426.746C101.132 417.324 100.965 404.774 97.3899 396.338C92.6659 385.192 81.2029 370.965 74.5009 360.069C68.8549 350.892 64.0889 341.24 59.0649 331.721C56.0619 326.029 52.7809 320.488 49.7489 314.811C43.0809 302.323 36.7899 289.61 29.8749 277.257C18.6319 257.173 -8.28909 219.786 3.34091 196.2C5.83791 191.135 9.37491 188.272 14.7929 186.649C22.4489 184.382 30.7009 185.377 37.5989 189.398C56.5049 200.242 65.2289 227.052 74.0949 245.824C77.3529 252.723 81.0959 259.488 85.0279 266.024C89.5779 273.588 94.0399 281.069 99.4319 288.081C106.562 297.353 114.602 305.764 121.439 315.305C127.957 324.4 135.258 338.585 142.04 346.288C143.727 348.205 145.566 349.868 148.302 349.048C153.042 347.627 157.906 342.23 160.773 338.343C154.723 317.227 144.209 297.971 136.685 277.4C133.386 268.378 130.649 259.153 127.705 250.013C123.317 236.385 118.669 222.886 114.629 209.143C110.144 193.892 106.313 178.476 101.948 163.2C95.5529 140.818 86.7729 119.349 84.2029 95.968C83.4899 89.477 83.5809 82.624 86.9649 76.815C90.9119 70.037 98.6269 65.359 106.135 63.546C113.13 61.857 120.162 62.652 126.352 66.508C133.14 70.736 136.928 77.72 140.047 84.83C148.017 102.997 151.393 121.872 156.492 140.863C158.901 149.832 162.192 158.524 165.342 167.25C168.438 175.825 171.484 184.379 175.284 192.674C183.597 210.818 193.199 227.887 200.032 246.74C202.69 254.135 205.109 261.614 207.287 269.165C210.293 279.3 212.608 291.938 218.778 300.649C221.817 298.502 224.648 296.357 227.076 293.503Z" fill="#020000"/>
<path d="M322.63 832.062C321.188 831.89 319.888 832.173 318.518 831.526C317.502 828.891 317.494 797.345 317.398 791.268C317.122 773.818 317.175 756.378 316.401 738.938C316.088 731.894 314.941 724.915 314.463 717.884C313.952 710.361 314.052 702.801 313.831 695.266C313.706 690.984 311.196 655.058 311.566 654.239C312.501 652.171 315.217 650.396 317.379 649.931C318.551 649.68 319.121 649.877 320.106 650.48C321.112 655.475 320.693 661.765 320.433 666.875L320.402 667.415C320.065 673.384 322.217 680.031 321.411 685.735C324.693 719.114 325.053 753.225 323.937 786.727L323.963 790.989C324.306 804.499 325.773 818.63 323.044 832.042L322.63 832.062Z" fill="#E3AC96"/>
<path d="M320.352 691.391C320.56 689.065 320.186 687.81 321.411 685.735C324.693 719.114 325.053 753.225 323.937 786.727C323.636 787.86 323.335 788.983 322.976 790.1C322.62 789.416 322.288 788.757 321.991 788.044C322.728 779.428 322.124 770.357 322.087 761.692C321.988 738.218 321.042 714.85 320.352 691.391Z" fill="#020000"/>
<path d="M320.352 691.391C319.176 689.113 318.861 671.534 318.767 667.531C319.008 668.496 319.084 668.825 319.729 669.622L320.402 667.415C320.065 673.384 322.217 680.031 321.411 685.735C320.186 687.81 320.56 689.065 320.352 691.391Z" fill="#6B3D2C"/>
<path d="M321.991 788.044C322.288 788.757 322.62 789.416 322.976 790.1C323.335 788.983 323.636 787.86 323.937 786.727L323.963 790.989C323.615 795.389 323.02 799.656 322.237 803.999C321.82 798.681 321.856 793.372 321.991 788.044Z" fill="#8C6658"/>
<path d="M401.408 409.046C406.418 409.941 411.556 410.644 416.499 411.837C408.971 416.809 388.722 426.403 384.333 431.186C380.813 435.1 355.273 445.626 349.745 446.028L349.634 445.417C357.453 437.028 374.533 427.359 384.531 421.232C390.281 417.708 397.448 414.61 401.408 409.046Z" fill="#E3AC96"/>
<path d="M300.434 790.74C299.561 784.454 298.174 778.314 297.542 771.975C296.835 764.888 296.933 757.652 295.94 750.61C294.897 743.208 293.08 735.879 291.868 728.496C290.293 718.905 289.561 708.967 289.147 699.262C288.671 688.141 289.972 677.444 290.112 666.391C290.166 662.161 289.267 652.217 290.641 648.923C291.179 647.632 291.373 647.496 292.575 646.996C293.982 647.194 294.461 647.179 295.451 648.314C298.065 651.31 297.046 661.217 297.01 665.109C296.985 666.271 297.039 667.469 296.817 668.611C298.195 678.073 299.616 688.123 299.487 697.689C300.259 710.736 301.829 723.732 302.637 736.778C303.398 749.06 303.368 761.294 302.991 773.582C302.975 775.756 302.988 777.936 302.905 780.11C303.33 785.025 302.527 799.469 300.915 803.818C300.664 799.463 300.504 795.102 300.434 790.74Z" fill="#E3AC96"/>
<path d="M297.456 701.744C297.487 699.836 297.516 698.079 297.959 696.217L298.654 696.106L299.487 697.689C300.259 710.736 301.829 723.732 302.637 736.778C303.398 749.06 303.368 761.294 302.991 773.582L302.062 773.939C302.081 771.518 301.948 769.355 301.53 766.966C302.03 746.054 298.499 722.758 297.456 701.744Z" fill="#020000"/>
<path d="M296.817 668.611C298.195 678.073 299.616 688.123 299.487 697.689L298.654 696.106L297.959 696.217C297.516 698.079 297.487 699.836 297.456 701.744C295.991 695.405 296.289 683.272 295.956 676.233C296.03 673.789 295.761 670.848 296.817 668.611Z" fill="#6B3D2C"/>
<path d="M301.53 766.966C301.948 769.355 302.081 771.518 302.062 773.939L302.991 773.582C302.975 775.756 302.988 777.936 302.905 780.11C303.33 785.025 302.527 799.469 300.915 803.818C300.664 799.463 300.504 795.102 300.434 790.74C300.628 782.873 301.156 774.845 301.53 766.966Z" fill="#BF8B74"/>
<path d="M302.062 773.939L302.991 773.582C302.975 775.756 302.988 777.936 302.905 780.11C301.728 778.152 302.005 776.124 302.062 773.939Z" fill="#573936"/>
<path d="M295.956 676.233C295.025 672.361 294.975 666.352 295.812 662.493L296.301 662.434L297.01 665.109C296.985 666.271 297.039 667.469 296.817 668.611C295.761 670.848 296.03 673.789 295.956 676.233Z" fill="#BF8B74"/>
<path d="M304.359 628.219C310.81 627.641 317.577 627.907 324.054 627.956C337.138 628.05 350.217 628.464 363.281 629.197C353.488 630.916 342.913 630.423 332.999 630.414C311.938 630.395 289.096 629.71 268.752 635.958C262.322 637.933 255.983 640.955 249.755 643.532C232.618 650.109 213.634 652.816 195.501 650.017C210.883 649.256 225.594 647.887 240.523 643.809C250.043 641.209 258.673 636.664 267.98 633.568C279.549 629.72 292.256 628.952 304.359 628.219Z" fill="#020000"/>
<path d="M65.993 314.307L65.666 313.896C65.815 313.629 65.937 313.345 66.115 313.096C68.964 309.116 87.682 298.35 92.522 298.171L92.629 298.601C92.775 298.692 92.92 298.786 93.067 298.875C94.635 299.832 99.081 300.449 99.728 301.706C99.553 301.828 99.375 301.949 99.201 302.073C98.665 302.457 98.203 302.844 97.723 303.292C89.864 311.422 76.618 318.767 66.749 324.401C68.302 322.989 69.831 321.535 71.467 320.221C71.17 319.999 70.877 319.77 70.571 319.56C68.377 318.052 66.954 316.864 65.993 314.307Z" fill="#E3AC96"/>
<path d="M97.723 303.292C89.864 311.422 76.618 318.767 66.749 324.401C68.302 322.989 69.831 321.535 71.467 320.221C79.106 313.974 88.633 307.157 97.723 303.292Z" fill="#020000"/>
<path d="M65.993 314.307L65.666 313.896C65.815 313.629 65.937 313.345 66.115 313.096C68.964 309.116 87.682 298.35 92.522 298.171L92.629 298.601C83.234 302.864 75.318 310.081 65.993 314.307Z" fill="#020000"/>
<path d="M346.846 348.721L346.717 350.014C329.138 359.367 313.885 372.132 298.927 385.152C277.772 403.565 257.652 423.353 235.634 440.712L234.535 440.209C261.592 416.693 315.983 360.857 346.846 348.721Z" fill="#020000"/>
<path d="M279.517 529.112C278.948 516.386 278.063 503.966 278.902 491.217C280.983 459.567 290.42 424.63 308.478 398.301C310.706 395.053 313.149 391.37 315.854 388.513C316.122 388.23 316.418 387.974 316.705 387.711L316.815 388.157C311.694 395.633 306.435 402.917 302.34 411.035C285.103 445.201 277.158 492.058 280.656 530.094L279.517 529.112Z" fill="#020000"/>
<path d="M251.718 377.232L252.664 378.217C238.574 395.293 221.2 409.368 201.572 419.609C187.904 426.72 173.634 432.691 160.113 440.087C153.554 443.675 147.584 447.805 141.339 451.872C140.564 452.376 139.515 453.379 138.626 453.194C156.214 436.062 179.804 429.46 201.059 418.502C220.307 408.579 237.594 393.532 251.718 377.232Z" fill="#020000"/>
<path d="M56.925 248.824C60.417 246.757 63.886 244.615 67.523 242.81C55.699 253.158 43.142 261.312 29.155 268.48C33.692 264.333 38.417 260.716 43.573 257.377C42.677 257.59 41.959 257.827 41.031 257.645C40.247 257.491 40.167 256.889 39.786 256.25C40.463 255.373 41.171 254.519 41.983 253.761C44.325 251.573 53.571 245.021 56.481 245.093L55.097 246.865C56.511 246.376 57.705 245.841 59.218 245.851L57.711 247.624C57.143 248.291 57.35 248.008 56.925 248.824Z" fill="#020000"/>
<path d="M39.786 256.25C40.463 255.373 41.171 254.519 41.983 253.761C44.325 251.573 53.571 245.021 56.481 245.093L55.097 246.865C56.511 246.376 57.705 245.841 59.218 245.851L57.711 247.624C57.143 248.291 57.35 248.008 56.925 248.824C53.061 251.966 48.073 255.258 43.573 257.377C42.677 257.59 41.959 257.827 41.031 257.645C40.247 257.491 40.167 256.889 39.786 256.25Z" fill="#E3AC96"/>
<path d="M39.786 256.25C40.463 255.373 41.171 254.519 41.983 253.761C44.325 251.573 53.571 245.021 56.481 245.093L55.097 246.865C50.263 248.737 44.939 253.716 39.786 256.25Z" fill="#020000"/>
<path d="M274.311 660.837L274.913 661.395C256.226 669.033 233.02 677.166 212.619 676.837C222.84 673.524 233.421 672.292 243.815 669.73C254.106 667.193 264.041 663.442 274.311 660.837Z" fill="#020000"/>
<path d="M337.097 605.835C357.134 613.274 374.414 610.654 395.029 609.508C376.384 615.454 354.734 615.086 336.579 607.572L337.097 605.835Z" fill="#020000"/>
<path d="M430.834 423.857C431.296 440.711 440.596 455.27 450.243 468.566C452.498 471.675 456.225 475.706 456.875 479.5C448.753 469.156 440.278 458.645 434.479 446.755C430.846 439.307 427.977 432.077 430.834 423.857Z" fill="#020000"/>
<path d="M284.479 578.791C288.606 581.14 295.592 590.311 299.671 594.056C308.847 602.481 321.272 607.13 332.56 611.991C332.101 611.955 332.023 611.959 331.501 611.862C311.745 608.215 295.364 595.264 284.479 578.791Z" fill="#020000"/>
<path d="M263.255 185.541C263.48 185.586 263.639 185.794 263.818 185.937C253.009 193.54 237.39 194.889 224.667 193.278L223.417 192.827C224.818 192.009 236.549 191.624 238.815 191.319C247.241 190.187 255.164 188.048 263.255 185.541Z" fill="url(#paint1_linear_143_204)"/>
<path d="M265.608 539.746C267.045 541.312 268.061 543.433 269.15 545.27C273.055 551.864 277.005 558.617 281.781 564.631C285.945 569.875 290.949 574.584 294.558 580.234C283.426 574.064 270.019 551.582 265.608 539.746Z" fill="#020000"/>
<path d="M478.894 335.021C488.998 336.874 506.482 346.711 515.481 352.016C508.504 350.856 484.584 339.756 478.894 335.021Z" fill="#36130E"/>
<path d="M173.209 233.954L173.743 234.115C173.646 234.234 173.559 234.362 173.452 234.472C172.264 235.694 170.243 236.581 168.761 237.423C159.666 242.584 150.402 245.652 139.994 246.567C139.735 246.467 139.564 246.216 139.365 246.023C142.787 243.737 150.384 242.63 154.613 241.219C160.937 239.131 167.144 236.705 173.209 233.954Z" fill="#020000"/>
<path d="M145.162 143.978L145.692 144.172C145.548 144.417 145.433 144.682 145.261 144.909C144.61 145.764 142.927 146.689 142.029 147.321C133.461 153.34 122.822 155.594 112.612 156.818L111.905 156.711C114.222 154.807 119.98 153.966 122.988 153.005C130.681 150.547 137.922 147.548 145.162 143.978Z" fill="#020000"/>
<path d="M162.58 219.631C166.028 219.307 169.503 219.611 172.954 219.788C159.719 221.213 152.145 224.461 142.028 233.144C139.903 234.864 137.579 236.377 135.339 237.945C142.546 228.836 150.863 221.564 162.58 219.631Z" fill="#020000"/>
<path d="M242.516 170.616C249.446 169.898 254.929 170.836 261.068 174.281C251.805 171.179 244.917 171.586 235.698 174.795C230.663 177.186 226.121 180.311 220.95 182.521C227.839 176.772 233.686 172.757 242.516 170.616Z" fill="#020000"/>
<path d="M235.291 89.6209L236.978 89.6099L236.908 89.9769C228.933 94.8309 218.123 95.7379 209.014 96.4899L207.346 96.3259L207.358 95.9929C212.869 93.2739 228.542 90.9439 235.291 89.6209Z" fill="#020000"/>
<path d="M297.328 300.432C293.278 308.798 288.317 317.02 283.33 324.872C280.811 328.836 277.779 332.787 275.632 336.946L274.915 336.364C281.479 324.241 288.558 311.085 297.328 300.432Z" fill="#36130E"/>
<path d="M479.873 323.453C480.139 323.468 480.405 323.479 480.671 323.499C489.716 324.181 502.936 330.648 508.858 337.6C505.366 335.85 502.232 333.51 498.672 331.778C492.519 328.786 486.065 326.406 479.873 323.453Z" fill="#020000"/>
<path d="M199.512 311.071L199.616 311.168L199.627 311.765C192.892 318.783 186.322 323.341 177.279 326.997C177.095 326.908 177.037 326.666 176.938 326.488C184.626 321.492 192.093 316.467 199.512 311.071Z" fill="#020000"/>
<path d="M252.644 182.609L252.863 182.625L253.073 182.943C246.706 187.018 237.856 188.38 230.435 188.62L229.83 188.385C232.547 185.885 248.245 183.518 252.644 182.609Z" fill="#020000"/>
<path d="M257.384 271.65C260.741 271.286 263.496 271.839 266.713 272.791C260.302 272.855 253.843 274.322 247.739 276.191L239.081 279.724C245.212 275.595 250.016 272.925 257.384 271.65Z" fill="#020000"/>
<path d="M129.174 370.954C129.233 371.499 129.287 371.66 129.143 372.268C127.512 379.161 118.872 386.699 113.387 390.624L113.302 390.23C114.06 388.052 117.762 385.173 119.378 383.288C122.801 379.298 125.665 374.872 129.174 370.954Z" fill="#020000"/>
<path d="M140.192 135.996L140.667 136.107C137.895 140.182 123.226 145.773 118.136 147.513L117.39 147.128C123.895 142.373 132.839 139.228 140.192 135.996Z" fill="#020000"/>
<path d="M237.743 80.5088L238.153 80.5738C238.09 81.0198 238.161 80.9958 237.862 81.3318C234.72 84.8618 223.557 87.0218 218.939 87.6978L218.328 87.4278C221.052 85.1018 233.781 81.7968 237.743 80.5088Z" fill="#020000"/>
<path d="M251.718 377.232C257.049 370.116 262.293 362.392 268.614 356.12C263.688 363.542 258.684 371.647 252.664 378.217L251.718 377.232Z" fill="#6B3D2C"/>
<path d="M323.096 600.28L325.303 600.419C328.647 602.856 333.248 604.28 337.097 605.835L336.579 607.572C331.766 605.558 327.415 603.212 323.096 600.28Z" fill="#36130E"/>
<path d="M235.634 440.712C232.948 442.903 222.646 452.565 220.33 452.94L220.378 452.907L220.08 453.561L220.63 453.226L220.557 452.745C224.952 448.28 229.62 444.094 234.535 440.209L235.634 440.712Z" fill="#6B3D2C"/>
<path d="M323.096 600.28C320.607 598.786 318.664 596.641 317.098 594.214C319.414 594.214 322.802 598.126 324.604 599.575C325.137 600.004 324.919 599.772 325.303 600.419L323.096 600.28Z" fill="#BF8B74"/>
<path d="M274.915 336.364L275.632 336.946C274.736 339.272 274.21 341.6 271.816 342.741L271.292 342.121C271.499 339.941 273.475 337.946 274.915 336.364Z" fill="#BF8B74"/>
<path d="M279.517 529.112L280.656 530.094C281.586 533.355 281.614 538.01 281.725 541.419C280.586 537.377 280.078 533.263 279.517 529.112Z" fill="#8C6658"/>
<path d="M346.846 348.721C349.22 347.583 351.673 346.896 354.191 346.169L354.192 346.452C351.73 347.725 349.255 348.9 346.717 350.014L346.846 348.721Z" fill="#573936"/>
<path d="M274.311 660.837C276.466 659.967 278.315 659.99 280.594 660.036C279.328 661.368 276.624 661.021 274.913 661.395L274.311 660.837Z" fill="#BF8B74"/>
<defs>
<linearGradient id="paint0_linear_143_204" x1="614.243" y1="417.727" x2="-26.0421" y2="348.819" gradientUnits="userSpaceOnUse">
<stop stop-color="#E0A78D"/>
<stop offset="1" stop-color="#F7C6B3"/>
</linearGradient>
<linearGradient id="paint1_linear_143_204" x1="287.446" y1="672.473" x2="117.999" y2="561.467" gradientUnits="userSpaceOnUse">
<stop/>
<stop offset="1" stop-color="#1C0503"/>
</linearGradient>
</defs>
</svg>
