<svg width="683" height="683" viewBox="0 0 683 683" fill="none" xmlns="http://www.w3.org/2000/svg">
<mask id="mask0_141_5423" style="mask-type:alpha" maskUnits="userSpaceOnUse" x="0" y="0" width="683" height="683">
<circle cx="341.5" cy="341.5" r="341.5" fill="#D9D9D9"/>
</mask>
<g mask="url(#mask0_141_5423)">
<path d="M177.904 13.9768C175.68 11.3972 173.47 8.98299 170.313 7.53232C167.517 6.24699 164.312 5.86548 161.277 5.60908C155.423 5.11529 149.524 6.20789 143.667 5.94703C132.076 5.43033 74.1166 -0.849375 67.4694 1.52241C63.6301 6.25482 62.9978 19.3622 62.2415 25.7151C57.2197 67.9085 55.5339 111.02 59.9998 153.356C60.1518 154.796 60.1512 156.878 60.7171 158.202C61.26 169.379 64.096 187.877 67.6805 198.343C68.0682 199.727 68.3961 201.311 69.6512 202.191C69.7116 202.234 69.7797 202.263 69.8439 202.299C78.3513 206.564 104.779 206.641 115.467 208.104C124.386 209.326 133.024 213.971 142.235 212.392C149.28 211.183 151.854 205.253 155.586 199.927C154.974 230.584 158.82 258.273 169.953 287.105C178.331 308.798 191.04 327.638 202.493 347.684C221.786 381.453 246.649 436.025 251.249 474.711C252.79 487.665 252.362 501.686 250.538 514.595C249.242 523.761 247.221 532.889 246.887 542.161C246.464 553.942 249.739 565.041 257.93 573.761C263.556 579.749 270.337 583.408 278.199 585.586C290.216 588.916 302.533 588.765 314.877 589.346C324.156 589.787 333.378 590.703 342.477 592.613C357.648 595.797 372.235 601.83 386.573 607.628C396.427 611.617 405.869 615.678 416.331 617.884C422.539 619.191 429.489 619.778 435.803 619.113C441.138 618.543 446.94 616.99 452.276 617.767C459.881 618.867 464.438 625.47 474.522 625.699C479.714 625.822 484.318 623.85 488.064 620.32C490.902 621.861 493.852 623.118 497.075 623.565C503.044 624.386 507.767 622.28 512.417 618.717C515.804 619.851 519.087 620.599 522.657 620.029C528.348 619.13 532.672 615.527 535.926 610.958C540.789 611.701 545.113 611.952 549.444 609.148C553.499 606.517 555.342 602.556 556.326 597.987C558.328 597.049 560.264 596.088 562.032 594.753C566.343 591.485 569.73 586.81 570.438 581.358C570.574 580.313 570.605 579.263 570.528 578.219C570.378 575.967 569.641 573.794 568.39 571.918C563.829 565.064 552.425 565.779 545.147 563.405C538.811 561.338 533.092 557.618 526.894 555.216C520.071 552.573 512.862 551.043 506.026 548.457C499.705 546.071 494.248 542.334 488.143 539.597C480.766 536.285 473.135 533.805 465.896 530.118C447.853 520.912 431.599 508.372 414.941 496.926C403.228 488.883 390.815 481.654 380.287 472.033C371.47 463.977 363.766 454.248 357.396 444.167C335.811 410.004 328.052 371.319 320.725 332.281C314.316 298.137 309.558 263.638 302.736 229.596C298.181 206.865 292.333 184.346 286.876 161.815C284.837 153.398 282.25 144.964 280.688 136.449C279.344 129.129 279.235 121.561 278.718 114.147C277.21 92.5369 274.997 67.5772 261.282 49.8642C241.967 24.9158 207.495 17.7797 177.904 13.9768Z" fill="#000001"/>
<path d="M67.4694 1.52241C63.6301 6.25482 62.9978 19.3622 62.2415 25.7151C57.2197 67.9085 55.5339 111.02 59.9998 153.356C60.1518 154.796 60.1512 156.878 60.7171 158.202C61.9275 159.664 61.776 163.292 62.1687 165.205C72.0709 164.42 86.4145 163.879 95.7503 162.043C97.1495 170.642 99.451 179.886 103.409 187.7C100.779 179.245 98.4991 170.905 96.7077 162.234C94.1745 148.941 92.0848 130.937 92.2144 117.489C92.4736 90.6383 99.8459 56.7149 113.93 33.7673C119.258 25.0867 129.207 11.8414 139.591 9.34389L139.913 8.41997L140.044 8.27474C137.276 5.78341 72.2448 4.62764 67.4694 1.52241Z" fill="#3772A2"/>
<path d="M139.913 8.41997C127.59 11.5833 118.429 23.6774 112.247 34.1242C98.7992 56.8483 91.2196 91.1477 91.0956 117.406C91.0548 126.059 92.1329 134.867 93.0998 143.458C93.7925 149.615 94.4007 155.998 95.7503 162.043C97.1495 170.642 99.451 179.886 103.409 187.7C100.779 179.245 98.4991 170.905 96.7077 162.234C94.1745 148.941 92.0848 130.937 92.2144 117.489C92.4736 90.6383 99.8459 56.7149 113.93 33.7673C119.258 25.0867 129.207 11.8414 139.591 9.34389L139.913 8.41997Z" fill="#000001"/>
<path d="M176.134 13.8396C168.091 8.04135 161.029 7.68609 151.428 8.24915C147.474 8.48152 143.507 8.72329 139.591 9.34389C129.207 11.8414 119.258 25.0867 113.93 33.7673C99.8459 56.7149 92.4736 90.6383 92.2144 117.489C92.0848 130.937 94.1745 148.941 96.7077 162.234C104.476 161.907 112.248 161.679 120.023 161.549C120.768 160.897 120.726 159.848 120.889 158.886C120.13 150.387 119.58 141.639 119.652 133.11C119.907 102.546 125.256 66.9138 139.627 39.6561C142.641 33.9383 145.927 28.1306 150.605 23.592C158.517 15.9181 165.35 13.6044 176.134 13.8396Z" fill="#3772A2"/>
<path d="M62.1687 165.205C61.776 163.292 61.9275 159.664 60.7171 158.202C61.26 169.379 64.096 187.877 67.6805 198.343C68.0682 199.727 68.3961 201.311 69.6512 202.191C69.7116 202.234 69.7797 202.263 69.8439 202.299L72.5949 202.106C76.4548 202.929 80.8984 202.761 84.8627 203.071C94.866 203.853 105.137 204.529 115.083 205.795C122.761 206.772 130.113 209.679 137.882 210.308C140.577 210.527 142.977 209.989 145.556 209.263L145.26 208.53C141.794 208.805 138.902 207.553 136.252 205.323C124.442 195.385 122.153 173.241 120.889 158.886C120.726 159.848 120.768 160.897 120.023 161.549C112.248 161.679 104.476 161.907 96.7077 162.234C98.4991 170.905 100.779 179.245 103.409 187.7C99.451 179.886 97.1495 170.642 95.7503 162.043C86.4145 163.879 72.0709 164.42 62.1687 165.205Z" fill="#27618A"/>
<path d="M72.5949 202.106C71.8671 199.806 69.9623 196.414 68.0212 194.994L67.5872 195.449C67.8229 196.402 67.8441 197.056 67.7224 198.032L67.6805 198.343C68.0682 199.727 68.3961 201.311 69.6512 202.191C69.7116 202.234 69.7797 202.263 69.8439 202.299L72.5949 202.106Z" fill="#3772A2"/>
<path d="M157.816 171.62C148.221 163.082 135.28 161.218 123.106 159.023C124.121 171.092 125.774 185.301 131.422 196.189C134.732 202.569 138.854 205.916 145.585 208.075L145.26 208.53L145.556 209.263C149.436 206.657 152.395 200.904 155.33 197.196C156.087 188.737 156.434 179.99 157.816 171.62Z" fill="#00324B"/>
<path d="M275.29 123.233C276.05 98.9232 273.63 67.762 256.87 48.6369C242.397 32.1221 221.113 24.9363 200.307 20.2424C191.963 18.36 183.236 16.7037 174.687 16.1725C166.052 15.6363 159.597 18.2712 153.155 24.0487C137.695 37.9136 125.642 79.545 124.465 100.176C122.565 110.937 121.78 124.925 122.019 135.896C122.173 142.96 122.85 150.039 122.833 157.1C135.115 158.379 148.735 160.547 157.981 169.462L158.169 164.81L158.431 164.805C158.225 166.968 157.843 168.804 159.259 170.601C159.973 170.681 160.077 170.587 160.728 170.256C155.231 219.946 158.94 262.058 182.146 307.355C189.649 321.999 198.764 335.757 206.775 350.119C226.269 385.068 243.816 424.796 252.145 464.033C255.208 478.465 255.261 493.15 253.939 507.808C252.097 528.213 243.253 551.506 257.668 569.527C266.658 580.766 279.689 584.19 293.366 585.609C301.456 586.452 309.667 586.419 317.79 586.877C328.168 587.463 338.725 588.938 348.795 591.546C362.372 595.054 375.678 600.864 388.678 606.12C401.17 611.164 412.982 616.678 426.723 617.108C435.13 617.365 443.241 615.532 451.548 614.644C451.844 613.857 451.684 613.533 451.518 612.723L454.401 615.387C453.385 613.27 452.329 611.17 451.538 608.952C457.26 617.197 459.866 621.124 470.423 623.029C474.477 623.766 480.328 623.643 483.874 621.258C484.952 620.532 486.062 619.309 486.333 617.996C486.658 616.432 486.002 614.695 485.529 613.209L484.674 614.873L484.571 615.432L481.922 616.89C480.443 616.516 479.107 616.169 478.09 614.952C476.739 613.332 475.978 611.354 476.302 609.237C476.523 607.785 477.044 606.751 478.204 605.858L478.801 605.081C477.912 604.841 477.363 605.288 476.562 605.684L477.56 604.014C475.541 600.283 463.197 596.881 459.067 595.077C456.206 593.826 453.501 592.273 450.793 590.731C454.796 591.608 470.918 597.44 474.646 599.54C482.301 603.841 486.649 609.963 489.008 618.219C493.288 621.141 498.353 621.9 503.422 621.074C505.823 620.683 508.671 619.89 510.07 617.728C511.498 615.527 510.361 612.605 509.815 610.243C508.282 611.695 506.733 612.617 504.573 612.784C502.622 612.941 500.584 612.265 499.15 610.918C497.985 609.824 497.23 608.343 497.186 606.735C497.143 605.137 497.741 602.97 498.887 601.847L499.577 601.126L502.493 600.875L502.739 600.529C495.385 592.904 487.95 591.312 478.845 587.161C474.62 585.24 470.589 582.911 466.312 581.095C471.104 582.268 475.197 584.341 479.751 586.1C483.638 587.597 487.713 588.67 491.54 590.318C499.564 593.77 506.442 600.406 510.974 607.846C511.832 610.494 512.515 613.08 513.101 615.801C517.745 617.404 521.872 618.521 526.56 616.264C528.496 615.331 530.27 613.974 531.779 612.449L534.008 609.924C533.655 608.349 533.276 606.774 532.872 605.21L531.999 607.115C531.739 607.662 531.382 608.159 530.945 608.578C529.676 609.807 527.428 610.209 525.725 610.097C523.926 609.974 522.105 609.232 520.928 607.829C519.042 605.584 519.004 599.925 519.376 597.166C519.825 593.837 521.123 595.278 523.072 593.775C523.032 593.613 523.001 593.457 522.952 593.3C522.508 591.882 520.792 590.669 519.663 589.781C512.515 584.128 505.115 582.039 496.963 578.503C492.558 576.593 488.241 574.442 483.934 572.32C488.673 573.482 493.111 575.744 497.703 577.364C516.957 584.162 517.438 584.078 531.548 599.132C533.691 601.886 534.726 604.232 535.68 607.595C537.552 608.304 539.618 609.075 541.642 609.137C545.023 609.237 548.489 607.919 550.86 605.489C552.946 603.35 554.056 600.21 553.986 597.261C550.952 592.463 548.134 588.826 543.067 586.083L543.215 585.821L544.104 585.681C543.391 583.503 540.861 582.134 539.031 580.911C533.531 577.202 527.624 574.135 521.426 571.767C514.152 568.996 506.374 566.812 499.599 562.896L499.165 562.639C515.401 567.13 530.987 572.091 544.453 582.497C548.44 586.77 552.659 590.468 556.303 595.105C559.014 593.814 561.585 592.228 563.668 590.044C567.333 586.206 568.366 581.939 568.241 576.772C567.321 573.627 566.121 570.996 562.986 569.482C557.695 566.935 548.885 566.79 542.598 564.393C537.285 562.365 532.382 559.411 527.09 557.36C519.616 554.456 511.754 552.64 504.262 549.769C498.357 547.507 493.224 543.882 487.5 541.29C482.128 538.854 476.409 537.156 470.991 534.793C461.89 530.816 453.379 525.621 445.079 520.197C435.681 514.053 426.604 507.439 417.28 501.183C397.322 487.804 380.774 478.599 365.322 459.326C335.127 421.668 326.137 375.271 317.616 329.16C311.783 297.596 307.162 265.762 300.988 234.278C296.24 210.07 290.096 186.091 284.284 162.119C282.24 153.689 279.887 145.332 278.111 136.84C277.988 134.237 277.47 131.593 277.101 129.012C277.068 126.963 276.971 124.916 276.811 122.873L276.599 123.246L275.29 123.233Z" fill="#E4BB9B"/>
<path d="M124.465 100.176C122.565 110.937 121.78 124.925 122.019 135.896C122.173 142.96 122.85 150.039 122.833 157.1C135.115 158.379 148.735 160.547 157.981 169.462L158.169 164.81L158.431 164.805C158.225 166.968 157.843 168.804 159.259 170.601C159.973 170.681 160.077 170.587 160.728 170.256C155.231 219.946 158.94 262.058 182.146 307.355C189.649 321.999 198.764 335.757 206.775 350.119C226.269 385.068 243.816 424.796 252.145 464.033C255.208 478.465 255.261 493.15 253.939 507.808C252.097 528.213 243.253 551.506 257.668 569.527C266.658 580.766 279.689 584.19 293.366 585.609C301.456 586.452 309.667 586.419 317.79 586.877C328.168 587.463 338.725 588.938 348.795 591.546C362.372 595.054 375.678 600.864 388.678 606.12C401.17 611.164 412.982 616.678 426.723 617.108C435.13 617.365 443.241 615.532 451.548 614.644C451.844 613.857 451.684 613.533 451.518 612.723L454.401 615.387C453.385 613.27 452.329 611.17 451.538 608.952C457.26 617.197 459.866 621.124 470.423 623.029C474.477 623.766 480.328 623.643 483.874 621.258C484.952 620.532 486.062 619.309 486.333 617.996C486.658 616.432 486.002 614.695 485.529 613.209L484.674 614.873L484.571 615.432L481.922 616.89C481.244 617.381 480.395 617.661 479.584 617.845C476.77 618.493 473.395 618.404 470.534 618.13C457.428 616.901 458.105 609.455 450.154 607.064C446.533 605.975 439.196 608.668 435.064 608.992C430.626 609.338 426.154 608.93 421.785 608.12C403.26 604.69 377.249 587.424 358.926 579.526C354.26 577.515 349.391 575.632 344.387 574.66C321.372 570.169 293.042 582.313 272.068 568.929C263.715 563.6 258.921 554.048 256.833 544.625C253.815 531.006 255.021 505.3 262.767 493.407C263.731 491.927 264.789 490.681 266.584 490.285C271.793 491.134 277.655 499.619 281.459 503.216C283.329 504.97 285.362 506.545 287.531 507.914C291.815 510.634 300.01 514.517 305.231 513.226C305.325 513.204 305.417 513.176 305.511 513.148C306.353 513.601 307.018 513.857 307.961 514.031L307.968 513.595L306.401 512.26C304.077 508.635 300.157 504.68 296.629 502.2C288.8 493.726 284.6 488.246 281.179 476.974C282.792 468.911 281.636 459.713 279.491 451.866C278.132 446.898 271.662 423.681 268.43 421.841L267.924 422.122C267.622 425.762 269.353 430.602 269.948 434.286C271.371 443.1 272.463 452.379 271.993 461.305C270.074 457.488 269.381 452.747 268.415 448.589C266.846 441.835 265.391 434.936 263.156 428.369C259.221 416.803 254.059 405.742 249.139 394.577C245.207 385.656 241.523 376.61 237.472 367.743C233.2 358.39 228.186 349.042 222.776 340.312C217.333 331.53 211.402 323.122 206.154 314.207C197.889 300.166 189.787 285.876 183.464 270.829C170.794 240.68 166.6 207.014 167.729 174.517C168.104 163.698 170.684 153.086 170.988 142.253C159.422 134.9 143.736 136.403 131.735 132.927C122.019 130.113 128.509 106.957 124.601 100.385C124.559 100.313 124.51 100.245 124.465 100.176Z" fill="#D6AB8A"/>
<path d="M275.244 449.371L274.906 451.832C275.678 469.85 277.545 491.273 291.769 504.322C295.104 507.383 298.938 509.5 302.874 511.662L303.172 511.198C292.374 504.768 284.957 497.49 281.424 485.117L283.843 489.346C280.943 481.699 277.815 474.046 276.629 465.907C275.834 460.446 275.757 454.869 275.244 449.371Z" fill="#3E221C"/>
<path d="M281.179 476.974C279.188 469.958 279.158 462.61 278.309 455.416C277.066 469.018 280.896 485.123 289.767 495.697C291.576 497.853 294.102 500.937 296.629 502.2C288.8 493.726 284.6 488.246 281.179 476.974Z" fill="#6D463C"/>
<path d="M160.728 170.256C161.373 167.387 162.639 154.318 161.426 151.975C161.38 151.887 161.311 151.813 161.253 151.732L161.367 151.261L161.527 152.028L161.16 152.031C160.494 156.847 160.55 161.825 159.989 166.686C159.798 164.198 159.58 161.732 159.245 159.258C158.488 160.706 159.041 162.704 158.586 164.298C158.537 164.468 158.483 164.636 158.431 164.805C158.225 166.968 157.843 168.804 159.259 170.601C159.973 170.681 160.077 170.587 160.728 170.256Z" fill="#170A08"/>
<path d="M306.401 512.26C305.396 511.791 304.235 511.527 303.172 511.198L302.874 511.662L305.511 513.148C306.353 513.601 307.018 513.857 307.961 514.031L307.968 513.595L306.401 512.26Z" fill="#D56E4D"/>
<path d="M275.244 449.371C275.135 448.21 275.2 446.512 274.521 445.549C274.04 447.446 274.324 449.973 274.906 451.832L275.244 449.371Z" fill="#D56E4D"/>
<path d="M556.303 595.105C559.014 593.814 561.585 592.228 563.668 590.044C567.333 586.206 568.366 581.939 568.241 576.772C563.822 581.05 560.874 584.977 554.051 584.871C550.651 584.815 547.56 583.793 544.453 582.497C548.44 586.77 552.659 590.468 556.303 595.105Z" fill="#D6AB8A"/>
<path d="M553.986 597.261L552.253 597.093C552.156 598.869 551.804 600.137 550.466 601.383C548.842 602.897 546.124 603.494 543.936 603.377C542.759 603.315 541.629 602.813 540.552 602.366C538.004 603.394 534.03 599.97 531.548 599.132C533.691 601.886 534.726 604.232 535.68 607.595C537.552 608.304 539.618 609.075 541.642 609.137C545.023 609.237 548.489 607.919 550.86 605.489C552.946 603.35 554.056 600.21 553.986 597.261Z" fill="#D6AB8A"/>
<path d="M531.779 612.449C523.377 613.326 518.176 612.047 510.974 607.846C511.832 610.494 512.515 613.08 513.101 615.801C517.745 617.404 521.872 618.521 526.56 616.264C528.496 615.331 530.27 613.974 531.779 612.449Z" fill="#D6AB8A"/>
<path d="M543.981 602.478C542.081 600.132 538.889 596.814 538.496 593.753C538.3 592.233 538.574 590.155 537.879 588.798C536.59 592.082 537.473 596.484 538.817 599.635C539.247 600.646 539.818 601.556 540.552 602.366C541.629 602.813 542.759 603.315 543.936 603.377C546.124 603.494 548.842 602.897 550.466 601.383C551.804 600.137 552.156 598.869 552.253 597.093C550.962 599.4 549.816 600.93 547.13 601.724C546.099 602.031 545.034 602.254 543.981 602.478Z" fill="#000001"/>
<path d="M277.101 129.012C277.068 126.963 276.971 124.916 276.811 122.873L276.599 123.246L275.29 123.233C274.243 129.479 274.448 136.394 274.136 142.757C273.952 146.481 273.368 150.536 273.574 154.236C274.929 146.848 275.285 139.168 275.891 131.689L276.822 133.362L277.101 129.012Z" fill="#3E221C"/>
<path d="M277.101 129.012C277.068 126.963 276.971 124.916 276.811 122.873L276.599 123.246C276.024 125.996 276.028 128.889 275.891 131.689L276.822 133.362L277.101 129.012Z" fill="#E4BB9B"/>
<path d="M277.101 129.012L276.822 133.362C276.588 139.984 276.112 146.927 277.136 153.503L277.608 153.828L277.186 153.773L277.492 154.405L277.616 153.962L277.291 154.09L277.239 153.851C278.679 152.151 277.568 140.03 278.111 136.84C277.988 134.237 277.47 131.593 277.101 129.012Z" fill="#D56E4D"/>
<path d="M209.76 53.2627L208.945 53.3677C207.998 55.201 208.34 57.0003 208.796 58.9933C208.425 60.1937 208.928 61.5215 209.208 62.7147C209.774 70.0105 227.01 90.7164 232.305 95.708L232.777 95.7588L232.067 94.2769C233.18 94.1758 233.238 94.1741 234.11 94.8556C237.128 97.214 239.663 102.724 242.729 104.504L250.911 114.059C250.295 112.773 248.245 109.717 248.286 108.457C248.068 107.813 247.819 107.18 247.539 106.56C243.889 98.5127 229.033 77.5431 221.4 74.6378C217.426 68.9704 213.558 57.3114 209.76 53.2627Z" fill="#D6AB8A"/>
<path d="M209.76 53.2627L208.945 53.3677C207.998 55.201 208.34 57.0003 208.796 58.9933L209.527 59.2084C213.748 64.067 215.53 71.317 220.49 76.0058L220.896 75.6249C222.451 78.0201 223.883 81.3555 226.166 83.0721C225.922 80.9807 222.503 76.6398 221.4 74.6378C217.426 68.9704 213.558 57.3114 209.76 53.2627Z" fill="url(#paint0_linear_141_5423)"/>
<path d="M221.4 74.6378C217.426 68.9704 213.558 57.3114 209.76 53.2627C212.416 60.9272 216.594 68.748 220.896 75.6249C222.451 78.0201 223.883 81.3555 226.166 83.0721C225.922 80.9807 222.503 76.6398 221.4 74.6378Z" fill="#A16152"/>
<path d="M208.796 58.9933C208.425 60.1937 208.928 61.5215 209.208 62.7147C210.336 64.9457 211.405 67.2397 212.686 69.3858L213.276 67.1123C214.799 69.4444 218.205 76.0755 220.734 77.1312C220.664 76.767 220.623 76.3511 220.49 76.0058C215.53 71.317 213.748 64.067 209.527 59.2084L208.796 58.9933Z" fill="#A16152"/>
<path d="M208.796 58.9933C208.425 60.1937 208.928 61.5215 209.208 62.7147C210.336 64.9457 211.405 67.2397 212.686 69.3858L213.276 67.1123C211.78 64.693 210.189 61.9896 209.527 59.2084L208.796 58.9933Z" fill="#F3D5B9"/>
<path d="M212.686 69.3858C211.405 67.2397 210.336 64.9457 209.208 62.7147C209.774 70.0105 227.01 90.7164 232.305 95.708L232.777 95.7588L232.067 94.2769C229.123 92.6665 214.831 73.2708 212.686 69.3858Z" fill="#6D463C"/>
<path d="M248.286 108.457C246.428 107.176 244.865 105.295 242.729 104.504L250.911 114.059C250.295 112.773 248.245 109.717 248.286 108.457Z" fill="#D56E4D"/>
<path d="M551.838 567.856C549.28 567.471 546.873 567.398 544.666 568.934C543.527 569.728 543.072 570.476 542.805 571.828C542.785 571.928 542.769 572.029 542.752 572.13C542.601 571.621 542.92 570.822 543.04 570.297C542.686 570.599 542.489 571.42 542.437 571.873C542.257 573.442 543.265 574.984 544.291 576.062C546.022 577.889 548.425 579.352 550.98 579.386C553.625 579.419 558.512 578.648 560.387 576.593C561.356 575.531 561.775 574.124 561.772 572.716L561.232 572.582C560.929 573.459 560.578 574.347 559.972 575.062C558.408 576.917 555.602 578.168 553.219 578.229C550.545 578.296 547.778 577.492 545.852 575.57C544.576 574.291 543.896 572.917 543.912 571.107C544.201 570.498 544.313 570.052 544.87 569.633C547.486 567.661 557.88 569.945 561.331 570.37C558.276 568.906 555.148 568.393 551.838 567.856Z" fill="#000001"/>
<path d="M241.632 281.472C240.531 290.105 245.758 311.172 246.988 321.151C247.54 320.214 247.32 318.779 247.225 317.734C246.556 310.44 244.887 303.117 243.735 295.874C242.98 291.133 242.728 286.122 241.632 281.472Z" fill="#D56E4D"/>
<path d="M532.872 605.21C531.266 602.227 527.631 597.49 524.258 596.596C523.184 596.311 522.463 596.58 521.525 597.099C521.052 597.697 520.65 598.082 520.49 598.842L521.018 598.199C520.976 598.3 520.933 598.406 520.893 598.507C520.027 600.758 520.036 603.445 521.136 605.623C521.925 607.187 523.217 608.154 524.909 608.578C527.496 609.226 529.735 608.232 531.999 607.115L532.872 605.21Z" fill="#E4BB9B"/>
<path d="M498.887 601.847C498.747 602.506 498.734 603.182 498.7 603.857C498.575 606.332 498.412 608.399 500.296 610.315C501.414 611.449 503.014 612.007 504.596 611.957C505.773 611.918 507.26 611.488 508.01 610.51C508.422 609.969 508.654 609.315 508.611 608.645C508.47 606.449 506.349 604.679 504.806 603.321C503.07 601.791 502.002 600.981 499.577 601.126L498.887 601.847Z" fill="#E4BB9B"/>
<path d="M478.559 606.059C477.598 608.097 477.098 610.533 477.976 612.711C478.444 613.873 479.48 614.929 480.686 615.314C481.905 615.705 483.484 615.236 484.674 614.873L485.529 613.209C485.412 612.969 485.296 612.734 485.169 612.505C483.879 610.164 481.232 606.79 478.559 606.059Z" fill="#E4BB9B"/>
</g>
<defs>
<linearGradient id="paint0_linear_141_5423" x1="424.165" y1="260.031" x2="363.702" y2="204.062" gradientUnits="userSpaceOnUse">
<stop stop-color="#EBB59C"/>
<stop offset="1" stop-color="#FFD5B5"/>
</linearGradient>
</defs>
</svg>
