<svg width="541" height="575" viewBox="0 0 541 575" fill="none" xmlns="http://www.w3.org/2000/svg">
<path d="M151.975 0.80112C156.456 -0.712188 180.914 11.9233 186.552 14.7108C211.774 27.1798 252.16 47.2915 262.013 75.8676C266.69 89.4308 264.23 103.157 264.022 117.094C263.961 125.591 264.615 134.079 265.978 142.466C271.201 173.773 284.597 206.673 292.676 237.956C298.239 259.497 302.856 281.401 307.573 303.142C315.546 339.891 330.061 420.063 366.273 438.24C370.49 440.356 374.995 441.708 379.642 442.477C389.412 444.094 399.623 443.804 409.503 444.547C424.135 445.646 438.659 448.01 453.38 447.368C458.981 447.124 464.324 446.194 469.641 444.385C481.882 440.22 494.516 433.012 505.651 426.486C509.763 424.077 513.465 420.896 517.888 419.051C522.601 417.085 531.053 414.452 536.053 416.627C537.708 417.347 538.754 418.703 539.327 420.385C540.978 425.232 538.662 429.744 538.818 434.539C538.904 437.168 541.123 439.577 540.78 442.238C540.531 444.159 539.441 446.181 538.532 447.871C537.761 449.301 536.83 450.544 535.8 451.794C536.077 458.395 533.93 461.946 529.879 467.023C529.736 473.305 527.262 476.522 522.842 480.747C522.111 481.444 521.374 482.137 520.633 482.823C520.725 486.599 519.693 490.017 517.031 492.779C512.679 497.295 505.71 498.492 500.74 502.366C496.425 505.73 493.489 510.502 489.948 514.615C484.221 521.268 475.759 526.175 467.903 529.94C443.721 541.528 416.821 539.532 391.889 548.104C369.333 555.859 348.573 574.1 323.92 574.281C313.598 574.356 303.451 570.892 296.047 563.554C280.018 547.668 279.406 516.52 273.52 495.436C269.665 481.626 264.54 468.545 258.918 455.38C250.448 435.955 241.178 416.888 231.132 398.228C225.892 388.375 220.802 378.258 214.587 368.976C207.683 358.665 199.123 349.298 191.46 339.539C174.354 317.753 159.936 294.453 150.016 268.52C140.524 243.704 136.357 217.204 134.895 190.794C134.318 180.382 134.336 169.89 133.639 159.501C126.514 156.799 119.299 154.223 112.245 151.346C106.247 155.71 99.994 160.389 93.1147 163.242L33.2357 148.128C23.7833 145.777 13.1169 144.22 4.11929 140.701L3.66038 139.766C4.12423 138.933 4.57517 138.095 5.10533 137.302C22.3448 112.789 40.4542 87.4974 63.1046 67.5692L63.5643 66.926C81.6666 49.6776 101.128 33.9152 121.759 19.7909C127.809 15.7634 133.969 11.9033 140.232 8.21481C144.052 5.93843 148.677 3.77196 151.975 0.80112Z" fill="#382B23"/>
<path d="M63.5643 66.926C69.6325 65.6371 106.848 80.3348 115.667 83.5387C119.966 85.1004 125.658 87.9658 130.164 88.2042C130.534 87.6454 130.908 87.0266 131.362 86.5338C132.261 85.5601 132.907 85.6222 134.123 85.5594L134.466 86.9262L135.273 87.3339C135.174 88.3779 135.307 89.0059 135.583 89.994C137.343 91.8831 140.084 92.133 142.375 93.1467C143.838 93.7937 144.339 94.7022 144.899 96.1544C144.953 96.295 145.001 96.4378 145.054 96.5797C145.587 96.4022 146.157 96.2156 146.721 96.1868C148.164 96.1119 149.165 96.8329 150.189 97.7416C150.102 97.8897 150.027 98.0451 149.929 98.1857C149.474 98.8469 149.68 98.3154 149.222 99.1993C148.556 100.485 148.207 101.35 148.718 102.674C150.68 102.744 151.51 101.933 153.149 100.934C154.374 102.132 154.5 104.451 154.89 106.126C149.859 113.028 143.134 120.103 136.759 125.826C126.706 135.832 115.736 145.377 103.804 153.069C100.369 155.601 96.8941 157.547 93.0596 159.401C90.0126 158.652 86.912 157.993 83.9784 156.866C81.2319 156.316 78.5112 155.834 75.9125 154.751C73.6813 154.355 71.353 154.091 69.2427 153.244C55.5388 149.877 41.2357 146.953 27.7863 142.754C25.5155 142.24 23.1189 141.844 20.8982 141.163C15.7621 139.947 10.0409 139.108 5.10533 137.302C22.3448 112.789 40.4542 87.4974 63.1046 67.5692L63.5643 66.926Z" fill="#6C8AA3"/>
<path d="M63.5643 66.926C69.6325 65.6371 106.848 80.3348 115.667 83.5387C119.966 85.1004 125.658 87.9658 130.164 88.2042C130.534 87.6454 130.908 87.0266 131.362 86.5338C132.261 85.5601 132.907 85.6222 134.123 85.5594L134.466 86.9262L135.273 87.3339C135.174 88.3779 135.307 89.0059 135.583 89.994C137.343 91.8831 140.084 92.133 142.375 93.1467C143.838 93.7937 144.339 94.7022 144.899 96.1544C144.953 96.295 145.001 96.4378 145.054 96.5797C145.587 96.4022 146.157 96.2156 146.721 96.1868C148.164 96.1119 149.165 96.8329 150.189 97.7416C150.102 97.8897 150.027 98.0451 149.929 98.1857C149.474 98.8469 149.68 98.3154 149.222 99.1993C148.556 100.485 148.207 101.35 148.718 102.674C150.68 102.744 151.51 101.933 153.149 100.934C154.374 102.132 154.5 104.451 154.89 106.126C149.859 113.028 143.134 120.103 136.759 125.826L135.415 126.093C134.286 125.054 133.177 123.964 131.975 123.007C131.301 123.511 130.632 124.013 129.979 124.545C128.663 123.203 128.048 122.36 126.21 121.806C126.939 120.911 127.598 120.019 128.227 119.051L128.863 119.06C129.635 120.239 130.372 121.768 131.677 122.395L132.291 121.978C132.067 120.127 131.425 118.452 130.803 116.708L131.361 116.179L132.072 116.257C135.186 116.585 138.187 116.543 141.13 115.349C142.2 114.134 142.399 113.29 142.366 111.643C142.313 108.99 141.21 106.176 140.839 103.52L141.27 103.978C142.37 105.139 143.057 105.916 144.679 106.28L145.941 105.726L146.248 104.802C145.398 103.531 142.8 100.419 142.952 99.0066C142.964 98.8923 143.215 97.9854 143.234 97.9126C143.528 96.7887 143.5 96.2584 143.197 95.1515C139.124 92.6474 132.812 91.3375 128.21 89.7369C114.354 84.7992 100.453 79.9883 86.5088 75.3053C80.0915 73.201 68.5879 70.5543 63.1046 67.5692L63.5643 66.926Z" fill="#576771"/>
<path d="M83.9784 156.866C84.0903 154.846 82.1889 153.527 82.6436 151.411C84.202 151.412 86.3552 153.711 87.6212 154.714L88.2741 153.755L89.621 153.667C90.0421 152.637 90.6502 151.866 91.3238 150.997L90.7263 150.107C89.2146 149.563 87.5907 149.88 86.0192 150.014C85.0131 148.567 84.1914 147.436 82.6855 146.443C82.5726 146.368 82.458 146.299 82.3443 146.227C83.7144 143.936 81.6981 143.326 82.5516 140.877C84.0463 141.199 85.3876 142.922 86.4625 143.975L86.9029 143.763L87.3548 141.183C87.7545 140.847 88.0106 140.404 88.5543 140.467C91.3965 140.794 92.5872 143.038 94.2489 145.008C95.6479 146.666 97.3809 152.933 99.645 152.917C101.788 152.902 101.644 152.05 103.804 153.069C100.369 155.601 96.8941 157.547 93.0596 159.401C90.0126 158.652 86.912 157.993 83.9784 156.866Z" fill="#658299"/>
<path d="M20.8982 141.163C21.3281 138.529 23.8453 135.347 25.8239 133.571C25.9247 133.48 26.0288 133.393 26.1315 133.304C25.68 132.603 25.5129 132.363 25.4002 131.514L26.5681 131.341L27.7024 133.32C29.0969 133.683 30.2513 134.015 31.49 134.762L31.5269 135.692C30.0672 137.376 29.437 136.575 28.3804 137.619C29.0679 138.369 29.3527 138.752 29.6168 139.771C28.8272 140.639 28.3181 141.351 27.8962 142.454C27.8586 142.553 27.8232 142.654 27.7863 142.754C25.5155 142.24 23.1189 141.844 20.8982 141.163Z" fill="#658299"/>
<path d="M69.2427 153.244C68.8584 152.188 68.6432 151.337 68.5192 150.221L69.1041 149.518C69.8871 149.457 70.3931 149.459 71.1161 149.816C73.2003 150.842 75.2257 152.55 75.9125 154.751C73.6813 154.355 71.353 154.091 69.2427 153.244Z" fill="#658299"/>
<path d="M78.0448 136.493C78.1356 137.537 78.3188 137.826 77.7048 138.677C76.8011 139.93 75.9753 140.244 74.4732 140.433C73.2523 140.587 72.1837 140.937 71.1818 140.16L72.1702 139.564C71.5127 138.867 71.4801 138.907 71.4678 137.957C72.5111 137.84 73.2572 137.981 74.0319 137.229C73.3092 136.533 72.5438 135.898 72.0834 134.991L72.7601 134.428C73.492 134.95 74.0102 135.268 74.8871 135.486C75.971 135.756 76.9956 136.114 78.0448 136.493Z" fill="#658299"/>
<path d="M41.4514 108.281C41.4598 108.935 41.3146 109.432 41.1546 110.062L39.6856 109.514C39.0409 110.71 38.3765 111.895 37.6929 113.069C36.015 113.673 34.8863 113.335 33.2377 112.919C34.4864 111.498 36.3789 112.337 37.6643 110.757L36.375 109.482L36.7126 109.002C38.2733 108.981 39.5827 108.887 41.0775 108.407C41.2027 108.367 41.3266 108.323 41.4514 108.281Z" fill="#658299"/>
<path d="M71.6379 103.229C71.6718 103.758 71.6862 104.312 71.754 104.838C71.8836 105.845 71.9562 106.549 71.8201 107.565C70.8304 108.338 69.9353 108.872 68.7737 109.348L67.1547 107.931C68.1369 107.128 69.2478 106.339 69.9283 105.253C70.4216 104.467 70.9802 103.88 71.6379 103.229Z" fill="#658299"/>
<path d="M68.1038 143.403C68.1448 143.871 67.7516 144.778 67.4984 145.167C66.9057 146.077 66.32 146.175 65.3161 146.29C64.5612 145.017 64.8946 144.684 65.216 143.282L65.3907 142.685C64.7562 142.222 64.8454 141.901 64.6527 141.164C65.8615 141.847 66.9735 142.599 68.1038 143.403Z" fill="#658299"/>
<path d="M119.062 97.4408C119.104 97.7652 119.184 98.2351 119.127 98.5534C118.865 100.008 117.612 100.247 116.441 100.847C116.062 101.565 115.636 101.801 114.956 102.218C114.346 101.613 114.198 101.479 113.966 100.662C115.644 99.5557 117.342 98.4818 119.062 97.4408Z" fill="#658299"/>
<path d="M92.1394 78.254C92.1052 79.4926 92.1672 79.9034 91.5123 80.9882L89.5454 80.9842C88.6519 80.2725 88.4697 80.1299 88.0558 79.0772C89.1328 78.1778 90.7932 78.3276 92.1394 78.254Z" fill="#658299"/>
<path d="M122.019 102.09L121.159 103.676C119.911 103.6 118.806 103.709 117.571 103.888C117.741 102.714 117.917 101.969 118.558 100.964C120.064 101.957 120.245 102.183 122.019 102.09Z" fill="#658299"/>
<path d="M189.333 20.1572L198.436 24.9903C196.626 33.4956 194.449 41.4505 190.819 49.3807C190.464 50.2025 190.153 51.1238 189.688 51.8857C180.456 71.5766 168.635 89.3136 154.89 106.126C154.5 104.451 154.374 102.132 153.149 100.934C151.51 101.933 150.68 102.744 148.718 102.674C148.207 101.35 148.556 100.485 149.222 99.1993C149.68 98.3154 149.474 98.8469 149.929 98.1857C150.027 98.0451 150.102 97.8897 150.189 97.7416C149.165 96.8329 148.164 96.1119 146.721 96.1868C146.157 96.2156 145.587 96.4022 145.054 96.5797C145.001 96.4378 144.953 96.295 144.899 96.1544C144.339 94.7022 143.838 93.7937 142.375 93.1467C140.084 92.133 137.343 91.8831 135.583 89.994C135.307 89.0059 135.174 88.3779 135.273 87.3339L134.466 86.9262L134.123 85.5594C132.907 85.6222 132.261 85.5601 131.362 86.5338C130.908 87.0266 130.534 87.6454 130.164 88.2042C125.658 87.9658 119.966 85.1004 115.667 83.5387C106.848 80.3348 69.6325 65.6371 63.5643 66.926C81.6666 49.6776 101.128 33.9152 121.759 19.7909C127.809 15.7634 133.969 11.9033 140.232 8.21481C144.052 5.93843 148.677 3.77196 151.975 0.80112C152.028 1.24372 152.067 1.82501 152.244 2.24891C153.01 4.0833 180.274 15.7022 184.251 17.8274L189.333 20.1572Z" fill="#6C8AA3"/>
<path d="M189.688 51.8845C188.533 51.5426 187.869 51.8672 186.713 52.1508L186.534 51.5372C187.225 51.3329 187.708 51.1713 188.281 50.7277C188.32 48.4294 186.109 47.2569 185.668 45.0245L186.508 44.0878C188.219 45.2681 188.957 47.5872 190.514 49.0938C190.614 49.1907 190.717 49.284 190.818 49.3796C190.463 50.2013 190.152 51.1226 189.688 51.8845Z" fill="#658299"/>
<path d="M184.251 17.8274L189.333 20.1572L189.092 22.3483L188.13 23.0374C185.97 22.5495 185.044 21.4873 183.64 19.7869C183.815 19.1197 183.951 18.4504 184.251 17.8274Z" fill="#658299"/>
<path d="M181.354 55.6428C182.244 56.4931 183.381 57.5732 183.684 58.815C184.011 60.1581 183.801 60.7608 183.078 61.8613C181.931 62.2297 180.991 62.5359 179.778 62.4976L180.31 61.0972L182.124 60.6314L182.372 60.1247L180.384 58.9076C180.068 57.3531 180.588 56.9885 181.354 55.6428Z" fill="#658299"/>
<path d="M145.864 29.7615C146.069 30.0784 146.539 30.6952 146.635 31.0913C146.934 32.3185 146.344 33.0488 145.827 34.0997C144.507 34.8329 144.366 34.8227 142.861 34.6322C142.916 34.4791 142.947 34.3151 143.026 34.1738C143.75 32.8936 144.024 32.3653 144.259 30.8335L144.331 30.3354L145.864 29.7615Z" fill="#658299"/>
<path d="M160.671 21.2574C160.749 22.0049 160.777 21.7526 160.677 22.3802C160.419 24.0101 160.384 25.4865 160.413 27.1277L159.801 27.5676L158.606 26.4169L157.228 27.2057L156.834 26.801C158.091 24.9379 159.37 23.09 160.671 21.2574Z" fill="#658299"/>
<path d="M100.07 50.5442C100.549 51.6616 100.735 51.9494 100.586 53.1906L99.5477 53.3379L97.8246 52.0406L97.3724 52.1386L96.7873 51.2752L97.449 50.454L100.07 50.5442Z" fill="#658299"/>
<path d="M160.221 96.6609C160.467 97.4103 160.231 97.594 159.965 98.3109L157.729 98.9778L157.126 96.7745L157.519 96.1848L160.221 96.6609Z" fill="#658299"/>
<path d="M200.733 26.1844C221.051 37.2333 245.512 50.8851 256.456 72.365C263.646 86.476 260.639 101.866 260.468 116.934C260.355 124.875 260.962 132.811 262.279 140.644C266.143 163.07 273.452 184.506 280.101 206.2C283.359 217.126 286.404 228.114 289.232 239.159C295.657 263.651 300.612 288.671 306.023 313.408C314.356 351.494 322.558 393.264 346.493 425.053C355.479 436.988 366.546 443.759 381.328 445.81C391.762 447.257 402.496 446.959 412.997 447.942C448.734 451.292 460.779 454.508 492.963 436.467C498.44 433.396 504.531 430.961 509.774 427.556C511.926 426.159 513.736 424.287 515.801 422.777C519.413 420.138 528.023 417.878 532.482 418.84C534.203 419.211 535.722 420.217 536.579 421.775C538.259 424.828 537.263 428.665 536.329 431.774C536.222 431.723 536.117 431.669 536.01 431.619L535.475 431.37C533.641 430.497 531.963 429.764 529.932 429.484C510.971 426.872 496.886 440.857 483.269 451.332C486.353 450.801 488.858 448.784 491.409 447.09C501.717 440.25 510.079 433.792 522.867 432.394C525.087 431.997 527.096 431.601 529.355 431.909C532.067 432.454 534.831 433.537 536.445 435.933C537.85 438.02 537.883 441.005 537.34 443.399C536.879 445.427 535.91 447.49 535.024 449.371C531.471 445.416 528.718 443.951 523.353 443.683C512.052 443.119 502.13 448.261 493.465 454.917C492.732 456.037 491.773 456.704 490.912 457.689C490.556 458.097 489.971 458.851 489.996 459.379C493.276 457.006 496.931 454.366 500.598 452.659C500.716 452.604 500.835 452.553 500.953 452.5C508.153 448.629 519.767 444.425 527.974 447.099C529.705 447.662 531.227 448.663 532.084 450.312C533.339 452.723 533.004 455.862 532.089 458.345C531.423 460.156 530.612 461.671 529.346 463.134C527.504 463.32 523.313 459.815 519.991 459.614C512.735 459.175 503.208 460.617 497.2 465.017C494.199 467.567 490.997 470.041 488.227 472.838C491.745 471.188 494.77 468.844 498.214 467.158C498.307 467.112 498.401 467.068 498.495 467.024C503.924 464.191 509.415 462.773 515.5 462.327L519.748 462.066C522.007 462.581 524.153 463.067 525.513 465.158C526.673 466.943 526.742 469.397 526.269 471.414C525.646 474.078 523.834 476.766 521.5 478.218C520.745 478.687 519.838 479.022 519.016 479.347C517.036 478.621 515.575 477.156 513.661 476.407C508.478 474.378 501.212 476.913 496.491 479.085C491.743 481.269 487.423 484.222 483.45 487.601C486.124 486.661 487.657 484.58 490.129 483.739C490.262 484.248 490.994 484.701 491.396 485.055C496.007 482.195 500.188 480.309 505.492 479.018C507.109 478.741 508.762 478.616 510.393 478.44C512.967 479.091 515.241 479.821 516.714 482.252C517.517 483.576 517.639 485.141 517.236 486.62C516.319 489.978 513.722 492.369 510.695 493.888C506.324 496.082 501.32 497.612 497.472 500.689C494.297 503.227 492.624 507.196 490.092 510.31C484.357 517.364 475.603 522.715 467.498 526.682C443.74 538.311 417.394 536.601 392.608 544.279C372.928 550.375 356.193 564.218 336.228 569.128C328.016 571.147 319.514 571.61 311.437 568.777C301.896 565.429 294.986 558.446 290.557 549.47C289.023 545.859 287.868 542.142 286.677 538.409C282.28 522.703 280.516 506.513 275.893 490.79C265.013 453.794 242.668 410.281 223.419 376.554C213.1 358.471 198.487 343.624 186.331 326.82C144.942 269.597 139.027 225.785 137.215 157.589C129.819 154.948 122.515 151.814 115.209 148.918C120.706 144.8 125.853 140.196 131.006 135.66C160.501 109.041 192.944 65.7991 200.733 26.1844Z" fill="#EBC5A3"/>
<path d="M162.623 156.855C163.71 157.307 163.815 157.603 164.471 158.543C164.011 166.483 162.555 174.152 161.522 182.017C160.976 186.18 160.865 190.343 160.102 194.484C160.175 194.615 160.252 194.745 160.323 194.877C160.828 195.812 161.247 196.705 161.317 197.779C161.493 200.51 160.504 203.334 160.505 206.103C160.506 210.952 163.142 244.725 164.319 247.06C167.444 253.259 167.908 260.672 169.79 267.317C171.672 273.96 174.96 280.515 177.483 286.961C178.238 288.889 178.551 291.26 179.438 293.064C180.152 294.519 182.193 295.093 182.934 296.565C183.842 298.368 184.108 300.621 184.963 302.522C187.32 307.758 190.388 312.961 193.349 317.886C204.156 335.865 217.955 351.807 229.196 369.457C230.786 371.953 231.88 374.79 233.283 377.406C236.124 382.706 239.149 387.919 241.973 393.223C242.696 394.585 242.984 396.464 243.894 397.645L245.061 397.218C245.042 397.376 245.017 397.533 245.004 397.692C244.542 403.197 252.944 410.212 251.542 416.409C252.839 417.606 255.745 419.75 256.493 421.277C257.382 423.094 257.484 426.431 258.253 428.536C261.701 437.971 265.901 447.176 269.381 456.638C270.218 458.912 270.306 462.832 271.898 464.473L273.621 464.16L273.6 464.592C273.591 464.831 273.589 465.071 273.577 465.311C273.567 465.49 273.546 465.669 273.535 465.849C273.21 471.143 275.92 478.489 278.059 483.317C278.792 484.97 279.981 486.692 280.407 488.445C280.702 489.659 280.307 491.043 280.5 492.31C281.302 497.564 283.463 501.828 283.599 507.384L284.896 507.403C284.753 510.522 284.764 513.509 285.313 516.594C285.874 519.745 288.231 523.843 287.676 526.94C288.13 530.695 288.599 534.807 286.77 538.151C286.726 538.232 286.708 538.323 286.677 538.409C282.28 522.703 280.516 506.513 275.893 490.79C265.013 453.794 242.668 410.281 223.419 376.554C213.1 358.471 198.487 343.624 186.331 326.82C144.942 269.597 139.027 225.785 137.215 157.589C129.819 154.948 122.515 151.814 115.209 148.918C120.706 144.8 125.853 140.196 131.006 135.66C133.874 138.932 138.538 137.437 141.298 141.538C143.774 144.418 159.083 155.656 162.623 156.855Z" fill="#E5B48C"/>
<path d="M141.298 141.538C147.636 143.624 155.833 148.55 160.112 153.858C160.93 154.874 161.784 155.857 162.623 156.855C159.083 155.656 143.774 144.418 141.298 141.538Z" fill="#745D48"/>
<path d="M287.676 526.94C288.139 527.619 288.672 528.102 288.672 528.937C288.673 535.755 292.288 542.835 290.557 549.47C289.023 545.859 287.868 542.142 286.677 538.409C286.708 538.323 286.726 538.232 286.77 538.151C288.599 534.807 288.13 530.695 287.676 526.94Z" fill="#E4BB9B"/>
<path d="M505.492 479.018C507.109 478.741 508.762 478.616 510.393 478.44C511.505 480.602 512.601 482.368 512.141 484.882L510.671 485.769C509.169 485.397 508.507 485.364 507.722 483.866C507.31 483.078 507.018 482.162 506.718 481.327L505.492 479.018Z" fill="#E4BB9B"/>
<path d="M506.718 481.328C507.182 481.106 507.558 481.25 508.061 481.302C508.763 483.038 509.362 484.374 510.671 485.77C509.169 485.398 508.507 485.366 507.722 483.867C507.309 483.079 507.018 482.163 506.718 481.328Z" fill="#382B23"/>
<path d="M529.355 431.909C529.137 433.879 530.913 435.347 530.077 436.901C528.486 437.418 527.078 438.111 525.426 437.521C524.114 436.18 524.06 434.862 523.799 433.09L522.867 432.394C525.087 431.997 527.096 431.601 529.355 431.909Z" fill="#E4BB9B"/>
<path d="M491.396 485.056C487.545 488.319 482.17 491.792 477.135 492.657L477.016 492.294C479.009 490.782 481.329 488.807 483.45 487.602C486.124 486.662 487.657 484.581 490.129 483.74C490.262 484.249 490.994 484.703 491.396 485.056Z" fill="#745D48"/>
<path d="M497.2 465.017C494.199 467.567 490.997 470.041 488.227 472.838C491.745 471.188 494.77 468.844 498.214 467.158C498.307 467.112 498.401 467.068 498.495 467.024C492.861 471.787 486.517 475.445 479.986 478.832C485.235 474.051 490.796 468.143 497.2 465.017Z" fill="#745D48"/>
<path d="M519.748 462.066C520.172 463.759 520.603 465.359 521.298 466.969L520.829 467.869C519.711 468.102 518.584 468.4 517.443 468.445C516.532 466.601 516.082 465.098 515.748 463.068L515.5 462.327L519.748 462.066Z" fill="#E4BB9B"/>
<path d="M493.465 454.918C492.733 456.038 491.773 456.704 490.913 457.69C490.557 458.098 489.972 458.852 489.997 459.38C493.276 457.007 496.932 454.367 500.599 452.66C500.717 452.605 500.835 452.554 500.954 452.501C495.402 457.152 488.771 461.574 482.12 464.443C485.753 461.177 489.356 457.567 493.465 454.918Z" fill="#745D48"/>
<path d="M530.077 436.901C528.692 437.829 527.21 438.992 525.435 438.576C523.99 438.237 523.725 437.844 523.014 436.592C522.962 435.172 523.149 434.353 523.799 433.09C524.06 434.862 524.114 436.18 525.426 437.521C527.078 438.111 528.486 437.418 530.077 436.901Z" fill="#745D48"/>
<path d="M515.747 463.07C516.082 465.099 516.532 466.602 517.443 468.446C516.989 468.241 516.526 468.055 516.155 467.71C515.402 467.012 514.854 466.004 514.799 464.976C514.745 463.965 515.144 463.801 515.747 463.07Z" fill="#745D48"/>
<path d="M282.485 447.706C282.428 447.57 282.384 447.428 282.314 447.298C281.552 445.892 278.751 445.555 279.088 443.948C279.286 443.008 280.131 441.936 280.656 441.142C280.966 438.129 278.233 435.874 278.047 432.799L277.291 432.203L276.713 433.402L276.207 433.275L275.862 432.208C276.713 430.594 276.621 429.399 276.102 427.666C275.552 425.827 273.894 423.176 273.886 421.393L274.525 421.517C279.653 429.696 290.816 452.763 292.02 462.26C292.294 463.012 292.534 463.589 292.911 464.287C293.229 464.877 293.233 465.167 293.297 465.806C293.547 468.308 294.738 470.287 296.38 472.146L296.006 469.184C302.598 480.511 302.968 493.082 313.581 502.256C314.831 502.7 315.129 502.623 315.81 503.811L314.511 507.461C313.381 507.742 312.63 507.17 311.572 506.731C309.334 503.858 307.02 501.045 304.631 498.296L305.09 497.031L304.416 496.512C303.314 496.7 302.449 496.568 301.739 497.475L302.134 498.465L300.715 497.567C300.44 498.189 300.425 498.734 299.769 498.989C299.612 497.06 299.339 492.629 297.822 491.338L297.882 490.999C292.776 483.107 291.494 473.861 288.508 465.147C286.768 460.071 284.103 454.655 282.876 449.52C282.733 448.92 282.618 448.308 282.485 447.706Z" fill="#E5B48C"/>
<path d="M282.485 447.706C282.428 447.57 282.384 447.428 282.314 447.298C281.552 445.892 278.751 445.555 279.088 443.948C279.286 443.008 280.131 441.936 280.656 441.142C280.966 438.129 278.233 435.874 278.047 432.799L277.291 432.203L276.713 433.402L276.207 433.275L275.862 432.208C276.713 430.594 276.621 429.399 276.102 427.666C275.552 425.827 273.894 423.176 273.886 421.393L274.525 421.517C279.653 429.696 290.816 452.763 292.02 462.26L290.961 462.189C287.672 456.329 286.998 448.929 283.181 443.388C283.128 443.423 283.028 443.43 283.022 443.493C282.827 445.573 283.869 445.593 282.485 447.706Z" fill="#A68467"/>
<path d="M313.581 502.256C314.831 502.7 315.129 502.623 315.81 503.811L314.511 507.461C313.381 507.742 312.63 507.17 311.572 506.731C309.334 503.858 307.02 501.045 304.631 498.296L305.09 497.031L304.416 496.512C303.314 496.7 302.449 496.568 301.739 497.475L302.134 498.465L300.715 497.567C300.44 498.189 300.425 498.734 299.769 498.989C299.612 497.06 299.339 492.629 297.822 491.338L297.882 490.999L299.247 490.866C301.749 491.959 303.224 494.338 304.894 496.413C307.149 498.589 310.277 502.31 313.581 502.256Z" fill="#E4BB9B"/>
<path d="M296.38 472.146L296.006 469.184C302.598 480.511 302.968 493.082 313.581 502.256C310.277 502.31 307.148 498.59 304.894 496.414C304.323 492.664 298.194 477.422 296.38 472.146Z" fill="#382B23"/>
<path d="M349.731 487.598C349.567 489.574 348.891 491.295 347.88 492.983C345.521 496.927 339.835 501.443 335.446 502.57C336.953 500.567 340.042 499.067 342.032 497.431C345.352 494.702 347.448 491.173 349.731 487.598Z" fill="#A68467"/>
<path d="M239.855 110.268L240.62 111.144C237.99 110.717 229.762 101.193 227.44 98.7892L226.929 98.175C230.854 98.9006 237.235 107.098 239.855 110.268Z" fill="#A68467"/>
<path d="M529.257 419.815C529.083 421.031 528.38 422.127 527.529 422.992C524.37 426.202 520.151 427.505 515.747 427.552C516.131 426.639 517.862 426.519 518.815 426.232C523.199 424.915 526.076 423.069 529.257 419.815Z" fill="#745D48"/>
<path d="M239.678 534.549C241.165 536.062 242.487 537.867 243.849 539.502C235.509 542.268 200.419 558.085 195.698 558.088C194.607 558.089 194.489 557.789 193.817 557.036C194.591 552.084 200.549 545.131 203.41 540.856C169.952 536.39 136.843 522.688 108.669 504.296C57.1664 470.676 14.3933 414.65 1.66211 353.918C1.21007 351.737 0.785372 349.552 0.387946 347.362C0.0320904 345.297 -0.317255 342.026 0.916607 340.289C3.69737 341.665 8.3587 358.49 9.63573 361.922C17.6648 383.543 28.7371 403.909 42.5181 422.404C82.8325 476.7 141.631 513.799 208.732 523.716C208.516 519.477 206.02 507.168 207.406 503.953C207.82 502.994 208.326 503.01 209.236 502.711C212.28 503.684 235.161 529.761 239.678 534.549Z" fill="#382B23"/>
</svg>
