<svg width="208" height="877" viewBox="0 0 208 877" fill="none" xmlns="http://www.w3.org/2000/svg">
<path d="M17.7731 39.5145C13.5346 36.8503 7.23054 29.7932 11.9003 25.1265C24.417 12.618 45.423 7.0195 62.2732 3.28621C79.4718 0.115934 102.057 -1.68709 117.119 7.88621C121.978 10.9744 124.843 16.7114 126.79 21.7373C137.675 29.0931 144.176 39.9276 146.68 52.8295C151.241 75.5096 140.648 95.8557 132.999 116.438C132.226 119.028 128.224 123.582 127.865 125.998C126.744 133.896 127.69 149.032 134.011 154.6C151.735 170.21 175.666 182.645 189.648 202.156C207.616 227.23 204.648 260.657 206.929 289.771C207.071 291.579 207.202 294.062 206.412 295.691C205.235 296.514 204.886 296.665 203.55 297.209C203.095 314.086 202.109 330.944 200.593 347.759C199.895 356.181 199.583 365.996 198.678 374.148C197.716 382.81 194.698 395.43 192.576 404.057C190.13 414.005 187.345 423.867 184.225 433.625C183.035 437.324 178.47 449.475 178.313 452.365C177.714 463.451 179.146 473.322 177.104 484.763C176.029 490.626 174.646 496.427 172.96 502.144C171.434 507.292 168.803 514.816 168.325 519.839C166.371 540.35 165.119 561.032 163.348 581.555L159.671 620.239C158.639 630.957 156.933 638.849 159.874 649.264C160.251 650.595 158.736 656.238 159.063 657.986C159.854 664.403 163.284 670.596 164.612 676.911C172.92 716.399 167.693 758.966 164.822 798.739C164.458 803.293 164.233 807.86 164.147 812.432C164.111 815.898 164.231 819.424 164.003 822.871C163.936 823.863 162.219 825.079 161.48 825.617C160.563 835.978 168.337 852.241 158.191 860.582C150.343 867.035 136.943 864.791 128.622 867.749C110.927 874.045 95.2261 877.202 76.2995 875.908C71.4483 875.581 70.3015 874.329 64.7971 874.789L64.5672 874.65C58.3328 870.888 46.2419 872.618 43.1398 865.166C41.9731 860.908 44.3071 855.163 48.1942 853.124C50.9008 851.703 54.1505 851.673 56.6835 850.433C65.1902 846.254 74.3514 843.744 82.3731 838.675C84.9998 837.018 87.479 835.312 89.9986 833.558C84.4664 833.921 76.1417 834.587 70.9154 836.304C58.6376 840.338 43.1507 850.469 30.1658 843.834C24.7201 845.522 17.1562 848.201 12.0612 845.038C-6.06576 833.788 7.95028 824.783 20.5511 820.385C34.9566 815.366 52.0717 809.438 62.3077 798.304C61.1494 797.251 59.7263 796.036 58.7011 794.886C59.0852 788.221 60.1563 780.038 60.0608 773.548C59.7251 750.813 57.7038 727.673 55.7115 705.01C54.22 688.051 52.4473 670.56 49.2424 653.849C47.5743 646.537 44.1559 639.835 42.3094 632.553C40.3885 624.981 40.856 616.997 39.4256 609.401C38.2855 603.347 36.1136 597.19 34.8598 591.123C32.1617 578.059 29.2653 564.807 27.625 551.568C21.0198 548.568 17.752 543.044 15.2444 536.401C11.9082 527.461 10.4312 517.936 10.9036 508.405C11.6675 494.394 18.2854 485.783 20.2051 472.969C22.3292 458.791 22.4296 443.561 25.0158 429.258C25.8886 424.433 24.8204 420.751 26.5043 415.673C16.7407 406.101 20.943 396.495 21.151 384.3C21.3355 363.089 21.774 341.88 22.4659 320.679C22.8397 308.223 21.0156 294.756 21.4099 284.236C22.1266 265.138 33.4778 230.08 43.2511 212.934C47.5979 205.308 59.3676 192.702 65.1364 185.542C62.4431 178.26 61.2335 174.007 54.4971 169.807C44.9554 171.796 24.3662 176.746 21.3476 163.007C20.6908 160.015 21.523 156.07 20.6877 153.033C19.1787 147.932 15.0073 146.962 16.4945 141.071C15.8002 139.79 15.5081 139.511 14.5319 138.4C14.371 134.74 14.6746 132.016 11.7443 129.426C7.77548 125.919 1.02331 128.086 0.373731 121.629C-0.808687 109.883 16.5949 100.138 11.5538 87.8987C6.93599 85.0687 7.63093 80.5526 8.43533 75.6711C8.99781 67.4728 14.3172 46.9453 17.7731 39.5145Z" fill="#1E0E09"/>
<path d="M20.6521 38.9021C23.1506 39.0056 28.8782 38.2284 31.667 38.1255C46.7082 37.5685 62.1323 33.9844 77.0634 35.5248C76.2711 36.5373 75.6421 37.5365 74.5583 38.1866C74.3267 39.6908 72.5442 43.1861 71.888 45.1378C69.707 51.6281 70.0028 59.4798 71.6225 66.0766C71.7792 66.6633 71.8118 66.3905 71.7562 67.1804C72.4293 68.2987 73.3021 69.0735 74.0031 70.2686C76.7078 74.8821 77.6084 94.8091 81.1756 97.2816C84.3454 96.6126 87.2177 94.6173 90.5315 93.6309C94.2433 89.1679 94.8136 88.3919 97.9139 83.8389L98.5484 84.186C102.152 71.8647 117.45 74.7938 122.535 85.9479C124.842 91.107 124.974 96.9779 122.901 102.236C121.176 106.662 117.708 110.089 114.791 113.749C116.437 116.895 120.153 120.878 123.627 122.134C125.233 122.761 125.994 122.694 126.589 123.928C125.465 133.409 125.385 146.709 131.641 154.524C132.454 155.531 133.336 156.481 134.28 157.367C119.298 176.32 94.0086 196.446 70.7588 202.854C62.2944 205.186 61.5698 192.566 66.011 190.352L66.6612 190.449L68.039 192.953C68.7061 191.763 68.3777 189.723 67.9289 188.497C65.1274 180.843 62.9567 173.181 55.7134 168.827L61.6013 166.005L61.0382 165.207C52.6464 169.529 32.5948 174.509 24.9112 166.738C21.0065 162.788 23.4415 156.263 21.9906 151.5C20.9993 148.247 17.5675 146.96 17.879 143.031C21.37 139.055 34.702 144.194 40.3764 140.456L40.3897 139.863C36.7656 140.114 20.9805 140.676 18.0574 139.699C15.5287 137.868 15.8257 133.751 15.0098 130.627C13.6659 125.481 2.29708 126.449 2.04064 122.023C1.26587 108.674 18.2734 101.959 12.9915 87.4115L12.7997 86.8932C12.5584 81.4335 10.1373 84.1401 9.55127 79.065C10.8982 69.7279 15.1537 46.6867 20.0896 39.0951L20.6521 38.9021Z" fill="#F2CFB0"/>
<path d="M98.5484 84.186C102.152 71.8647 117.45 74.7938 122.535 85.9479C124.842 91.107 124.974 96.9779 122.901 102.236C121.176 106.662 117.708 110.089 114.791 113.749C111.231 118.222 103.796 128.921 97.0159 122.077C95.5922 120.641 95.5782 118.281 95.6805 116.366L96.0536 116.28C96.4026 117.458 96.8211 118.979 97.4997 119.944C102.365 126.87 108.752 118.676 111.628 115.064C116.348 109.134 121.299 105.106 122.638 97.4854C124.427 87.3051 115.655 73.0798 104.252 79.183C102.669 80.0473 100.425 82.7919 98.5484 84.186Z" fill="#1E0E09"/>
<path d="M74.5583 38.1866C74.3267 39.6908 72.5442 43.1861 71.888 45.1378C69.707 51.6281 70.0028 59.4798 71.6225 66.0766C71.7792 66.6633 71.8118 66.3905 71.7562 67.1804C67.4602 61.5102 68.9547 43.001 74.5583 38.1866Z" fill="#734E31"/>
<path d="M69.4658 160.418C66.7465 162.961 64.9598 164.313 61.6013 166.005L61.0382 165.207C63.8579 163.486 66.573 161.999 69.4658 160.418Z" fill="#734E31"/>
<path d="M16.6718 79.1833C22.2228 74.8244 36.1173 74.4639 42.5502 77.3894C43.931 78.2192 44.4027 78.5162 45.5984 79.5855L50.521 83.6801C38.2154 81.1278 36.9405 80.6972 24.4044 81.1786C22.5113 82.661 19.2266 82.9435 16.927 82.4977C15.6364 81.4973 15.842 81.9504 15.4065 80.6101C15.6866 79.8329 16.0113 79.7053 16.6718 79.1833Z" fill="url(#paint0_linear_147_23)"/>
<path d="M24.4044 81.1786L24.2326 80.7486C24.9965 80.2557 36.3314 79.8777 38.0019 79.7319C39.9161 79.565 42.7449 81.394 45.3129 81.1073L45.5984 79.5855L50.521 83.6801C38.2154 81.1278 36.9405 80.6972 24.4044 81.1786Z" fill="#583D26"/>
<path d="M16.6718 79.1833C22.2228 74.8244 36.1173 74.4639 42.5502 77.3894L42.2797 77.387C37.3009 77.3047 31.3706 76.2191 26.3337 76.6122C23.704 76.8173 19.4376 79.3285 16.6718 79.1833Z" fill="#583D26"/>
<path d="M104.331 89.4837L104.171 89.7613L103.93 89.6288C104.701 86.4638 105.823 82.841 109.214 81.5237C112.219 80.3564 114.944 82.8791 115.817 85.6431L115.083 85.282C113.832 86.5491 114.04 86.0114 113.619 87.5834L113.949 88.0345C114.323 88.5474 114.473 88.8021 114.771 89.376C112.67 90.7326 113.248 89.973 112.478 92.3723C108.25 90.4708 108.902 87.9081 104.331 89.4837Z" fill="#EAB190"/>
<path d="M104.331 89.4837L104.171 89.7613L103.93 89.6288C104.701 86.4638 105.823 82.841 109.214 81.5237C112.219 80.3564 114.944 82.8791 115.817 85.6431L115.083 85.282C109.079 79.7098 107.385 83.8172 104.331 89.4837Z" fill="#1E0E09"/>
<path d="M102.962 100.71C106.39 101.619 107.672 101.554 109.51 104.501C109.665 107.402 107.359 107.984 104.855 108.539C103.128 109.7 103.601 109.795 102.072 109.549C100.548 106.53 104.274 106.189 102.962 100.71Z" fill="#EAB190"/>
<path d="M102.962 100.71C106.39 101.619 107.672 101.554 109.51 104.501C109.665 107.402 107.359 107.984 104.855 108.539C106.694 107.409 108.734 106.613 108.428 104.253C107.375 103.012 106.654 102.935 105.101 102.416C104.446 104.786 101.961 106.597 103.115 108.491L104.855 108.539C103.128 109.7 103.601 109.795 102.072 109.549C100.548 106.53 104.274 106.189 102.962 100.71Z" fill="#1E0E09"/>
<path d="M103.121 97.5257C102.802 95.6937 102.743 95.4294 103.253 93.6542C106.522 91.3511 110.699 97.8964 112.106 100.156C110.678 99.181 109.8 98.0325 108.684 96.7309C107.101 97.724 106.416 98.0984 105.068 99.4665L104.402 99.4671L103.121 97.5257Z" fill="#EAB190"/>
<path d="M103.121 97.5257C102.802 95.6937 102.743 95.4294 103.253 93.6542C106.522 91.3511 110.699 97.8964 112.106 100.156C110.678 99.181 109.8 98.0325 108.684 96.7309C107.53 95.6362 106.545 94.3606 105.079 94.2276C103.196 95.7547 104.378 95.1463 103.121 97.5257Z" fill="#1E0E09"/>
<path d="M22.597 115.479C25.5649 116.55 28.1825 120.703 26.8302 123.733C22.7464 127.989 17.7585 124.844 13.2962 126.099L12.854 126.227L13.1014 125.293C17.17 122.651 21.9432 127.706 24.778 123.933C27.0267 120.941 24.8827 117.408 22.597 115.479Z" fill="#1E0E09"/>
<path d="M26.857 91.8542C27.4321 92.4862 27.9106 93.6862 28.5492 94.2039C31.6544 96.7193 37.985 94.6974 42.0911 94.3733L42.1274 94.79C37.0155 96.9268 28.3581 99.7465 26.857 91.8542Z" fill="#1E0E09"/>
<path d="M96.2452 122.749C97.5957 131.238 94.3714 138.572 89.3121 145.149C89.3448 142.825 93.9021 136.987 94.5505 134.268C95.4692 130.419 95.1879 126.516 96.2452 122.749Z" fill="#583D26"/>
<path d="M117.398 89.6062C119.067 92.2456 118.433 95.4234 118.051 98.4517C116.919 97.1193 117.358 91.656 117.398 89.6062Z" fill="#A97A4E"/>
<path d="M86.437 148.255L86.7467 148.656C85.153 150.897 81.7098 153.116 79.3921 154.588L79.3395 154.55L79.2826 154.03L86.437 148.255Z" fill="#583D26"/>
<path d="M20.0896 39.0951C18.3586 36.4272 10.8424 35.5806 12.2873 28.6389C12.8952 25.7194 14.9213 24.1005 17.2535 22.3347C40.5692 7.25087 72.7703 -0.218986 100.314 3.36147C112.386 4.93073 121.764 10.976 125.277 22.7987C135.163 28.6008 141.399 38.8696 144.282 49.7303C149.2 68.2619 143.44 86.7373 136.101 103.731C134.572 107.271 130.517 121.168 127.179 122.379C125.896 122.242 124.917 122.164 123.627 122.134C120.153 120.878 116.437 116.895 114.791 113.749C117.708 110.089 121.176 106.662 122.901 102.236C124.974 96.9779 124.842 91.107 122.535 85.9479C117.45 74.7938 102.152 71.8647 98.5484 84.186L97.9139 83.8389C94.8136 88.3919 94.2433 89.1679 90.5315 93.6309C87.2177 94.6173 84.3454 96.6126 81.1756 97.2816C77.6084 94.8091 76.7078 74.8821 74.0031 70.2686C73.3021 69.0735 72.4293 68.2987 71.7562 67.1804C71.8118 66.3905 71.7792 66.6633 71.6225 66.0766C70.0028 59.4798 69.707 51.6281 71.888 45.1378C72.5442 43.1861 74.3267 39.6908 74.5583 38.1866C75.6421 37.5365 76.2711 36.5373 77.0634 35.5248C62.1323 33.9844 46.7082 37.5685 31.667 38.1255C28.8782 38.2284 23.1506 39.0056 20.6521 38.9021L20.0896 39.0951Z" fill="#A97A4E"/>
<path d="M20.6521 38.9021C22.5936 36.6492 46.3921 36.394 50.9252 35.4469C54.4852 34.7029 75.0429 32.8945 77.5735 34.9497L77.0634 35.5248C62.1323 33.9844 46.7082 37.5685 31.667 38.1255C28.8782 38.2284 23.1506 39.0056 20.6521 38.9021Z" fill="#734E31"/>
<path d="M111.671 23.1204C112.959 23.0335 113.821 23.1872 115.094 23.3445L114.903 23.6967C107.596 24.0594 89.7796 29.8065 82.9996 32.8039C81.7984 33.2908 81.8232 33.2896 80.5356 33.4051C82.272 30.1239 107.623 23.9866 111.671 23.1204Z" fill="#583D26"/>
<path d="M8.43533 75.6711C8.4692 78.094 8.29611 80.0864 8.94387 82.3889C9.1731 81.2864 9.37587 80.1779 9.55127 79.065C10.1373 84.1401 12.5584 81.4335 12.7997 86.8932L11.5538 87.8987C6.93599 85.0687 7.63093 80.5526 8.43533 75.6711Z" fill="#583D26"/>
<path d="M135.531 158.179C151.538 171.052 175.027 185.492 187.289 201.694C206.079 226.525 203.686 264.596 205.441 294.595C187.684 301.821 157.332 304.945 137.801 303.136C134.054 302.597 133.997 298.956 133.445 296.132C130.51 281.118 127.949 268.29 120.506 254.828C121.825 260.274 125.143 267.82 126.95 274.626C121.271 269.084 116.14 263.955 110.921 257.981C113.651 264.018 122.681 272.735 127.562 277.312C129.68 284.835 131.117 294.716 133.296 302.379C133.671 303.699 136.323 304.556 137.664 305.061C137.952 316.169 138.825 328.571 140.428 339.513C141.544 347.129 146.32 360.143 145.828 367.472C145.379 374.146 142.461 384.607 141.175 391.857C139.772 398.906 138.453 408.075 137.622 415.204C132.068 415.517 125.059 416.51 119.448 417.131C107.546 418.523 95.6229 419.72 83.6814 420.722C66.4828 422.074 41.8135 424.618 26.9876 413.625C20.3963 408.738 21.8358 397.915 22.3088 390.84C22.6505 385.72 22.7333 380.417 22.8664 375.206L23.3889 345.542C23.822 328.734 24.9282 311.856 23.1966 295.163C21.0822 274.779 28.2384 257.137 34.0936 238.293C40.2077 218.618 48.7357 205.992 62.6459 190.784C63.1388 190.243 64.8934 188.223 65.5308 188.185C52.9131 208.633 72.5727 205.61 84.931 199.297C103.732 189.693 122.782 175.059 135.531 158.179Z" fill="#F2CFB0"/>
<path d="M163.266 189.726C165.436 189.241 173.073 189.452 174.711 191.098C173.807 191.271 172.058 190.478 170.879 190.292C162.795 189.276 151.327 192.424 144.778 197.237C129.696 208.322 123.74 223.112 120.498 240.697C120.077 244.085 120.054 248.86 119.852 252.349C118.32 249.425 119.982 237.887 120.751 234.263C125.289 212.879 140.613 192.288 163.266 189.726Z" fill="#716355"/>
<path d="M116.209 387.749L116.643 387.89L116.376 388.382C111.847 391.141 102.593 395.51 97.5074 396.9L96.9794 396.809L97.0532 396.421C104.053 393.865 109.537 391.014 116.209 387.749Z" fill="#716355"/>
<path d="M60.4874 301.225C60.6476 301.28 64.7852 306.513 65.5509 307.362C68.7867 310.95 71.3935 313.205 75.4905 315.801C70.8044 315.079 61.6486 305.771 60.4874 301.225Z" fill="#716355"/>
<path d="M79.5294 209.664L79.9775 209.709C77.3846 212.409 69.4694 213.532 65.7286 212.796L65.0627 212.297L65.1286 211.915C71.521 212.709 73.4902 211.83 79.5294 209.664Z" fill="#716355"/>
<path d="M26.8677 428.08C27.3782 424.832 26.4371 419.327 28.0538 416.94C30.4561 417.765 32.8591 418.746 35.2251 419.679C50.6812 425.772 69.2776 422.865 85.3476 422.262C102.42 420.168 120.038 418.67 137.267 416.679C136.81 420.33 135.596 432.176 134.727 435.051L134.676 435.905C134.579 439.708 132.104 462.39 130.67 464.833L130.645 465.397C130.82 468.379 127.664 484.415 126.47 487.29C122.595 496.622 114.172 503.235 110.058 512.944C108.85 515.813 107.902 518.783 107.224 521.821C106.159 526.553 100.691 558.07 103.318 560.293C104.462 561.26 105.764 561.874 107.283 561.664C109.982 561.291 111.49 559.489 112.973 557.403C112.425 564.323 111.79 571.257 111.554 578.211C111.458 581.041 111.566 585.154 115.393 585.432C118.854 585.68 118.355 589.14 121.288 589.739C125.39 590.622 125.757 586.6 128.542 586.134C129.938 586.515 130.162 586.654 131.45 587.35C134.637 587.38 137.098 583.781 138.936 581.483L140.09 580.491C140.681 578.791 142.041 576.058 143.533 575.03C147.302 574.59 148.059 574.174 150.69 570.689C160.716 556.544 163.171 536.44 163.894 519.513C164.172 513.024 163.003 500.586 164.464 495.036C167.602 483.125 172.368 468.911 176.439 457.366C177.619 476.766 175.226 489.481 169.744 508.106C169.069 510.399 165.571 518.379 165.518 519.499L166.656 519.043C167.004 520.483 165.259 536.793 165.004 539.905C163.569 558.954 161.991 577.993 160.268 597.021C158.987 610.714 157.628 624.51 156.428 638.215C156.222 640.574 157.866 645.709 158.145 648.37C158.485 651.606 157.22 656.565 157.693 659.48C158.584 664.972 161.388 670.893 162.746 676.336C165.464 687.241 166.522 698.455 167.035 709.644C168.786 747.759 162.875 784.792 162.418 822.89C158.176 825.091 150.301 830.65 146.03 830.124L145.393 830.105C143.717 830.692 139.11 830.323 137.174 830.226C123.92 829.591 112.516 826.428 101.014 819.715C103.311 812.693 102.364 806.009 102.622 798.643C103.958 760.527 100.822 721.202 94.3848 683.631C91.5984 671.141 84.222 660.914 82.765 647.934C79.8262 621.752 74.1046 595.757 70.4128 569.739L65.9946 537.304C65.1267 530.951 63.5977 519.206 61.7349 513.396L61.4228 513.449C61.4228 514.421 61.4887 515.595 61.2335 516.501C59.7686 515.704 54.1087 509.161 52.9281 507.71C41.5963 493.778 40.311 470.979 42.0541 453.777C42.5791 448.592 42.423 442.804 42.9867 436.973C45.0425 437.657 52.2447 439.009 52.8931 439.701C51.104 445.917 52.7933 446.574 51.701 451.007C50.0153 457.849 52.3965 483.928 54.8351 488.679C55.2428 486.265 54.0253 484.29 53.585 482.347C52.0765 475.681 50.1732 442.917 54.2502 439.237C59.0452 438.335 65.1376 439.255 70.0348 438.931C77.1372 438.46 76.8535 440.705 78.0831 446.539C80.1945 446.105 82.3682 445.833 84.5063 445.533C82.8418 443.679 83.5446 442.467 82.2128 440.027C80.8314 439.221 78.6994 439.636 76.9642 439.757L76.5904 424.683C76.4906 426.794 76.1834 436.756 75.7298 438.334C73.9323 438.761 47.1926 438.417 43.822 436.707C40.1906 434.865 42.8446 426.179 42.0523 423.122C41.2092 425.629 41.7777 431.253 41.5201 434.552L40.839 434.847C35.6182 433.087 31.6313 430.815 26.8677 428.08Z" fill="#5A8DB1"/>
<path d="M145.393 830.105C145.564 820.9 146.96 811.532 147.199 802.332C148.293 760.195 151.403 716.847 142.112 675.411C141.638 673.301 139.85 665.269 140.34 663.738C141.722 666.95 142.993 675.454 143.806 679.052C149.232 703.07 149.454 726.258 149.236 750.699C149.08 768.16 149.205 786.148 147.948 803.657C147.605 808.429 147.012 826.458 146.03 830.124L145.393 830.105Z" fill="#3B5766"/>
<path d="M138.936 581.484L140.09 580.492C140.368 602.108 137.323 624.583 138.974 646.381C139.141 648.589 139.26 652.835 138.558 654.873C137.045 638.422 137.91 620.543 138.404 604.05C138.526 599.967 139.41 584.956 138.936 581.484Z" fill="#3B5766"/>
<path d="M130.645 465.397C125.205 466.664 112.967 465.49 107.35 464.363C105.204 463.933 95.4304 459.956 94.958 457.911C98.2791 459.083 101.667 461.596 104.842 462.715C112.629 465.462 122.394 464.873 130.67 464.833L130.645 465.397Z" fill="#31404B"/>
<path d="M134.676 435.906C132.597 436.468 120.419 437.627 118.421 436.987L118.294 437.15L119.172 437.185L118.97 436.824C123.761 435.989 129.762 435.581 134.727 435.052L134.676 435.906Z" fill="#31404B"/>
<path d="M85.2877 444.794C83.1182 441.395 82.2872 426.819 84.1325 423.54C85.2484 425.076 84.8365 434.766 85.0923 437.672L85.1359 438.141L85.6234 438.87C90.1825 439.342 98.8017 438.644 103.599 438.423C107.22 438.258 110.773 436.983 114.643 437.511C101.944 439.769 97.1887 438.95 85.5054 440.154C84.7633 442.221 85.4583 443.072 85.2877 444.794Z" fill="#31404B"/>
<path d="M94.5156 492.095L95.3962 492.12L95.3653 492.467C90.6737 494.839 72.8316 499.203 67.1076 500.36L66.028 500.202C68.0215 498.893 90.0774 493.55 94.5156 492.095Z" fill="#31404B"/>
<path d="M129.799 800.18C126.815 798.492 114.073 790.382 112.107 788.168L112.367 787.908C113.031 788.198 133.366 801.619 133.307 801.54L133.077 801.613C132.143 801.401 130.706 800.621 129.799 800.18Z" fill="#3B5766"/>
<path d="M98.6198 674.239C98.9162 674.342 116.612 689.026 118.818 690.786C114.063 689.722 102.016 678.545 98.6198 674.239Z" fill="#31404B"/>
<path d="M83.9317 504.1L84.9285 503.809C86.2246 504.161 86.9504 504.144 88.1727 504.468L87.7983 505.032C85.6228 505.576 79.6889 505.87 78.9516 506.166C78.0547 507.368 77.0634 508.203 75.5314 508.238L75.0621 507.586C76.2941 504.878 81.2947 504.481 83.9317 504.1Z" fill="#4C7690"/>
<path d="M131.764 659.238C133.809 658.827 135.739 659.407 137.802 659.831C133.938 659.825 129.865 660.417 125.987 660.792C124.823 661.004 121.059 661.566 120.088 661.119C124.111 659.891 127.62 659.589 131.764 659.238Z" fill="#31404B"/>
<path d="M154.501 655.513C153.954 658.331 143.983 659.789 141.336 660.805L140.838 660.998L140.817 660.454C142.257 659.178 150.178 657.793 154.501 655.513Z" fill="#31404B"/>
<path d="M35.6715 424.833C37.0965 425.917 37.3124 429.14 37.6438 431.042C35.8566 429.228 35.8445 427.264 35.6715 424.833Z" fill="#31404B"/>
<path d="M86.7151 443.73C88.388 443.54 88.6541 447.978 88.7497 449.177C87.8908 447.596 87.1784 445.914 86.4465 444.268L86.7151 443.73Z" fill="#3B5766"/>
<path d="M81.606 431.204L82.0663 431.64C82.6917 433.431 82.4746 435.475 82.4377 437.422C81.1833 435.739 81.525 433.268 81.606 431.204Z" fill="#31404B"/>
<path d="M139.124 305.067C161.051 306.329 181.178 303.52 202.142 297.562L201.886 302.647C201.286 318.445 200.112 334.611 198.768 350.357C198.036 358.935 198.028 368.659 196.659 377.015C191.056 411.218 179.061 443.612 168.536 476.473C166.776 481.969 164.639 487.448 163.193 493.026C161.717 501.005 162.625 511.824 162.325 520.309C161.762 536.246 158.469 561.047 146.83 572.719C146.241 573.309 145.797 573.466 145.031 573.631L144.345 573.14C146.275 568.554 154.221 548.08 152.943 543.937C152.119 545.892 150.283 552.366 149.625 554.506C146.335 565.204 144.605 569.992 138.649 579.185C136.092 578.955 134.867 578.84 132.403 578.211C137.103 568.085 138.036 561.423 141.153 550.87L140.522 550.156C138.744 556.186 129.805 591.058 120.471 587.743C119.965 587.175 119.199 586.552 119.518 585.651C122.928 576.077 130.335 551.747 128.42 542.203C127.384 550.02 123.423 580.056 117.005 584.078C115.242 584.35 115.936 584.459 114.37 583.721C111.659 580.377 113.335 572.039 113.545 567.876C114.142 556.032 115.757 543.632 114.563 531.74C111.443 535.985 116.413 552.586 111.13 558.006C109.249 559.936 106.464 560.782 104.289 558.936C102.42 554.15 108.542 518.596 112.038 512.127C118.356 500.433 126.613 495.64 129.471 481.695C135.147 454.007 137.214 426.183 141.717 398.16C142.542 392.872 143.538 387.611 144.702 382.387C145.207 380.102 148.069 368.247 147.943 366.931C147.184 359.034 143.864 349.197 142.436 341.518C140.663 331.991 139.886 320.081 139.577 310.305L139.124 305.067Z" fill="#F2CFB0"/>
<path d="M139.124 305.067C161.051 306.329 181.178 303.52 202.142 297.562L201.886 302.647C195.623 302.931 185.974 306.729 180.283 307.873C170.869 309.767 148.524 313.315 139.577 310.305L139.124 305.067Z" fill="#EAB190"/>
<path d="M140.522 550.156C141.186 547.53 141.799 544.631 142.937 542.198C142.434 545.1 141.998 548.052 141.153 550.87L140.522 550.156Z" fill="#734E31"/>
<path d="M184.693 366.333C185.167 369.292 183.379 380.607 182.898 383.83C182.326 380.743 183.669 369.533 184.693 366.333Z" fill="#716355"/>
<path d="M26.8073 428.708C31.0519 431.88 37.2416 434.301 42.18 436.209C41.8062 446.873 41.1596 458.132 40.9382 468.78C40.7278 478.94 44.6349 500.121 51.7808 507.516C53.1108 508.892 53.3915 509.328 54.5219 510.971L54.2479 511.29C51.7125 509.27 46.4953 506.585 43.4803 504.893C46.8733 508.814 52.2707 510.324 56.415 513.187C57.021 513.606 59.4106 516.568 59.9471 517.237C56.0635 515.658 51.271 514.104 47.2598 512.695C51.9103 516.035 56.0526 517.733 61.6218 518.843C63.8487 529.466 64.7124 540.886 66.0612 551.739C70.0971 584.204 77.4469 616.06 81.2294 648.545C82.7463 661.572 90.575 671.854 92.7669 683.92C98.3572 714.681 101.269 749.041 101.726 780.153C102.039 786.141 101.464 796.604 101.436 803.112C86.9546 809.299 71.4071 804.448 60.146 794.3C63.282 765.674 60.267 739.285 57.9554 710.702C56.4773 692.424 54.5654 673.306 51.2377 655.264C49.7529 647.214 45.6038 639.551 43.6872 631.162C41.9695 623.638 42.3886 615.945 41.0084 608.971C39.5339 601.889 37.1557 594.952 35.8227 587.839C30.5505 559.724 24.5628 530.1 22.4768 501.627C20.7234 477.687 23.3979 452.336 26.8073 428.708Z" fill="#5A8DB1"/>
<path d="M32.9057 493.347C35.3256 493.908 39.3228 499.609 41.3756 501.444C42.7673 502.688 44.0301 503.256 45.0698 504.729C40.2119 502.971 35.0601 497.963 32.9057 493.347Z" fill="#4C7690"/>
<path d="M58.3122 659.71C59.7874 660.261 70.8356 671.014 72.0852 672.774C68.2149 671.069 60.6335 663.521 58.3122 659.71Z" fill="#3B5766"/>
<path d="M67.7064 778.708C69.8517 779.367 82.6436 787.611 84.6752 789.305C80.7378 788.591 70.8218 781.436 67.7064 778.708Z" fill="#3B5766"/>
<path d="M37.2985 438.927C38.3327 443.774 33.2486 452.596 27.7883 454.073L27.7267 453.405C35.8729 449.827 33.7385 445.358 37.2985 438.927Z" fill="#31404B"/>
<path d="M104.421 823.374C118.173 830.505 128.834 831.509 144.322 831.944C145.529 831.829 149.549 831.382 150.565 831.509C151.29 830.795 157.687 827.469 159.847 825.92C160.477 834.599 164.519 851.087 159.061 857.818C153.554 864.611 138.215 864 130.009 865.899C122.744 867.58 116.3 870.018 109.203 872.128C102.628 873.64 88.9124 875.195 82.4221 874.294C84.7531 872.431 85.5273 872.026 86.4605 869.135C85.1807 870.822 84.5795 871.838 82.6338 872.649L82.049 872.304C81.9824 870.616 82.9277 869.564 83.8779 868.076C81.1738 869.83 81.0425 874.904 76.8723 875.757C74.6405 876.211 72.1535 873.477 71.7652 871.457C71.8753 869.957 72.2461 869.558 73.12 868.391L73.4019 868.016L72.739 867.792C70.8628 869.026 71.2124 871.747 69.3605 872.975C67.6216 874.124 63.4575 873.761 62.5877 871.651L63.6897 870.477C62.9095 869.231 62.9548 871.245 59.8872 870.489C57.3476 868.282 58.1236 862.385 55.3819 861.961C52.0294 861.447 51.6121 866.449 49.2588 868.082C42.0028 868.197 43.9339 857.195 48.608 854.728C52.0439 853.27 55.3668 852.581 58.9661 851.214C77.6271 844.125 89.6787 837.563 104.421 823.374Z" fill="#F2CFB0"/>
<path d="M144.322 831.944C145.529 831.829 149.549 831.382 150.565 831.509C150.229 834.545 144.979 838.12 142.161 837.413L141.744 836.632C141.951 834.769 143.17 833.517 144.322 831.944Z" fill="#EAB190"/>
<path d="M83.8779 868.076C85.3258 867.991 85.3851 867.913 86.4605 869.135C85.1807 870.822 84.5795 871.838 82.6338 872.649L82.049 872.304C81.9824 870.616 82.9277 869.564 83.8779 868.076Z" fill="#EAB190"/>
<path d="M84.7717 863.678C86.3521 863.648 87.7299 863.479 89.1893 864.017C86.3606 864.64 83.6933 864.815 81.2154 866.309C80.3898 866.829 78.8161 868.015 77.9603 867.991C80.1461 865.747 81.8057 864.616 84.7717 863.678Z" fill="#1E0E09"/>
<path d="M66.0631 855.955L66.2935 856.469C62.9132 858.471 60.5538 860.449 56.7985 861.525C56.5547 861.241 56.6806 861.44 56.6358 860.83C59.975 859.378 63.2253 856.717 66.0631 855.955Z" fill="#583D26"/>
<path d="M73.5399 860.196L73.4946 860.643C69.8233 862.179 67.5613 861.859 64.1786 863.111C64.1278 862.803 64.2874 862.621 64.4465 862.228C66.2979 861.278 71.2525 860.601 73.5399 860.196Z" fill="#583D26"/>
<path d="M63.5772 799.308C75.4963 807.389 87.6199 809.53 101.321 804.976C101.156 810.316 100.534 814.302 99.8868 819.618C99.7634 820.634 101.394 821.717 102.269 822.473L102.276 823.06C100.333 825.557 94.7229 829.912 92.0907 832.023C86.3613 832.374 75.8356 832.894 70.6904 834.678C61.2462 837.962 53.8608 842.329 43.6605 844.18C36.4318 845.498 36.6949 843.442 30.0806 842.813C28.3454 842.65 21.9246 844.543 19.0523 844.984C14.7146 844.803 3.2684 841.15 8.2152 834.406C10.4131 831.406 17.2185 831.721 20.8698 831.727C22.3589 830.862 22.9328 830.632 24.0995 829.326C23.1391 829.059 18.6852 830.856 14.3928 830.553L14.0934 830.529C15.2075 829.955 16.9639 829.241 17.5699 828.255C13.9725 828.951 6.88943 832.174 5.33082 835.803C2.16823 827.082 25.2813 820.695 30.8366 818.584C34.9203 816.999 38.9472 815.263 42.91 813.395C50.368 809.875 58.083 805.58 63.5772 799.308Z" fill="#F2CFB0"/>
<path d="M41.2728 835.792C41.5643 836.04 41.825 836.318 42.0494 836.626C42.9627 837.903 42.5459 840.007 42.3572 841.513C41.2927 840.201 41.4222 837.715 41.2728 835.792Z" fill="#A97A4E"/>
<path d="M20.1303 480.276C20.4037 480.694 20.4624 493.231 20.5579 495.165C21.225 510.62 23.025 526.005 25.9426 541.196C17.7764 528.355 21.4573 518.431 17.7147 511.345C17.2659 513.371 18.7997 522.043 19.1965 524.858C20.1243 539.358 25.7854 538.356 27.4341 550.345C13.2402 540.964 10.1484 514.023 13.911 498.572C15.2688 492.996 18.2155 485.89 20.1303 480.276Z" fill="#F2CFB0"/>
<path d="M138.649 579.185C137.826 580.322 136.98 581.435 136.112 582.535C134.62 584.386 132.985 585.541 130.575 585.795C127.868 584.295 131.225 580.111 132.403 578.211C134.867 578.84 136.092 578.955 138.649 579.185Z" fill="url(#paint1_linear_147_23)"/>
<path d="M55.4175 862.591C55.5941 862.609 56.4106 862.851 56.413 862.978C56.4681 865.959 57.3221 867.974 58.6509 870.556L58.4029 870.967L55.5717 870.877C49.5556 868.433 51.494 865.572 55.4175 862.591Z" fill="#F2CFB0"/>
<path d="M77.2394 439.804C78.9444 439.728 79.8649 439.526 81.4012 440.247C82.6513 441.492 82.7203 443.465 83.0523 445.325C81.3649 445.492 80.4528 445.762 78.9395 445.043C77.7795 443.764 77.6041 441.61 77.2394 439.804Z" fill="#5A8DB1"/>
<defs>
<linearGradient id="paint0_linear_147_23" x1="88.955" y1="712.783" x2="185.162" y2="87.8642" gradientUnits="userSpaceOnUse">
<stop stop-color="#6B4B2A"/>
<stop offset="1" stop-color="#976236"/>
</linearGradient>
<linearGradient id="paint1_linear_147_23" x1="68.4679" y1="68.9128" x2="417.792" y2="396.462" gradientUnits="userSpaceOnUse">
<stop stop-color="#E7B395"/>
<stop offset="1" stop-color="#FFD3AC"/>
</linearGradient>
</defs>
</svg>
