<svg width="900" height="859" viewBox="0 0 900 859" fill="none" xmlns="http://www.w3.org/2000/svg">
<path d="M229.86 294.105C229.709 293.652 229.564 293.197 229.425 292.741C227.088 285.128 224.895 274.253 223.487 266.471C215.445 222.677 218.126 177.586 231.301 135.054C234.147 125.849 238.389 113.238 243.03 105.019C269.087 58.8608 325.23 26.1812 374.496 11.6338C426.953 -3.98928 482.99 -2.75538 534.709 15.1618C570.552 27.8081 588.589 38.7368 599.801 76.9508C603.667 76.9358 608.433 77.0368 612.145 78.0988C630.084 83.2298 646.25 98.2528 655.267 114.363C675 149.614 680.854 197.32 678.099 237.044C676.903 254.291 670.034 281.896 665.904 297.963C690.698 291.254 697.131 309.002 699.446 328.885C702.055 351.301 700.109 366.595 693.89 388.087C717.912 378.892 736.061 373.908 762.25 373.574C795.721 373.147 826.853 388.114 849.891 412.256C894.024 460.03 899.975 532.719 899.386 594.77C898.962 639.292 888.224 683.412 885.092 727.728C884.99 729.171 883.185 730.484 882.143 731.502C836.962 765.849 785.775 792.676 732.909 812.439C727.809 814.345 721.826 816.18 716.939 818.275L714.115 819.489C712.83 819.589 699.715 824.442 697.396 825.254C688.346 828.422 679.225 831.381 670.039 834.13C644.16 841.489 617.788 846.984 591.123 850.573C562.904 854.469 532.453 856.007 503.912 857.133C428.903 860.091 350.935 858.188 277.299 842.181C257.234 837.829 237.379 832.563 217.795 826.398C210.307 824.026 202.836 821.598 195.385 819.113C192.493 818.148 185.413 815.591 182.851 815.072L181.851 814.88C180.738 814.599 180.042 814.268 178.986 813.839C172.211 812.144 159.374 806.815 152.138 804.228C106.838 788.035 57.483 762.833 18.4913 734.412C16.9907 733.529 16.0541 733.194 15.2308 731.673C14.079 719.309 13.5179 706.536 11.9796 694.234C8.55961 666.883 2.71722 636.575 1.35992 609.099C-1.33158 554.612 4.91772 488.689 32.7132 440.983C49.068 412.913 73.807 386.536 105.976 378.615C139.452 370.372 177.599 375.769 207.173 393.14C201.589 371.565 194.647 355.073 196.899 331.249C197.954 320.086 200.527 305.671 209.632 297.904C216.553 292 221.852 293.482 229.86 294.105Z" fill="#F9C5A5"/>
<path d="M229.86 294.105C229.709 293.652 229.564 293.197 229.425 292.741C227.088 285.128 224.895 274.253 223.487 266.471C215.445 222.677 218.126 177.586 231.301 135.054C234.147 125.849 238.389 113.238 243.03 105.019C269.087 58.8608 325.23 26.1812 374.496 11.6338C426.953 -3.98928 482.99 -2.75538 534.709 15.1618C570.552 27.8081 588.589 38.7368 599.801 76.9508C603.667 76.9358 608.433 77.0368 612.145 78.0988C630.084 83.2298 646.25 98.2528 655.267 114.363C675 149.614 680.854 197.32 678.099 237.044C676.903 254.291 670.034 281.896 665.904 297.963C690.698 291.254 697.131 309.002 699.446 328.885C702.055 351.301 700.109 366.595 693.89 388.087C717.912 378.892 736.061 373.908 762.25 373.574C795.721 373.147 826.853 388.114 849.891 412.256C894.024 460.03 899.975 532.719 899.386 594.77C898.962 639.292 888.224 683.412 885.092 727.728C884.99 729.171 883.185 730.484 882.143 731.502C880.436 712.221 887.628 680.276 890.247 660.32C895.466 620.557 898.543 580.607 894.438 540.506C889.357 490.871 876.473 436.726 835.858 403.763C809.557 382.707 780.818 374.046 747.31 377.724C729.451 379.684 711.495 383.434 695.655 392.17C694.322 392.905 689.03 395.621 688.307 396.55C680.524 406.551 670.877 423.666 665.707 434.873C658.755 449.943 658.157 455.619 647.803 468.221L646.391 468.278C645.812 469.522 645.856 469.686 644.874 470.598C643.086 472.724 641.258 474.976 639.395 477.024L639.409 477.351L639.741 478.198C637.659 480.615 632.635 486.34 631.777 489.39C626.821 507.01 625.356 526.676 618.449 543.788C614.42 553.772 611.263 559.755 609.415 570.738C608.154 578.233 602.74 588.91 598.945 595.536C583.86 617.908 560.78 647.357 540.72 664.861C521.213 681.881 504.737 685.051 488.335 707.516L487.544 705.821C499.597 690.061 509.662 683.688 526.329 673.333C547.229 660.517 560.673 641.041 576.136 622.9C591.849 604.464 605.063 586.644 609.665 562.061C605.951 566.241 602.234 573.434 597.603 578.541C592.219 584.77 585.777 590.156 579.706 595.627C533.39 637.367 473.662 668.053 410.114 650.412C394.123 645.47 373.962 637.855 359.757 628.831C334.12 612.544 303.157 587.776 287.928 561.791C288.354 564.132 288.793 566.471 289.243 568.808C294.361 594.2 311.677 610.801 326.4 630.533C342.374 651.943 358.771 666.675 380.95 681.375L380.386 682.76C350.002 663.598 337.94 649.778 316.164 621.275C310.303 613.603 302.222 604.751 297.702 596.3C293.546 588.692 290.321 580.61 288.098 572.23C286.93 567.832 286.093 563.316 284.885 558.959C283.607 554.349 280.688 549.891 278.841 545.508C272.141 529.608 269.439 512.181 264.898 495.629C263.547 490.704 256.508 481.658 253.32 476.94C250.587 472.888 248.155 468.643 246.041 464.236C242.501 456.894 238.767 449.365 235.158 442.083C230.36 432.402 224.245 415.642 217.025 407.797C189.649 378.051 136.199 371.676 99.272 384.136C73.7 392.765 53.134 414.774 39.0475 436.989C7.28012 488.177 1.88211 554.777 5.10271 613.697C6.82421 640.104 12.5547 670.433 15.7125 696.947C17.1634 709.129 17.6116 722.103 18.4913 734.412C16.9907 733.529 16.0541 733.194 15.2308 731.673C14.079 719.309 13.5179 706.536 11.9796 694.234C8.55961 666.883 2.71722 636.575 1.35992 609.099C-1.33158 554.612 4.91772 488.689 32.7132 440.983C49.068 412.913 73.807 386.536 105.976 378.615C139.452 370.372 177.599 375.769 207.173 393.14C201.589 371.565 194.647 355.073 196.899 331.249C197.954 320.086 200.527 305.671 209.632 297.904C216.553 292 221.852 293.482 229.86 294.105Z" fill="#050302"/>
<path d="M268.784 173.976C271.117 158.683 282.05 133.335 291.178 120.8C294.447 116.311 300.096 111.375 304.626 108.006C331.433 88.0619 359.883 87.6079 391.619 92.0099C410.407 94.4639 429.22 100.645 448.212 100.976C460.802 101.196 473.825 101.3 486.419 100.511C528.696 97.8609 578.983 89.2909 608.165 128.314C617.517 140.821 623.095 154.43 625.472 169.82C626.211 174.32 627.563 183.804 628.967 187.859C628.646 189.919 628.08 193.759 628.955 195.647C629.255 224.619 633.94 254.68 634.852 283.783C635.499 304.425 633.359 325.839 637.25 346.078C639.788 339.712 643.485 333.36 646.862 327.257C654.595 313.277 662.912 293.955 682.665 301.079C687.437 302.8 690.824 307.618 692.581 312.17C699.476 331.399 699.485 367.011 691.486 385.46C685.21 398.017 676.677 409.143 669.747 421.398C663.261 432.867 659.772 445.167 653.052 456.4C648.642 463.77 647.302 465.978 638.692 466.379C636.435 465.21 634.201 463.995 631.991 462.737L631.66 463.654L631.326 463.232L631.144 463.226C630.544 464.282 630.776 463.781 630.406 464.71L629.966 464.648C629.788 455.419 631.308 445.356 631.733 436.101C632.663 415.898 635.103 394.934 635.745 374.825C633.074 379.76 629.292 443.496 628.386 453.814C625.809 483.165 625.084 514.366 616.166 543.229C613.291 552.534 607.091 561.484 601.69 569.495C595.311 578.37 586.008 585.924 577.688 593.041C572.905 597.132 566.235 603.411 561.351 607.058C534.638 627.001 501.032 647.165 467.393 651.208C416.168 657.366 370.552 633.897 331.341 603.422C313.144 589.279 295.599 572.197 284.406 551.849C275.928 536.436 273.711 517.922 271.74 500.899C268.957 476.867 267.474 452.981 265.965 428.858C265.204 416.685 264.852 402.521 263.347 390.586C262.694 391.922 262.614 391.885 262.258 393.303C262.641 397.575 262.719 402.055 262.962 406.355C263.981 424.391 265.048 442.368 265.114 460.439C256.652 465.486 252.24 464.329 246.169 456.159C238.791 446.229 234.862 434.148 229.299 423.211C224.525 413.824 217.942 405.666 212.876 396.486C210.475 391.565 208.922 386.001 207.341 380.804C200.851 359.482 196.598 336.409 203.281 314.587C205.055 308.795 207.165 303.264 212.38 299.621C218.837 295.111 225.346 296.609 232.487 297.831C233.873 299.124 235.403 300.95 236.684 302.393L235.632 302.965C241.919 305.693 254.543 332.142 258.91 339.523C260.137 323.386 258.315 302.711 259.081 285.948C259.962 266.68 262.188 249.077 264.696 230.01L266.106 230.456C268.27 216.204 266.154 203.565 267.085 190.205C268.385 187.259 268.892 177.296 268.784 173.976Z" fill="#F9C5A5"/>
<path d="M264.696 230.01L266.106 230.456C265.79 242.428 263.563 257.77 262.44 270.034C261.158 285.406 260.777 300.841 261.297 316.257C261.516 322.056 262.337 341.502 259.458 345.952L259.025 345.826C258.168 339.024 239.835 309.714 234.736 302.766L235.111 302.594L235.632 302.965C241.919 305.693 254.543 332.142 258.91 339.523C260.137 323.386 258.315 302.711 259.081 285.948C259.962 266.68 262.188 249.077 264.696 230.01Z" fill="#050302"/>
<path d="M262.258 393.303C261.684 389.138 261.583 378.33 261.312 373.372C262.76 378.817 262.989 384.941 263.347 390.586C262.694 391.922 262.614 391.885 262.258 393.303Z" fill="#19100B"/>
<path d="M496.605 315.345C496.828 309.585 504.154 297.842 508.618 293.935C515.538 287.878 527.173 282.618 536.416 282.83C545.058 283.028 554.605 288.531 559.874 295.12C565.979 302.756 569.014 309.097 575.742 317.044L575.302 317.626C572.235 314.831 570.229 312.754 567.624 309.467C569.136 317.099 570.011 324.091 564.822 331.045C551.776 348.527 524.483 345.968 507.784 335.72C506.599 334.993 504.69 333.079 504.223 331.767C501.289 326.33 495.824 323.642 496.605 315.345Z" fill="white"/>
<path d="M496.605 315.345C496.828 309.585 504.154 297.842 508.618 293.935C515.538 287.878 527.173 282.618 536.416 282.83C545.058 283.028 554.605 288.531 559.874 295.12C565.979 302.756 569.014 309.097 575.742 317.044L575.302 317.626C572.235 314.831 570.229 312.754 567.624 309.467C569.136 317.099 570.011 324.091 564.822 331.045C551.776 348.527 524.483 345.968 507.784 335.72C506.599 334.993 504.69 333.079 504.223 331.767C509.079 335.622 513.566 337.173 519.27 339.376C533.622 344.919 552.598 343.647 562.744 330.743C572.268 318.629 564.63 302.657 554.216 293.764C542.956 284.148 528.382 284.713 516.182 292.146C506.567 297.913 501.875 305.869 496.605 315.345Z" fill="#050302"/>
<path d="M531.384 298.936C539.994 297.519 548.139 303.305 549.633 311.903C551.127 320.501 545.413 328.696 536.829 330.267C528.136 331.858 519.814 326.056 518.301 317.349C516.787 308.642 522.664 300.372 531.384 298.936Z" fill="#050302"/>
<path d="M536.978 328.65C530.817 330.076 524.452 327.27 521.349 321.759C518.246 316.248 519.147 309.35 523.561 304.821C527.976 300.292 534.848 299.214 540.437 302.175C545.692 304.96 548.666 310.715 547.896 316.613C547.125 322.511 542.773 327.31 536.978 328.65Z" fill="#0C0C0C"/>
<path d="M536.978 328.65C530.817 330.076 524.452 327.27 521.349 321.759C518.246 316.248 519.147 309.35 523.561 304.821C527.976 300.292 534.848 299.214 540.437 302.175C534.297 305.411 531.407 298.118 522.053 309.365C519.739 321.44 524.251 328.172 536.978 328.65Z" fill="#8C8C8A"/>
<path d="M327.965 306.869C331.839 300.392 334.495 296.106 340.148 291.278C360.377 273.998 391.986 288.52 398.176 312.63C398.311 313.155 398.281 313.128 398.321 313.699C397.574 324.284 395.728 326.754 388.321 334.317C386.161 340.561 365.132 344.411 358.852 344.043C349.967 343.523 341.024 341.134 334.736 334.32C330.879 330.139 327.472 323.664 328.011 317.846C328.273 315.275 329.223 310.796 329.259 308.521L329.263 307.774L327.965 306.869Z" fill="white"/>
<path d="M327.965 306.869C331.839 300.392 334.495 296.106 340.148 291.278C360.377 273.998 391.986 288.52 398.176 312.63C398.311 313.155 398.281 313.128 398.321 313.699C390.504 301.595 383.442 290.924 368.373 287.725C359.902 285.926 351.327 287.183 344.265 292.136C322.536 307.376 325.646 337.615 354.044 342.284C366.034 344.256 378.142 340.062 388.321 334.317C386.161 340.561 365.132 344.411 358.852 344.043C349.967 343.523 341.024 341.134 334.736 334.32C330.879 330.139 327.472 323.664 328.011 317.846C328.273 315.275 329.223 310.796 329.259 308.521L329.263 307.774L327.965 306.869Z" fill="#050302"/>
<path d="M359.286 298.951C368.088 297.634 376.279 303.737 377.536 312.547C378.794 321.358 372.636 329.508 363.817 330.706C355.082 331.892 347.026 325.806 345.781 317.079C344.536 308.352 350.567 300.255 359.286 298.951Z" fill="#050302"/>
<path d="M358.598 300.704C367.327 300.344 372.766 303.069 375.231 311.88C377.474 319.901 373.815 326.252 365.813 328.096C357.561 328.156 349.189 327.21 347.687 317.137C347.094 312.881 348.225 308.564 350.83 305.146C353.195 302.101 354.975 301.237 358.598 300.704Z" fill="#0C0C0C"/>
<path d="M500.717 209.17C513.099 209.357 525.444 216.65 536.959 220.747C545.872 223.919 554.482 227.191 563.034 231.225C582.36 240.34 594.734 255.051 599.331 276.02C599.935 278.756 600.075 281.807 600.658 284.508C601.675 289.218 602.953 293.568 603.253 298.456C601.532 294.293 600.319 288.3 598.961 283.672C585.144 257.606 547.887 250.885 521.512 247.374C506.729 245.406 488.94 242.287 479.613 229.599C480.945 225.683 483.746 220.647 486.368 217.428C491.05 211.677 493.763 210.019 500.717 209.17Z" fill="#050302"/>
<path d="M481.385 229.318C487.814 217.979 492.378 207.397 507.707 211.721C514.643 213.678 521.206 216.22 527.842 218.979C561.211 232.855 586.986 238.122 597.414 276.486C597.737 277.652 598.037 278.824 598.316 280.002C591.95 269.859 595.095 266.296 583.018 257.891C589.23 264.587 591.013 267.243 595.543 274.911C590.807 270.809 583.084 263.985 577.901 260.904C557.31 248.663 532.748 248.05 510.512 243.119C507.703 242.369 503.928 241.685 501.014 241.073C499.922 240.722 499.207 240.603 498.094 240.377C490.154 237.093 487.456 235.437 481.385 229.318Z" fill="#B28057"/>
<path d="M507.207 219.378C507.485 225.407 507.216 227.323 504.207 232.233C504.513 234.185 504.602 234.475 505.254 236.353C507.435 238.506 507.5 239.522 509.51 241.801L509.316 240.63C510.552 241.92 510.082 241.164 510.512 243.119C507.703 242.369 503.928 241.685 501.014 241.073C499.922 240.722 499.207 240.603 498.094 240.377C500.283 237.366 500.37 228.5 502.262 227.503C502.678 228.466 502.532 228.51 503.22 229.133C504.926 226.117 505.915 222.689 507.207 219.378Z" fill="#8C5A31"/>
<path d="M501.014 241.073C502.008 239.31 502.104 238.117 502.519 236.103C503.736 237.572 504.706 238.923 506.315 239.949C506.53 238.857 505.757 237.62 505.254 236.353C507.435 238.506 507.5 239.522 509.51 241.801L509.316 240.63C510.552 241.92 510.082 241.164 510.512 243.119C507.703 242.369 503.928 241.685 501.014 241.073Z" fill="#9B6643"/>
<path d="M543.319 230.291C545.488 229.999 546.083 229.936 548.252 230.021L548.659 230.717C546.396 231.083 546.012 231.142 543.75 231.019L543.319 230.291Z" fill="#8C5A31"/>
<path d="M390.62 211.154C404.92 209.882 410.891 219.189 416.359 230.797C391.689 258.435 335.231 242.089 306.068 275.84C300.57 282.533 298.782 286.326 295.722 294.273C300.094 251.399 318.69 237.198 357.506 223.55C368.811 219.575 377.764 212.843 390.62 211.154Z" fill="#050302"/>
<path d="M299.304 283.483C303.682 266.437 307.957 252.907 323.284 242.57C335.136 234.296 348.419 229.135 361.688 223.578C372.869 218.896 386.144 211.07 398.62 213.161C404.836 214.202 411.004 225.642 414.312 230.73C408.538 235.939 404.928 238.654 397.695 241.226L390.222 243.324C359.377 252.364 316.502 249.574 299.304 283.483Z" fill="#B28057"/>
<path d="M390.222 243.324C390.174 240.11 389.682 234.667 393.253 233.337L394.686 234.812C394.782 236.879 394.688 237.132 395.706 238.843L396.649 239.286L397.695 241.226L390.222 243.324Z" fill="#A7714F"/>
<path d="M386.194 222.304C393.483 227.002 396.163 230.25 396.649 239.286L395.706 238.843C394.688 237.132 394.782 236.879 394.686 234.812C393.252 230.035 390.876 226.625 386.751 223.766L386.194 222.304Z" fill="#19100B"/>
<path d="M386.751 223.766C384.174 221.894 380.34 221.141 379.225 219.713C382.015 220.027 383.912 220.666 386.194 222.304L386.751 223.766Z" fill="#8C5A31"/>
<path d="M357.097 228.108C362.04 227.694 363.377 228.998 367.973 231.264C365.472 230.951 362.968 230.651 360.463 230.367C358.846 230.102 356.396 230.038 354.706 229.943C356.416 229.665 358.397 229.573 359.757 228.72L357.097 228.108Z" fill="#9B6643"/>
<path d="M449.32 486.746C455.468 484.074 494.293 493.53 502.323 496.444C514.195 500.753 531.786 506.556 537.865 519.045C538.769 520.901 540.14 523.268 539.47 525.302C536.961 523.283 533.15 516.357 529.452 513.065C515.172 500.352 483.969 493.827 465.469 489.703C461.07 488.722 441.954 489.01 436.879 489.044C421.245 490.086 388.372 500.345 373.593 507.714C360.413 514.286 357.149 522.623 353.067 535.623C354.002 528.641 356.043 517.44 361.692 512.802C383.481 494.912 422.234 487.589 449.32 486.746Z" fill="#050302"/>
<path d="M214.045 314.651C212.24 315.358 209.964 316.505 208.125 316.348L209.416 316.294L208.88 315.603C227.824 307.977 231.2 328.473 237.134 340.694C240.569 347.768 247.695 354.591 249.762 362.583C251.431 369.037 248.371 374.409 246.698 380.447C243.506 393.431 248.746 405.922 257.504 415.33C255.934 417.442 255.482 418.195 253.4 419.752C248.241 420.709 245.237 417.521 243.337 413.16L241.597 412.5L240.694 413.014L240.236 412.764C240.823 409.772 245.2 407.024 247.742 405.775L248.305 405.673C243.423 396.27 242.364 386.613 245.811 376.33C247.919 370.038 249.357 364.919 245.849 358.693C242.858 353.229 239.123 348.292 235.965 342.906C231.756 335.727 227.646 319.058 218.682 316.291C216.898 315.743 214.964 315.989 213.373 316.966C207.656 320.501 205.302 330.91 203.621 336.919C203.124 327.212 206.831 320.98 214.045 314.651Z" fill="#050302"/>
<path d="M247.742 405.775L248.305 405.673C250.102 407.486 251.873 409.571 252.169 412.178C251.057 412.466 245.26 413.875 244.537 414.188C244.449 414.042 243.5 413.294 243.337 413.16L241.597 412.5L240.694 413.014L240.236 412.764C240.823 409.772 245.2 407.024 247.742 405.775Z" fill="#E3A57B"/>
<path d="M247.742 405.775C247.318 408.815 243.993 409.056 241.597 412.5L240.694 413.014L240.236 412.764C240.823 409.772 245.2 407.024 247.742 405.775Z" fill="#422818"/>
<path d="M252.169 412.178C253.626 412.811 253.541 412.738 254.583 413.933C255.147 416.273 254.184 417.321 252.861 419.098L253.4 419.752C248.241 420.709 245.237 417.521 243.337 413.16C243.5 413.294 244.449 414.042 244.537 414.188C245.26 413.875 251.057 412.466 252.169 412.178Z" fill="#E4AB8A"/>
<path d="M243.337 413.16C243.5 413.294 244.449 414.042 244.537 414.188C247.413 417.342 248.917 417.834 252.861 419.098L253.4 419.752C248.241 420.709 245.237 417.521 243.337 413.16Z" fill="#422818"/>
<path d="M640.554 419.606C638.745 418.155 638.934 418.756 638.451 416.911C638.999 414.977 642.092 411.573 643.671 409.766C649.281 404.959 654.038 384.093 650.438 378.373C640.325 362.302 650.43 356.748 658.483 342.605C660.851 338.445 663.106 330.463 666.307 324.98C667.16 323.507 668.138 322.111 669.231 320.806C675.273 313.706 681.851 314.519 688.206 320.616C669.916 310.134 666.664 331.479 660.588 342.674C658.057 347.339 654.077 352.854 651.25 357.702L650.383 359.016C646.181 369.509 648.685 369.407 653.016 379.032C655.357 384.233 652.357 395.809 650.804 401.304C650.17 403.53 645.481 409.817 645.529 411.925L647.156 413.849L651.314 418.179L650.932 418.399C651.206 418.588 651.48 418.778 651.754 418.967C648.816 418.212 648.543 419.014 645.7 419.709C643.843 420.164 642.416 419.794 640.554 419.606Z" fill="#050302"/>
<path d="M641.197 418.704C640.733 417.405 640.15 416.552 640.791 415.169C641.311 414.059 642.33 413.264 643.533 413.029C645.123 412.713 645.544 413.477 646.651 414.388L647.156 413.849L651.314 418.179L650.932 418.399C651.206 418.588 651.48 418.778 651.754 418.967C648.816 418.212 648.543 419.014 645.7 419.709C643.843 420.164 642.416 419.794 640.554 419.606L641.197 418.704Z" fill="#F9C5A5"/>
<path d="M647.156 413.849L651.314 418.179L650.932 418.399C651.206 418.588 651.48 418.778 651.754 418.967C648.816 418.212 648.543 419.014 645.7 419.709C643.843 420.164 642.416 419.794 640.554 419.606L641.197 418.704C644.658 419.022 646.197 418.658 649.627 418.125L646.651 414.388L647.156 413.849Z" fill="#6E411E"/>
<path d="M409.901 433.016L408.994 433.372C407.243 432.714 407.316 432.827 406.197 431.348C405.014 427.039 408.787 424.389 412.322 423.902C424.115 422.277 430.827 425.203 437.543 435.026C440.084 438.742 447.176 439.625 451.854 438.553L451.958 439.777C441.684 441.51 437.432 436.055 428.378 432.791C423.955 431.197 419.618 430.912 414.952 430.429C412.178 431.142 411.73 430.978 409.901 433.016Z" fill="#050302"/>
<path d="M409.901 433.016C409.644 432.384 408.429 431.507 407.619 430.033C408.841 424.215 419.797 426.342 424.09 427.117C421.062 428.193 416.021 427.858 414.239 429.788L414.952 430.429C412.178 431.142 411.73 430.978 409.901 433.016Z" fill="#A7714F"/>
<path d="M526.34 436.885C549.719 460.82 565.867 479.374 566.396 516.068C566.503 523.522 564.816 528.833 561.593 535.466C572.1 496.463 551.285 464.731 525.886 437.582L526.34 436.885Z" fill="#8C5A31"/>
<path d="M479.949 263.55L480.208 263.905C479.639 264.609 479.075 265.318 478.517 266.032C471.723 274.556 466.639 287.92 464.835 298.622C461.462 318.637 468.285 338.121 466.687 358.13C465.788 355.372 465.854 346.964 465.386 343.539C463.166 327.27 459.925 310.088 463.592 293.777C465.767 284.104 471.055 269.169 479.949 263.55Z" fill="#050302"/>
<path d="M446.782 516.249C449.868 515.94 463.793 517.159 467.002 517.828C475.189 519.534 481.968 523.145 486.746 530.161C474.425 520.19 465.603 518.922 450.375 519.01C432.518 518.854 424.385 519.199 409.6 529.536C418.938 517.312 432.803 517.292 446.782 516.249Z" fill="#050302"/>
<path d="M454.188 436.273C460.054 428.826 472.319 419.861 482.206 424.774C486.415 426.865 485.004 432.521 480.761 433.249C471.299 425.806 466.651 432.35 457.021 435.245L454.188 436.273Z" fill="#050302"/>
<path d="M476.239 427.131C477.944 427.294 479.78 427.358 480.808 428.49L480 429.189C478.399 429.006 476.803 428.785 475.213 428.526L474.889 428.004L476.239 427.131Z" fill="#9B6643"/>
<path d="M414.407 262.333C432.584 278.367 435.197 307.477 431.591 329.905C430.225 338.398 428.506 346.313 428.99 355.016L428.017 354.067C427.97 343.881 428.961 337.821 430.074 327.748C433.046 300.83 429.459 284.909 414.407 262.333Z" fill="#050302"/>
<path d="M406.476 388.109L406.804 388.434C405.921 389.249 405.035 389.925 404.037 390.605C396.603 395.664 391.867 407.172 390.419 415.797C389.574 420.824 390.59 425.158 393.667 429.32C399.197 436.8 404.398 434.145 412.345 435.298L411.378 435.817C409.851 436.327 408.176 436.849 406.612 437.203C402.957 437.993 399.138 437.291 396.003 435.253C382.551 426.519 388.723 406.438 395.853 395.654C398.768 391.247 401.379 389.126 406.476 388.109Z" fill="#050302"/>
<path d="M482.872 388.604C488.549 388.602 492.07 390.95 495.277 395.508C504.87 409.143 507.075 438.141 483.932 438.059C483.295 437.587 483.02 437.25 482.463 436.685C483.267 435.643 489.288 435.817 491.099 434.801C504.292 427.405 500.964 407.643 493.579 397.149C490.423 392.664 488.068 390.811 482.872 388.604Z" fill="#050302"/>
<path d="M408.128 157.364C423.866 159.62 441.89 162.728 457.774 161.828C466.971 161.306 476.722 159.334 485.92 158.312C491.103 157.705 499.776 155.884 504.599 156.264C485.881 159.586 463.941 164.339 445.016 163.689C433.384 163.29 419.008 159.607 407.417 158.068L408.128 157.364Z" fill="#6E411E"/>
<path d="M346.652 462.839L347.83 464.795C338.578 481.587 327.432 507.643 332.481 527.057L331.587 527.37C331.298 526.347 331.049 525.312 330.842 524.27C326.836 504.393 335.803 479.492 346.652 462.839Z" fill="url(#paint0_linear_144_242)"/>
<path d="M599.747 519.374C599.941 524.45 597.899 531.071 595.473 535.505C585.79 553.203 575.913 563.232 557.036 569.47L557.209 568.951C578.372 561.419 593.43 540.167 599.747 519.374Z" fill="#8C5A31"/>
<path d="M394.384 182.214C404.735 181.333 416.056 182.215 425.276 187.344C406.084 181.251 392.44 184.015 373.387 186.538C367.895 187.448 362.39 188.279 356.902 189.209C352.819 189.901 349.156 190.952 344.996 191.177C348.372 190.536 352.468 189.17 356.044 188.426C368.738 185.784 381.424 183.055 394.384 182.214Z" fill="#6E411E"/>
<path d="M297.959 520.33C299.602 524.454 300.733 528.878 302.672 532.899C309.712 547.496 321.765 562.388 337.113 568.62C339.351 569.529 341.534 570.599 343.582 571.883C338.297 570.409 338.384 568.799 332.338 568.469L331.968 567.599C316.389 559.816 298.446 538.35 297.959 520.33Z" fill="#8C5A31"/>
<path d="M650.383 359.016L651.25 357.702C658.01 360.659 667.012 364.474 669.6 372.002C673.417 383.104 670.894 397.511 661.521 405.082L661.479 403.605C663.511 401.519 666.446 397.122 667.357 394.415C673.473 376.24 667.311 365.624 650.383 359.016Z" fill="#552B11"/>
<path d="M221.834 332.804C222.626 333.756 222.668 333.412 221.903 334.309C218.395 338.426 217.548 341.884 216.413 347.118C213.708 359.967 212.71 373.117 213.446 386.227C209.427 375.483 212.208 339.696 221.834 332.804Z" fill="#050302"/>
<path d="M671.527 334.404C680.305 336.703 681.74 346.52 683.396 354.043C686.069 366.183 687.24 374.626 683.624 386.618L683.384 386.759C682.729 384.971 685.051 373.756 684.164 369.583C681.341 356.29 682.856 343.799 671.527 334.404Z" fill="#050302"/>
<path d="M545.167 189.683C537.846 186.945 504.921 183.014 495.528 182.459C493.399 182.333 483.533 183.781 479.831 183.744L480.102 183.39C499.587 178.607 526.798 183.753 546.18 189.066L545.167 189.683Z" fill="#6E411E"/>
<path d="M242.743 357.431L243.236 357.54C243.062 358.305 238.698 361.421 237.758 362.11C222.872 373.005 225.419 390.616 236.458 403.312L235.695 403.26C226.979 396.396 224.031 384.707 226.971 374.112C229.095 366.456 235.965 361.011 242.743 357.431Z" fill="#552B11"/>
<path d="M346.652 462.839C353.78 451.238 363.018 442.787 372.143 432.858C374.149 430.675 377.526 425.223 379.411 423.666C376.047 432.68 354.806 453.129 347.83 464.795L346.652 462.839Z" fill="#8C5A31"/>
<path d="M513.622 274.914C519.604 275.031 525.526 276.616 531.507 277.087L531.23 278.505C527.688 278.651 526.084 278.689 522.591 279.663L522.008 278.657L522.01 278.144C519.288 277.356 515.099 277.208 512.155 276.992C507.169 280.451 503.68 281.789 498.625 284.717L497.427 284.18C500.805 281.315 504.671 278.92 508.452 276.644C508.427 275.835 508.361 276.28 508.812 275.34C510.635 275.047 511.768 274.996 513.622 274.914Z" fill="url(#paint1_linear_144_242)"/>
<path d="M384.352 276.382C388.822 278.942 395.649 287.519 399.693 288.607L400.132 288.238C399.196 284.174 397.512 285.185 397.875 281.481L398.225 280.985C401.688 281.341 402.55 289.827 406.718 292.751L406.204 293.28L404.266 292.891C403.659 293.973 403.871 293.971 403.772 295.391L402.954 295.312C402.41 293.952 401.893 292.581 401.404 291.2C395.637 287.335 389.788 282.454 384.008 279.157L382.616 278.347L384.352 276.382Z" fill="#B28057"/>
<path d="M466.827 199.897C466.773 200.932 466.862 200.411 466.573 201.463C463.94 211.041 463.187 224.23 464.539 233.991C464.96 237.025 468.142 244.578 469.379 247.507L468.97 247.805C459.085 236.466 461.346 212.834 466.827 199.897Z" fill="#19100B"/>
<path d="M540.833 604.018C540.808 605.335 538.024 608.765 537.175 609.858C527.072 622.876 515.43 630.949 501.398 638.94C501.686 636.064 507.297 634.763 509.758 633.221C522.08 625.498 531.381 614.321 540.833 604.018Z" fill="#6E411E"/>
<path d="M362.873 276.849C364.902 277.112 368.266 278.11 369.576 278.251C376.207 280.211 380.096 282.713 384.405 287.992C377.806 283.398 371.815 278.914 363.278 279.002C359.654 279.039 356.484 279.667 352.809 279.462C354.672 278.604 360.558 277.384 362.873 276.849Z" fill="#6E411E"/>
<path d="M538.427 360.895C535.964 360.94 534.445 361.476 531.485 361.25C520.971 360.444 510.857 353.004 502.685 346.905C503.242 346.316 505.703 348.213 506.797 348.838C516.191 354.216 525.567 361.326 536.873 360.433L537.6 360.37L538.427 360.895Z" fill="#050302"/>
<path d="M362.873 276.849C369.832 275.347 377.384 274.361 384.352 276.382L382.616 278.347C379.748 277.957 371.976 277.159 369.576 278.251C368.266 278.11 364.902 277.112 362.873 276.849Z" fill="#8C5A31"/>
<path d="M362.869 360.182C368.146 359.081 393.194 345.101 392.677 344.941C383.999 352.567 374.168 358.267 363.013 361.232L362.748 360.861L362.869 360.182Z" fill="#19100B"/>
<path d="M431.587 221.797L432.31 219.473C432.555 220.708 432.769 221.949 432.951 223.195C433.208 234.232 434.465 238.794 428.238 248.205C432.219 238.518 431.166 232.282 431.587 221.797Z" fill="#050302"/>
<path d="M359.628 609.363C360.93 610.314 367.846 617.554 369.443 619.12C376.01 625.56 380.975 629.498 388.459 634.577C380.888 633.398 364.011 615.899 359.628 609.363Z" fill="#552B11"/>
<path d="M489.762 556.74L490.827 555.849L491.569 556.398C492.407 557.008 492.042 556.885 492.637 557.021C495.684 560.083 500.01 570.165 501.113 574.182C498.15 569.519 497.335 567.906 495.319 562.761L494.561 563.135L494.148 564.473C492.704 563.587 490.547 558.475 489.762 556.74Z" fill="#E4AB8A"/>
<path d="M492.637 557.021C495.684 560.083 500.01 570.165 501.113 574.182C498.15 569.519 497.335 567.906 495.319 562.761C495.228 562.318 493.1 558.106 492.637 557.021Z" fill="#A7714F"/>
<path d="M677.169 318.09C688.625 321.45 690.94 328.149 692.492 339.065L691.678 338.988C689.558 328.195 686.46 323.899 677.169 318.09Z" fill="#422818"/>
<path d="M408.438 571.116L409.963 571.669C411.595 575.15 410.4 581.658 409.167 585.228L408.573 584.749C408.295 581.013 408.052 574.783 408.438 571.116Z" fill="#B28057"/>
<path d="M408.736 549.196L409.205 550.148C403.386 555.239 401.285 560.318 397.756 566.942C397.249 567.893 396.132 570.506 395.486 571.104C399.838 559.541 400.286 558.263 408.736 549.196Z" fill="#6E411E"/>
<path d="M489.762 556.74C485.815 549.502 480.837 547.261 475.661 541.637C478.254 543.371 492.055 554.65 492.637 557.021C492.042 556.885 492.407 557.008 491.569 556.398L490.827 555.849L489.762 556.74Z" fill="#A7714F"/>
<path d="M466.577 396.418L466.914 396.762L466.795 397.572C464.965 399.968 456.7 405.911 453.813 407.034L453.362 406.49C457.271 402.666 462.793 400.523 466.577 396.418Z" fill="#E4AB8A"/>
<path d="M557.581 563.07C557.622 563.266 557.663 563.462 557.704 563.658L556.004 564.883C550.208 569.024 546.83 571.141 539.532 569.935L538.893 569.815C549.305 568.224 548.015 568.862 557.581 563.07Z" fill="#8C5A31"/>
<path d="M498.625 284.717C496.544 286.818 493.551 290.062 490.704 290.887L490.419 290.34C491.705 287.851 495.03 285.595 497.427 284.18L498.625 284.717Z" fill="#B28057"/>
<path d="M408.736 549.196C411.37 545.72 416.297 539.388 420.95 539.15L420.776 539.756L420.107 540.083C415.359 542.439 412.601 546.086 409.205 550.148L408.736 549.196Z" fill="#E4AB8A"/>
<path d="M363.013 361.232L362.475 361.559C361.57 360.884 345.876 360.83 343.325 360.732C346.186 360.484 361.305 359.286 362.869 360.182L362.748 360.861L363.013 361.232Z" fill="#A7714F"/>
<path d="M550.778 596.006C550.814 599.332 543.658 607.674 541.051 609.935L540.998 609.273C544.338 605.296 547.728 600.285 550.778 596.006Z" fill="#9B6643"/>
<path d="M300.51 318.427C303.647 319.205 305.402 320.734 309.783 321.001C311.847 321.126 315.462 320.729 316.867 320.971C311.942 323.609 304.738 321.795 300.51 318.427Z" fill="#A7714F"/>
<path d="M580.428 320.361C587.217 321.905 590.828 319.768 596.73 320.433C591.768 321.965 585.445 322.768 580.426 321.154L580.428 320.361Z" fill="#6E411E"/>
<path d="M509.97 287.054C514.359 282.978 516.6 281.206 522.008 278.657L522.591 279.663C518.253 281.551 514.506 284.738 509.97 287.054Z" fill="#422818"/>
<path d="M317.217 341.555C319.64 341.334 321.288 341.895 323.189 343.478L322.537 343.768C320.289 342.854 319.796 342.609 317.396 342.62C314.567 343.121 313.538 343.785 310.6 343.726C312.435 342.365 314.942 342.049 317.217 341.555Z" fill="#E4AB8A"/>
<path d="M508.452 276.644C505.535 275.329 503.205 276.058 498.784 273.468C503.778 274.315 508.57 274.587 513.622 274.914C511.768 274.996 510.635 275.047 508.812 275.34C508.361 276.28 508.427 275.835 508.452 276.644Z" fill="#9B6643"/>
<path d="M347.157 599.374C349.544 600.699 355.766 609.36 357.959 612.124C354.207 610.096 349.69 603.053 347.157 599.374Z" fill="#A7714F"/>
<path d="M322.525 317.86C324.131 313.836 325.446 310.444 327.965 306.869L329.263 307.774C327.038 310.875 324.991 314.445 322.525 317.86Z" fill="#050302"/>
<path d="M340.334 564.896C341.447 565.078 351.433 569.761 355.247 570.864C349.333 571.317 345.172 567.989 340.334 564.896Z" fill="#6E411E"/>
<path d="M655.987 408.246C655.515 409.301 655.115 410.07 654.565 411.088L654.11 410.639L654.441 410.489L654.176 409.982C655.534 406.049 658.076 405.197 661.479 403.605L661.521 405.082C658.739 406.058 658.334 406.418 655.987 408.246Z" fill="#E4AB8A"/>
<path d="M321.777 346.255C324.708 347.012 329.775 352.399 332.236 354.756C329.247 354.389 323.982 348.566 321.777 346.255Z" fill="#E4AB8A"/>
<path d="M431.76 210.312C432.563 214.926 433.235 218.468 432.951 223.195C432.769 221.949 432.555 220.708 432.31 219.473L431.587 221.797C431.633 219.169 431.483 216.257 431.404 213.607L431.76 210.312Z" fill="#422818"/>
<path d="M425.7 369.368L425.888 370.176C425.034 371.903 421.196 377.213 419.905 379.077C419.594 376.567 423.9 371.17 425.7 369.368Z" fill="#E4AB8A"/>
<path d="M423.188 588.35C423.556 590.108 422.197 596.974 421.794 599.179C420.504 595.748 421.756 591.517 423.188 588.35Z" fill="#6E411E"/>
<path d="M485.538 576.757C485.814 576.971 486.192 577.477 486.436 577.77C486.656 580.738 486.23 585.541 485.333 588.388C484.967 587.283 485.479 578.367 485.538 576.757Z" fill="#A7714F"/>
<path d="M579.921 342.023C581.417 341.944 583.207 341.772 584.4 342.555C582.936 343.411 581.304 343.122 579.529 343.078C577.812 343.673 577.414 344.154 575.942 343.804C577.221 342.551 578.185 342.483 579.921 342.023Z" fill="#E4AB8A"/>
<path d="M537.6 360.37C540.078 359.617 546.912 360.01 549.731 360.097C546.215 360.707 541.982 361.29 538.427 360.895L537.6 360.37Z" fill="#A7714F"/>
<path d="M575.799 346.415L576.965 346.768C574.785 348.456 573.876 349.318 571.955 351.307C571.365 351.432 571.774 351.374 570.717 351.267C572.212 348.567 573.199 347.265 575.799 346.415Z" fill="#E4AB8A"/>
<path d="M531.507 277.087C534.291 277.4 537.034 277.685 539.8 278.149C536.578 278.418 534.473 278.595 531.23 278.505L531.507 277.087Z" fill="#9B6643"/>
<path d="M464.186 374.483C467.643 375.319 469.206 376.241 471.876 378.578C469.057 378.308 466.385 376.212 464.186 374.483Z" fill="#E4AB8A"/>
<path d="M546.18 189.066C547.978 189.483 552.158 190.06 553.005 191.164L553.412 190.861L553.781 191.169L552.679 190.645L552.003 191.092C549.659 190.671 547.465 190.327 545.167 189.683L546.18 189.066Z" fill="#E4AB8A"/>
<path d="M431.404 213.607C430.927 211.37 430.295 205.988 430.511 203.892L430.883 204.053L430.388 204.596L431.041 204.816C431.364 206.528 431.553 208.561 431.76 210.312L431.404 213.607Z" fill="#A7714F"/>
<path d="M468.528 590.858C471.116 592.356 470.677 594.848 470.822 597.611C469.638 596.289 469.011 592.761 468.528 590.858Z" fill="#6E411E"/>
<path d="M525.886 437.582C524.643 436.375 522.627 434.428 522.171 432.825C523.655 433.424 525.22 435.586 526.34 436.885L525.886 437.582Z" fill="#9B6643"/>
<path d="M331.587 527.37L332.481 527.057C333.302 529.097 334.267 531.252 334.732 533.401L334.69 532.252L334.691 533.722L334.423 533.631L334.864 533.255L334.047 533.202C332.835 530.922 332.204 529.909 331.587 527.37Z" fill="#B28057"/>
<path d="M454.188 436.273L457.021 435.245C455.647 436.56 453.462 438.797 451.958 439.777L451.854 438.553L454.188 436.273Z" fill="#19100B"/>
<path d="M432.205 605.239C433.973 606.84 434.005 608.328 434.554 610.713L433.576 610.098C432.421 608.447 432.484 607.312 432.205 605.239Z" fill="#9B6643"/>
<path d="M428.017 354.067L428.99 355.016C429.073 356.72 429.231 357.904 428.555 359.351C427.722 357.707 427.973 355.945 428.017 354.067Z" fill="#B28057"/>
<path d="M407.417 158.068C406.014 157.813 403.645 157.569 402.813 156.651C404.983 156.397 405.957 156.819 408.128 157.364L407.417 158.068Z" fill="#B28057"/>
<path d="M575.742 317.044C577.7 318.818 578.093 319.153 580.428 320.361L580.426 321.154C577.883 319.828 577.377 319.574 575.302 317.626L575.742 317.044Z" fill="#B28057"/>
<path d="M691.678 338.988L692.492 339.065C692.904 341.65 693.107 342.303 692.841 344.844C692.081 343.495 691.911 340.691 691.678 338.988Z" fill="#A7714F"/>
<path d="M236.684 302.393C236.678 300.507 233.367 296.195 232.55 293.245C230.751 286.75 229.404 280.114 228.025 273.533C219.172 232.897 219.86 190.761 230.038 150.436C233.253 137.644 238.615 119.908 244.669 108.302C258.913 80.9952 284.933 58.2382 311.086 42.6202C372.486 5.50112 446.176 -5.53368 515.756 11.9719C531.953 16.0817 547.879 22.4627 562.604 30.552C576.71 38.3012 586.799 50.5582 592.983 65.3122C595.264 70.7522 596.119 75.6512 599.193 80.8102C600.077 80.1512 600.053 80.1432 600.629 79.2482C607.501 79.2012 614.861 81.4112 620.95 84.6132C646.012 97.7912 657.672 120.913 665.737 146.874C673.682 172.45 676.589 201.717 675.791 228.461C675.388 241.99 671.185 261.074 668.522 274.4C666.932 282.352 664.363 293.443 661.692 301.022C661.011 302.956 653.547 311.055 651.96 313.844C647.08 322.424 642.452 331.327 637.835 340.049C635.732 326.551 637.82 315.298 637.857 302.088C637.739 291.947 636.859 281.753 636.347 271.641C635.563 256.166 634.584 241.071 632.489 225.719C631.223 216.442 631.876 204.434 629.246 195.461L628.955 195.647C628.08 193.759 628.646 189.919 628.967 187.859C627.563 183.804 626.211 174.32 625.472 169.82C623.095 154.43 617.517 140.821 608.165 128.314C578.983 89.2909 528.696 97.8609 486.419 100.511C473.825 101.3 460.802 101.196 448.212 100.976C429.22 100.645 410.407 94.4639 391.619 92.0099C359.883 87.6079 331.433 88.0619 304.626 108.006C300.096 111.375 294.447 116.311 291.178 120.8C282.05 133.335 271.117 158.683 268.784 173.976C268.892 177.296 268.385 187.259 267.085 190.205C266.154 203.565 268.27 216.204 266.106 230.456L264.696 230.01C262.188 249.077 259.962 266.68 259.081 285.948C258.315 302.711 260.137 323.386 258.91 339.523C254.543 332.142 241.919 305.693 235.632 302.965L236.684 302.393Z" fill="#B28057"/>
<path d="M276.591 132.656C280.12 129.507 283.841 126.27 287.034 122.863C290.527 119.135 293.662 114.845 297.417 111.444C331.686 80.4099 376.046 85.9979 417.573 94.8169C425.807 96.5659 435.229 98.2999 443.713 98.9039C461.299 99.3489 479.839 99.0969 497.426 97.8399C534.499 95.1919 576.868 90.7239 604.501 121.256C607.547 124.622 610.475 129.213 613.31 132.881C622.488 144.754 632.815 159.14 639.262 172.74L638.484 173.05C635.069 167.418 627.499 154.892 623.742 150.055L622.152 149.999C624.282 155.959 626.324 162.392 627.292 168.702C628.427 176.102 628.912 183.401 631.403 190.502C635.232 201.418 639.215 212.314 644.113 222.774L643.418 223.038C639.084 215.135 635.626 207.977 632.695 199.419C631.369 195.551 630.354 191.618 628.967 187.859C627.563 183.804 626.211 174.32 625.472 169.82C623.095 154.43 617.517 140.821 608.165 128.314C578.983 89.2909 528.696 97.8609 486.419 100.511C473.825 101.3 460.802 101.196 448.212 100.976C429.22 100.645 410.407 94.4639 391.619 92.0099C359.883 87.6079 331.433 88.0619 304.626 108.006C300.096 111.375 294.447 116.311 291.178 120.8C282.05 133.335 271.117 158.683 268.784 173.976C265.084 167.484 277.83 142.183 279.615 134.726C271.527 146.641 264.977 160.296 256.622 171.58C260.629 162.779 269.15 147.136 274.857 139.497C279.859 132.804 281.232 135.226 286.439 125.348C283.236 128.463 281.149 130.409 277.651 133.145L276.591 132.656Z" fill="#050302"/>
<path d="M618.009 141.992C620.5 144.863 621.694 146.819 623.742 150.055L622.152 149.999L618.009 141.992Z" fill="#BD7D38"/>
<path d="M234.972 276.497C232.543 257.663 237.858 232.551 247.518 215.856C248.846 213.56 254.015 210.567 256.244 206.666C257.944 203.691 264.857 191.921 267.085 190.205C266.154 203.565 268.27 216.204 266.106 230.456L264.696 230.01C265.173 224.502 265.687 219.184 265.914 213.662C266.16 207.69 265.74 200.312 266.476 194.516L266.937 190.581C264 196.335 259.914 203.507 256.163 208.731C254.258 211.301 248.244 214.743 247.205 217.692C242.101 232.183 237.426 246.874 235.837 262.226C235.424 266.212 236 273.333 234.972 276.497Z" fill="#19100B"/>
<path d="M261.897 143.532C266.62 139.074 271.436 136.415 276.591 132.656L277.651 133.145C272.729 138.189 268.079 140.024 261.897 143.532Z" fill="#6E411E"/>
<path d="M639.262 172.74C640.638 174.46 644.2 178.688 644.913 180.478C642.78 178.787 639.194 175.746 638.484 173.05L639.262 172.74Z" fill="#8C5A31"/>
<path d="M644.113 222.774C645.057 224.274 645.562 224.506 645.605 226.016C644.324 225.029 644.158 224.454 643.418 223.038L644.113 222.774Z" fill="#6E411E"/>
<path d="M340.883 71.2081C347.248 70.9661 357.575 70.7132 363.669 71.6581C391.764 76.0111 417.629 88.9831 444.906 97.7301C438.37 97.0611 434.365 96.1232 428.126 94.0061C396.555 81.6221 368.932 69.3281 334.513 72.8191C331.545 73.1201 326.86 74.6391 324.386 73.6361C326.892 72.2281 337.858 71.4061 340.883 71.2081Z" fill="#050302"/>
<path d="M433.872 34.7402C435.495 34.7562 439.018 35.6972 440.629 36.2252C466.131 44.5722 485.739 65.0762 506.245 81.4442C510.055 84.4862 513.892 87.4132 517.476 90.6672C509.901 89.4382 491.736 71.1662 484.292 65.1002C466.71 50.7742 455.483 42.3822 433.872 34.7402Z" fill="#19100B"/>
<path d="M410.212 50.5742C418.259 53.7652 430.314 60.6572 437.382 65.8412C439.838 67.6422 443.318 71.4842 445.758 73.7152C446.67 76.1872 449.703 77.6312 451.454 80.3392C445.992 78.3142 430.214 66.3452 424.406 62.8832C421.782 61.3202 418.693 60.2712 416.502 58.7402C424.433 59.5322 434.678 69.2112 440.923 72.3502L441.177 71.7922C439.006 67.2462 415.848 54.1752 409.887 51.5802L410.212 50.5742Z" fill="#422818"/>
<path d="M635.421 245.33C640.055 255.444 653.299 296.673 649.762 306.375C649.319 296.825 643.947 276.142 641.371 266.216C639.298 258.233 636.329 255.242 635.421 245.33Z" fill="#050302"/>
<path d="M261.694 242.86C262.431 246.538 255.852 257.104 254.332 261.144C249.708 273.435 248.483 286.329 245.183 298.626C243.493 282.679 254.128 256.812 261.694 242.86Z" fill="#050302"/>
<path d="M644.264 143.882C631.824 129.82 618.909 115.52 603.129 105.341C600.684 103.763 598.976 104.933 597.401 102.634C609.125 103.501 629.368 125.025 636.965 133.861C639.71 137.082 642.435 140.32 645.14 143.575L644.264 143.882Z" fill="#050302"/>
<path d="M539.406 71.902C530.628 61.224 523.175 54.156 513.779 44.292C521.562 48.41 540.276 70.318 546.669 78.412C548.073 80.189 552.622 84.288 553.22 85.989C551.375 85.474 547.685 81.534 546.401 79.96C544.721 80.07 545.339 80.363 544.31 79.483C543.383 78.02 539.417 73.929 537.981 72.376L539.406 71.902Z" fill="#050302"/>
<path d="M539.406 71.902C541.064 73.403 544.991 78.055 546.401 79.96C544.721 80.07 545.339 80.363 544.31 79.483C543.383 78.02 539.417 73.929 537.981 72.376L539.406 71.902Z" fill="#8C5A31"/>
<path d="M323.785 75.558C325.077 75.384 325.678 75.171 326.91 75.545C320.23 78.444 313.948 79.691 307.369 82.345C296.574 86.701 286.256 92.42 275.718 97.5C274.83 97.848 274.57 97.925 273.672 98.178C275.258 96.57 278.695 95.0141 280.751 93.7941C295.419 85.093 307.275 80.075 323.785 75.558Z" fill="#050302"/>
<path d="M542.967 53.2788C550.712 61.5918 557.588 70.6748 563.487 80.3868C567.637 87.2048 570.679 93.4608 575.326 100.25C567.532 92.9098 567.139 89.2928 562.008 81.0478C557.896 74.4408 547.858 59.5758 542.525 54.4288L542.967 53.2788Z" fill="#050302"/>
<path d="M567.771 46.417C569.1 46.977 570.46 48.009 571.499 49.007C584.548 61.532 588.48 82.907 589.321 100.083C588.416 98.909 587.891 93.814 587.521 91.98C583.684 72.955 581.772 60.724 567.771 46.417Z" fill="#050302"/>
<path d="M274.791 110.33C281.208 107.089 314.52 90.839 320.339 92.101C318.333 93.247 311.553 95.61 308.832 96.684C301.154 99.764 293.526 102.969 285.953 106.299C283.493 107.363 277.265 109.89 275.109 111.088L274.791 110.33Z" fill="#050302"/>
<path d="M648.832 228.741C656.255 236.737 660.437 259.756 661.678 270.86L660.717 271.294C656.828 255.146 656.174 244.619 648.832 228.741Z" fill="#050302"/>
<path d="M445.758 73.7152C454.953 80.0352 463.14 86.8648 473.021 93.5398C466.491 91.0028 456.346 85.4392 451.454 80.3392C449.703 77.6312 446.67 76.1872 445.758 73.7152Z" fill="#050302"/>
<path d="M648.582 180.924C651.784 183.088 655.767 192.507 657.474 196.114C661.887 205.445 663.589 211.841 663.254 222.125C663.676 209.501 654.152 192.302 648.582 180.924Z" fill="#19100B"/>
<path d="M252.729 170.452C252.9 172.137 235.925 198.502 233.811 202.005C233.4 197.379 249.306 175.069 252.729 170.452Z" fill="#19100B"/>
<path d="M544.31 79.483C540.101 76.961 527.09 62.6968 523.956 58.4258C528.581 62.8918 533.709 67.642 537.981 72.376C539.417 73.929 543.383 78.02 544.31 79.483Z" fill="#422818"/>
<path d="M409.887 51.5802C405.065 49.8342 396.475 48.0752 391.387 46.8302C394.689 46.3652 406.563 49.3382 410.212 50.5742L409.887 51.5802Z" fill="#6E411E"/>
<path d="M542.525 54.4288C540.14 52.1388 536.705 49.0482 534.823 46.4692C537.75 48.4492 540.332 50.9148 542.967 53.2788L542.525 54.4288Z" fill="#422818"/>
<path d="M274.791 110.33L275.109 111.088C273.294 112.36 271.616 113.906 269.475 113.796C270.175 112.292 273.197 111.097 274.791 110.33Z" fill="#8C5A31"/>
<path d="M661.678 270.86C662.096 272.624 662.626 275.831 662.548 277.64L661.584 276.778L661.815 277.119C661.402 275.162 660.962 273.281 660.717 271.294L661.678 270.86Z" fill="#422818"/>
<path d="M645.14 143.575C646.015 144.483 647.329 145.781 646.995 147.052C645.519 146.445 645.111 145.305 644.264 143.882L645.14 143.575Z" fill="#8C5A31"/>
<path d="M629.966 464.648L630.406 464.71C630.776 463.781 630.544 464.282 631.144 463.226L631.326 463.232L631.66 463.654L631.991 462.737C634.573 469.044 640.448 469.633 646.391 468.278C645.812 469.522 645.856 469.686 644.874 470.598C643.086 472.724 641.258 474.976 639.395 477.024C635.183 472.515 632.407 477.609 629.66 475.105L629.648 472.771L629.437 471.214C629.458 468.634 629.617 467.214 629.966 464.648Z" fill="#E4AB8A"/>
<path d="M629.648 472.771C633.791 471.448 638.369 472.749 644.874 470.598C643.086 472.724 641.258 474.976 639.395 477.024C635.183 472.515 632.407 477.609 629.66 475.105L629.648 472.771Z" fill="#E3A57B"/>
<path d="M629.437 471.214L629.648 472.771L629.66 475.105C632.407 477.609 635.183 472.515 639.395 477.024L639.409 477.351C635.549 480.997 629.565 487.979 628.812 493.341L627.679 491.527C628.287 485.066 628.59 477.457 629.437 471.214Z" fill="#B28057"/>
<path d="M627.679 491.527L628.812 493.341C628.015 497.687 627.403 501.09 626.154 505.358C626.257 501.076 627.102 495.849 627.679 491.527Z" fill="#F9C5A5"/>
<path d="M247.582 463.612C254.208 467.622 258.961 468.943 265.802 464.252C266.035 469.297 266.403 474.49 266.706 479.544L265.865 479.384C260.926 478.399 263.338 476.698 257.572 480.093C254.08 474.699 250.748 469.203 247.582 463.612Z" fill="#E4AB8A"/>
<path d="M257.572 480.093C263.338 476.698 260.926 478.399 265.865 479.384L266.706 479.544C267.387 485.526 267.956 490.336 268.858 496.326L267.503 496.483C265.324 490.59 261.184 485.277 257.572 480.093Z" fill="#A7714F"/>
<path d="M267.503 496.483L268.858 496.326C269.527 499.637 269.866 502.444 270.271 505.791C268.51 503.287 268.074 499.53 267.503 496.483Z" fill="#E3A57B"/>
<path d="M714.115 819.489C713.92 813.86 714.381 806.956 714.53 801.21C715.81 751.847 716.106 689.135 738.243 643.861C737.792 647.442 733.794 659.885 732.598 664.174C729.736 674.755 727.293 685.444 725.272 696.217C718.843 732.249 717.141 781.037 716.939 818.275L714.115 819.489Z" fill="#050302"/>
<path d="M178.986 813.839C178.961 794.59 177.73 774.514 176.501 755.324C175.199 735.005 173.611 715.631 169.709 695.588C167.451 684.116 164.775 672.73 161.688 661.453C160.766 658.092 156.992 645.874 156.618 643.274C157.158 643.657 158.604 648.219 158.996 649.233C166.191 667.884 171.476 687.217 174.769 706.934C178.791 730.595 179.526 756.513 180.938 780.508C181.591 791.604 180.042 803.573 181.851 814.88C180.738 814.599 180.042 814.268 178.986 813.839Z" fill="#050302"/>
<path d="M380.95 681.375C391.101 687.9 398.751 695.046 404.612 705.722C405.848 707.975 407.985 711.013 408.473 713.495C407.035 712.259 398.885 699.163 395.822 696.271C392.783 693.401 389.135 688.972 385.096 686.251C384.933 686.141 380.394 682.768 380.386 682.76L380.95 681.375Z" fill="#6E411E"/>
<path d="M487.544 705.821L488.335 707.516C487.637 709.159 478.029 722.93 476.571 724.877C479.041 718.069 483.343 711.652 487.544 705.821Z" fill="#552B11"/>
<path d="M646.391 468.278L647.803 468.221C645.605 471.768 642.637 475.192 639.741 478.198L639.409 477.351L639.395 477.024C641.258 474.976 643.086 472.724 644.874 470.598C645.856 469.686 645.812 469.522 646.391 468.278Z" fill="#19100B"/>
<path d="M352.719 633.936C355.83 635.901 363.376 643.414 368.126 646.471C393.226 662.625 417.456 669.31 447.132 668.674C480.908 667.95 513.168 660.797 537.465 635.895L537.94 636.04C507.8 675.667 426.597 679.199 384.596 658.065C376.587 654.035 356.87 641.772 352.719 633.936Z" fill="#6E411E"/>
<path d="M634.337 585.387C634.201 587.386 631.277 595.454 630.456 597.795C618.997 630.471 599.887 661.343 579.557 689.219C576.252 693.752 569.661 702.727 565.847 706.25C565.8 706.011 578.545 687.873 579.912 685.842C594.949 663.509 609.463 640.712 621.293 616.496C626.274 606.3 630.163 595.854 634.337 585.387Z" fill="#8C5A31"/>
<path d="M259.332 581.79C264.129 589.716 267.792 601.31 271.943 609.808C285.385 637.327 300.374 663.421 318.317 688.288C321.258 692.363 327.536 700.624 329.872 704.875C325.457 701.178 318.487 691.366 314.934 686.479C291.473 654.431 272.747 619.173 259.332 581.79Z" fill="#8C5A31"/>
<path d="M448.607 758.849C448.68 759.183 444.831 823.367 444.762 823.625C444.194 809.647 444.55 771.201 448.607 758.849Z" fill="#6E411E"/>
<path d="M411.278 689.814C413.939 690.624 424.523 698.613 428.36 700.516C434.132 703.379 439.883 705.71 445.697 708.381C444.255 708.354 441.227 707.076 439.76 706.533C428.144 702.234 420.566 697.843 411.278 689.814Z" fill="#9B6643"/>
<path d="M329.872 704.875C331.687 705.837 332.514 706.769 333.273 708.705C331.772 707.749 330.57 707.242 329.794 705.684L329.872 704.875Z" fill="#E4AB8A"/>
<defs>
<linearGradient id="paint0_linear_144_242" x1="140.989" y1="413.26" x2="457.492" y2="624.048" gradientUnits="userSpaceOnUse">
<stop stop-color="#6D3A0A"/>
<stop offset="1" stop-color="#986541"/>
</linearGradient>
<linearGradient id="paint1_linear_144_242" x1="456.736" y1="8.52044" x2="101.813" y2="827.11" gradientUnits="userSpaceOnUse">
<stop stop-color="#815129"/>
<stop offset="1" stop-color="#9C6642"/>
</linearGradient>
</defs>
</svg>
