<svg width="706" height="861" viewBox="0 0 706 861" fill="none" xmlns="http://www.w3.org/2000/svg">
<path d="M224.795 179.221C210.324 143.193 208.735 109.553 224.173 73.3632C236.339 45.2466 259.232 23.1648 287.755 12.0339C325.258 -2.96668 373.055 -4.84351 410.512 11.5317C421.208 16.2076 433.895 23.9684 438.401 35.365C439.62 38.4466 440.112 41.5675 440.302 44.8719C448.737 44.5042 455.336 46.0552 461.694 51.9158C478.875 67.7525 486.541 96.8198 487.371 119.565C487.939 135.149 485.646 166.737 476.899 179.356C480.411 177.124 484.221 175.312 488.514 176.145C491.722 176.769 494.238 178.864 495.984 181.562C502.32 191.35 500.533 217.773 497.89 229.145C495.618 238.917 480.832 270.46 472.593 275.581C470.779 276.709 468.667 277.446 466.52 276.973C464.306 276.486 462.892 274.97 461.799 273.077L461.175 271.982C459.634 283.538 457.745 294.674 454.001 305.757C452.236 310.982 448.829 315.754 447.857 321.192C445.832 332.528 445.816 344.586 445.44 356.093C445.281 360.936 445.332 365.926 444.658 370.727C447.477 374.853 450.774 378.326 454.912 381.153C459.806 384.497 465.314 387.15 470.546 389.933C482.401 396.236 494.393 402.279 506.511 408.058C519.194 414.25 546.68 429.038 559.545 431.471C568.342 433.134 577.051 434.184 585.717 436.595C608.988 443.069 631.014 457.867 644.685 477.813C665.284 507.865 673.588 542.65 672.241 578.798C671.902 587.875 668.825 599.003 670.536 607.737C672.528 617.904 676.933 628.221 680.273 638.044C684.378 650.371 687.955 662.869 690.995 675.501C695.323 694.108 697.642 713.322 699.028 732.358C699.944 744.938 700.352 757.555 701.681 770.103C702.271 775.667 706.668 794.285 705.913 797.367C705.8 797.829 705.726 798.004 705.577 798.41C672.693 820.23 639.256 825.285 601.938 834.362C599.654 831.618 597.388 809.61 596.197 804.401C592.95 790.212 588.703 776.456 584.98 762.416C579.815 742.939 575.347 722.928 572.01 703.059C570.964 709.538 570.779 716.128 569.789 722.632C567.598 737.013 563.933 751.192 559.692 765.094C557.123 773.515 553.985 781.855 550.944 790.12C549.082 795.183 546.976 800.176 545.823 805.465C543.004 818.396 545.551 834.139 542.729 845.573C538.216 845.173 527.124 848.036 521.942 848.843C511.221 850.531 500.463 851.969 489.677 853.159C464.962 855.957 440.168 858.006 415.33 859.305C394.966 860.472 373.932 861.553 353.545 860.686L352.61 860.781C312.389 860.514 272.332 859.229 232.301 854.959C220.215 853.671 208.046 852.449 196.025 850.657C185.119 849.031 174.205 846.838 163.236 845.715C161.14 843.66 161.112 813.905 160.011 807.272C158.972 801.021 156.297 794.947 154.099 789.039C151.684 782.63 149.412 776.168 147.287 769.657C139.277 744.87 136.421 726.61 133.703 700.957C132.077 713.365 129.307 725.43 126.52 737.619C124.53 746.327 122.668 755.109 120.31 763.725C116.904 776.183 113.048 788.429 110.035 801.008C108.294 808.178 106.945 815.437 105.993 822.754C105.516 826.316 105.428 830.058 104.714 833.567L103.56 834.105C97.0878 833.737 90.2894 831.634 83.9746 830.132C63.0163 825.147 41.1573 819.709 21.4651 810.785C13.9844 807.395 7.421 802.687 0.234537 798.816C-1.07615 794.08 3.50352 777.077 4.18027 770.648C7.0002 743.861 7.42829 717.168 12.0726 690.53C15.0146 673.653 19.8156 656.71 25.2369 640.472C28.372 631.081 34.8024 615.657 35.9136 606.676C36.6387 600.813 35.042 594.595 34.3898 588.746C33.7595 583.094 33.8351 577.319 33.8187 571.637C33.7295 540.648 40.1226 511.398 56.3618 484.712C61.8222 475.738 68.0159 467.352 75.7552 460.2C83.991 452.59 94.5557 446.459 104.7 441.699C113.498 437.572 122.712 435.214 132.242 433.541C139.381 432.288 146.359 431.411 153.175 428.804C164.047 424.645 174.52 418.957 184.975 413.835C198.298 407.309 211.726 401.024 224.891 394.179C234.439 389.213 251.937 381.8 258.494 373.395C258.606 373.251 258.714 373.106 258.823 372.962C259.394 358.617 259.859 334.255 256.354 320.689C255.449 317.186 253.07 313.971 251.708 310.599C247.281 299.645 244.01 287.197 243.298 275.375L242.818 275.682C239.971 277.548 236.914 277.386 233.639 277.481C230.838 276.118 228.708 274.639 226.634 272.301C220.838 265.77 209.285 242.852 206.254 234.175C202.087 222.245 200.11 195.121 205.825 183.471C207.261 180.543 209.47 178.001 212.627 176.924C216.015 175.768 219.881 176.461 222.966 178.146C223.584 178.488 224.194 178.847 224.795 179.221Z" fill="#F8C6A6"/>
<path d="M224.795 179.221C210.324 143.193 208.735 109.553 224.173 73.3632C236.339 45.2466 259.232 23.1648 287.755 12.0339C325.258 -2.96668 373.055 -4.84351 410.512 11.5317C421.208 16.2076 433.895 23.9684 438.401 35.365C439.62 38.4466 440.112 41.5675 440.302 44.8719C448.737 44.5042 455.336 46.0552 461.694 51.9158C478.875 67.7525 486.541 96.8198 487.371 119.565C487.939 135.149 485.646 166.737 476.899 179.356C480.411 177.124 484.221 175.312 488.514 176.145C491.722 176.769 494.238 178.864 495.984 181.562C502.32 191.35 500.533 217.773 497.89 229.145C495.618 238.917 480.832 270.46 472.593 275.581C470.779 276.709 468.667 277.446 466.52 276.973C464.306 276.486 462.892 274.97 461.799 273.077L461.175 271.982C459.634 283.538 457.745 294.674 454.001 305.757C452.236 310.982 448.829 315.754 447.857 321.192C445.832 332.528 445.816 344.586 445.44 356.093C445.281 360.936 445.332 365.926 444.658 370.727C447.477 374.853 450.774 378.326 454.912 381.153C459.806 384.497 465.314 387.15 470.546 389.933C482.401 396.236 494.393 402.279 506.511 408.058C519.194 414.25 546.68 429.038 559.545 431.471C568.342 433.134 577.051 434.184 585.717 436.595C608.988 443.069 631.014 457.867 644.685 477.813C665.284 507.865 673.588 542.65 672.241 578.798C671.902 587.875 668.825 599.003 670.536 607.737C672.528 617.904 676.933 628.221 680.273 638.044C684.378 650.371 687.955 662.869 690.995 675.501C695.323 694.108 697.642 713.322 699.028 732.358C699.944 744.938 700.352 757.555 701.681 770.103C702.271 775.667 706.668 794.285 705.913 797.367C705.8 797.829 705.726 798.004 705.577 798.41C699.243 791.269 696.154 730.799 694.797 717.24C693.787 706.72 692.332 696.247 690.434 685.851C687.92 672.759 684.417 659.185 680.288 646.511C676.215 634.009 671.499 621.744 667.977 609.062L666.194 608.663C666.737 605.584 667.234 602.496 667.683 599.401C673.685 556.114 666.438 510.727 639.606 475.344C626.767 458.412 605.992 444.957 585.496 439.206C572.995 435.699 559.849 434.185 547.016 432.383L547.6 431.581L554.789 432.195C550.175 430.241 545.383 428.736 540.77 426.751C518.282 417.075 495.752 406.308 474.178 394.763C467.201 391.028 459.773 387.481 453.222 383.036C449.996 380.848 447.26 378.425 444.604 375.579C444.509 388.158 445.356 397.115 448.802 409.259C439.048 391.206 442.74 362.113 443.415 341.698C441.091 343.285 439.505 344.925 437.775 347.13C432.053 354.425 426.185 360.881 419.529 367.348C414.33 372.4 408.068 377.526 403.824 383.398C402.23 385.604 401.842 388.744 400.664 391.199L399.963 390.644L401.443 385.77C397.085 388.069 392.981 390.815 388.609 393.093C378.64 398.289 365.63 403.281 354.244 403.446C338.338 403.677 324.108 397.122 311.207 388.324C307.715 385.943 304.273 383.642 301.232 380.687C302.326 383.849 303.56 387.03 304.318 390.29L303.702 390.657C302.06 387.457 301.805 383.606 299.956 380.556C296.915 375.539 277.506 364.382 271.158 358.192C268.392 355.495 265.18 349.236 261.513 348.353C261.605 366.768 263.794 388.033 256.987 405.3C258.469 395.488 260.023 386.414 259.443 376.427C251.388 383.241 242.256 387.839 233.006 392.758C219.231 400.083 205.262 406.846 191.158 413.504C177.453 419.971 163.929 427.066 149.502 431.797C149.546 432.884 149.44 432.344 149.85 433.41C118.539 436.499 88.761 447.121 68.2928 472.104C41.4752 504.835 33.0609 550.029 37.3582 591.312C37.9849 597.5 38.8574 603.662 39.9714 609.784L39.1025 609.271L38.0477 609.869C34.511 622.878 29.5096 635.379 25.5575 648.248C17.5677 674.273 12.9361 698.339 10.4941 725.421C9.1789 740.001 6.95283 788.629 0.234537 798.816C-1.07615 794.08 3.50352 777.077 4.18027 770.648C7.0002 743.861 7.42829 717.168 12.0726 690.53C15.0146 673.653 19.8156 656.71 25.2369 640.472C28.372 631.081 34.8024 615.657 35.9136 606.676C36.6387 600.813 35.042 594.595 34.3898 588.746C33.7595 583.094 33.8351 577.319 33.8187 571.637C33.7295 540.648 40.1226 511.398 56.3618 484.712C61.8222 475.738 68.0159 467.352 75.7552 460.2C83.991 452.59 94.5557 446.459 104.7 441.699C113.498 437.572 122.712 435.214 132.242 433.541C139.381 432.288 146.359 431.411 153.175 428.804C164.047 424.645 174.52 418.957 184.975 413.835C198.298 407.309 211.726 401.024 224.891 394.179C234.439 389.213 251.937 381.8 258.494 373.395C258.606 373.251 258.714 373.106 258.823 372.962C259.394 358.617 259.859 334.255 256.354 320.689C255.449 317.186 253.07 313.971 251.708 310.599C247.281 299.645 244.01 287.197 243.298 275.375L242.818 275.682C239.971 277.548 236.914 277.386 233.639 277.481C230.838 276.118 228.708 274.639 226.634 272.301C220.838 265.77 209.285 242.852 206.254 234.175C202.087 222.245 200.11 195.121 205.825 183.471C207.261 180.543 209.47 178.001 212.627 176.924C216.015 175.768 219.881 176.461 222.966 178.146C223.584 178.488 224.194 178.847 224.795 179.221Z" fill="#040202"/>
<path d="M249.062 86.5802C254.129 78.1418 261.106 68.1993 268.898 62.0827C280.627 52.8765 304.575 52.2362 319.049 53.2696C329.579 54.0217 339.946 56.0362 350.542 56.0435C357.54 56.049 364.605 55.977 371.592 55.6032C382.182 55.0372 392.506 54.08 403.111 55.4583C419.467 57.585 436.542 61.9833 447.115 75.7908C448.297 78.5301 449.57 82.861 451.376 85.1445C453.013 93.0377 455.683 100.851 457.162 108.704L458.384 116.107C457.737 120.809 458.041 123.559 459.696 128.001C459.508 129.491 459.124 131.204 459.323 132.686C459.191 140.887 461.848 148.882 462.2 157.068C462.657 167.652 460.9 178.194 460.991 188.744C461.079 191.784 460.121 200.136 461.755 202.283L462.061 202.787C462.991 201.788 463.707 200.804 464.433 199.649L468.142 194.079C471.28 187.887 475.308 181.045 482.315 178.648C485.016 177.724 488.436 177.776 490.962 179.202C494.142 180.998 495.745 184.455 496.621 187.855C499.671 199.693 499.16 218.474 495.462 230.098C493.238 237.089 489.69 243.735 486.515 250.329C483.981 255.593 481.561 260.994 478.52 265.987C476.449 269.385 472.699 274.661 468.659 275.578C467.582 275.823 466.563 275.797 465.611 275.168C463.57 273.82 462.239 270.394 461.974 268.06C461.625 264.992 463.318 262.093 463.008 259.14L461.686 260.44C461.213 259.186 461.961 231.118 461.543 225.839L460.608 226.619C459.818 253.44 460.912 289.141 448.164 313.231C443.473 322.097 436.54 329.982 429.278 336.822C424.451 341.369 419.301 345.575 414.351 349.987C409.45 354.355 404.608 359.169 399.305 363.036C385.087 373.402 366.674 378.807 349.112 378.211C320.98 377.258 308.469 367.003 288.468 349.546C281.452 343.423 274.358 337.581 268.026 330.718C263.264 325.555 258.598 319.611 255.481 313.282C246.389 294.826 244.028 266.793 242.904 246.097C242.504 238.74 242.947 230.994 241.782 223.732C240.353 235.802 242.1 247.963 241.656 260.072L241.457 259.355C241.763 263.12 242.451 266.74 242.932 270.478L242.022 269.978C241.032 269.962 239.23 273.55 238.076 274.435C237.042 275.227 235.761 275.446 234.5 275.259C231.227 274.774 228.802 271.891 226.903 269.4C222.653 263.825 219.69 257.27 216.621 250.998C213.737 245.107 210.425 239.126 208.193 232.962C203.846 220.957 203.353 205.837 205.101 193.29C205.767 188.51 206.851 183.135 211.038 180.152C213.194 178.616 215.961 177.838 218.574 178.442C220.801 178.957 222.77 180.178 224.377 181.786C227.309 184.721 229.317 188.722 231.763 192.054C234.919 196.357 238.462 200.327 241.294 204.878L241.515 205.238L241.601 201.637C241.663 199.856 241.62 198.137 241.478 196.361C241.474 186.949 241.481 177.331 242.102 167.94C242.436 162.917 243.556 157.983 244.024 152.978C244.748 145.238 245.104 137.431 245.788 129.676C246.511 125.004 246.466 116.791 244.721 112.508L244.789 112.035C244.994 111.47 244.96 110.947 244.98 110.352C246.381 106.302 247.598 102.318 248.13 98.0514C249.414 95.1708 249.244 89.7215 249.062 86.5802Z" fill="#F8C6A6"/>
<path d="M460.991 188.744C461.079 191.784 460.121 200.136 461.755 202.283L462.061 202.787C461.447 205.365 461.372 208.14 461.13 210.777C459.85 204.145 460.263 195.487 460.991 188.744Z" fill="#71411E"/>
<path d="M460.608 226.619C460.605 224.807 460.368 222.695 461.074 221.003C461.675 222.522 461.536 224.226 461.543 225.839L460.608 226.619Z" fill="#9A572F"/>
<path d="M257.962 164.849C260.691 155.175 265.318 146.03 273.56 139.941C282.886 133.05 297.11 132.515 308.113 134.13C316.707 135.392 324.803 138.051 330.171 145.318C331.489 147.113 332.45 148.946 332.5 151.214L331.99 152.057C330.931 152.106 330.295 151.881 329.317 151.49C311.723 149.999 294.047 145.682 276.591 150.92C268.107 153.465 262.228 156.906 257.962 164.849Z" fill="#B57F4D"/>
<path d="M257.962 164.849C260.691 155.175 265.318 146.03 273.56 139.941C282.886 133.05 297.11 132.515 308.113 134.13C316.707 135.392 324.803 138.051 330.171 145.318C330.017 145.265 329.858 145.224 329.709 145.158C326.054 143.574 322.914 139.926 319.137 138.138C309.648 133.648 291.993 133.719 282.052 137.163C273.739 140.045 266.987 146.51 263.172 154.428C262.833 155.125 262.512 155.831 262.21 156.544C275.397 147.972 288.27 145.905 303.741 146.303C309.604 146.455 315.516 146.754 321.269 147.973C323.359 148.416 327.55 149.338 328.966 150.936C329.111 151.099 329.201 151.305 329.317 151.49C311.723 149.999 294.047 145.682 276.591 150.92C268.107 153.465 262.228 156.906 257.962 164.849Z" fill="#040202"/>
<path d="M381.635 138.447C391.278 132.509 406.596 132.172 417.383 134.811C427.354 137.252 434.909 142.884 440.229 151.683C441.898 154.442 443.13 157.258 444.028 160.354C442.72 159.147 441.438 157.848 439.989 156.813C424.702 148.04 407.954 147.102 390.774 149.465C385.431 150.2 379.086 151.745 373.739 151.24L373.657 150.232C373.413 149.994 372.984 149.591 372.785 149.335C372.15 148.516 372.208 148.138 372.476 147.154C373.455 143.544 378.472 140.162 381.635 138.447Z" fill="#B57F4D"/>
<path d="M373.739 151.24C388.192 144.048 414.371 144.998 429.216 150.056C433.153 151.397 436.877 153.628 440.586 155.496L439.989 156.813C424.702 148.04 407.954 147.102 390.774 149.465C385.431 150.2 379.086 151.745 373.739 151.24Z" fill="#040202"/>
<path d="M381.635 138.447C391.278 132.509 406.596 132.172 417.383 134.811C427.354 137.252 434.909 142.884 440.229 151.683C441.898 154.442 443.13 157.258 444.028 160.354C442.72 159.147 441.438 157.848 439.989 156.813L440.586 155.496C439.07 149.785 432.725 143.49 427.828 140.457C416.151 133.222 401.908 133.691 388.982 136.427C386.642 136.923 384.424 137.89 382.138 138.364C381.971 138.398 381.803 138.419 381.635 138.447Z" fill="#040202"/>
<path d="M268.359 189.954C275.42 180.826 283.114 172.548 295.108 170.938C303.067 169.869 313.119 172.278 319.443 177.316C322.812 180.001 324.685 183.268 326.349 187.144L326.978 189.872C326.108 190.123 310.201 191.621 309.891 191.518C308.995 191.436 308.156 191.241 307.281 191.037C304.213 192.309 300.312 191.864 297.085 191.381C296.822 191.505 296.569 191.652 296.296 191.752C292.153 193.245 285.696 190.897 281.942 189.139C281.278 188.96 281.327 189.021 280.674 188.6C279.299 187.713 279.041 186.753 278.743 185.233C278.57 184.352 278.418 183.521 278.126 182.669L277.87 181.937C274.512 184.41 271.729 187.519 268.359 189.954Z" fill="#040202"/>
<path d="M297.015 175.258C300.278 174.521 301.893 174.29 305.022 175.682C307.51 177.411 309.662 179.063 310.265 182.209C310.877 185.411 309.453 188.075 307.624 190.576L307.281 191.037C304.213 192.309 300.312 191.864 297.085 191.381C295.708 190.411 294.407 189.493 293.469 188.062C292.19 186.114 291.609 183.715 292.116 181.418C292.749 178.548 294.603 176.752 297.015 175.258Z" fill="#040202"/>
<path d="M298.954 176.053C300.177 175.991 301.388 175.931 302.583 176.251C304.853 176.858 306.95 178.381 308.042 180.489C308.895 182.116 309.039 184.024 308.44 185.762C307.597 188.2 305.788 189.454 303.594 190.593C302.186 190.628 300.572 190.782 299.215 190.35C297.097 189.679 295.083 187.9 294.113 185.91C293.291 184.225 293.168 182.349 293.857 180.596C294.79 178.218 296.747 177.073 298.954 176.053Z" fill="#466871"/>
<path d="M299.651 177.76C300.138 177.724 300.624 177.676 301.111 177.68C302.577 177.692 304.083 178.437 305.073 179.513C306.102 180.631 306.493 182.179 306.357 183.67C306.14 186.036 304.876 187.397 303.101 188.819C300.997 188.833 298.268 188.67 296.746 187C295.96 186.136 295.646 185.011 295.742 183.86C295.958 181.242 297.805 179.404 299.651 177.76Z" fill="#040202"/>
<path d="M281.942 189.139C281.06 187.809 280.106 186.653 280.231 184.961C280.389 182.836 282.078 180.851 283.662 179.587C287.044 176.89 292.617 174.837 297.015 175.258C294.603 176.752 292.749 178.548 292.116 181.418C291.609 183.715 292.19 186.114 293.469 188.062C294.407 189.493 295.708 190.411 297.085 191.381C296.822 191.505 296.569 191.652 296.296 191.752C292.153 193.245 285.696 190.897 281.942 189.139Z" fill="white"/>
<path d="M305.022 175.682C306.961 174.915 309.502 175.989 311.322 176.786C315.601 178.661 319.668 181.858 322.322 185.691C321.391 186.832 320.488 187.98 319.432 189.011C321.468 189.006 323.441 189.102 325.418 188.545L325.839 187.536L326.349 187.144L326.978 189.872C326.108 190.123 310.201 191.621 309.891 191.518C308.995 191.436 308.156 191.241 307.281 191.037L307.624 190.576C309.453 188.075 310.877 185.411 310.265 182.209C309.662 179.063 307.51 177.411 305.022 175.682Z" fill="white"/>
<path d="M326.349 187.144L326.978 189.872C326.108 190.123 310.201 191.621 309.891 191.518C312.611 189.87 316.336 189.489 319.432 189.011C321.468 189.006 323.441 189.102 325.418 188.545L325.839 187.536L326.349 187.144Z" fill="#9A572F"/>
<path d="M277.87 181.937C285.128 175.355 292.79 173.399 302.424 173.856C308.941 174.165 315.882 175.493 320.542 180.489C322.511 182.601 324.159 185.185 325.839 187.536L325.418 188.545C323.441 189.102 321.468 189.006 319.432 189.011C320.488 187.98 321.391 186.832 322.322 185.691C319.668 181.858 315.601 178.661 311.322 176.786C309.502 175.989 306.961 174.915 305.022 175.682C301.893 174.29 300.278 174.521 297.015 175.258C292.617 174.837 287.044 176.89 283.662 179.587C282.078 180.851 280.389 182.836 280.231 184.961C280.106 186.653 281.06 187.809 281.942 189.139C281.278 188.96 281.327 189.021 280.674 188.6C279.299 187.713 279.041 186.753 278.743 185.233C278.57 184.352 278.418 183.521 278.126 182.669L277.87 181.937Z" fill="#EBB18C"/>
<path d="M376.577 225.071C381.17 230.787 386.175 237.422 385.362 245.226C385.094 247.8 384.089 250.01 382.028 251.626C380.228 253.036 378.272 253.577 376.039 253.9C372.01 254.812 370.64 257.405 367.362 259.5C360.122 264.128 346.002 264.044 337.955 262.232C333.822 261.302 327.531 258.834 325.215 255.096C325.324 254.4 325.452 253.879 325.234 253.188C325.192 253.056 325.128 252.932 325.075 252.804C322.46 250.372 320.762 247.559 320.482 243.925C319.965 237.247 323.865 231.738 327.945 226.909C326.41 229.799 324.745 232.746 323.572 235.802C322.144 239.525 321.394 243.779 323.168 247.525C324.199 249.701 325.971 251.7 328.331 252.392C332.515 253.619 330.989 250.024 334.888 247.903C335.58 247.769 336.205 247.603 336.854 247.324C343.994 244.258 352.145 243.815 359.851 243.902C364.12 243.95 369.125 243.657 372.306 246.9L372.257 247.647C372.517 247.777 372.779 247.901 373.035 248.036C373.939 248.514 374.27 248.984 374.808 249.816C375.589 251.02 376.323 251.883 377.699 252.392C379.885 251.943 381.293 249.969 382.534 248.188C382.935 247.613 383.258 247.004 383.59 246.388C383.829 236.808 380.747 233.217 376.577 225.071Z" fill="#EBB18C"/>
<path d="M334.888 247.903C335.58 247.769 336.205 247.603 336.854 247.324C343.994 244.258 352.145 243.815 359.851 243.902C364.12 243.95 369.125 243.657 372.306 246.9L372.257 247.647L371.621 247.654C364.233 247.786 359.415 253.505 353.299 253.429C347.398 253.355 342.534 248.072 334.888 247.903Z" fill="#EBB18C"/>
<path d="M376.577 225.071C381.17 230.787 386.175 237.422 385.362 245.226C385.094 247.8 384.089 250.01 382.028 251.626C380.228 253.036 378.272 253.577 376.039 253.9C374.377 253.496 373.061 253.523 371.999 252.106L371.701 252.417L371.707 252.344C372.574 251.834 372.957 251.608 373.582 250.79C372.928 250.001 372.699 249.659 371.683 249.341C367.554 248.046 360.262 252.802 356.768 254.736C354.975 254.793 352.95 254.996 351.184 254.685C346.048 253.783 342.065 249.616 336.716 249.335C335.48 249.271 335.093 249.489 334.199 250.298C333.852 251.687 333.699 252.937 332.564 253.919C330.113 254.752 327.374 253.717 325.075 252.804C322.46 250.372 320.762 247.559 320.482 243.925C319.965 237.247 323.865 231.738 327.945 226.909C326.41 229.799 324.745 232.746 323.572 235.802C322.144 239.525 321.394 243.779 323.168 247.525C324.199 249.701 325.971 251.7 328.331 252.392C332.515 253.619 330.989 250.024 334.888 247.903C342.534 248.072 347.398 253.355 353.299 253.429C359.415 253.505 364.233 247.786 371.621 247.654L372.257 247.647C372.517 247.777 372.779 247.901 373.035 248.036C373.939 248.514 374.27 248.984 374.808 249.816C375.589 251.02 376.323 251.883 377.699 252.392C379.885 251.943 381.293 249.969 382.534 248.188C382.935 247.613 383.258 247.004 383.59 246.388C383.829 236.808 380.747 233.217 376.577 225.071Z" fill="#040202"/>
<path d="M382.079 180.166C387.362 174.52 396.024 170.852 403.76 170.641C413.335 170.38 421.506 174.576 428.288 181.061C431.158 183.805 433.931 186.798 436.421 189.896C433.495 187.974 430.89 185.701 428.232 183.43C427.347 185.01 426.331 187.949 424.508 188.531C423.592 188.824 422.63 188.91 421.675 188.95C418.203 190.565 412.744 192.495 408.934 191.245C408.726 191.176 408.537 191.062 408.338 190.969C404.964 192.008 400.843 191.714 397.572 190.548C395.824 191.266 392.55 189.836 390.546 189.713C389.37 190.042 388.356 190.004 387.155 189.968C385.436 189.916 380.3 189.984 379.129 188.736C380.467 188.037 381.863 188.262 383.321 188.326C382.926 187.662 382.645 186.949 382.334 186.242C382.334 185.29 382.394 184.737 382.831 183.864C384.872 179.779 392.489 177.093 396.607 175.713L395.205 174.379C390.22 176.138 386.367 177.609 382.904 181.835L382.079 180.166Z" fill="#040202"/>
<path d="M382.079 180.166C387.362 174.52 396.024 170.852 403.76 170.641C413.335 170.38 421.506 174.576 428.288 181.061C431.158 183.805 433.931 186.798 436.421 189.896C433.495 187.974 430.89 185.701 428.232 183.43C427.347 185.01 426.331 187.949 424.508 188.531C423.592 188.824 422.63 188.91 421.675 188.95C418.203 190.565 412.744 192.495 408.934 191.245C408.726 191.176 408.537 191.062 408.338 190.969C409.155 190.237 409.998 189.498 410.73 188.678C412.158 187.076 413.023 184.681 412.878 182.532C412.671 179.496 410.957 177.461 408.791 175.522C405.518 174.428 403.24 174.665 399.943 175.292C398.648 175.198 397.832 175.371 396.607 175.713L395.205 174.379C390.22 176.138 386.367 177.609 382.904 181.835L382.079 180.166Z" fill="url(#paint0_linear_144_231)"/>
<path d="M408.791 175.522C413.325 175.632 419.421 178.205 422.545 181.483C423.489 182.473 424.453 183.94 424.402 185.363C424.34 187.1 422.961 188.023 421.675 188.95C418.203 190.565 412.744 192.495 408.934 191.245C408.726 191.176 408.537 191.062 408.338 190.969C409.155 190.237 409.998 189.498 410.73 188.678C412.158 187.076 413.023 184.681 412.878 182.532C412.671 179.496 410.957 177.461 408.791 175.522Z" fill="white"/>
<path d="M395.205 174.379C406.566 173.481 417.146 173.48 426.223 181.491C426.916 182.113 427.587 182.759 428.232 183.43C427.347 185.01 426.331 187.949 424.508 188.531C423.592 188.824 422.63 188.91 421.675 188.95C422.961 188.023 424.34 187.1 424.402 185.363C424.453 183.94 423.489 182.473 422.545 181.483C419.421 178.205 413.325 175.632 408.791 175.522C405.518 174.428 403.24 174.665 399.943 175.292C398.648 175.198 397.832 175.371 396.607 175.713L395.205 174.379Z" fill="#EBB18C"/>
<path d="M396.607 175.713C397.832 175.371 398.648 175.198 399.943 175.292C397.418 176.949 395.452 178.739 394.746 181.801C394.197 184.18 394.785 186.829 396.193 188.805C396.622 189.409 397.094 189.984 397.572 190.548C395.824 191.266 392.55 189.836 390.546 189.713C389.37 190.042 388.356 190.004 387.155 189.968C385.436 189.916 380.3 189.984 379.129 188.736C380.467 188.037 381.863 188.262 383.321 188.326C382.926 187.662 382.645 186.949 382.334 186.242C382.334 185.29 382.394 184.737 382.831 183.864C384.872 179.779 392.489 177.093 396.607 175.713Z" fill="white"/>
<path d="M390.546 189.713C389.37 190.042 388.356 190.004 387.155 189.968C385.436 189.916 380.3 189.984 379.129 188.736C380.467 188.037 381.863 188.262 383.321 188.326C385.738 188.726 388.184 189.053 390.546 189.713Z" fill="#9A572F"/>
<path d="M401.902 176.045C403.141 175.988 404.352 175.946 405.571 176.222C407.598 176.681 409.313 177.748 410.415 179.538C411.363 181.079 411.622 182.811 411.176 184.564C410.495 187.246 408.681 188.782 406.392 190.125C405.02 190.227 403.223 190.507 401.88 190.193C399.983 189.748 398.304 188.636 397.243 186.98C396.237 185.409 395.964 183.572 396.446 181.772C397.251 178.773 399.308 177.426 401.902 176.045Z" fill="#466871"/>
<path d="M402.908 177.239C403.466 177.248 404.261 177.207 404.817 177.364C406.173 177.748 407.536 178.747 408.302 179.936C409.139 181.237 409.305 182.865 408.956 184.354C408.464 186.454 407.124 187.234 405.421 188.334C404.768 188.347 404.113 188.359 403.461 188.326C401.943 188.249 400.662 187.604 399.742 186.346C398.874 185.159 398.711 183.754 398.971 182.35C399.446 179.776 400.85 178.685 402.908 177.239Z" fill="#040202"/>
<path d="M403.232 286.176L403.365 286.275L403.283 286.861C401.357 288.007 399.242 289.481 397.039 289.971C396.819 290.019 396.596 290.055 396.375 290.1C389.491 291.486 381.867 291.132 374.838 291.634C366.708 292.215 358.474 293.558 350.325 293.547C341.808 293.536 333.139 292.135 324.64 291.455C318.627 290.974 312.268 291.248 306.361 289.982C304.583 289.602 303.1 288.691 301.567 287.75C301.151 287.172 301.348 287.532 301.089 286.618C303.652 285.642 316.46 288.789 320.076 289.308C329.098 290.605 338.774 291.568 347.884 291.795C358.526 292.061 371.538 290.826 382.102 289.323C389.148 288.321 396.148 286.879 403.232 286.176Z" fill="#040202"/>
<path d="M473.287 210.372C478.242 202.814 481.019 193.54 487.626 187.067C488.892 185.826 489.98 185.093 491.818 185.095C492.608 185.418 493.002 185.653 493.561 186.331C495.456 188.63 495.707 192.57 495.443 195.385C495.052 193.164 493.913 189.858 492.892 187.854C492.331 186.756 491.875 186.465 490.735 186.134C488.305 186.93 486.327 190.766 484.92 192.806C489.531 197.6 492.089 202.36 493.212 208.963L492.565 210.827L492.176 210.895C491.286 204.015 488.81 199.03 484.05 194.081C480 199.638 477.753 206.157 473.886 211.827C475.634 215.416 478.027 219.089 479.194 222.889C476.948 230.202 471.425 238.856 468.379 246.625L467.577 247.892C467.705 240.181 474.401 231.051 477.457 224.066L477.668 223.573C475.762 216.646 471.879 212.539 471.387 204.761L473.287 210.372Z" fill="#040202"/>
<path d="M208.52 190.29C208.845 188.596 208.935 187.093 210.203 185.842C211.489 185.308 212.22 185.01 213.596 185.651C218.676 188.02 227.432 203.547 229.137 209.237C229.298 209.778 229.427 210.32 229.546 210.871L229.23 210.95C225.45 205.916 223.047 199.787 219.592 194.483C215.522 199.306 212.924 203.38 211.381 209.57L210.349 208.961C211.192 202.525 214.562 198.082 218.918 193.599C217.737 191.799 216.172 188.742 214.404 187.54C213.253 186.756 212.97 186.824 211.662 186.987C210.24 187.977 209.922 189.815 209.425 191.397L208.52 190.29Z" fill="#040202"/>
<path d="M400.283 163.396C407.901 162.845 414.317 163.978 421.511 166.47C418.912 166.659 415.797 165.725 413.176 165.321C405.456 164.071 397.547 164.74 390.146 167.269C384.155 170.331 379.658 174.186 374.223 178.051C381.769 169.724 388.973 164.829 400.283 163.396Z" fill="#040202"/>
<path d="M293.782 163.38C296.981 163.013 300.496 163.127 303.699 163.433C314.255 164.438 323.021 169.048 329.742 177.296L323.532 172.72C323.268 172.516 323.001 172.316 322.731 172.12C310.402 163.23 297.505 164.024 283.153 166.349C286.624 164.915 290.077 163.961 293.782 163.38Z" fill="#040202"/>
<path d="M234.98 246.504C233.071 241.809 224.451 225.069 225.597 221.306C226.841 217.219 230.274 212.529 232.222 208.614C232.824 214.637 226.687 218.101 227.046 223.383C227.346 227.794 231.088 233.454 232.784 237.597C234.012 240.599 234.942 243.633 235.755 246.769L234.98 246.504Z" fill="#040202"/>
<path d="M366.572 163.478C366.699 166.108 364.623 173.672 364.112 176.846C363.028 183.568 362.613 190.174 362.631 196.968C362.849 201.823 363.103 207.272 362.37 212.077C361.646 209.536 361.33 205.627 361.331 202.945C361.054 189.639 361.609 175.998 366.572 163.478Z" fill="#040202"/>
<path d="M362.631 196.968C362.849 201.823 363.103 207.272 362.37 212.077C361.646 209.536 361.33 205.627 361.331 202.945L361.889 203.516C362.733 202.209 362.528 198.65 362.631 196.968Z" fill="#C3845D"/>
<path d="M338.318 162.457C342.643 172.016 343.542 184.566 344.093 194.999C344.874 199.644 344.475 204.367 343.907 209.014C343.756 207.337 343.462 205.545 343.573 203.865C342.704 198.556 342.65 192.951 342.144 187.576C341.377 179.133 340.099 170.745 338.318 162.457Z" fill="#040202"/>
<path d="M344.093 194.999C344.874 199.644 344.475 204.367 343.907 209.014C343.756 207.337 343.462 205.545 343.573 203.865C344.211 200.971 344.065 197.952 344.093 194.999Z" fill="#7C4F3D"/>
<path d="M372.135 308.839C373.011 308.686 374.006 308.763 374.899 308.749C367.703 312.699 345.637 311.525 337.553 310.399C335.931 310.126 334.4 309.663 332.827 309.191C337.865 308.981 343.071 309.794 348.132 309.967C356.177 310.241 364.14 309.661 372.135 308.839Z" fill="#040202"/>
<path d="M235.755 246.769C235.97 247.578 236.009 247.19 235.647 247.934C232.603 248.485 228.402 248.196 225.722 246.603C221.573 244.139 220.075 238.919 219.068 234.506C221.158 238.482 223.568 244.367 227.848 246.402C229.385 247.133 233.002 247.511 234.557 246.78C234.709 246.709 234.838 246.596 234.98 246.504L235.755 246.769Z" fill="#9A572F"/>
<path d="M286.752 204.367C286.993 204.355 287.234 204.345 287.475 204.329C291.416 204.085 307.152 199.504 309.194 200.548C302.898 202.452 296.523 204.645 289.865 204.743L286.752 204.367Z" fill="#5B2B17"/>
<path d="M291.027 268.083L291.285 269.414C288.194 274.048 283.784 280.579 283.292 286.206C283.204 287.21 282.895 287.177 282.164 287.818C281.413 282.549 288.136 272.243 291.027 268.083Z" fill="#3F2513"/>
<path d="M391.818 199.742C398.999 201.678 406.052 203.362 413.411 204.51C405.846 205.208 398.452 203.302 391.818 199.742Z" fill="#5B2B17"/>
<path d="M413.611 269.669C416.986 274.477 421.909 281.317 421.683 287.467C419.414 281.251 416.414 276.123 413.213 270.395L413.611 269.669Z" fill="#3F2513"/>
<path d="M468.379 246.625C469.752 247.748 471.025 247.425 472.733 247.211C476.252 246.769 479.157 243.923 481.109 241.171C481.748 240.27 482.414 239.392 483.082 238.511C481.66 241.803 480.489 245.347 476.936 246.871C474.067 248.102 470.635 247.769 467.577 247.892L468.379 246.625Z" fill="#71411E"/>
<path d="M210.349 208.961L211.381 209.57C211.146 214.639 211.103 219.693 210.705 224.756C209.893 219.653 209.667 214.087 210.349 208.961Z" fill="#71411E"/>
<path d="M291.027 268.083C292.486 266.126 294.143 264.558 295.927 262.913L296.494 263.124C295.524 265.441 292.934 267.487 291.285 269.414L291.027 268.083Z" fill="#EBB18C"/>
<path d="M382.079 180.166L382.904 181.835C381.893 184.056 380.008 186.114 378.536 188.064C379.507 185.192 380.438 182.735 382.079 180.166Z" fill="#3F2513"/>
<path d="M493.212 208.963C493.44 212.117 493.494 215.25 493.512 218.411L492.449 215.832C492.582 214.232 492.301 212.498 492.176 210.895L492.565 210.827L493.212 208.963Z" fill="#5B2B17"/>
<path d="M492.449 215.832L493.512 218.411C493.548 220.484 493.555 222.443 493.228 224.502C491.911 222.633 492.429 218.056 492.449 215.832Z" fill="#EBB18C"/>
<path d="M208.52 190.29L209.425 191.397C208.684 193.899 208.032 196.401 206.838 198.732C207.276 195.869 207.808 193.098 208.52 190.29Z" fill="#5B2B17"/>
<path d="M413.213 270.395C411.297 267.877 409.324 265.392 407.63 262.715C409.982 264.357 411.997 267.314 413.611 269.669L413.213 270.395Z" fill="#B57F4D"/>
<path d="M289.865 204.743C287.873 205.287 285.906 205.244 283.935 204.678C285.092 204.191 285.521 204.303 286.752 204.367L289.865 204.743Z" fill="#EBB18C"/>
<path d="M241.601 201.637C241.066 201.398 240.643 201.223 240.207 200.818C223.618 185.43 215.224 145.661 215.558 123.7C216.308 90.1754 230.261 58.3033 254.378 35.0245C259.257 30.3427 264.783 26.878 270.577 23.4713C296.159 8.42951 326.171 1.96866 355.691 2.82417C378.934 3.49773 413.45 9.91199 429.798 27.3706C435.541 33.503 437.555 39.3061 437.295 47.7115L438.581 48.4223C437.436 53.4939 436.352 58.5795 435.329 63.677C439.848 67.1164 444.905 70.3388 448.648 74.6523C455.776 82.8674 464.023 103.84 467.131 114.462C461.565 103.655 455.179 83.8473 447.115 75.7908C436.542 61.9833 419.467 57.585 403.111 55.4583C392.506 54.08 382.182 55.0372 371.592 55.6032C364.605 55.977 357.54 56.049 350.542 56.0435C339.946 56.0362 329.579 54.0217 319.049 53.2696C304.575 52.2362 280.627 52.8765 268.898 62.0827C261.106 68.1993 254.129 78.1418 249.062 86.5802C249.244 89.7215 249.414 95.1708 248.13 98.0514C247.598 102.318 246.381 106.302 244.98 110.352C244.96 110.947 244.994 111.47 244.789 112.035L244.721 112.508C246.466 116.791 246.511 125.004 245.788 129.676C245.104 137.431 244.748 145.238 244.024 152.978C243.556 157.983 242.436 162.917 242.102 167.94C241.481 177.331 241.474 186.949 241.478 196.361C241.62 198.137 241.663 199.856 241.601 201.637Z" fill="#B57F4D"/>
<path d="M425.678 58.7673C424.299 51.8746 422.412 44.9955 419.475 38.5867C417.832 35.0016 414.872 31.6244 414.05 27.745C414.217 27.869 414.417 27.9569 414.549 28.117C420.729 35.6181 425.737 49.4281 426.593 59.0854C429.14 60.7417 431.826 62.2267 434.442 63.7709C434.781 58.4455 436.098 52.9039 437.295 47.7115L438.581 48.4223C437.436 53.4939 436.352 58.5795 435.329 63.677C439.848 67.1164 444.905 70.3388 448.648 74.6523C455.776 82.8674 464.023 103.84 467.131 114.462C461.565 103.655 455.179 83.8473 447.115 75.7908C436.542 61.9833 419.467 57.585 403.111 55.4583C392.506 54.08 382.182 55.0372 371.592 55.6032C364.605 55.977 357.54 56.049 350.542 56.0435C339.946 56.0362 329.579 54.0217 319.049 53.2696C304.575 52.2362 280.627 52.8765 268.898 62.0827C261.106 68.1993 254.129 78.1418 249.062 86.5802C244.471 92.3513 239.16 99.952 235.045 106.089C233.481 108.42 232.337 111.85 230.451 113.775L230.081 113.211L230.393 113.78C230.395 113.589 230.408 112.242 230.432 112.069C230.924 108.494 246.742 88.2082 249.698 83.9193C252.308 80.1308 254.531 76.0196 257.38 72.408C260.501 68.4545 264.046 64.2768 268.087 61.2285C282.307 50.5008 307.366 50.8249 324.442 52.3629C333.431 53.1721 342.31 54.8056 351.355 54.8047C357.184 54.8038 363.098 54.905 368.912 54.5157C375.935 54.0453 382.872 52.9934 389.933 53.0107C395.661 53.0253 401.249 53.7035 406.908 54.4938L407.887 54.6953C413.855 55.8812 419.788 57.2395 425.678 58.7673Z" fill="#20130A"/>
<path d="M241.478 196.361C239.657 191.545 240.249 171.96 240.837 166.395C241.402 161.06 242.636 155.803 243.074 150.452C243.564 144.481 243.269 133.462 245.269 128.208L245.788 129.676C245.104 137.431 244.748 145.238 244.024 152.978C243.556 157.983 242.436 162.917 242.102 167.94C241.481 177.331 241.474 186.949 241.478 196.361Z" fill="#3F2513"/>
<path d="M406.908 54.4938L406.638 53.8848C403.163 46.1684 397.507 38.6011 392.109 32.1063C391.111 30.905 389.18 29.3467 388.783 27.855L389.298 27.7249C397.337 34.9275 403.463 44.9573 407.887 54.6953L406.908 54.4938Z" fill="#71411E"/>
<path d="M237.202 131.71C238.557 125.033 241.464 117.893 244.12 111.604L244.789 112.035L244.721 112.508C242.416 119.145 240.586 125.486 237.202 131.71Z" fill="#3F2513"/>
<path d="M244.98 110.352L244.461 109.216C245.027 105.559 246.016 101.446 247.32 97.9838L248.13 98.0514C247.598 102.318 246.381 106.302 244.98 110.352Z" fill="#71411E"/>
<path d="M296.37 30.3537C300.984 29.7124 306.186 30.6658 310.681 31.651C329.113 35.691 340.947 43.246 356.985 52.1611C353.929 52.3398 352.305 50.9449 349.887 49.3382C344.255 47.0848 338.909 43.2651 333.44 40.5552C317.231 32.5239 301.713 31.4788 284.067 32.4994C288.205 31.3565 292.088 30.69 296.37 30.3537Z" fill="#3F2513"/>
<path d="M351.316 25.8222C365.37 30.2072 380.794 39.1329 390.137 50.668L390.378 50.9711C378.314 41.6949 366.439 31.1697 351.27 27.2775C350.928 26.6726 351.153 26.472 351.316 25.8222Z" fill="#3F2513"/>
<path d="M271.882 54.0836C272.423 53.9332 272.755 53.9578 273.308 53.9906C271.102 55.9177 254.053 57.8913 248.883 60.0179C246.554 60.9751 244.666 62.3352 242.683 63.8456L242.373 64.0471L241.917 63.7271C242.251 63.151 242.24 63.1209 242.73 62.5393C246.983 57.4902 265.492 54.6096 271.882 54.0836Z" fill="#71411E"/>
<path d="M250.057 77.9339L250.475 78.6185C245.052 85.4698 237.867 90.8098 232.424 97.7897L231.904 97.2336C232.713 93.5272 246.331 81.4844 250.057 77.9339Z" fill="#71411E"/>
<path d="M279.245 38.1255C287.949 39.8224 297.044 41.9506 305.228 45.411C296.526 43.7478 288.048 41.0144 279.36 39.4285L279.245 38.1255Z" fill="#3F2513"/>
<path d="M347.423 25.1252C348.608 25.2603 350.296 25.2513 351.316 25.8222C351.153 26.472 350.928 26.6726 351.27 27.2775C349.326 27.5387 340.839 26.8826 338.793 26.389C339.612 25.515 340.612 25.5156 341.733 25.3567C343.634 25.901 345.538 25.5738 347.423 25.1252Z" fill="#9A572F"/>
<path d="M262.702 63.439L263.083 63.5393C262.774 65.0971 249.106 69.6632 246.814 71.2174L246.128 71.0114C248.141 68.5 259.326 64.5374 262.702 63.439Z" fill="#71411E"/>
<path d="M279.36 39.4285C276.058 39.5724 272.752 39.8218 269.459 39.4394C271.894 38.7869 276.817 37.1494 279.245 38.1255L279.36 39.4285Z" fill="#9A572F"/>
<path d="M325.331 22.6846C325.769 22.7691 326.553 22.9069 326.953 23.0484C328.264 23.5114 328.328 24.0331 328.889 25.2195C328.761 26.3484 328.937 26.3677 328.095 27.2349L326.801 27.1113L326.179 26.7695C326.922 26.4941 327.196 26.4956 327.722 25.876L327.16 25.1435C326.163 24.8714 325.767 24.8396 325.019 24.0876L325.331 22.6846Z" fill="#C3845D"/>
<path d="M259.517 324.212C269.466 337.637 283.461 348.754 295.984 359.775C312.914 374.674 333.882 382.291 356.556 380.748C371.927 379.703 388.1 374.839 400.532 365.542C406.675 360.949 412.122 355.481 417.807 350.346C423.235 345.441 428.947 340.803 434.104 335.61C438.141 331.545 441.634 327.144 445.396 322.85C444.44 329.094 443.979 335.409 443.415 341.698C441.091 343.285 439.505 344.925 437.775 347.13C432.053 354.425 426.185 360.881 419.529 367.348C414.33 372.4 408.068 377.526 403.824 383.398C402.23 385.604 401.842 388.744 400.664 391.199L399.963 390.644L401.443 385.77C397.085 388.069 392.981 390.815 388.609 393.093C378.64 398.289 365.63 403.281 354.244 403.446C338.338 403.677 324.108 397.122 311.207 388.324C307.715 385.943 304.273 383.642 301.232 380.687C302.326 383.849 303.56 387.03 304.318 390.29L303.702 390.657C302.06 387.457 301.805 383.606 299.956 380.556C296.915 375.539 277.506 364.382 271.158 358.192C268.392 355.495 265.18 349.236 261.513 348.353C260.526 340.364 260.537 332.244 259.517 324.212Z" fill="#EBB18C"/>
<path d="M438.581 48.4223C445.285 47.1428 450.823 47.2827 456.747 51.1924C471.993 61.2558 480.103 86.1234 483.209 103.092C486.511 121.132 485.263 139.407 482.17 157.367C481.319 162.306 480.588 167.334 478.803 172.04C476.032 179.341 470.995 185.806 467.708 192.964L468.142 194.079L464.433 199.649C463.707 200.804 462.991 201.788 462.061 202.787L461.755 202.283C460.121 200.136 461.079 191.784 460.991 188.744C460.9 178.194 462.657 167.652 462.2 157.068C461.848 148.882 459.191 140.887 459.323 132.686C459.124 131.204 459.508 129.491 459.696 128.001C458.041 123.559 457.737 120.809 458.384 116.107L457.162 108.704C455.683 100.851 453.013 93.0377 451.376 85.1445C449.57 82.861 448.297 78.5301 447.115 75.7908C455.179 83.8473 461.565 103.655 467.131 114.462C464.023 103.84 455.776 82.8674 448.648 74.6523C444.905 70.3388 439.848 67.1164 435.329 63.677C436.352 58.5795 437.436 53.4939 438.581 48.4223Z" fill="#B57F4D"/>
<path d="M459.323 132.686L459.901 132.674C461.513 140.405 463.087 148.774 463.428 156.644C463.849 166.369 462.896 176.369 462.428 186.091C462.173 191.389 462.377 197.043 461.755 202.283C460.121 200.136 461.079 191.784 460.991 188.744C460.9 178.194 462.657 167.652 462.2 157.068C461.848 148.882 459.191 140.887 459.323 132.686Z" fill="#20130A"/>
<path d="M451.376 85.1445C455.153 90.1034 455.4 100.139 458.138 106.296C460.023 110.534 462.936 113.875 465.897 117.379L465.021 117.805C462.418 114.758 459.798 111.724 457.162 108.704C455.683 100.851 453.013 93.0377 451.376 85.1445Z" fill="#3F2513"/>
<path d="M458.384 116.107C459.797 119.614 458.747 122.265 460.711 126.325C461.072 127.069 462.415 129.146 462.249 129.88C461.396 129.273 460.479 128.696 459.696 128.001C458.041 123.559 457.737 120.809 458.384 116.107Z" fill="#71411E"/>
<path d="M465.897 117.379C467.061 118.518 468.583 119.704 469.097 121.274C467.891 121.191 467.127 120.264 466.35 119.383C465.9 118.862 465.457 118.336 465.021 117.805L465.897 117.379Z" fill="#9A572F"/>
<path d="M467.708 192.964L468.142 194.079L464.433 199.649C464.644 197.332 466.489 194.932 467.708 192.964Z" fill="#3F2513"/>
<path d="M440.917 58.6214C442.947 58.4919 444.702 58.5448 446.679 59.0598C451.799 60.3953 459.351 63.2257 462.09 67.9713L461.901 68.2247L461.29 67.4663C456.427 64.2239 449.878 60.3552 444.068 59.2467C442.218 58.8939 439.721 59.3378 437.828 59.4773C438.314 58.9176 440.14 58.7854 440.917 58.6214Z" fill="#3F2513"/>
<path d="M439.022 52.7454C440.138 52.6597 441.256 52.6045 442.376 52.5797C447.919 52.5006 453.695 56.038 457.566 59.7627C452.917 58.7517 448.378 54.0809 441.909 53.317C441.116 53.224 440.388 53.1629 439.62 52.9333C439.419 52.8735 439.221 52.808 439.022 52.7454Z" fill="#3F2513"/>
<path d="M449.06 74.3506C452.058 74.6687 456.905 75.9458 459.167 77.9567C455.722 76.9622 451.891 76.7115 449.06 74.3506Z" fill="#71411E"/>
<path d="M242.022 269.978L242.932 270.478C243.022 272.11 243.07 273.757 243.298 275.375L242.818 275.682C241.674 275.509 240.527 275.735 239.337 275.55L239.278 274.995C240.443 273.519 241.217 272.26 241.85 270.478C241.909 270.312 241.965 270.145 242.022 269.978Z" fill="white"/>
<path d="M115.155 573.109L116.158 571.238C121.823 601.973 137.149 635.822 163.472 654.058C173.861 661.256 192.199 670.224 205.133 670.154L205.161 671.039C184.516 670.188 161.792 659.383 147.836 644.216C143.442 639.442 139.619 634.392 136.305 628.814C136.679 639.799 136.857 650.791 136.838 661.783C136.704 684.883 136.137 707.664 140.074 730.552C142.947 747.257 148.013 763.893 153.522 779.895C156.363 788.149 160.065 796.387 162.039 804.889C164.113 813.82 165.637 837.103 163.236 845.715C161.14 843.66 161.112 813.905 160.011 807.272C158.972 801.021 156.297 794.947 154.099 789.039C151.684 782.63 149.412 776.168 147.287 769.657C139.277 744.87 136.421 726.61 133.703 700.957C132.077 713.365 129.307 725.43 126.52 737.619C124.53 746.327 122.668 755.109 120.31 763.725C116.904 776.183 113.048 788.429 110.035 801.008C108.294 808.178 106.945 815.437 105.993 822.754C105.516 826.316 105.428 830.058 104.714 833.567L103.56 834.105C101.189 827.439 106.852 804.553 108.626 797.16C106.049 801.21 104.287 806.149 102.174 810.492L101.575 810.25C104.666 803.689 106.969 796.47 109.348 789.619C120.933 756.238 130.424 715.989 133.461 680.837C134.386 670.123 134.108 659.299 134.09 648.557C134.08 642.153 135.05 633.433 133.828 627.259C132.857 622.35 129.185 617.999 127.093 613.498C121.314 601.063 116.718 586.795 115.155 573.109Z" fill="#040202"/>
<path d="M589.196 569.43L590.209 571.13C588.43 585.39 584.659 599.329 579.005 612.539C576.971 617.264 572.964 622.169 572.003 627.156C570.665 634.104 571.625 643.176 571.606 650.418C571.578 661.307 571.562 672.254 572.46 683.114C574.099 702.942 578.015 722.259 582.646 741.569C587.106 760.162 592.013 778.019 598.394 796.047L596.638 796.451C598.476 804.433 603.971 826.926 601.938 834.362C599.654 831.618 597.388 809.61 596.197 804.401C592.95 790.212 588.703 776.456 584.98 762.416C579.815 742.939 575.347 722.928 572.01 703.059C570.964 709.538 570.779 716.128 569.789 722.632C567.598 737.013 563.933 751.192 559.692 765.094C557.123 773.515 553.985 781.855 550.944 790.12C549.082 795.183 546.976 800.176 545.823 805.465C543.004 818.396 545.551 834.139 542.729 845.573C542.598 845.434 542.446 845.312 542.338 845.155C540.77 842.899 541.168 836.332 541.181 833.604C541.22 824.534 541.242 814.479 543.124 805.584C544.409 799.512 546.975 793.746 549.065 787.921C552.22 779.142 555.194 770.297 557.985 761.395C565.324 737.311 569.613 713.175 569.467 687.944C569.383 673.54 568.929 659.278 569.248 644.864C569.361 639.784 569.209 634.617 569.796 629.566L569.876 628.9C565.642 635.382 560.67 641.723 555.072 647.067C540.39 661.082 518.901 671.145 498.306 670.719C502.333 669.069 507.627 668.992 511.914 668.062C524.392 665.357 536.488 658.915 546.462 651.04C566.234 635.427 577.748 612.585 584.727 588.851C586.602 582.476 588.422 576.046 589.196 569.43Z" fill="#040202"/>
<path d="M397.293 398.212L397.944 399.157C394.228 410.453 389.882 421.398 385.874 432.571L385.177 431.943C389.943 421.164 393.401 409.355 397.293 398.212Z" fill="#20130A"/>
<path d="M306.772 397.065C310.385 407.178 314.644 417.196 317.87 427.427L317.005 427.741C314.046 417.853 309.611 407.945 306.02 398.23L306.772 397.065Z" fill="#20130A"/>
<path d="M352.73 837.679L353.532 844.847C353.581 850.102 353.787 855.44 353.545 860.686L352.61 860.781C352.238 853.058 352.491 845.401 352.73 837.679Z" fill="#3F2513"/>
<path d="M38.0477 609.869L39.1025 609.271L39.9714 609.784C41.3923 615.486 42.9871 621.291 43.9417 627.088C41.609 621.508 40.5042 615.298 38.0477 609.869Z" fill="#040202"/>
<path d="M666.194 608.663L667.977 609.062C665.305 614.367 664.3 620.827 661.793 626.362C662.995 620.424 664.683 614.533 666.194 608.663Z" fill="#20130A"/>
<path d="M596.638 796.451L598.394 796.047C599.945 800.139 601.949 807.529 604.328 810.922L603.618 811.387C601.473 806.504 599.56 800.891 596.638 796.451Z" fill="#040202"/>
<path d="M352.73 837.679C352.692 837.44 352.651 837.203 352.616 836.964C352.193 833.996 352.685 830.332 352.94 827.332L353.379 827.463C353.854 832.944 354.154 839.393 353.532 844.847L352.73 837.679Z" fill="#EBB18C"/>
<path d="M102.174 810.492C101.347 814.233 98.1754 819.765 95.7316 822.755C97.4986 818.757 99.13 813.828 101.575 810.25L102.174 810.492Z" fill="#EBB18C"/>
<path d="M604.328 810.922C605.864 814.104 607.637 817.265 608.739 820.627C606.642 818.65 604.408 814.147 603.618 811.387L604.328 810.922Z" fill="#EBB18C"/>
<path d="M115.155 573.109C114.599 569.503 114.963 565.519 115.262 561.893C116.02 564.838 115.97 568.199 116.158 571.238L115.155 573.109Z" fill="#20130A"/>
<path d="M385.874 432.571C385.076 435.792 383.645 438.819 382.33 441.853C382.558 438.544 384.044 435.037 385.177 431.943L385.874 432.571Z" fill="#C3845D"/>
<path d="M317.87 427.427C318.964 430.126 320.401 433.151 320.364 436.088C318.881 433.584 318.008 430.479 317.005 427.741L317.87 427.427Z" fill="#5B2B17"/>
<path d="M149.85 433.41C149.44 432.344 149.546 432.884 149.502 431.797C151.59 432.092 154.173 431.977 156.103 432.759L156.186 432.874C154.071 433.115 151.979 433.325 149.85 433.41Z" fill="#20130A"/>
<path d="M547.016 432.383C544.895 432.267 542.473 432.211 540.427 431.653C540.19 431.588 539.954 431.515 539.718 431.447L540.151 431.768L540.779 430.85C543.053 430.904 545.4 430.967 547.6 431.581L547.016 432.383Z" fill="#EBB18C"/>
<path d="M399.963 390.644L400.664 391.199C399.684 393.828 398.817 396.491 397.944 399.157L397.293 398.212C397.978 395.668 399.063 393.127 399.963 390.644Z" fill="#9A572F"/>
<path d="M589.196 569.43C589.383 566.598 589.591 563.768 589.817 560.939C590.188 564.2 590.829 567.87 590.209 571.13L589.196 569.43Z" fill="#3F2513"/>
<path d="M205.133 670.154C206.77 670.063 209.725 669.592 211.065 670.59C209.177 671.295 207.147 671.073 205.161 671.039L205.133 670.154Z" fill="#C3845D"/>
<path d="M304.318 390.29L306.772 397.065L306.02 398.23C305.353 395.661 304.552 393.17 303.702 390.657L304.318 390.29Z" fill="#7C4F3D"/>
<path d="M498.13 628.442C500.246 626.785 503.369 625.455 506.114 625.704C507.932 625.869 509.56 626.905 510.659 628.335C512.493 630.72 513.109 634.058 512.625 636.99C512.239 639.325 511.094 641.626 509.062 642.94C506.977 644.29 504.229 644.152 501.9 643.615C501.049 643.419 500.275 643.126 499.521 642.69C497.941 641.142 496.421 639.477 495.922 637.262C495.201 634.058 496.515 631.144 498.13 628.442Z" fill="#F8C6A6"/>
<path d="M498.13 628.442C500.246 626.785 503.369 625.455 506.114 625.704C507.932 625.869 509.56 626.905 510.659 628.335C512.493 630.72 513.109 634.058 512.625 636.99C512.239 639.325 511.094 641.626 509.062 642.94C506.977 644.29 504.229 644.152 501.9 643.615C501.049 643.419 500.275 643.126 499.521 642.69L500.287 642.194C500.555 642.282 500.821 642.376 501.092 642.459C503.311 643.141 506.427 643.269 508.503 642.066C510.064 641.162 511.074 639.592 511.523 637.869C512.186 635.322 511.819 632.414 510.426 630.169C509.452 628.6 507.989 627.362 506.147 627.002C503.709 626.525 500.737 627.548 498.734 628.895L498.13 628.442Z" fill="#5B2B17"/>
<path d="M499.521 642.69C497.941 641.142 496.421 639.477 495.922 637.262C495.201 634.058 496.515 631.144 498.13 628.442L498.734 628.895C497.386 631.781 495.852 634.78 497.077 638.001C497.688 639.609 499.068 641.011 500.287 642.194L499.521 642.69Z" fill="#9A572F"/>
<path d="M193.292 633.174C194.031 630.603 195.099 627.996 197.536 626.605C199.4 625.54 201.574 625.437 203.602 626.065C206.17 626.87 208.292 628.699 209.469 631.12C210.489 633.248 210.65 636.159 209.674 638.34C209.283 639.21 208.609 639.902 207.979 640.599C206.797 641.673 205.469 642.608 204.196 643.572C202.068 643.683 199.922 643.635 197.79 643.645C196.542 642.693 195.372 641.61 194.425 640.351C192.752 638.128 192.923 635.786 193.292 633.174Z" fill="#F8C6A6"/>
<path d="M193.292 633.174C194.031 630.603 195.099 627.996 197.536 626.605C199.4 625.54 201.574 625.437 203.602 626.065C206.17 626.87 208.292 628.699 209.469 631.12C210.489 633.248 210.65 636.159 209.674 638.34C209.283 639.21 208.609 639.902 207.979 640.599L207.528 639.888C208.248 639.029 208.942 638.206 209.287 637.115C209.827 635.407 209.41 633.049 208.627 631.48C207.526 629.301 205.595 627.659 203.269 626.921C201.513 626.373 199.607 626.45 197.968 627.327C195.713 628.534 194.948 630.973 194.204 633.248L193.292 633.174Z" fill="#9A572F"/>
<path d="M194.204 633.248C193.942 635.789 194.097 637.99 195.768 640.054C197.102 641.702 198.993 642.614 201.104 642.705C203.784 642.82 205.66 641.669 207.528 639.888L207.979 640.599C206.797 641.673 205.469 642.608 204.196 643.572C202.068 643.683 199.922 643.635 197.79 643.645C196.542 642.693 195.372 641.61 194.425 640.351C192.752 638.128 192.923 635.786 193.292 633.174L194.204 633.248Z" fill="#040202"/>
<path d="M374.493 474.14C378.954 469.247 383.675 463.598 389.739 460.684C406.966 452.405 432.641 452.976 451.709 450.637C466.623 448.81 481.363 446.419 496.15 443.762L495.691 444.915C481.014 447.638 466.62 450.81 451.801 452.785C433.051 455.284 409.213 454.842 391.853 461.74C385.494 464.267 379.903 469.462 375.485 474.552L374.493 474.14Z" fill="#040202"/>
<path d="M208.036 445.93C216.74 446.701 225.355 448.633 234.03 449.695C248.638 451.482 263.252 452.454 277.91 453.604C290.546 454.594 307.803 455.641 318.378 463.186C323.554 466.88 327.584 471.736 331.685 476.533C329.674 475.686 328.162 473.888 326.604 472.408C321.617 467.675 317.032 463.31 310.345 461.156C295.566 456.395 279.675 456.238 264.334 454.941C251.486 453.855 238.522 452.275 225.826 450.022C220.12 449.009 213.368 448.205 208.036 445.93Z" fill="#040202"/>
<path d="M379.707 698.464C403.02 708.196 426.322 729.382 440.374 750.261C444.525 756.43 447.384 763.23 451.313 769.426L450.096 768.94C448.794 765.442 446.291 761.963 444.273 758.817C434.528 743.634 422.293 728.546 407.973 717.403C399.013 710.431 388.98 704.975 379.707 698.464Z" fill="#040202"/>
<path d="M324.432 698.911C324.523 699.546 323.71 699.816 323.208 700.163C315.515 705.497 307.391 710.306 299.933 715.966C282.59 729.128 267.715 749.326 256.601 767.798L256.44 767.745L256.223 767.201C262.939 750.38 283.334 727.93 297.276 716.363C305.136 709.841 315.15 703.201 324.432 698.911Z" fill="#040202"/>
<path d="M352.698 527.125L353.602 529.87L353.56 583.279C353.565 592.596 353.324 602.001 353.613 611.306L352.715 611.157C352.51 598.843 352 586.483 352.024 574.173C352.055 558.498 352.614 542.809 352.698 527.125Z" fill="#040202"/>
<path d="M352.628 731.822L353.633 733.094C353.443 752.761 353.104 772.595 353.611 792.249L352.715 792.612C352.625 780.368 351.912 768.11 351.909 755.87C351.907 747.865 352.468 739.831 352.628 731.822Z" fill="#040202"/>
<path d="M427.842 666.096C410.484 661.73 391.862 656.487 378.289 644.187C393.482 653.599 410.275 661.337 427.774 665.307L427.842 666.096Z" fill="#040202"/>
<path d="M549.842 722.985L550.082 723.35C549.754 727.122 548.553 731.303 547.37 734.913C543.367 747.134 534.098 761.712 522.332 767.704L522.056 767.658L522.046 767.153C537.833 756.506 544.572 740.614 549.842 722.985Z" fill="#9A572F"/>
<path d="M324.359 646.415L324.474 646.487L324.507 646.903C311.445 656.83 293.882 663.414 277.729 666.245L277.658 666.24L277.629 665.978C294.775 660.352 308.682 655.754 324.359 646.415Z" fill="#040202"/>
<path d="M157.451 727.827C160.411 740.334 167.996 754.074 177.599 762.694L176.983 763.03C165.507 752.791 161.426 742.984 156.623 728.736L157.451 727.827Z" fill="#71411E"/>
<path d="M519.66 472.56C524.381 481.507 529.51 489.958 535.965 497.779L535.165 497.953C528.382 490.941 523.659 482.437 519.299 473.79L519.66 472.56Z" fill="#20130A"/>
<path d="M258.986 849.229C257.392 840.363 256.088 830.323 256.74 821.321C258.198 830.758 258.54 840.371 259.996 849.795L258.986 849.229Z" fill="#040202"/>
<path d="M173.774 493.868C179.271 487.093 183.64 479.677 188.093 472.197C188.437 473.183 187.031 475.53 186.542 476.539C183.496 482.824 179.192 488.864 174.688 494.19L173.774 493.868Z" fill="#20130A"/>
<path d="M448.253 827.914L449.403 826.668C448.945 834.895 448.391 843.156 446.323 851.165C445.597 843.536 448.39 835.589 448.253 827.914Z" fill="#040202"/>
<path d="M558.641 685.165L559.179 686.195C555.324 693.197 551.117 698.28 544.961 703.372L544.281 702.839C550.44 697.768 554.554 691.923 558.641 685.165Z" fill="#20130A"/>
<path d="M149.599 686.983C153.365 693.174 158.094 699.593 164.259 703.592L163.67 703.844C157.24 700.014 153.45 695.285 149.581 688.983L149.599 686.983Z" fill="#3F2513"/>
<path d="M174.688 494.19C170.742 499.269 165.551 503.765 160.536 507.753L159.931 507.845L159.333 508.559L159.336 508.269L159.645 508.224C159.925 507.368 171.947 495.522 173.774 493.868L174.688 494.19Z" fill="#EBB18C"/>
<path d="M256.613 771.566C253.579 775.984 250.369 779.802 246.249 783.263C244.435 784.788 242.334 786.142 240.624 787.76L239.922 787.054C246.167 782.533 251.276 777.09 256.613 771.566Z" fill="#3F2513"/>
<path d="M149.581 688.983C149.501 688.878 149.416 688.777 149.34 688.669C147.466 685.999 142.453 674.593 143.002 671.579C144.992 676.492 146.676 681.463 149.161 686.164L149.599 686.983L149.581 688.983Z" fill="#9A572F"/>
<path d="M558.641 685.165C560.389 681.316 561.618 677.123 563.431 673.365L563.862 673.743L563.761 673.357L563.678 673.935C563.042 678.067 561.375 682.64 559.179 686.195L558.641 685.165Z" fill="#9A572F"/>
<path d="M156.623 728.736C155.814 724.979 155.191 721.273 155.371 717.413C156.114 720.874 156.807 724.345 157.451 727.827L156.623 728.736Z" fill="#EBB18C"/>
<path d="M535.965 497.779C538.295 499.528 541.75 502.997 543.128 505.517C540.17 503.263 537.704 500.653 535.165 497.953L535.965 497.779Z" fill="#C3845D"/>
<path d="M450.096 768.94L451.313 769.426C451.675 770.024 451.932 770.933 451.831 771.644C451.727 772.372 451.57 772.397 451.114 772.816L450.031 772.465C449.246 771.505 449.245 771.266 449.078 770.02L450.096 768.94Z" fill="#F5CAA5"/>
<path d="M352.628 731.822C352.665 728.782 352.6 725.728 353.134 722.724C353.727 726.057 353.739 729.709 353.633 733.094L352.628 731.822Z" fill="#7C4F3D"/>
<path d="M352.698 527.125C352.661 524.369 352.721 521.736 353.038 518.994C353.695 522.511 353.688 526.297 353.602 529.87L352.698 527.125Z" fill="#B57F4D"/>
<path d="M448.253 827.914C448.587 824.787 448.996 821.706 449.533 818.607C449.647 821.309 449.932 823.997 449.403 826.668L448.253 827.914Z" fill="#B57F4D"/>
<path d="M164.259 703.592C165.957 704.539 168.823 705.677 169.745 707.402C167.381 707.004 165.357 705.478 163.67 703.844L164.259 703.592Z" fill="#EBB18C"/>
<path d="M544.961 703.372C543.519 704.521 541.523 706.405 539.634 706.505C540.288 704.948 542.881 703.725 544.281 702.839L544.961 703.372Z" fill="#C3845D"/>
<path d="M239.922 787.054L240.624 787.76L240.087 788.114C238.834 788.936 236.847 790.486 235.293 790.157C236.652 788.799 238.26 787.983 239.922 787.054Z" fill="#EBB18C"/>
<path d="M370.367 478.512C371.882 477.345 373.199 475.564 374.493 474.14L375.485 474.552C373.606 476.469 371.733 478.376 369.752 480.191L370.367 478.512Z" fill="#7C4F3D"/>
<path d="M427.774 665.307C429.714 665.605 432.191 665.737 433.804 666.886C432.953 667.435 431.99 667.133 431.01 666.942C429.98 666.741 428.813 666.497 427.842 666.096L427.774 665.307Z" fill="#EBB18C"/>
<path d="M496.15 443.762C498.745 443.442 501.339 443.067 503.957 443.039C501.216 443.763 498.503 444.514 495.691 444.915L496.15 443.762Z" fill="#7C4F3D"/>
<path d="M352.715 611.157L353.613 611.306C353.605 612.8 353.847 614.852 353.113 616.157C352.46 614.63 352.683 612.797 352.715 611.157Z" fill="#B57F4D"/>
<path d="M258.986 849.229L259.996 849.795C260.626 852.117 260.856 854.773 261.252 857.16C260.283 854.513 259.404 852.031 258.986 849.229Z" fill="#C3845D"/>
<path d="M353.611 792.249L353.592 797.671L352.728 797.33L352.715 792.612L353.611 792.249Z" fill="#7C4F3D"/>
<path d="M369.752 480.191C369.01 481.042 368.53 481.674 367.474 482.138L367.468 481.424C368.322 480.179 369.17 479.422 370.367 478.512L369.752 480.191Z" fill="#EBB18C"/>
<path d="M176.983 763.03L177.599 762.694C178.728 763.399 180.681 764.552 181.106 765.815C179.44 765.325 178.274 764.138 176.983 763.03Z" fill="#C3845D"/>
<path d="M169.745 707.402C171.657 707.802 173.124 708.477 174.524 709.878C172.8 709.382 170.716 709.074 169.745 707.402Z" fill="#EBB18C"/>
<path d="M519.299 473.79C518.523 472.205 517.699 470.746 517.536 468.957C518.619 469.774 519.095 471.329 519.66 472.56L519.299 473.79Z" fill="#B57F4D"/>
<path d="M352.728 797.33L353.592 797.671C353.621 798.954 353.718 800.062 353.191 801.267C352.463 800.151 352.713 798.618 352.728 797.33Z" fill="#EBB18C"/>
<defs>
<linearGradient id="paint0_linear_144_231" x1="376.229" y1="51.3368" x2="31.2046" y2="450.543" gradientUnits="userSpaceOnUse">
<stop/>
<stop offset="1" stop-color="#2E1F15"/>
</linearGradient>
</defs>
</svg>
