<svg width="704" height="834" viewBox="0 0 704 834" fill="none" xmlns="http://www.w3.org/2000/svg">
<path d="M345.014 314.35C340.168 310.442 321.436 301.737 315.326 299.035C292.083 288.756 272.138 278.941 253.237 261.667C222.45 233.529 211.929 205.467 210.394 164.753C208.707 120.044 224.66 90.6419 254.126 58.1735C280.792 28.8024 317.436 2.5568 358.187 0.119421C378.018 -1.0667 406.611 6.39136 405.344 31.0959C405.232 33.2833 411.912 35.3532 413.86 36.1049C429.832 42.2675 444.19 51.265 458.381 60.6963C469.078 67.6637 480.082 73.69 483.327 87.2725C483.787 89.196 482.926 92.1134 484.891 92.7181C487.383 93.4834 489.977 93.6652 492.546 93.9671C497.154 94.5303 501.77 95.0149 506.393 95.4201C514.666 96.1166 525.623 96.0265 532.078 101.836C534.317 103.873 535.937 106.5 536.752 109.416C540.321 121.701 526.548 124.89 527.837 135.585C528.427 140.487 534.433 143.862 536.854 148.542C539.122 152.927 537.141 157.247 538.696 160.175C544.617 171.319 547.496 168.427 548.38 182.375C560.729 193.245 576.043 207.454 569.164 225.567C565.862 234.265 558.484 240.353 550.493 244.664C544.938 247.662 538.421 249.028 533.182 252.631C524.694 258.85 516.979 270.188 516.818 280.996C516.713 288.04 519.981 295.646 520.439 302.806C520.807 308.547 519.213 313.724 519.446 319.41C520.028 333.641 523.823 347.358 527.417 361.051C537.79 361.217 543.569 364.273 551.909 370.264C566.657 368.96 578.359 372.842 585.918 386.225C594.895 391.133 604.666 394.911 613.302 400.636C656.963 429.574 701.389 475.65 696.897 532.183C696.539 536.693 694.281 548.26 694.618 551.581C696.765 572.702 705.081 593.296 703.883 614.898C702.924 632.925 694.311 649.411 687.963 666.02C686.788 669.226 683.005 673.355 682.159 676.546C679.063 688.221 676.549 699.707 672.782 711.224C662.78 741.801 648.917 770.505 641.95 802.099C641.521 804.044 640.039 804.355 638.411 805.273C634.076 809.212 618.345 814.363 612.417 815.848C553.551 830.599 484.687 836.129 424.266 833.276C379.688 830.863 335.185 827.239 290.805 822.407C287.689 822.073 266.135 820.171 264.195 819.498C258.912 818.404 251.084 813.448 245.969 810.761C239.404 807.288 232.726 804.032 225.946 801C209.99 794.048 192.238 787.929 175.92 781.664C159.56 775.495 143.566 768.398 128.015 760.409C100.451 746.093 74.9149 728.566 52.4783 707.021C43.2186 698.131 35.5847 689.393 26.8705 680.179C18.6911 671.531 4.9791 660.791 1.45334 648.882C-2.8661 634.293 3.17279 620.145 9.999 607.585C16.6875 595.279 23.5685 583.92 30.7788 572.023C55.2595 531.63 82.607 493.071 121.025 464.739C134.2 455.025 139.051 450.623 155.236 445.713C156.241 441.004 157.496 436.352 158.997 431.778C171.132 396.226 196.673 366.822 230.175 349.833C262.26 333.91 295.576 332.443 329.284 343.77C336.958 336.26 339.51 334.273 348.395 328.756C347.513 323.825 346.624 319.099 345.014 314.35Z" fill="#F9CAAD"/>
<path d="M343.384 309.942C328.729 301.681 315.377 295.997 300.233 288.961C276.516 277.94 252.681 261.077 236.971 239.888C229.611 230.164 223.828 219.343 219.834 207.821C213.588 189.506 211.049 153.88 215.029 134.458C228.055 70.9032 305.13 -3.79974 373.19 3.58002C384.929 4.85291 404.813 15.0796 402.226 29.1841L401.923 29.7737L401.816 31.3961C400.514 31.4932 394.449 30.1073 392.628 29.8692C379.584 28.1626 367.322 29.6773 355.255 34.9781C350.583 36.9436 346.559 40.0424 342.096 42.3958C327.045 50.3323 309.791 57.6632 297.539 69.6585C293.72 73.3969 293.573 80.78 295.245 85.582L295.335 86.1964C299.285 97.6383 303.756 105.461 314.995 111.153C323.027 115.219 327.425 113.685 334.978 114.73C341.487 129.415 338.609 143.322 345.662 157.625C348.359 163.096 358.629 170.365 358.247 177.445C356.775 180.344 352.656 182.117 349.666 183.785C344.225 180.573 333.444 174.653 326.343 176.572C321.813 177.795 322.275 177.684 317.795 176.934C305.298 174.844 292.543 174.808 285.45 187.222C274.358 206.636 286.444 228.024 303.7 238.745C311.22 243.313 326.253 246.128 335.222 247.173L331.942 247.43C329.322 249.192 339.933 270.235 341.902 273.566C347.378 282.831 345.957 299.706 343.384 309.942Z" fill="#B88458"/>
<path d="M295.245 85.582L295.335 86.1964C288.049 96.6884 280.771 106.795 276.559 118.886C275.371 122.296 273.882 124.935 273.079 128.618L272.504 128.933C272.506 128.74 272.507 128.549 272.508 128.356C275.549 115.342 282.006 103.605 289.667 92.7666C291.403 90.3126 293.401 87.2398 295.245 85.582Z" fill="#342217"/>
<path d="M401.923 29.7737C401.049 28.8888 398.236 23.7765 397.254 22.2998C395.455 19.5926 394.381 18.2639 392.216 15.7731C395.966 18.7598 397.707 20.5766 399.992 24.9587C400.924 26.7463 400.925 27.5251 402.226 29.1841L401.923 29.7737Z" fill="#1A0E09"/>
<path d="M364.017 25.0103C368.712 24.7298 380.443 24.6139 384.879 26.2036C384.319 26.7059 380.054 26.245 379.023 26.1948C348.666 24.7174 320.425 34.3962 295.818 51.6183C293.459 53.3052 284.846 60.5559 283.356 61.2673L283.624 60.5011C306.225 39.9795 333.35 27.1879 364.017 25.0103Z" fill="#1A0E09"/>
<path d="M281.741 77.1397L282.15 78.1002C264.202 97.7002 250.988 121.157 243.526 146.665C242.073 151.499 240.262 157.352 239.647 162.286L239.567 162.957L239.02 163.032C239.027 163.515 238.982 163.205 239.405 163.888L239.388 163.793L238.986 163.528C238.83 161.827 241.599 150.226 242.221 147.932C249.699 120.344 262.465 98.2016 281.741 77.1397Z" fill="#1A0E09"/>
<path d="M260.512 233.158C259.96 231.481 258.375 228.214 257.595 226.296C255.117 220.358 253.148 214.222 251.71 207.951C248.477 193.268 249.083 165.162 257.265 152.336C255.997 156.793 254.418 161.029 253.371 165.593C248.366 187.402 251.719 212.48 261.146 232.63L260.512 233.158Z" fill="#1A0E09"/>
<path d="M350.018 15.6961C365.628 13.9626 384.907 18.1671 396.132 29.763C386.653 23.8996 387.388 22.9295 375.584 19.3461C361.526 15.8201 345.124 15.3385 331.513 21.0834C330.339 21.5789 327.564 22.7266 326.412 22.5065C328.643 19.2315 345.576 16.0985 350.018 15.6961Z" fill="#030201"/>
<path d="M227.906 186.965L228.721 190.482C229.391 205.928 242.565 226.192 252.811 237.341C243.207 231.304 230.856 208.364 228.277 197.212C227.563 194.125 227.733 190.148 227.906 186.965Z" fill="#1A0E09"/>
<path d="M326.653 286.619C316.006 275.9 303.229 271.24 291.565 261.223L292.017 261.095C304.778 269.471 316.913 275.679 327.767 286.339L326.653 286.619Z" fill="#1A0E09"/>
<path d="M310.153 110.296C310.735 114.804 303.477 144.548 301.752 150.24C301.578 146.638 308.724 114.574 310.153 110.296Z" fill="#1A0E09"/>
<path d="M321.569 252.009C322.45 253.271 323.966 259.555 324.854 261.567C329.3 271.633 332.772 280.893 335.734 291.525C335.216 290.99 334.638 290.059 334.423 289.342C331.367 279.138 327.054 269.62 323.28 259.708C322.399 257.395 321.655 254.446 321.569 252.009Z" fill="#603F29"/>
<path d="M318.977 146.543C320.899 139.459 322.194 132.318 323.475 125.101C323.836 123.066 324.229 117.273 324.614 116.03C325.463 125.732 322.515 137.739 319.643 147.062L318.977 146.543Z" fill="#1A0E09"/>
<path d="M334.247 273.586C337.13 278.645 339.904 297.403 341.34 304.333C339.113 300.451 335.574 279.582 334.247 273.586Z" fill="#342217"/>
<path d="M281.741 77.1397C283.898 74.714 292.487 65.935 294.876 64.9975L294.725 65.4627L294.242 65.1361L294.317 65.9897C291.323 69.1216 285.355 75.3822 282.15 78.1002L281.741 77.1397Z" fill="#9A6648"/>
<path d="M267.845 251.087C269.075 251.826 272.407 258.326 273.759 260.053C274.446 260.931 277.651 265.384 277.927 266.087L277.487 266.163C273.989 264.098 269.258 255.015 267.845 251.087Z" fill="#965429"/>
<path d="M389.81 19.9104C393.385 21.5619 397.219 26.2035 398.892 29.8231C398.146 29.4148 391.63 21.7019 389.81 19.9104Z" fill="#342217"/>
<path d="M327.767 286.339C328.851 287.321 331.361 289.294 331.323 290.658L331.008 289.581L331.717 290.578L331.626 290.787C329.729 289.879 328.196 288.125 326.653 286.619L327.767 286.339Z" fill="#965429"/>
<path d="M318.977 146.543L319.643 147.062C319.155 148.834 318.489 150.67 317.893 152.418L317.255 152.802L317.633 152.976L317.356 153.419L317.284 152.524L317.26 153.457L317.248 153.448C317.329 151.474 318.379 148.528 318.977 146.543Z" fill="#603F29"/>
<path d="M252.811 237.341C254.791 237.702 255.976 239.244 256.924 240.977C255.341 240.164 253.414 239.089 252.811 237.341Z" fill="#9A6648"/>
<path d="M261.146 232.63C261.96 234.319 262.729 235.539 262.873 237.398C261.863 236.687 261.066 234.399 260.512 233.158L261.146 232.63Z" fill="#603F29"/>
<path d="M227.906 186.965C228.002 185.899 228.045 185.277 228.245 184.211C229.029 185.423 228.788 188.972 228.721 190.482L227.906 186.965Z" fill="#603F29"/>
<path d="M345.014 314.35C340.168 310.442 321.436 301.737 315.326 299.035C292.083 288.756 272.138 278.941 253.237 261.667C222.45 233.529 211.929 205.467 210.394 164.753C208.707 120.044 224.66 90.6419 254.126 58.1735C280.792 28.8024 317.436 2.5568 358.187 0.119421C378.018 -1.0667 406.611 6.39136 405.344 31.0959C405.232 33.2833 411.912 35.3532 413.86 36.1049C429.832 42.2675 444.19 51.265 458.381 60.6963C469.078 67.6637 480.082 73.69 483.327 87.2725C483.787 89.196 482.926 92.1134 484.891 92.7181C487.383 93.4834 489.977 93.6652 492.546 93.9671C497.154 94.5303 501.77 95.0149 506.393 95.4201C514.666 96.1166 525.623 96.0265 532.078 101.836C534.317 103.873 535.937 106.5 536.752 109.416C540.321 121.701 526.548 124.89 527.837 135.585C528.427 140.487 534.433 143.862 536.854 148.542C539.122 152.927 537.141 157.247 538.696 160.175C544.617 171.319 547.496 168.427 548.38 182.375C560.729 193.245 576.043 207.454 569.164 225.567C565.862 234.265 558.484 240.353 550.493 244.664C544.938 247.662 538.421 249.028 533.182 252.631C524.694 258.85 516.979 270.188 516.818 280.996C516.713 288.04 519.981 295.646 520.439 302.806C520.807 308.547 519.213 313.724 519.446 319.41C520.028 333.641 523.823 347.358 527.417 361.051C537.79 361.217 543.569 364.273 551.909 370.264C566.657 368.96 578.359 372.842 585.918 386.225C594.895 391.133 604.666 394.911 613.302 400.636C656.963 429.574 701.389 475.65 696.897 532.183C696.539 536.693 694.281 548.26 694.618 551.581C696.765 572.702 705.081 593.296 703.883 614.898C702.924 632.925 694.311 649.411 687.963 666.02C686.788 669.226 683.005 673.355 682.159 676.546C679.063 688.221 676.549 699.707 672.782 711.224C662.78 741.801 648.917 770.505 641.95 802.099C641.521 804.044 640.039 804.355 638.411 805.273C640.042 798.62 641.711 791.991 643.526 785.386C650.413 760.324 661.183 736.775 669.511 712.134C671.989 704.675 674.158 697.117 676.011 689.479C677.183 684.687 678.253 679.604 679.671 674.876C680.475 672.196 684.565 667.159 685.529 664.556C690.127 652.134 698.631 634.281 700.486 621.656C702.825 605.734 698.92 587.455 695.294 572.024C694.228 567.493 692.369 559.183 692.076 554.803C691.716 549.466 693.203 540.641 693.846 535.013C698.424 494.955 677.247 460.516 649.601 433.636C639.005 423.333 628.055 413.871 615.609 405.671C610.066 402.053 604.328 398.741 598.424 395.75C596.219 394.63 585.061 389.297 584.282 388.304C576.83 378.801 573.179 374.47 560.35 372.818C548.841 371.336 549.095 375.933 540.727 382.854L540.674 382.548C544.3 377.79 545.466 376.489 550.168 372.83C542.694 367.082 537.145 364.288 527.714 363.589C529.437 376.702 532.415 380.635 532.895 395.74C531.414 390.48 530.707 383.609 529.181 377.652C524.62 359.857 518.453 341.691 517.055 323.32C516.934 321.728 517.195 322.05 516.732 320.363L516.069 320.536L514.866 320.079C523.838 301.87 509.424 288.527 515.822 271.266C519.224 262.09 526.152 252.738 535.011 248.079C539 246.142 543.505 245.021 547.467 243.051C561.083 236.307 572.898 223.344 566.005 207.193C561.923 197.631 553.457 192.203 546.968 184.586C544.875 182.128 545.497 176.027 543.814 173.15C541.048 168.421 537.698 165.266 535.099 160.296C519.966 166.8 501.404 176.046 485.22 179.27C481.995 179.912 475.849 178.801 472.402 178.342L472.111 177.883C474.464 176.108 486.069 178.455 491.758 176.167C497.82 173.731 533.525 160.193 535.61 156.401C536.927 149.463 526.985 143.564 525.229 136.983C522.847 129.094 530.394 123.567 533.321 117.321C537.999 105.759 526.852 100.602 517.583 99.2176C504.966 97.3347 483.561 97.4813 472.423 92.3217L471.851 92.0516C473.784 92.3058 477.691 93.0641 479.413 92.2555C483.32 90.4203 478.219 81.8411 476.697 79.411C471.858 71.6439 463.133 67.4704 455.894 62.5403C442.227 53.2302 428.412 45.0872 413.143 38.6726C408.646 36.7833 401.618 32.684 396.788 31.9362C383.788 29.979 366.107 30.1917 354.269 36.9594C339.256 45.5424 323.052 53.2656 308.404 62.5324C304.294 65.1329 296.345 70.9889 295.929 76.1873C294.81 90.1617 304.896 106.135 318.404 110.657C323.979 112.54 328.805 112.563 334.328 113.376C343.513 123.465 339.465 145.012 347.344 157.662C351.687 164.634 359.939 168.818 359.563 177.836C358.022 181.194 353.275 183.27 349.98 185.001C341.25 181.687 332.005 174.022 322.232 179.516C309.391 176.653 293.354 175.246 286.591 189.056C279.674 203.178 284.297 218.261 294.752 229.274C298.28 232.991 301.87 236.135 306.591 238.302C320.742 244.244 336.888 245.296 352.048 246.232C357.645 246.574 365.297 246.732 369.684 242.745C372.633 240.065 372.152 235.387 372.3 231.675C373.295 233.939 373.793 236.51 374.378 238.935C370.467 247.552 364.225 248.651 355.35 248.475C348.618 248.343 341.93 247.73 335.222 247.173C326.253 246.128 311.22 243.313 303.7 238.745C286.444 228.024 274.358 206.636 285.45 187.222C292.543 174.808 305.298 174.844 317.795 176.934C322.275 177.684 321.813 177.795 326.343 176.572C333.444 174.653 344.225 180.573 349.666 183.785C352.656 182.117 356.775 180.344 358.247 177.445C358.629 170.365 348.359 163.096 345.662 157.625C338.609 143.322 341.487 129.415 334.978 114.73C327.425 113.685 323.027 115.219 314.995 111.153C303.756 105.461 299.285 97.6383 295.335 86.1964L295.245 85.582C293.573 80.78 293.72 73.3969 297.539 69.6585C309.791 57.6632 327.045 50.3323 342.096 42.3958C346.559 40.0424 350.583 36.9436 355.255 34.9781C367.322 29.6773 379.584 28.1626 392.628 29.8692C394.449 30.1073 400.514 31.4932 401.816 31.3961L401.923 29.7737L402.226 29.1841C404.813 15.0796 384.929 4.85291 373.19 3.58002C305.13 -3.79974 228.055 70.9032 215.029 134.458C211.049 153.88 213.588 189.506 219.834 207.821C223.828 219.343 229.611 230.164 236.971 239.888C252.681 261.077 276.516 277.94 300.233 288.961C315.377 295.997 328.729 301.681 343.384 309.942C345.957 299.706 347.378 282.831 341.902 273.566C339.933 270.235 329.322 249.192 331.942 247.43C333.115 249.461 333.354 250.559 333.991 252.767L335.267 256.377C337.904 263.738 340.36 267.563 343.686 274.188C348.891 284.557 346.858 299.62 345.168 310.728C349.51 317.526 349.831 322.413 351.194 330.292C356.617 328.535 360.443 327.848 366.219 328.096L366.581 328.324C359.764 330.386 351.065 330.356 343.709 334.76C338.935 337.618 334.666 341.549 330.236 344.184C339.312 348.296 347.794 351.409 356.307 356.792L355.814 356.644C346.768 353.84 335.5 348.154 325.057 344.828C293.534 334.945 259.384 337.906 230.033 353.067C197.852 369.706 171.628 400.583 160.793 435.195C156.865 447.745 155.055 460.861 155.438 474.006C152.569 464.737 154.257 458.301 154.78 448.748C141.179 453.151 134.649 458.171 123.251 466.606C73.1231 503.705 40.5142 559.199 10.6095 612.762C4.86375 623.054 0.667879 635.891 4.03627 647.542C7.62965 659.219 20.5376 669.145 28.5722 677.72C37.3879 687.13 45.6511 696.249 54.9753 705.243C78.4622 727.538 105.214 746.115 134.307 760.333C145.45 765.874 156.819 770.944 168.387 775.531C192.572 785.364 217.676 793.196 241.038 804.969C244.397 806.663 263.912 817.117 264.827 819.044L264.195 819.498C258.912 818.404 251.084 813.448 245.969 810.761C239.404 807.288 232.726 804.032 225.946 801C209.99 794.048 192.238 787.929 175.92 781.664C159.56 775.495 143.566 768.398 128.015 760.409C100.451 746.093 74.9149 728.566 52.4783 707.021C43.2186 698.131 35.5847 689.393 26.8705 680.179C18.6911 671.531 4.9791 660.791 1.45334 648.882C-2.8661 634.293 3.17279 620.145 9.999 607.585C16.6875 595.279 23.5685 583.92 30.7788 572.023C55.2595 531.63 82.607 493.071 121.025 464.739C134.2 455.025 139.051 450.623 155.236 445.713C156.241 441.004 157.496 436.352 158.997 431.778C171.132 396.226 196.673 366.822 230.175 349.833C262.26 333.91 295.576 332.443 329.284 343.77C336.958 336.26 339.51 334.273 348.395 328.756C347.513 323.825 346.624 319.099 345.014 314.35Z" fill="#030201"/>
<path d="M372.3 231.675C372.035 230.839 372.044 231.286 372.411 230.337C373.926 230.322 373.225 230.125 374.538 231.095L374.362 231.795C378.657 238.395 388.104 248.728 394.168 253.728C392.609 253.646 392.239 253.294 390.877 252.529C393.291 252.612 376.141 254.179 377.691 253.819C366.064 256.519 343.896 250.846 333.991 252.767C333.354 250.559 333.115 249.461 331.942 247.43L335.222 247.173C341.93 247.73 348.618 248.343 355.35 248.475C364.225 248.651 370.467 247.552 374.378 238.935C373.793 236.51 373.295 233.939 372.3 231.675Z" fill="#DAA182"/>
<path d="M374.538 231.095C380.106 234.483 384.36 241.698 388.89 246.545C407.628 266.592 442.02 267.534 466.384 257.997L467.027 258.676C442.1 268.455 416.906 269.169 394.168 253.728C388.104 248.728 378.657 238.395 374.362 231.795L374.538 231.095Z" fill="#030201"/>
<path d="M333.991 252.767C343.896 250.846 366.064 256.519 377.691 253.819C376.141 254.179 393.291 252.612 390.877 252.529C388.369 254.367 381.516 255.345 378.638 255.174C378.156 254.861 377.573 254.484 376.892 254.042C374.461 254.568 371.779 254.848 369.333 254.97C365.4 255.165 361.57 254.616 357.667 254.927C357.258 254.959 357.009 255.153 356.655 255.346C356.855 255.141 357.318 255.132 357.706 255.056C363.305 257.806 377.524 257.817 382.865 255.472C384.948 255.673 385.036 255.731 386.951 256.654L387.069 256.934C381.852 255.809 375.546 257.832 369.999 257.714C364.064 257.586 339.609 253.837 335.555 255.98L335.267 256.377L333.991 252.767Z" fill="#EDB697"/>
<path d="M466.384 257.997L501.148 246.537L502.115 247.42C494.312 250.473 486.389 253.21 478.365 255.624C474.693 256.726 470.323 257.478 467.027 258.676L466.384 257.997Z" fill="#9A6648"/>
<path d="M501.148 246.537C512.814 241.777 520.816 240.005 533.439 239.842C535.394 239.817 537.709 238.619 539.77 238.58C530.71 243.379 513.774 240.725 502.115 247.42L501.148 246.537Z" fill="#030201"/>
<path d="M514.866 320.079L516.069 320.536C511.271 327.64 512.752 335.369 513.704 342.788C510.778 334.74 509.851 327.692 514.866 320.079Z" fill="#1A0E09"/>
<path d="M319.275 509.571L319.775 510.352C306.368 518.998 290.828 529.346 278.077 538.924C269.048 545.707 257.686 556.168 249.012 563.779C267.551 611.904 292.223 641.456 329.9 676.759C335.429 681.939 342.486 687.586 347.498 692.388C342.024 689.401 336.088 683.502 330.884 681.219L330.166 681.497C329.468 683.372 333.798 693.379 334.719 695.969C338.783 707.246 342.777 718.547 346.704 729.873C347.911 733.402 350.704 741.101 351.218 744.405L350.232 743.939L349.367 744.711C347.854 754.715 344.86 771.382 341.493 780.723C338.482 789.083 330.026 801.636 325.901 810.107C323.228 815.596 321.07 821.337 318.464 826.652C319.82 815.559 328.707 800.159 333.995 789.528C331.387 786.991 327.929 785.159 325.302 782.79C311.311 770.176 294.795 763.287 278.389 754.347C266.227 747.781 254.494 740.449 243.26 732.397C223.137 717.534 205.346 699.752 190.473 679.636C176.954 661.681 167.211 641.088 148.367 627.292C145.311 625.056 139.97 623.334 136.532 621.442C129.207 617.413 121.721 611.792 116.436 605.272C117.768 605.822 122.409 610.092 124.001 611.313C130.409 616.226 138.449 620.945 146.15 623.38L146.683 623.543C183.263 614.118 223.013 582.839 251.061 558.231C256.169 553.75 265.89 546.454 268.495 540.739L269.726 541.607L270.083 541.783C282.891 530.938 304.316 517.875 319.275 509.571Z" fill="#030201"/>
<path d="M246.773 566.334C248.083 568.017 254.322 583.985 256.292 588.057C261.877 599.386 268.325 610.268 275.58 620.607C290.058 641.255 306.643 658.527 324.817 675.711C325.686 677.012 326.826 679.204 327.291 680.669C333.284 699.693 340.069 718.439 347.05 737.04C349.229 742.849 339.694 783.734 334.585 787.65C334.64 786.596 334.597 786.649 334.19 785.659C326.589 781.427 321.611 775.463 314.702 770.918C306.102 765.263 295.212 759.991 285.994 755.218C247.714 735.42 216.177 710.587 190.994 675.325C185.714 667.931 181.111 660.117 175.909 652.74C168.723 642.721 160.413 633.559 151.141 625.433C177.577 616.884 204.761 599.221 226.853 582.466C233.211 577.645 240.054 571.05 246.279 566.678L246.773 566.334Z" fill="white"/>
<path d="M442.396 71.3214C449.284 70.2736 455.268 79.19 452.294 83.6027C449.107 85.5483 442.696 83.5259 437.752 83.992C422.431 85.4344 412.774 92.8908 403.174 104.009C401.291 106.417 399.374 108.798 397.424 111.152C397.094 101.765 398.209 92.7937 404.442 85.3532C412.399 75.8568 430.77 72.2474 442.396 71.3214Z" fill="#030201"/>
<path d="M441.399 73.0783C442.653 72.8912 445.232 72.6687 446.361 73.1189C449.22 74.2612 452.445 79.8409 451.427 82.7415C449.907 83.1873 441.125 82.3716 438.52 82.5464C423.258 83.5704 413.73 90.5457 403.858 101.076C401.99 103.086 400.472 105.327 398.871 107.558C400.241 80.9858 417.84 75.6929 441.399 73.0783Z" fill="#9A6648"/>
<path d="M322.838 494.367C340.526 499.778 351.655 510.854 366.524 520.982C403.485 546.155 449.911 569.26 495.608 569.481L499.582 569.995L499.841 570.402L499.71 570.651C453.12 574.235 401.873 548.53 364.738 522.658C349.643 512.141 340.2 501.283 322.395 495.187L322.838 494.367Z" fill="#030201"/>
<path d="M540.573 410.949C546.309 411.485 553.711 418.24 557.695 422.072C576.364 440.03 592.115 461.171 603.877 484.273C610.946 498.159 617.38 514.366 612.578 530.094C608.065 544.305 594.172 557.249 581.105 563.87L580.504 564.049C580.56 563.675 587.79 558.364 588.571 557.771C617.218 536.262 617.555 512.912 601.072 482.986C589.7 462.339 562.384 420.253 540.573 410.949Z" fill="#823C17"/>
<path d="M376.045 368.027C394.552 368.785 415.542 372.505 434.387 374.215C459.044 376.453 498.92 374.918 517.429 391.927C494.077 381.155 485.052 379.663 459.828 378.015C448.951 377.403 438.09 376.555 427.251 375.474C409.834 373.705 392.635 370.694 375.457 368.922C375.516 368.735 375.913 368.215 376.045 368.027Z" fill="#030201"/>
<path d="M407.335 385.569C414.416 384.733 449.213 391.307 454.141 394.845C451.959 395.612 449.469 395.388 447.098 395.376C442.149 395.142 403.472 390.449 400.364 388.726C399.544 388.272 399.801 388.538 399.531 387.634C401.486 385.906 404.698 385.871 407.335 385.569Z" fill="#EDB697"/>
<path d="M625.434 588.029L625.681 588.173C618.053 596.714 607.064 609.395 601.06 618.904C582.197 648.771 562.849 676.26 536.337 700.211L536.16 700.15C536.184 700.03 575.159 656.249 579.864 647.86C586.26 636.458 615.366 594.886 625.434 588.029Z" fill="#823C17"/>
<path d="M400.406 271.894C401.705 272.624 410.878 280.997 412.66 282.672C434.435 303.145 456.822 324.158 476.685 346.488C481.257 351.629 489.211 360.683 492.67 366.407C489.77 363.65 484.476 357.186 481.51 353.899C474.284 345.952 466.93 338.124 459.448 330.416C446.36 317.065 432.474 304.141 419.203 290.967C415.389 287.181 402.858 275.656 400.406 271.894Z" fill="#965429"/>
<path d="M636.839 608.887L637.443 607.981C639.844 614.433 642.51 621.455 643.838 628.141C647.523 646.69 643.57 669.463 635.453 686.43C630.968 695.805 627.916 702.579 624.214 712.307C627.005 697.822 630.375 694.129 635.818 680.918C645.01 658.609 646.593 631.412 636.839 608.887Z" fill="#823C17"/>
<path d="M499.728 141.512C485.715 150.778 480.62 134.282 489.26 122.196C487.538 126.355 486.694 128.548 486.264 133.017L486.817 133.991C493.294 135.365 498.477 132.295 502.13 133.509L502.108 134.823L502.437 134.662C503.837 136.221 503.654 135.56 503.745 137.321C503.027 138.97 501.21 140.556 499.728 141.512Z" fill="#EDB697"/>
<path d="M499.728 141.512C485.715 150.778 480.62 134.282 489.26 122.196C487.538 126.355 486.694 128.548 486.264 133.017C485.759 138.947 488.09 142.062 494.113 142.294C495.987 142.366 497.942 141.599 499.728 141.512Z" fill="#823C17"/>
<path d="M337.959 211.867C340.437 212.141 346.996 212.951 348.461 214.775C347.32 217.231 348.285 219.284 348.354 222.434L345.273 223.938C344.135 222.855 340.082 222.794 338.337 222.645C337.522 222.151 337.415 222 336.691 221.366C335.335 217.457 334.146 217.899 332.063 214.665C331.626 213.985 332.008 213.64 332.351 212.514L334.696 213.153L334.442 212.556C335.221 211.716 336.411 211.973 337.959 211.867Z" fill="#DAA182"/>
<path d="M337.959 211.867C340.437 212.141 346.996 212.951 348.461 214.775C345.873 215.318 339.052 213.154 334.696 213.153L334.442 212.556C335.221 211.716 336.411 211.973 337.959 211.867Z" fill="#1A0E09"/>
<path d="M167.236 725.825C139.162 714.483 113.268 698.357 90.7075 678.162L90.8328 678.029C96.186 681.336 102.483 686.337 107.899 690.109C123.871 701.235 149.63 718.636 167.921 724.997L168.321 725.132L167.236 725.825Z" fill="#823C17"/>
<path d="M534.295 734.38C536.658 748.51 518.024 783.566 512.61 797.843C509.646 805.659 508.665 810.967 506.479 818.706C505.33 804.371 524.094 769.775 529.263 754.814C532.116 746.552 532.372 742.324 534.295 734.38Z" fill="#823C17"/>
<path d="M673.606 652.259C674.653 628.96 661.38 607.481 646.486 590.758L646.74 590.715C659.888 601.028 670.57 620.083 673.656 636.39C674.493 640.817 674.499 645.636 674.519 650.146L673.606 652.259Z" fill="#823C17"/>
<path d="M359.654 608.616C361.277 609.975 369.547 619.986 372.004 622.481C386.4 637.098 398.536 644.975 416.307 654.578C415.809 654.471 415.233 654.337 414.753 654.165C396.182 647.504 368.668 625.815 359.654 608.616Z" fill="#965429"/>
<path d="M397.9 651.561L398.401 651.644C403.163 669.258 411.691 681.725 427.284 691.483C430.191 693.302 438.158 697.078 439.594 698.118C437.88 698.141 434.49 696.484 432.824 695.795C413.736 687.902 401.155 671.851 397.9 651.561Z" fill="#965429"/>
<path d="M303.977 222.825C300.207 220.679 298.028 218.95 295.622 215.267C290.576 207.536 290.799 198.174 299.289 193.119C305.184 189.607 310.845 190.539 317.051 192.12C315.83 193.014 315.916 193.106 314.439 193.164C313.65 193.069 312.86 192.98 312.069 192.901C298.309 191.533 289.756 199.959 296.723 213.268C298.903 217.432 300.668 219.452 303.977 222.825Z" fill="#030201"/>
<path d="M255.353 486.952C233.574 489.677 204.641 499.721 184.033 487.78C188.914 489.491 195.319 491.693 200.482 491.944C218.33 492.81 238.171 488.599 255.591 485.844L255.353 486.952Z" fill="#823C17"/>
<path d="M381.495 590.942C382.893 591.702 389.219 597.521 391.565 599.152C406.387 609.448 417.146 611.898 434.58 614.233C431.635 614.501 428.673 614.514 425.725 614.271C407.601 612.693 393.134 604.692 381.495 590.942Z" fill="#823C17"/>
<path d="M450.633 108.475C452.214 108.241 454.42 107.768 455.718 108.597L455.644 109.291C453.147 111.931 444.49 110.456 439.395 112.569C433.586 114.977 430.733 117.06 425.445 120.381C424.376 120.951 424.327 120.925 423.16 121.314L422.974 120.959C430.386 112.002 439.55 109.016 450.633 108.475Z" fill="#030201"/>
<path d="M608.513 759.414L610.169 760.283C599.154 778.561 596.79 786.438 594.32 807.246C592.334 789.837 600.436 773.935 608.513 759.414Z" fill="#030201"/>
<path d="M608.513 759.414C614.529 748.284 622.15 728.562 623.533 716.145L623.943 715.762C623.942 716.633 623.457 718.917 623.327 720.065C621.879 732.875 616.701 749.33 610.169 760.283L608.513 759.414Z" fill="#823C17"/>
<path d="M165.763 519.149L166.456 519.674C156.259 527.305 146.573 534.568 136.637 542.554C130.028 547.866 125.194 552.938 119.242 557.951L119.067 557.587C127.178 547.087 154.848 527.144 165.763 519.149Z" fill="#1A0E09"/>
<path d="M453.751 633.809C456.544 636.339 459.699 640.675 462.835 643.623C471.665 651.923 480.261 657.501 490.872 662.968C477.677 660.19 460.386 645.567 453.751 633.809Z" fill="#965429"/>
<path d="M44.3666 627.591C45.3772 629.928 46.5379 634.075 47.4655 636.705C49.1522 641.48 51.0667 646.171 53.2009 650.763C56.3775 657.753 61.5612 665.705 65.187 672.834C63.1835 671.077 61.036 667.392 59.5294 665.038C52.9114 654.693 46.0401 639.795 44.3666 627.591Z" fill="#823C17"/>
<path d="M469.805 150.381L470.313 151.21C467.38 158.014 462.501 166.032 461.127 173.036C459.845 179.566 465.145 185.761 468.824 190.871C458.38 180.899 456.807 175.346 463.724 162.122C465.707 158.331 467.812 154.203 469.805 150.381Z" fill="#582916"/>
<path d="M438.373 102.093C445.376 101.543 446.269 102.298 451.486 106.722C443.257 102.533 438.58 102.562 430.565 107.23C427.005 109.979 424.852 111.93 421.595 115.025C421.982 114.378 422.376 113.734 422.774 113.094C426.49 107.15 431.554 103.696 438.373 102.093Z" fill="#823C17"/>
<path d="M369.723 389.53L370.671 389.613C365.692 405.046 360.355 413.143 349.385 425.295L348.512 424.867C358.243 414.169 365.091 403.182 369.723 389.53Z" fill="#823C17"/>
<path d="M508.102 523.899C521.252 536.184 495.782 547.255 487.353 527.62C487.289 527.133 487.325 526.869 487.341 526.379C490.1 530.571 492.226 533.177 496.979 535.495C500.727 537.323 507.688 538.545 509.771 533.603C511.13 530.376 509.397 526.903 508.102 523.899Z" fill="#9A6648"/>
<path d="M360.085 547.023C365.785 555.888 373.008 564.242 380.418 571.718C383.444 574.772 388.913 579.266 391.339 582.233C378.668 573.929 368.475 560.356 359.838 548.247L360.085 547.023Z" fill="#823C17"/>
<path d="M315.411 203.198L316.829 204.714C314.783 214.209 316.226 221.286 326.247 224.717L326.209 225.228C314.486 225.691 312.965 211.939 315.411 203.198Z" fill="#1A0E09"/>
<path d="M317.051 192.12C321.766 192.378 327.981 193.863 330.039 198.566C328.847 198.396 323.467 195.348 321.064 194.419C319.441 197.932 317.939 200.978 316.829 204.714L315.411 203.198C316.369 200.558 318.241 196.674 319.433 194.011L314.439 193.164C315.916 193.106 315.83 193.014 317.051 192.12Z" fill="#823C17"/>
<path d="M502.13 133.509C506.384 128.927 514.412 119.419 521.05 120.313C517.457 122.547 515.206 123.883 511.937 126.496C509.442 128.491 504.819 133.097 502.437 134.662L502.108 134.823L502.13 133.509Z" fill="#030201"/>
<path d="M412.875 337.652C419.808 347.883 425.206 356.428 432.795 366.253L432.085 366.574C424.26 358.505 417.405 347.935 412.875 337.652Z" fill="#965429"/>
<path d="M348.354 222.434C353.351 220.833 355.839 220.494 361.087 220.209C356.787 221.809 352.49 222.971 348.313 224.665C343.585 226.583 339.462 229.18 334.487 230.579C338.109 228.166 341.534 226.14 345.273 223.938L348.354 222.434Z" fill="#030201"/>
<path d="M643.709 540.692C648.464 541.135 669.443 552.185 674.645 554.888C670.092 554.669 649.188 543.514 643.709 540.692Z" fill="#965429"/>
<path d="M436.599 185.687C437.973 186.652 443.201 194.165 445.082 196.289C448.71 200.385 452.4 204.478 456.091 208.533C449.368 204.823 440.242 192.483 436.599 185.687Z" fill="#582916"/>
<path d="M271.234 535.93C273.095 531.417 282.243 519.168 285.548 514.932C281.671 522.251 276.545 529.377 272.23 536.516L271.234 535.93Z" fill="#9A6648"/>
<path d="M332.351 212.514C331.206 209.85 330.137 205.336 331.432 202.625L332.552 207.642C333.332 211.222 334.532 211.549 337.959 211.867C336.411 211.973 335.221 211.716 334.442 212.556L334.696 213.153L332.351 212.514Z" fill="#823C17"/>
<path d="M367.433 699.083C370.65 700.864 378.76 708.42 382.556 711.258C377.463 710.115 370.579 703.198 367.433 699.083Z" fill="#DAA182"/>
<path d="M544.706 186.433L544.58 187.131C541.636 191.258 535.64 192.251 530.734 193.649L531.289 192.934C535.973 191.233 540.469 189.054 544.706 186.433Z" fill="#B88458"/>
<path d="M681.441 503.088C684.558 505.642 685.157 514.893 685.076 518.821C684.15 516.116 682.683 507.381 681.441 503.088Z" fill="#9A6648"/>
<path d="M336.691 221.366C337.415 222 337.522 222.151 338.337 222.645C333.729 224.232 331.066 225.673 326.209 225.228L326.247 224.717C331.074 224.669 332.756 223.897 336.691 221.366Z" fill="#EDB697"/>
<path d="M367.52 368.043C366.668 368.178 365.407 368.343 364.731 367.841C367.751 367.017 369.303 367.125 372.393 367.626C373.147 367.688 375.471 367.816 376.045 368.027C375.913 368.215 375.516 368.735 375.457 368.922C372.806 368.67 370.161 368.377 367.52 368.043Z" fill="#582916"/>
<path d="M367.52 368.043C366.668 368.178 365.407 368.343 364.731 367.841C367.751 367.017 369.303 367.125 372.393 367.626L367.52 368.043Z" fill="#DAA182"/>
<path d="M414.007 128.262L415.086 127.926L415.26 128.315C412.07 130.416 409.333 129.417 405.172 129.197L402.995 128.777C403.936 128.383 412.292 128.3 414.007 128.262Z" fill="#DAA182"/>
<path d="M493.541 518.743C496.653 518.308 498.877 518.415 501.786 519.662L501.474 519.969L499.117 519.578C495.265 519.435 494.851 519.948 491.212 520.415C491.521 519.624 492.582 519.288 493.541 518.743Z" fill="#B88458"/>
<path d="M571.591 392.007L571.768 392.158C571.323 393.997 565.534 398.915 563.758 400.521L563.455 400.23C566.06 396.737 568.282 394.793 571.591 392.007Z" fill="#B88458"/>
<path d="M349.367 744.711L350.232 743.939L351.218 744.405C351.945 747.456 353.012 751.425 353.537 754.445C352.66 752.365 350.365 746.509 349.367 744.711Z" fill="#1A0E09"/>
<path d="M349.385 425.295C347.465 427.474 343.535 431.388 341.364 433.028C343.785 430.157 345.835 427.528 348.512 424.867L349.385 425.295Z" fill="#DAA182"/>
<path d="M495.608 569.481C499.089 569.449 504.329 569.23 507.663 569.405L507.859 569.729C505.336 570.137 502.229 570.603 499.71 570.651L499.841 570.402L499.582 569.995L495.608 569.481Z" fill="#603F29"/>
<path d="M322.395 495.187C319.281 494.535 315.845 493.895 312.832 492.964C316.43 492.959 319.401 493.398 322.838 494.367L322.395 495.187Z" fill="#603F29"/>
<path d="M165.763 519.149C167.869 517.53 170.664 515.596 173.171 514.743C171.826 516.315 168.357 518.425 166.456 519.674L165.763 519.149Z" fill="#DAA182"/>
<path d="M369.723 389.53C370.512 386.691 371.266 383.975 372.175 381.17C372.128 384.59 371.548 386.311 370.671 389.613L369.723 389.53Z" fill="#B88458"/>
<path d="M359.838 548.247C358.643 546.675 356.083 543.673 356.123 541.838C357.745 543.077 358.932 545.255 360.085 547.023L359.838 548.247Z" fill="#DAA182"/>
<path d="M391.84 582.883C393.927 583.241 397.813 586.262 399.035 588.035C396.149 587.283 393.879 584.968 391.84 582.883Z" fill="#EDB697"/>
<path d="M255.591 485.844C257.87 485.282 260.382 485.105 262.734 484.853C260.312 486.07 258.003 486.405 255.353 486.952L255.591 485.844Z" fill="#9A6648"/>
<path d="M271.234 535.93L272.23 536.516C271.407 538.165 270.472 539.939 269.726 541.607L268.495 540.739L271.234 535.93Z" fill="#582916"/>
<path d="M326.713 505.428C324.885 506.908 321.896 509.29 319.775 510.352L319.275 509.571C321.503 507.894 324.203 506.683 326.713 505.428Z" fill="#342217"/>
<path d="M473.988 142.078C473.006 145.065 471.768 148.419 470.313 151.21L469.805 150.381C471.189 147.191 472.283 145.126 473.988 142.078Z" fill="#9A6648"/>
<path d="M452.846 112.338C454.941 112.419 456.357 112.488 458.425 112.793L458.46 113.35C456.121 113.802 454.206 114.602 452.846 112.338Z" fill="#1A0E09"/>
<path d="M633.859 601.231C635.31 602.49 636.649 606.102 637.443 607.981L636.839 608.887L633.859 601.231Z" fill="#9A6648"/>
<path d="M168.321 725.132C169.546 725.607 171.928 726.318 172.666 727.168C170.517 726.778 169.328 726.468 167.236 725.825L168.321 725.132Z" fill="#B88458"/>
<path d="M673.606 652.259L674.519 650.146C674.508 652.396 674.654 653.776 673.93 655.916C673.482 654.258 673.543 654.014 673.606 652.259Z" fill="#DAA182"/>
<path d="M397.9 651.561C397.315 649.629 397.195 649.489 397.525 647.563L397.976 647.229C398.524 648.708 398.391 650.052 398.401 651.644L397.9 651.561Z" fill="#EDB697"/>
<path d="M432.795 366.253C434.033 367.299 434.669 367.638 434.935 368.974C433.446 368.568 433.344 367.961 432.085 366.574L432.795 366.253Z" fill="#DAA182"/>
</svg>
